<?xml version="1.0" encoding="UTF-8"?>
<svg width="18" height="18" viewBox="0 0 18 18" version="1.1"
xmlns="http://www.w3.org/2000/svg"
xmlns:svg="http://www.w3.org/2000/svg">
<path id="ped-other"
  fill="#a8a8a8" stroke-width="0.25" stroke="#000000"
  d="M 10.098 1 C 9.96 1 9.833 1.075 9.686 1.215 C 9.21 1.67 9.197 2.67 9.67 3.035 C 9.822 3.153 9.984 3.17 10.137 3.17 C 10.544 3.17 10.88 2.527 10.867 1.967 C 10.857 1.476 10.648 1.13 10.299 1.027 C 10.227 1.006 10.161 0.997 10.098 1 z M 7.879 1.145 C 7.759 1.147 7.642 1.173 7.535 1.217 C 7.386 1.278 7.214 1.3923306 7.1835938 1.5507812 C 7.0798835 2.0915858 7.325 3.037 7.873 3.051 C 8.222 3.035 8.455 2.792 8.604 2.482 C 8.742 2.144 8.674 1.812 8.539 1.518 C 8.478 1.385 8.365 1.259 8.225 1.203 C 8.118 1.161 7.998 1.142 7.879 1.145 z M 12.65 1.369 C 12.618 1.37 12.585 1.374 12.555 1.379 C 12.247 1.428 11.805 1.748 11.621 2.051 C 11.289 2.602 11.191 3.347 11.537 3.756 C 11.856 4.134 11.92 4.158 12.271 4.178 C 12.623 4.198 12.998 4.057 13.252 3.707 C 13.506 3.357 13.814 2.076 13.281 1.594 C 13.12 1.448 12.874 1.362 12.65 1.369 z M 5.93 1.74 C 5.723 1.744 5.545 1.875 5.41 2.13 C 5.34 2.298 5.312 2.518 5.322 2.656 C 5.366 3.224 5.776 3.609 6.193 3.516 C 6.839 3.371 6.894 2.209 6.273 1.844 C 6.153 1.773 6.038 1.739 5.93 1.74 z M 8.592 3.461 C 6.923 3.43 5.826 4.186 5.168 5.07 C 4.51 5.955 4.379 8.047 4.434 9.422 C 4.541 11.737 4.655 15.212 5.764 16.246 C 6.411 16.85 7.223 17.232 8.26 16.844 C 9.296 16.455 9.617 15.718 9.555 15.076 C 9.489 14.399 8.895 13.95 8.803 13.334 C 8.675 12.474 8.829 11.571 9.0977 10.744 C 9.234 10.323 9.466 9.926 9.752 9.588 C 10.108 9.166 10.759 8.782 11.037 8.541 C 11.342 8.276 11.707 7.733 11.879 7.344 C 12.344 6.293 12.176 5.247 11.43 4.553 C 10.706 3.879 9.67 3.48 8.592 3.46 z " />
</svg>