<?xml version="1.0" encoding="UTF-8" standalone="no"?>
<svg width="18" height="18" viewBox="0 0 18 18" version="1.1" xmlns:xlink="http://www.w3.org/1999/xlink"
  xmlns="http://www.w3.org/2000/svg" xmlns:svg="http://www.w3.org/2000/svg">
  <defs>
    <linearGradient id="l-stops">
      <stop stop-color="#680319" offset="0" />
      <stop stop-color="#e8755e" offset="1" />
    </linearGradient>
    <linearGradient id="r-stops">
      <stop stop-color="#e8755e" offset="0" />
      <stop stop-color="#680319" offset="1" />
    </linearGradient>
    <linearGradient id="gtop" x1="5" y1="5" x2="10" y2="8" gradientUnits="userSpaceOnUse">
      <stop stop-color="#840c22" offset="0" />
      <stop stop-color="#e8755e" offset="1" />
    </linearGradient>
    <linearGradient id="gright" x1="9" y1="9.4477577" x2="14.862724" y2="9.4477577" xlink:href="#r-stops"
      gradientUnits="userSpaceOnUse" />
    <linearGradient id="gleft" x1="3.1372378" y1="9.4477576" x2="9.0000031" y2="9.4477576" xlink:href="#l-stops"
      gradientUnits="userSpaceOnUse" />
  </defs>
  <path id="kped-shadow" fill="#3c1d1d" stroke="#000000" stroke-width="0.25"
    d="m 13.440424,12.464738 a 5.247762,2.1077255 0 0 1 -4.91336,0.990458 5.247762,2.1077255 0 0 1 -3.9650443,-0.969679 4.454409,1.8922399 0 0 0 4.0439246,2.015546 4.454409,1.8922399 0 0 0 4.8327257,-1.717717 4.454409,1.8922399 0 0 0 0.0018,-0.318608 z" />
  <path id="kped-left" fill="url(#gleft)"
    d="m 3.1445312,5.4355468 c -0.015342,0.07022 -0.00167,5.5779842 -0.00195,5.6471822 -0.00495,1.219689 2.2864069,2.259331 5.3300781,2.369435 0.1773679,0.0063 0.3526362,0.0079 0.5273438,0.0078 V 5.4355468 Z" />
  <path id="kped-right" fill="url(#gright)"
    d="m 14.855422,5.4355468 c 0.01534,0.07022 0.0017,5.5779842 0.002,5.6471822 0.005,1.219689 -2.286407,2.259331 -5.330078,2.369435 -0.177368,0.0064 -0.352637,0.0079 -0.527344,0.0078 V 5.4355468 Z" />
  <path id="kped-barrel" fill="none" stroke="#000000" stroke-width=".35"
    d="m 14.837891,5.6894531 c 0.01867,-0.085568 0.0036,-0.1699034 0,-0.2539062 C 14.786077,4.2356685 12.513782,3.2217143 9.5078125,3.1132812 9.3067863,3.1060297 9.1077015,3.1024945 8.9101562,3.1035156 5.9469776,3.1188321 3.4339006,4.0435188 3.1660156,5.2695312 c -0.012069,0.055232 -0.018774,0.1113977 -0.021484,0.1660157 -0.015342,0.070211 -0.00167,5.5772941 -0.00195,5.6464841 -0.00495,1.219537 2.2864069,2.259051 5.3300781,2.369141 3.2163503,0.116336 6.0552863,-0.850484 6.3417963,-2.158203 l 0.02344,-0.21128 V 7.956277 Z" />
  <path id="kped-top" fill="url(#gtop)" stroke="#000000" stroke-width="0.25"
    d="M 14.814828,5.6915179 A 5.8472104,2.3774111 0 0 1 8.4725573,7.8486315 5.8472104,2.3774111 0 0 1 3.1664093,5.2701914 5.8472104,2.3774111 0 0 1 9.507415,3.1124628 a 5.8472104,2.3774111 0 0 1 5.30766,2.5779255" />
</svg>