<?xml version="1.0" encoding="UTF-8" standalone="no"?>
<svg width="18" height="18" viewBox="0 0 18 18" version="1.1"
xmlns="http://www.w3.org/2000/svg"
xmlns:svg="http://www.w3.org/2000/svg">
   <g>
      <path id="base--ped-fill" fill="#505050" d="m 0.65783536,8.9461565 -0.004455,2.7113835 7.88437224,4.967477 8.3436584,-5.312695 0.0803,-0.973892 -7.9350474,5.027504 z" />
      <path id="left--ped-fill" fill="#6a6a6a" d="m 9.0266636,15.365934 v -3.45759 L 0.20257325,6.8677251 0.20304762,8.6050955 Z" />
      <path id="front--ped-fill" fill="#9d9d9d" d="M 9.0266636,15.365934 17.844318,9.7998757 V 7.1303325 L 9.0266636,11.908344 Z" />
      <path id="top--ped-fill" fill="#b8b8b8" d="M 8.9966298,11.920039 18,7.0435158 9.0266636,3.8968251 l -8.82409035,2.9709 z" />
   </g>
   <g>
      <path id="ped-base-w" fill="none" stroke="#000000" stroke-width="0.25" d="m 0.65783536,8.9461565 -0.004455,2.7113835 7.88437244,4.967477 8.3436582,-5.312695 0.0803,-0.973892" />
      <path id="ped-cap-w" fill="none" stroke="#000000" stroke-width="0.35" d="M 9.0266636,3.8968251 17.844318,7.1303325 V 9.7998757 L 9.0266636,15.365934 0.24241141,8.589992 0.24193703,6.8526216 Z" />
      <path id="ped-vcap-w" fill="none" stroke="#000000" stroke-width="0.25" d="m 9.0266636,15.365934 v -3.45759" />
      <path id="ped-top-w" fill="none" stroke="#000000" stroke-width="0.25" d="M 0.24193703,6.8526216 9.0266636,11.908344 17.784741,7.160107" />
      <path id="ped-vbase-w" fill="none" stroke="#000000" stroke-width="0.25" d="m 8.538,16.625 0,-1.529" />
   </g>
   <path id="ped-tread" fill="#737373" stroke-width="1" d="M 14.28929,6.1772622 6.7072582,10.151872 7.1056957,10.382341 14.732649,6.3335122 Z M 15.035383,6.4409341 7.3478832,10.51906 7.7619457,10.759294 15.506086,6.6069497 Z M 15.842024,6.7260903 8.03343,10.913591 8.3810863,11.114763 16.279524,6.8803872 Z m 0.789062,0.2792969 -7.9707028,4.2714848 0.3300781,0.191407 7.9960937,-4.3378918 z" />
   <g id="wire-tread">
      <path id="ped0--wire-tread" opacity="0" fill="none" stroke="#e6e6e6" stroke-width="0.2" d="M 8.621798,11.103238 16.491742,6.8803872" />
      <path id="ped1--wire-tread" opacity="0" fill="none" stroke="#e6e6e6" stroke-width="0.2"  d="M 7.9891048,10.746325 15.704708,6.619937" />
      <path id="ped2--wire-tread" opacity="0" fill="none" stroke="#e6e6e6" stroke-width="0.2" d="M 7.3145387,10.359911 14.90474,6.3396325" />
   </g>
</svg>