<?xml version="1.0" encoding="UTF-8" standalone="no"?>
<svg width="120" height="380" viewBox="0 0 120 380" version="1.1" id="svg3" sodipodi:docname="CHEM-macro.svg"
   inkscape:version="1.3.2 (091e20e, 2023-11-25, custom)" xmlns:inkscape="http://www.inkscape.org/namespaces/inkscape"
   xmlns:sodipodi="http://sodipodi.sourceforge.net/DTD/sodipodi-0.dtd" xmlns:xlink="http://www.w3.org/1999/xlink"
   xmlns="http://www.w3.org/2000/svg" xmlns:svg="http://www.w3.org/2000/svg">
   <sodipodi:namedview id="namedview1" pagecolor="#ffffff" bordercolor="#666666" borderopacity="1.0"
      inkscape:showpageshadow="2" inkscape:pageopacity="0.0" inkscape:pagecheckerboard="0" inkscape:deskcolor="#d1d1d1"
      inkscape:zoom="12.988435" inkscape:cx="7.9301316" inkscape:cy="54.933485" inkscape:window-width="3840"
      inkscape:window-height="2054" inkscape:window-x="3829" inkscape:window-y="-11" inkscape:window-maximized="1"
      inkscape:current-layer="svg3" />
   <defs id="defs1">
      <linearGradient id="panel-stops">
         <stop offset="0" stop-color="#282828" />
         <stop offset="1" stop-color="#181818" />
      </linearGradient>
      <linearGradient id="gpanel" x1="0" y1="0" x2="0" y2="380" xlink:href="#panel-stops" gradientUnits="userSpaceOnUse" />
   </defs>
   <rect opacity="1" id="g-panel" fill="url(#gpanel)" x="0" y="0" width="165.5" height="380" />
   <path id="b--div" fill="none" stroke="#737373" stroke-width="0.5"  d="M 2,278 h 116" />

   <g id="MACRO" transform="translate(30, 2.5)">
      <path fill="#f9a54b"
         d="M 5.022949,0 6.552246,5.831543 H 5.805175 L 4.877929,2.267578 3.282714,6.046875 1.683105,2.241211 0.74707,5.831543 H 0 L 1.529297,0 3.282714,4.174805 Z m 12.407715,0.01758 2.645508,5.813965 H 19.276367 L 18.621582,4.398926 H 16.24414 l -0.637207,1.432617 h -0.79541 z m 0,1.753418 -0.900879,1.990723 h 1.801758 z M 32.945312,0.421877 V 1.2876 q -0.905273,-0.443848 -1.665527,-0.443848 -0.975586,0 -1.643555,0.632813 -0.667969,0.628418 -0.667969,1.546875 0,0.936035 0.681153,1.564453 0.685547,0.624023 1.713867,0.624023 0.74707,0 1.582031,-0.470215 v 0.874512 q -0.760254,0.404297 -1.647949,0.404297 -1.300781,0 -2.223633,-0.878906 -0.922851,-0.883301 -0.922851,-2.126953 0,-1.22168 0.905273,-2.091797 0.909668,-0.870117 2.188477,-0.870117 0.821777,0 1.700683,0.36914 z m 9.02832,-0.188965 h 1.212891 q 0.905274,0 1.472168,0.452637 0.571289,0.448242 0.571289,1.151367 0,0.5625 -0.369141,0.993164 -0.36914,0.430664 -1.151367,0.606446 l 1.630371,2.395019 H 44.465332 L 42.909668,3.528811 h -0.171387 v 2.302734 h -0.764649 z m 0.764649,0.676758 v 1.951172 q 1.691894,0.03516 1.691894,-0.97998 0,-0.355957 -0.197753,-0.580078 -0.197754,-0.228516 -0.527344,-0.307618 -0.32959,-0.0835 -0.966797,-0.0835 z M 54.12207,2.997073 q 0,-1.212891 0.914062,-2.078614 0.914063,-0.865722 2.197266,-0.865722 1.252441,0 2.157715,0.874511 0.905273,0.870118 0.905273,2.069825 0,1.270019 -0.896484,2.148925 -0.89209,0.874512 -2.192871,0.874512 -1.283203,0 -2.184082,-0.883301 -0.900879,-0.8833 -0.900879,-2.140136 z m 5.361328,0.03516 q 0,-0.927246 -0.667969,-1.560059 -0.667968,-0.637207 -1.643554,-0.637207 -0.927246,0 -1.590821,0.645996 -0.659179,0.645996 -0.659179,1.55127 0,0.918457 0.676757,1.555664 0.681153,0.632812 1.665528,0.632812 0.905273,0 1.560058,-0.645996 0.65918,-0.65039 0.65918,-1.54248 z"
         id="MACRO--new-title" />
   </g>
   <path id="th" stroke="#f9a54b" stroke-width=".25" d="M 5,6.25 h 14 M 115,6.25 h -14" />
</svg>