<?xml version="1.0" encoding="UTF-8"?>
<svg width="120" height="380" viewBox="0 0 120 380" version="1.1" 
xmlns="http://www.w3.org/2000/svg"
xmlns:svg="http://www.w3.org/2000/svg">
<defs>
<linearGradient id="panel-gradient" x1="0" y1="0" x2="0" y2="380" gradientUnits="userSpaceOnUse">
   <stop offset="0" stop-color="#1f1f1f" />
   <stop offset="1" stop-color="#080808" />
</linearGradient>
</defs>
<g>
<rect id="g-panel" fill="url(#panel-gradient)" x="0" y="0" width="120.5" height="380.5"/>
<path id="title" fill="#f9a54b" stroke-width=".5"  d="m 7.5,3.5 v 15.14648 h 2.59375 V 8.0957 l 2.79102,8.86328 h 2.52148 l 2.79102,-9.07031 v 10.75781 h 2.59375 V 3.5 H 17.03125 L 14.14453,13.70898 11.25977,3.5 Z m 20.48828,4.17773 c -0.86111,0 -1.64518,0.13824 -2.35351,0.41602 -0.70834,0.27083 -1.27844,0.65343 -1.70899,1.14648 l 1.77149,1.74024 c 0.30555,-0.24306 0.6569,-0.42774 1.05273,-0.55274 0.39583,-0.13194 0.79449,-0.19726 1.19727,-0.19726 0.61111,0 1.08268,0.13542 1.41601,0.40625 0.33333,0.27083 0.5,0.65625 0.5,1.15625 V 12.25 H 27.25 c -1.28472,0 -2.25065,0.26801 -2.89648,0.80273 -0.63889,0.52778 -0.95899,1.32987 -0.95899,2.40625 0,1.13195 0.28885,1.97288 0.86524,2.52149 0.57638,0.54861 1.44097,0.82226 2.59375,0.82226 0.50694,0 0.99653,-0.0625 1.46875,-0.1875 0.47916,-0.13194 0.88259,-0.32986 1.20898,-0.59375 0.13821,-0.11468 0.24488,-0.24518 0.33203,-0.38476 v 1.00976 h 2.59375 v -6.94726 c 0,-1.27778 -0.38824,-2.26736 -1.16601,-2.96875 C 30.51324,8.02908 29.41189,7.67773 27.98828,7.67773 Z m 11.85547,0 c -1.54861,0 -2.7513,0.43468 -3.60547,1.30274 -0.85417,0.86111 -1.28125,2.07986 -1.28125,3.65625 v 1.15625 c 0,1.59027 0.42708,2.82227 1.28125,3.69726 0.85417,0.875 2.05686,1.3125 3.60547,1.3125 0.88889,0 1.69098,-0.14583 2.40625,-0.4375 0.72223,-0.29861 1.29514,-0.7181 1.71875,-1.25976 L 42.125,15.20898 c -0.25695,0.27084 -0.56662,0.47917 -0.92773,0.625 -0.35417,0.14584 -0.72635,0.21875 -1.11524,0.21875 -0.72222,0 -1.27995,-0.19509 -1.67578,-0.58398 -0.39583,-0.39583 -0.59375,-0.95356 -0.59375,-1.67578 v -1.15625 c 0,-0.70139 0.19792,-1.24306 0.59375,-1.625 0.39583,-0.38889 0.95356,-0.58399 1.67578,-0.58399 0.38889,0 0.76107,0.0701 1.11524,0.20899 0.36111,0.13194 0.67078,0.31944 0.92773,0.5625 L 43.96875,9.40625 C 43.54514,8.8507 42.97223,8.42361 42.25,8.125 41.53473,7.82639 40.73264,7.67773 39.84375,7.67773 Z m 11.625,0 c -0.56945,0 -1.09505,0.17991 -1.57422,0.54102 -0.36482,0.27898 -0.6763,0.64311 -0.9375,1.08789 V 7.83398 h -3.0625 v 10.8125 h 3.0625 v -6.11523 c 0,-0.65972 0.15626,-1.17296 0.46875,-1.54102 0.31945,-0.37499 0.76736,-0.5625 1.34375,-0.5625 0.26389,0 0.49783,0.0341 0.69922,0.10352 0.20833,0.0694 0.37783,0.17361 0.50977,0.3125 L 53.64453,8.52148 C 53.3737,8.24371 53.05555,8.03537 52.6875,7.89648 52.32639,7.75065 51.92014,7.67773 51.46875,7.67773 Z m 7.67578,0 c -1.48611,0 -2.63476,0.40626 -3.44726,1.21875 -0.8125,0.8125 -1.21875,1.95834 -1.21875,3.4375 v 1.75977 c 0,1.49305 0.40625,2.65408 1.21875,3.48047 0.8125,0.81944 1.96115,1.22851 3.44726,1.22851 1.48611,0 2.63672,-0.40625 3.44922,-1.21875 0.8125,-0.81944 1.21875,-1.97287 1.21875,-3.45898 v -1.79102 c 0,-1.47916 -0.40625,-2.625 -1.21875,-3.4375 -0.8125,-0.81249 -1.96311,-1.21875 -3.44922,-1.21875 z m -0.01,2.75 c 0.57639,0 1.02431,0.16667 1.34375,0.5 0.31944,0.33334 0.47851,0.80209 0.47851,1.40625 V 14.125 c 0,0.61111 -0.15907,1.08746 -0.47851,1.42773 -0.31944,0.33334 -0.76736,0.5 -1.34375,0.5 -0.56944,0 -1.01454,-0.16666 -1.33399,-0.5 -0.3125,-0.34027 -0.46875,-0.81662 -0.46875,-1.42773 v -1.79102 c 0,-0.60416 0.15625,-1.07291 0.46875,-1.40625 0.31945,-0.33333 0.76455,-0.5 1.33399,-0.5 z m -31.875,4 h 2.60351 v 1 c 0,0.36806 -0.1875,0.63889 -0.5625,0.8125 C 28.92578,16.41384 28.36046,16.5 27.60352,16.5 c -0.54166,0 -0.95074,-0.0833 -1.22852,-0.25 -0.27083,-0.17361 -0.40625,-0.43685 -0.40625,-0.79102 0,-0.34722 0.10699,-0.60481 0.32227,-0.77148 0.21527,-0.17361 0.53819,-0.25977 0.96875,-0.25977 z" />
<rect id="ctl-frame" fill="none" stroke="#808080" stroke-width=".75" width="95" height="76" x="12.5" y="278.5" rx="6" ry="6" />
<path id="M1--in-label" fill="#737373" d="m 24.387986,293.0252 v -8.364 h 2.039998 l 2.339997,6.252 h -0.252 l 2.351997,-6.252 h 2.027998 v 8.364 h -1.391998 v -6.744 l 0.119999,0.024 -2.303997,5.988 h -1.355998 l -2.315998,-5.988 0.132,-0.024 v 6.744 z m 12.695985,0 v -6.66 l 0.395999,0.672 h -2.555997 v -1.068 h 1.343999 q 0.407999,0 0.611999,-0.168 0.204,-0.168 0.204,-0.6 v -0.54 h 1.331998 v 8.364 z" />
<path id="M2--in-label" fill="#737373" d="m 52.205938,293.0252 v -8.364 h 2.039997 l 2.339998,6.252 h -0.252 l 2.351997,-6.252 h 2.027998 v 8.364 h -1.391999 v -6.744 l 0.12,0.024 -2.303997,5.988 h -1.355998 l -2.315998,-5.988 0.132,-0.024 v 6.744 z m 9.875988,0 v -1.032 q 0.396,-0.3 0.923999,-0.684 0.527999,-0.384 1.067999,-0.84 0.551999,-0.456 1.019999,-0.972 0.467999,-0.528 0.755999,-1.092 0.299999,-0.564 0.299999,-1.164 0,-0.6 -0.323999,-0.984 -0.324,-0.396 -0.995999,-0.396 -0.516,0 -0.839999,0.252 -0.324,0.252 -0.48,0.672 -0.155999,0.408 -0.167999,0.888 l -1.307999,-0.108 q 0,-0.576 0.18,-1.104 0.192,-0.54 0.551999,-0.96 0.36,-0.432 0.887999,-0.672 0.528,-0.252 1.211999,-0.252 0.767999,0 1.343998,0.324 0.588,0.324 0.911999,0.912 0.336,0.588 0.336,1.38 0,0.648 -0.228,1.248 -0.216,0.6 -0.623999,1.152 -0.396,0.54 -0.935999,1.032 -0.54,0.48 -1.175999,0.912 -0.635999,0.42 -1.343998,0.768 l 0.347999,-0.516 h 4.295995 v 1.236 z" />
<path id="M3--in-label" fill="#737373" d="m 80.737887,293.0252 v -8.364 h 2.039997 l 2.339998,6.252 h -0.252 l 2.351997,-6.252 h 2.027998 v 8.364 h -1.391999 v -6.744 l 0.12,0.024 -2.303997,5.988 h -1.355998 l -2.315998,-5.988 0.132,-0.024 v 6.744 z m 12.659985,0.108 q -0.923999,0 -1.619998,-0.336 -0.695999,-0.348 -1.079999,-0.96 -0.383999,-0.612 -0.383999,-1.428 l 1.331998,-0.084 q 0,0.696 0.491999,1.116 0.492,0.408 1.295999,0.408 0.539999,0 0.911999,-0.156 0.383999,-0.168 0.575999,-0.48 0.204,-0.312 0.204,-0.732 0,-0.372 -0.156001,-0.624 -0.156,-0.252 -0.443999,-0.396 -0.276,-0.156 -0.684,-0.216 -0.395999,-0.072 -0.887999,-0.072 v -1.056 q 0.348,0 0.66,-0.06 0.311999,-0.06 0.539999,-0.192 0.24,-0.144 0.372,-0.36 0.132,-0.228 0.132,-0.564 0,-0.336 -0.168,-0.588 -0.156,-0.252 -0.444,-0.384 -0.276,-0.144 -0.659999,-0.144 -0.647999,0 -1.007999,0.348 -0.359999,0.348 -0.371999,0.912 l -1.307999,-0.084 q 0,-0.72 0.348,-1.272 0.347999,-0.552 0.959999,-0.864 0.623999,-0.312 1.415998,-0.312 0.755999,0 1.331998,0.288 0.576,0.288 0.899994,0.792 0.336,0.504 0.336,1.176 0,0.312 -0.084,0.576 -0.084,0.264 -0.252,0.48 -0.155995,0.204 -0.371994,0.36 -0.216,0.156 -0.468,0.264 0.348,0.108 0.647999,0.276 0.299995,0.168 0.515995,0.42 0.228,0.252 0.347999,0.576 0.132,0.324 0.132,0.732 0,0.78 -0.383999,1.38 -0.384,0.588 -1.079994,0.924 -0.683999,0.336 -1.595997,0.336 z" />
<path id="M4--in-label" fill="#737373" d="m 23.427987,329.68586 v -8.364 h 2.039998 l 2.339997,6.252 h -0.252 l 2.351997,-6.252 h 2.027998 v 8.364 h -1.391998 v -6.744 l 0.12,0.024 -2.303998,5.988 h -1.355998 l -2.315997,-5.988 0.131999,-0.024 v 6.744 z m 13.283984,0 v -1.98 h -3.791995 v -1.032 l 3.935995,-5.352 h 1.187999 v 5.148 h 1.331998 v 1.236 H 38.04397 v 1.98 z m -2.735996,-2.748 -0.048,-0.468 h 2.783996 v -3.792 l 0.168,0.168 z" />
<path id="M5--in-label" fill="#737373" d="m 52.145936,329.68588 v -8.364 h 2.039998 l 2.339997,6.252 h -0.252 l 2.351997,-6.252 h 2.027998 v 8.364 h -1.391999 v -6.744 l 0.12,0.024 -2.303997,5.988 h -1.355998 l -2.315998,-5.988 0.132,-0.024 v 6.744 z m 12.683985,0.108 q -0.767999,0 -1.415998,-0.324 -0.636,-0.336 -1.055999,-0.9 -0.408,-0.564 -0.516,-1.272 l 1.307999,-0.228 q 0.048,0.36 0.252,0.708 0.203999,0.336 0.563999,0.54 0.359999,0.204 0.851999,0.204 0.551999,0 0.911999,-0.252 0.359999,-0.252 0.539999,-0.648 0.18,-0.408 0.18,-0.84 0,-0.42 -0.18,-0.78 -0.168,-0.36 -0.515999,-0.576 -0.348,-0.216 -0.899999,-0.216 -0.504,0 -0.875999,0.228 -0.372,0.228 -0.623999,0.588 l -1.259999,-0.324 0.803999,-4.38 h 4.583995 v 1.236 h -4.091995 l 0.707999,-0.552 -0.552,2.94 -0.407999,-0.096 q 0.467999,-0.54 0.959999,-0.708 0.503999,-0.18 0.947999,-0.18 0.827999,0 1.463998,0.384 0.635999,0.384 0.983999,1.032 0.359999,0.648 0.359999,1.404 0,0.6 -0.215999,1.14 -0.216,0.54 -0.624,0.972 -0.407999,0.42 -0.971999,0.66 -0.551999,0.24 -1.211998,0.24 z" />
<path id="M6--in-label" fill="#737373" d="m 80.803892,329.68588 v -8.364 h 2.039997 l 2.339998,6.252 h -0.252 l 2.351997,-6.252 h 2.027998 v 8.364 h -1.391999 v -6.744 l 0.12,0.024 -2.303997,5.988 h -1.355998 l -2.315998,-5.988 0.132,-0.024 v 6.744 z m 14.051973,-8.364 -2.087997,3.252 -0.168,-0.216 q 0.24,-0.12 0.479999,-0.18 0.24,-0.06 0.48,-0.06 0.803999,0 1.439998,0.372 0.647999,0.372 1.019994,1.008 0.371999,0.636 0.371999,1.416 0,0.84 -0.419999,1.488 -0.407995,0.648 -1.091994,1.02 -0.671999,0.372 -1.499998,0.372 -0.815999,0 -1.511998,-0.372 -0.684,-0.372 -1.091999,-1.02 -0.408,-0.648 -0.408,-1.476 0,-0.408 0.12,-0.804 0.132,-0.396 0.336,-0.756 l 2.507997,-4.044 z m -1.475998,3.972 q -0.444,0 -0.827999,0.204 -0.372,0.204 -0.599999,0.576 -0.228,0.36 -0.228,0.84 0,0.48 0.228,0.852 0.227999,0.36 0.599999,0.564 0.371999,0.204 0.827999,0.204 0.467999,0 0.839999,-0.204 0.371999,-0.204 0.587999,-0.564 0.227999,-0.372 0.227999,-0.852 0,-0.48 -0.227999,-0.84 -0.216,-0.372 -0.587999,-0.576 -0.372,-0.204 -0.839999,-0.204 z" />
</g>
</svg>