<?xml version="1.0" encoding="UTF-8" standalone="no"?>
<svg width="210" height="380" viewBox="0 0 210 380" version="1.1" 
   xmlns="http://www.w3.org/2000/svg"
   xmlns:svg="http://www.w3.org/2000/svg">

   <linearGradient id="panel-gradient" x1="0" y1="0" x2="0" y2="380" gradientUnits="userSpaceOnUse">
      <stop offset="0" stop-color="#282828" id="stop1" />
      <stop offset="1" stop-color="#181818" id="stop2" />
   </linearGradient>

   <g>
      <rect id="g-panel" fill="url(#panel-gradient)" width="210" height="380" x="0" y="0" />
      <g id="grid">
         <rect fill="#333333" id="grid-bg" width="150" height="314" x="12" y="20" stroke-width=".5" />
         <path stroke="#1f1f1f" stroke-width="1px" d="M 12,41 H 162 Z" id="gl1--grid-line" />
         <path stroke="#1f1f1f" stroke-width="1px" d="M 12,62 H 162 Z" id="gl2--grid-line" />
         <path stroke="#1f1f1f" stroke-width="1px" d="M 12,83 H 162 Z" id="gl3--grid-line" />
         <path stroke="#1f1f1f" stroke-width="1px" d="M 12,104 H 162 Z" id="gl4--grid-line" />
         <path stroke="#1f1f1f" stroke-width="1px" d="M 12,125 H 162 Z" id="gl5--grid-line" />
         <path stroke="#1f1f1f" stroke-width="1px" d="M 12,146 H 162 Z" id="gl6--grid-line" />
         <path stroke="#1f1f1f" stroke-width="1px" d="M 12,167 H 162 Z" id="gl7--grid-line" />
         <path stroke="#1f1f1f" stroke-width="1px" d="M 12,188 H 162 Z" id="gl8--grid-line" />
         <path stroke="#1f1f1f" stroke-width="1px" d="M 12,209 H 162 Z" id="gl9--grid-line" />
         <path stroke="#1f1f1f" stroke-width="1px" d="M 12,230 H 162 Z" id="gl10--grid-line" />
         <path stroke="#1f1f1f" stroke-width="1px" d="M 12,251 H 162 Z" id="gl11--grid-line" />
         <path stroke="#1f1f1f" stroke-width="1px" d="M 12,272 H 162 Z" id="gl12--grid-line" />
         <path stroke="#1f1f1f" stroke-width="1px" d="M 12,293 H 162 Z" id="gl13--grid-line" />
         <path stroke="#1f1f1f" stroke-width="1px" d="M 12,314 H 162 Z" id="gl14--grid-line" />
         <rect fill="#464060" id="grid-new" width="150" height="21" x="12" y="336" />
      </g>
      <g id="g6" transform="translate(-225.5,-8)">
         <path
            style="font-size:12px;line-height:1.25;font-family:'Hanken Grotesk';text-align:center;text-anchor:middle;fill:#d9d9d9"
            d="m 396.49399,127.53877 v -8.364 h 1.008 v 1.764 l -0.324,-0.228 q 0.156,-0.516 0.456,-0.876 0.312,-0.372 0.756,-0.564 0.444,-0.192 1.008,-0.192 0.804,0 1.404,0.408 0.612,0.396 0.948,1.092 0.336,0.684 0.336,1.56 0,0.924 -0.36,1.62 -0.36,0.684 -0.972,1.056 -0.612,0.372 -1.356,0.372 -0.564,0 -1.008,-0.204 -0.444,-0.204 -0.744,-0.564 -0.3,-0.36 -0.432,-0.816 l 0.288,-0.276 v 4.212 z m 2.736,-3.276 q 0.54,0 0.948,-0.264 0.42,-0.276 0.648,-0.756 0.24,-0.48 0.24,-1.104 0,-0.624 -0.24,-1.104 -0.228,-0.48 -0.648,-0.744 -0.408,-0.276 -0.948,-0.276 -0.54,0 -0.948,0.276 -0.408,0.264 -0.636,0.744 -0.228,0.48 -0.228,1.104 0,0.624 0.228,1.104 0.228,0.48 0.636,0.756 0.408,0.264 0.948,0.264 z m 4.308,0.828 v -5.916 h 1.02 v 1.584 l -0.264,0.06 q 0.084,-0.528 0.396,-0.912 0.324,-0.396 0.744,-0.612 0.432,-0.216 0.84,-0.216 0.276,0 0.528,0.06 0.252,0.06 0.516,0.204 l -0.504,0.912 q -0.144,-0.072 -0.348,-0.12 -0.192,-0.048 -0.372,-0.048 -0.288,0 -0.576,0.108 -0.276,0.108 -0.504,0.336 -0.228,0.228 -0.348,0.612 -0.048,0.168 -0.084,0.444 -0.024,0.264 -0.024,0.732 v 2.772 z m 7.044,0.096 q -0.696,0 -1.224,-0.228 -0.516,-0.24 -0.864,-0.66 -0.336,-0.42 -0.516,-0.96 -0.168,-0.552 -0.168,-1.164 0,-0.612 0.168,-1.164 0.168,-0.564 0.492,-0.996 0.336,-0.432 0.84,-0.684 0.504,-0.252 1.176,-0.252 0.684,0 1.176,0.24 0.504,0.228 0.816,0.636 0.324,0.408 0.48,0.912 0.156,0.504 0.156,1.044 0,0.048 -0.012,0.228 0,0.168 -0.024,0.3 h -4.26 q 0.036,0.864 0.504,1.344 0.468,0.48 1.272,0.48 0.516,0 0.9,-0.168 0.384,-0.168 0.72,-0.54 l 0.708,0.624 q -0.324,0.348 -0.684,0.576 -0.36,0.216 -0.768,0.324 -0.396,0.108 -0.888,0.108 z m 1.524,-3.264 q 0.024,-0.096 0.024,-0.192 0.012,-0.096 0.012,-0.192 0,-0.288 -0.108,-0.576 -0.096,-0.288 -0.3,-0.516 -0.192,-0.24 -0.504,-0.372 -0.3,-0.144 -0.72,-0.144 -0.516,0 -0.888,0.24 -0.372,0.24 -0.576,0.636 -0.204,0.396 -0.24,0.876 h 3.636 z m 4.41601,3.264 q -0.6,0 -1.08,-0.18 -0.48,-0.18 -0.828,-0.48 -0.336,-0.3 -0.54,-0.636 l 0.708,-0.6 q 0.228,0.456 0.672,0.756 0.456,0.288 1.08,0.288 0.564,0 0.9,-0.24 0.336,-0.24 0.336,-0.648 0,-0.336 -0.204,-0.528 -0.204,-0.192 -0.54,-0.312 -0.336,-0.12 -0.732,-0.216 -0.336,-0.084 -0.684,-0.204 -0.336,-0.12 -0.612,-0.3 -0.276,-0.18 -0.444,-0.468 -0.168,-0.288 -0.168,-0.708 0,-0.732 0.564,-1.176 0.576,-0.456 1.5,-0.456 0.672,0 1.224,0.288 0.564,0.276 0.876,0.84 l -0.648,0.48 q -0.24,-0.42 -0.636,-0.6 -0.384,-0.192 -0.852,-0.192 -0.468,0 -0.78,0.192 -0.312,0.192 -0.312,0.528 0,0.252 0.144,0.408 0.144,0.156 0.42,0.264 0.288,0.108 0.696,0.204 0.372,0.084 0.756,0.204 0.384,0.12 0.708,0.312 0.324,0.192 0.516,0.516 0.204,0.312 0.204,0.816 0,0.552 -0.276,0.972 -0.276,0.42 -0.78,0.648 -0.504,0.228 -1.188,0.228 z m 6.17999,0 q -0.696,0 -1.224,-0.228 -0.516,-0.24 -0.864,-0.66 -0.336,-0.42 -0.516,-0.96 -0.168,-0.552 -0.168,-1.164 0,-0.612 0.168,-1.164 0.168,-0.564 0.492,-0.996 0.336,-0.432 0.84,-0.684 0.504,-0.252 1.176,-0.252 0.684,0 1.176,0.24 0.504,0.228 0.816,0.636 0.324,0.408 0.48,0.912 0.156,0.504 0.156,1.044 0,0.048 -0.012,0.228 0,0.168 -0.024,0.3 h -4.26 q 0.036,0.864 0.504,1.344 0.468,0.48 1.272,0.48 0.516,0 0.9,-0.168 0.384,-0.168 0.72,-0.54 l 0.708,0.624 q -0.324,0.348 -0.684,0.576 -0.36,0.216 -0.768,0.324 -0.396,0.108 -0.888,0.108 z m 1.524,-3.264 q 0.024,-0.096 0.024,-0.192 0.012,-0.096 0.012,-0.192 0,-0.288 -0.108,-0.576 -0.096,-0.288 -0.3,-0.516 -0.192,-0.24 -0.504,-0.372 -0.3,-0.144 -0.72,-0.144 -0.516,0 -0.888,0.24 -0.372,0.24 -0.576,0.636 -0.204,0.396 -0.24,0.876 h 3.636 z m 4.36802,3.264 q -0.42,0 -0.768,-0.156 -0.336,-0.168 -0.528,-0.528 -0.192,-0.36 -0.192,-0.924 v -5.988 l 1.032,-0.576 v 6.3 q 0,0.492 0.156,0.768 0.156,0.264 0.564,0.264 0.12,0 0.288,-0.024 0.168,-0.036 0.36,-0.084 v 0.792 q -0.228,0.084 -0.468,0.12 -0.228,0.036 -0.444,0.036 z m -2.712,-5.22 v -0.792 h 3.624 v 0.792 z"
            id="preset--ctl-label" />
      </g>
      <g id="up-down-scroll" transform="translate(186,59)">
         <path id="bar--ctl-bar" fill="none" stroke="#0278df" d="M -5.75,0 H 5 Z" />
      </g>
      <g id="g32">
         <path id="minus--ctl-label" transform="translate(171,334)" fill="#808080" d="M 10,5.25 H 2 v 1.5 h 8 z" />
         <path id="plus--ctl-label" transform="translate(189,334)" fill="#808080"
            d="M 6.75,2 H 5.25 V 5.25 H 2 v 1.5 H 5.25 V 10 h 1.5 V 6.75 H 10 V 5.25 H 6.75 Z" />
      </g>
      <g id="g8" transform="translate(-17.723568)">
         <g aria-label="#d (pachde logo)" id="pachde" transform="translate(195.44443,366.72992)"
            style="fill:#d4a011;fill-opacity:1">
            <path
               d="M 3.023,5.309 3.916,3.543 5.003,3.834 4.104,5.599 5.759,6.042 6.658,4.277 7.74,4.567 6.846,6.334 7.631,6.544 7.34,7.631 6.328,7.36 5.666,8.665 6.969,9.014 6.678,10.1 5.148,9.691 4.255,11.457 3.168,11.166 4.062,9.4 2.407,8.956 1.513,10.723 0.426,10.431 1.32,8.665 0.54,8.456 0.831,7.369 1.843,7.64 2.5,6.334 1.202,5.986 1.493,4.899 Z M 5.242,7.068 3.587,6.625 2.924,7.93 4.58,8.374 Z"
               id="hash--brand" fill="#d4a011" />
            <path
               d="m 13.387,10.647 -0.301,1.122 -2.354,-0.631 0.155,-0.579 Q 10.064,11.035 9.304,10.831 8.394,10.587 7.993,9.687 7.593,8.787 7.874,7.736 8.16,6.669 8.969,6.104 9.78,5.534 10.665,5.771 11.516,6 11.892,6.807 l 0.414,-1.545 -0.759,-0.204 0.3,-1.121 2.314,0.62 -1.574,5.876 z M 11.402,8.697 Q 11.589,7.998 11.367,7.62 11.15,7.244 10.767,7.141 10.31,7.019 9.962,7.308 9.621,7.595 9.466,8.173 9.32,8.721 9.465,9.165 q 0.147,0.438 0.615,0.564 0.387,0.104 0.76,-0.12 0.379,-0.227 0.562,-0.912 z"
               id="d--brand" fill="#d4a011" />
         </g>
         <path id="pdo--brand"
            style="opacity:1;fill:none;fill-opacity:1;stroke:#d4a011;stroke-width:0.525475;stroke-dasharray:none;stroke-opacity:1"
            d="m 198.03128,355.87977 -2.01311,6.80626 -6.90096,1.65973 -4.88784,-5.14655 2.01311,-6.80626 6.90096,-1.65973 z"
            transform="matrix(1.4272798,0,0,1.4272798,-69.621751,-134.87472)" />
      </g>
      <path id="title" fill="#f9a54b" opacity="0.4" stroke-width=".5" d="m 201.19667,192.48898 v 8.64632 q 0,3.48551 -2.04122,5.623 -2.02201,2.13752 -5.33419,2.13752 -2.17602,0 -4.14018,-1.05913 -1.94499,-1.03986 -2.90779,-3.15813 -0.96286,-2.11824 -1.00136,-3.62029 l -0.0769,-3.15812 h -9.78248 v -5.41117 z m -4.54462,5.33414 h -6.47031 v 2.11827 q 0,1.36722 0.98211,2.33007 0.98211,0.98211 2.33007,0.98211 1.54055,0 2.38785,-1.09766 0.84731,-1.09764 0.84731,-3.1196 z m 4.96828,15.48252 v 4.92978 h -25.70791 v -4.92978 z m -25.70791,21.00924 h 2.83076 v -0.0769 q -1.6561,-1.15541 -2.40715,-2.33007 -0.73175,-1.17466 -0.73175,-2.90779 0,-2.90777 2.50338,-4.94901 2.50341,-2.04122 6.08517,-2.04122 3.54326,0 6.06592,2.17602 2.5419,2.17602 2.5419,5.16084 0,1.425 -0.63547,2.56116 -0.63547,1.13616 -2.02196,2.4071 h 2.29155 v 4.92976 h -16.52238 z m 11.9585,-3.62029 q 0,-1.46352 -1.17466,-2.44561 -1.15541,-0.98208 -2.92704,-0.98208 -1.65611,0 -2.67671,0.92433 -1.00136,0.94358 -1.00136,2.46488 0,1.46352 1.15541,2.50338 1.17466,1.03988 2.83076,1.03988 1.54055,0 2.65744,-1.03988 1.13616,-1.03986 1.13616,-2.4649 z m 4.56387,12.0933 v 5.25715 l -9.62843,4.75642 9.62843,4.23651 v 5.04531 l -23.82073,-10.30243 v -5.12231 l 8.47302,3.69732 z" />
   </g>
   <g style="display:none" id="Number-text">
      <text xml:space="preserve"
         style="font-size:9px;line-height:1.25;font-family:'Century Gothic';text-align:center;text-anchor:middle"
         x="5.6550293" y="32.729774" id="text3">
         <tspan id="tspan3" x="5.6550293" y="32.729774"
            style="font-style:normal;font-variant:normal;font-weight:normal;font-stretch:normal;font-size:9px;font-family:'Century Schoolbook';fill:#666666;fill-opacity:1">
            1</tspan>
      </text>
      <text xml:space="preserve"
         style="font-size:9px;line-height:1.25;font-family:'Century Gothic';text-align:center;text-anchor:middle"
         x="5.8417969" y="53.83849" id="text4">
         <tspan id="tspan4" x="5.8417969" y="53.83849"
            style="font-style:normal;font-variant:normal;font-weight:normal;font-stretch:normal;font-size:9px;font-family:'Century Schoolbook';fill:#666666;fill-opacity:1">
            2</tspan>
      </text>
      <text xml:space="preserve"
         style="font-size:9px;line-height:1.25;font-family:'Century Gothic';text-align:center;text-anchor:middle"
         x="5.7033691" y="74.828552" id="text5">
         <tspan id="tspan5" x="5.7033691" y="74.828552"
            style="font-style:normal;font-variant:normal;font-weight:normal;font-stretch:normal;font-size:9px;font-family:'Century Schoolbook';fill:#666666;fill-opacity:1">
            3</tspan>
      </text>
      <text xml:space="preserve"
         style="font-size:9px;line-height:1.25;font-family:'Century Gothic';text-align:center;text-anchor:middle"
         x="5.7011719" y="95.884529" id="text6">
         <tspan  id="tspan6" x="5.7011719" y="95.884529"
            style="font-style:normal;font-variant:normal;font-weight:normal;font-stretch:normal;font-size:9px;font-family:'Century Schoolbook';fill:#666666;fill-opacity:1">
            4</tspan>
      </text>
      <text xml:space="preserve"
         style="font-size:9px;line-height:1.25;font-family:'Century Gothic';text-align:center;text-anchor:middle"
         x="5.6967773" y="116.93172" id="text7">
         <tspan id="tspan7" x="5.6967773" y="116.93172"
            style="font-style:normal;font-variant:normal;font-weight:normal;font-stretch:normal;font-size:9px;font-family:'Century Schoolbook';fill:#666666;fill-opacity:1">
            5</tspan>
      </text>
      <text xml:space="preserve"
         style="font-size:9px;line-height:1.25;font-family:'Century Gothic';text-align:center;text-anchor:middle"
         x="5.6945801" y="137.98331" id="text8">
         <tspan id="tspan8" x="5.6945801" y="137.98331"
            style="font-style:normal;font-variant:normal;font-weight:normal;font-stretch:normal;font-size:9px;font-family:'Century Schoolbook';fill:#666666;fill-opacity:1">
            6</tspan>
      </text>
      <text xml:space="preserve"
         style="font-size:9px;line-height:1.25;font-family:'Century Gothic';text-align:center;text-anchor:middle"
         x="5.6308594" y="159.0327" id="text9">
         <tspan id="tspan9" x="5.6308594" y="159.0327"
            style="font-style:normal;font-variant:normal;font-weight:normal;font-stretch:normal;font-size:9px;font-family:'Century Schoolbook';fill:#666666;fill-opacity:1">
            7</tspan>
      </text>
      <text xml:space="preserve"
         style="font-size:9px;line-height:1.25;font-family:'Century Gothic';text-align:center;text-anchor:middle"
         x="5.6682129" y="180.08647" id="text10">
         <tspan id="tspan10" x="5.6682129" y="180.08647"
            style="font-style:normal;font-variant:normal;font-weight:normal;font-stretch:normal;font-size:9px;font-family:'Century Schoolbook';fill:#666666;fill-opacity:1">
            8</tspan>
      </text>
      <text xml:space="preserve"
         style="font-size:9px;line-height:1.25;font-family:'Century Gothic';text-align:center;text-anchor:middle"
         x="5.7143555" y="201.13806" id="text11">
         <tspan id="tspan11" x="5.7143555" y="201.13806"
            style="font-style:normal;font-variant:normal;font-weight:normal;font-stretch:normal;font-size:9px;font-family:'Century Schoolbook';fill:#666666;fill-opacity:1">
            9</tspan>
      </text>
      <text xml:space="preserve"
         style="font-size:9px;line-height:1.25;font-family:'Century Gothic';text-align:center;text-anchor:middle"
         x="5.4836426" y="222.18965" id="text12">
         <tspan id="tspan12" x="5.4836426" y="222.18965"
            style="font-style:normal;font-variant:normal;font-weight:normal;font-stretch:normal;font-size:9px;font-family:'Century Schoolbook';fill:#666666;fill-opacity:1">
            10</tspan>
      </text>
      <text xml:space="preserve"
         style="font-size:9px;line-height:1.25;font-family:'Century Gothic';text-align:center;text-anchor:middle"
         x="5.6550293" y="243.24562" id="text13">
         <tspan id="tspan13" x="5.6550293" y="243.24562"
            style="font-style:normal;font-variant:normal;font-weight:normal;font-stretch:normal;font-size:9px;font-family:'Century Schoolbook';fill:#666666;fill-opacity:1">
            11</tspan>
      </text>
      <text xml:space="preserve"
         style="font-size:9px;line-height:1.25;font-family:'Century Gothic';text-align:center;text-anchor:middle"
         x="5.5583496" y="264.35434" id="text14">
         <tspan id="tspan14" x="5.5583496" y="264.35434"
            style="font-style:normal;font-variant:normal;font-weight:normal;font-stretch:normal;font-size:9px;font-family:'Century Schoolbook';fill:#666666;fill-opacity:1">
            12</tspan>
      </text>
      <text xml:space="preserve"
         style="font-size:9px;line-height:1.25;font-family:'Century Gothic';text-align:center;text-anchor:middle"
         x="5.512207" y="285.34439" id="text15">
         <tspan id="tspan15" x="5.512207" y="285.34439"
            style="font-style:normal;font-variant:normal;font-weight:normal;font-stretch:normal;font-size:9px;font-family:'Century Schoolbook';fill:#666666;fill-opacity:1">
            13</tspan>
      </text>
      <text xml:space="preserve"
         style="font-size:9px;line-height:1.25;font-family:'Century Gothic';text-align:center;text-anchor:middle"
         x="5.4462891" y="306.40039" id="text16">
         <tspan id="tspan16" x="5.4462891" y="306.40039"
            style="font-style:normal;font-variant:normal;font-weight:normal;font-stretch:normal;font-size:9px;font-family:'Century Schoolbook';fill:#666666;fill-opacity:1">
            14</tspan>
      </text>
      <text xml:space="preserve"
         style="font-size:9px;line-height:1.25;font-family:'Century Gothic';text-align:center;text-anchor:middle"
         x="5.5166016" y="327.44757" id="text17">
         <tspan id="tspan17" x="5.5166016" y="327.44757"
            style="font-style:normal;font-variant:normal;font-weight:normal;font-stretch:normal;font-size:9px;font-family:'Century Schoolbook';fill:#666666;fill-opacity:1">
            15</tspan>
      </text>
   </g>
   <g id="numbers" fill="#666666">
      <path id="1--numbers" d="m 6.206543,26.63456 v 5.484375 q 0,0.123047 0.087891,0.188964 0.1274414,0.09229 0.3120117,0.09229 h 0.8525391 v 0.329589 H 4.2993168 V 32.400189 H 5.028809 q 0.2285156,0 0.3383789,-0.105469 0.1098633,-0.109863 0.1098633,-0.290039 v -4.144043 q 0,-0.127442 -0.1010742,-0.215332 -0.1010743,-0.08789 -0.2592774,-0.08789 H 4.1411133 v -0.303222 q 0.6855469,-0.08789 1.1118164,-0.232911 0.4262695,-0.149414 0.7514648,-0.386718 z" />
      <path id="2--numbers" d="m 4.7541504,52.876087 q -0.2021484,0.259278 1.9951172,0.259278 0.3295898,0 0.4702148,-0.171387 0.140625,-0.171387 0.3208008,-0.949219 h 0.2988281 l -0.140625,1.823731 h -3.9375 v -0.237305 l 1.2788086,-1.45459 q 1.0678711,-1.160156 1.2832031,-1.458984 0.3076172,-0.42627 0.4482422,-0.821778 0.140625,-0.399902 0.140625,-0.725097 0,-0.540528 -0.2988281,-0.848145 -0.2988281,-0.312012 -0.8305664,-0.312012 -0.5976562,0 -0.9755859,0.285645 -0.3779297,0.285644 -0.3779297,0.606445 0,0.109864 0.057129,0.166992 0.052734,0.05713 0.2285156,0.101075 0.4438477,0.105468 0.4438477,0.518554 0,0.224121 -0.1494141,0.373535 -0.1494141,0.14502 -0.3823242,0.14502 -0.2680664,0 -0.4702149,-0.246094 -0.2021484,-0.250488 -0.2021484,-0.65039 0,-0.448243 0.2285156,-0.812989 0.2329102,-0.36914 0.6987305,-0.60205 0.4658203,-0.237305 1.0019531,-0.237305 0.5317383,0 0.984375,0.228516 0.4570313,0.228515 0.6855469,0.60205 0.2285156,0.369141 0.2285156,0.808594 0,0.303223 -0.1142578,0.615234 -0.1142578,0.312012 -0.3339844,0.584473 -0.3779297,0.470215 -0.777832,0.804199 L 5.395752,52.247669 Q 4.9562988,52.61681 4.7541504,52.876087 Z" />
      <path id="3--numbers" d="m 6.3647461,71.580994 q 0.628418,0.153808 0.9799805,0.509765 0.4482421,0.452637 0.4482421,1.120606 0,0.755859 -0.5361328,1.21289 -0.6108398,0.527344 -1.5908203,0.527344 -0.5888672,0 -1.0151367,-0.193359 -0.421875,-0.19336 -0.6328125,-0.522949 -0.2109375,-0.32959 -0.2109375,-0.742676 0,-0.333985 0.1625977,-0.527344 0.1625976,-0.193359 0.4086914,-0.193359 0.2241211,0 0.3603515,0.149414 Q 4.875,73.066345 4.875,73.321228 q 0,0.162598 -0.070312,0.276855 -0.070312,0.109864 -0.2460938,0.206543 -0.1889648,0.101075 -0.1889648,0.19336 0,0.131836 0.1318359,0.298828 0.1362305,0.162598 0.3955079,0.263672 0.2636718,0.09668 0.6635742,0.09668 0.6899414,0 1.0195312,-0.338379 0.3339844,-0.342774 0.3339844,-1.094239 0,-0.786621 -0.2856445,-1.116211 -0.28125,-0.333984 -0.8393555,-0.333984 -0.1494141,0 -0.3735352,0.03516 -0.1801757,0.02637 -0.2592773,0.02637 -0.1318359,0 -0.206543,-0.05273 -0.070312,-0.05713 -0.070312,-0.140625 0,-0.09229 0.065918,-0.140625 0.070312,-0.05273 0.2241211,-0.05273 l 0.2416992,0.0088 0.2109375,0.0088 q 0.5581055,0 0.8393555,-0.285645 0.28125,-0.285644 0.28125,-0.8833 0,-0.733887 -0.2680664,-1.041504 -0.2680664,-0.312012 -0.7998047,-0.312012 -0.487793,0 -0.777832,0.175781 -0.2900391,0.175781 -0.2900391,0.325195 0,0.09668 0.1669922,0.259278 0.2373047,0.219726 0.2373047,0.457031 0,0.180176 -0.131836,0.303223 -0.1318359,0.123047 -0.3383789,0.123047 -0.2197265,0 -0.3603515,-0.166993 -0.1362305,-0.166992 -0.1362305,-0.46582 0,-0.46582 0.3339844,-0.826172 0.4746093,-0.509765 1.3579101,-0.509765 0.8261719,0 1.3183594,0.443847 0.4921875,0.443848 0.4921875,1.098633 0,0.470215 -0.2680664,0.812988 -0.2636719,0.342774 -0.9140625,0.606446 z" />
      <path id="4--numbers" d="m 6.6262207,89.789314 h 0.2856445 v 4.157227 h 1.0107422 v 0.373535 H 6.9118652 v 0.936035 q 0,0.123047 0.09668,0.197754 0.140625,0.101074 0.3251953,0.101074 h 0.3735352 v 0.32959 H 5.2683105 v -0.32959 h 0.4526368 q 0.2285156,0 0.3339843,-0.09668 0.1098633,-0.09668 0.1098633,-0.28125 V 94.320076 H 3.6774902 v -0.421875 z m -0.4614258,1.190918 -2.1225586,2.966309 h 2.1225586 z" />
      <path id="5--numbers" d="m 4.411377,110.72224 q 1.1118164,0.25489 1.8149414,0.25489 0.3295898,0 0.6196289,-0.0615 0.290039,-0.0659 0.4350586,-0.14941 0.074707,-0.0395 0.09668,-0.0395 0.043945,0 0.043945,0.0659 0,0.15381 -0.1977539,0.40869 -0.197754,0.25049 -0.5405274,0.3999 -0.3383789,0.14941 -0.7822266,0.14941 -0.5141601,0 -1.2260742,-0.1582 l -0.1450195,1.67871 q 0.3339844,-0.16699 0.637207,-0.25049 0.3032227,-0.0835 0.5756836,-0.0835 0.8613281,0 1.4458008,0.57129 0.5888672,0.57129 0.5888672,1.41064 0,0.93164 -0.6240234,1.53369 -0.6240235,0.60205 -1.6171875,0.60205 -0.760254,0 -1.2392579,-0.43066 -0.4746093,-0.43506 -0.4746093,-1.03272 0,-0.36035 0.149414,-0.55371 0.1538086,-0.19775 0.3911133,-0.19775 0.2329102,0 0.3779297,0.1582 0.1494141,0.15381 0.1494141,0.4043 0,0.18896 -0.074707,0.29443 -0.070312,0.10547 -0.2636718,0.17578 -0.1933594,0.0747 -0.1933594,0.17139 0,0.14063 0.1318359,0.31201 0.131836,0.167 0.3955078,0.27686 0.2680664,0.10547 0.6108399,0.10547 0.6723633,0 1.0239258,-0.41748 0.355957,-0.41748 0.355957,-1.35791 0,-0.85694 -0.3735352,-1.25244 -0.3735351,-0.39551 -0.9536133,-0.39551 -0.2636718,0 -0.5273437,0.0967 -0.2636719,0.0967 -0.5273438,0.29004 -0.030762,0.30761 -0.1098632,0.41308 -0.079102,0.10108 -0.2021485,0.10108 -0.087891,0 -0.140625,-0.0615 -0.052734,-0.0615 -0.052734,-0.17138 0,-0.19336 0.1801757,-0.38233 0.052734,-0.0571 0.074707,-0.10107 L 4.345459,112.2076 q 0.061523,-0.76465 0.065918,-1.48536 z" />
      <path id="6--numbers" d="m 4.6245117,135.10049 q 0.3427735,-0.45703 0.7207031,-0.65478 0.3779297,-0.19775 0.8305664,-0.19775 0.7294922,0 1.2216797,0.49658 0.4965821,0.49218 0.4965821,1.24804 0,0.90967 -0.5844727,1.51172 -0.5844726,0.60205 -1.4458008,0.60205 -0.6064453,0 -1.0810547,-0.3208 -0.4746093,-0.32519 -0.777832,-1.01074 -0.2988281,-0.68555 -0.2988281,-1.59961 0,-0.98877 0.3691406,-1.79297 0.3691406,-0.8042 0.9404297,-1.2041 0.5756836,-0.4043 1.199707,-0.4043 0.6416016,0 1.0898438,0.35157 0.3735351,0.28564 0.3735351,0.68554 0,0.26807 -0.1669922,0.43946 -0.1625976,0.17138 -0.3999023,0.17138 -0.2197266,0 -0.3779297,-0.14502 -0.1538086,-0.14502 -0.1538086,-0.34277 0,-0.13184 0.1054688,-0.29883 0.09668,-0.15381 0.09668,-0.2417 0,-0.12304 -0.1186524,-0.20215 -0.1582031,-0.10107 -0.4350586,-0.10107 -0.4262695,0 -0.777832,0.26807 -0.3515625,0.26806 -0.5976563,0.92285 -0.2416992,0.65039 -0.2416992,1.46338 0,0.11865 0.013183,0.35595 z m 1.3095703,-0.42187 q -0.5493164,0 -0.9008789,0.3999 -0.3471679,0.39551 -0.3471679,1.11621 0,0.78223 0.3383789,1.19532 0.3383789,0.41308 0.8613281,0.41308 0.5185547,0 0.8349609,-0.39111 0.3164063,-0.39112 0.3164063,-1.16895 0,-0.82617 -0.2944336,-1.19531 -0.2900391,-0.36914 -0.8085938,-0.36914 z" />
      <path id="7--numbers" d="m 4.1257324,152.82762 q 0.4306641,0.10986 0.9316406,0.10986 h 2.7333985 v 0.20215 q -0.6020508,1.05909 -0.9008789,1.79297 -0.2988281,0.72949 -0.4526367,1.39746 -0.1538086,0.66797 -0.2021485,1.55567 -0.043945,0.73388 -0.083496,0.90966 -0.039551,0.17139 -0.1625976,0.26368 -0.1186524,0.0967 -0.3120117,0.0967 -0.2197266,0 -0.3427735,-0.14942 -0.1230469,-0.14941 -0.1230469,-0.47021 0,-0.28565 0.1010743,-0.71192 0.1010742,-0.43066 0.4614257,-1.2832 0.4790039,-1.14258 0.8305664,-1.79736 l 0.6064454,-1.11621 h -2.381836 q -0.2636719,0 -0.3955078,0.18457 -0.1274414,0.18457 -0.3076172,1.10302 H 3.8093262 Z" />
      <path id="8--numbers" d="m 6.5625,176.63676 q 0.703125,0.25489 1.0151367,0.66797 0.3120117,0.40869 0.3120117,0.98877 0,0.70752 -0.4526367,1.23487 -0.5844726,0.68115 -1.6655273,0.68115 -0.9536133,0 -1.5073242,-0.45703 -0.553711,-0.46143 -0.553711,-1.14698 0,-0.51416 0.3164063,-0.89648 0.3208007,-0.38672 1.1030273,-0.65479 -1.1557617,-0.49658 -1.1557617,-1.53369 0,-0.67236 0.5185547,-1.15576 0.5229492,-0.48779 1.3227539,-0.48779 0.5493164,0 0.9536133,0.18896 0.4086914,0.18897 0.6196289,0.51416 0.215332,0.3252 0.215332,0.68116 0,0.82617 -1.0415039,1.37548 z m -0.3383789,-0.11425 q 0.4614258,-0.26368 0.6196289,-0.51856 0.1582031,-0.25928 0.1582031,-0.67676 0,-0.54931 -0.3120117,-0.84814 -0.3120117,-0.29883 -0.9052734,-0.29883 -0.5756836,0 -0.8964844,0.28125 -0.3208008,0.27686 -0.3208008,0.7251 0,0.44385 0.2768555,0.70752 0.28125,0.26367 1.3798828,0.62842 z m -0.7646484,0.65478 q -0.6240235,0.26367 -0.8657227,0.59326 -0.2416992,0.32959 -0.2416992,0.8086 0,0.62402 0.3647461,0.97119 0.3691406,0.34277 1.059082,0.34277 0.7294922,0 1.1337891,-0.34277 0.4042968,-0.34717 0.4042968,-0.91406 0,-0.51416 -0.3515625,-0.77784 -0.3471679,-0.26367 -1.5029296,-0.68115 z" />
      <path id="9--numbers" d="m 6.9909668,197.98279 q -0.2856445,0.43066 -0.6679688,0.65039 -0.3823242,0.21533 -0.8569335,0.21533 -0.6591797,0 -1.1997071,-0.46143 -0.5361328,-0.46142 -0.5361328,-1.35791 0,-0.87451 0.5932617,-1.48535 0.5976563,-0.61523 1.4238282,-0.61523 0.9096679,0 1.5161132,0.75586 0.6064453,0.75586 0.6064453,2.12256 0,1.13379 -0.3383789,1.91601 -0.3339843,0.77783 -0.8876953,1.16016 -0.5537109,0.37793 -1.2480468,0.37793 -0.6723633,0 -1.0546875,-0.29444 -0.3779297,-0.29882 -0.3779297,-0.71191 0,-0.27246 0.1538086,-0.43945 0.1582031,-0.16699 0.3955078,-0.16699 0.215332,0 0.3647461,0.14501 0.149414,0.14502 0.149414,0.34717 0,0.14502 -0.1362304,0.3208 -0.083496,0.10987 -0.083496,0.18897 0,0.12305 0.1450195,0.21533 0.1450195,0.0879 0.4658203,0.0879 0.4570313,0 0.8041992,-0.25049 0.347168,-0.25488 0.5625,-0.83056 0.2153321,-0.58008 0.2153321,-1.49854 z M 5.760498,195.245 q -0.4921875,0 -0.8085937,0.41308 -0.3164063,0.40869 -0.3164063,1.23486 0,0.75586 0.3164063,1.1294 0.3164062,0.36914 0.8261719,0.36914 0.5053711,0 0.8481445,-0.3999 0.347168,-0.39991 0.347168,-1.12061 0,-0.74707 -0.3603516,-1.18652 Q 6.2570801,195.245 5.760498,195.245 Z" />
      <path id="10--numbers" d="m 3.5324707,216.09444 v 5.48437 q 0,0.12305 0.087891,0.18897 0.1274414,0.0923 0.3120117,0.0923 h 0.8525391 v 0.32959 h -3.159668 v -0.32959 h 0.7294922 q 0.2285157,0 0.3383789,-0.10547 0.1098633,-0.10986 0.1098633,-0.29004 v -4.14404 q 0,-0.12744 -0.1010742,-0.21533 -0.1010742,-0.0879 -0.2592773,-0.0879 H 1.467041 v -0.30322 q 0.6855469,-0.0879 1.1118164,-0.23291 0.4262696,-0.14942 0.7514649,-0.38672 z m 4.4648438,-0.11426 q 0.8569335,0 1.4282226,0.66797 0.7075199,0.82177 0.7075199,2.4917 0,1.55127 -0.6152347,2.36425 -0.6152344,0.8086 -1.4853516,0.8086 -0.8393555,0 -1.4018555,-0.68115 -0.703125,-0.85694 -0.703125,-2.47413 0,-1.53808 0.6635743,-2.44775 0.5317382,-0.72949 1.40625,-0.72949 z m 0.026367,0.31641 q -0.5800781,0 -0.9052734,0.5581 -0.3251953,0.55371 -0.3251953,2.30273 0,1.70948 0.3339844,2.28077 0.3383789,0.57129 0.9052734,0.57129 0.5712891,0 0.8789063,-0.52735 0.364746,-0.62842 0.364746,-2.29394 0,-1.72266 -0.3427734,-2.30713 -0.3427734,-0.58447 -0.909668,-0.58447 z"  />
      <path id="11--numbers" d="m 3.7038574,237.15041 v 5.48437 q 0,0.12305 0.087891,0.18897 0.1274415,0.0923 0.3120118,0.0923 h 0.852539 v 0.32959 H 1.7966309 v -0.32959 H 2.526123 q 0.2285157,0 0.338379,-0.10547 0.1098632,-0.10986 0.1098632,-0.29004 v -4.14404 q 0,-0.12744 -0.1010742,-0.21533 -0.1010742,-0.0879 -0.2592773,-0.0879 h -0.975586 v -0.30323 q 0.6855469,-0.0879 1.1118164,-0.23291 0.4262696,-0.14941 0.7514649,-0.38671 z m 5.0053711,0 v 5.48437 q 0,0.12305 0.087891,0.18897 0.1274414,0.0923 0.3120118,0.0923 h 0.852539 v 0.32959 H 6.802002 v -0.32959 h 0.7294921 q 0.2285157,0 0.3383789,-0.10547 0.1098633,-0.10986 0.1098633,-0.29004 v -4.14404 q 0,-0.12744 -0.1010742,-0.21533 -0.1010742,-0.0879 -0.2592773,-0.0879 h -0.975586 v -0.30323 q 0.6855469,-0.0879 1.1118164,-0.23291 0.4262696,-0.14941 0.7514649,-0.38671 z" />
      <path id="12--numbers" d="m 3.6071777,258.25912 v 5.48438 q 0,0.12305 0.087891,0.18896 0.1274414,0.0923 0.3120117,0.0923 h 0.852539 v 0.32959 H 1.6999512 v -0.32959 h 0.7294922 q 0.2285156,0 0.3383789,-0.10547 0.1098632,-0.10986 0.1098632,-0.29004 v -4.14404 q 0,-0.12744 -0.1010742,-0.21533 -0.1010742,-0.0879 -0.2592773,-0.0879 H 1.541748 v -0.30323 q 0.6855469,-0.0879 1.1118165,-0.23291 0.4262695,-0.14941 0.7514648,-0.38672 z m 3.366211,5.13282 q -0.2021485,0.25927 1.9951172,0.25927 0.3295898,0 0.4702148,-0.17138 0.140625,-0.17139 0.3208008,-0.94922 H 10.05835 l -0.1406254,1.82373 h -3.9375 v -0.23731 l 1.2788086,-1.45458 q 1.0678711,-1.16016 1.2832031,-1.45899 0.3076172,-0.42627 0.4482422,-0.82178 0.140625,-0.3999 0.140625,-0.72509 0,-0.54053 -0.2988281,-0.84815 -0.2988281,-0.31201 -0.8305664,-0.31201 -0.5976563,0 -0.975586,0.28564 -0.3779296,0.28565 -0.3779296,0.60645 0,0.10986 0.057129,0.16699 0.052734,0.0571 0.2285156,0.10108 0.4438476,0.10546 0.4438476,0.51855 0,0.22412 -0.149414,0.37354 -0.1494141,0.14502 -0.3823242,0.14502 -0.2680664,0 -0.4702149,-0.2461 -0.2021484,-0.25049 -0.2021484,-0.65039 0,-0.44824 0.2285156,-0.81299 0.2329102,-0.36914 0.6987305,-0.60205 0.4658203,-0.2373 1.0019531,-0.2373 0.5317383,0 0.984375,0.22851 0.4570313,0.22852 0.6855469,0.60205 0.2285158,0.36914 0.2285158,0.8086 0,0.30322 -0.114258,0.61523 -0.1142578,0.31201 -0.3339844,0.58447 -0.3779297,0.47022 -0.777832,0.8042 l -1.1601563,0.97559 q -0.4394531,0.36914 -0.6416016,0.62842 z"  />
      <path id="13--numbers" d="m 3.5610352,279.24918 v 5.48437 q 0,0.12305 0.087891,0.18897 0.1274414,0.0923 0.3120117,0.0923 H 4.813477 v 0.32959 H 1.653809 v -0.32959 h 0.7294922 q 0.2285156,0 0.3383789,-0.10547 0.1098633,-0.10986 0.1098633,-0.29004 v -4.14404 q 0,-0.12744 -0.1010742,-0.21533 -0.1010743,-0.0879 -0.2592774,-0.0879 H 1.4956055 v -0.30323 q 0.6855468,-0.0879 1.1118164,-0.23291 0.4262695,-0.14941 0.7514648,-0.38671 z m 5.1152343,2.84765 q 0.628418,0.15381 0.9799805,0.50977 0.448242,0.45263 0.448242,1.1206 0,0.75586 -0.5361326,1.21289 -0.6108399,0.52735 -1.5908203,0.52735 -0.5888672,0 -1.0151368,-0.19336 -0.421875,-0.19336 -0.6328125,-0.52295 -0.2109375,-0.32959 -0.2109375,-0.74268 0,-0.33398 0.1625977,-0.52734 0.1625977,-0.19336 0.4086914,-0.19336 0.2241211,0 0.3603516,0.14941 0.1362304,0.14502 0.1362304,0.39991 0,0.16259 -0.070312,0.27685 -0.070312,0.10987 -0.2460937,0.20655 -0.1889649,0.10107 -0.1889649,0.19335 0,0.13184 0.131836,0.29883 0.1362304,0.1626 0.3955078,0.26367 0.2636719,0.0967 0.6635742,0.0967 0.6899414,0 1.0195313,-0.33837 0.3339843,-0.34278 0.3339843,-1.09424 0,-0.78662 -0.2856445,-1.11621 -0.28125,-0.33399 -0.8393555,-0.33399 -0.149414,0 -0.3735351,0.0352 -0.1801758,0.0264 -0.2592774,0.0264 -0.1318359,0 -0.2065429,-0.0527 -0.070312,-0.0571 -0.070312,-0.14062 0,-0.0923 0.065918,-0.14063 0.070312,-0.0527 0.2241211,-0.0527 l 0.2416992,0.009 0.2109375,0.009 q 0.5581055,0 0.8393555,-0.28564 0.28125,-0.28564 0.28125,-0.8833 0,-0.73389 -0.2680664,-1.0415 -0.2680664,-0.31202 -0.7998047,-0.31202 -0.4877929,0 -0.777832,0.17578 -0.2900391,0.17579 -0.2900391,0.3252 0,0.0967 0.1669922,0.25928 0.2373047,0.21972 0.2373047,0.45703 0,0.18017 -0.1318359,0.30322 -0.131836,0.12305 -0.3383789,0.12305 -0.2197266,0 -0.3603516,-0.16699 -0.1362305,-0.167 -0.1362305,-0.46582 0,-0.46582 0.3339844,-0.82618 0.4746094,-0.50976 1.3579102,-0.50976 0.8261718,0 1.3183593,0.44385 0.4921875,0.44384 0.4921875,1.09863 0,0.47021 -0.2680664,0.81299 -0.2636718,0.34277 -0.9140625,0.60644 z" />
      <path id="14--numbers" d="m 3.4951172,300.30518 v 5.48437 q 0,0.12305 0.087891,0.18897 0.1274414,0.0923 0.3120117,0.0923 H 4.747559 v 0.32959 H 1.587891 v -0.32959 h 0.7294922 q 0.2285156,0 0.3383789,-0.10547 0.1098633,-0.10986 0.1098633,-0.29004 v -4.14404 q 0,-0.12744 -0.1010742,-0.21533 -0.1010742,-0.0879 -0.2592774,-0.0879 H 1.4296875 v -0.30323 q 0.6855469,-0.0879 1.1118164,-0.23291 0.4262695,-0.14941 0.7514649,-0.38671 z m 5.3789062,0 H 9.159668 v 4.15722 h 1.010742 v 0.37354 H 9.159668 v 0.93603 q 0,0.12305 0.09668,0.19776 0.140625,0.10107 0.3251953,0.10107 h 0.3735351 v 0.32959 H 7.5161133 V 306.0708 H 7.96875 q 0.2285156,0 0.3339844,-0.0967 0.1098633,-0.0967 0.1098633,-0.28125 v -0.85693 H 5.925293 v -0.42188 z m -0.4614257,1.19091 -2.1225586,2.96631 h 2.1225586 z" />
      <path id="15--numbers" d="m 3.5654297,321.35236 v 5.48437 q 0,0.12305 0.087891,0.18897 0.1274414,0.0923 0.3120117,0.0923 h 0.8525391 v 0.32959 H 1.6582035 V 327.118 h 0.7294922 q 0.2285156,0 0.3383789,-0.10547 0.1098633,-0.10986 0.1098633,-0.29004 v -4.14404 q 0,-0.12744 -0.1010742,-0.21533 -0.1010742,-0.0879 -0.2592774,-0.0879 H 1.5 v -0.30323 q 0.6855469,-0.0879 1.1118164,-0.23291 0.4262695,-0.14941 0.7514649,-0.38671 z m 3.168457,-0.11426 q 1.1118164,0.25488 1.8149414,0.25488 0.3295899,0 0.6196289,-0.0615 0.2900391,-0.0659 0.4350586,-0.14942 0.074707,-0.0396 0.09668,-0.0396 0.043945,0 0.043945,0.0659 0,0.15381 -0.1977539,0.40869 -0.1977539,0.25049 -0.5405273,0.3999 -0.3383789,0.14942 -0.7822266,0.14942 -0.5141601,0 -1.2260742,-0.1582 l -0.1450195,1.67871 q 0.3339843,-0.167 0.637207,-0.25049 0.3032226,-0.0835 0.5756836,-0.0835 0.8613281,0 1.4458008,0.57129 0.5888675,0.57129 0.5888675,1.41065 0,0.93164 -0.6240238,1.53369 -0.6240234,0.60205 -1.6171875,0.60205 -0.7602539,0 -1.2392578,-0.43067 -0.4746094,-0.43505 -0.4746094,-1.03271 0,-0.36035 0.1494141,-0.55371 0.1538086,-0.19776 0.3911133,-0.19776 0.2329101,0 0.3779297,0.15821 0.149414,0.15381 0.149414,0.40429 0,0.18897 -0.074707,0.29444 -0.070312,0.10547 -0.2636719,0.17578 -0.1933594,0.0747 -0.1933594,0.17139 0,0.14062 0.131836,0.31201 0.1318359,0.16699 0.3955078,0.27685 0.2680664,0.10547 0.6108398,0.10547 0.6723633,0 1.0239258,-0.41748 0.3559571,-0.41748 0.3559571,-1.35791 0,-0.85693 -0.3735352,-1.25244 -0.3735352,-0.39551 -0.9536133,-0.39551 -0.2636719,0 -0.5273437,0.0967 -0.2636719,0.0967 -0.5273438,0.29004 -0.030762,0.30762 -0.1098633,0.41309 -0.079102,0.10107 -0.2021484,0.10107 -0.087891,0 -0.140625,-0.0615 -0.052734,-0.0615 -0.052734,-0.17139 0,-0.19336 0.1801758,-0.38232 0.052734,-0.0571 0.074707,-0.10108 l 0.1010742,-1.29199 q 0.061523,-0.76465 0.065918,-1.48535 z" />
   </g>
</svg>