<?xml version="1.0" encoding="UTF-8" standalone="no"?>
<svg
   width="105"
   height="380"
   viewBox="0 0 105 380"
   version="1.1"
   id="svg2"
   sodipodi:docname="CHEM-pre.svg"
   inkscape:version="1.3.2 (091e20e, 2023-11-25, custom)"
   xmlns:inkscape="http://www.inkscape.org/namespaces/inkscape"
   xmlns:sodipodi="http://sodipodi.sourceforge.net/DTD/sodipodi-0.dtd"
   xmlns:xlink="http://www.w3.org/1999/xlink"
   xmlns="http://www.w3.org/2000/svg"
   xmlns:svg="http://www.w3.org/2000/svg">
  <sodipodi:namedview
     id="namedview2"
     pagecolor="#ffffff"
     bordercolor="#666666"
     borderopacity="1.0"
     inkscape:showpageshadow="2"
     inkscape:pageopacity="0.0"
     inkscape:pagecheckerboard="0"
     inkscape:deskcolor="#d1d1d1"
     inkscape:zoom="51.953741"
     inkscape:cx="21.480648"
     inkscape:cy="8.921398"
     inkscape:window-width="3840"
     inkscape:window-height="2054"
     inkscape:window-x="3829"
     inkscape:window-y="-11"
     inkscape:window-maximized="1"
     inkscape:current-layer="svg2" />
  <defs
     id="defs2">
    <linearGradient
       id="section-stops">
      <stop
         offset="0"
         stop-color="#282828"
         id="stop1" />
      <stop
         offset="1"
         stop-color="#181818"
         id="stop2" />
    </linearGradient>
    <linearGradient
       id="top-gradient"
       x1="0"
       y1="0"
       x2="0"
       y2="100"
       xlink:href="#section-stops"
       gradientUnits="userSpaceOnUse" />
    <linearGradient
       id="mid-gradient"
       x1="0"
       y1="0"
       x2="0"
       y2="232"
       xlink:href="#section-stops"
       gradientUnits="userSpaceOnUse" />
    <linearGradient
       id="inp-gradient"
       x1="0"
       y1="0"
       x2="0"
       y2="78"
       xlink:href="#section-stops"
       gradientUnits="userSpaceOnUse" />
  </defs>
  <g
     id="g1">
    <rect
       id="top--sctn"
       fill="url(#top-gradient)"
       x="0"
       y="0"
       width="105.5"
       height="62" />
    <rect
       id="mid--sctn"
       fill="url(#mid-gradient)"
       x="0"
       y="66"
       width="105.5"
       height="232" />
    <rect
       id="inp--sctn"
       fill="url(#inp-gradient)"
       x="0"
       y="302"
       width="105.5"
       height="78" />
    <g
       transform="translate(0,62)"
       id="separator1"
       style="stroke-width:1">
      <path
         id="1--d0"
         stroke="#202020"
         stroke-width="1"
         d="M 0,0.5 H 105" />
      <path
         id="1--d1"
         stroke="#161616"
         stroke-width="1"
         d="M 0,1.5 H 105" />
      <path
         id="1--d2"
         stroke="#101010"
         stroke-width="1"
         d="M 0,2.5 H 105" />
      <path
         id="1--d3"
         stroke="#404040"
         stroke-width="1"
         d="M 0,3.5 H 105" />
    </g>
    <g
       transform="translate(0,298)"
       id="separator2"
       style="stroke-width:1">
      <path
         id="2--d0"
         stroke="#202020"
         stroke-width="1"
         d="M 0,0.5 H 105" />
      <path
         id="2--d1"
         stroke="#161616"
         stroke-width="1"
         d="M 0,1.5 H 105" />
      <path
         id="2--d2"
         stroke="#101010"
         stroke-width="1"
         d="M 0,2.5 H 105" />
      <path
         id="2--d3"
         stroke="#404040"
         stroke-width="1"
         d="M 0,3.5 H 105" />
    </g>
    <g
       id="inputs"
       fill="#737373"
       transform="translate(-6,-10)">
      <path
         id="LEVEL--in-label"
         d="m 53.090869,327.59196 v -8.364 h 1.391994 v 7.128 h 3.611986 v 1.236 z m 6.011966,0 v -8.364 h 5.555977 v 1.236 h -4.163983 v 2.22 h 3.839985 v 1.248 h -3.839985 v 2.424 h 4.163983 v 1.236 z m 9.599961,0 -3.359986,-8.364 h 1.535993 l 2.55599,6.672 h -0.419998 l 2.51999,-6.672 h 1.535993 l -3.335986,8.364 z m 5.351988,0 v -8.364 h 5.555978 v 1.236 h -4.163983 v 2.22 h 3.839984 v 1.248 h -3.839984 v 2.424 h 4.163983 v 1.236 z m 6.959972,0 v -8.364 h 1.391995 v 7.128 h 3.611985 v 1.236 z" />
      <path
         id="A--in-label"
         d="m 68.527484,345.86637 3.311987,-8.364 h 1.055996 l 3.299986,8.364 h -1.511994 l -2.31599,-6.336 -2.315991,6.336 z m 2.063992,-1.752 0.431998,-1.236 h 2.675989 l 0.455998,1.236 z" />
      <path
         id="TH--in-label"
         d="m 42.002441,345.86637 v -7.128 h -2.663989 v -1.236 h 6.719973 v 1.236 h -2.651989 v 7.128 z m 5.06397,0 v -8.364 h 1.391994 v 3.42 h 3.767985 v -3.42 h 1.391994 v 8.364 H 52.22639 v -3.66 h -3.767985 v 3.66 z" />
      <path
         id="R--in-label"
         d="m 95.148527,345.86637 v -8.364 h 2.675989 q 0.995996,0 1.619993,0.3 0.624001,0.288 0.911991,0.828 0.3,0.54 0.3,1.272 0,1.116 -0.64799,1.74 -0.636,0.612 -1.823996,0.708 -0.239999,0 -0.515998,0 -0.275998,0 -0.491998,0 h -0.635997 v 3.516 z m 4.583981,0 -2.123991,-3.672 1.427994,-0.168 2.303989,3.84 z m -3.191987,-4.74 h 1.139995 q 0.455999,0 0.803997,-0.108 0.359999,-0.108 0.563998,-0.372 0.215999,-0.264 0.215999,-0.732 0,-0.468 -0.215999,-0.72 -0.203999,-0.252 -0.563998,-0.348 -0.359998,-0.108 -0.803997,-0.108 h -1.139995 z" />
      <path
         id="MIX--in-label"
         d="m 11.756508,337.83769 h 1.96875 l 1.44141,4.61133 1.44141,-4.61133 h 1.90429 l 0.98438,7.69336 h -1.58203 l -0.67383,-5.41406 -1.69336,5.41406 h -0.75586 l -1.73438,-5.46093 -0.63867,5.46093 h -1.60547 z m 8.8711,0 h 1.65234 v 7.69336 h -1.65234 z m 2.88867,0 h 1.76367 l 1.54688,2.35547 1.5996,-2.35547 h 1.71094 l -2.43164,3.66211 2.67188,4.03125 h -1.7168 l -1.82227,-2.73633 -1.82226,2.73633 h -1.75195 l 2.70117,-4.01953 z" />
    </g>
    <circle
       id="comp-light"
       cx="75.80368"
       cy="97.575928"
       r="5"
       fill="#20415f"
       stroke="#333333"
       stroke-width="1" />
    <circle
       id="level-light"
       cx="58"
       cy="32"
       r="5"
       fill="#20415f"
       stroke="#333333"
       stroke-width="1" />
    <path
       id="Level--ctl-label"
       fill="#d9d9d9"
       d="m 53.470694,54.119011 v -9.29331 h 1.173326 v 8.239979 h 4.159973 v 1.053331 z m 9.146613,0.106666 q -0.773326,0 -1.359994,-0.253332 -0.573328,-0.266666 -0.959986,-0.733332 -0.373339,-0.466665 -0.573328,-1.066664 -0.186669,-0.613332 -0.186669,-1.29333 0,-0.679998 0.186669,-1.29333 0.186659,-0.626665 0.546658,-1.106664 0.373328,-0.479999 0.933326,-0.759998 0.559998,-0.279999 1.306665,-0.279999 0.759987,0 1.306655,0.266666 0.559997,0.253332 0.906656,0.706665 0.359999,0.453332 0.533328,1.01333 0.173339,0.559999 0.173339,1.159998 0,0.05333 -0.0133,0.253332 0,0.186666 -0.0267,0.333333 h -4.733301 q 0.04,0.959997 0.559998,1.493329 0.519988,0.533332 1.413314,0.533332 0.573338,0 0.999996,-0.186666 0.426669,-0.186666 0.799997,-0.599998 l 0.786657,0.693331 q -0.359989,0.386666 -0.759987,0.639999 -0.399998,0.239999 -0.853327,0.359999 -0.439998,0.119999 -0.986666,0.119999 z m 1.693324,-3.626657 q 0.0267,-0.106667 0.0267,-0.213333 0.0133,-0.106666 0.0133,-0.213333 0,-0.319999 -0.119999,-0.639998 -0.10667,-0.319999 -0.333329,-0.573332 -0.213329,-0.266666 -0.559997,-0.413332 -0.333329,-0.16 -0.799997,-0.16 -0.573328,0 -0.986656,0.266666 -0.413329,0.266666 -0.639998,0.706665 -0.226669,0.439999 -0.266669,0.973331 h 4.039974 z m 4.639981,3.519991 -2.693319,-6.573317 h 1.239995 l 1.919982,5.119987 1.933322,-5.119987 h 1.226665 l -2.679989,6.573317 z m 7.49328,0.106666 q -0.773327,0 -1.359985,-0.253332 -0.573338,-0.266666 -0.959996,-0.733332 -0.373329,-0.466665 -0.573328,-1.066664 -0.186669,-0.613332 -0.186669,-1.29333 0,-0.679998 0.186669,-1.29333 0.18666,-0.626665 0.546658,-1.106664 0.373329,-0.479999 0.933326,-0.759998 0.559998,-0.279999 1.306665,-0.279999 0.759987,0 1.306655,0.266666 0.559997,0.253332 0.906656,0.706665 0.359999,0.453332 0.533328,1.01333 0.173339,0.559999 0.173339,1.159998 0,0.05333 -0.0133,0.253332 0,0.186666 -0.0267,0.333333 h -4.7333 q 0.04,0.959997 0.559997,1.493329 0.519988,0.533332 1.413315,0.533332 0.573337,0 0.999996,-0.186666 0.426668,-0.186666 0.799996,-0.599998 l 0.786667,0.693331 q -0.359998,0.386666 -0.759997,0.639999 -0.399998,0.239999 -0.853326,0.359999 -0.439999,0.119999 -0.986666,0.119999 z m 1.693323,-3.626657 q 0.0267,-0.106667 0.0267,-0.213333 0.0133,-0.106666 0.0133,-0.213333 0,-0.319999 -0.12,-0.639998 -0.106669,-0.319999 -0.333329,-0.573332 -0.213329,-0.266666 -0.559997,-0.413332 -0.333329,-0.16 -0.799997,-0.16 -0.573328,0 -0.986656,0.266666 -0.413328,0.266666 -0.639997,0.706665 -0.22667,0.439999 -0.266669,0.973331 h 4.039973 z m 4.053323,3.626657 q -0.599997,0 -0.973326,-0.373332 -0.373338,-0.373332 -0.373338,-1.186664 v -7.83998 h 1.119995 v 7.626647 q 0,0.386666 0.16,0.559999 0.159999,0.173333 0.426668,0.173333 0.119999,0 0.266659,-0.02667 0.146669,-0.02667 0.306669,-0.08 v 0.959997 q -0.226669,0.09333 -0.479998,0.133333 -0.253329,0.05333 -0.453329,0.05333 z"
       style="stroke-width:0.999998" />
  </g>

   <g id="small-logo" opacity="0" transform="translate(2.5, 2.5) scale(.125, .125)">
      <path id="CHEM" fill="#faa64c" stroke="#f9a54b" stroke-width="1.25" d="M 9.57155,6.8102466 C 7.5299719,6.9641606 5.817206,7.4868486 4.4334406,8.3806086 3.0619033,9.2734488 2.0516687,10.491776 1.4048649,12.033091 0.75805948,13.574385 0.51296865,15.406135 0.67188275,17.528129 l 0.54976985,7.341113 c 0.1579945,2.109718 0.6731488,3.884153 1.5431675,5.323441 0.8690998,1.427031 2.0491859,2.476751 3.5383012,3.153925 1.5004252,0.663996 3.2714337,0.919037 5.3130137,0.765124 1.687051,-0.127185 3.155406,-0.59946 4.409287,-1.421756 1.253884,-0.822296 2.257264,-1.952595 3.010135,-3.390887 0.764175,-1.451474 1.244307,-3.166409 1.440553,-5.14249 l -5.205577,0.392446 C 15.089484,25.90723 14.645159,26.981878 13.942321,27.774978 13.238567,28.5558 12.338935,28.98866 11.238682,29.071606 9.832806,29.177598 8.7054519,28.832024 7.8587493,28.0324 7.0242738,27.231857 6.5482422,26.04655 6.4306659,24.476538 L 5.8808967,17.135426 c -0.1175795,-1.570032 0.1765706,-2.813401 0.8824481,-3.730054 0.7171819,-0.929869 1.7797757,-1.449033 3.1856556,-1.55502 0.7212756,-0.05438 1.3804676,0.06253 1.9798316,0.350351 0.6116,0.28694 1.142542,0.727992 1.592816,1.323125 0.46158,0.581971 0.824846,1.313187 1.0875,2.193842 l 5.205579,-0.392445 C 19.33768,13.387591 18.615927,11.763264 17.645071,10.454923 16.686438,9.1456738 15.517576,8.1791256 14.143077,7.5549806 12.780801,6.9298966 11.258596,6.6830986 9.571545,6.8102816 Z M 23.362582,6.0480886 25.36583,32.79761 30.389179,32.418903 29.577699,21.583165 39.149908,20.861522 39.961385,31.697259 44.98817,31.318293 42.984921,4.5687716 37.958139,4.9477376 38.786151,16.004246 29.213942,16.725889 28.38593,5.6693826 Z m 25.488072,-1.921532 2.003248,26.7495214 17.861931,-1.346601 -0.363755,-4.857279 -12.835151,0.967637 -0.449014,-5.9957 10.816873,-0.815478 -0.363755,-4.857277 -10.816873,0.815478 -0.462965,-6.1819914 12.835151,-0.967634 -0.363758,-4.857277 z m 22.445179,-1.692129 2.003246,26.7495204 4.566053,-0.344231 -1.396383,-18.646011 6.089927,15.294737 4.435398,-0.334382 3.716989,-16.3914044 1.422993,19.0013344 4.566035,-0.34423 L 94.696844,0.67023864 88.074707,1.1694776 84.346479,19.580833 77.917982,1.9351876 Z" />
      <path id="hex" fill="none" stroke="#f9a54b" stroke-width="2.5" d="M 75.274,41.479089 61.021074,45.456299 57.33869,59.788464 67.909232,70.143418 82.162158,66.166796 85.844539,51.834631 Z" />
   </g>

   <g id="PRE" opacity="1" transform="translate(38.5,3.5)">
      <path
         fill="#f9a54b"
         d="m 0,0 h 1.125 q 0.953613,0 1.538086,0.4482422 0.584473,0.4482422 0.584473,1.1645505 0,0.720703 -0.619629,1.208496 -0.615235,0.487793 -1.872071,0.474609 v 2.302735 H 0 Z m 0.755859,0.6679688 v 1.9599609 q 0.861329,-0.0088 1.274415,-0.2417 0.41748,-0.237304 0.41748,-0.755859 0,-0.391113 -0.316406,-0.6767574 Q 1.819336,0.6679688 0.755859,0.6679688 Z M 12.438477,0 h 1.21289 q 0.905274,0 1.472168,0.4526367 0.571289,0.4482422 0.571289,1.151367 0,0.5625 -0.36914,0.993164 -0.369141,0.430664 -1.151368,0.606445 l 1.630372,2.39502 h -0.874512 l -1.555664,-2.302735 h -0.171387 v 2.302735 h -0.764648 z m 0.764648,0.6767578 v 1.9511719 q 1.691895,0.03516 1.691895,-0.979981 0,-0.355957 -0.197754,-0.5800776 Q 14.499512,0.8393555 14.169922,0.7602539 13.840332,0.6767579 13.203125,0.6767578 Z M 24.758301,0 h 3.102539 v 0.7646485 h -2.34668 v 1.3974602 h 2.34668 v 0.75586 h -2.34668 v 1.924804 h 2.34668 v 0.75586 h -3.102539 z"
         id="PRE--new-title" />
   </g>
   <path id="th" stroke="#f9a54b" stroke-width=".25" d="M 5,6.25 h 24.5 M 100,6.25 h -24.5" />

</svg>
