<?xml version="1.0" encoding="UTF-8" standalone="no"?>
<svg width="105" height="380" viewBox="0 0 105 380" version="1.1" id="svg2" sodipodi:docname="CHEM-post.svg"
   inkscape:version="1.3.2 (091e20e, 2023-11-25, custom)" xmlns:inkscape="http://www.inkscape.org/namespaces/inkscape"
   xmlns:sodipodi="http://sodipodi.sourceforge.net/DTD/sodipodi-0.dtd" xmlns:xlink="http://www.w3.org/1999/xlink"
   xmlns="http://www.w3.org/2000/svg" xmlns:svg="http://www.w3.org/2000/svg">
   <sodipodi:namedview id="namedview2" pagecolor="#ffffff" bordercolor="#666666" borderopacity="1.0"
      inkscape:showpageshadow="2" inkscape:pageopacity="0.0" inkscape:pagecheckerboard="0" inkscape:deskcolor="#666666"
      inkscape:zoom="4.5921053" inkscape:cx="80.028653" inkscape:cy="178.45845" inkscape:window-width="3840"
      inkscape:window-height="2054" inkscape:window-x="3829" inkscape:window-y="-11" inkscape:window-maximized="1"
      inkscape:current-layer="svg2" />
   <defs id="defs2">
      <linearGradient id="panel-stops">
         <stop offset="0" stop-color="#282828" />
         <stop offset="1" stop-color="#181818" />
      </linearGradient>
      <linearGradient id="gpanel" x1="0" y1="0" x2="0" y2="380" xlink:href="#panel-stops" gradientUnits="userSpaceOnUse" />
      <linearGradient id="a" x1="7.5" y1="0" x2="7.5" y2="15" gradientUnits="userSpaceOnUse">
         <stop offset="0" style="stop-color:#a0a0a0;" />
         <stop offset="1" style="stop-color:#505050;" />
      </linearGradient>
      <linearGradient id="b" x1="7.5" y1="1" x2="7.5" y2="12" gradientUnits="userSpaceOnUse">
         <stop offset="0" style="stop-color:#c0c0c0;" />
         <stop offset="1" style="stop-color:#404040;" />
      </linearGradient>
      <linearGradient id="c" x1="7.5" y1="5" x2="7.5" y2="11" gradientUnits="userSpaceOnUse">
         <stop offset="0" style="stop-color:#a0a0a0;" />
         <stop offset="1" style="stop-color:#505050;" />
      </linearGradient>
      <linearGradient inkscape:collect="always" xlink:href="#linearGradient38" id="linearGradient73"
         gradientUnits="userSpaceOnUse" x1="731.81195" y1="78.518806" x2="740.8045" y2="109.22913" />
      <linearGradient id="linearGradient38" inkscape:collect="always">
         <stop style="stop-color:#41bf73;stop-opacity:1;" offset="0" id="stop37" />
         <stop style="stop-color:#18482a;stop-opacity:1;" offset="1" id="stop38" />
      </linearGradient>
   </defs>

   <g id="g1">
      <rect opacity="1" id="g-panel" fill="url(#gpanel)" x="0" y="0" width="105.5" height="380" />
      <path id="t--div" fill="none" stroke="#737373" stroke-width="0.5"  d="M 2,58  h 102" />
      <path id="b--div" fill="none" stroke="#737373" stroke-width="0.5"  d="M 2,278 h 102" />
   </g>

   <circle id="EQ-active" fill="#20415f" stroke="#333333" cx="74" cy="85" r="5" />

   <path id="th" stroke="#f9a54b" stroke-width=".25" d="M 5,6.25 h 18 M 100,6.25 h -18" />
   <g id="POST" opacity="1" transform="translate(31,3.5)">
      <path id="POST--new-title" fill="#f9a54b"
         d="m 0,0.180176 h 1.125 q 0.953614,0 1.538086,0.448242 0.584473,0.448243 0.584473,1.164551 0,0.720703 -0.619629,1.208496 -0.615234,0.487793 -1.87207,0.47461 V 5.778809 H 0 Z m 0.75586,0.667969 v 1.959961 q 0.861328,-0.0088 1.274414,-0.241699 0.41748,-0.237305 0.41748,-0.75586 0,-0.391113 -0.316406,-0.676758 Q 1.819336,0.848145 0.75586,0.848145 Z m 11.331054,2.096191 q 0,-1.21289 0.914063,-2.078613 Q 13.915039,0 15.198242,0 q 1.252442,0 2.157715,0.874512 0.905274,0.870117 0.905274,2.069824 0,1.27002 -0.896485,2.148926 -0.892089,0.874512 -2.192871,0.874512 -1.283203,0 -2.184082,-0.883301 -0.900879,-0.883301 -0.900879,-2.140137 z m 5.361328,0.03516 q 0,-0.927247 -0.667968,-1.560059 -0.667969,-0.637207 -1.643555,-0.637207 -0.927246,0 -1.59082,0.645996 -0.65918,0.645996 -0.65918,1.55127 0,0.918457 0.676758,1.555664 0.681152,0.632812 1.665527,0.632812 0.905274,0 1.560059,-0.645996 0.659179,-0.650391 0.659179,-1.54248 z M 30.677735,0.799808 30.058106,1.29639 Q 29.812012,1.041507 29.609864,0.91846 29.41211,0.791019 29.03418,0.791019 q -0.413086,0 -0.672363,0.188965 -0.254883,0.18457 -0.254883,0.479004 0,0.254883 0.224121,0.452636 0.224121,0.19336 0.764648,0.42627 0.540528,0.228516 0.839356,0.430664 0.303223,0.197754 0.496582,0.439453 0.193359,0.241699 0.285644,0.509766 0.09668,0.268066 0.09668,0.566894 0,0.698731 -0.509766,1.190918 -0.505371,0.492188 -1.226074,0.492188 -0.703125,0 -1.243652,-0.382324 Q 27.29834,5.198734 27.008301,4.429691 l 0.764648,-0.215332 q 0.417481,0.944824 1.278809,0.944824 0.417481,0 0.694336,-0.250488 0.276855,-0.250488 0.276855,-0.632813 0,-0.228515 -0.145019,-0.457031 Q 29.73291,3.585941 29.517578,3.436527 29.302246,3.287113 28.827637,3.098148 28.357422,2.904789 28.102539,2.746585 27.852051,2.583988 27.667481,2.364261 27.48291,2.14014 27.39502,1.920414 q -0.0835,-0.219727 -0.0835,-0.470215 0,-0.602051 0.483398,-1.023926 Q 28.278317,3e-6 28.968258,3e-6 q 0.457031,0 0.927246,0.197754 0.470215,0.197754 0.782227,0.602051 z m 8.738281,-0.619629 h 3.42334 V 0.944828 H 41.503418 V 5.778809 H 40.747559 V 0.944825 h -1.331543 z" />
   </g>
 
   <circle fill="#e200e5" cx="16" cy="44" r="1" id="b-mute" />
</svg>