<?xml version="1.0" encoding="UTF-8" standalone="no"?>
<!-- Created with Inkscape (http://www.inkscape.org/) -->

<svg width="360" height="380" viewBox="0 0 360 380.00002" version="1.1" id="svg1"
   inkscape:version="1.3.2 (091e20e, 2023-11-25, custom)" sodipodi:docname="CHEM-preset.svg"
   xmlns:inkscape="http://www.inkscape.org/namespaces/inkscape"
   xmlns:sodipodi="http://sodipodi.sourceforge.net/DTD/sodipodi-0.dtd" xmlns="http://www.w3.org/2000/svg"
   xmlns:svg="http://www.w3.org/2000/svg">
   <sodipodi:namedview id="namedview1" pagecolor="#ffffff" bordercolor="#111111" borderopacity="1"
      inkscape:showpageshadow="0" inkscape:pageopacity="0" inkscape:pagecheckerboard="1" inkscape:deskcolor="#d1d1d1"
      inkscape:document-units="px" showguides="false" inkscape:zoom="4.5921053" inkscape:cx="179.87392"
      inkscape:cy="190" inkscape:window-width="3840" inkscape:window-height="2126" inkscape:window-x="-11"
      inkscape:window-y="-11" inkscape:window-maximized="1" inkscape:current-layer="g7">
      <sodipodi:guide position="0.43544812,372.46838" orientation="0,-1" id="guide1" inkscape:locked="false" />
      <sodipodi:guide position="7.5,380" orientation="1,0" id="guide2" inkscape:locked="false" />
      <sodipodi:guide position="15,378.63154" orientation="1,0" id="guide3" inkscape:locked="false" />
      <sodipodi:guide position="-3.3527796,364.96952" orientation="0,-1" id="guide4" inkscape:locked="false" />
      <sodipodi:guide position="-2.8947185,7.5" orientation="0,-1" id="guide7" inkscape:locked="false" />
      <sodipodi:guide position="-39.531861,17.295187" orientation="0,-1" id="guide8" inkscape:locked="false" />
      <sodipodi:guide position="390.64661,138.20443" orientation="1,0" id="guide16" inkscape:locked="false" />
   </sodipodi:namedview>
  <linearGradient id="panel-gradient"
    x1="0" y1="0" x2="0" y2="380" gradientUnits="userSpaceOnUse">
    <stop offset="0" stop-color="#1f1f1f" />
    <stop offset="1" stop-color="#080808" />
  </linearGradient>
   <g>
      <rect  fill="url(#panel-gradient)" id="g-panel" width="360" height="380" x="0" y="0"/>
      <g id="grid">
         <rect id="grid-bg" fill="#333333" width="300" height="322" x="13" y="42" style="stroke-width:0.892052" />
         <path id="gl2--grid-line" stroke="#1f1f1f" stroke-width="1px" d="M 163.24708,42.990898 162.75292,363.19896" />
         <path id="gl4--grid-line" stroke="#1f1f1f" stroke-width="0.924319px" d="M 12.847755,65.462158 312.84534,66.526134" />
         <path id="gl5--grid-line"stroke="#1f1f1f" stroke-width="0.924319px" d="M 12.847755,88.462158 312.84534,89.526134" />
         <path id="gl6--grid-line"stroke="#1f1f1f" stroke-width="0.924319px" d="m 12.847755,111.46216 299.997585,1.06397" />
         <path id="gl7--grid-line" stroke="#1f1f1f" stroke-width="0.924319px" d="m 12.847755,134.46216 299.997585,1.06397"/>
         <path id="gl8--grid-line" stroke="#1f1f1f" stroke-width="0.924319px" d="m 12.847755,157.46216 299.997585,1.06397"/>
         <path id="gl9--grid-line" stroke="#1f1f1f" stroke-width="0.924319px" d="m 12.847755,180.46216 299.997585,1.06397" />
         <path id="gl10--grid-line" stroke="#1f1f1f" stroke-width="0.924319px" d="m 12.847755,203.46216 299.997585,1.06397" />
         <path id="gl11--grid-line" stroke="#1f1f1f" stroke-width="0.924319px" d="m 12.847755,226.46216 299.997585,1.06397"/>
         <path id="gl12--grid-line" stroke="#1f1f1f" stroke-width="0.924319px" d="m 12.847755,249.46216 299.997585,1.06397"/>
         <path id="gl13--grid-line" stroke="#1f1f1f" stroke-width="0.924319px" d="m 12.847755,272.46216 299.997585,1.06397" />
         <path id="gl14--grid-line" stroke="#1f1f1f" stroke-width="0.924319px" d="m 12.847755,295.46216 299.997585,1.06397" />
         <path id="gl15--grid-line" stroke="#1f1f1f" stroke-width="0.924319px" d="m 12.847755,318.46216 299.997585,1.06397" />
         <path id="gl16--grid-line" stroke="#1f1f1f" stroke-width="0.924319px" d="m 12.847755,341.46216 299.997585,1.06397" />
      </g>
      <path
         style="font-weight:600;font-size:16px;line-height:1.25;font-family:'Hanken Grotesk';-inkscape-font-specification:'Hanken Grotesk Semi-Bold';text-align:center;text-anchor:middle;fill:#8c8c8c;fill-opacity:1"
         d="m 65.151992,37.6 q -2.064,0 -3.152,-1.072 -1.072,-1.072 -1.072,-3.184 v -7.12 h 1.856 v 6.912 q 0,0.912 0.208,1.536 0.224,0.608 0.736,0.928 0.528,0.304 1.424,0.304 0.896,0 1.408,-0.32 0.528,-0.32 0.752,-0.928 0.224,-0.608 0.224,-1.52 v -6.912 h 1.84 v 7.04 q 0,2.16 -1.072,3.248 -1.072,1.088 -3.152,1.088 z m 8.991993,-0.08 q -0.848,0 -1.504,-0.24 -0.656,-0.256 -1.104,-0.64 -0.448,-0.384 -0.736,-0.768 l 1.216,-1.056 q 0.304,0.496 0.832,0.88 0.544,0.384 1.312,0.384 0.64,0 1.008,-0.272 0.384,-0.272 0.384,-0.672 0,-0.352 -0.24,-0.544 -0.24,-0.208 -0.624,-0.352 -0.384,-0.144 -0.848,-0.256 -0.448,-0.112 -0.912,-0.272 -0.464,-0.176 -0.864,-0.432 -0.384,-0.256 -0.624,-0.656 -0.24,-0.4 -0.24,-0.992 0,-1.04 0.8,-1.664 0.8,-0.624 2.096,-0.624 0.928,0 1.696,0.368 0.768,0.368 1.2,1.104 l -1.104,0.848 q -0.32,-0.48 -0.8,-0.72 -0.48,-0.24 -1.04,-0.24 -0.512,0 -0.864,0.208 -0.336,0.208 -0.336,0.544 0,0.256 0.16,0.416 0.16,0.16 0.496,0.288 0.336,0.128 0.848,0.256 0.48,0.112 0.992,0.272 0.512,0.16 0.944,0.432 0.448,0.256 0.72,0.704 0.288,0.432 0.288,1.12 0,0.768 -0.4,1.36 -0.384,0.576 -1.104,0.896 -0.704,0.32 -1.648,0.32 z m 8.304011,0 q -0.992,0 -1.728,-0.32 -0.72,-0.32 -1.184,-0.896 -0.464,-0.576 -0.688,-1.296 -0.224,-0.736 -0.224,-1.52 0,-0.784 0.208,-1.52 0.224,-0.752 0.672,-1.344 0.448,-0.592 1.152,-0.928 0.704,-0.352 1.664,-0.352 0.912,0 1.584,0.32 0.688,0.304 1.136,0.864 0.448,0.544 0.656,1.248 0.224,0.704 0.224,1.504 0,0.112 -0.016,0.32 0,0.208 -0.032,0.416 h -5.472 q 0.064,0.944 0.64,1.44 0.576,0.496 1.472,0.496 0.656,0 1.2,-0.208 0.544,-0.208 0.992,-0.656 l 0.976,1.184 q -0.496,0.448 -0.992,0.72 -0.496,0.272 -1.04,0.4 -0.528,0.128 -1.2,0.128 z m 1.728,-4.4 q 0.032,-0.128 0.032,-0.256 0.016,-0.128 0.016,-0.256 0,-0.352 -0.128,-0.672 -0.112,-0.32 -0.352,-0.56 -0.24,-0.256 -0.592,-0.4 -0.352,-0.16 -0.8,-0.16 -0.624,0 -1.056,0.272 -0.416,0.272 -0.656,0.704 -0.224,0.416 -0.272,0.912 h 4.384 z m 3.472006,4.256 v -7.888 h 1.792 v 2.128 l -0.336,0.048 q 0.08,-0.688 0.464,-1.2 0.384,-0.528 0.928,-0.816 0.56,-0.304 1.104,-0.304 0.384,0 0.736,0.096 0.352,0.096 0.736,0.32 l -0.864,1.6 q -0.176,-0.112 -0.464,-0.176 -0.272,-0.08 -0.528,-0.08 -0.336,0 -0.672,0.128 -0.32,0.128 -0.576,0.4 -0.256,0.256 -0.384,0.672 -0.08,0.224 -0.128,0.592 -0.032,0.352 -0.032,0.992 v 3.488 z"
         id="user--tab-label" aria-label="User" inkscape:label="User" />
      <path fill="#d9d9d9"
         d="m 207.87999,37.584 q -1.76,0 -2.88,-0.912 -1.104,-0.912 -1.36,-2.432 l 1.808,-0.448 q 0.176,1.056 0.832,1.6 0.672,0.544 1.648,0.544 0.544,0 0.976,-0.192 0.432,-0.208 0.672,-0.576 0.256,-0.368 0.256,-0.832 0,-0.496 -0.272,-0.816 -0.272,-0.336 -0.784,-0.592 -0.512,-0.272 -1.248,-0.56 -1.008,-0.384 -1.712,-0.832 -0.704,-0.448 -1.072,-1.056 -0.368,-0.624 -0.368,-1.472 0,-0.88 0.432,-1.552 0.432,-0.688 1.216,-1.072 0.784,-0.384 1.808,-0.384 1.104,0 1.952,0.496 0.848,0.496 1.36,1.504 l -1.472,0.896 q -0.336,-0.608 -0.816,-0.928 -0.48,-0.336 -1.088,-0.336 -0.432,0 -0.784,0.176 -0.352,0.16 -0.56,0.464 -0.192,0.304 -0.192,0.704 0,0.416 0.24,0.736 0.24,0.304 0.736,0.56 0.512,0.256 1.296,0.56 1.008,0.384 1.712,0.832 0.704,0.448 1.072,1.072 0.384,0.608 0.384,1.488 0,0.976 -0.48,1.728 -0.48,0.752 -1.344,1.2 -0.848,0.432 -1.968,0.432 z m 5.61599,3.04 1.568,-3.776 -3.008,-7.36 h 1.952 l 2,5.584 2.032,-5.584 h 1.92 l -4.544,11.136 z m 10.336,-3.104 q -0.848,0 -1.504,-0.24 -0.656,-0.256 -1.104,-0.64 -0.448,-0.384 -0.736,-0.768 l 1.216,-1.056 q 0.304,0.496 0.832,0.88 0.544,0.384 1.312,0.384 0.64,0 1.008,-0.272 0.384,-0.272 0.384,-0.672 0,-0.352 -0.24,-0.544 -0.24,-0.208 -0.624,-0.352 -0.384,-0.144 -0.848,-0.256 -0.448,-0.112 -0.912,-0.272 -0.464,-0.176 -0.864,-0.432 -0.384,-0.256 -0.624,-0.656 -0.24,-0.4 -0.24,-0.992 0,-1.04 0.8,-1.664 0.8,-0.624 2.096,-0.624 0.928,0 1.696,0.368 0.768,0.368 1.2,1.104 l -1.104,0.848 q -0.32,-0.48 -0.8,-0.72 -0.48,-0.24 -1.04,-0.24 -0.512,0 -0.864,0.208 -0.336,0.208 -0.336,0.544 0,0.256 0.16,0.416 0.16,0.16 0.496,0.288 0.336,0.128 0.848,0.256 0.48,0.112 0.992,0.272 0.512,0.16 0.944,0.432 0.448,0.256 0.72,0.704 0.288,0.432 0.288,1.12 0,0.768 -0.4,1.36 -0.384,0.576 -1.104,0.896 -0.704,0.32 -1.648,0.32 z m 7.71201,0 q -0.592,0 -1.12,-0.224 -0.512,-0.24 -0.816,-0.752 -0.304,-0.528 -0.304,-1.376 v -7.6 l 1.792,-0.992 v 8.096 q 0,0.672 0.192,1.04 0.208,0.352 0.736,0.352 0.16,0 0.368,-0.032 0.224,-0.048 0.464,-0.112 v 1.376 q -0.32,0.112 -0.656,0.16 -0.32,0.064 -0.656,0.064 z m -3.744,-6.656 v -1.376 h 5.056 v 1.376 z m 9.93601,6.656 q -0.992,0 -1.728,-0.32 -0.72,-0.32 -1.184,-0.896 -0.464,-0.576 -0.688,-1.296 -0.224,-0.736 -0.224,-1.52 0,-0.784 0.208,-1.52 0.224,-0.752 0.672,-1.344 0.448,-0.592 1.152,-0.928 0.704,-0.352 1.664,-0.352 0.912,0 1.584,0.32 0.688,0.304 1.136,0.864 0.448,0.544 0.656,1.248 0.224,0.704 0.224,1.504 0,0.112 -0.016,0.32 0,0.208 -0.032,0.416 h -5.472 q 0.064,0.944 0.64,1.44 0.576,0.496 1.472,0.496 0.656,0 1.2,-0.208 0.544,-0.208 0.992,-0.656 l 0.976,1.184 q -0.496,0.448 -0.992,0.72 -0.496,0.272 -1.04,0.4 -0.528,0.128 -1.2,0.128 z m 1.728,-4.4 q 0.032,-0.128 0.032,-0.256 0.016,-0.128 0.016,-0.256 0,-0.352 -0.128,-0.672 -0.112,-0.32 -0.352,-0.56 -0.24,-0.256 -0.592,-0.4 -0.352,-0.16 -0.8,-0.16 -0.624,0 -1.056,0.272 -0.416,0.272 -0.656,0.704 -0.224,0.416 -0.272,0.912 h 4.384 z m 3.472,4.256 v -7.888 h 1.776 v 2.048 l -0.384,0.224 q 0.144,-0.688 0.4,-1.152 0.272,-0.464 0.624,-0.736 0.352,-0.288 0.752,-0.4 0.416,-0.128 0.832,-0.128 0.64,0 1.2,0.256 0.56,0.24 0.944,0.8 0.4,0.544 0.544,1.488 l -1.04,0.288 q 0.24,-1.024 0.672,-1.632 0.432,-0.624 1.008,-0.912 0.592,-0.288 1.28,-0.288 1.008,0 1.616,0.448 0.624,0.432 0.912,1.152 0.288,0.704 0.288,1.52 v 4.912 h -1.776 v -4.48 q 0,-0.656 -0.16,-1.104 -0.144,-0.448 -0.464,-0.672 -0.32,-0.24 -0.816,-0.24 -0.528,0 -0.88,0.272 -0.352,0.256 -0.544,0.8 -0.176,0.544 -0.176,1.344 v 4.08 h -1.776 v -4.56 q 0,-0.976 -0.368,-1.456 -0.368,-0.48 -1.04,-0.48 -0.528,0 -0.896,0.272 -0.368,0.272 -0.56,0.816 -0.192,0.528 -0.192,1.328 v 4.08 z"
         id="sys--tab-label-hi" aria-label="System" inkscape:label="System" />
      <path
         style="font-size:8px;line-height:1.25;font-family:'Hanken Grotesk';-inkscape-font-specification:'Hanken Grotesk';text-align:center;text-anchor:middle;fill:#4173bf"
         d="m 151.37373,61.233991 q -0.768,0 -1.352,-0.36 -0.576,-0.36 -0.904,-1.008 -0.32,-0.648 -0.32,-1.512 0,-0.872 0.32,-1.52 0.328,-0.648 0.904,-1.008 0.584,-0.36 1.352,-0.36 0.784,0 1.368,0.36 0.584,0.36 0.904,1.008 0.328,0.648 0.328,1.52 0,0.864 -0.328,1.512 -0.328,0.648 -0.912,1.008 -0.584,0.36 -1.36,0.36 z m 0,-0.672 q 0.584,0 1,-0.272 0.424,-0.272 0.656,-0.768 0.232,-0.496 0.232,-1.168 0,-0.68 -0.232,-1.176 -0.232,-0.496 -0.656,-0.768 -0.416,-0.272 -1,-0.272 -0.568,0 -0.992,0.272 -0.424,0.264 -0.656,0.76 -0.224,0.496 -0.224,1.184 0,0.68 0.224,1.176 0.232,0.496 0.656,0.768 0.424,0.264 0.992,0.264 z m 4.64799,0.576 v -4.944 h -1.872 v -0.632 h 4.448 v 0.632 h -1.864 v 4.944 z"
         id="OT-dytext" aria-label="OT" inkscape:label="OT" />
      <path fill="#d27979"
         d="m 155.42586,45.22967 c 0.0305,-0.0028 0.0651,-0.0055 0.10392,-0.0083 0.11915,-0.0056 0.23968,-0.0014 0.3616,0.01246 0.1247,0.01385 0.25216,0.04018 0.3824,0.07897 0.14132,0.04433 0.28125,0.101139 0.41979,0.170413 0.32143,0.160715 0.57359,0.360223 0.75647,0.598524 0.18288,0.238301 0.30619,0.497385 0.36992,0.77725 0.0526,0.221676 0.0707,0.455821 0.054,0.702434 -0.0166,0.23276 -0.0623,0.471061 -0.13717,0.714904 -0.0498,0.157944 -0.10945,0.313117 -0.17872,0.465518 -0.0859,0.188425 -0.18704,0.369922 -0.30342,0.544491 -0.0859,0.130235 -0.17872,0.256313 -0.27848,0.378234 -0.0887,0.105296 -0.18288,0.209207 -0.28263,0.311732 v 0 c -0.0222,0.01939 -0.043,0.04018 -0.0623,0.06235 -0.0194,0.0194 -0.0402,0.04019 -0.0623,0.06235 -0.0498,0.04988 -0.10253,0.102525 -0.15795,0.157944 -0.0554,0.05265 -0.11222,0.108068 -0.17041,0.166257 -0.0665,0.0665 -0.13577,0.135776 -0.20783,0.207821 -0.0721,0.06928 -0.14547,0.139932 -0.22028,0.211977 -0.10252,0.102525 -0.21198,0.209207 -0.32836,0.320045 -0.14686,0.138546 -0.29372,0.274323 -0.44058,0.407328 -0.11638,0.108067 -0.22999,0.210587 -0.34083,0.307574 -0.16348,0.144088 -0.31727,0.274322 -0.46135,0.390707 -0.0721,0.05819 -0.14271,0.113607 -0.21198,0.166257 -0.0554,0.04155 -0.11638,0.07065 -0.18288,0.08728 -0.17181,0.04708 -0.32836,0.01383 -0.46967,-0.09975 -0.22723,-0.182888 -0.48492,-0.403176 -0.7731,-0.660872 -0.28541,-0.254927 -0.5722,-0.516781 -0.86038,-0.785563 -0.28541,-0.268782 -0.54311,-0.51401 -0.77309,-0.735685 -0.0471,-0.04988 -0.0942,-0.09698 -0.14133,-0.141319 -0.0442,-0.04433 -0.0873,-0.0859 -0.12885,-0.124692 -0.47105,-0.471061 -0.80772,-1.005853 -1.01,-1.604377 -0.0942,-0.279866 -0.15102,-0.554189 -0.17042,-0.822971 -0.0139,-0.254927 0.007,-0.495998 0.0623,-0.723216 0.0443,-0.182882 0.11222,-0.353296 0.20367,-0.51124 0.0998,-0.17457 0.22583,-0.331127 0.37823,-0.469675 0.11361,-0.102525 0.23829,-0.193966 0.37407,-0.274323 0.0526,-0.03048 0.10392,-0.05819 0.15379,-0.08313 0.002,-0.0028 0.006,-0.0041 0.008,-0.0041 0.14132,-0.07205 0.28401,-0.12885 0.4281,-0.170413 0.18566,-0.05542 0.37269,-0.0859 0.56112,-0.09144 0.20505,-0.0083 0.39902,0.01109 0.5819,0.05819 0.18565,0.04711 0.35746,0.112223 0.51539,0.195351 0.0915,0.04434 0.17735,0.09421 0.2577,0.149632 0.0831,0.05542 0.16072,0.112223 0.23276,0.170413 0.0859,0.07205 0.16349,0.145474 0.23276,0.22029 0.0721,0.07481 0.13439,0.14686 0.18705,0.216133 0.0693,-0.09144 0.14685,-0.180111 0.23275,-0.26601 0.0582,-0.05542 0.11638,-0.108067 0.17457,-0.157944 0.002,-0.0028 0.007,-0.0069 0.0125,-0.01246 0.0914,-0.07481 0.18703,-0.142704 0.28679,-0.203665 0.13855,-0.08867 0.28264,-0.1621 0.43227,-0.22029 0.19397,-0.07481 0.3907,-0.121921 0.59021,-0.141318 z"
         id="pf--favorite" aria-label="❤️" sodipodi:nodetypes="scccssccccccsscscscccccscccccccccccccccccccccccccccccss"
         inkscape:label="fave-preset" />
      <path fill="#a6a6a6"
         d="m 18.000001,57.643316 3.546657,-9.29331 h 0.933331 l 3.546658,9.29331 H 24.74665 l -2.719993,-7.613314 -2.733326,7.613314 z m 1.973328,-2.186661 0.359999,-1.053331 h 3.359992 l 0.386665,1.053331 z m 9.98663,2.293327 q -0.733332,0 -1.306663,-0.266666 -0.559999,-0.266666 -0.946665,-0.733331 -0.386665,-0.479999 -0.586665,-1.093331 -0.199999,-0.613331 -0.199999,-1.306663 0,-0.679998 0.199999,-1.29333 0.2,-0.613332 0.586665,-1.079997 0.386666,-0.479999 0.946665,-0.746665 0.573331,-0.266666 1.306663,-0.266666 0.933331,0 1.626662,0.453332 0.706665,0.453332 1.039998,1.386663 l -0.999998,0.386666 q -0.186666,-0.559999 -0.599998,-0.906664 -0.413332,-0.346666 -1.066664,-0.346666 -0.653332,0 -1.079997,0.346666 -0.426666,0.346665 -0.639999,0.893331 -0.199999,0.546665 -0.199999,1.17333 0,0.626665 0.199999,1.186664 0.213333,0.546665 0.639999,0.893331 0.426665,0.333332 1.079997,0.333332 0.653332,0 1.066664,-0.333332 0.413332,-0.346666 0.599998,-0.919998 l 0.999998,0.386666 q -0.333333,0.933331 -1.039998,1.399996 -0.693331,0.453332 -1.626662,0.453332 z m 4.173317,-0.106666 v -6.573317 h 1.133331 v 1.759996 l -0.293333,0.06667 q 0.09333,-0.586665 0.439999,-1.01333 0.359999,-0.439999 0.826665,-0.679999 0.479999,-0.239999 0.933331,-0.239999 0.306666,0 0.586665,0.06667 0.279999,0.06667 0.573332,0.226667 l -0.559999,1.01333 q -0.159999,-0.08 -0.386666,-0.133333 -0.213332,-0.05333 -0.413332,-0.05333 -0.319999,0 -0.639998,0.12 -0.306666,0.119999 -0.559999,0.373332 -0.253332,0.253333 -0.386665,0.679998 -0.05333,0.186667 -0.09333,0.493333 -0.02667,0.293332 -0.02667,0.813331 v 3.079992 z m 6.079979,2.70666 1.25333,-3.026659 -2.559993,-6.253318 h 1.239997 l 1.919995,5.119987 1.933328,-5.119987 h 1.226664 l -3.786657,9.279977 z m 7.613315,-2.599994 q -0.599999,0 -0.973331,-0.373332 -0.373332,-0.373332 -0.373332,-1.186664 v -7.83998 h 1.119997 v 7.626648 q 0,0.386665 0.159999,0.559998 0.16,0.173333 0.426666,0.173333 0.12,0 0.266666,-0.02667 0.146666,-0.02667 0.306666,-0.08 v 0.959997 q -0.226666,0.09333 -0.479999,0.133333 -0.253333,0.05333 -0.453332,0.05333 z m 2.199985,-0.106666 v -6.573317 h 1.119998 v 6.573317 z m -0.106666,-7.75998 v -1.53333 h 1.33333 v 1.53333 z m 5.866651,7.866646 q -0.733332,0 -1.306663,-0.266666 -0.559999,-0.266666 -0.946665,-0.733331 -0.386665,-0.479999 -0.586665,-1.093331 -0.199999,-0.613331 -0.199999,-1.306663 0,-0.679998 0.199999,-1.29333 0.2,-0.613332 0.586665,-1.079997 0.386666,-0.479999 0.946665,-0.746665 0.573331,-0.266666 1.306663,-0.266666 0.933331,0 1.626662,0.453332 0.706665,0.453332 1.039998,1.386663 l -0.999998,0.386666 q -0.186666,-0.559999 -0.599998,-0.906664 -0.413332,-0.346666 -1.066664,-0.346666 -0.653332,0 -1.079997,0.346666 -0.426666,0.346665 -0.639999,0.893331 -0.199999,0.546665 -0.199999,1.17333 0,0.626665 0.199999,1.186664 0.213333,0.546665 0.639999,0.893331 0.426665,0.333332 1.079997,0.333332 0.653332,0 1.066664,-0.333332 0.413332,-0.346666 0.599998,-0.919998 l 0.999998,0.386666 q -0.333333,0.933331 -1.039998,1.399996 -0.693331,0.453332 -1.626662,0.453332 z m 10.373302,0 q -0.733331,0 -1.306663,-0.266666 -0.559999,-0.266666 -0.946664,-0.733331 -0.386666,-0.479999 -0.586665,-1.093331 -0.2,-0.613331 -0.2,-1.306663 0,-0.679998 0.2,-1.29333 0.199999,-0.613332 0.586665,-1.079997 0.386665,-0.479999 0.946664,-0.746665 0.573332,-0.266666 1.306663,-0.266666 0.933331,0 1.626663,0.453332 0.706665,0.453332 1.039997,1.386663 l -0.999997,0.386666 q -0.186666,-0.559999 -0.599999,-0.906664 -0.413332,-0.346666 -1.066664,-0.346666 -0.653331,0 -1.079997,0.346666 -0.426665,0.346665 -0.639998,0.893331 -0.2,0.546665 -0.2,1.17333 0,0.626665 0.2,1.186664 0.213333,0.546665 0.639998,0.893331 0.426666,0.333332 1.079997,0.333332 0.653332,0 1.066664,-0.333332 0.413333,-0.346666 0.599999,-0.919998 l 0.999997,0.386666 q -0.333332,0.933331 -1.039997,1.399996 -0.693332,0.453332 -1.626663,0.453332 z m 5.493317,0 q -0.599998,0 -0.973331,-0.373332 -0.373332,-0.373332 -0.373332,-1.186664 v -7.83998 h 1.119997 v 7.626648 q 0,0.386665 0.16,0.559998 0.159999,0.173333 0.426665,0.173333 0.12,0 0.266666,-0.02667 0.146667,-0.02667 0.306666,-0.08 v 0.959997 q -0.226666,0.09333 -0.479998,0.133333 -0.253333,0.05333 -0.453333,0.05333 z m 5.106647,0 q -0.919997,0 -1.653329,-0.426665 -0.719998,-0.439999 -1.13333,-1.21333 -0.413333,-0.773332 -0.413333,-1.759996 0,-0.986664 0.399999,-1.746662 0.413333,-0.773332 1.133331,-1.199997 0.733331,-0.439999 1.666662,-0.439999 0.933331,0 1.639996,0.439999 0.719998,0.426665 1.133331,1.199997 0.413332,0.759998 0.413332,1.746662 0,0.986664 -0.413332,1.759996 -0.413333,0.759998 -1.133331,1.199997 -0.719998,0.439998 -1.639996,0.439998 z m 0,-0.999997 q 0.626665,0 1.079998,-0.293333 0.466665,-0.306666 0.719998,-0.839998 0.253332,-0.546665 0.253332,-1.266663 0,-0.733331 -0.253332,-1.266663 -0.253333,-0.546666 -0.719998,-0.839998 -0.453333,-0.293333 -1.079998,-0.293333 -0.639998,0 -1.106664,0.306666 -0.466665,0.293333 -0.719998,0.826665 -0.253332,0.533332 -0.253332,1.266663 0,0.719998 0.253332,1.266663 0.253333,0.533332 0.719998,0.839998 0.466666,0.293333 1.106664,0.293333 z m 7.533307,0.999997 q -0.733332,0 -1.306664,-0.266666 -0.559998,-0.266666 -0.946664,-0.733331 -0.386666,-0.479999 -0.586665,-1.093331 -0.2,-0.613331 -0.2,-1.306663 0,-0.679998 0.2,-1.29333 0.199999,-0.613332 0.586665,-1.079997 0.386666,-0.479999 0.946664,-0.746665 0.573332,-0.266666 1.306664,-0.266666 0.933331,0 1.626662,0.453332 0.706665,0.453332 1.039998,1.386663 l -0.999998,0.386666 q -0.186666,-0.559999 -0.599998,-0.906664 -0.413333,-0.346666 -1.066664,-0.346666 -0.653332,0 -1.079998,0.346666 -0.426665,0.346665 -0.639998,0.893331 -0.199999,0.546665 -0.199999,1.17333 0,0.626665 0.199999,1.186664 0.213333,0.546665 0.639998,0.893331 0.426666,0.333332 1.079998,0.333332 0.653331,0 1.066664,-0.333332 0.413332,-0.346666 0.599998,-0.919998 l 0.999998,0.386666 q -0.333333,0.933331 -1.039998,1.399996 -0.693331,0.453332 -1.626662,0.453332 z m 8.653309,-0.106666 -2.186661,-3.386658 -1.293331,1.386663 v -1.45333 l 3.026659,-3.119992 h 1.45333 l -2.359994,2.426661 2.70666,4.146656 z m -4.479989,0 v -9.29331 h 1.13333 v 9.29331 z"
         id="ac--preset" aria-label="Acrylic clock" />
      <path fill="#b2b2b2"
         d="m 170.01561,57.803319 3.54665,-9.293313 h 0.93333 l 3.54666,9.293313 h -1.28 l -2.71999,-7.613317 -2.73332,7.613317 z m 1.97332,-2.18666 0.36,-1.05334 h 3.35999 l 0.38667,1.05334 z m 7.25331,2.18666 v -6.57332 h 1.13333 v 1.399996 l -0.26667,0.09333 q 0.18667,-0.506666 0.50667,-0.853332 0.32,-0.359999 0.77333,-0.546665 0.45333,-0.199999 1,-0.199999 1.07999,0 1.69332,0.639998 0.61334,0.626665 0.61334,1.866662 v 4.17333 h -1.13333 v -3.759998 q 0,-0.999997 -0.37334,-1.466663 -0.36,-0.479999 -1.10666,-0.479999 -0.54667,0 -0.93333,0.253333 -0.37333,0.253333 -0.57333,0.799998 -0.2,0.533332 -0.2,1.373339 v 3.27999 z m 10.18665,0.10666 q -0.92,0 -1.65333,-0.42666 -0.72,-0.44 -1.13333,-1.21333 -0.41333,-0.77333 -0.41333,-1.76 0,-0.986662 0.4,-1.746661 0.41333,-0.773331 1.13333,-1.199997 0.73333,-0.439998 1.66666,-0.439998 0.93333,0 1.64,0.439998 0.71999,0.426666 1.13333,1.199997 0.41333,0.759999 0.41333,1.746661 0,0.98667 -0.41333,1.76 -0.41334,0.76 -1.13333,1.19999 -0.72,0.44 -1.64,0.44 z m 0,-0.99999 q 0.62666,0 1.08,-0.29334 0.46666,-0.30666 0.71999,-0.83999 0.25334,-0.54667 0.25334,-1.26667 0,-0.73333 -0.25334,-1.266662 -0.25333,-0.546665 -0.71999,-0.839998 -0.45334,-0.293332 -1.08,-0.293332 -0.64,0 -1.10666,0.306666 -0.46667,0.293332 -0.72,0.826664 -0.25334,0.533332 -0.25334,1.266662 0,0.72 0.25334,1.26667 0.25333,0.53333 0.72,0.83999 0.46666,0.29334 1.10666,0.29334 z m 6.83998,0.99999 q -0.46666,0 -0.85333,-0.17333 -0.37333,-0.18667 -0.58666,-0.58666 -0.21334,-0.4 -0.21334,-1.02667 v -6.653316 l 1.14667,-0.639998 v 6.999984 q 0,0.54666 0.17333,0.85333 0.17333,0.29333 0.62667,0.29333 0.13333,0 0.31999,-0.0267 0.18667,-0.04 0.4,-0.0933 v 0.88 q -0.25333,0.0933 -0.52,0.13333 -0.25333,0.04 -0.49333,0.04 z m -3.01332,-5.799982 v -0.879998 h 4.02665 v 0.879998 z m 5.43999,5.693322 v -9.293313 h 1.13333 v 4.119989 l -0.28,0.106667 q 0.18667,-0.506666 0.52,-0.866665 0.33333,-0.359999 0.78667,-0.546665 0.45333,-0.199999 0.98666,-0.199999 1.08,0 1.69333,0.639998 0.61333,0.626665 0.61333,1.866662 v 4.173326 h -1.13333 v -3.759994 q 0,-0.999997 -0.37333,-1.466663 -0.36,-0.479999 -1.10666,-0.479999 -0.81334,0 -1.26667,0.586666 -0.44,0.573332 -0.44,1.84 v 3.27999 z m 10.06666,0.10666 q -0.77334,0 -1.36,-0.25333 -0.57333,-0.26667 -0.96,-0.73333 -0.37333,-0.46667 -0.57333,-1.06667 -0.18667,-0.61333 -0.18667,-1.29333 0,-0.679993 0.18667,-1.293325 0.18667,-0.626665 0.54667,-1.106664 0.37333,-0.479999 0.93333,-0.759998 0.55999,-0.279999 1.30666,-0.279999 0.76,0 1.30666,0.266666 0.56,0.253332 0.90667,0.706664 0.36,0.453333 0.53333,1.013331 0.17333,0.559999 0.17333,1.159995 0,0.0533 -0.0133,0.25334 0,0.18666 -0.0267,0.33333 h -4.73332 q 0.04,0.96 0.56,1.49333 0.52,0.53333 1.41333,0.53333 0.57333,0 1,-0.18667 0.42666,-0.18666 0.79999,-0.6 l 0.78667,0.69334 q -0.36,0.38666 -0.76,0.63999 -0.4,0.24 -0.85333,0.36 -0.44,0.12 -0.98666,0.12 z m 1.69333,-3.62665 q 0.0267,-0.10667 0.0267,-0.213337 0.0133,-0.106667 0.0133,-0.213333 0,-0.319999 -0.12,-0.639998 -0.10667,-0.32 -0.33334,-0.573332 -0.21333,-0.266666 -0.55999,-0.413333 -0.33334,-0.159999 -0.8,-0.159999 -0.57333,0 -0.98667,0.266666 -0.41333,0.266666 -0.64,0.706665 -0.22666,0.439999 -0.26666,0.973331 h 4.03999 z m 2.73333,3.51999 v -6.57332 h 1.13333 v 1.759996 l -0.29333,0.06667 q 0.0933,-0.586665 0.44,-1.013331 0.36,-0.439999 0.82666,-0.679998 0.48,-0.239999 0.93334,-0.239999 0.30666,0 0.58666,0.06667 0.28,0.06667 0.57333,0.226666 l -0.56,1.013331 q -0.16,-0.08 -0.38666,-0.133333 -0.21333,-0.05333 -0.41333,-0.05333 -0.32,0 -0.64,0.119999 -0.30667,0.12 -0.56,0.373333 -0.25333,0.253333 -0.38667,0.679998 -0.0533,0.186666 -0.0933,0.493332 -0.0267,0.293336 -0.0267,0.813326 v 3.08 z m 8.98665,0 v -9.293313 h 2.97332 q 1.32,0 2.06666,0.613332 0.76,0.613331 0.76,1.706662 0,0.693332 -0.30666,1.21333 -0.30667,0.519999 -0.86667,0.786665 0.81333,0.226666 1.22667,0.826665 0.42666,0.599999 0.42666,1.519999 0,1.25333 -0.78666,1.94666 -0.77334,0.68 -2.2,0.68 z m 1.17333,-1.08 h 2.03999 q 1.90666,0 1.90666,-1.6 0,-0.75999 -0.44,-1.173327 -0.42666,-0.426665 -1.21333,-0.426665 h -2.29332 z m 0,-4.253323 h 1.98666 q 0.66666,0 1.06666,-0.386666 0.41333,-0.399999 0.41333,-1.079997 0,-0.666665 -0.43999,-1.039997 -0.44,-0.373333 -1.22667,-0.373333 h -1.79999 z m 6.73331,5.333323 v -6.57332 h 1.12 v 6.57332 z m -0.10667,-7.759984 v -1.533329 h 1.33333 v 1.533329 z m 5.78665,10.599974 q -1.41333,0 -2.23999,-0.52 -0.82666,-0.52 -0.82666,-1.44 0,-0.0667 0,-0.17333 0.0133,-0.10666 0.04,-0.2 l 1.63999,-1.18666 0.38667,0.26666 -0.93333,1.16 q -0.0133,0.0533 -0.0133,0.0933 0,0.04 0,0.08 0,0.53334 0.55999,0.78667 0.56,0.26667 1.38667,0.26667 0.73333,0 1.21333,-0.21334 0.48,-0.2 0.48,-0.66666 0,-0.26667 -0.16,-0.44 -0.14667,-0.16 -0.44,-0.25333 -0.28,-0.0933 -0.66667,-0.16 -0.38666,-0.0667 -0.86666,-0.13334 -0.6,-0.0933 -1.17333,-0.26666 -0.56,-0.17334 -0.93333,-0.50667 -0.36,-0.33333 -0.36,-0.88 0,-0.46666 0.32,-0.85333 0.33333,-0.38666 0.86666,-0.64 l 0.72,0.46667 q -0.45333,0.10667 -0.64,0.33333 -0.18666,0.21334 -0.18666,0.52 0,0.25333 0.17333,0.41333 0.18666,0.16 0.52,0.25334 0.34666,0.08 0.82666,0.14666 0.64,0.0933 1.2,0.2 0.56,0.10667 0.98666,0.30667 0.44,0.18666 0.68,0.50666 0.24,0.33334 0.24,0.85333 0,0.90667 -0.74666,1.38667 -0.74667,0.49333 -2.05333,0.49333 z m -0.16,-4.89332 q -0.75999,0 -1.34666,-0.29333 -0.58666,-0.29334 -0.92,-0.81334 -0.32,-0.519994 -0.32,-1.186659 0,-0.693332 0.33334,-1.21333 0.34666,-0.533332 0.91999,-0.826665 0.58667,-0.293332 1.29333,-0.293332 0.69334,0 1.26667,0.293332 0.57333,0.293333 0.92,0.826665 0.34666,0.533332 0.34666,1.25333 0,0.679999 -0.32,1.186659 -0.32,0.50667 -0.88,0.78667 -0.55999,0.28 -1.29333,0.28 z m -0.0267,-0.92 q 0.66667,0 1.02667,-0.4 0.37333,-0.41333 0.37333,-0.999996 0,-0.626665 -0.38667,-1.01333 -0.38666,-0.386666 -1.01333,-0.386666 -0.63999,0 -1.03999,0.399999 -0.4,0.386666 -0.4,0.986664 0,0.599999 0.38666,1.013329 0.38667,0.4 1.05333,0.4 z m 2.09333,-2.373326 -0.81333,-0.546666 1.38666,-1.146663 0.57334,0.706664 z m 9.75998,5.506656 q -1.28,0 -2.25333,-0.6 -0.95999,-0.6 -1.50666,-1.68 -0.53333,-1.08 -0.53333,-2.519992 0,-1.453329 0.53333,-2.533326 0.54667,-1.079998 1.50666,-1.679996 0.97333,-0.599999 2.25333,-0.599999 1.30666,0 2.27999,0.599999 0.97334,0.599998 1.50666,1.679996 0.54667,1.079997 0.54667,2.533326 0,1.439992 -0.54667,2.519992 -0.54666,1.08 -1.51999,1.68 -0.97333,0.6 -2.26666,0.6 z m 0,-1.12 q 0.97333,0 1.66666,-0.45333 0.70667,-0.45334 1.09333,-1.28 0.38667,-0.82666 0.38667,-1.946662 0,-1.13333 -0.38667,-1.959995 -0.38666,-0.826664 -1.09333,-1.279996 -0.69333,-0.453333 -1.66666,-0.453333 -0.94666,0 -1.65333,0.453333 -0.70666,0.439999 -1.09333,1.266663 -0.37333,0.826665 -0.37333,1.973328 0,1.133332 0.37333,1.959992 0.38667,0.82667 1.09333,1.28 0.70667,0.44 1.65333,0.44 z m 5.9733,0.96 v -6.57332 h 1.13333 v 1.399996 l -0.26666,0.09333 q 0.18666,-0.506666 0.50666,-0.853332 0.32,-0.359999 0.77333,-0.546665 0.45334,-0.199999 1,-0.199999 1.08,0 1.69333,0.639998 0.61333,0.626665 0.61333,1.866662 v 4.17333 h -1.13333 v -3.759998 q 0,-0.999997 -0.37333,-1.466663 -0.36,-0.479999 -1.10666,-0.479999 -0.54667,0 -0.93334,0.253333 -0.37333,0.253333 -0.57333,0.799998 -0.2,0.533332 -0.2,1.373339 v 3.27999 z m 10.06666,0.10666 q -0.77333,0 -1.36,-0.25333 -0.57333,-0.26667 -0.96,-0.73333 -0.37333,-0.46667 -0.57333,-1.06667 -0.18667,-0.61333 -0.18667,-1.29333 0,-0.679993 0.18667,-1.293325 0.18667,-0.626665 0.54667,-1.106664 0.37333,-0.479999 0.93333,-0.759998 0.56,-0.279999 1.30666,-0.279999 0.76,0 1.30666,0.266666 0.56,0.253332 0.90667,0.706664 0.36,0.453333 0.53333,1.013331 0.17333,0.559999 0.17333,1.159995 0,0.0533 -0.0133,0.25334 0,0.18666 -0.0267,0.33333 h -4.73332 q 0.04,0.96 0.56,1.49333 0.52,0.53333 1.41333,0.53333 0.57333,0 1,-0.18667 0.42666,-0.18666 0.8,-0.6 l 0.78666,0.69334 q -0.36,0.38666 -0.76,0.63999 -0.4,0.24 -0.85333,0.36 -0.44,0.12 -0.98666,0.12 z m 1.69333,-3.62665 q 0.0267,-0.10667 0.0267,-0.213337 0.0133,-0.106667 0.0133,-0.213333 0,-0.319999 -0.12,-0.639998 -0.10667,-0.32 -0.33334,-0.573332 -0.21333,-0.266666 -0.56,-0.413333 -0.33333,-0.159999 -0.79999,-0.159999 -0.57333,0 -0.98667,0.266666 -0.41333,0.266666 -0.64,0.706665 -0.22666,0.439999 -0.26666,0.973331 h 4.03999 z"
         id="abo--preset-selected" aria-label="Another Big One" />
      <g id="g6" inkscape:label="preset-advance" transform="translate(-76)">
         <path
            style="font-size:12px;line-height:1.25;font-family:'Hanken Grotesk';-inkscape-font-specification:'Hanken Grotesk';text-align:center;text-anchor:middle;fill:#d9d9d9"
            d="m 396.49399,127.53877 v -8.364 h 1.008 v 1.764 l -0.324,-0.228 q 0.156,-0.516 0.456,-0.876 0.312,-0.372 0.756,-0.564 0.444,-0.192 1.008,-0.192 0.804,0 1.404,0.408 0.612,0.396 0.948,1.092 0.336,0.684 0.336,1.56 0,0.924 -0.36,1.62 -0.36,0.684 -0.972,1.056 -0.612,0.372 -1.356,0.372 -0.564,0 -1.008,-0.204 -0.444,-0.204 -0.744,-0.564 -0.3,-0.36 -0.432,-0.816 l 0.288,-0.276 v 4.212 z m 2.736,-3.276 q 0.54,0 0.948,-0.264 0.42,-0.276 0.648,-0.756 0.24,-0.48 0.24,-1.104 0,-0.624 -0.24,-1.104 -0.228,-0.48 -0.648,-0.744 -0.408,-0.276 -0.948,-0.276 -0.54,0 -0.948,0.276 -0.408,0.264 -0.636,0.744 -0.228,0.48 -0.228,1.104 0,0.624 0.228,1.104 0.228,0.48 0.636,0.756 0.408,0.264 0.948,0.264 z m 4.308,0.828 v -5.916 h 1.02 v 1.584 l -0.264,0.06 q 0.084,-0.528 0.396,-0.912 0.324,-0.396 0.744,-0.612 0.432,-0.216 0.84,-0.216 0.276,0 0.528,0.06 0.252,0.06 0.516,0.204 l -0.504,0.912 q -0.144,-0.072 -0.348,-0.12 -0.192,-0.048 -0.372,-0.048 -0.288,0 -0.576,0.108 -0.276,0.108 -0.504,0.336 -0.228,0.228 -0.348,0.612 -0.048,0.168 -0.084,0.444 -0.024,0.264 -0.024,0.732 v 2.772 z m 7.044,0.096 q -0.696,0 -1.224,-0.228 -0.516,-0.24 -0.864,-0.66 -0.336,-0.42 -0.516,-0.96 -0.168,-0.552 -0.168,-1.164 0,-0.612 0.168,-1.164 0.168,-0.564 0.492,-0.996 0.336,-0.432 0.84,-0.684 0.504,-0.252 1.176,-0.252 0.684,0 1.176,0.24 0.504,0.228 0.816,0.636 0.324,0.408 0.48,0.912 0.156,0.504 0.156,1.044 0,0.048 -0.012,0.228 0,0.168 -0.024,0.3 h -4.26 q 0.036,0.864 0.504,1.344 0.468,0.48 1.272,0.48 0.516,0 0.9,-0.168 0.384,-0.168 0.72,-0.54 l 0.708,0.624 q -0.324,0.348 -0.684,0.576 -0.36,0.216 -0.768,0.324 -0.396,0.108 -0.888,0.108 z m 1.524,-3.264 q 0.024,-0.096 0.024,-0.192 0.012,-0.096 0.012,-0.192 0,-0.288 -0.108,-0.576 -0.096,-0.288 -0.3,-0.516 -0.192,-0.24 -0.504,-0.372 -0.3,-0.144 -0.72,-0.144 -0.516,0 -0.888,0.24 -0.372,0.24 -0.576,0.636 -0.204,0.396 -0.24,0.876 h 3.636 z m 4.41601,3.264 q -0.6,0 -1.08,-0.18 -0.48,-0.18 -0.828,-0.48 -0.336,-0.3 -0.54,-0.636 l 0.708,-0.6 q 0.228,0.456 0.672,0.756 0.456,0.288 1.08,0.288 0.564,0 0.9,-0.24 0.336,-0.24 0.336,-0.648 0,-0.336 -0.204,-0.528 -0.204,-0.192 -0.54,-0.312 -0.336,-0.12 -0.732,-0.216 -0.336,-0.084 -0.684,-0.204 -0.336,-0.12 -0.612,-0.3 -0.276,-0.18 -0.444,-0.468 -0.168,-0.288 -0.168,-0.708 0,-0.732 0.564,-1.176 0.576,-0.456 1.5,-0.456 0.672,0 1.224,0.288 0.564,0.276 0.876,0.84 l -0.648,0.48 q -0.24,-0.42 -0.636,-0.6 -0.384,-0.192 -0.852,-0.192 -0.468,0 -0.78,0.192 -0.312,0.192 -0.312,0.528 0,0.252 0.144,0.408 0.144,0.156 0.42,0.264 0.288,0.108 0.696,0.204 0.372,0.084 0.756,0.204 0.384,0.12 0.708,0.312 0.324,0.192 0.516,0.516 0.204,0.312 0.204,0.816 0,0.552 -0.276,0.972 -0.276,0.42 -0.78,0.648 -0.504,0.228 -1.188,0.228 z m 6.17999,0 q -0.696,0 -1.224,-0.228 -0.516,-0.24 -0.864,-0.66 -0.336,-0.42 -0.516,-0.96 -0.168,-0.552 -0.168,-1.164 0,-0.612 0.168,-1.164 0.168,-0.564 0.492,-0.996 0.336,-0.432 0.84,-0.684 0.504,-0.252 1.176,-0.252 0.684,0 1.176,0.24 0.504,0.228 0.816,0.636 0.324,0.408 0.48,0.912 0.156,0.504 0.156,1.044 0,0.048 -0.012,0.228 0,0.168 -0.024,0.3 h -4.26 q 0.036,0.864 0.504,1.344 0.468,0.48 1.272,0.48 0.516,0 0.9,-0.168 0.384,-0.168 0.72,-0.54 l 0.708,0.624 q -0.324,0.348 -0.684,0.576 -0.36,0.216 -0.768,0.324 -0.396,0.108 -0.888,0.108 z m 1.524,-3.264 q 0.024,-0.096 0.024,-0.192 0.012,-0.096 0.012,-0.192 0,-0.288 -0.108,-0.576 -0.096,-0.288 -0.3,-0.516 -0.192,-0.24 -0.504,-0.372 -0.3,-0.144 -0.72,-0.144 -0.516,0 -0.888,0.24 -0.372,0.24 -0.576,0.636 -0.204,0.396 -0.24,0.876 h 3.636 z m 4.36802,3.264 q -0.42,0 -0.768,-0.156 -0.336,-0.168 -0.528,-0.528 -0.192,-0.36 -0.192,-0.924 v -5.988 l 1.032,-0.576 v 6.3 q 0,0.492 0.156,0.768 0.156,0.264 0.564,0.264 0.12,0 0.288,-0.024 0.168,-0.036 0.36,-0.084 v 0.792 q -0.228,0.084 -0.468,0.12 -0.228,0.036 -0.444,0.036 z m -2.712,-5.22 v -0.792 h 3.624 v 0.792 z"
            id="preset--ctl-label" aria-label="preset" inkscape:label="preset" />
         <g id="g4" transform="translate(2)" inkscape:label="preset-ctls">
            <g id="g1" transform="translate(-3.6)" inkscape:label="preset-plus">
               <path
                  style="font-weight:600;font-size:18.6667px;line-height:1.25;font-family:'Hanken Grotesk';-inkscape-font-specification:'Hanken Grotesk Semi-Bold';text-align:center;text-anchor:middle;fill:#d9d9d9"
                  d="m 422.79333,109.67899 v -3.71468 h -3.696 v -1.624 h 3.696 v -3.69601 h 1.64267 v 3.69601 h 3.71468 v 1.624 H 424.436 v 3.71468 z"
                  id="pp--ctl-glyph" aria-label="-  +" sodipodi:nodetypes="ccccccccccccc" />
               <rect
                  style="fill:none;fill-opacity:1;stroke:#808080;stroke-width:0.925085;stroke-dasharray:none;stroke-opacity:1"
                  id="pp--ctl-frame" width="15.074915" height="15.074915" x="416.08655" y="97.624191" />
            </g>
            <g id="g3" transform="translate(-0.6)" inkscape:label="preset-minus">
               <rect
                  style="fill:none;fill-opacity:1;stroke:#808080;stroke-width:0.925085;stroke-dasharray:none;stroke-opacity:1"
                  id="pn--ctl-frame" width="15.074915" height="15.074915" x="395.08655" y="97.624191" />
               <path fill="#d9d9d9" d="m 398.09733,105.97365 v -1.624 h 9.05335 v 1.624 z" id="pn--ctl-glyph"
                  aria-label="-  +" sodipodi:nodetypes="ccccc" />
            </g>
         </g>
      </g>
      <g id="g32" inkscape:label="prev-next-cv" transform="translate(-76)">
         <g id="g78" transform="translate(-8.8593874,-2.650009)">
            <g id="g59" transform="translate(126,219.5)" inkscape:label="port-next">
               <circle style="fill:none;stroke:#595959;stroke-width:2;stroke-dasharray:none;stroke-opacity:1"
                  id="circle58" cx="303.76105" cy="138.5" r="8" />
               <circle
                  style="fill:#2e2e2e;fill-opacity:1;stroke:#4095bf;stroke-width:1.75;stroke-dasharray:none;stroke-opacity:1"
                  id="circle59" cx="303.76105" cy="138.5" r="6" />
            </g>
            <path
               style="font-weight:600;font-size:18.6667px;line-height:1.25;font-family:'Hanken Grotesk';-inkscape-font-specification:'Hanken Grotesk Semi-Bold';text-align:center;text-anchor:middle;fill:#808080;fill-opacity:1"
               d="m 429.02871,347.77879 v -3.71468 h -3.696 v -1.624 h 3.696 v -3.69601 h 1.64267 v 3.69601 h 3.71468 v 1.624 h -3.71468 v 3.71468 z"
               id="cvNext--ctl-glyph" aria-label="-  +" sodipodi:nodetypes="ccccccccccccc" inkscape:label="Next" />
         </g>
         <g id="g77" transform="translate(-8.86,-2.65)">
            <g id="g509" transform="translate(106.09834,219.5)" inkscape:label="port-prev">
               <circle style="fill:none;stroke:#595959;stroke-width:2;stroke-dasharray:none;stroke-opacity:1"
                  id="circle508" cx="303.76105" cy="138.5" r="8" />
               <circle
                  style="fill:#2e2e2e;fill-opacity:1;stroke:#4095bf;stroke-width:1.75;stroke-dasharray:none;stroke-opacity:1"
                  id="circle509" cx="303.76105" cy="138.5" r="6" />
            </g>
            <path fill="#808080" d="m 405.33271,344.06411 v -1.624 h 9.05335 v 1.624 z" id="cvPrev--ctl-glyph"
               aria-label="-  +" sodipodi:nodetypes="ccccc" inkscape:label="cvPrev" />
         </g>
      </g>
      <path fill="#d4a011"
         d="M 24,18.669292 28.256,7.5172921 h 1.12 l 4.256,11.1519999 h -1.536 l -3.264,-9.1359999 -3.28,9.1359999 z m 2.368,-2.624 0.432,-1.264 h 4.032 l 0.464,1.264 z m 8.703986,2.624 v -7.888 h 1.36 v 1.68 l -0.32,0.112 q 0.224,-0.608 0.608,-1.024 0.384,-0.432 0.928,-0.656 0.544,-0.24 1.2,-0.24 1.296,0 2.032,0.768 0.736,0.752 0.736,2.24 v 5.008 h -1.36 v -4.512 q 0,-1.2 -0.448,-1.76 -0.432,-0.576 -1.328,-0.576 -0.656,0 -1.12,0.304 -0.448,0.304 -0.688,0.96 -0.24,0.64 -0.24,1.648 v 3.936 z m 12.224015,0.128 q -1.104,0 -1.984,-0.512 -0.864,-0.528 -1.36,-1.456 -0.496,-0.928 -0.496,-2.112 0,-1.184 0.48,-2.096 0.496,-0.928 1.36,-1.44 0.88,-0.528 2,-0.528 1.12,0 1.968,0.528 0.864,0.512 1.36,1.44 0.496,0.912 0.496,2.096 0,1.184 -0.496,2.112 -0.496,0.912 -1.36,1.44 -0.864,0.528 -1.968,0.528 z m 0,-1.2 q 0.752,0 1.296,-0.352 0.56,-0.368 0.864,-1.008 0.304,-0.656 0.304,-1.52 0,-0.88 -0.304,-1.52 -0.304,-0.656 -0.864,-1.008 -0.544,-0.352 -1.296,-0.352 -0.768,0 -1.328,0.368 -0.56,0.352 -0.864,0.992 -0.304,0.64 -0.304,1.52 0,0.864 0.304,1.52 0.304,0.64 0.864,1.008 0.56,0.352 1.328,0.352 z m 8.207999,1.2 q -0.56,0 -1.024,-0.208 -0.448,-0.224 -0.704,-0.704 -0.256,-0.48 -0.256,-1.232 V 8.6692921 l 1.376,-0.768 v 8.3999999 q 0,0.656 0.208,1.024 0.208,0.352 0.752,0.352 0.16,0 0.384,-0.032 0.224,-0.048 0.48,-0.112 v 1.056 q -0.304,0.112 -0.624,0.16 -0.304,0.048 -0.592,0.048 z m -3.616,-6.96 v -1.056 h 4.832 v 1.056 z m 6.528011,6.832 V 7.5172921 h 1.36 v 4.9439999 l -0.336,0.128 q 0.224,-0.608 0.624,-1.04 0.4,-0.432 0.944,-0.656 0.544,-0.24 1.184,-0.24 1.296001,0 2.032001,0.768 0.736,0.752 0.736,2.24 v 5.008 h -1.36 v -4.512 q 0,-1.2 -0.448,-1.76 -0.432001,-0.576 -1.328001,-0.576 -0.976,0 -1.52,0.704 -0.528,0.688 -0.528,2.208 v 3.936 z m 12.080011,0.128 q -0.928,0 -1.632,-0.304 -0.688,-0.32 -1.152,-0.88 -0.448,-0.56 -0.688,-1.28 -0.224,-0.736 -0.224,-1.552 0,-0.816 0.224,-1.552 0.224,-0.752 0.656,-1.328 0.448,-0.576 1.12,-0.912 0.672,-0.336 1.568,-0.336 0.912,0 1.568,0.32 0.672,0.304 1.088,0.848 0.432,0.544 0.64,1.216 0.208,0.672 0.208,1.392 0,0.064 -0.016,0.304 0,0.224 -0.032,0.4 h -5.68 q 0.048,1.152 0.672,1.792 0.624,0.64 1.696,0.64 0.688,0 1.2,-0.224 0.512,-0.224 0.96,-0.72 l 0.944,0.832 q -0.432,0.464 -0.912,0.768 -0.48,0.288 -1.024,0.432 -0.528,0.144 -1.184,0.144 z m 2.032,-4.352 q 0.032,-0.128 0.032,-0.256 0.016,-0.128 0.016,-0.256 0,-0.384 -0.144,-0.768 -0.128,-0.384 -0.4,-0.688 -0.256,-0.32 -0.672,-0.496 -0.4,-0.192 -0.96,-0.192 -0.688,0 -1.184,0.32 -0.496,0.32 -0.768,0.848 -0.272,0.528 -0.32,1.168 h 4.848 z m 3.28002,4.224 v -7.888 h 1.36 v 2.112 l -0.352,0.08 q 0.112,-0.704 0.528,-1.216 0.432,-0.528 0.992,-0.816 0.576,-0.288 1.12,-0.288 0.368,0 0.704,0.08 0.336,0.08 0.688,0.272 l -0.672,1.216 q -0.192,-0.096 -0.464,-0.16 -0.256,-0.064 -0.496,-0.064 -0.384,0 -0.768,0.144 -0.368,0.144 -0.672,0.448 -0.304,0.304 -0.464,0.816 -0.064,0.224 -0.112,0.592 -0.032,0.352 -0.032,0.976 v 3.696 z m 10.783987,0 V 7.5172921 h 3.568 q 1.584,0 2.48,0.736 0.912,0.736 0.912,2.0479999 0,0.832 -0.368,1.456 -0.368,0.624 -1.04,0.944 0.976,0.272 1.472,0.992 0.512,0.72 0.512,1.824 0,1.504 -0.944,2.336 -0.928,0.816 -2.64,0.816 z m 1.408,-1.296 h 2.448 q 2.288,0 2.288,-1.92 0,-0.912 -0.528,-1.408 -0.512,-0.512 -1.456,-0.512 h -2.752 z m 0,-5.104 h 2.384 q 0.8,0 1.28,-0.464 0.496,-0.48 0.496,-1.296 0,-0.7999999 -0.528,-1.2479999 -0.528,-0.448 -1.472,-0.448 h -2.16 z m 8.08,6.4 v -7.888 h 1.344 v 7.888 z m -0.128,-9.3119999 v -1.84 h 1.6 v 1.84 z m 6.944001,12.7199999 q -1.696,0 -2.688,-0.624 -0.992001,-0.624 -0.992001,-1.728 0,-0.08 0,-0.208 0.016,-0.128 0.048,-0.24 l 1.968001,-1.424 0.464,0.32 -1.12,1.392 q -0.016,0.064 -0.016,0.112 0,0.048 0,0.096 0,0.64 0.672,0.944 0.672,0.32 1.664,0.32 0.88,0 1.456,-0.256 0.576,-0.24 0.576,-0.8 0,-0.32 -0.192,-0.528 -0.176,-0.192 -0.528,-0.304 -0.336,-0.112 -0.8,-0.192 -0.464,-0.08 -1.04,-0.16 -0.72,-0.112 -1.408,-0.32 -0.672,-0.208 -1.12,-0.608 -0.432001,-0.4 -0.432001,-1.056 0,-0.56 0.384001,-1.024 0.4,-0.464 1.04,-0.768 l 0.864,0.56 q -0.544,0.128 -0.768,0.4 -0.224,0.256 -0.224,0.624 0,0.304 0.208,0.496 0.224,0.192 0.624,0.304 0.416,0.096 0.992,0.176 0.768,0.112 1.44,0.24 0.672,0.128 1.184,0.368 0.528,0.224 0.816,0.608 0.288,0.4 0.288,1.024 0,1.088 -0.896,1.664 -0.896,0.592 -2.464,0.592 z m -0.192,-5.872 q -0.912,0 -1.616,-0.352 -0.704,-0.352 -1.104,-0.976 -0.384001,-0.624 -0.384001,-1.424 0,-0.832 0.400001,-1.456 0.416,-0.64 1.104,-0.992 0.704,-0.352 1.552,-0.352 0.832,0 1.52,0.352 0.688,0.352 1.104,0.992 0.416,0.64 0.416,1.504 0,0.816 -0.384,1.424 -0.384,0.608 -1.056,0.944 -0.672,0.336 -1.552,0.336 z m -0.032,-1.104 q 0.8,0 1.232,-0.48 0.448,-0.496 0.448,-1.2 0,-0.752 -0.464,-1.216 -0.464,-0.464 -1.216,-0.464 -0.768,0 -1.248,0.48 -0.48,0.464 -0.48,1.184 0,0.72 0.464,1.216 0.464,0.48 1.264,0.48 z m 2.512,-2.848 -0.976,-0.656 1.664,-1.376 0.688,0.848 z m 11.712,6.608 q -1.536,0 -2.704,-0.72 -1.152,-0.72 -1.808,-2.016 -0.64,-1.296 -0.64,-3.024 0,-1.744 0.64,-3.04 0.656,-1.2959999 1.808,-2.0159999 1.168,-0.72 2.704,-0.72 1.568,0 2.736,0.72 1.168,0.72 1.808,2.0159999 0.656,1.296 0.656,3.04 0,1.728 -0.656,3.024 -0.656,1.296 -1.824,2.016 -1.168,0.72 -2.72,0.72 z m 0,-1.344 q 1.168,0 2,-0.544 0.848,-0.544 1.312,-1.536 0.464,-0.992 0.464,-2.336 0,-1.36 -0.464,-2.352 -0.464,-0.9919999 -1.312,-1.5359999 -0.832,-0.544 -2,-0.544 -1.136,0 -1.984,0.544 -0.848,0.528 -1.312,1.5199999 -0.448,0.992 -0.448,2.368 0,1.36 0.448,2.352 0.464,0.992 1.312,1.536 0.848,0.528 1.984,0.528 z m 7.16799,1.152 v -7.888 h 1.36 v 1.68 l -0.32,0.112 q 0.224,-0.608 0.608,-1.024 0.384,-0.432 0.928,-0.656 0.544,-0.24 1.2,-0.24 1.296,0 2.032,0.768 0.736,0.752 0.736,2.24 v 5.008 h -1.36 v -4.512 q 0,-1.2 -0.448,-1.76 -0.432,-0.576 -1.328,-0.576 -0.656,0 -1.12,0.304 -0.448,0.304 -0.688,0.96 -0.24,0.64 -0.24,1.648 v 3.936 z m 12.08001,0.128 q -0.928,0 -1.632,-0.304 -0.688,-0.32 -1.152,-0.88 -0.448,-0.56 -0.688,-1.28 -0.224,-0.736 -0.224,-1.552 0,-0.816 0.224,-1.552 0.224,-0.752 0.656,-1.328 0.448,-0.576 1.12,-0.912 0.672,-0.336 1.568,-0.336 0.912,0 1.568,0.32 0.672,0.304 1.088,0.848 0.432,0.544 0.64,1.216 0.208,0.672 0.208,1.392 0,0.064 -0.016,0.304 0,0.224 -0.032,0.4 h -5.68 q 0.048,1.152 0.672,1.792 0.624,0.64 1.696,0.64 0.688,0 1.2,-0.224 0.512,-0.224 0.96,-0.72 l 0.944,0.832 q -0.432,0.464 -0.912,0.768 -0.48,0.288 -1.024,0.432 -0.528,0.144 -1.184,0.144 z m 2.032,-4.352 q 0.032,-0.128 0.032,-0.256 0.016,-0.128 0.016,-0.256 0,-0.384 -0.144,-0.768 -0.128,-0.384 -0.4,-0.688 -0.256,-0.32 -0.672,-0.496 -0.4,-0.192 -0.96,-0.192 -0.688,0 -1.184,0.32 -0.496,0.32 -0.768,0.848 -0.272,0.528 -0.32,1.168 h 4.848 z"
         id="curpreset" aria-label="Another Big One" />
      <path id="search--ctl-frame" fill="none" stroke="#808080" stroke-width="1.5"
         d="m 11.945318,6.9364645 a 5,5 0 0 0 -5,5.0000005 5,5 0 0 0 5,4.999999 5,5 0 0 0 5,-4.999999 5,5 0 0 0 -5,-5.0000005 z m 3.38,8.6999995 4.39,4.38 z"
         inkscape:label="search" />
      <g id="g69" transform="matrix(1.32,0,0,1,84.26,-2.82)" inkscape:label="sys-menu">
         <path
            d="m 165.248,38.670009 h 6 v 1.5 h -6 z m 0,-2.611478 h 6 v 1.5 h -6 z m 0.0437,-2.611477 h 6 v 1.5 h -6 z"
            fill="#8c8c8c" id="sys-menu--menu" sodipodi:nodetypes="ccccc" />
      </g>
      <g id="g75" transform="matrix(1.3236968,0,0,1,-65.244116,-2.8247168)" inkscape:label="user-menu">
         <path
            d="m 165.248,38.670009 h 6 v 1.5 h -6 z m 0,-2.611478 h 6 v 1.5 h -6 z m 0.0437,-2.611477 h 6 v 1.5 h -6 z"
            fill="#8c8c8c" id="user-menu--menu" sodipodi:nodetypes="ccccc" />
      </g>
      <path id="picker--ctl-frame" fill="none" stroke="#8c8c8c" stroke-width="1.25"
         d="m 17.779297,369.88281 a 2.3185881,2.4168122 0 0 0 -2.318359,2.41797 2.3185881,2.4168122 0 0 0 2.318359,2.41602 2.3185881,2.4168122 0 0 0 2.320312,-2.41602 2.3185881,2.4168122 0 0 0 -2.320312,-2.41797 z m 4.695312,0 a 2.3185881,2.4168122 0 0 0 -2.318359,2.41797 2.3185881,2.4168122 0 0 0 2.318359,2.41602 2.3185881,2.4168122 0 0 0 2.31836,-2.41602 2.3185881,2.4168122 0 0 0 -2.31836,-2.41797 z"
         inkscape:label="device-picker" />
      <g id="g86" transform="translate(-72.24,10.13)" inkscape:label="scroll">
         <rect fill="none" stroke="#8c8c8c" stroke-width="1" id="scup--ctl-frame" width="15.157895" height="15.157894"
            x="401.66357" y="43.771046" />
         <rect fill="none" stroke="#8c8c8c" stroke-width="1" id="scdn--ctl-frame" width="15.157895" height="15.157894"
            x="401.66357" y="59.129951" />
         <path fill="#d9d9d9" id="pdn--ctl-glyph" sodipodi:type="star" inkscape:flatsided="true" sodipodi:sides="3"
            sodipodi:cx="404.46033" sodipodi:cy="46.820545" sodipodi:r1="5.4873266" sodipodi:r2="2.7436633"
            sodipodi:arg1="-0.54428048" sodipodi:arg2="0.50291707" inkscape:rounded="-3.1225023e-17"
            inkscape:randomized="0" d="m 409.15474,43.979193 -4.58093,8.327505 -4.92137,-8.130954 z"
            inkscape:transform-center-x="0.056739605" inkscape:transform-center-y="1.3224004"
            transform="translate(4.8492743,18.324961)" inkscape:label="pdn--ctl-glyph" />
         <path fill="#808080" id="pup--ctl-disabled" sodipodi:type="star" inkscape:flatsided="true" sodipodi:sides="3"
            sodipodi:cx="404.46033" sodipodi:cy="46.820545" sodipodi:r1="5.4873266" sodipodi:r2="2.7436633"
            sodipodi:arg1="-0.54428048" sodipodi:arg2="0.50291707" inkscape:rounded="-3.1225023e-17"
            inkscape:randomized="0" d="m 409.15474,43.979193 -4.58093,8.327505 -4.92137,-8.130954 z"
            inkscape:transform-center-x="0.056739605" inkscape:transform-center-y="-1.3224003"
            transform="matrix(1,0,0,-1,4.85,99.73)" />
      </g>
      <path fill="#5d8ed7"
         d="m 326.54401,48.98999 v -4.496 l 0.208,0.352 h -1.664 v -0.544 h 0.968 q 0.24,0 0.36,-0.104 0.128,-0.104 0.128,-0.36 v -0.424 h 0.68 v 5.576 z m 6.54399,0.064 q -0.552,0 -0.992,-0.256 -0.432,-0.264 -0.68,-0.728 -0.248,-0.464 -0.248,-1.056 0,-0.592 0.24,-1.048 0.248,-0.464 0.68,-0.72 0.44,-0.264 1,-0.264 0.56,0 0.984,0.264 0.432,0.256 0.68,0.72 0.248,0.456 0.248,1.048 0,0.592 -0.248,1.056 -0.248,0.456 -0.68,0.72 -0.432,0.264 -0.984,0.264 z m 0,-0.6 q 0.376,0 0.648,-0.176 0.28,-0.184 0.432,-0.504 0.152,-0.328 0.152,-0.76 0,-0.44 -0.152,-0.76 -0.152,-0.328 -0.432,-0.504 -0.272,-0.176 -0.648,-0.176 -0.384,0 -0.664,0.184 -0.28,0.176 -0.432,0.496 -0.152,0.32 -0.152,0.76 0,0.432 0.152,0.76 0.152,0.32 0.432,0.504 0.28,0.176 0.664,0.176 z m 3.12,0.536 v -3.416 h -0.816 v -0.528 h 0.824 v -0.512 q 0,-0.448 0.144,-0.704 0.144,-0.264 0.392,-0.368 0.256,-0.112 0.568,-0.112 0.216,0 0.384,0.04 0.168,0.04 0.32,0.12 l -0.224,0.512 q -0.088,-0.048 -0.192,-0.072 -0.104,-0.032 -0.216,-0.032 -0.256,0 -0.384,0.16 -0.12,0.16 -0.12,0.456 v 0.512 h 0.92 v 0.528 h -0.92 v 3.416 z m 4.24799,0 v -0.56 q 0.28,-0.224 0.648,-0.496 0.376,-0.272 0.752,-0.592 0.384,-0.32 0.704,-0.68 0.328,-0.36 0.528,-0.76 0.2,-0.4 0.2,-0.824 0,-0.472 -0.264,-0.768 -0.264,-0.296 -0.776,-0.296 -0.376,0 -0.632,0.176 -0.248,0.168 -0.376,0.472 -0.12,0.296 -0.128,0.68 l -0.664,-0.048 q 0,-0.392 0.12,-0.736 0.12,-0.352 0.352,-0.616 0.232,-0.272 0.568,-0.424 0.344,-0.16 0.784,-0.16 0.504,0 0.88,0.216 0.376,0.208 0.584,0.592 0.216,0.376 0.216,0.888 0,0.448 -0.168,0.864 -0.16,0.416 -0.456,0.792 -0.288,0.376 -0.664,0.712 -0.376,0.336 -0.8,0.632 -0.424,0.296 -0.864,0.544 l 0.176,-0.24 h 3 v 0.632 z m 6.88,0 v -1.328 h -2.656 v -0.536 l 2.712,-3.712 h 0.624 v 3.616 h 0.896 v 0.632 h -0.896 v 1.328 z m -2.088,-1.72 -0.056,-0.24 h 2.144 v -2.856 l 0.08,0.056 z"
         id="NofN--dytext" />
      <path fill="#5d8ed7"
         d="m 29.745402,375.18417 q -0.768,0 -1.352,-0.36 -0.576,-0.36 -0.904,-1.008 -0.32,-0.656 -0.32,-1.52 0,-0.864 0.32,-1.512 0.328,-0.648 0.904,-1.008 0.584,-0.36 1.352,-0.36 0.84,0 1.456,0.416 0.616,0.416 0.888,1.152 l -0.656,0.248 q -0.208,-0.544 -0.64,-0.84 -0.432,-0.304 -1.048,-0.304 -0.568,0 -0.992,0.272 -0.424,0.272 -0.656,0.768 -0.224,0.488 -0.224,1.168 0,0.68 0.224,1.176 0.232,0.496 0.656,0.768 0.424,0.272 0.992,0.272 0.616,0 1.048,-0.304 0.432,-0.304 0.64,-0.84 l 0.656,0.24 q -0.272,0.728 -0.888,1.152 -0.616,0.424 -1.456,0.424 z m 4.968003,-0.032 q -0.552,0 -0.992,-0.256 -0.432,-0.264 -0.68,-0.728 -0.248,-0.464 -0.248,-1.056 0,-0.592 0.24,-1.048 0.248,-0.464 0.68,-0.72 0.44,-0.264 1,-0.264 0.56,0 0.984,0.264 0.432,0.256 0.68,0.72 0.248,0.456 0.248,1.048 0,0.592 -0.248,1.056 -0.248,0.456 -0.68,0.72 -0.432,0.264 -0.984,0.264 z m 0,-0.6 q 0.376,0 0.648,-0.176 0.28,-0.184 0.432,-0.504 0.152,-0.328 0.152,-0.76 0,-0.44 -0.152,-0.76 -0.152,-0.328 -0.432,-0.504 -0.272,-0.176 -0.648,-0.176 -0.384,0 -0.664,0.184 -0.28,0.176 -0.432,0.496 -0.152,0.32 -0.152,0.76 0,0.432 0.152,0.76 0.152,0.32 0.432,0.504 0.28,0.176 0.664,0.176 z m 2.879998,0.536 v -3.944 h 0.68 v 0.84 l -0.16,0.056 q 0.112,-0.304 0.304,-0.512 0.192,-0.216 0.464,-0.328 0.272,-0.12 0.6,-0.12 0.648,0 1.016,0.384 0.368,0.376 0.368,1.12 v 2.504 h -0.68 v -2.256 q 0,-0.6 -0.224,-0.88 -0.216,-0.288 -0.664,-0.288 -0.328,0 -0.56,0.152 -0.224,0.152 -0.344,0.48 -0.12,0.32 -0.12,0.824 v 1.968 z m 5.688007,0.064 q -0.28,0 -0.512,-0.104 -0.224,-0.112 -0.352,-0.352 -0.128,-0.24 -0.128,-0.616 v -3.992 l 0.688,-0.384 v 4.2 q 0,0.328 0.104,0.512 0.104,0.176 0.376,0.176 0.08,0 0.192,-0.016 0.112,-0.024 0.24,-0.056 v 0.528 q -0.152,0.056 -0.312,0.08 -0.152,0.024 -0.296,0.024 z m -1.808,-3.48 v -0.528 h 2.416 v 0.528 z m 3.256005,3.416 v -3.944 h 0.672 v 3.944 z m -0.064,-4.656 v -0.92 h 0.8 v 0.92 z m 1.879999,4.656 v -3.944 h 0.68 v 0.84 l -0.16,0.056 q 0.112,-0.304 0.304,-0.512 0.192,-0.216 0.464,-0.328 0.272,-0.12 0.6,-0.12 0.648,0 1.016,0.384 0.368,0.376 0.368,1.12 v 2.504 h -0.68 v -2.256 q 0,-0.6 -0.224,-0.88 -0.216,-0.288 -0.664,-0.288 -0.328,0 -0.56,0.152 -0.224,0.152 -0.344,0.48 -0.12,0.32 -0.12,0.824 v 1.968 z m 5.704007,0.064 q -0.424,0 -0.736,-0.168 -0.312,-0.176 -0.48,-0.512 -0.16,-0.336 -0.16,-0.832 v -2.496 h 0.672 v 2.256 q 0,0.392 0.096,0.656 0.104,0.256 0.304,0.384 0.2,0.12 0.496,0.12 0.328,0 0.552,-0.152 0.232,-0.16 0.352,-0.48 0.12,-0.32 0.12,-0.824 v -1.96 h 0.672 v 3.944 h -0.672 v -0.84 h 0.168 q -0.168,0.44 -0.536,0.672 -0.368,0.232 -0.848,0.232 z m 4.376007,0 q -0.424,0 -0.736,-0.168 -0.312,-0.176 -0.48,-0.512 -0.16,-0.336 -0.16,-0.832 v -2.496 h 0.672 v 2.256 q 0,0.392 0.096,0.656 0.104,0.256 0.304,0.384 0.2,0.12 0.496,0.12 0.328,0 0.552,-0.152 0.232,-0.16 0.352,-0.48 0.12,-0.32 0.12,-0.824 v -1.96 h 0.672 v 3.944 h -0.672 v -0.84 h 0.168 q -0.168,0.44 -0.536,0.672 -0.368,0.232 -0.848,0.232 z m 3.104007,-0.064 v -5.576 h 1.04 l 1.752,4.408 h -0.128 l 1.752,-4.408 h 1.032 v 5.576 h -0.704 v -4.76 l 0.056,0.008 -1.728,4.28 h -0.688 l -1.736,-4.28 0.056,-0.008 v 4.76 z m 6.648006,0 v -3.944 h 0.672 v 3.944 z m -0.064,-4.656 v -0.92 h 0.8 v 0.92 z m 1.879998,4.656 v -3.944 h 0.68 v 0.84 l -0.16,0.056 q 0.112,-0.304 0.304,-0.512 0.192,-0.216 0.464,-0.328 0.272,-0.12 0.6,-0.12 0.648,0 1.016,0.384 0.368,0.376 0.368,1.12 v 2.504 h -0.68 v -2.256 q 0,-0.6 -0.224,-0.88 -0.216,-0.288 -0.664,-0.288 -0.328,0 -0.56,0.152 -0.224,0.152 -0.344,0.48 -0.12,0.32 -0.12,0.824 v 1.968 z m 4.368007,0 v -3.944 h 0.672 v 3.944 z m -0.064,-4.656 v -0.92 h 0.8 v 0.92 z m 5.720001,4.744 q -0.84,0 -1.376,-0.44 -0.536,-0.44 -0.656,-1.168 l 0.688,-0.168 q 0.088,0.56 0.456,0.856 0.376,0.288 0.912,0.288 0.312,0 0.56,-0.12 0.248,-0.12 0.392,-0.336 0.144,-0.224 0.144,-0.504 0,-0.296 -0.16,-0.488 -0.16,-0.192 -0.448,-0.336 -0.28,-0.144 -0.656,-0.288 -0.464,-0.176 -0.816,-0.384 -0.344,-0.208 -0.536,-0.496 -0.192,-0.296 -0.192,-0.72 0,-0.424 0.208,-0.752 0.208,-0.328 0.584,-0.512 0.376,-0.192 0.872,-0.192 0.528,0 0.936,0.24 0.408,0.24 0.656,0.712 l -0.56,0.344 q -0.184,-0.328 -0.448,-0.496 -0.264,-0.176 -0.608,-0.176 -0.272,0 -0.488,0.104 -0.208,0.104 -0.328,0.288 -0.12,0.184 -0.12,0.424 0,0.256 0.144,0.44 0.144,0.176 0.416,0.312 0.272,0.136 0.656,0.28 0.488,0.184 0.84,0.4 0.352,0.216 0.544,0.52 0.2,0.296 0.2,0.736 0,0.472 -0.232,0.84 -0.232,0.368 -0.64,0.584 -0.408,0.208 -0.944,0.208 z m 2.807993,-0.088 v -5.576 h 0.744 l 2.856,4.664 h -0.16 v -4.664 h 0.704 v 5.576 h -0.76 l -2.84,-4.672 h 0.16 v 4.672 z m 7.104005,0 v -4.496 l 0.208,0.352 h -1.664 v -0.544 h 0.968 q 0.24,0 0.36,-0.104 0.128,-0.104 0.128,-0.36 v -0.424 h 0.68 v 5.576 z m 4.375996,0.064 q -0.488,0 -0.904,-0.208 -0.408,-0.208 -0.68,-0.576 -0.264,-0.368 -0.352,-0.84 l 0.664,-0.12 q 0.056,0.304 0.216,0.56 0.168,0.248 0.432,0.392 0.272,0.144 0.616,0.144 0.4,0 0.68,-0.184 0.28,-0.192 0.424,-0.496 0.152,-0.304 0.152,-0.648 0,-0.336 -0.144,-0.608 -0.136,-0.28 -0.408,-0.44 -0.264,-0.168 -0.656,-0.168 -0.352,0 -0.64,0.16 -0.288,0.16 -0.496,0.464 l -0.664,-0.184 0.52,-2.888 h 2.944 v 0.632 h -2.696 l 0.36,-0.288 -0.392,2.16 -0.192,-0.04 q 0.312,-0.368 0.656,-0.512 0.352,-0.144 0.696,-0.144 0.536,0 0.944,0.256 0.416,0.248 0.648,0.672 0.232,0.424 0.232,0.928 0,0.4 -0.144,0.76 -0.144,0.352 -0.408,0.632 -0.264,0.272 -0.624,0.432 -0.36,0.152 -0.784,0.152 z m 4.511995,0 q -0.464,0 -0.792,-0.168 -0.32,-0.176 -0.528,-0.472 -0.208,-0.296 -0.32,-0.664 -0.104,-0.376 -0.152,-0.776 -0.04,-0.408 -0.04,-0.792 0,-0.376 0.04,-0.776 0.04,-0.4 0.144,-0.768 0.112,-0.368 0.312,-0.656 0.208,-0.296 0.528,-0.464 0.32,-0.176 0.784,-0.176 0.448,0 0.76,0.168 0.32,0.16 0.528,0.448 0.208,0.28 0.32,0.648 0.12,0.36 0.168,0.768 0.048,0.408 0.048,0.816 0,0.416 -0.048,0.824 -0.048,0.408 -0.168,0.776 -0.112,0.368 -0.32,0.656 -0.2,0.28 -0.512,0.448 -0.312,0.16 -0.752,0.16 z m 0,-0.656 q 0.416,0 0.656,-0.288 0.248,-0.288 0.352,-0.784 0.104,-0.496 0.104,-1.112 0,-0.648 -0.112,-1.144 -0.104,-0.504 -0.352,-0.792 -0.248,-0.288 -0.672,-0.288 -0.336,0 -0.552,0.176 -0.216,0.176 -0.336,0.488 -0.12,0.304 -0.176,0.704 -0.048,0.4 -0.048,0.848 0,0.432 0.048,0.832 0.056,0.392 0.176,0.696 0.128,0.304 0.344,0.488 0.224,0.176 0.568,0.176 z m 4.479994,0.656 q -0.464,0 -0.792,-0.168 -0.32,-0.176 -0.528,-0.472 -0.207998,-0.296 -0.319998,-0.664 -0.104,-0.376 -0.152,-0.776 -0.04,-0.408 -0.04,-0.792 0,-0.376 0.04,-0.776 0.04,-0.4 0.144,-0.768 0.112,-0.368 0.311998,-0.656 0.208,-0.296 0.528,-0.464 0.32,-0.176 0.784,-0.176 0.448,0 0.76,0.168 0.32,0.16 0.528,0.448 0.208,0.28 0.32,0.648 0.12,0.36 0.168,0.768 0.048,0.408 0.048,0.816 0,0.416 -0.048,0.824 -0.048,0.408 -0.168,0.776 -0.112,0.368 -0.32,0.656 -0.2,0.28 -0.512,0.448 -0.312,0.16 -0.752,0.16 z m 0,-0.656 q 0.416,0 0.656,-0.288 0.248,-0.288 0.352,-0.784 0.104,-0.496 0.104,-1.112 0,-0.648 -0.112,-1.144 -0.104,-0.504 -0.352,-0.792 -0.248,-0.288 -0.672,-0.288 -0.336,0 -0.552,0.176 -0.216,0.176 -0.336,0.488 -0.12,0.304 -0.176,0.704 -0.048,0.4 -0.048,0.848 0,0.432 0.048,0.832 0.056,0.392 0.176,0.696 0.128,0.304 0.344,0.488 0.224,0.176 0.568,0.176 z m 4.424,0.656 q -0.6,0 -1.048,-0.216 -0.448,-0.224 -0.696,-0.616 -0.248,-0.4 -0.248,-0.928 l 0.672,-0.04 q 0,0.528 0.368,0.84 0.368,0.304 0.976,0.304 0.4,0 0.688,-0.128 0.288,-0.128 0.44,-0.368 0.16,-0.24 0.16,-0.56 0,-0.296 -0.128,-0.488 -0.128,-0.2 -0.352,-0.312 -0.216,-0.12 -0.512,-0.168 -0.296,-0.048 -0.632,-0.048 v -0.536 q 0.248,0 0.48,-0.04 0.24,-0.048 0.424,-0.152 0.192,-0.104 0.296,-0.28 0.112,-0.176 0.112,-0.44 0,-0.264 -0.128,-0.464 -0.128,-0.2 -0.352,-0.304 -0.224,-0.112 -0.528,-0.112 -0.496,0 -0.776,0.272 -0.28,0.272 -0.288,0.696 l -0.664,-0.04 q 0,-0.464 0.224,-0.816 0.224,-0.36 0.616,-0.56 0.4,-0.2 0.912,-0.2 0.488,0 0.856,0.192 0.376,0.184 0.592,0.512 0.216,0.328 0.216,0.76 0,0.24 -0.072,0.432 -0.072,0.184 -0.208,0.328 -0.128,0.144 -0.304,0.248 -0.168,0.096 -0.36,0.16 0.24,0.056 0.464,0.16 0.224,0.104 0.4,0.272 0.176,0.168 0.28,0.4 0.104,0.232 0.104,0.536 0,0.504 -0.256,0.888 -0.248,0.384 -0.696,0.6 -0.44,0.216 -1.032,0.216 z"
         id="device--dytext" aria-label="ContinuuMini SN15003" inkscape:label="device-name" />
      <path fill="none" stroke="#d27979" stroke-width="1"
         d="m 346.88722,7.9881039 c 0.0573,-0.0052 0.12237,-0.01041 0.19531,-0.01563 0.22396,-0.01042 0.45052,-0.0026 0.67969,0.02344 0.23437,0.02604 0.47396,0.07552 0.71875,0.148438 0.26563,0.08333 0.52865,0.190104 0.78906,0.320312 0.60417,0.302083 1.07813,0.6770831 1.42188,1.1249997 0.34375,0.4479174 0.57552,0.9348964 0.69531,1.4609384 0.099,0.416667 0.13281,0.856771 0.10156,1.320312 -0.0313,0.4375 -0.1172,0.885417 -0.25781,1.34375 -0.0937,0.296875 -0.20573,0.588542 -0.33594,0.875 -0.16146,0.354167 -0.35156,0.695313 -0.57031,1.023438 -0.16146,0.244791 -0.33594,0.48177 -0.52344,0.710937 -0.16667,0.197917 -0.34375,0.393229 -0.53125,0.585938 v 0 c -0.0417,0.03646 -0.0807,0.07552 -0.11719,0.117187 -0.0365,0.03646 -0.0755,0.07552 -0.11718,0.117188 -0.0937,0.09375 -0.19271,0.192708 -0.29688,0.296875 -0.10417,0.09896 -0.21094,0.203125 -0.32031,0.3125 -0.125,0.125 -0.25521,0.255208 -0.39063,0.390625 -0.13541,0.130208 -0.27343,0.26302 -0.41406,0.398437 -0.19271,0.192709 -0.39844,0.39323 -0.61719,0.601563 -0.27604,0.260417 -0.55208,0.515625 -0.82812,0.765625 -0.21875,0.203125 -0.4323,0.395825 -0.64063,0.578125 -0.30729,0.27083 -0.59635,0.51562 -0.86718,0.73438 -0.13542,0.10937 -0.26823,0.21354 -0.39844,0.3125 -0.10417,0.0781 -0.21875,0.1328 -0.34375,0.16406 -0.32292,0.0885 -0.61719,0.026 -0.88281,-0.1875 -0.42709,-0.34376 -0.91146,-0.75782 -1.45313,-1.24219 -0.53646,-0.479167 -1.07552,-0.971354 -1.61719,-1.476563 -0.53645,-0.505208 -1.02083,-0.966145 -1.45312,-1.382812 -0.0885,-0.09375 -0.17708,-0.182292 -0.26563,-0.265625 -0.0833,-0.08333 -0.16406,-0.161458 -0.24218,-0.234375 -0.88542,-0.885417 -1.51823,-1.890625 -1.89844,-3.015625 -0.17709,-0.526042 -0.28386,-1.041667 -0.32031,-1.546875 -0.0261,-0.479167 0.013,-0.932292 0.11718,-1.359375 0.0833,-0.34375 0.21094,-0.664063 0.38282,-0.960938 0.1875,-0.3281254 0.42448,-0.622395 0.71093,-0.882812 0.21355,-0.1927091 0.44792,-0.3645841 0.70313,-0.5156251 0.099,-0.05729 0.19531,-0.109377 0.28906,-0.15625 0.005,-0.0052 0.0105,-0.0078 0.0156,-0.0078 0.26562,-0.135417 0.53385,-0.242187 0.80468,-0.320312 0.34896,-0.104167 0.70052,-0.161458 1.05469,-0.171875 0.38542,-0.01563 0.75,0.02083 1.09375,0.109375 0.34896,0.08854 0.67188,0.210937 0.96875,0.367187 0.17187,0.08333 0.33333,0.177083 0.48438,0.28125 0.15625,0.104167 0.30208,0.210938 0.4375,0.320313 0.16145,0.1354171 0.30729,0.2734371 0.4375,0.4140621 0.13541,0.1406246 0.2526,0.2760416 0.35156,0.4062496 0.13021,-0.171875 0.27604,-0.338541 0.4375,-0.4999996 0.10937,-0.104167 0.21875,-0.203125 0.32812,-0.2968751 0.005,-0.0052 0.0131,-0.01301 0.0234,-0.02344 0.17187,-0.140625 0.35156,-0.26823 0.53906,-0.382813 0.26042,-0.166667 0.53125,-0.304687 0.8125,-0.414062 0.36459,-0.140625 0.73438,-0.229167 1.10938,-0.265625 z"
         id="inactive-favorite" aria-label="❤️"
         sodipodi:nodetypes="scccssccccccsscscscccccscccccccccccccccccccccccccccccss" style="fill:none" />
      <g id="g8" transform="translate(-40.174701)">
         <g aria-label="#d (pachde logo)" id="g2" transform="translate(195.44443,366.72992)"
            style="fill:#d4a011;fill-opacity:1" inkscape:label="#d">
            <path
               d="M 3.023,5.309 3.916,3.543 5.003,3.834 4.104,5.599 5.759,6.042 6.658,4.277 7.74,4.567 6.846,6.334 7.631,6.544 7.34,7.631 6.328,7.36 5.666,8.665 6.969,9.014 6.678,10.1 5.148,9.691 4.255,11.457 3.168,11.166 4.062,9.4 2.407,8.956 1.513,10.723 0.426,10.431 1.32,8.665 0.54,8.456 0.831,7.369 1.843,7.64 2.5,6.334 1.202,5.986 1.493,4.899 Z M 5.242,7.068 3.587,6.625 2.924,7.93 4.58,8.374 Z"
               id="hash--brand" fill="#d4a011" />
            <path
               d="m 13.387,10.647 -0.301,1.122 -2.354,-0.631 0.155,-0.579 Q 10.064,11.035 9.304,10.831 8.394,10.587 7.993,9.687 7.593,8.787 7.874,7.736 8.16,6.669 8.969,6.104 9.78,5.534 10.665,5.771 11.516,6 11.892,6.807 l 0.414,-1.545 -0.759,-0.204 0.3,-1.121 2.314,0.62 -1.574,5.876 z M 11.402,8.697 Q 11.589,7.998 11.367,7.62 11.15,7.244 10.767,7.141 10.31,7.019 9.962,7.308 9.621,7.595 9.466,8.173 9.32,8.721 9.465,9.165 q 0.147,0.438 0.615,0.564 0.387,0.104 0.76,-0.12 0.379,-0.227 0.562,-0.912 z"
               id="d--brand" fill="#d4a011" />
         </g>
         <path sodipodi:type="star"
            style="opacity:1;fill:none;fill-opacity:1;stroke:#d4a011;stroke-width:0.525475;stroke-dasharray:none;stroke-opacity:1"
            id="pdo--brand" inkscape:flatsided="true" sodipodi:sides="6" sodipodi:cx="191.13033" sodipodi:cy="357.53949"
            sodipodi:r1="7.0977392" sodipodi:r2="14.57469" sodipodi:arg1="-0.23602366" sodipodi:arg2="0.28757512"
            inkscape:rounded="-3.1225023e-17" inkscape:randomized="0"
            d="m 198.03128,355.87977 -2.01311,6.80626 -6.90096,1.65973 -4.88784,-5.14655 2.01311,-6.80626 6.90096,-1.65973 z"
            transform="matrix(1.4272798,0,0,1.4272798,-69.621751,-134.87472)" />
      </g>
      <path
         d="m 182.79004,-350.00058 h 8.76953 q 3.53516,0 5.70313,2.07031 2.16796,2.05078 2.16796,5.41016 0,2.20703 -1.07421,4.19922 -1.05469,1.97265 -3.20313,2.94922 -2.14844,0.97656 -3.67187,1.01562 l -3.20313,0.0781 v 9.92187 h -5.48828 z m 5.41016,4.60938 v 6.5625 h 2.14843 q 1.38672,0 2.36328,-0.9961 0.9961,-0.99609 0.9961,-2.36328 0,-1.5625 -1.11328,-2.42187 -1.11328,-0.85938 -3.16407,-0.85938 z m 20.23437,4.23828 v 2.48047 h 0.0781 q 0.74218,-1.25 1.71875,-1.97266 0.99609,-0.74219 1.83593,-0.74219 0.50782,0 0.91797,0.0781 v 5.46875 q -0.625,-0.11719 -1.23047,-0.11719 -1.54297,0 -2.40234,1.09375 -0.83984,1.07422 -0.83984,3.02734 v 7.48047 h -5.07813 v -16.79687 z m 24.19922,9.58984 h -11.97266 q 0.0977,1.62109 1.05469,2.63672 0.97656,1.01562 2.26563,1.01562 2.30468,0 3.61328,-2.08984 l 4.58984,1.52344 q -2.55859,4.47265 -7.94922,4.47265 -3.96484,0 -6.30859,-2.40234 -2.34375,-2.40234 -2.34375,-6.46484 0,-3.65235 2.46094,-6.13282 2.48046,-2.48046 6.09375,-2.48046 3.63281,0 6.05468,2.61718 2.44141,2.59766 2.44141,6.50391 z m -11.93359,-3.35937 h 6.75781 q -0.70313,-3.14454 -3.22266,-3.14454 -1.44531,0 -2.40234,0.82032 -0.9375,0.82031 -1.13281,2.32422 z m 27.8125,-3.86719 -3.39844,2.07031 q -1.46485,-1.48437 -2.73438,-1.48437 -0.625,0 -1.07422,0.35156 -0.44921,0.35156 -0.44921,0.85937 0,0.82032 0.50781,1.19141 0.52734,0.37109 2.77344,1.15234 2.24609,0.76172 3.53515,1.97266 1.3086,1.21094 1.3086,3.35937 0,2.16797 -1.95313,3.73047 -1.95312,1.54297 -4.6875,1.54297 -1.85547,0 -3.71094,-1.03515 -1.83593,-1.03516 -3.125,-3.16407 l 4.04297,-1.83593 q 1.36719,2.36328 2.83203,2.36328 0.66407,0 1.19141,-0.42969 0.52734,-0.42969 0.52734,-0.97656 0,-0.70313 -0.60547,-1.05469 -0.60546,-0.37109 -0.89843,-0.37109 -0.11719,-0.13672 -1.40625,-0.54688 -5.03907,-1.64062 -5.03907,-5.33203 0,-2.22656 1.79688,-3.63281 1.81641,-1.42578 4.72656,-1.42578 3.22266,0 5.83985,2.69531 z m 20.35156,7.22656 H 256.8916 q 0.0977,1.62109 1.05469,2.63672 0.97656,1.01562 2.26562,1.01562 2.30469,0 3.61329,-2.08984 l 4.58984,1.52344 q -2.55859,4.47265 -7.94922,4.47265 -3.96484,0 -6.30859,-2.40234 -2.34375,-2.40234 -2.34375,-6.46484 0,-3.65235 2.46093,-6.13282 2.48047,-2.48046 6.09375,-2.48046 3.63282,0 6.05469,2.61718 2.44141,2.59766 2.44141,6.50391 z m -11.9336,-3.35937 h 6.75782 q -0.70313,-3.14454 -3.22266,-3.14454 -1.44531,0 -2.40234,0.82032 -0.9375,0.82031 -1.13282,2.32422 z m 15.44922,-11.99219 h 5 v 5.76172 h 2.40235 v 4.58984 h -2.40235 v 12.20703 h -5 v -12.20703 h -1.91406 v -4.58984 h 1.91406 z"
         id="title"
         style="font-weight:bold;font-size:40px;line-height:1.25;font-family:'Tw Cen MT';-inkscape-font-specification:'Tw Cen MT Bold';text-align:center;text-anchor:middle;fill:#f9a54b;fill-opacity:0.4"
         transform="rotate(90)" aria-label="Preset" inkscape:label="Title" />
      <text xml:space="preserve"
         style="font-weight:600;font-size:14px;line-height:1.25;font-family:'Hanken Grotesk';-inkscape-font-specification:'Hanken Grotesk Semi-Bold';text-align:center;text-anchor:middle"
         x="91.381027" y="80.917847" id="text2">
         <tspan sodipodi:role="line" x="93.201019" y="80.917847" style="font-style:normal;font-variant:normal;font-weight:normal;font-stretch:normal;font-family:'Hanken Grotesk';-inkscape-font-specification:'Hanken Grotesk';fill:#a6a6a6;fill-opacity:1"
            id="tspan1">Around the Periapsis (test)</tspan>
      </text>
      <g id="g7">
         <text xml:space="preserve"
            style="font-weight:600;font-size:14px;line-height:1.25;font-family:'Hanken Grotesk';-inkscape-font-specification:'Hanken Grotesk Semi-Bold';text-align:start;text-anchor:start"
            x="17.300001" y="102.91785" id="text3" inkscape:label="Glitch-text">
            <tspan sodipodi:role="line" x="17.300001" y="102.91785" style="font-style:normal;font-variant:normal;font-weight:normal;font-stretch:normal;font-family:'Hanken Grotesk';-inkscape-font-specification:'Hanken Grotesk';text-align:start;text-anchor:start;fill:#a6a6a6;fill-opacity:1"
               id="tspan2">Glitchy weirdness</tspan>
         </text>
         <path fill="#a6a6a6"
            d="m 22.438001,103.08585 q -1.316,0 -2.324,-0.63 -0.994,-0.63 -1.554,-1.764 -0.56,-1.148003 -0.56,-2.660003 0,-1.512 0.56,-2.646 0.574,-1.134 1.582,-1.764 1.022,-0.63 2.366,-0.63 1.47,0 2.548,0.728 1.078,0.728 1.554,2.016 l -1.148,0.434 q -0.364,-0.952 -1.12,-1.47 -0.756,-0.532 -1.834,-0.532 -0.994,0 -1.736,0.476 -0.742,0.476 -1.148,1.344 -0.392,0.854 -0.392,2.044 0,1.19 0.392,2.058003 0.406,0.868 1.148,1.344 0.742,0.476 1.736,0.476 0.504,0 1.036,-0.14 0.532,-0.14 0.98,-0.49 0.448,-0.35 0.714,-0.952 0.28,-0.616003 0.28,-1.554003 v -0.714 l 0.28,0.84 h -2.744 v -1.106 h 3.556 v 5.124003 h -1.092 l -0.168,-1.904 0.21,0.154 q -0.252,0.672 -0.728,1.092 -0.476,0.42 -1.106,0.63 -0.616,0.196 -1.288,0.196 z m 7.490013,-0.056 q -0.63,0 -1.022,-0.392 -0.392,-0.392 -0.392,-1.246 v -8.232003 h 1.176 v 8.008003 q 0,0.406 0.168,0.588 0.168,0.182 0.448,0.182 0.126,0 0.28,-0.028 0.154,-0.028 0.322,-0.084 v 1.008 q -0.238,0.098 -0.504,0.14 -0.266,0.056 -0.476,0.056 z m 2.309991,-0.112 v -6.902003 h 1.176 v 6.902003 z m -0.112,-8.148003 v -1.61 h 1.4 v 1.61 z m 5.585998,8.260003 q -0.49,0 -0.896,-0.182 -0.392,-0.196 -0.616,-0.616 -0.224,-0.42 -0.224,-1.078 v -6.986003 l 1.204,-0.672 v 7.350003 q 0,0.574 0.182,0.896 0.182,0.308 0.658,0.308 0.14,0 0.336,-0.028 0.196,-0.042 0.42,-0.098 v 0.924 q -0.266,0.098 -0.546,0.14 -0.266,0.042 -0.518,0.042 z m -3.164,-6.090003 v -0.924 h 4.228 v 0.924 z m 8.442006,6.090003 q -0.77,0 -1.372,-0.28 -0.588,-0.28 -0.994,-0.77 -0.406,-0.504 -0.616,-1.148 -0.21,-0.644 -0.21,-1.372003 0,-0.714 0.21,-1.358 0.21,-0.644 0.616,-1.134 0.406,-0.504 0.994,-0.784 0.602,-0.28 1.372,-0.28 0.98,0 1.708,0.476 0.742,0.476 1.092,1.456 l -1.05,0.406 q -0.196,-0.588 -0.63,-0.952 -0.434,-0.364 -1.12,-0.364 -0.686,0 -1.134,0.364 -0.448,0.364 -0.672,0.938 -0.21,0.574 -0.21,1.232 0,0.658003 0.21,1.246003 0.224,0.574 0.672,0.938 0.448,0.35 1.134,0.35 0.686,0 1.12,-0.35 0.434,-0.364 0.63,-0.966 l 1.05,0.406 q -0.35,0.98 -1.092,1.47 -0.728,0.476 -1.708,0.476 z m 4.381995,-0.112 v -9.758003 h 1.19 v 4.326 l -0.294,0.112 q 0.196,-0.532 0.546,-0.91 0.35,-0.378 0.826,-0.574 0.476,-0.21 1.036,-0.21 1.134,0 1.778,0.672 0.644,0.658 0.644,1.96 v 4.382003 h -1.19 v -3.948003 q 0,-1.05 -0.392,-1.54 -0.378,-0.504 -1.162,-0.504 -0.854,0 -1.33,0.616 -0.462,0.602 -0.462,1.932 v 3.444003 z m 8.162006,2.842 1.316,-3.178 -2.688,-6.566003 h 1.302 l 2.016,5.376003 2.03,-5.376003 h 1.288 l -3.976,9.744003 z m 11.676002,-2.842 -2.044,-6.902003 h 1.26 l 1.4,5.110003 1.652,-5.110003 h 1.05 l 1.652,5.082003 1.414,-5.082003 h 1.26 l -2.058,6.902003 h -1.092 l -1.694,-5.250003 -1.694,5.250003 z m 11.955988,0.112 q -0.812,0 -1.428,-0.266 -0.602,-0.28 -1.008,-0.77 -0.392,-0.49 -0.602,-1.12 -0.196,-0.644 -0.196,-1.358003 0,-0.714 0.196,-1.358 0.196,-0.658 0.574,-1.162 0.392,-0.504 0.98,-0.798 0.588,-0.294 1.372,-0.294 0.798,0 1.372,0.28 0.588,0.266 0.952,0.742 0.378,0.476 0.56,1.064 0.182,0.588 0.182,1.218 0,0.056 -0.014,0.266 0,0.196 -0.028,0.35 h -4.97 q 0.042,1.008003 0.588,1.568003 0.546,0.56 1.484,0.56 0.602,0 1.05,-0.196 0.448,-0.196 0.84,-0.63 l 0.826,0.728 q -0.378,0.406 -0.798,0.672 -0.42,0.252 -0.896,0.378 -0.462,0.126 -1.036,0.126 z m 1.778,-3.808003 q 0.028,-0.112 0.028,-0.224 0.014,-0.112 0.014,-0.224 0,-0.336 -0.126,-0.672 -0.112,-0.336 -0.35,-0.602 -0.224,-0.28 -0.588,-0.434 -0.35,-0.168 -0.84,-0.168 -0.602,0 -1.036,0.28 -0.434,0.28 -0.672,0.742 -0.238,0.462 -0.28,1.022 h 4.242 z m 2.856013,3.696003 v -6.902003 h 1.176 v 6.902003 z m -0.112,-8.148003 v -1.61 h 1.4 v 1.61 z m 3.290002,8.148003 v -6.902003 h 1.19 v 1.848 l -0.308,0.07 q 0.098,-0.616 0.462,-1.064 0.378,-0.462 0.868,-0.714 0.504,-0.252 0.98,-0.252 0.322,0 0.616,0.07 0.294,0.07 0.602,0.238 l -0.588,1.064 q -0.168,-0.084 -0.406,-0.14 -0.224,-0.056 -0.434,-0.056 -0.336,0 -0.672,0.126 -0.322,0.126 -0.588,0.392 -0.266,0.266 -0.406,0.714 -0.056,0.196 -0.098,0.518 -0.028,0.308 -0.028,0.854 v 3.234003 z m 8.119992,0.112 q -0.938,0 -1.652,-0.462 -0.7,-0.476 -1.092,-1.288 -0.392,-0.812 -0.392,-1.820003 0,-1.092 0.42,-1.89 0.42,-0.798 1.134,-1.232 0.714,-0.434 1.582,-0.434 0.658,0 1.176,0.266 0.518,0.252 0.868,0.7 0.364,0.434 0.504,0.98 l -0.336,0.224 v -4.914 h 1.176 v 9.758003 h -1.176 v -2.058 l 0.392,0.126 q -0.182,0.602 -0.546,1.064 -0.364,0.462 -0.882,0.728 -0.518,0.252 -1.176,0.252 z m 0.196,-1.092 q 0.63,0 1.106,-0.308 0.476,-0.322 0.742,-0.882 0.266,-0.56 0.266,-1.288003 0,-0.728 -0.266,-1.288 -0.266,-0.56 -0.742,-0.868 -0.476,-0.322 -1.106,-0.322 -0.63,0 -1.12,0.322 -0.476,0.308 -0.756,0.868 -0.266,0.56 -0.266,1.288 0,0.728003 0.266,1.288003 0.28,0.56 0.756,0.882 0.49,0.308 1.12,0.308 z m 5.207993,0.98 v -6.902003 h 1.19 v 1.47 l -0.28,0.098 q 0.196,-0.532 0.532,-0.896 0.336,-0.378 0.812,-0.574 0.476,-0.21 1.05,-0.21 1.134,0 1.778,0.672 0.644,0.658 0.644,1.96 v 4.382003 h -1.19 v -3.948003 q 0,-1.05 -0.392,-1.54 -0.378,-0.504 -1.162,-0.504 -0.574,0 -0.98,0.266 -0.392,0.266 -0.602,0.84 -0.21,0.56 -0.21,1.442 v 3.444003 z m 10.57002,0.112 q -0.812,0 -1.428,-0.266 -0.602,-0.28 -1.008,-0.77 -0.392,-0.49 -0.602,-1.12 -0.196,-0.644 -0.196,-1.358003 0,-0.714 0.196,-1.358 0.196,-0.658 0.574,-1.162 0.392,-0.504 0.98,-0.798 0.588,-0.294 1.372,-0.294 0.798,0 1.372,0.28 0.588,0.266 0.952,0.742 0.378,0.476 0.56,1.064 0.182,0.588 0.182,1.218 0,0.056 -0.014,0.266 0,0.196 -0.028,0.35 h -4.97 q 0.042,1.008003 0.588,1.568003 0.546,0.56 1.484,0.56 0.602,0 1.05,-0.196 0.448,-0.196 0.84,-0.63 l 0.826,0.728 q -0.378,0.406 -0.798,0.672 -0.42,0.252 -0.896,0.378 -0.462,0.126 -1.036,0.126 z m 1.778,-3.808003 q 0.028,-0.112 0.028,-0.224 0.014,-0.112 0.014,-0.224 0,-0.336 -0.126,-0.672 -0.112,-0.336 -0.35,-0.602 -0.224,-0.28 -0.588,-0.434 -0.35,-0.168 -0.84,-0.168 -0.602,0 -1.036,0.28 -0.434,0.28 -0.672,0.742 -0.238,0.462 -0.28,1.022 h 4.242 z m 5.15201,3.808003 q -0.7,0 -1.26,-0.21 -0.56,-0.21 -0.966,-0.56 -0.392,-0.35 -0.63,-0.742 l 0.826,-0.7 q 0.266,0.532 0.784,0.882 0.532,0.336 1.26,0.336 0.658,0 1.05,-0.28 0.392,-0.28 0.392,-0.756 0,-0.392 -0.238,-0.616 -0.238,-0.224 -0.63,-0.364 -0.392,-0.140003 -0.854,-0.252003 -0.392,-0.098 -0.798,-0.238 -0.392,-0.14 -0.714,-0.35 -0.322,-0.21 -0.518,-0.546 -0.196,-0.336 -0.196,-0.826 0,-0.854 0.658,-1.372 0.672,-0.532 1.75,-0.532 0.784,0 1.428,0.336 0.658,0.322 1.022,0.98 l -0.756,0.56 q -0.28,-0.49 -0.742,-0.7 -0.448,-0.224 -0.994,-0.224 -0.546,0 -0.91,0.224 -0.364,0.224 -0.364,0.616 0,0.294 0.168,0.476 0.168,0.182 0.49,0.308 0.336,0.126 0.812,0.238 0.434,0.098 0.882,0.238 0.448,0.14 0.826,0.364 0.378,0.224 0.602,0.602 0.238,0.364003 0.238,0.952003 0,0.644 -0.322,1.134 -0.322,0.49 -0.91,0.756 -0.588,0.266 -1.386,0.266 z m 6.57999,0 q -0.7,0 -1.26,-0.21 -0.56,-0.21 -0.966,-0.56 -0.392,-0.35 -0.63,-0.742 l 0.826,-0.7 q 0.266,0.532 0.784,0.882 0.532,0.336 1.26,0.336 0.658,0 1.05,-0.28 0.392,-0.28 0.392,-0.756 0,-0.392 -0.238,-0.616 -0.238,-0.224 -0.63,-0.364 -0.392,-0.140003 -0.854,-0.252003 -0.392,-0.098 -0.798,-0.238 -0.392,-0.14 -0.714,-0.35 -0.322,-0.21 -0.518,-0.546 -0.196,-0.336 -0.196,-0.826 0,-0.854 0.658,-1.372 0.672,-0.532 1.75,-0.532 0.784,0 1.428,0.336 0.658,0.322 1.022,0.98 l -0.756,0.56 q -0.28,-0.49 -0.742,-0.7 -0.448,-0.224 -0.994,-0.224 -0.546,0 -0.91,0.224 -0.364,0.224 -0.364,0.616 0,0.294 0.168,0.476 0.168,0.182 0.49,0.308 0.336,0.126 0.812,0.238 0.434,0.098 0.882,0.238 0.448,0.14 0.826,0.364 0.378,0.224 0.602,0.602 0.238,0.364003 0.238,0.952003 0,0.644 -0.322,1.134 -0.322,0.49 -0.91,0.756 -0.588,0.266 -1.386,0.266 z"
            id="glitch--preset" />
      </g>
   </g>
</svg>