<?xml version="1.0" encoding="UTF-8" standalone="no"?>
<svg width="210" height="380" viewBox="0 0 210 380" version="1.1" id="svg1" sodipodi:docname="CHEM-play.svg"
   inkscape:version="1.3.2 (091e20e, 2023-11-25, custom)" xmlns:inkscape="http://www.inkscape.org/namespaces/inkscape"
   xmlns:sodipodi="http://sodipodi.sourceforge.net/DTD/sodipodi-0.dtd" xmlns="http://www.w3.org/2000/svg"
   xmlns:svg="http://www.w3.org/2000/svg">
   <defs id="defs1" />
   <sodipodi:namedview id="namedview1" pagecolor="#ffffff" bordercolor="#666666" borderopacity="1.0"
      inkscape:showpageshadow="2" inkscape:pageopacity="0.0" inkscape:pagecheckerboard="0" inkscape:deskcolor="#d1d1d1"
      inkscape:zoom="6.4942175" inkscape:cx="61.978213" inkscape:cy="80.610173" inkscape:window-width="3840"
      inkscape:window-height="2054" inkscape:window-x="3829" inkscape:window-y="-11" inkscape:window-maximized="1"
      inkscape:current-layer="svg1" showguides="true" />
   <linearGradient id="panel-gradient" x1="0" y1="60" x2="0" y2="350" gradientUnits="userSpaceOnUse">
      <stop offset="0" stop-color="#282828" />
      <stop offset="1" stop-color="#181818" />
   </linearGradient>
   <g id="g1">
      <rect id="g-panel" fill="url(#panel-gradient)" width="210" height="380" x="0" y="0" />
      <g id="grid">
         <rect fill="#333333" id="grid-bg" width="150" height="300" x="12" y="32" stroke-width=".5" />
         <path transform="translate(12, 52)" stroke="#1f1f1f" stroke-width="1px" d="M 0,0 H 150 Z"
            id="gl1--grid-line" />
         <path transform="translate(12, 72)" stroke="#1f1f1f" stroke-width="1px" d="M 0,0 H 150 Z"
            id="gl2--grid-line" />
         <path transform="translate(12, 92)" stroke="#1f1f1f" stroke-width="1px" d="M 0,0 H 150 Z"
            id="gl3--grid-line" />
         <path transform="translate(12, 112)" stroke="#1f1f1f" stroke-width="1px" d="M 0,0 H 150 Z"
            id="gl4--grid-line" />
         <path transform="translate(12, 132)" stroke="#1f1f1f" stroke-width="1px" d="M 0,0 H 150 Z"
            id="gl5--grid-line" />
         <path transform="translate(12, 152)" stroke="#1f1f1f" stroke-width="1px" d="M 0,0 H 150 Z"
            id="gl6--grid-line" />
         <path transform="translate(12, 172)" stroke="#1f1f1f" stroke-width="1px" d="M 0,0 H 150 Z"
            id="gl7--grid-line" />
         <path transform="translate(12, 192)" stroke="#1f1f1f" stroke-width="1px" d="M 0,0 H 150 Z"
            id="gl8--grid-line" />
         <path transform="translate(12, 212)" stroke="#1f1f1f" stroke-width="1px" d="M 0,0 H 150 Z"
            id="gl9--grid-line" />
         <path transform="translate(12, 232)" stroke="#1f1f1f" stroke-width="1px" d="M 0,0 H 150 Z"
            id="gl10--grid-line" />
         <path transform="translate(12, 252)" stroke="#1f1f1f" stroke-width="1px" d="M 0,0 H 150 Z"
            id="gl11--grid-line" />
         <path transform="translate(12, 272)" stroke="#1f1f1f" stroke-width="1px" d="M 0,0 H 150 Z"
            id="gl12--grid-line" />
         <path transform="translate(12, 292)" stroke="#1f1f1f" stroke-width="1px" d="M 0,0 H 150 Z"
            id="gl13--grid-line" />
         <path transform="translate(12, 312)" stroke="#1f1f1f" stroke-width="1px" d="M 0,0 H 150 Z"
            id="gl14--grid-line" />
         <rect fill="#464060" id="grid-new" width="150" height="21" x="12" y="336" />
      </g>
      <g id="g6" transform="translate(-225.5,-8)">
         <path
            style="font-size:12px;line-height:1.25;font-family:'Hanken Grotesk';text-align:center;text-anchor:middle;fill:#d9d9d9"
            d="m 396.49399,127.53877 v -8.364 h 1.008 v 1.764 l -0.324,-0.228 q 0.156,-0.516 0.456,-0.876 0.312,-0.372 0.756,-0.564 0.444,-0.192 1.008,-0.192 0.804,0 1.404,0.408 0.612,0.396 0.948,1.092 0.336,0.684 0.336,1.56 0,0.924 -0.36,1.62 -0.36,0.684 -0.972,1.056 -0.612,0.372 -1.356,0.372 -0.564,0 -1.008,-0.204 -0.444,-0.204 -0.744,-0.564 -0.3,-0.36 -0.432,-0.816 l 0.288,-0.276 v 4.212 z m 2.736,-3.276 q 0.54,0 0.948,-0.264 0.42,-0.276 0.648,-0.756 0.24,-0.48 0.24,-1.104 0,-0.624 -0.24,-1.104 -0.228,-0.48 -0.648,-0.744 -0.408,-0.276 -0.948,-0.276 -0.54,0 -0.948,0.276 -0.408,0.264 -0.636,0.744 -0.228,0.48 -0.228,1.104 0,0.624 0.228,1.104 0.228,0.48 0.636,0.756 0.408,0.264 0.948,0.264 z m 4.308,0.828 v -5.916 h 1.02 v 1.584 l -0.264,0.06 q 0.084,-0.528 0.396,-0.912 0.324,-0.396 0.744,-0.612 0.432,-0.216 0.84,-0.216 0.276,0 0.528,0.06 0.252,0.06 0.516,0.204 l -0.504,0.912 q -0.144,-0.072 -0.348,-0.12 -0.192,-0.048 -0.372,-0.048 -0.288,0 -0.576,0.108 -0.276,0.108 -0.504,0.336 -0.228,0.228 -0.348,0.612 -0.048,0.168 -0.084,0.444 -0.024,0.264 -0.024,0.732 v 2.772 z m 7.044,0.096 q -0.696,0 -1.224,-0.228 -0.516,-0.24 -0.864,-0.66 -0.336,-0.42 -0.516,-0.96 -0.168,-0.552 -0.168,-1.164 0,-0.612 0.168,-1.164 0.168,-0.564 0.492,-0.996 0.336,-0.432 0.84,-0.684 0.504,-0.252 1.176,-0.252 0.684,0 1.176,0.24 0.504,0.228 0.816,0.636 0.324,0.408 0.48,0.912 0.156,0.504 0.156,1.044 0,0.048 -0.012,0.228 0,0.168 -0.024,0.3 h -4.26 q 0.036,0.864 0.504,1.344 0.468,0.48 1.272,0.48 0.516,0 0.9,-0.168 0.384,-0.168 0.72,-0.54 l 0.708,0.624 q -0.324,0.348 -0.684,0.576 -0.36,0.216 -0.768,0.324 -0.396,0.108 -0.888,0.108 z m 1.524,-3.264 q 0.024,-0.096 0.024,-0.192 0.012,-0.096 0.012,-0.192 0,-0.288 -0.108,-0.576 -0.096,-0.288 -0.3,-0.516 -0.192,-0.24 -0.504,-0.372 -0.3,-0.144 -0.72,-0.144 -0.516,0 -0.888,0.24 -0.372,0.24 -0.576,0.636 -0.204,0.396 -0.24,0.876 h 3.636 z m 4.41601,3.264 q -0.6,0 -1.08,-0.18 -0.48,-0.18 -0.828,-0.48 -0.336,-0.3 -0.54,-0.636 l 0.708,-0.6 q 0.228,0.456 0.672,0.756 0.456,0.288 1.08,0.288 0.564,0 0.9,-0.24 0.336,-0.24 0.336,-0.648 0,-0.336 -0.204,-0.528 -0.204,-0.192 -0.54,-0.312 -0.336,-0.12 -0.732,-0.216 -0.336,-0.084 -0.684,-0.204 -0.336,-0.12 -0.612,-0.3 -0.276,-0.18 -0.444,-0.468 -0.168,-0.288 -0.168,-0.708 0,-0.732 0.564,-1.176 0.576,-0.456 1.5,-0.456 0.672,0 1.224,0.288 0.564,0.276 0.876,0.84 l -0.648,0.48 q -0.24,-0.42 -0.636,-0.6 -0.384,-0.192 -0.852,-0.192 -0.468,0 -0.78,0.192 -0.312,0.192 -0.312,0.528 0,0.252 0.144,0.408 0.144,0.156 0.42,0.264 0.288,0.108 0.696,0.204 0.372,0.084 0.756,0.204 0.384,0.12 0.708,0.312 0.324,0.192 0.516,0.516 0.204,0.312 0.204,0.816 0,0.552 -0.276,0.972 -0.276,0.42 -0.78,0.648 -0.504,0.228 -1.188,0.228 z m 6.17999,0 q -0.696,0 -1.224,-0.228 -0.516,-0.24 -0.864,-0.66 -0.336,-0.42 -0.516,-0.96 -0.168,-0.552 -0.168,-1.164 0,-0.612 0.168,-1.164 0.168,-0.564 0.492,-0.996 0.336,-0.432 0.84,-0.684 0.504,-0.252 1.176,-0.252 0.684,0 1.176,0.24 0.504,0.228 0.816,0.636 0.324,0.408 0.48,0.912 0.156,0.504 0.156,1.044 0,0.048 -0.012,0.228 0,0.168 -0.024,0.3 h -4.26 q 0.036,0.864 0.504,1.344 0.468,0.48 1.272,0.48 0.516,0 0.9,-0.168 0.384,-0.168 0.72,-0.54 l 0.708,0.624 q -0.324,0.348 -0.684,0.576 -0.36,0.216 -0.768,0.324 -0.396,0.108 -0.888,0.108 z m 1.524,-3.264 q 0.024,-0.096 0.024,-0.192 0.012,-0.096 0.012,-0.192 0,-0.288 -0.108,-0.576 -0.096,-0.288 -0.3,-0.516 -0.192,-0.24 -0.504,-0.372 -0.3,-0.144 -0.72,-0.144 -0.516,0 -0.888,0.24 -0.372,0.24 -0.576,0.636 -0.204,0.396 -0.24,0.876 h 3.636 z m 4.36802,3.264 q -0.42,0 -0.768,-0.156 -0.336,-0.168 -0.528,-0.528 -0.192,-0.36 -0.192,-0.924 v -5.988 l 1.032,-0.576 v 6.3 q 0,0.492 0.156,0.768 0.156,0.264 0.564,0.264 0.12,0 0.288,-0.024 0.168,-0.036 0.36,-0.084 v 0.792 q -0.228,0.084 -0.468,0.12 -0.228,0.036 -0.444,0.036 z m -2.712,-5.22 v -0.792 h 3.624 v 0.792 z"
            id="preset--ctl-label" />
      </g>
      <g id="up-down-scroll" transform="translate(186,59)">
         <path id="bar--ctl-bar" fill="none" stroke="#0278df" d="M -5.75,0 H 5 Z" />
      </g>
      <g id="g32">
         <path id="minus--ctl-label" transform="translate(171,334)" fill="#808080" d="M 10,5.25 H 2 v 1.5 h 8 z" />
         <path id="plus--ctl-label" transform="translate(189,334)" fill="#808080"
            d="M 6.75,2 H 5.25 V 5.25 H 2 v 1.5 H 5.25 V 10 h 1.5 V 6.75 H 10 V 5.25 H 6.75 Z" />
      </g>
   </g>

   <g id="small-logo" opacity="0" transform="translate(2.5, 2.5) scale(.125, .125)">
      <path id="CHEM" fill="#faa64c" stroke="#f9a54b" stroke-width="1.25" d="M 9.57155,6.8102466 C 7.5299719,6.9641606 5.817206,7.4868486 4.4334406,8.3806086 3.0619033,9.2734488 2.0516687,10.491776 1.4048649,12.033091 0.75805948,13.574385 0.51296865,15.406135 0.67188275,17.528129 l 0.54976985,7.341113 c 0.1579945,2.109718 0.6731488,3.884153 1.5431675,5.323441 0.8690998,1.427031 2.0491859,2.476751 3.5383012,3.153925 1.5004252,0.663996 3.2714337,0.919037 5.3130137,0.765124 1.687051,-0.127185 3.155406,-0.59946 4.409287,-1.421756 1.253884,-0.822296 2.257264,-1.952595 3.010135,-3.390887 0.764175,-1.451474 1.244307,-3.166409 1.440553,-5.14249 l -5.205577,0.392446 C 15.089484,25.90723 14.645159,26.981878 13.942321,27.774978 13.238567,28.5558 12.338935,28.98866 11.238682,29.071606 9.832806,29.177598 8.7054519,28.832024 7.8587493,28.0324 7.0242738,27.231857 6.5482422,26.04655 6.4306659,24.476538 L 5.8808967,17.135426 c -0.1175795,-1.570032 0.1765706,-2.813401 0.8824481,-3.730054 0.7171819,-0.929869 1.7797757,-1.449033 3.1856556,-1.55502 0.7212756,-0.05438 1.3804676,0.06253 1.9798316,0.350351 0.6116,0.28694 1.142542,0.727992 1.592816,1.323125 0.46158,0.581971 0.824846,1.313187 1.0875,2.193842 l 5.205579,-0.392445 C 19.33768,13.387591 18.615927,11.763264 17.645071,10.454923 16.686438,9.1456738 15.517576,8.1791256 14.143077,7.5549806 12.780801,6.9298966 11.258596,6.6830986 9.571545,6.8102816 Z M 23.362582,6.0480886 25.36583,32.79761 30.389179,32.418903 29.577699,21.583165 39.149908,20.861522 39.961385,31.697259 44.98817,31.318293 42.984921,4.5687716 37.958139,4.9477376 38.786151,16.004246 29.213942,16.725889 28.38593,5.6693826 Z m 25.488072,-1.921532 2.003248,26.7495214 17.861931,-1.346601 -0.363755,-4.857279 -12.835151,0.967637 -0.449014,-5.9957 10.816873,-0.815478 -0.363755,-4.857277 -10.816873,0.815478 -0.462965,-6.1819914 12.835151,-0.967634 -0.363758,-4.857277 z m 22.445179,-1.692129 2.003246,26.7495204 4.566053,-0.344231 -1.396383,-18.646011 6.089927,15.294737 4.435398,-0.334382 3.716989,-16.3914044 1.422993,19.0013344 4.566035,-0.34423 L 94.696844,0.67023864 88.074707,1.1694776 84.346479,19.580833 77.917982,1.9351876 Z" />
      <path id="hex" fill="none" stroke="#f9a54b" stroke-width="2.5" d="M 75.274,41.479089 61.021074,45.456299 57.33869,59.788464 67.909232,70.143418 82.162158,66.166796 85.844539,51.834631 Z" />
   </g>

   <g id="g16" transform="translate(84.5, 2.5)">
      <path fill="#f9a54b"
         d="m 0,0.21533203 h 1.125 q 0.953613,0 1.538086,0.44824219 0.584472,0.44824218 0.584472,1.16455078 0,0.7207031 -0.619629,1.2084961 -0.615234,0.487793 -1.87207,0.4746094 V 5.8139648 H 0 Z M 0.755859,0.88330078 V 2.8432617 Q 1.617187,2.8344717 2.030273,2.6015625 2.447754,2.3642578 2.447754,1.8457031 2.447754,1.4545898 2.131347,1.1689453 1.819336,0.88330078 0.755859,0.88330078 Z M 12.429687,0.21533203 h 0.75586 V 5.0581055 h 1.82373 v 0.7558593 h -2.57959 z M 25.870117,0 28.515625,5.8139648 H 27.71582 L 27.061035,4.3813476 h -2.377442 l -0.637207,1.4326172 h -0.79541 z m 0,1.753418 -0.900879,1.9907226 h 1.801758 z M 36.335449,0.21533203 h 0.848144 l 1.375489,2.24999997 1.35791,-2.24999997 h 0.848144 L 38.928222,3.2475586 V 5.8139648 H 38.163574 V 3.2563476 Z"
         id="PLAY--new-title" />
   </g>
   <path id="th" stroke="#f9a54b" stroke-width=".25" d="M 5,6.25 h 64 M 205,6.25 h -64" />
</svg>