<?xml version="1.0" encoding="UTF-8" standalone="no"?>
<svg width="165" height="380" viewBox="0 0 165 380" version="1.1" id="svg2" sodipodi:docname="CHEM-fx.svg"
   inkscape:version="1.3.2 (091e20e, 2023-11-25, custom)" xmlns:inkscape="http://www.inkscape.org/namespaces/inkscape"
   xmlns:sodipodi="http://sodipodi.sourceforge.net/DTD/sodipodi-0.dtd" xmlns:xlink="http://www.w3.org/1999/xlink"
   xmlns="http://www.w3.org/2000/svg" xmlns:svg="http://www.w3.org/2000/svg">
   <sodipodi:namedview id="namedview2" pagecolor="#ffffff" bordercolor="#666666" borderopacity="1.0"
      inkscape:showpageshadow="2" inkscape:pageopacity="0.0" inkscape:pagecheckerboard="0" inkscape:deskcolor="#d1d1d1"
      showguides="true" inkscape:zoom="18.894737" inkscape:cx="32.813371" inkscape:cy="18.44429"
      inkscape:window-width="3840" inkscape:window-height="2054" inkscape:window-x="3829" inkscape:window-y="-11"
      inkscape:window-maximized="1" inkscape:current-layer="svg2">
      <sodipodi:guide position="82.515715,331.1296" orientation="1,0" id="guide2" inkscape:locked="false" />
   </sodipodi:namedview>
   <defs id="defs2">
      <linearGradient id="section-stops">
         <stop offset="0" stop-color="#282828" />
         <stop offset="1" stop-color="#181818" />
      </linearGradient>
      <linearGradient id="top-gradient" x1="0" y1="0" x2="0" y2="276" xlink:href="#section-stops"
         gradientUnits="userSpaceOnUse" />
      <linearGradient id="inp-gradient" x1="0" y1="0" x2="0" y2="100" xlink:href="#section-stops"
         gradientUnits="userSpaceOnUse" />
   </defs>
   <g id="g1">
      <rect id="top--sctn" fill="url(#top-gradient)" x="7.0556638e-08" y="0" width="165.5" height="276" />
      <rect id="inp--sctn" fill="url(#inp-gradient)" x="7.0556638e-08" y="280" width="165.5" height="100" />
      <g transform="translate(0,276)" id="separator2">
         <path id="2--d0" stroke="#202020" stroke-width="1" d="M 0,0.5 H 165" />
         <path id="2--d1" stroke="#161616" stroke-width="1" d="M 0,1.5 H 165" />
         <path id="2--d2" stroke="#101010" stroke-width="1" d="M 0,2.5 H 165" />
         <path id="2--d3" stroke="#404040" stroke-width="1" d="M 0,3.5 H 165" />
      </g>
      <circle id="light" cx="116" cy="58" r="5" fill="#20415f" stroke="#333333" stroke-width="1" />
      <g id="inputs">
         <path id="MX--in-label" fill="#737373"
            d="m 13.957475,301.79225 h 1.96875 l 1.44141,4.61133 1.4414,-4.61133 h 1.9043 l 0.98438,7.69336 h -1.58204 l -0.67382,-5.41406 -1.69336,5.41406 h -0.75586 l -1.73438,-5.46094 -0.63867,5.46094 h -1.60547 z m 8.8711,0 h 1.65234 v 7.69336 h -1.65234 z m 2.88867,0 h 1.76367 l 1.54687,2.35547 1.59961,-2.35547 h 1.71094 l -2.43164,3.66211 2.67188,4.03125 h -1.7168 l -1.82227,-2.73633 -1.82226,2.73633 h -1.75196 l 2.70118,-4.01953 z" />
         <path id="R1--in-label" fill="#737373"
            d="m 56.999263,292.77396 v -8.364 h 2.675993 q 0.995997,0 1.619995,0.3 0.623999,0.288 0.911998,0.828 0.299999,0.54 0.299999,1.272 0,1.116 -0.647998,1.74 -0.635998,0.612 -1.823995,0.708 -0.24,0 -0.515999,0 -0.275999,0 -0.491999,0 h -0.635998 v 3.516 z m 4.583988,0 -2.123995,-3.672 1.427996,-0.168 2.303994,3.84 z m -3.191992,-4.74 h 1.139997 q 0.455999,0 0.803998,-0.108 0.359999,-0.108 0.563998,-0.372 0.216,-0.264 0.216,-0.732 0,-0.468 -0.216,-0.72 -0.203999,-0.252 -0.563998,-0.348 -0.359999,-0.108 -0.803998,-0.108 h -1.139997 z m 8.375978,4.74 v -6.66 l 0.395999,0.672 h -2.555993 v -1.068 h 1.343995 q 0.408,0 0.612,-0.168 0.203999,-0.168 0.203999,-0.6 v -0.54 h 1.331996 v 8.364 z" />
         <path id="R2--in-label" fill="#737373"
            d="m 95.54916,292.77396 v -8.364 h 2.675993 q 0.995991,0 1.619991,0.3 0.623996,0.288 0.911996,0.828 0.3,0.54 0.3,1.272 0,1.116 -0.648,1.74 -0.635996,0.612 -1.823988,0.708 -0.239999,0 -0.515998,0 -0.276,0 -0.491999,0 h -0.635998 v 3.516 z m 4.58398,0 -2.123986,-3.672 1.42799,-0.168 2.303996,3.84 z m -3.191983,-4.74 h 1.139997 q 0.455998,0 0.803998,-0.108 0.359992,-0.108 0.563992,-0.372 0.216,-0.264 0.216,-0.732 0,-0.468 -0.216,-0.72 -0.204,-0.252 -0.563992,-0.348 -0.359999,-0.108 -0.803998,-0.108 h -1.139997 z m 5.555973,4.74 v -1.032 q 0.396,-0.3 0.924,-0.684 0.528,-0.384 1.068,-0.84 0.552,-0.456 1.02,-0.972 0.46799,-0.528 0.75599,-1.092 0.3,-0.564 0.3,-1.164 0,-0.6 -0.324,-0.984 -0.32399,-0.396 -0.99599,-0.396 -0.516,0 -0.84,0.252 -0.324,0.252 -0.48,0.672 -0.156,0.408 -0.168,0.888 l -1.308,-0.108 q 0,-0.576 0.18,-1.104 0.192,-0.54 0.552,-0.96 0.36,-0.432 0.888,-0.672 0.528,-0.252 1.212,-0.252 0.76799,0 1.34399,0.324 0.588,0.324 0.912,0.912 0.336,0.588 0.336,1.38 0,0.648 -0.228,1.248 -0.216,0.6 -0.624,1.152 -0.396,0.54 -0.936,1.032 -0.53999,0.48 -1.17599,0.912 -0.636,0.42 -1.344,0.768 l 0.348,-0.516 h 4.29599 v 1.236 z" />
         <path id="R3--in-label" fill="#737373"
            d="m 135.7251,292.79796 v -8.364 h 2.67599 q 0.996,0 1.62,0.3 0.62399,0.288 0.91199,0.828 0.3,0.54 0.3,1.272 0,1.116 -0.648,1.74 -0.63599,0.612 -1.82399,0.708 -0.24,0 -0.516,0 -0.276,0 -0.492,0 h -0.636 v 3.516 z m 4.58399,0 -2.124,-3.672 1.428,-0.168 2.30399,3.84 z m -3.192,-4.74 h 1.14 q 0.456,0 0.804,-0.108 0.36,-0.108 0.564,-0.372 0.216,-0.264 0.216,-0.732 0,-0.468 -0.216,-0.72 -0.204,-0.252 -0.564,-0.348 -0.36,-0.108 -0.804,-0.108 h -1.14 z m 8.33999,4.848 q -0.924,0 -1.61999,-0.336 -0.696,-0.348 -1.08,-0.96 -0.384,-0.612 -0.384,-1.428 l 1.332,-0.084 q 0,0.696 0.492,1.116 0.49199,0.408 1.29599,0.408 0.54,0 0.912,-0.156 0.384,-0.168 0.576,-0.48 0.204,-0.312 0.204,-0.732 0,-0.372 -0.156,-0.624 -0.156,-0.252 -0.444,-0.396 -0.276,-0.156 -0.684,-0.216 -0.396,-0.072 -0.888,-0.072 v -1.056 q 0.348,0 0.66,-0.06 0.312,-0.06 0.54,-0.192 0.24,-0.144 0.372,-0.36 0.132,-0.228 0.132,-0.564 0,-0.336 -0.168,-0.588 -0.156,-0.252 -0.444,-0.384 -0.276,-0.144 -0.66,-0.144 -0.648,0 -1.008,0.348 -0.35999,0.348 -0.37199,0.912 l -1.308,-0.084 q 0,-0.72 0.348,-1.272 0.348,-0.552 0.96,-0.864 0.62399,-0.312 1.41599,-0.312 0.756,0 1.332,0.288 0.576,0.288 0.9,0.792 0.336,0.504 0.336,1.176 0,0.312 -0.084,0.576 -0.084,0.264 -0.252,0.48 -0.156,0.204 -0.372,0.36 -0.216,0.156 -0.468,0.264 0.348,0.108 0.648,0.276 0.3,0.168 0.516,0.42 0.22799,0.252 0.34799,0.576 0.132,0.324 0.132,0.732 0,0.78 -0.384,1.38 -0.38399,0.588 -1.07999,0.924 -0.684,0.336 -1.596,0.336 z" />
         <path id="R4--in-label" fill="#737373"
            d="m 56.039265,329.48862 v -8.364 h 2.675993 q 0.995998,0 1.619996,0.3 0.623998,0.288 0.911998,0.828 0.299999,0.54 0.299999,1.272 0,1.116 -0.647999,1.74 -0.635998,0.612 -1.823995,0.708 -0.239999,0 -0.515998,0 -0.276,0 -0.491999,0 h -0.635998 v 3.516 z m 4.583988,0 -2.123994,-3.672 1.427996,-0.168 2.303994,3.84 z m -3.191991,-4.74 h 1.139997 q 0.455998,0 0.803997,-0.108 0.36,-0.108 0.563999,-0.372 0.215999,-0.264 0.215999,-0.732 0,-0.468 -0.215999,-0.72 -0.203999,-0.252 -0.563999,-0.348 -0.359999,-0.108 -0.803997,-0.108 h -1.139997 z m 8.963976,4.74 v -1.98 h -3.79199 v -1.032 l 3.93599,-5.352 h 1.187996 v 5.148 h 1.331997 v 1.236 h -1.331997 v 1.98 z m -2.735993,-2.748 -0.048,-0.468 h 2.783993 v -3.792 l 0.168,0.168 z" />
         <path id="R5--in-label" fill="#737373"
            d="m 95.912169,329.43463 v -8.364 h 2.675993 q 0.995992,0 1.619988,0.3 0.624,0.288 0.912,0.828 0.3,0.54 0.3,1.272 0,1.116 -0.648,1.74 -0.636,0.612 -1.823993,0.708 -0.239995,0 -0.515994,0 -0.276,0 -0.491999,0 h -0.635998 v 3.516 z m 4.583981,0 -2.123987,-3.672 1.427991,-0.168 2.303996,3.84 z m -3.191984,-4.74 h 1.139997 q 0.455999,0 0.803991,-0.108 0.36,-0.108 0.564,-0.372 0.215996,-0.264 0.215996,-0.732 0,-0.468 -0.215996,-0.72 -0.204,-0.252 -0.564,-0.348 -0.359992,-0.108 -0.803991,-0.108 h -1.139997 z m 8.363974,4.848 q -0.768,0 -1.416,-0.324 -0.636,-0.336 -1.056,-0.9 -0.408,-0.564 -0.516,-1.272 l 1.308,-0.228 q 0.048,0.36 0.252,0.708 0.204,0.336 0.564,0.54 0.36,0.204 0.852,0.204 0.55199,0 0.91199,-0.252 0.36,-0.252 0.54,-0.648 0.18,-0.408 0.18,-0.84 0,-0.42 -0.18,-0.78 -0.168,-0.36 -0.516,-0.576 -0.348,-0.216 -0.89999,-0.216 -0.504,0 -0.876,0.228 -0.372,0.228 -0.624,0.588 l -1.26,-0.324 0.804,-4.38 h 4.58399 v 1.236 h -4.09199 l 0.708,-0.552 -0.552,2.94 -0.408,-0.096 q 0.468,-0.54 0.96,-0.708 0.504,-0.18 0.948,-0.18 0.82799,0 1.46399,0.384 0.636,0.384 0.984,1.032 0.36,0.648 0.36,1.404 0,0.6 -0.216,1.14 -0.216,0.54 -0.624,0.972 -0.408,0.42 -0.972,0.66 -0.552,0.24 -1.21199,0.24 z" />
         <path id="R6--in-label" fill="#737373"
            d="m 135.72508,329.45863 v -8.364 h 2.67599 q 0.996,0 1.62,0.3 0.62399,0.288 0.91199,0.828 0.3,0.54 0.3,1.272 0,1.116 -0.648,1.74 -0.63599,0.612 -1.82399,0.708 -0.24,0 -0.516,0 -0.276,0 -0.492,0 h -0.636 v 3.516 z m 4.58399,0 -2.124,-3.672 1.428,-0.168 2.30399,3.84 z m -3.192,-4.74 h 1.14 q 0.456,0 0.804,-0.108 0.36,-0.108 0.564,-0.372 0.216,-0.264 0.216,-0.732 0,-0.468 -0.216,-0.72 -0.204,-0.252 -0.564,-0.348 -0.36,-0.108 -0.804,-0.108 h -1.14 z m 9.73199,-3.624 -2.088,3.252 -0.168,-0.216 q 0.24,-0.12 0.48,-0.18 0.24,-0.06 0.48,-0.06 0.804,0 1.44,0.372 0.648,0.372 1.02,1.008 0.37199,0.636 0.37199,1.416 0,0.84 -0.41999,1.488 -0.408,0.648 -1.092,1.02 -0.672,0.372 -1.5,0.372 -0.816,0 -1.51199,-0.372 -0.684,-0.372 -1.092,-1.02 -0.408,-0.648 -0.408,-1.476 0,-0.408 0.12,-0.804 0.132,-0.396 0.336,-0.756 l 2.50799,-4.044 z m -1.476,3.972 q -0.444,0 -0.828,0.204 -0.37199,0.204 -0.59999,0.576 -0.228,0.36 -0.228,0.84 0,0.48 0.228,0.852 0.228,0.36 0.59999,0.564 0.372,0.204 0.828,0.204 0.468,0 0.84,-0.204 0.372,-0.204 0.588,-0.564 0.228,-0.372 0.228,-0.852 0,-0.48 -0.228,-0.84 -0.216,-0.372 -0.588,-0.576 -0.372,-0.204 -0.84,-0.204 z" />
      </g>
   </g>

   <g id="FX" transform="translate(76, 3.5)">
      <path id="FX--new-title" fill="#f9a54b"
         d="M 0,0 H 3.102539 V 0.764648 H 0.75586 v 1.397461 h 2.346679 v 0.75586 H 0.764649 V 5.598633 H 0 Z m 11.788086,0 h 0.84375 L 13.884278,2.043457 15.119141,0 h 0.852539 l -1.665527,2.737793 1.713867,2.86084 H 15.171875 L 13.884278,3.449707 12.579102,5.598633 h -0.852539 l 1.727051,-2.86084 z" />
   </g>
   <path id="th" stroke="#f9a54b" stroke-width=".25" d="M 5,6.25 h 61.5 M 160, 6.25 h -61.5" />
</svg>