<?xml version="1.0" encoding="UTF-8" standalone="no"?>
<svg
   width="165"
   height="380"
   viewBox="0 0 165 380"
   version="1.1"
   id="svg6"
   sodipodi:docname="CHEM-core.svg"
   inkscape:version="1.3.2 (091e20e, 2023-11-25, custom)"
   xmlns:inkscape="http://www.inkscape.org/namespaces/inkscape"
   xmlns:sodipodi="http://sodipodi.sourceforge.net/DTD/sodipodi-0.dtd"
   xmlns:xlink="http://www.w3.org/1999/xlink"
   xmlns="http://www.w3.org/2000/svg"
   xmlns:svg="http://www.w3.org/2000/svg">
  <sodipodi:namedview
     id="namedview6"
     pagecolor="#ffffff"
     bordercolor="#666666"
     borderopacity="1.0"
     inkscape:showpageshadow="2"
     inkscape:pageopacity="0.0"
     inkscape:pagecheckerboard="0"
     inkscape:deskcolor="#d1d1d1"
     inkscape:zoom="4.5921053"
     inkscape:cx="82.532951"
     inkscape:cy="190"
     inkscape:window-width="3840"
     inkscape:window-height="2054"
     inkscape:window-x="3829"
     inkscape:window-y="-11"
     inkscape:window-maximized="1"
     inkscape:current-layer="svg6" />
  <defs
     id="defs2">
    <linearGradient id="section-stops">
      <stop offset="0" stop-color="#282828" />
      <stop offset="1" stop-color="#181818" />
    </linearGradient>
    <linearGradient
       id="top-gradient"
       x1="0"
       y1="0"
       x2="0"
       y2="172"
       xlink:href="#section-stops"
       gradientUnits="userSpaceOnUse" />
    <linearGradient
       id="m-gradient"
       x1="0"
       y1="0"
       x2="0"
       y2="170"
       xlink:href="#section-stops"
       gradientUnits="userSpaceOnUse"
       gradientTransform="matrix(1,0,0,0.99415205,0,2.9941521)" />
    <linearGradient
       id="foot-gradient"
       x1="0"
       y1="0"
       x2="0"
       y2="32"
       xlink:href="#section-stops"
       gradientUnits="userSpaceOnUse"
       gradientTransform="matrix(1,0,0,0.89610398,0,40.428547)" />
  </defs>
  <rect
     id="g-top--sctn"
     fill="url(#top-gradient)"
     x="0"
     y="0"
     width="165.5"
     height="168" />
  <g
     transform="translate(0,168)"
     id="g2">
    <path
       id="1--d0"
       stroke="#202020"
       stroke-width="1"
       d="m 0,0.5 h 165" />
    <path
       id="1--d1"
       stroke="#161616"
       stroke-width="1"
       d="m 0,1.5 h 165" />
    <path
       id="1--d2"
       stroke="#101010"
       stroke-width="1"
       d="m 0,2.5 h 165" />
    <path
       id="1--d3"
       stroke="#404040"
       stroke-width="1"
       d="m 0,3.5 h 165" />
  </g>
  <rect
     id="g-m--sctn"
     fill="url(#m-gradient)"
     x="0"
     y="172"
     width="165.5"
     height="170"
     style="display:inline;fill:url(#m-gradient);stroke-width:1" />
  <g
     transform="translate(0,342)"
     id="g5">
    <path
       id="2--d0"
       stroke="#202020"
       stroke-width="1"
       d="m 0,0.5 h 165" />
    <path
       id="2--d1"
       stroke="#161616"
       stroke-width="1"
       d="m 0,1.5 h 165" />
    <path
       id="2--d2"
       stroke="#101010"
       stroke-width="1"
       d="m 0,2.5 h 165" />
    <path
       id="2--d3"
       stroke="#404040"
       stroke-width="1"
       d="m 0,3.5 h 165" />
  </g>
  <rect
     id="g-foot--sctn"
     fill="url(#foot-gradient)"
     x="0"
     y="346"
     width="165.5"
     height="34.5" />
  <g
     id="logo"
     transform="translate(32,20)"
     style="display:inline">
    <path
       id="pachde"
       fill="#f9a54b"
       d="m 39.404297,23.550781 -2.800781,5.539063 -4.800782,-1.285156 -0.912109,3.410156 4.072266,1.089844 -2.0625,4.097656 -3.173829,-0.84961 -0.914062,3.410157 2.447266,0.65625 -2.804688,5.539062 3.410156,0.916016 2.804688,-5.542969 5.191406,1.392578 -2.802734,5.541016 3.408203,0.912109 2.802734,-5.539062 4.798828,1.283203 0.914063,-3.408203 -4.087891,-1.09375 2.076172,-4.095703 3.175781,0.851562 0.91211,-3.410156 -2.462891,-0.660156 2.804688,-5.542969 -3.394532,-0.910157 -2.820312,5.53711 L 39.994141,30 42.814453,24.462891 Z m 24.880859,1.234375 -0.941406,3.517578 2.380859,0.640625 -1.298828,4.845703 c -0.786379,-1.687788 -2.069798,-2.771061 -3.849609,-3.25 -1.85092,-0.49567 -3.624159,-0.147196 -5.320313,1.044922 -1.69197,1.181661 -2.837396,2.88758 -3.435547,5.119141 -0.587693,2.198099 -0.461574,4.238802 0.375,6.121094 0.838666,1.882291 2.208123,3.079534 4.111329,3.589843 1.58949,0.426654 3.245545,0.142008 4.966797,-0.853515 l -0.486329,1.816406 7.384766,1.978516 0.945313,-3.519531 -2.509766,-0.671876 4.9375,-18.433593 z m -25.912109,8.433594 5.191406,1.388672 -2.076172,4.097656 -5.195312,-1.392578 z m 21.828125,1.507812 c 0.224698,0.01007 0.456366,0.04754 0.695312,0.111329 0.80102,0.215418 1.428971,0.715573 1.882813,1.501953 0.464298,0.790562 0.500474,1.916993 0.109375,3.378906 -0.382733,1.432633 -0.971018,2.386573 -1.763672,2.861328 -0.780105,0.468481 -1.573427,0.594462 -2.382812,0.376953 C 57.763395,42.69351 57.119941,42.103549 56.8125,41.1875 c -0.303283,-0.928597 -0.301443,-1.967175 0.0039,-3.113281 0.324173,-1.20885 0.841509,-2.112649 1.554688,-2.712891 0.545864,-0.453318 1.155982,-0.664961 1.830078,-0.634766 z" />
    <path
       id="hexoid"
       fill="#f9a54b"
       d="M 62.846577,-4e-7 13.123024,13.87512 0.27645025,63.875121 37.153432,100 86.876988,86.12693 l 12.846562,-50 z M 50.000003,11.409473 c 9.326229,0 17.870198,3.291502 24.534513,8.779162 l 4.675179,4.58168 C 85.052538,31.53172 88.590537,40.342354 88.590537,50 c 0,2.241993 -0.199831,4.435404 -0.565088,6.57168 l -1.57126,6.116357 C 82.691068,73.530977 74.242038,82.161032 63.513298,86.161482 l -6.211887,1.733875 c -2.36446,0.451221 -4.803582,0.69518 -7.301408,0.69518 -9.32828,0 -17.87362,-3.293395 -24.538579,-8.783231 L 20.790313,75.231735 C 14.947152,68.470226 11.409469,59.657938 11.409469,50 c 0,-2.241983 0.199829,-4.435394 0.565087,-6.571669 l 1.571267,-6.112289 C 17.310819,26.464746 25.767549,17.827853 36.507037,13.830389 l 6.163104,-1.719648 c 2.373312,-0.454749 4.822029,-0.701268 7.329862,-0.701268 z" />
    <path
       id="CHEM"
       fill="#f9a54b"
       d="m 28.542236,53.421572 c -1.206961,0 -2.236858,0.230596 -3.089682,0.69314 -0.845595,0.462545 -1.49312,1.131758 -1.941214,2.006267 -0.448094,0.874498 -0.672819,1.936922 -0.672819,3.187251 v 4.325555 c 0,1.243095 0.224725,2.305519 0.672819,3.187251 0.448094,0.874508 1.095619,1.541682 1.941214,2.004226 0.852824,0.455322 1.882721,0.682983 3.089682,0.682983 0.99737,0 1.881365,-0.211852 2.654688,-0.638262 0.773323,-0.42641 1.412943,-1.044347 1.918856,-1.85381 0.513138,-0.816685 0.870893,-1.800284 1.073258,-2.949432 h -3.077487 c -0.166228,0.787784 -0.474745,1.397811 -0.922839,1.831454 -0.448093,0.42641 -0.996017,0.640291 -1.646476,0.640291 -0.831141,0 -1.478666,-0.252274 -1.941214,-0.758185 C 26.145701,65.274389 25.91804,64.558873 25.91804,63.633785 V 59.30823 c 0,-0.925099 0.227661,-1.640615 0.682982,-2.146516 0.462548,-0.513145 1.110073,-0.770394 1.941214,-0.770394 0.426412,0 0.808785,0.09762 1.148468,0.292707 0.346911,0.195138 0.639619,0.47701 0.87812,0.845597 0.245729,0.361374 0.42709,0.805852 0.542727,1.333442 h 3.077487 c -0.195138,-1.156361 -0.547924,-2.13996 -1.061063,-2.949422 -0.505912,-0.809453 -1.150501,-1.4274 -1.931051,-1.85381 -0.773323,-0.42642 -1.657318,-0.638262 -2.654688,-0.638262 z m 8.140906,0.162615 V 69.34563 h 2.969754 v -6.38467 h 5.658997 v 6.38467 h 2.971785 V 53.584187 h -2.971785 v 6.514752 h -5.658997 v -6.514752 z m 15.068299,0 V 69.34563 h 10.559801 v -2.862022 h -7.588016 v -3.532806 h 6.39483 v -2.862021 h -6.39483 v -3.642573 h 7.588016 v -2.862021 z m 13.269371,0 V 69.34563 h 2.699406 V 58.358965 l 2.90674,9.230424 h 2.622165 L 76.155867,58.1496 v 11.19603 h 2.699396 V 53.584187 H 74.940319 L 71.93804,64.207001 68.935763,53.584187 Z" />
  </g>
  <g
     transform="translate(40,200)"
     id="g6"
     style="display:inline">
    <path
       id="HAKEN--ctl-label"
       fill="#a6a6a6"
       d="M 6.1035156e-8,11.152 V 4.2724609e-7 H 1.4080001 V 4.7840004 h 5.504 V 4.2724609e-7 h 1.408 V 11.152 h -1.408 V 6.0960004 h -5.504 V 11.152 Z M 9.855992,11.152 14.111992,4.2724609e-7 h 1.12 L 19.487992,11.152 h -1.536 l -3.264,-9.1359996 -3.28,9.1359996 z m 2.368,-2.6239996 0.432,-1.264 h 4.032 l 0.464,1.264 z m 9.919986,-0.928 v -1.792 L 27.695978,4.2724609e-7 h 1.888 z M 21.039978,11.152 V 4.2724609e-7 h 1.408 V 11.152 Z m 6.928,0 -3.792,-5.9999996 1.056,-0.976 4.384,6.9759996 z m 3.216013,0 V 4.2724609e-7 h 7.344 V 1.2640004 h -5.936 v 3.568 h 5.392 v 1.264 h -5.392 v 3.792 h 5.936 V 11.152 Z m 9.359985,0 V 4.2724609e-7 h 1.488 L 47.743976,9.3280004 h -0.32 V 4.2724609e-7 h 1.408 V 11.152 h -1.52 l -5.68,-9.3439996 h 0.32 V 11.152 Z" />
    <path
       id="MIDI1--ctl-label"
       transform="translate(0,42)"
       fill="#a6a6a6"
       d="M 6.1035156e-8,11.152 V 0 H 2.0800001 l 3.504,8.816 h -0.256 L 8.8320001,0 H 10.896 V 11.152 H 9.4880001 v -9.52 l 0.112,0.016 -3.456,8.56 h -1.376 l -3.472,-8.56 0.112,-0.016 v 9.52 z M 13.424011,11.152 V 0 h 1.408 v 11.152 z m 3.936005,0 V 0 h 3.088 q 2.736,0 4.24,1.488 1.504,1.472 1.504,4.176 0,2.656 -1.488,4.08 -1.488,1.408 -4.272,1.408 z m 1.408,-1.296 h 1.536 q 1.424,0 2.416,-0.416 1.008,-0.432 1.52,-1.36 0.528,-0.944 0.528,-2.464 0,-1.52 -0.528,-2.464 -0.512,-0.96 -1.488,-1.408 -0.96,-0.448 -2.32,-0.448 h -1.664 z m 9.503987,1.296 V 0 h 1.408 v 11.152 z m 11.488009,0 V 2.16 l 0.416,0.704 h -3.328 V 1.776 h 1.936 q 0.48,0 0.72,-0.208 0.256,-0.208 0.256,-0.72 V 0 h 1.36 v 11.152 z" />
    <path
       id="MIDI2--ctl-label"
       transform="translate(0,84)"
       fill="#a6a6a6"
       d="M 6.1035156e-8,11.264 V 0.112 H 2.0800001 l 3.504,8.816 h -0.256 l 3.504,-8.816 H 10.896 V 11.264 H 9.4880001 v -9.52 l 0.112,0.016 -3.456,8.56 h -1.376 l -3.472,-8.56 0.112,-0.016 v 9.52 z M 13.424011,11.264 V 0.112 h 1.408 v 11.152 z m 3.936005,0 V 0.112 h 3.088 q 2.736,0 4.24,1.488 1.504,1.472 1.504,4.176 0,2.656 -1.488,4.08 -1.488,1.408 -4.272,1.408 z m 1.408,-1.296 h 1.536 q 1.424,0 2.416,-0.416 1.008,-0.432 1.52,-1.36 0.528,-0.944 0.528,-2.464 0,-1.52 -0.528,-2.464 -0.512,-0.96 -1.488,-1.408 -0.96,-0.448 -2.32,-0.448 h -1.664 z m 9.503987,1.296 V 0.112 h 1.408 v 11.152 z m 7.600009,0 v -1.12 q 0.56,-0.448 1.296,-0.992 0.752,-0.544 1.504,-1.184 0.768,-0.64 1.408,-1.36 0.656,-0.72 1.056,-1.52 0.4,-0.8 0.4,-1.648 0,-0.944 -0.528,-1.536 -0.528,-0.592 -1.552,-0.592 -0.752,0 -1.264,0.352 -0.496,0.336 -0.752,0.944 -0.24,0.592 -0.256,1.36 l -1.328,-0.096 q 0,-0.784 0.24,-1.472 0.24,-0.704 0.704,-1.232 0.464,-0.544 1.136,-0.848 0.688,-0.32 1.568,-0.32 1.008,0 1.76,0.432 0.752,0.416 1.168,1.184 0.432,0.752 0.432,1.776 0,0.896 -0.336,1.728 -0.32,0.832 -0.912,1.584 -0.576,0.752 -1.328,1.424 -0.752,0.672 -1.6,1.264 -0.848,0.592 -1.728,1.088 l 0.352,-0.48 h 6 v 1.264 z" />
  </g>

   <g id="small-logo" opacity="0" transform="translate(2.5, 2.5) scale(.125, .125)">
      <path id="CHEM" fill="#faa64c" stroke="#f9a54b" stroke-width="1.25" d="M 9.57155,6.8102466 C 7.5299719,6.9641606 5.817206,7.4868486 4.4334406,8.3806086 3.0619033,9.2734488 2.0516687,10.491776 1.4048649,12.033091 0.75805948,13.574385 0.51296865,15.406135 0.67188275,17.528129 l 0.54976985,7.341113 c 0.1579945,2.109718 0.6731488,3.884153 1.5431675,5.323441 0.8690998,1.427031 2.0491859,2.476751 3.5383012,3.153925 1.5004252,0.663996 3.2714337,0.919037 5.3130137,0.765124 1.687051,-0.127185 3.155406,-0.59946 4.409287,-1.421756 1.253884,-0.822296 2.257264,-1.952595 3.010135,-3.390887 0.764175,-1.451474 1.244307,-3.166409 1.440553,-5.14249 l -5.205577,0.392446 C 15.089484,25.90723 14.645159,26.981878 13.942321,27.774978 13.238567,28.5558 12.338935,28.98866 11.238682,29.071606 9.832806,29.177598 8.7054519,28.832024 7.8587493,28.0324 7.0242738,27.231857 6.5482422,26.04655 6.4306659,24.476538 L 5.8808967,17.135426 c -0.1175795,-1.570032 0.1765706,-2.813401 0.8824481,-3.730054 0.7171819,-0.929869 1.7797757,-1.449033 3.1856556,-1.55502 0.7212756,-0.05438 1.3804676,0.06253 1.9798316,0.350351 0.6116,0.28694 1.142542,0.727992 1.592816,1.323125 0.46158,0.581971 0.824846,1.313187 1.0875,2.193842 l 5.205579,-0.392445 C 19.33768,13.387591 18.615927,11.763264 17.645071,10.454923 16.686438,9.1456738 15.517576,8.1791256 14.143077,7.5549806 12.780801,6.9298966 11.258596,6.6830986 9.571545,6.8102816 Z M 23.362582,6.0480886 25.36583,32.79761 30.389179,32.418903 29.577699,21.583165 39.149908,20.861522 39.961385,31.697259 44.98817,31.318293 42.984921,4.5687716 37.958139,4.9477376 38.786151,16.004246 29.213942,16.725889 28.38593,5.6693826 Z m 25.488072,-1.921532 2.003248,26.7495214 17.861931,-1.346601 -0.363755,-4.857279 -12.835151,0.967637 -0.449014,-5.9957 10.816873,-0.815478 -0.363755,-4.857277 -10.816873,0.815478 -0.462965,-6.1819914 12.835151,-0.967634 -0.363758,-4.857277 z m 22.445179,-1.692129 2.003246,26.7495204 4.566053,-0.344231 -1.396383,-18.646011 6.089927,15.294737 4.435398,-0.334382 3.716989,-16.3914044 1.422993,19.0013344 4.566035,-0.34423 L 94.696844,0.67023864 88.074707,1.1694776 84.346479,19.580833 77.917982,1.9351876 Z" />
      <path id="hex" fill="none" stroke="#f9a54b" stroke-width="2.5" d="M 75.274,41.479089 61.021074,45.456299 57.33869,59.788464 67.909232,70.143418 82.162158,66.166796 85.844539,51.834631 Z" />
   </g>

   <g id="CORE" transform="translate(60,3.5)">
      <path fill="#f9a54b"
         d="M 4.794434,0.369141 V 1.234864 Q 3.88916,0.791016 3.128906,0.791016 q -0.975586,0 -1.643554,0.632813 -0.667969,0.628418 -0.667969,1.546875 0,0.936035 0.681152,1.564453 0.685547,0.624023 1.713867,0.624023 0.747071,0 1.582032,-0.470215 V 5.563477 Q 4.03418,5.967774 3.146484,5.967774 1.845703,5.967774 0.922852,5.088868 0,4.205567 0,2.961914 0,1.740235 0.905273,0.870118 1.814941,0 3.09375,0 3.915527,0 4.794434,0.369141 Z m 8.676757,2.575195 q 0,-1.21289 0.914063,-2.078613 Q 15.299316,0 16.58252,0 q 1.252441,0 2.157714,0.874512 0.905274,0.870117 0.905274,2.069824 0,1.27002 -0.896485,2.148926 -0.892089,0.874512 -2.192871,0.874512 -1.283203,0 -2.184082,-0.883301 -0.900879,-0.883301 -0.900879,-2.140137 z m 5.361329,0.03516 q 0,-0.927246 -0.667969,-1.560059 -0.667969,-0.637207 -1.643555,-0.637207 -0.927246,0 -1.59082,0.645996 -0.65918,0.645996 -0.65918,1.55127 0,0.918457 0.676758,1.555664 0.681152,0.632812 1.665527,0.632812 0.905274,0 1.560059,-0.645996 0.65918,-0.650391 0.65918,-1.54248 z m 9.929199,-2.799317 h 1.21289 q 0.905274,0 1.472168,0.452637 0.571289,0.448242 0.571289,1.151367 0,0.5625 -0.36914,0.993164 -0.369141,0.430664 -1.151367,0.606445 l 1.630371,2.39502 H 31.253418 L 29.697754,3.476078 h -0.171387 v 2.302734 h -0.764648 z m 0.764648,0.676758 v 1.951172 q 1.691895,0.03516 1.691895,-0.979981 0,-0.355957 -0.197754,-0.580078 -0.197754,-0.228515 -0.527344,-0.307617 -0.32959,-0.0835 -0.966797,-0.0835 z M 41.081543,0.180179 h 3.102539 v 0.764649 h -2.34668 v 1.397461 h 2.34668 v 0.755859 h -2.34668 v 1.924805 h 2.34668 v 0.755859 h -3.102539 z"
         id="CORE--new-title" />
   </g>

   <path id="th" stroke="#f9a54b" stroke-width=".25" d="M 5,6.25 h 46 M 160,6.25 h -46" />

</svg>
