<?xml version="1.0" encoding="UTF-8" standalone="no"?>
<svg width="165" height="380" viewBox="0 0 165 380" version="1.1" id="svg2" sodipodi:docname="CHEM-fx.svg"
   inkscape:version="1.3.2 (091e20e, 2023-11-25, custom)" xmlns:inkscape="http://www.inkscape.org/namespaces/inkscape"
   xmlns:sodipodi="http://sodipodi.sourceforge.net/DTD/sodipodi-0.dtd" xmlns:xlink="http://www.w3.org/1999/xlink"
   xmlns="http://www.w3.org/2000/svg" xmlns:svg="http://www.w3.org/2000/svg">
   <sodipodi:namedview id="namedview2" pagecolor="#ffffff" bordercolor="#666666" borderopacity="1.0"
      inkscape:showpageshadow="2" inkscape:pageopacity="0.0" inkscape:pagecheckerboard="0" inkscape:deskcolor="#d1d1d1"
      showguides="true" inkscape:zoom="18.894737" inkscape:cx="32.813371" inkscape:cy="18.44429"
      inkscape:window-width="3840" inkscape:window-height="2054" inkscape:window-x="3829" inkscape:window-y="-11"
      inkscape:window-maximized="1" inkscape:current-layer="svg2">
      <sodipodi:guide position="82.515715,331.1296" orientation="1,0" id="guide2" inkscape:locked="false" />
   </sodipodi:namedview>
   <defs id="defs2">
      <linearGradient id="section-stops">
         <stop offset="0" stop-color="#282828" />
         <stop offset="1" stop-color="#181818" />
      </linearGradient>
      <linearGradient id="all-gradient" x1="0" y1="0" x2="0" y2="380" xlink:href="#section-stops" gradientUnits="userSpaceOnUse" />
      <linearGradient id="top-gradient" x1="0" y1="0" x2="0" y2="276" xlink:href="#section-stops" gradientUnits="userSpaceOnUse" />
      <linearGradient id="inp-gradient" x1="0" y1="0" x2="0" y2="100" xlink:href="#section-stops" gradientUnits="userSpaceOnUse" />
   </defs>
   <g id="g1">
      <rect opacity="1" id="all--sctn" fill="url(#all-gradient)" x="0" y="0" width="165.5" height="380" />
      <rect opacity="0" id="top--sctn" fill="url(#top-gradient)" x="0" y="0" width="165.5" height="276" />
      <rect opacity="0" id="inp--sctn" fill="url(#inp-gradient)" x="0" y="280" width="165.5" height="100" />
      <g transform="translate(0,276)" id="separator2">
         <path id="2--d0" stroke="#202020" stroke-width="1" d="M 0,0.5 H 165" />
         <path id="2--d1" stroke="#161616" stroke-width="1" d="M 0,1.5 H 165" />
         <path id="2--d2" stroke="#101010" stroke-width="1" d="M 0,2.5 H 165" />
         <path id="2--d3" stroke="#404040" stroke-width="1" d="M 0,3.5 H 165" />
      </g>
      <circle id="light" cx="116" cy="58" r="5" fill="#20415f" stroke="#333333" stroke-width="1" />
   </g>

   <g id="FX" transform="translate(76, 3.5)">
      <path id="FX--new-title" fill="#f9a54b"
         d="M 0,0 H 3.102539 V 0.764648 H 0.75586 v 1.397461 h 2.346679 v 0.75586 H 0.764649 V 5.598633 H 0 Z m 11.788086,0 h 0.84375 L 13.884278,2.043457 15.119141,0 h 0.852539 l -1.665527,2.737793 1.713867,2.86084 H 15.171875 L 13.884278,3.449707 12.579102,5.598633 h -0.852539 l 1.727051,-2.86084 z" />
   </g>
   <path id="th" stroke="#f9a54b" stroke-width=".25" d="M 5,6.25 h 61.5 M 160, 6.25 h -61.5" />
</svg>