<?xml version="1.0" encoding="UTF-8" standalone="no"?>
<svg width="105" height="380" viewBox="0 0 105 380" version="1.1" xmlns:xlink="http://www.w3.org/1999/xlink"
   xmlns="http://www.w3.org/2000/svg" xmlns:svg="http://www.w3.org/2000/svg">
   <defs>
      <linearGradient id="section-stops">
         <stop offset="0" stop-color="#282828" />
         <stop offset="1" stop-color="#181818" />
      </linearGradient>
      <linearGradient id="top-gradient"  x1="0" y1="0" x2="0" y2="100" xlink:href="#section-stops" gradientUnits="userSpaceOnUse" />
      <linearGradient id="mid-gradient"  x1="0" y1="0" x2="0" y2="232" xlink:href="#section-stops" gradientUnits="userSpaceOnUse" />
      <linearGradient id="inp-gradient"  x1="0" y1="0" x2="0" y2="78" xlink:href="#section-stops" gradientUnits="userSpaceOnUse" />
   </defs>
   <g id="g1">
      <rect id="top--sctn" fill="url(#top-gradient)" x="0" y="0" width="105.5" height="62" />
      <rect id="mid--sctn" fill="url(#mid-gradient)" x="0" y="66" width="105.5" height="232" />
      <rect id="inp--sctn" fill="url(#inp-gradient)" x="0" y="302" width="105.5" height="78" />
      <g transform="translate(0,62)" id="separator1" style="stroke-width:1">
         <path id="1--d0" stroke="#202020" stroke-width="1" d="M 0,0.5 H 105" />
         <path id="1--d1" stroke="#161616" stroke-width="1" d="M 0,1.5 H 105" />
         <path id="1--d2" stroke="#101010" stroke-width="1" d="M 0,2.5 H 105" />
         <path id="1--d3" stroke="#404040" stroke-width="1" d="M 0,3.5 H 105" />
      </g>
      <g transform="translate(0,298)" id="separator2" style="stroke-width:1">
         <path id="2--d0" stroke="#202020" stroke-width="1" d="M 0,0.5 H 105" />
         <path id="2--d1" stroke="#161616" stroke-width="1" d="M 0,1.5 H 105" />
         <path id="2--d2" stroke="#101010" stroke-width="1" d="M 0,2.5 H 105" />
         <path id="2--d3" stroke="#404040" stroke-width="1" d="M 0,3.5 H 105" />
      </g>
      <path id="title" fill="#d4a011" opacity=".4"
         d="m 3.5,3.5 v 15.146484 h 2.8535084 v -5.875 h 3.218737 c 0.9513866,0 1.7847136,-0.192275 2.4999906,-0.574218 0.715267,-0.381944 1.272125,-0.918839 1.667953,-1.613282 0.395829,-0.694442 0.593748,-1.506945 0.593748,-2.4375 0,-0.937498 -0.197919,-1.754775 -0.593748,-2.449218 C 13.344361,5.002822 12.787503,4.465928 12.072236,4.083984 11.363909,3.695096 10.530482,3.513303 9.5722454,3.5 Z m 2.8535084,2.705078 3.2929467,0.04492 c 0.5208279,0 0.9374959,0.174263 1.2499959,0.521485 0.319439,0.340277 0.478518,0.798611 0.478518,1.375 0,0.562499 -0.159079,1.016059 -0.478518,1.363281 -0.31945,0.340277 -0.736108,0.511719 -1.2499959,0.511719 H 6.3535084 Z M 21.624928,7.677734 c -0.569448,0 -1.093096,0.179905 -1.572264,0.541016 -0.364819,0.278983 -0.676287,0.643112 -0.937496,1.087891 V 7.833984 H 16.05268 v 10.8125 h 3.062488 V 12.53125 c 0,-0.659721 0.156249,-1.172961 0.468748,-1.541016 0.319449,-0.374999 0.767357,-0.5625 1.343744,-0.5625 0.263889,0 0.495878,0.03407 0.697268,0.103516 0.208329,0.06944 0.377818,0.173611 0.509767,0.3125 L 23.802649,8.521484 C 23.53182,8.243707 23.211731,8.035373 22.843673,7.896484 22.482564,7.750652 22.076316,7.677734 21.624928,7.677734 Z m 7.771448,0 c -1.513884,0 -2.688139,0.440323 -3.521466,1.322266 -0.826386,0.881943 -1.240225,2.129125 -1.240225,3.740234 v 1.21875 c 0,1.541664 0.431849,2.734811 1.292955,3.582032 0.868047,0.840277 2.086792,1.261718 3.656235,1.261718 0.715268,0 1.423605,-0.140191 2.124992,-0.417968 0.701387,-0.284722 1.332034,-0.683378 1.894532,-1.197266 l -1.863282,-1.65625 c -0.305549,0.249999 -0.646478,0.445095 -1.021476,0.583984 -0.374999,0.131947 -0.752827,0.197266 -1.134766,0.197266 -0.743057,0 -1.323554,-0.200739 -1.740223,-0.603516 -0.330538,-0.324941 -0.525967,-0.760844 -0.589837,-1.302734 h 6.630833 v -0.708984 c 0,-1.909719 -0.391068,-3.388891 -1.175785,-4.4375 C 31.931096,8.204212 30.82692,7.677734 29.396376,7.677734 Z m 0,2.59375 c 0.534718,0 0.957036,0.172309 1.269535,0.519532 0.312499,0.340277 0.507578,0.819445 0.583978,1.4375 l 0.0312,0.25 h -4.046864 c 0.0234,-0.678505 0.206759,-1.21147 0.556648,-1.59375 0.381948,-0.409723 0.917956,-0.613282 1.605453,-0.613282 z" />
      <g id="inputs" fill="#737373" transform="translate(-6,-10)">
         <path id="LEVEL--in-label"
            d="m 53.090869,327.59196 v -8.364 h 1.391994 v 7.128 h 3.611986 v 1.236 z m 6.011966,0 v -8.364 h 5.555977 v 1.236 h -4.163983 v 2.22 h 3.839985 v 1.248 h -3.839985 v 2.424 h 4.163983 v 1.236 z m 9.599961,0 -3.359986,-8.364 h 1.535993 l 2.55599,6.672 h -0.419998 l 2.51999,-6.672 h 1.535993 l -3.335986,8.364 z m 5.351988,0 v -8.364 h 5.555978 v 1.236 h -4.163983 v 2.22 h 3.839984 v 1.248 h -3.839984 v 2.424 h 4.163983 v 1.236 z m 6.959972,0 v -8.364 h 1.391995 v 7.128 h 3.611985 v 1.236 z" />
         <path id="A--in-label"
            d="m 68.527484,345.86637 3.311987,-8.364 h 1.055996 l 3.299986,8.364 h -1.511994 l -2.31599,-6.336 -2.315991,6.336 z m 2.063992,-1.752 0.431998,-1.236 h 2.675989 l 0.455998,1.236 z" />
         <path id="TH--in-label"
            d="m 42.002441,345.86637 v -7.128 h -2.663989 v -1.236 h 6.719973 v 1.236 h -2.651989 v 7.128 z m 5.06397,0 v -8.364 h 1.391994 v 3.42 h 3.767985 v -3.42 h 1.391994 v 8.364 H 52.22639 v -3.66 h -3.767985 v 3.66 z" />
         <path id="R--in-label"
            d="m 95.148527,345.86637 v -8.364 h 2.675989 q 0.995996,0 1.619993,0.3 0.624001,0.288 0.911991,0.828 0.3,0.54 0.3,1.272 0,1.116 -0.64799,1.74 -0.636,0.612 -1.823996,0.708 -0.239999,0 -0.515998,0 -0.275998,0 -0.491998,0 h -0.635997 v 3.516 z m 4.583981,0 -2.123991,-3.672 1.427994,-0.168 2.303989,3.84 z m -3.191987,-4.74 h 1.139995 q 0.455999,0 0.803997,-0.108 0.359999,-0.108 0.563998,-0.372 0.215999,-0.264 0.215999,-0.732 0,-0.468 -0.215999,-0.72 -0.203999,-0.252 -0.563998,-0.348 -0.359998,-0.108 -0.803997,-0.108 h -1.139995 z" />
         <path id="MIX--in-label"
            d="m 11.756508,337.83769 h 1.96875 l 1.44141,4.61133 1.44141,-4.61133 h 1.90429 l 0.98438,7.69336 h -1.58203 l -0.67383,-5.41406 -1.69336,5.41406 h -0.75586 l -1.73438,-5.46093 -0.63867,5.46093 h -1.60547 z m 8.8711,0 h 1.65234 v 7.69336 h -1.65234 z m 2.88867,0 h 1.76367 l 1.54688,2.35547 1.5996,-2.35547 h 1.71094 l -2.43164,3.66211 2.67188,4.03125 h -1.7168 l -1.82227,-2.73633 -1.82226,2.73633 h -1.75195 l 2.70117,-4.01953 z" />
      </g>

      <circle id="comp-light" cx="75.80368" cy="97.575928" r="5" fill="#20415f" stroke="#333333" stroke-width="1" />

      <circle id="level-light" cx="58" cy="32" r="5" fill="#20415f" stroke="#333333" stroke-width="1" />
      <path id="Level--ctl-label" fill="#d9d9d9"
         d="m 53.470694,54.119011 v -9.29331 h 1.173326 v 8.239979 h 4.159973 v 1.053331 z m 9.146613,0.106666 q -0.773326,0 -1.359994,-0.253332 -0.573328,-0.266666 -0.959986,-0.733332 -0.373339,-0.466665 -0.573328,-1.066664 -0.186669,-0.613332 -0.186669,-1.29333 0,-0.679998 0.186669,-1.29333 0.186659,-0.626665 0.546658,-1.106664 0.373328,-0.479999 0.933326,-0.759998 0.559998,-0.279999 1.306665,-0.279999 0.759987,0 1.306655,0.266666 0.559997,0.253332 0.906656,0.706665 0.359999,0.453332 0.533328,1.01333 0.173339,0.559999 0.173339,1.159998 0,0.05333 -0.0133,0.253332 0,0.186666 -0.0267,0.333333 h -4.733301 q 0.04,0.959997 0.559998,1.493329 0.519988,0.533332 1.413314,0.533332 0.573338,0 0.999996,-0.186666 0.426669,-0.186666 0.799997,-0.599998 l 0.786657,0.693331 q -0.359989,0.386666 -0.759987,0.639999 -0.399998,0.239999 -0.853327,0.359999 -0.439998,0.119999 -0.986666,0.119999 z m 1.693324,-3.626657 q 0.0267,-0.106667 0.0267,-0.213333 0.0133,-0.106666 0.0133,-0.213333 0,-0.319999 -0.119999,-0.639998 -0.10667,-0.319999 -0.333329,-0.573332 -0.213329,-0.266666 -0.559997,-0.413332 -0.333329,-0.16 -0.799997,-0.16 -0.573328,0 -0.986656,0.266666 -0.413329,0.266666 -0.639998,0.706665 -0.226669,0.439999 -0.266669,0.973331 h 4.039974 z m 4.639981,3.519991 -2.693319,-6.573317 h 1.239995 l 1.919982,5.119987 1.933322,-5.119987 h 1.226665 l -2.679989,6.573317 z m 7.49328,0.106666 q -0.773327,0 -1.359985,-0.253332 -0.573338,-0.266666 -0.959996,-0.733332 -0.373329,-0.466665 -0.573328,-1.066664 -0.186669,-0.613332 -0.186669,-1.29333 0,-0.679998 0.186669,-1.29333 0.18666,-0.626665 0.546658,-1.106664 0.373329,-0.479999 0.933326,-0.759998 0.559998,-0.279999 1.306665,-0.279999 0.759987,0 1.306655,0.266666 0.559997,0.253332 0.906656,0.706665 0.359999,0.453332 0.533328,1.01333 0.173339,0.559999 0.173339,1.159998 0,0.05333 -0.0133,0.253332 0,0.186666 -0.0267,0.333333 h -4.7333 q 0.04,0.959997 0.559997,1.493329 0.519988,0.533332 1.413315,0.533332 0.573337,0 0.999996,-0.186666 0.426668,-0.186666 0.799996,-0.599998 l 0.786667,0.693331 q -0.359998,0.386666 -0.759997,0.639999 -0.399998,0.239999 -0.853326,0.359999 -0.439999,0.119999 -0.986666,0.119999 z m 1.693323,-3.626657 q 0.0267,-0.106667 0.0267,-0.213333 0.0133,-0.106666 0.0133,-0.213333 0,-0.319999 -0.12,-0.639998 -0.106669,-0.319999 -0.333329,-0.573332 -0.213329,-0.266666 -0.559997,-0.413332 -0.333329,-0.16 -0.799997,-0.16 -0.573328,0 -0.986656,0.266666 -0.413328,0.266666 -0.639997,0.706665 -0.22667,0.439999 -0.266669,0.973331 h 4.039973 z m 4.053323,3.626657 q -0.599997,0 -0.973326,-0.373332 -0.373338,-0.373332 -0.373338,-1.186664 v -7.83998 h 1.119995 v 7.626647 q 0,0.386666 0.16,0.559999 0.159999,0.173333 0.426668,0.173333 0.119999,0 0.266659,-0.02667 0.146669,-0.02667 0.306669,-0.08 v 0.959997 q -0.226669,0.09333 -0.479998,0.133333 -0.253329,0.05333 -0.453329,0.05333 z"
         style="stroke-width:0.999998" />
   </g>
</svg>