<?xml version="1.0" encoding="UTF-8"?>
<svg width="165" height="380" viewBox="0 0 165 380"
   xmlns:xlink="http://www.w3.org/1999/xlink"
   xmlns="http://www.w3.org/2000/svg"
   xmlns:svg="http://www.w3.org/2000/svg">
   <defs>
      <linearGradient id="panel-stops">
         <stop offset="0" stop-color="#282828"/>
         <stop offset="1" stop-color="#181818" />
      </linearGradient>
      <linearGradient id="gpanel" x1="0" y1="0" x2="0" y2="380" xlink:href="#panel-stops" gradientUnits="userSpaceOnUse" />
   </defs>
  <rect id="g-panel" fill="url(#gpanel)" x="0" y="0" width="195" height="380" />
  <path id="th" stroke="#f9a54b" stroke-width="0.25" d="M 5,6.25 H 40 M 160,6.25 h -40" />

  <g id="g21" transform="translate(50,3.5)">
    <path id="CONVO--new-title" fill="#f9a54b" d="M 4.794434,0.413083 V 1.278806 Q 3.889161,0.834958 3.128907,0.834958 q -0.975586,0 -1.643555,0.632813 -0.667969,0.628418 -0.667969,1.546875 0,0.936035 0.681153,1.564453 0.685546,0.624023 1.713867,0.624023 0.74707,0 1.582031,-0.470215 V 5.607419 Q 4.03418,6.011716 3.146485,6.011716 1.845704,6.011716 0.922852,5.13281 0,4.249509 0,3.005857 0,1.784177 0.905274,0.91406 1.814942,0.043942 3.09375,0.043942 q 0.821778,0 1.700684,0.369141 z m 8.676758,2.575195 q 0,-1.21289 0.914062,-2.078613 0.914063,-0.865723 2.197266,-0.865723 1.252441,0 2.157715,0.874512 0.905273,0.870117 0.905273,2.069824 0,1.27002 -0.896484,2.148926 -0.89209,0.874512 -2.192871,0.874512 -1.283203,0 -2.184082,-0.883301 -0.900879,-0.883301 -0.900879,-2.140137 z m 5.361328,0.03516 q 0,-0.927246 -0.667969,-1.560059 -0.667969,-0.637207 -1.643554,-0.637207 -0.927247,0 -1.590821,0.645996 -0.659179,0.645996 -0.659179,1.55127 0,0.918457 0.676757,1.555664 0.681153,0.632812 1.665528,0.632812 0.905273,0 1.560058,-0.645996 0.65918,-0.650391 0.65918,-1.54248 z M 28.599122,0 32.73877,4.258301 v -4.03418 h 0.764648 v 5.85791 L 29.36377,1.8457 V 5.822751 H 28.599122 Z M 42.180176,0.23291 H 42.98877 L 44.742188,4.192383 46.50879,0.23291 h 0.817382 l -2.592773,5.778809 z m 13.400879,2.755371 q 0,-1.21289 0.914063,-2.078613 0.914062,-0.865723 2.197265,-0.865723 1.252442,0 2.157715,0.874512 0.905274,0.870117 0.905274,2.069824 0,1.27002 -0.896485,2.148926 -0.89209,0.874512 -2.192871,0.874512 -1.283203,0 -2.184082,-0.883301 -0.900879,-0.883301 -0.900879,-2.140137 z m 5.361328,0.03516 q 0,-0.927246 -0.667968,-1.560059 -0.667969,-0.637207 -1.643555,-0.637207 -0.927246,0 -1.59082,0.645996 -0.65918,0.645996 -0.65918,1.55127 0,0.918457 0.676758,1.555664 0.681152,0.632812 1.665527,0.632812 0.905273,0 1.560059,-0.645996 0.659179,-0.650391 0.659179,-1.54248 z" />
  </g>

  <path id="1--div" fill="none" stroke="#737373" stroke-width="0.5"  d="M 2,74 h 160" />
  <path id="v--div" fill="none" stroke="#737373" stroke-width="0.5"  d="M 82.5,18 v 53" />
  <path id="m--div" fill="none" stroke="#737373" stroke-width="0.5"  d="M 2,236 h 160" />
  <path id="b--div" fill="none" stroke="#737373" stroke-width="0.5"  d="M 2,278 h 160" />

</svg>
