<?xml version="1.0" encoding="UTF-8" standalone="no"?>
<svg
   width="120"
   height="380"
   viewBox="0 0 120 380"
   version="1.1"
   id="svg3"
   sodipodi:docname="CHEM-macro.svg"
   inkscape:version="1.3.2 (091e20e, 2023-11-25, custom)"
   xmlns:inkscape="http://www.inkscape.org/namespaces/inkscape"
   xmlns:sodipodi="http://sodipodi.sourceforge.net/DTD/sodipodi-0.dtd"
   xmlns:xlink="http://www.w3.org/1999/xlink"
   xmlns="http://www.w3.org/2000/svg"
   xmlns:svg="http://www.w3.org/2000/svg">
  <sodipodi:namedview
     id="namedview1"
     pagecolor="#ffffff"
     bordercolor="#666666"
     borderopacity="1.0"
     inkscape:showpageshadow="2"
     inkscape:pageopacity="0.0"
     inkscape:pagecheckerboard="0"
     inkscape:deskcolor="#d1d1d1"
     inkscape:zoom="12.988435"
     inkscape:cx="7.9301316"
     inkscape:cy="54.933485"
     inkscape:window-width="3840"
     inkscape:window-height="2054"
     inkscape:window-x="3829"
     inkscape:window-y="-11"
     inkscape:window-maximized="1"
     inkscape:current-layer="svg3" />
  <defs
     id="defs1">
    <linearGradient id="section-stops">
      <stop offset="0" stop-color="#282828" />
      <stop offset="1" stop-color="#181818" />
    </linearGradient>
    <linearGradient
       id="top-gradient"
       x1="0"
       y1="0"
       x2="0"
       y2="272"
       xlink:href="#section-stops"
       gradientUnits="userSpaceOnUse" />
    <linearGradient
       id="in-gradient"
       x1="0"
       y1="0"
       x2="0"
       y2="104"
       xlink:href="#section-stops"
       gradientUnits="userSpaceOnUse" />
    <linearGradient
       id="gface"
       gradientUnits="userSpaceOnUse"
       x1="6"
       y1="0"
       x2="7.5"
       y2="12"
       gradientTransform="translate(6.5,-1)">
      <stop
         offset="0"
         stop-color="#ebebeb"
         id="stop5" />
      <stop
         offset="1"
         stop-color="#cccccc"
         id="stop6" />
    </linearGradient>
    <linearGradient
       id="gbevel"
       gradientUnits="userSpaceOnUse"
       x1="6"
       y1="0"
       x2="7.5"
       y2="14"
       gradientTransform="translate(6.5,-1)">
      <stop
         offset="0"
         stop-color="#f5f5f5"
         id="stop3" />
      <stop
         offset="1"
         stop-color="#b8b8b8"
         id="stop4" />
    </linearGradient>
    <linearGradient
       id="grim"
       gradientUnits="userSpaceOnUse"
       x1="6"
       y1="1"
       x2="7.5"
       y2="15"
       gradientTransform="translate(6.5,-1)">
      <stop
         offset="0"
         stop-color="#cacaca"
         id="stop1-4" />
      <stop
         offset="1"
         stop-color="#9d9d9d"
         id="stop2-2" />
    </linearGradient>
    <linearGradient
       inkscape:collect="always"
       xlink:href="#grim"
       id="linearGradient7"
       gradientUnits="userSpaceOnUse"
       gradientTransform="translate(6.5,-1)"
       x1="6"
       y1="1"
       x2="7.5"
       y2="15" />
    <linearGradient
       inkscape:collect="always"
       xlink:href="#gbevel"
       id="linearGradient8"
       gradientUnits="userSpaceOnUse"
       gradientTransform="translate(6.5,-1)"
       x1="6"
       y1="0"
       x2="7.5"
       y2="14" />
    <linearGradient
       inkscape:collect="always"
       xlink:href="#gface"
       id="linearGradient9"
       gradientUnits="userSpaceOnUse"
       gradientTransform="translate(6.5,-1)"
       x1="6"
       y1="0"
       x2="7.5"
       y2="12" />
  </defs>
  <g
     id="g3">
    <rect
       id="g-top--sctn"
       fill="url(#top-gradient)"
       x="0"
       y="0"
       width="120.5"
       height="272" />
    <g
       transform="translate(0,272)"
       id="g2">
      <path
         id="1--d0"
         stroke="#202020"
         stroke-width="1"
         d="m 0,0.5 h 120" />
      <path
         id="1--d1"
         stroke="#161616"
         stroke-width="1"
         d="m 0,1.5 h 120" />
      <path
         id="1--d2"
         stroke="#101010"
         stroke-width="1"
         d="m 0,2.5 h 120" />
      <path
         id="1--d3"
         stroke="#404040"
         stroke-width="1"
         d="m 0,3.5 h 120" />
    </g>
    <rect
       id="g-in--sctn"
       fill="url(#in-gradient)"
       x="0"
       y="276"
       width="120.5"
       height="104.5" />
    <rect
       id="ctl-frame"
       fill="none"
       stroke="#808080"
       stroke-width="0.75"
       width="95"
       height="76"
       x="12.5"
       y="278.5"
       rx="6"
       ry="6"
       style="display:none" />
    <path
       id="M1--in-label"
       fill="#737373"
       d="m 24.387986,293.0252 v -8.364 h 2.039998 l 2.339997,6.252 h -0.252 l 2.351997,-6.252 h 2.027998 v 8.364 h -1.391998 v -6.744 l 0.119999,0.024 -2.303997,5.988 h -1.355998 l -2.315998,-5.988 0.132,-0.024 v 6.744 z m 12.695985,0 v -6.66 l 0.395999,0.672 h -2.555997 v -1.068 h 1.343999 q 0.407999,0 0.611999,-0.168 0.204,-0.168 0.204,-0.6 v -0.54 h 1.331998 v 8.364 z" />
    <path
       id="M2--in-label"
       fill="#737373"
       d="m 52.205938,293.0252 v -8.364 h 2.039997 l 2.339998,6.252 h -0.252 l 2.351997,-6.252 h 2.027998 v 8.364 h -1.391999 v -6.744 l 0.12,0.024 -2.303997,5.988 h -1.355998 l -2.315998,-5.988 0.132,-0.024 v 6.744 z m 9.875988,0 v -1.032 q 0.396,-0.3 0.923999,-0.684 0.527999,-0.384 1.067999,-0.84 0.551999,-0.456 1.019999,-0.972 0.467999,-0.528 0.755999,-1.092 0.299999,-0.564 0.299999,-1.164 0,-0.6 -0.323999,-0.984 -0.324,-0.396 -0.995999,-0.396 -0.516,0 -0.839999,0.252 -0.324,0.252 -0.48,0.672 -0.155999,0.408 -0.167999,0.888 l -1.307999,-0.108 q 0,-0.576 0.18,-1.104 0.192,-0.54 0.551999,-0.96 0.36,-0.432 0.887999,-0.672 0.528,-0.252 1.211999,-0.252 0.767999,0 1.343998,0.324 0.588,0.324 0.911999,0.912 0.336,0.588 0.336,1.38 0,0.648 -0.228,1.248 -0.216,0.6 -0.623999,1.152 -0.396,0.54 -0.935999,1.032 -0.54,0.48 -1.175999,0.912 -0.635999,0.42 -1.343998,0.768 l 0.347999,-0.516 h 4.295995 v 1.236 z" />
    <path
       id="M3--in-label"
       fill="#737373"
       d="m 80.737887,293.0252 v -8.364 h 2.039997 l 2.339998,6.252 h -0.252 l 2.351997,-6.252 h 2.027998 v 8.364 h -1.391999 v -6.744 l 0.12,0.024 -2.303997,5.988 h -1.355998 l -2.315998,-5.988 0.132,-0.024 v 6.744 z m 12.659985,0.108 q -0.923999,0 -1.619998,-0.336 -0.695999,-0.348 -1.079999,-0.96 -0.383999,-0.612 -0.383999,-1.428 l 1.331998,-0.084 q 0,0.696 0.491999,1.116 0.492,0.408 1.295999,0.408 0.539999,0 0.911999,-0.156 0.383999,-0.168 0.575999,-0.48 0.204,-0.312 0.204,-0.732 0,-0.372 -0.156001,-0.624 -0.156,-0.252 -0.443999,-0.396 -0.276,-0.156 -0.684,-0.216 -0.395999,-0.072 -0.887999,-0.072 v -1.056 q 0.348,0 0.66,-0.06 0.311999,-0.06 0.539999,-0.192 0.24,-0.144 0.372,-0.36 0.132,-0.228 0.132,-0.564 0,-0.336 -0.168,-0.588 -0.156,-0.252 -0.444,-0.384 -0.276,-0.144 -0.659999,-0.144 -0.647999,0 -1.007999,0.348 -0.359999,0.348 -0.371999,0.912 l -1.307999,-0.084 q 0,-0.72 0.348,-1.272 0.347999,-0.552 0.959999,-0.864 0.623999,-0.312 1.415998,-0.312 0.755999,0 1.331998,0.288 0.576,0.288 0.899994,0.792 0.336,0.504 0.336,1.176 0,0.312 -0.084,0.576 -0.084,0.264 -0.252,0.48 -0.155995,0.204 -0.371994,0.36 -0.216,0.156 -0.468,0.264 0.348,0.108 0.647999,0.276 0.299995,0.168 0.515995,0.42 0.228,0.252 0.347999,0.576 0.132,0.324 0.132,0.732 0,0.78 -0.383999,1.38 -0.384,0.588 -1.079994,0.924 -0.683999,0.336 -1.595997,0.336 z" />
    <path
       id="M4--in-label"
       fill="#737373"
       d="m 23.427987,329.68586 v -8.364 h 2.039998 l 2.339997,6.252 h -0.252 l 2.351997,-6.252 h 2.027998 v 8.364 h -1.391998 v -6.744 l 0.12,0.024 -2.303998,5.988 h -1.355998 l -2.315997,-5.988 0.131999,-0.024 v 6.744 z m 13.283984,0 v -1.98 h -3.791995 v -1.032 l 3.935995,-5.352 h 1.187999 v 5.148 h 1.331998 v 1.236 H 38.04397 v 1.98 z m -2.735996,-2.748 -0.048,-0.468 h 2.783996 v -3.792 l 0.168,0.168 z" />
    <path
       id="M5--in-label"
       fill="#737373"
       d="m 52.145936,329.68588 v -8.364 h 2.039998 l 2.339997,6.252 h -0.252 l 2.351997,-6.252 h 2.027998 v 8.364 h -1.391999 v -6.744 l 0.12,0.024 -2.303997,5.988 h -1.355998 l -2.315998,-5.988 0.132,-0.024 v 6.744 z m 12.683985,0.108 q -0.767999,0 -1.415998,-0.324 -0.636,-0.336 -1.055999,-0.9 -0.408,-0.564 -0.516,-1.272 l 1.307999,-0.228 q 0.048,0.36 0.252,0.708 0.203999,0.336 0.563999,0.54 0.359999,0.204 0.851999,0.204 0.551999,0 0.911999,-0.252 0.359999,-0.252 0.539999,-0.648 0.18,-0.408 0.18,-0.84 0,-0.42 -0.18,-0.78 -0.168,-0.36 -0.515999,-0.576 -0.348,-0.216 -0.899999,-0.216 -0.504,0 -0.875999,0.228 -0.372,0.228 -0.623999,0.588 l -1.259999,-0.324 0.803999,-4.38 h 4.583995 v 1.236 h -4.091995 l 0.707999,-0.552 -0.552,2.94 -0.407999,-0.096 q 0.467999,-0.54 0.959999,-0.708 0.503999,-0.18 0.947999,-0.18 0.827999,0 1.463998,0.384 0.635999,0.384 0.983999,1.032 0.359999,0.648 0.359999,1.404 0,0.6 -0.215999,1.14 -0.216,0.54 -0.624,0.972 -0.407999,0.42 -0.971999,0.66 -0.551999,0.24 -1.211998,0.24 z" />
    <path
       id="M6--in-label"
       fill="#737373"
       d="m 80.803892,329.68588 v -8.364 h 2.039997 l 2.339998,6.252 h -0.252 l 2.351997,-6.252 h 2.027998 v 8.364 h -1.391999 v -6.744 l 0.12,0.024 -2.303997,5.988 h -1.355998 l -2.315998,-5.988 0.132,-0.024 v 6.744 z m 14.051973,-8.364 -2.087997,3.252 -0.168,-0.216 q 0.24,-0.12 0.479999,-0.18 0.24,-0.06 0.48,-0.06 0.803999,0 1.439998,0.372 0.647999,0.372 1.019994,1.008 0.371999,0.636 0.371999,1.416 0,0.84 -0.419999,1.488 -0.407995,0.648 -1.091994,1.02 -0.671999,0.372 -1.499998,0.372 -0.815999,0 -1.511998,-0.372 -0.684,-0.372 -1.091999,-1.02 -0.408,-0.648 -0.408,-1.476 0,-0.408 0.12,-0.804 0.132,-0.396 0.336,-0.756 l 2.507997,-4.044 z m -1.475998,3.972 q -0.444,0 -0.827999,0.204 -0.372,0.204 -0.599999,0.576 -0.228,0.36 -0.228,0.84 0,0.48 0.228,0.852 0.227999,0.36 0.599999,0.564 0.371999,0.204 0.827999,0.204 0.467999,0 0.839999,-0.204 0.371999,-0.204 0.587999,-0.564 0.227999,-0.372 0.227999,-0.852 0,-0.48 -0.227999,-0.84 -0.216,-0.372 -0.587999,-0.576 -0.372,-0.204 -0.839999,-0.204 z" />
  </g>
  
   <g id="small-logo" opacity="0" transform="translate(2.5, 2.5) scale(.125, .125)">
      <path id="CHEM" fill="#faa64c" stroke="#f9a54b" stroke-width="1.25" d="M 9.57155,6.8102466 C 7.5299719,6.9641606 5.817206,7.4868486 4.4334406,8.3806086 3.0619033,9.2734488 2.0516687,10.491776 1.4048649,12.033091 0.75805948,13.574385 0.51296865,15.406135 0.67188275,17.528129 l 0.54976985,7.341113 c 0.1579945,2.109718 0.6731488,3.884153 1.5431675,5.323441 0.8690998,1.427031 2.0491859,2.476751 3.5383012,3.153925 1.5004252,0.663996 3.2714337,0.919037 5.3130137,0.765124 1.687051,-0.127185 3.155406,-0.59946 4.409287,-1.421756 1.253884,-0.822296 2.257264,-1.952595 3.010135,-3.390887 0.764175,-1.451474 1.244307,-3.166409 1.440553,-5.14249 l -5.205577,0.392446 C 15.089484,25.90723 14.645159,26.981878 13.942321,27.774978 13.238567,28.5558 12.338935,28.98866 11.238682,29.071606 9.832806,29.177598 8.7054519,28.832024 7.8587493,28.0324 7.0242738,27.231857 6.5482422,26.04655 6.4306659,24.476538 L 5.8808967,17.135426 c -0.1175795,-1.570032 0.1765706,-2.813401 0.8824481,-3.730054 0.7171819,-0.929869 1.7797757,-1.449033 3.1856556,-1.55502 0.7212756,-0.05438 1.3804676,0.06253 1.9798316,0.350351 0.6116,0.28694 1.142542,0.727992 1.592816,1.323125 0.46158,0.581971 0.824846,1.313187 1.0875,2.193842 l 5.205579,-0.392445 C 19.33768,13.387591 18.615927,11.763264 17.645071,10.454923 16.686438,9.1456738 15.517576,8.1791256 14.143077,7.5549806 12.780801,6.9298966 11.258596,6.6830986 9.571545,6.8102816 Z M 23.362582,6.0480886 25.36583,32.79761 30.389179,32.418903 29.577699,21.583165 39.149908,20.861522 39.961385,31.697259 44.98817,31.318293 42.984921,4.5687716 37.958139,4.9477376 38.786151,16.004246 29.213942,16.725889 28.38593,5.6693826 Z m 25.488072,-1.921532 2.003248,26.7495214 17.861931,-1.346601 -0.363755,-4.857279 -12.835151,0.967637 -0.449014,-5.9957 10.816873,-0.815478 -0.363755,-4.857277 -10.816873,0.815478 -0.462965,-6.1819914 12.835151,-0.967634 -0.363758,-4.857277 z m 22.445179,-1.692129 2.003246,26.7495204 4.566053,-0.344231 -1.396383,-18.646011 6.089927,15.294737 4.435398,-0.334382 3.716989,-16.3914044 1.422993,19.0013344 4.566035,-0.34423 L 94.696844,0.67023864 88.074707,1.1694776 84.346479,19.580833 77.917982,1.9351876 Z" />
      <path id="hex" fill="none" stroke="#f9a54b" stroke-width="2.5" d="M 75.274,41.479089 61.021074,45.456299 57.33869,59.788464 67.909232,70.143418 82.162158,66.166796 85.844539,51.834631 Z" />
   </g>

   <g id="MACRO" transform="translate(30, 2.5)">
      <path fill="#f9a54b"
         d="M 5.022949,0 6.552246,5.831543 H 5.805175 L 4.877929,2.267578 3.282714,6.046875 1.683105,2.241211 0.74707,5.831543 H 0 L 1.529297,0 3.282714,4.174805 Z m 12.407715,0.01758 2.645508,5.813965 H 19.276367 L 18.621582,4.398926 H 16.24414 l -0.637207,1.432617 h -0.79541 z m 0,1.753418 -0.900879,1.990723 h 1.801758 z M 32.945312,0.421877 V 1.2876 q -0.905273,-0.443848 -1.665527,-0.443848 -0.975586,0 -1.643555,0.632813 -0.667969,0.628418 -0.667969,1.546875 0,0.936035 0.681153,1.564453 0.685547,0.624023 1.713867,0.624023 0.74707,0 1.582031,-0.470215 v 0.874512 q -0.760254,0.404297 -1.647949,0.404297 -1.300781,0 -2.223633,-0.878906 -0.922851,-0.883301 -0.922851,-2.126953 0,-1.22168 0.905273,-2.091797 0.909668,-0.870117 2.188477,-0.870117 0.821777,0 1.700683,0.36914 z m 9.02832,-0.188965 h 1.212891 q 0.905274,0 1.472168,0.452637 0.571289,0.448242 0.571289,1.151367 0,0.5625 -0.369141,0.993164 -0.36914,0.430664 -1.151367,0.606446 l 1.630371,2.395019 H 44.465332 L 42.909668,3.528811 h -0.171387 v 2.302734 h -0.764649 z m 0.764649,0.676758 v 1.951172 q 1.691894,0.03516 1.691894,-0.97998 0,-0.355957 -0.197753,-0.580078 -0.197754,-0.228516 -0.527344,-0.307618 -0.32959,-0.0835 -0.966797,-0.0835 z M 54.12207,2.997073 q 0,-1.212891 0.914062,-2.078614 0.914063,-0.865722 2.197266,-0.865722 1.252441,0 2.157715,0.874511 0.905273,0.870118 0.905273,2.069825 0,1.270019 -0.896484,2.148925 -0.89209,0.874512 -2.192871,0.874512 -1.283203,0 -2.184082,-0.883301 -0.900879,-0.8833 -0.900879,-2.140136 z m 5.361328,0.03516 q 0,-0.927246 -0.667969,-1.560059 -0.667968,-0.637207 -1.643554,-0.637207 -0.927246,0 -1.590821,0.645996 -0.659179,0.645996 -0.659179,1.55127 0,0.918457 0.676757,1.555664 0.681153,0.632812 1.665528,0.632812 0.905273,0 1.560058,-0.645996 0.65918,-0.65039 0.65918,-1.54248 z"
         id="MACRO--new-title" />
   </g>
   <path id="th" stroke="#f9a54b" stroke-width=".25" d="M 5,6.25 h 14 M 115,6.25 h -14" />
</svg>
