<?xml version="1.0" encoding="UTF-8" standalone="no"?>
<svg width="165" height="380" viewBox="0 0 165 380" version="1.1" xml:space="preserve" id="svg3"
  sodipodi:docname="CHEM-core.svg" inkscape:version="1.4 (86a8ad7, 2024-10-11)"
  xmlns:inkscape="http://www.inkscape.org/namespaces/inkscape"
  xmlns:sodipodi="http://sodipodi.sourceforge.net/DTD/sodipodi-0.dtd" xmlns="http://www.w3.org/2000/svg"
  xmlns:svg="http://www.w3.org/2000/svg">
  <sodipodi:namedview id="namedview3" pagecolor="#ffffff" bordercolor="#111111" borderopacity="1"
    inkscape:showpageshadow="0" inkscape:pageopacity="0" inkscape:pagecheckerboard="1" inkscape:deskcolor="#d1d1d1"
    inkscape:zoom="2.0236842" inkscape:cx="82.522757" inkscape:cy="190" inkscape:window-width="1620"
    inkscape:window-height="1010" inkscape:window-x="-6" inkscape:window-y="-6" inkscape:window-maximized="1"
    inkscape:current-layer="svg3" showguides="false">
    <sodipodi:guide position="9.3691649,365.15076" orientation="0,-1" id="guide280" inkscape:locked="false" />
    <sodipodi:guide position="22.804194,14.956124" orientation="0,-1" id="guide281" inkscape:locked="false" />
    <sodipodi:guide position="15,46.249999" orientation="1,0" id="guide282" inkscape:locked="false" />
    <sodipodi:guide position="-0.62819649,6.9835385" orientation="0,-1" id="guide472" inkscape:locked="false" />
    <sodipodi:guide position="150.03031,360.12699" orientation="1,0" id="guide2" inkscape:locked="false" />
  </sodipodi:namedview>
  <defs id="defs2">
    <linearGradient id="b" x1="7.5" y1="1" x2="7.5" y2="12" gradientUnits="userSpaceOnUse">
      <stop offset="0" style="stop-color:#c0c0c0;" id="stop3-7" />
      <stop offset="1" style="stop-color:#404040;" id="stop4-8" />
    </linearGradient>
    <linearGradient id="c" x1="7.5" y1="5" x2="7.5" y2="11" gradientUnits="userSpaceOnUse">
      <stop offset="0" style="stop-color:#a0a0a0;" id="stop5" />
      <stop offset="1" style="stop-color:#505050;" id="stop6" />
    </linearGradient>
  </defs>
  <rect id="panel" fill="#1f1f1f" x="0" y="0" width="165" height="380" sodipodi:insensitive="true" />
  <g id="logo" transform="translate(32,10)">
    <path id="#d" fill="#f9a54b"
      d="M 39.404297 23.550781 L 36.603516 29.089844 L 31.802734 27.804688 L 30.890625 31.214844 L 34.962891 32.304688 L 32.900391 36.402344 L 29.726562 35.552734 L 28.8125 38.962891 L 31.259766 39.619141 L 28.455078 45.158203 L 31.865234 46.074219 L 34.669922 40.53125 L 39.861328 41.923828 L 37.058594 47.464844 L 40.466797 48.376953 L 43.269531 42.837891 L 48.068359 44.121094 L 48.982422 40.712891 L 44.894531 39.619141 L 46.970703 35.523438 L 50.146484 36.375 L 51.058594 32.964844 L 48.595703 32.304688 L 51.400391 26.761719 L 48.005859 25.851562 L 45.185547 31.388672 L 39.994141 30 L 42.814453 24.462891 L 39.404297 23.550781 z M 64.285156 24.785156 L 63.34375 28.302734 L 65.724609 28.943359 L 64.425781 33.789062 C 63.639402 32.101274 62.355983 31.018001 60.576172 30.539062 C 58.725252 30.043392 56.952013 30.391866 55.255859 31.583984 C 53.563889 32.765645 52.418463 34.471564 51.820312 36.703125 C 51.232619 38.901224 51.358738 40.941927 52.195312 42.824219 C 53.033978 44.70651 54.403435 45.903753 56.306641 46.414062 C 57.896131 46.840716 59.552186 46.55607 61.273438 45.560547 L 60.787109 47.376953 L 68.171875 49.355469 L 69.117188 45.835938 L 66.607422 45.164062 L 71.544922 26.730469 L 64.285156 24.785156 z M 38.373047 33.21875 L 43.564453 34.607422 L 41.488281 38.705078 L 36.292969 37.3125 L 38.373047 33.21875 z M 60.201172 34.726562 C 60.42587 34.736628 60.657538 34.774102 60.896484 34.837891 C 61.697504 35.053309 62.325455 35.553464 62.779297 36.339844 C 63.243595 37.130406 63.279771 38.256837 62.888672 39.71875 C 62.505939 41.151383 61.917654 42.105323 61.125 42.580078 C 60.344895 43.048559 59.551573 43.17454 58.742188 42.957031 C 57.763395 42.69351 57.119941 42.103549 56.8125 41.1875 C 56.509217 40.258903 56.511057 39.220325 56.816406 38.074219 C 57.140579 36.865369 57.657915 35.96157 58.371094 35.361328 C 58.916958 34.90801 59.527076 34.696367 60.201172 34.726562 z " />
    <path id="hexoid" fill="#f9a54b"
      d="M 62.846577,-4e-7 13.123024,13.87512 0.27645025,63.875121 37.153432,100 86.876988,86.12693 l 12.846562,-50 z M 50.000003,11.409473 c 9.326229,0 17.870198,3.291502 24.534513,8.779162 l 4.675179,4.58168 C 85.052538,31.53172 88.590537,40.342354 88.590537,50 c 0,2.241993 -0.199831,4.435404 -0.565088,6.57168 l -1.57126,6.116357 C 82.691068,73.530977 74.242038,82.161032 63.513298,86.161482 l -6.211887,1.733875 c -2.36446,0.451221 -4.803582,0.69518 -7.301408,0.69518 -9.32828,0 -17.87362,-3.293395 -24.538579,-8.783231 L 20.790313,75.231735 C 14.947152,68.470226 11.409469,59.657938 11.409469,50 c 0,-2.241983 0.199829,-4.435394 0.565087,-6.571669 l 1.571267,-6.112289 C 17.310819,26.464746 25.767549,17.827853 36.507037,13.830389 l 6.163104,-1.719648 c 2.373312,-0.454749 4.822029,-0.701268 7.329862,-0.701268 z" />
    <path id="CHEM" fill="#f9a54b"
      d="m 28.542236,53.421572 c -1.206961,0 -2.236858,0.230596 -3.089682,0.69314 -0.845595,0.462545 -1.49312,1.131758 -1.941214,2.006267 -0.448094,0.874498 -0.672819,1.936922 -0.672819,3.187251 v 4.325555 c 0,1.243095 0.224725,2.305519 0.672819,3.187251 0.448094,0.874508 1.095619,1.541682 1.941214,2.004226 0.852824,0.455322 1.882721,0.682983 3.089682,0.682983 0.99737,0 1.881365,-0.211852 2.654688,-0.638262 0.773323,-0.42641 1.412943,-1.044347 1.918856,-1.85381 0.513138,-0.816685 0.870893,-1.800284 1.073258,-2.949432 h -3.077487 c -0.166228,0.787784 -0.474745,1.397811 -0.922839,1.831454 -0.448093,0.42641 -0.996017,0.640291 -1.646476,0.640291 -0.831141,0 -1.478666,-0.252274 -1.941214,-0.758185 C 26.145701,65.274389 25.91804,64.558873 25.91804,63.633785 V 59.30823 c 0,-0.925099 0.227661,-1.640615 0.682982,-2.146516 0.462548,-0.513145 1.110073,-0.770394 1.941214,-0.770394 0.426412,0 0.808785,0.09762 1.148468,0.292707 0.346911,0.195138 0.639619,0.47701 0.87812,0.845597 0.245729,0.361374 0.42709,0.805852 0.542727,1.333442 h 3.077487 c -0.195138,-1.156361 -0.547924,-2.13996 -1.061063,-2.949422 -0.505912,-0.809453 -1.150501,-1.4274 -1.931051,-1.85381 -0.773323,-0.42642 -1.657318,-0.638262 -2.654688,-0.638262 z m 8.140906,0.162615 V 69.34563 h 2.969754 v -6.38467 h 5.658997 v 6.38467 h 2.971785 V 53.584187 h -2.971785 v 6.514752 h -5.658997 v -6.514752 z m 15.068299,0 V 69.34563 h 10.559801 v -2.862022 h -7.588016 v -3.532806 h 6.39483 v -2.862021 h -6.39483 v -3.642573 h 7.588016 v -2.862021 z m 13.269371,0 V 69.34563 h 2.699406 V 58.358965 l 2.90674,9.230424 h 2.622165 L 76.155867,58.1496 v 11.19603 h 2.699396 V 53.584187 H 74.940319 L 71.93804,64.207001 68.935763,53.584187 Z" />
  </g>
  <path fill="#5d8ed7"
    d="m 11.793324,160.03043 q -1.279996,0 -2.2533272,-0.6 -0.9599976,-0.59999 -1.5066628,-1.67999 -0.533332,-1.09333 -0.533332,-2.53333 0,-1.43999 0.533332,-2.51999 0.5466652,-1.08 1.5066628,-1.68 0.9733312,-0.6 2.2533272,-0.6 1.399997,0 2.426661,0.69334 1.026664,0.69333 1.479996,1.91999 l -1.09333,0.41333 q -0.346666,-0.90666 -1.066664,-1.39999 -0.719998,-0.50667 -1.746663,-0.50667 -0.946664,0 -1.653329,0.45333 -0.7066646,0.45334 -1.0933303,1.28 -0.3733324,0.81333 -0.3733324,1.94666 0,1.13333 0.3733324,1.96 0.3866657,0.82666 1.0933303,1.27999 0.706665,0.45334 1.653329,0.45334 1.026665,0 1.746663,-0.50667 0.719998,-0.50667 1.066664,-1.4 l 1.09333,0.4 q -0.453332,1.21333 -1.479996,1.92 -1.026664,0.70666 -2.426661,0.70666 z m 8.279986,-0.0533 q -0.919998,0 -1.653329,-0.42667 -0.719999,-0.43999 -1.133331,-1.21333 -0.413332,-0.77333 -0.413332,-1.75999 0,-0.98667 0.399999,-1.74666 0.413332,-0.77334 1.13333,-1.2 0.733332,-0.44 1.666663,-0.44 0.933331,0 1.639996,0.44 0.719998,0.42666 1.13333,1.2 0.413332,0.75999 0.413332,1.74666 0,0.98666 -0.413332,1.75999 -0.413332,0.76 -1.13333,1.2 -0.719999,0.44 -1.639996,0.44 z m 0,-1 q 0.626665,0 1.079997,-0.29333 0.466665,-0.30667 0.719998,-0.84 0.253333,-0.54666 0.253333,-1.26666 0,-0.73333 -0.253333,-1.26667 -0.253333,-0.54666 -0.719998,-0.83999 -0.453332,-0.29334 -1.079997,-0.29334 -0.639999,0 -1.106664,0.30667 -0.466666,0.29333 -0.719998,0.82666 -0.253333,0.53334 -0.253333,1.26667 0,0.72 0.253333,1.26666 0.253332,0.53333 0.719998,0.84 0.466665,0.29333 1.106664,0.29333 z m 4.799983,0.89333 v -6.57331 h 1.13333 v 1.39999 l -0.266666,0.0933 q 0.186666,-0.50667 0.506665,-0.85334 0.32,-0.35999 0.773332,-0.54666 0.453332,-0.2 0.999997,-0.2 1.079998,0 1.693329,0.64 0.613332,0.62666 0.613332,1.86666 v 4.17332 h -1.13333 v -3.75999 q 0,-0.99999 -0.373333,-1.46666 -0.359999,-0.48 -1.106664,-0.48 -0.546665,0 -0.933331,0.25333 -0.373332,0.25334 -0.573332,0.8 -0.199999,0.53333 -0.199999,1.37333 v 3.27999 z m 9.479988,0.10667 q -0.466665,0 -0.853331,-0.17333 -0.373333,-0.18667 -0.586665,-0.58667 -0.213333,-0.4 -0.213333,-1.02666 v -6.65332 l 1.146664,-0.64 v 6.99998 q 0,0.54667 0.173333,0.85334 0.173332,0.29333 0.626665,0.29333 0.133333,0 0.319999,-0.0267 0.186666,-0.04 0.399999,-0.0933 v 0.88 q -0.253333,0.0933 -0.519999,0.13333 -0.253333,0.04 -0.493332,0.04 z m -3.013326,-5.79999 v -0.87999 h 4.026657 v 0.87999 z m 5.426662,5.69332 v -6.57331 h 1.119998 v 6.57331 z m -0.106666,-7.75998 v -1.53333 h 1.33333 v 1.53333 z m 3.133323,7.75998 v -6.57331 h 1.13333 v 1.39999 l -0.266666,0.0933 q 0.186666,-0.50667 0.506665,-0.85334 0.32,-0.35999 0.773332,-0.54666 0.453332,-0.2 0.999997,-0.2 1.079998,0 1.693329,0.64 0.613332,0.62666 0.613332,1.86666 v 4.17332 h -1.13333 v -3.75999 q 0,-0.99999 -0.373333,-1.46666 -0.359999,-0.48 -1.106664,-0.48 -0.546665,0 -0.933331,0.25333 -0.373332,0.25334 -0.573332,0.8 -0.199999,0.53333 -0.199999,1.37333 v 3.27999 z m 9.506655,0.10667 q -0.706665,0 -1.226664,-0.28 -0.519999,-0.29333 -0.799998,-0.85333 -0.266666,-0.56 -0.266666,-1.38666 v -4.15999 h 1.119997 v 3.75999 q 0,0.65333 0.16,1.09333 0.173333,0.42666 0.506665,0.64 0.333333,0.2 0.826665,0.2 0.546665,0 0.919997,-0.25334 0.386666,-0.26666 0.586666,-0.8 0.199999,-0.53333 0.199999,-1.37333 v -3.26665 h 1.119997 v 6.57331 H 51.32659 v -1.39999 h 0.279999 q -0.279999,0.73333 -0.893331,1.11999 -0.613331,0.38667 -1.413329,0.38667 z m 7.293327,0 q -0.706665,0 -1.226664,-0.28 -0.519998,-0.29333 -0.799998,-0.85333 -0.266666,-0.56 -0.266666,-1.38666 v -4.15999 h 1.119998 v 3.75999 q 0,0.65333 0.159999,1.09333 0.173333,0.42666 0.506666,0.64 0.333332,0.2 0.826664,0.2 0.546665,0 0.919998,-0.25334 0.386665,-0.26666 0.586665,-0.8 0.199999,-0.53333 0.199999,-1.37333 v -3.26665 h 1.119998 v 6.57331 h -1.119998 v -1.39999 h 0.28 q -0.28,0.73333 -0.893331,1.11999 -0.613332,0.38667 -1.41333,0.38667 z m 5.173333,-0.10667 v -9.29331 h 1.733329 l 2.919992,7.34665 h -0.213333 l 2.919993,-7.34665 h 1.719996 v 9.29331 h -1.173331 v -7.93331 l 0.09333,0.0133 -2.879992,7.13332 h -1.146664 l -2.893326,-7.13332 0.09333,-0.0133 v 7.93331 z m 11.079979,0 v -6.57331 h 1.119997 v 6.57331 z m -0.106667,-7.75998 v -1.53333 h 1.33333 v 1.53333 z m 3.133329,7.75998 v -6.57331 h 1.13333 v 1.39999 l -0.266666,0.0933 q 0.186666,-0.50667 0.506665,-0.85334 0.32,-0.35999 0.773332,-0.54666 0.453332,-0.2 0.999997,-0.2 1.079998,0 1.693329,0.64 0.613332,0.62666 0.613332,1.86666 v 4.17332 h -1.13333 v -3.75999 q 0,-0.99999 -0.373333,-1.46666 -0.359999,-0.48 -1.106664,-0.48 -0.546665,0 -0.933331,0.25333 -0.373332,0.25334 -0.573331,0.8 -0.2,0.53333 -0.2,1.37333 v 3.27999 z m 7.279986,0 v -6.57331 h 1.119997 v 6.57331 z m -0.106666,-7.75998 v -1.53333 h 1.33333 v 1.53333 z m 9.533313,7.90665 q -1.399996,0 -2.293327,-0.73333 -0.893331,-0.73333 -1.093331,-1.94666 l 1.146664,-0.28 q 0.146666,0.93333 0.759998,1.42666 0.626665,0.48 1.519996,0.48 0.519999,0 0.933331,-0.2 0.413332,-0.2 0.653332,-0.56 0.239999,-0.37333 0.239999,-0.84 0,-0.49333 -0.266666,-0.81333 -0.266666,-0.32 -0.746665,-0.56 -0.466665,-0.24 -1.09333,-0.48 -0.773331,-0.29333 -1.359997,-0.63999 -0.573332,-0.34667 -0.893331,-0.82667 -0.319999,-0.49333 -0.319999,-1.2 0,-0.70666 0.346666,-1.25333 0.346666,-0.54666 0.973331,-0.85333 0.626665,-0.32 1.453329,-0.32 0.879998,0 1.559996,0.4 0.679999,0.4 1.093331,1.18667 l -0.933331,0.57333 q -0.306666,-0.54667 -0.746665,-0.82667 -0.439999,-0.29333 -1.01333,-0.29333 -0.453333,0 -0.813332,0.17333 -0.346666,0.17334 -0.546665,0.48 -0.2,0.30667 -0.2,0.70667 0,0.42666 0.24,0.73333 0.239999,0.29333 0.693331,0.52 0.453333,0.22666 1.093331,0.46666 0.813331,0.30667 1.399996,0.66667 0.586666,0.36 0.906665,0.86666 0.333332,0.49333 0.333332,1.22667 0,0.78666 -0.386665,1.39999 -0.386666,0.61333 -1.066664,0.97333 -0.679999,0.34667 -1.57333,0.34667 z m 4.679974,-0.14667 v -9.29331 h 1.239996 l 4.759987,7.77332 h -0.26666 v -7.77332 h 1.17333 v 9.29331 h -1.26667 l -4.733319,-7.78664 h 0.266666 v 7.78664 z m 11.839983,0 v -7.49331 l 0.34666,0.58666 h -2.77332 v -0.90666 h 1.61333 q 0.39999,0 0.59999,-0.17333 0.21334,-0.17334 0.21334,-0.6 v -0.70667 h 1.13333 v 9.29331 z m 7.29331,0.10667 q -0.81333,0 -1.50666,-0.34667 -0.68,-0.34666 -1.13333,-0.95999 -0.44,-0.61334 -0.58667,-1.4 l 1.10666,-0.2 q 0.0933,0.50667 0.36,0.93333 0.28,0.41333 0.72,0.65333 0.45333,0.24 1.02667,0.24 0.66666,0 1.13333,-0.30666 0.46666,-0.32 0.70666,-0.82667 0.25333,-0.50666 0.25333,-1.08 0,-0.55999 -0.24,-1.01333 -0.22666,-0.46666 -0.67999,-0.73333 -0.44,-0.28 -1.09334,-0.28 -0.58666,0 -1.06666,0.26667 -0.48,0.26667 -0.82666,0.77333 l -1.10667,-0.30667 0.86667,-4.81332 h 4.90665 v 1.05333 h -4.49332 l 0.6,-0.47999 -0.65333,3.59999 -0.32,-0.0667 q 0.52,-0.61333 1.09333,-0.85333 0.58666,-0.24 1.15999,-0.24 0.89334,0 1.57333,0.42666 0.69334,0.41334 1.08,1.12 0.38667,0.70667 0.38667,1.54666 0,0.66667 -0.24,1.26667 -0.24,0.58666 -0.68,1.05333 -0.44,0.45333 -1.04,0.72 -0.6,0.25333 -1.30666,0.25333 z m 7.51997,0 q -0.77333,0 -1.32,-0.28 -0.53333,-0.29333 -0.88,-0.78666 -0.34666,-0.49334 -0.53333,-1.10667 -0.17333,-0.62666 -0.25333,-1.29333 -0.0667,-0.68 -0.0667,-1.31999 0,-0.62667 0.0667,-1.29333 0.0667,-0.66667 0.24,-1.28 0.18666,-0.61333 0.52,-1.09333 0.34666,-0.49333 0.88,-0.77333 0.53333,-0.29334 1.30666,-0.29334 0.74666,0 1.26666,0.28 0.53333,0.26667 0.88,0.74667 0.34667,0.46666 0.53333,1.08 0.2,0.59999 0.28,1.27999 0.08,0.68 0.08,1.36 0,0.69333 -0.08,1.37333 -0.08,0.68 -0.28,1.29333 -0.18666,0.61333 -0.53333,1.09333 -0.33333,0.46666 -0.85333,0.74666 -0.52,0.26667 -1.25333,0.26667 z m 0,-1.09333 q 0.69333,0 1.09333,-0.48 0.41333,-0.48 0.58666,-1.30666 0.17334,-0.82667 0.17334,-1.85333 0,-1.08 -0.18667,-1.90666 -0.17333,-0.84 -0.58666,-1.32 -0.41334,-0.48 -1.12,-0.48 -0.56,0 -0.92,0.29333 -0.36,0.29334 -0.56,0.81333 -0.2,0.50667 -0.29333,1.17334 -0.08,0.66666 -0.08,1.41332 0,0.72 0.08,1.38667 0.0933,0.65333 0.29333,1.16 0.21333,0.50666 0.57333,0.81333 0.37334,0.29333 0.94667,0.29333 z m 7.46664,1.09333 q -0.77333,0 -1.31999,-0.28 -0.53334,-0.29333 -0.88,-0.78666 -0.34667,-0.49334 -0.53333,-1.10667 -0.17334,-0.62666 -0.25334,-1.29333 -0.0667,-0.68 -0.0667,-1.31999 0,-0.62667 0.0667,-1.29333 0.0667,-0.66667 0.24,-1.28 0.18667,-0.61333 0.52,-1.09333 0.34667,-0.49333 0.88,-0.77333 0.53333,-0.29334 1.30666,-0.29334 0.74667,0 1.26667,0.28 0.53333,0.26667 0.87999,0.74667 0.34667,0.46666 0.53334,1.08 0.2,0.59999 0.28,1.27999 0.08,0.68 0.08,1.36 0,0.69333 -0.08,1.37333 -0.08,0.68 -0.28,1.29333 -0.18667,0.61333 -0.53334,1.09333 -0.33333,0.46666 -0.85333,0.74666 -0.52,0.26667 -1.25333,0.26667 z m 0,-1.09333 q 0.69333,0 1.09333,-0.48 0.41334,-0.48 0.58667,-1.30666 0.17333,-0.82667 0.17333,-1.85333 0,-1.08 -0.18666,-1.90666 -0.17334,-0.84 -0.58667,-1.32 -0.41333,-0.48 -1.12,-0.48 -0.56,0 -0.91999,0.29333 -0.36,0.29334 -0.56,0.81333 -0.2,0.50667 -0.29334,1.17334 -0.08,0.66666 -0.08,1.41332 0,0.72 0.08,1.38667 0.0933,0.65333 0.29334,1.16 0.21333,0.50666 0.57333,0.81333 0.37333,0.29333 0.94666,0.29333 z m 7.37331,1.09333 q -1,0 -1.74667,-0.36 -0.74666,-0.37333 -1.15999,-1.02666 -0.41334,-0.66667 -0.41334,-1.54667 l 1.12,-0.0667 q 0,0.88 0.61333,1.39999 0.61334,0.50667 1.62667,0.50667 0.66666,0 1.14666,-0.21333 0.48,-0.21334 0.73333,-0.61334 0.26667,-0.39999 0.26667,-0.93333 0,-0.49333 -0.21334,-0.81333 -0.21333,-0.33333 -0.58666,-0.52 -0.36,-0.2 -0.85333,-0.28 -0.49333,-0.08 -1.05333,-0.08 v -0.89333 q 0.41333,0 0.8,-0.0667 0.39999,-0.08 0.70666,-0.25334 0.32,-0.17333 0.49333,-0.46666 0.18667,-0.29333 0.18667,-0.73333 0,-0.44 -0.21333,-0.77333 -0.21334,-0.33334 -0.58667,-0.50667 -0.37333,-0.18667 -0.88,-0.18667 -0.82666,0 -1.29333,0.45334 -0.46666,0.45333 -0.48,1.15999 l -1.10666,-0.0667 q 0,-0.77333 0.37333,-1.36 0.37333,-0.6 1.02667,-0.93333 0.66666,-0.33333 1.51999,-0.33333 0.81333,0 1.42667,0.32 0.62666,0.30666 0.98666,0.85333 0.36,0.54666 0.36,1.26666 0,0.4 -0.12,0.72 -0.12,0.30666 -0.34667,0.54666 -0.21333,0.24 -0.50666,0.41334 -0.28,0.16 -0.6,0.26666 0.4,0.0933 0.77333,0.26667 0.37333,0.17333 0.66667,0.45333 0.29333,0.28 0.46666,0.66667 0.17333,0.38666 0.17333,0.89333 0,0.83999 -0.42666,1.47999 -0.41333,0.64 -1.16,1 -0.73333,0.36 -1.71999,0.36 z"
    id="m0--dytext" aria-label="ContinuuMini SN15003" />
  <path fill="#5d8ed7"
    d="m 7.5000001,206.14469 v -6.57331 h 1.1333305 v 1.39999 l -0.266666,0.0933 q 0.1866662,-0.50667 0.5066654,-0.85333 0.3199992,-0.36 0.7733314,-0.54667 0.4533326,-0.2 0.9999976,-0.2 1.079997,0 1.693329,0.64 0.613332,0.62667 0.613332,1.86666 v 4.17332 h -1.133331 v -3.75999 q 0,-0.99999 -0.373332,-1.46666 -0.359999,-0.48 -1.106664,-0.48 -0.5466653,0 -0.933331,0.25334 -0.3733324,0.25333 -0.5733319,0.79999 -0.1999995,0.53334 -0.1999995,1.37333 v 3.27999 z m 11.6133159,0 -0.08,-1.31999 v -2.79999 q 0,-0.76 -0.426665,-1.17334 -0.413333,-0.41333 -1.239997,-0.41333 -0.533332,0 -0.999998,0.22667 -0.466665,0.21333 -0.906664,0.73333 l -0.813331,-0.69333 q 0.546665,-0.64 1.25333,-0.93333 0.706665,-0.30667 1.546663,-0.30667 1.29333,0 1.999995,0.66667 0.706664,0.66666 0.706664,1.89333 v 4.11998 z m -2.173328,0.10667 q -0.746665,0 -1.306663,-0.25333 -0.546665,-0.26667 -0.853331,-0.73333 -0.293333,-0.46667 -0.293333,-1.08 0,-0.54667 0.213333,-0.92 0.226666,-0.38666 0.573332,-0.6 0.346666,-0.22666 0.786664,-0.30666 0.453333,-0.0933 0.946665,-0.0933 h 2.133328 v 0.85334 h -1.973329 q -0.293332,0 -0.613331,0.0533 -0.32,0.0533 -0.559999,0.22667 -0.173333,0.13333 -0.279999,0.33333 -0.09333,0.2 -0.09333,0.46666 0,0.52 0.386665,0.82667 0.386666,0.30666 1.039998,0.30666 0.546665,0 0.986664,-0.25333 0.453332,-0.25333 0.719998,-0.69333 0.279999,-0.45333 0.279999,-1.01333 l 0.466666,0.48 q -0.08,0.70666 -0.426666,1.25333 -0.346666,0.54666 -0.893331,0.85333 -0.533332,0.29333 -1.239997,0.29333 z m 5.053333,-0.10667 v -6.57331 h 1.13333 v 1.39999 l -0.266666,0.0933 q 0.186666,-0.50667 0.506665,-0.85333 0.32,-0.36 0.773332,-0.54667 0.453332,-0.2 0.999997,-0.2 1.079998,0 1.693329,0.64 0.613332,0.62667 0.613332,1.86666 v 4.17332 h -1.13333 v -3.75999 q 0,-0.99999 -0.373333,-1.46666 -0.359999,-0.48 -1.106664,-0.48 -0.546665,0 -0.933331,0.25334 -0.373332,0.25333 -0.573331,0.79999 -0.2,0.53334 -0.2,1.37333 v 3.27999 z m 10.186653,0.10667 q -0.919998,0 -1.653329,-0.42666 -0.719998,-0.44 -1.133331,-1.21333 -0.413332,-0.77334 -0.413332,-1.76 0,-0.98666 0.399999,-1.74666 0.413332,-0.77333 1.13333,-1.2 0.733332,-0.44 1.666663,-0.44 0.933331,0 1.639996,0.44 0.719998,0.42667 1.13333,1.2 0.413333,0.76 0.413333,1.74666 0,0.98666 -0.413333,1.76 -0.413332,0.75999 -1.13333,1.19999 -0.719998,0.44 -1.639996,0.44 z m 0,-1 q 0.626665,0 1.079997,-0.29333 0.466666,-0.30666 0.719998,-0.84 0.253333,-0.54666 0.253333,-1.26666 0,-0.73333 -0.253333,-1.26666 -0.253332,-0.54667 -0.719998,-0.84 -0.453332,-0.29333 -1.079997,-0.29333 -0.639998,0 -1.106664,0.30666 -0.466665,0.29333 -0.719998,0.82667 -0.253333,0.53333 -0.253333,1.26666 0,0.72 0.253333,1.26666 0.253333,0.53334 0.719998,0.84 0.466666,0.29333 1.106664,0.29333 z m 5.813314,-2.06666 v -1.49333 l 4.626655,-4.83999 h 1.57333 z m -0.919997,2.95999 v -9.29331 h 1.17333 v 9.29331 z m 5.773319,0 -3.159992,-4.99998 0.879997,-0.81333 3.653324,5.81331 z m 5.933329,0.16 q -1.279997,0 -2.253327,-0.59999 -0.959998,-0.6 -1.506663,-1.68 -0.533332,-1.08 -0.533332,-2.51999 0,-1.45333 0.533332,-2.53333 0.546665,-1.08 1.506663,-1.68 0.97333,-0.59999 2.253327,-0.59999 1.306664,0 2.279994,0.59999 0.973331,0.6 1.506663,1.68 0.546666,1.08 0.546666,2.53333 0,1.43999 -0.546666,2.51999 -0.546665,1.08 -1.519996,1.68 -0.973331,0.59999 -2.266661,0.59999 z m 0,-1.11999 q 0.973331,0 1.666663,-0.45334 0.706665,-0.45333 1.09333,-1.27999 0.386666,-0.82667 0.386666,-1.94666 0,-1.13333 -0.386666,-1.96 -0.386665,-0.82666 -1.09333,-1.28 -0.693332,-0.45333 -1.666663,-0.45333 -0.946664,0 -1.653329,0.45333 -0.706665,0.44 -1.093331,1.26667 -0.373332,0.82666 -0.373332,1.97333 0,1.13333 0.373332,1.95999 0.386666,0.82667 1.093331,1.28 0.706665,0.44 1.653329,0.44 z m 6.066641,0.95999 v -9.29331 h 1.239996 l 4.759988,7.77332 h -0.266666 v -7.77332 h 1.173331 v 9.29331 h -1.266664 l -4.733321,-7.78664 h 0.266666 v 7.78664 z m 11.279981,0 v -8.23997 h -3.119992 v -1.05334 h 7.413315 v 1.05334 h -3.106659 v 8.23997 z m 5.559981,0 v -9.29331 h 2.773326 q 1.066664,0 1.746662,0.32 0.679998,0.30667 1.013331,0.89334 0.333332,0.58666 0.333332,1.39999 0,1.16 -0.666665,1.84 -0.666665,0.66666 -1.933328,0.78666 -0.2,0.0133 -0.479999,0.0133 -0.279999,0 -0.546665,0 h -1.066664 v 4.03999 z m 5.199986,0 -2.413327,-4.18665 1.199997,-0.14667 2.559994,4.33332 z m -4.026656,-5.07998 h 1.479996 q 0.613332,0 1.066664,-0.16 0.453332,-0.16 0.706665,-0.50667 0.266666,-0.34666 0.266666,-0.92 0,-0.58666 -0.266666,-0.91999 -0.253333,-0.34667 -0.719998,-0.49333 -0.453332,-0.16 -1.053331,-0.16 h -1.479996 z m 10.493298,5.23998 q -1.279997,0 -2.253328,-0.59999 -0.959997,-0.6 -1.506663,-1.68 -0.533332,-1.08 -0.533332,-2.51999 0,-1.45333 0.533332,-2.53333 0.546666,-1.08 1.506663,-1.68 0.973331,-0.59999 2.253328,-0.59999 1.306663,0 2.279994,0.59999 0.973331,0.6 1.506663,1.68 0.546665,1.08 0.546665,2.53333 0,1.43999 -0.546665,2.51999 -0.546665,1.08 -1.519996,1.68 -0.973331,0.59999 -2.266661,0.59999 z m 0,-1.11999 q 0.973331,0 1.666662,-0.45334 0.706665,-0.45333 1.093331,-1.27999 0.386666,-0.82667 0.386666,-1.94666 0,-1.13333 -0.386666,-1.96 -0.386666,-0.82666 -1.093331,-1.28 -0.693331,-0.45333 -1.666662,-0.45333 -0.946664,0 -1.653329,0.45333 -0.706665,0.44 -1.093331,1.26667 -0.373332,0.82666 -0.373332,1.97333 0,1.13333 0.373332,1.95999 0.386666,0.82667 1.093331,1.28 0.706665,0.44 1.653329,0.44 z m 6.06664,0.95999 v -9.29331 h 1.173331 v 8.23998 h 4.159989 v 1.05333 z m 6.186659,0 v -0.93333 q 0.466665,-0.37333 1.079997,-0.82666 0.626665,-0.45333 1.25333,-0.98666 0.639999,-0.53334 1.173331,-1.13334 0.546665,-0.59999 0.879997,-1.26666 0.333336,-0.66666 0.333336,-1.37333 0,-0.78666 -0.440002,-1.28 -0.439999,-0.49333 -1.29333,-0.49333 -0.626665,0 -1.053331,0.29333 -0.413332,0.28 -0.626665,0.78667 -0.199999,0.49333 -0.213333,1.13333 l -1.106663,-0.08 q 0,-0.65333 0.199999,-1.22666 0.2,-0.58667 0.586665,-1.02667 0.386666,-0.45333 0.946664,-0.70666 0.573332,-0.26667 1.306664,-0.26667 0.839998,0 1.466662,0.36 0.62667,0.34667 0.97333,0.98667 0.36,0.62666 0.36,1.47999 0,0.74667 -0.28,1.44 -0.26666,0.69333 -0.76,1.31999 -0.479995,0.62667 -1.10666,1.18667 -0.626666,0.56 -1.33333,1.05333 -0.706665,0.49333 -1.439997,0.90666 l 0.293333,-0.4 h 4.999984 v 1.05333 z"
    id="m1--dytext" aria-label="nanoKONTROL2" />
  <path style="fill:none;stroke:#1f375c;stroke-width:1px;stroke-linecap:butt;stroke-linejoin:miter;stroke-opacity:1"
    d="M 7.4291588,120.5 158.07393,120.62354" id="feedback-bar" sodipodi:nodetypes="cc" inkscape:label="status-bar" />
  <circle style="fill:#4072bf;fill-opacity:1;stroke:none;stroke-opacity:1" id="status-send" cx="88.081924"
    cy="120.56177" r="3" inkscape:label="status-send" />
  <circle style="fill:#53ac53;fill-opacity:1;stroke:none;stroke-opacity:1" id="status-recv" cx="109" cy="120.56177"
    r="3" inkscape:label="status-recv" />
  <g id="g11" inkscape:label="status-dots">
    <circle style="fill:#457aa6;fill-opacity:1;stroke:none;stroke-opacity:1" id="d1--sdot" cx="111.9576" cy="361.71112"
      r="3" />
    <circle style="fill:#bf60be;fill-opacity:1;stroke:none;stroke-opacity:1" id="d2--sdot" cx="103.54114" cy="361.71112"
      r="3" />
    <circle style="fill:#54a754;fill-opacity:1;stroke:none;stroke-opacity:1" id="d3--sdot" cx="95.12468" cy="361.71112"
      r="3" />
    <circle style="fill:#4072bf;fill-opacity:1;stroke:none;stroke-opacity:1" id="d4--sdot" cx="86.708229" cy="361.71112"
      r="3" />
    <circle style="fill:#4072bf;fill-opacity:1;stroke:none;stroke-opacity:1" id="d5--sdot" cx="78.291771" cy="361.71112"
      r="3" />
    <circle style="fill:#4072bf;fill-opacity:1;stroke:none;stroke-opacity:1" id="d6--sdot" cx="69.875313" cy="361.71112"
      r="3" />
    <circle style="fill:#4072bf;fill-opacity:1;stroke:none;stroke-opacity:1" id="d7--sdot" cx="61.458858" cy="361.71112"
      r="3" />
    <circle style="fill:#4072bf;fill-opacity:1;stroke:none;stroke-opacity:1" id="d8--sdot" cx="53.042404" cy="361.71112"
      r="3" />
  </g>
  <g id="g10" transform="translate(15,350)" inkscape:label="reset-button">
    <circle cx="7.5" cy="7.5" r="7.5" id="reset--button-bezel" fill="#808080" />
    <circle cx="7.5" cy="7.5" r="6" id="reset--button-ring" fill="#3a68ac" />
    <circle cx="7.5" cy="7.5" r="4.5" id="reset--button-inset" fill="url(#b)" />
    <circle cx="7.5" cy="7.5" r="4" id="reset--button-face" fill="url(#c)" />
  </g>

  <g transform="translate(2, 0)">
    <path id="m0--ctl-label" fill="#808080" d="M 34,140.22269 V 130 h 1.29067 v 4.38534 h 5.045345 V 130 h 1.29067 v 10.22269 h -1.29067 v -4.63468 H 35.29067 v 4.63468 z m 9.03468,0 L 46.936023,130 h 1.026669 l 3.901342,10.22269 h -1.408003 l -2.992007,-8.37469 -3.006674,8.37469 z m 2.170672,-2.40534 0.396001,-1.15867 h 3.696008 l 0.425335,1.15867 z m 9.09334,-0.85067 v -1.64267 L 59.388037,130 h 1.730671 z m -1.012002,3.25601 V 130 h 1.29067 v 10.22269 z m 6.350681,0 -3.476008,-5.50002 0.968003,-0.89466 4.018675,6.39468 z m 2.94802,0 V 130 h 6.73201 v 1.15867 h -5.44134 v 3.27067 h 4.94268 v 1.15867 h -4.94268 v 3.47601 h 5.44134 v 1.15867 z m 8.580008,0 V 130 h 1.364 l 5.23601,8.55068 h -0.29333 V 130 h 1.29067 v 10.22269 h -1.39334 l -5.20668,-8.56536 h 0.29334 v 8.56536 z" />
    <path id="m1--ctl-label" fill="#808080" d="m 34,184.91026 v -9.2933 h 1.733329 l 2.919992,7.34665 h -0.213332 l 2.919992,-7.34665 h 1.719996 v 9.2933 h -1.173331 v -7.93331 l 0.09333,0.0133 -2.879993,7.13332 h -1.146664 l -2.893326,-7.13332 0.09333,-0.0133 v 7.93331 z m 11.186647,0 v -9.2933 h 1.173331 v 9.2933 z m 3.279996,0 v -9.2933 h 2.573327 q 2.279994,0 3.533324,1.24 1.25333,1.22666 1.25333,3.47999 0,2.21333 -1.239996,3.39999 -1.239997,1.17332 -3.559991,1.17332 z m 1.17333,-1.07999 h 1.279997 q 1.186664,0 2.013328,-0.34667 0.839998,-0.36 1.266664,-1.13333 0.439999,-0.78666 0.439999,-2.05332 0,-1.26666 -0.439999,-2.05333 -0.426666,-0.79999 -1.239997,-1.17333 -0.799998,-0.37333 -1.933328,-0.37333 h -1.386664 z m 7.919969,1.07999 v -9.2933 h 1.17333 v 9.2933 z m 9.573316,0 v -7.49331 l 0.346666,0.58666 h -2.773327 v -0.90666 h 1.61333 q 0.399999,0 0.599998,-0.17332 0.213333,-0.17334 0.213333,-0.6 v -0.70667 h 1.13333 v 9.2933 z" />
    <path id="m2--ctl-label" fill="#808080" d="m 34,230.62056 v -9.29331 h 1.733329 l 2.919992,7.34664 h -0.213332 l 2.919992,-7.34664 h 1.719996 v 9.29331 h -1.173331 v -7.93332 l 0.09333,0.0133 -2.879993,7.13331 h -1.146664 l -2.893326,-7.13331 0.09333,-0.0133 v 7.93332 z m 11.186647,0 v -9.29331 h 1.173331 v 9.29331 z m 3.279996,0 v -9.29331 h 2.573327 q 2.279994,0 3.533324,1.23999 1.25333,1.22667 1.25333,3.47999 0,2.21333 -1.239996,3.39999 -1.239997,1.17334 -3.559991,1.17334 z m 1.17333,-1.08 h 1.279997 q 1.186664,0 2.013328,-0.34667 0.839998,-0.36 1.266664,-1.13333 0.439999,-0.78666 0.439999,-2.05333 0,-1.26666 -0.439999,-2.05332 -0.426666,-0.8 -1.239997,-1.17333 -0.799998,-0.37334 -1.933328,-0.37334 h -1.386664 z m 7.919969,1.08 v -9.29331 h 1.17333 v 9.29331 z m 6.333324,0 v -0.93334 q 0.466666,-0.37333 1.079997,-0.82666 0.626665,-0.45333 1.253331,-0.98666 0.639998,-0.53334 1.17333,-1.13333 0.546665,-0.6 0.879998,-1.26667 0.333332,-0.66666 0.333332,-1.37333 0,-0.78666 -0.439999,-1.27999 -0.439999,-0.49334 -1.29333,-0.49334 -0.626665,0 -1.05333,0.29334 -0.413333,0.27999 -0.626666,0.78666 -0.199999,0.49333 -0.213332,1.13333 l -1.106664,-0.08 q 0,-0.65333 0.199999,-1.22666 0.2,-0.58667 0.586665,-1.02667 0.386666,-0.45333 0.946665,-0.70666 0.573332,-0.26667 1.306663,-0.26667 0.839998,0 1.466663,0.36 0.626665,0.34667 0.973331,0.98667 0.359999,0.62666 0.359999,1.47999 0,0.74667 -0.279999,1.44 -0.266666,0.69333 -0.759998,1.31999 -0.479999,0.62667 -1.106664,1.18667 -0.626665,0.56 -1.33333,1.05333 -0.706665,0.49333 -1.439997,0.90666 l 0.293333,-0.4 h 4.999987 v 1.05334 z" />
  </g>

</svg>