<?xml version="1.0" encoding="UTF-8" standalone="no"?>
<!-- Created with Inkscape (http://www.inkscape.org/) -->

<svg
   width="360"
   height="380"
   viewBox="0 0 360 380.00002"
   version="1.1"
   id="svg1"
   inkscape:version="1.3.2 (091e20e, 2023-11-25, custom)"
   sodipodi:docname="CHEM-preset.svg"
   xmlns:inkscape="http://www.inkscape.org/namespaces/inkscape"
   xmlns:sodipodi="http://sodipodi.sourceforge.net/DTD/sodipodi-0.dtd"
   xmlns="http://www.w3.org/2000/svg"
   xmlns:svg="http://www.w3.org/2000/svg">
  <defs
     id="defs5" />
  <sodipodi:namedview
     id="namedview1"
     pagecolor="#ffffff"
     bordercolor="#111111"
     borderopacity="1"
     inkscape:showpageshadow="0"
     inkscape:pageopacity="0"
     inkscape:pagecheckerboard="1"
     inkscape:deskcolor="#d1d1d1"
     inkscape:document-units="px"
     showguides="false"
     inkscape:zoom="3.2471088"
     inkscape:cx="153.82916"
     inkscape:cy="187.70545"
     inkscape:window-width="3840"
     inkscape:window-height="2054"
     inkscape:window-x="3829"
     inkscape:window-y="-11"
     inkscape:window-maximized="1"
     inkscape:current-layer="g5">
    <sodipodi:guide
       position="0.43544812,372.46838"
       orientation="0,-1"
       id="guide1"
       inkscape:locked="false" />
    <sodipodi:guide
       position="7.5,380"
       orientation="1,0"
       id="guide2"
       inkscape:locked="false" />
    <sodipodi:guide
       position="15,378.63154"
       orientation="1,0"
       id="guide3"
       inkscape:locked="false" />
    <sodipodi:guide
       position="-3.3527796,364.96952"
       orientation="0,-1"
       id="guide4"
       inkscape:locked="false" />
    <sodipodi:guide
       position="-2.8947185,7.5"
       orientation="0,-1"
       id="guide7"
       inkscape:locked="false" />
    <sodipodi:guide
       position="-39.531861,17.295187"
       orientation="0,-1"
       id="guide8"
       inkscape:locked="false" />
    <sodipodi:guide
       position="390.64661,138.20443"
       orientation="1,0"
       id="guide16"
       inkscape:locked="false" />
  </sodipodi:namedview>
   <linearGradient id="panel-gradient" x1="0" y1="60" x2="0" y2="350" gradientUnits="userSpaceOnUse">
      <stop offset="0" stop-color="#282828" />
      <stop offset="1" stop-color="#181818" />
   </linearGradient>
  <g
     id="g5">
    <rect
       fill="url(#panel-gradient)"
       id="g-panel"
       width="360"
       height="380"
       x="0"
       y="0" />
    <g
       id="grid"
       transform="matrix(2.0066667,0,0,1,-12.08,24)"
       style="stroke-width:0.705931">
      <rect
         fill="#333333"
         id="grid-bg"
         width="150"
         height="300"
         x="12"
         y="32"
         stroke-width="0.352966" />
      <path
         transform="translate(12,52)"
         stroke="#1f1f1f"
         stroke-width="0.705931px"
         d="M 0,0 H 150 Z"
         id="gl1--grid-line" />
      <path
         transform="translate(12,72)"
         stroke="#1f1f1f"
         stroke-width="0.705931px"
         d="M 0,0 H 150 Z"
         id="gl2--grid-line" />
      <path
         transform="translate(12,92)"
         stroke="#1f1f1f"
         stroke-width="0.705931px"
         d="M 0,0 H 150 Z"
         id="gl3--grid-line" />
      <path
         transform="translate(12,112)"
         stroke="#1f1f1f"
         stroke-width="0.705931px"
         d="M 0,0 H 150 Z"
         id="gl4--grid-line" />
      <path
         transform="translate(12,132)"
         stroke="#1f1f1f"
         stroke-width="0.705931px"
         d="M 0,0 H 150 Z"
         id="gl5--grid-line" />
      <path
         transform="translate(12,152)"
         stroke="#1f1f1f"
         stroke-width="0.705931px"
         d="M 0,0 H 150 Z"
         id="gl6--grid-line" />
      <path
         transform="translate(12,172)"
         stroke="#1f1f1f"
         stroke-width="0.705931px"
         d="M 0,0 H 150 Z"
         id="gl7--grid-line" />
      <path
         transform="translate(12,192)"
         stroke="#1f1f1f"
         stroke-width="0.705931px"
         d="M 0,0 H 150 Z"
         id="gl8--grid-line" />
      <path
         transform="translate(12,212)"
         stroke="#1f1f1f"
         stroke-width="0.705931px"
         d="M 0,0 H 150 Z"
         id="gl9--grid-line" />
      <path
         transform="translate(12,232)"
         stroke="#1f1f1f"
         stroke-width="0.705931px"
         d="M 0,0 H 150 Z"
         id="gl10--grid-line" />
      <path
         transform="translate(12,252)"
         stroke="#1f1f1f"
         stroke-width="0.705931px"
         d="M 0,0 H 150 Z"
         id="gl11--grid-line" />
      <path
         transform="translate(12,272)"
         stroke="#1f1f1f"
         stroke-width="0.705931px"
         d="M 0,0 H 150 Z"
         id="gl12--grid-line" />
      <path
         transform="translate(12,292)"
         stroke="#1f1f1f"
         stroke-width="0.705931px"
         d="M 0,0 H 150 Z"
         id="gl13--grid-line" />
      <path
         transform="translate(12,312)"
         stroke="#1f1f1f"
         stroke-width="0.705931px"
         d="M 0,0 H 150 Z"
         id="gl14--grid-line" />
      <path
         stroke="#1f1f1f"
         stroke-width="0.705931px"
         d="M 87,32 V 333 Z"
         id="v--grid-line" />
    </g>
    <path
       style="font-weight:600;font-size:16px;line-height:1.25;font-family:'Hanken Grotesk';-inkscape-font-specification:'Hanken Grotesk Semi-Bold';text-align:center;text-anchor:middle;fill:#8c8c8c;fill-opacity:1"
       d="m 65.151991,51.6 q -2.063999,0 -3.151999,-1.072 -1.072,-1.072 -1.072,-3.184 v -7.12 h 1.856 v 6.912 q 0,0.912 0.208,1.536 0.224,0.608 0.735999,0.928 0.528,0.304 1.424,0.304 0.896,0 1.408,-0.32 0.528,-0.32 0.752,-0.928 0.224,-0.608 0.224,-1.52 v -6.912 h 1.839999 v 7.04 q 0,2.16 -1.072,3.248 -1.071999,1.088 -3.151999,1.088 z m 8.991991,-0.08 q -0.848,0 -1.503999,-0.24 -0.656,-0.256 -1.104,-0.64 -0.448,-0.384 -0.736,-0.768 l 1.216,-1.056 q 0.304,0.496 0.832,0.88 0.543999,0.384 1.311999,0.384 0.64,0 1.008,-0.272 0.384,-0.272 0.384,-0.672 0,-0.352 -0.24,-0.544 -0.24,-0.208 -0.624,-0.352 -0.384,-0.144 -0.848,-0.256 -0.448,-0.112 -0.912,-0.272 -0.463999,-0.176 -0.863999,-0.432 -0.384,-0.256 -0.624,-0.656 -0.24,-0.4 -0.24,-0.992 0,-1.04 0.8,-1.664 0.8,-0.624 2.095999,-0.624 0.928,0 1.696,0.368 0.768,0.368 1.2,1.104 l -1.104,0.848 q -0.32,-0.48 -0.8,-0.72 -0.48,-0.24 -1.04,-0.24 -0.512,0 -0.864,0.208 -0.335999,0.208 -0.335999,0.544 0,0.256 0.159999,0.416 0.16,0.16 0.496,0.288 0.336,0.128 0.848,0.256 0.48,0.112 0.992,0.272 0.512,0.16 0.944,0.432 0.448,0.256 0.72,0.704 0.288,0.432 0.288,1.12 0,0.768 -0.4,1.36 -0.384,0.576 -1.104,0.896 -0.704,0.32 -1.648,0.32 z m 8.30401,0 q -0.992,0 -1.728,-0.32 -0.72,-0.32 -1.184,-0.896 -0.464,-0.576 -0.688,-1.296 -0.224,-0.736 -0.224,-1.52 0,-0.784 0.208,-1.52 0.224,-0.752 0.672,-1.344 0.448,-0.592 1.152,-0.928 0.704,-0.352 1.664,-0.352 0.911999,0 1.583999,0.32 0.688,0.304 1.136,0.864 0.448,0.544 0.656,1.248 0.224,0.704 0.224,1.504 0,0.112 -0.016,0.32 0,0.208 -0.032,0.416 h -5.471999 q 0.064,0.944 0.64,1.44 0.576,0.496 1.472,0.496 0.655999,0 1.199999,-0.208 0.544,-0.208 0.992,-0.656 l 0.976,1.184 q -0.496,0.448 -0.992,0.72 -0.496,0.272 -1.04,0.4 -0.528,0.128 -1.199999,0.128 z m 1.727999,-4.4 q 0.032,-0.128 0.032,-0.256 0.016,-0.128 0.016,-0.256 0,-0.352 -0.128,-0.672 -0.112,-0.32 -0.352,-0.56 -0.24,-0.256 -0.592,-0.4 -0.352,-0.16 -0.799999,-0.16 -0.624,0 -1.056,0.272 -0.416,0.272 -0.656,0.704 -0.224,0.416 -0.272,0.912 h 4.383999 z m 3.472005,4.256 v -7.888 h 1.792 v 2.128 l -0.336,0.048 q 0.08,-0.688 0.464,-1.2 0.384,-0.528 0.928,-0.816 0.56,-0.304 1.104,-0.304 0.384,0 0.735999,0.096 0.352,0.096 0.736,0.32 l -0.864,1.6 q -0.175999,-0.112 -0.463999,-0.176 -0.272,-0.08 -0.528,-0.08 -0.336,0 -0.672,0.128 -0.32,0.128 -0.576,0.4 -0.256,0.256 -0.384,0.672 -0.08,0.224 -0.128,0.592 -0.032,0.352 -0.032,0.992 v 3.488 z"
       id="user--tab-label"
       aria-label="User"
       inkscape:label="User" />
    <path
       fill="#d9d9d9"
       d="m 207.87996,51.584 q -1.76,0 -2.88,-0.912 -1.104,-0.912 -1.36,-2.432 l 1.808,-0.448 q 0.176,1.056 0.832,1.6 0.672,0.544 1.648,0.544 0.544,0 0.976,-0.192 0.432,-0.208 0.672,-0.576 0.256,-0.368 0.256,-0.832 0,-0.496 -0.272,-0.816 -0.272,-0.336 -0.784,-0.592 -0.512,-0.272 -1.248,-0.56 -1.008,-0.384 -1.712,-0.832 -0.704,-0.448 -1.072,-1.056 -0.368,-0.624 -0.368,-1.472 0,-0.88 0.432,-1.552 0.432,-0.688 1.216,-1.072 0.784,-0.384 1.808,-0.384 1.104,0 1.952,0.496 0.848,0.496 1.36,1.504 l -1.472,0.896 q -0.336,-0.608 -0.816,-0.928 -0.48,-0.336 -1.088,-0.336 -0.432,0 -0.784,0.176 -0.352,0.16 -0.56,0.464 -0.192,0.304 -0.192,0.704 0,0.416 0.24,0.736 0.24,0.304 0.736,0.56 0.512,0.256 1.296,0.56 1.008,0.384 1.712,0.832 0.704,0.448 1.072,1.072 0.384,0.608 0.384,1.488 0,0.976 -0.48,1.728 -0.48,0.752 -1.344,1.2 -0.848,0.432 -1.968,0.432 z m 5.61599,3.04 1.568,-3.776 -3.008,-7.36 h 1.952 l 2,5.584 2.032,-5.584 h 1.92 l -4.544,11.136 z m 10.336,-3.104 q -0.848,0 -1.504,-0.24 -0.656,-0.256 -1.104,-0.64 -0.448,-0.384 -0.736,-0.768 l 1.216,-1.056 q 0.304,0.496 0.832,0.88 0.544,0.384 1.312,0.384 0.64,0 1.008,-0.272 0.384,-0.272 0.384,-0.672 0,-0.352 -0.24,-0.544 -0.24,-0.208 -0.624,-0.352 -0.384,-0.144 -0.848,-0.256 -0.448,-0.112 -0.912,-0.272 -0.464,-0.176 -0.864,-0.432 -0.384,-0.256 -0.624,-0.656 -0.24,-0.4 -0.24,-0.992 0,-1.04 0.8,-1.664 0.8,-0.624 2.096,-0.624 0.928,0 1.696,0.368 0.768,0.368 1.2,1.104 l -1.104,0.848 q -0.32,-0.48 -0.8,-0.72 -0.48,-0.24 -1.04,-0.24 -0.512,0 -0.864,0.208 -0.336,0.208 -0.336,0.544 0,0.256 0.16,0.416 0.16,0.16 0.496,0.288 0.336,0.128 0.848,0.256 0.48,0.112 0.992,0.272 0.512,0.16 0.944,0.432 0.448,0.256 0.72,0.704 0.288,0.432 0.288,1.12 0,0.768 -0.4,1.36 -0.384,0.576 -1.104,0.896 -0.704,0.32 -1.648,0.32 z m 7.712,0 q -0.592,0 -1.12,-0.224 -0.512,-0.24 -0.816,-0.752 -0.304,-0.528 -0.304,-1.376 v -7.6 l 1.792,-0.992 v 8.096 q 0,0.672 0.192,1.04 0.208,0.352 0.736,0.352 0.16,0 0.368,-0.032 0.224,-0.048 0.464,-0.112 v 1.376 q -0.32,0.112 -0.656,0.16 -0.32,0.064 -0.656,0.064 z m -3.74399,-6.656 v -1.376 h 5.05599 v 1.376 z m 9.936,6.656 q -0.992,0 -1.728,-0.32 -0.72,-0.32 -1.184,-0.896 -0.464,-0.576 -0.688,-1.296 -0.224,-0.736 -0.224,-1.52 0,-0.784 0.208,-1.52 0.224,-0.752 0.672,-1.344 0.448,-0.592 1.152,-0.928 0.704,-0.352 1.664,-0.352 0.912,0 1.584,0.32 0.688,0.304 1.136,0.864 0.448,0.544 0.656,1.248 0.224,0.704 0.224,1.504 0,0.112 -0.016,0.32 0,0.208 -0.032,0.416 h -5.472 q 0.064,0.944 0.64,1.44 0.576,0.496 1.472,0.496 0.656,0 1.2,-0.208 0.544,-0.208 0.992,-0.656 l 0.976,1.184 q -0.496,0.448 -0.992,0.72 -0.496,0.272 -1.04,0.4 -0.528,0.128 -1.2,0.128 z m 1.728,-4.4 q 0.032,-0.128 0.032,-0.256 0.016,-0.128 0.016,-0.256 0,-0.352 -0.128,-0.672 -0.112,-0.32 -0.352,-0.56 -0.24,-0.256 -0.592,-0.4 -0.352,-0.16 -0.8,-0.16 -0.624,0 -1.056,0.272 -0.416,0.272 -0.656,0.704 -0.224,0.416 -0.272,0.912 h 4.384 z m 3.472,4.256 v -7.888 h 1.776 v 2.048 l -0.384,0.224 q 0.144,-0.688 0.4,-1.152 0.272,-0.464 0.624,-0.736 0.352,-0.288 0.752,-0.4 0.416,-0.128 0.832,-0.128 0.64,0 1.2,0.256 0.56,0.24 0.944,0.8 0.4,0.544 0.544,1.488 l -1.04,0.288 q 0.24,-1.024 0.672,-1.632 0.432,-0.624 1.008,-0.912 0.592,-0.288 1.28,-0.288 1.008,0 1.616,0.448 0.624,0.432 0.912,1.152 0.288,0.704 0.288,1.52 v 4.912 h -1.776 v -4.48 q 0,-0.656 -0.16,-1.104 -0.144,-0.448 -0.464,-0.672 -0.32,-0.24 -0.816,-0.24 -0.528,0 -0.88,0.272 -0.352,0.256 -0.544,0.8 -0.176,0.544 -0.176,1.344 v 4.08 h -1.776 v -4.56 q 0,-0.976 -0.368,-1.456 -0.368,-0.48 -1.04,-0.48 -0.528,0 -0.896,0.272 -0.368,0.272 -0.56,0.816 -0.192,0.528 -0.192,1.328 v 4.08 z"
       id="sys--tab-label-hi"
       aria-label="System"
       inkscape:label="System" />
    <path
       style="font-size:8px;line-height:1.25;font-family:'Hanken Grotesk';-inkscape-font-specification:'Hanken Grotesk';text-align:center;text-anchor:middle;fill:#4173bf"
       d="m 149.85825,74.569914 q -0.768,0 -1.352,-0.36 -0.576,-0.36 -0.904,-1.008 -0.32,-0.648 -0.32,-1.512 0,-0.872 0.32,-1.52 0.328,-0.648 0.904,-1.008 0.584,-0.36 1.352,-0.36 0.784,0 1.368,0.36 0.584,0.36 0.904,1.008 0.328,0.648 0.328,1.52 0,0.864 -0.328,1.512 -0.328,0.648 -0.912,1.008 -0.584,0.36 -1.36,0.36 z m 0,-0.672 q 0.584,0 1,-0.272 0.424,-0.272 0.656,-0.768 0.232,-0.496 0.232,-1.168 0,-0.68 -0.232,-1.176 -0.232,-0.496 -0.656,-0.768 -0.416,-0.272 -1,-0.272 -0.568,0 -0.992,0.272 -0.424,0.264 -0.656,0.76 -0.224,0.496 -0.224,1.184 0,0.68 0.224,1.176 0.232,0.496 0.656,0.768 0.424,0.264 0.992,0.264 z m 4.64799,0.576 v -4.944 h -1.872 v -0.632 h 4.448 v 0.632 h -1.864 v 4.944 z"
       id="OT-dytext"
       aria-label="OT"
       inkscape:label="OT" />
    <path
       fill="#d27979"
       d="m 153.91038,58.565593 c 0.0305,-0.0028 0.0651,-0.0055 0.10392,-0.0083 0.11915,-0.0056 0.23968,-0.0014 0.3616,0.01246 0.1247,0.01385 0.25216,0.04018 0.3824,0.07897 0.14132,0.04433 0.28125,0.101139 0.41979,0.170413 0.32143,0.160715 0.57359,0.360223 0.75647,0.598524 0.18288,0.238301 0.30619,0.497385 0.36992,0.77725 0.0526,0.221676 0.0707,0.455821 0.054,0.702434 -0.0166,0.23276 -0.0623,0.471061 -0.13717,0.714904 -0.0498,0.157944 -0.10945,0.313117 -0.17872,0.465518 -0.0859,0.188425 -0.18704,0.369922 -0.30342,0.544491 -0.0859,0.130235 -0.17872,0.256313 -0.27848,0.378234 -0.0887,0.105296 -0.18288,0.209207 -0.28263,0.311732 v 0 c -0.0222,0.01939 -0.043,0.04018 -0.0623,0.06235 -0.0194,0.0194 -0.0402,0.04019 -0.0623,0.06235 -0.0498,0.04988 -0.10253,0.102525 -0.15795,0.157944 -0.0554,0.05265 -0.11222,0.108068 -0.17041,0.166257 -0.0665,0.0665 -0.13577,0.135776 -0.20783,0.207821 -0.0721,0.06928 -0.14547,0.139932 -0.22028,0.211977 -0.10252,0.102525 -0.21198,0.209207 -0.32836,0.320045 -0.14686,0.138546 -0.29372,0.274323 -0.44058,0.407328 -0.11638,0.108067 -0.22999,0.210587 -0.34083,0.307574 -0.16348,0.144088 -0.31727,0.274322 -0.46135,0.390707 -0.0721,0.05819 -0.14271,0.113607 -0.21198,0.166257 -0.0554,0.04155 -0.11638,0.07065 -0.18288,0.08728 -0.17181,0.04708 -0.32836,0.01383 -0.46967,-0.09975 -0.22723,-0.182888 -0.48492,-0.403176 -0.7731,-0.660872 -0.28541,-0.254927 -0.5722,-0.516781 -0.86038,-0.785563 -0.28541,-0.268782 -0.54311,-0.51401 -0.77309,-0.735685 -0.0471,-0.04988 -0.0942,-0.09698 -0.14133,-0.141319 -0.0442,-0.04433 -0.0873,-0.0859 -0.12885,-0.124692 -0.47105,-0.471061 -0.80772,-1.005853 -1.01,-1.604377 -0.0942,-0.279866 -0.15102,-0.554189 -0.17042,-0.822971 -0.0139,-0.254927 0.007,-0.495998 0.0623,-0.723216 0.0443,-0.182882 0.11222,-0.353296 0.20367,-0.51124 0.0998,-0.17457 0.22583,-0.331127 0.37823,-0.469675 0.11361,-0.102525 0.23829,-0.193966 0.37407,-0.274323 0.0526,-0.03048 0.10392,-0.05819 0.15379,-0.08313 0.002,-0.0028 0.006,-0.0041 0.008,-0.0041 0.14132,-0.07205 0.28401,-0.12885 0.4281,-0.170413 0.18566,-0.05542 0.37269,-0.0859 0.56112,-0.09144 0.20505,-0.0083 0.39902,0.01109 0.5819,0.05819 0.18565,0.04711 0.35746,0.112223 0.51539,0.195351 0.0915,0.04434 0.17735,0.09421 0.2577,0.149632 0.0831,0.05542 0.16072,0.112223 0.23276,0.170413 0.0859,0.07205 0.16349,0.145474 0.23276,0.22029 0.0721,0.07481 0.13439,0.14686 0.18705,0.216133 0.0693,-0.09144 0.14685,-0.180111 0.23275,-0.26601 0.0582,-0.05542 0.11638,-0.108067 0.17457,-0.157944 0.002,-0.0028 0.007,-0.0069 0.0125,-0.01246 0.0914,-0.07481 0.18703,-0.142704 0.28679,-0.203665 0.13855,-0.08867 0.28264,-0.1621 0.43227,-0.22029 0.19397,-0.07481 0.3907,-0.121921 0.59021,-0.141318 z"
       id="pf--favorite"
       aria-label="❤️"
       sodipodi:nodetypes="scccssccccccsscscscccccscccccccccccccccccccccccccccccss"
       inkscape:label="fave-preset" />
    <g
       id="g6"
       inkscape:label="preset-advance"
       transform="translate(-76,10)">
      <path
         style="font-size:12px;line-height:1.25;font-family:'Hanken Grotesk';-inkscape-font-specification:'Hanken Grotesk';text-align:center;text-anchor:middle;fill:#d9d9d9"
         d="m 396.49399,127.53877 v -8.364 h 1.008 v 1.764 l -0.324,-0.228 q 0.156,-0.516 0.456,-0.876 0.312,-0.372 0.756,-0.564 0.444,-0.192 1.008,-0.192 0.804,0 1.404,0.408 0.612,0.396 0.948,1.092 0.336,0.684 0.336,1.56 0,0.924 -0.36,1.62 -0.36,0.684 -0.972,1.056 -0.612,0.372 -1.356,0.372 -0.564,0 -1.008,-0.204 -0.444,-0.204 -0.744,-0.564 -0.3,-0.36 -0.432,-0.816 l 0.288,-0.276 v 4.212 z m 2.736,-3.276 q 0.54,0 0.948,-0.264 0.42,-0.276 0.648,-0.756 0.24,-0.48 0.24,-1.104 0,-0.624 -0.24,-1.104 -0.228,-0.48 -0.648,-0.744 -0.408,-0.276 -0.948,-0.276 -0.54,0 -0.948,0.276 -0.408,0.264 -0.636,0.744 -0.228,0.48 -0.228,1.104 0,0.624 0.228,1.104 0.228,0.48 0.636,0.756 0.408,0.264 0.948,0.264 z m 4.308,0.828 v -5.916 h 1.02 v 1.584 l -0.264,0.06 q 0.084,-0.528 0.396,-0.912 0.324,-0.396 0.744,-0.612 0.432,-0.216 0.84,-0.216 0.276,0 0.528,0.06 0.252,0.06 0.516,0.204 l -0.504,0.912 q -0.144,-0.072 -0.348,-0.12 -0.192,-0.048 -0.372,-0.048 -0.288,0 -0.576,0.108 -0.276,0.108 -0.504,0.336 -0.228,0.228 -0.348,0.612 -0.048,0.168 -0.084,0.444 -0.024,0.264 -0.024,0.732 v 2.772 z m 7.044,0.096 q -0.696,0 -1.224,-0.228 -0.516,-0.24 -0.864,-0.66 -0.336,-0.42 -0.516,-0.96 -0.168,-0.552 -0.168,-1.164 0,-0.612 0.168,-1.164 0.168,-0.564 0.492,-0.996 0.336,-0.432 0.84,-0.684 0.504,-0.252 1.176,-0.252 0.684,0 1.176,0.24 0.504,0.228 0.816,0.636 0.324,0.408 0.48,0.912 0.156,0.504 0.156,1.044 0,0.048 -0.012,0.228 0,0.168 -0.024,0.3 h -4.26 q 0.036,0.864 0.504,1.344 0.468,0.48 1.272,0.48 0.516,0 0.9,-0.168 0.384,-0.168 0.72,-0.54 l 0.708,0.624 q -0.324,0.348 -0.684,0.576 -0.36,0.216 -0.768,0.324 -0.396,0.108 -0.888,0.108 z m 1.524,-3.264 q 0.024,-0.096 0.024,-0.192 0.012,-0.096 0.012,-0.192 0,-0.288 -0.108,-0.576 -0.096,-0.288 -0.3,-0.516 -0.192,-0.24 -0.504,-0.372 -0.3,-0.144 -0.72,-0.144 -0.516,0 -0.888,0.24 -0.372,0.24 -0.576,0.636 -0.204,0.396 -0.24,0.876 h 3.636 z m 4.41601,3.264 q -0.6,0 -1.08,-0.18 -0.48,-0.18 -0.828,-0.48 -0.336,-0.3 -0.54,-0.636 l 0.708,-0.6 q 0.228,0.456 0.672,0.756 0.456,0.288 1.08,0.288 0.564,0 0.9,-0.24 0.336,-0.24 0.336,-0.648 0,-0.336 -0.204,-0.528 -0.204,-0.192 -0.54,-0.312 -0.336,-0.12 -0.732,-0.216 -0.336,-0.084 -0.684,-0.204 -0.336,-0.12 -0.612,-0.3 -0.276,-0.18 -0.444,-0.468 -0.168,-0.288 -0.168,-0.708 0,-0.732 0.564,-1.176 0.576,-0.456 1.5,-0.456 0.672,0 1.224,0.288 0.564,0.276 0.876,0.84 l -0.648,0.48 q -0.24,-0.42 -0.636,-0.6 -0.384,-0.192 -0.852,-0.192 -0.468,0 -0.78,0.192 -0.312,0.192 -0.312,0.528 0,0.252 0.144,0.408 0.144,0.156 0.42,0.264 0.288,0.108 0.696,0.204 0.372,0.084 0.756,0.204 0.384,0.12 0.708,0.312 0.324,0.192 0.516,0.516 0.204,0.312 0.204,0.816 0,0.552 -0.276,0.972 -0.276,0.42 -0.78,0.648 -0.504,0.228 -1.188,0.228 z m 6.17999,0 q -0.696,0 -1.224,-0.228 -0.516,-0.24 -0.864,-0.66 -0.336,-0.42 -0.516,-0.96 -0.168,-0.552 -0.168,-1.164 0,-0.612 0.168,-1.164 0.168,-0.564 0.492,-0.996 0.336,-0.432 0.84,-0.684 0.504,-0.252 1.176,-0.252 0.684,0 1.176,0.24 0.504,0.228 0.816,0.636 0.324,0.408 0.48,0.912 0.156,0.504 0.156,1.044 0,0.048 -0.012,0.228 0,0.168 -0.024,0.3 h -4.26 q 0.036,0.864 0.504,1.344 0.468,0.48 1.272,0.48 0.516,0 0.9,-0.168 0.384,-0.168 0.72,-0.54 l 0.708,0.624 q -0.324,0.348 -0.684,0.576 -0.36,0.216 -0.768,0.324 -0.396,0.108 -0.888,0.108 z m 1.524,-3.264 q 0.024,-0.096 0.024,-0.192 0.012,-0.096 0.012,-0.192 0,-0.288 -0.108,-0.576 -0.096,-0.288 -0.3,-0.516 -0.192,-0.24 -0.504,-0.372 -0.3,-0.144 -0.72,-0.144 -0.516,0 -0.888,0.24 -0.372,0.24 -0.576,0.636 -0.204,0.396 -0.24,0.876 h 3.636 z m 4.36802,3.264 q -0.42,0 -0.768,-0.156 -0.336,-0.168 -0.528,-0.528 -0.192,-0.36 -0.192,-0.924 v -5.988 l 1.032,-0.576 v 6.3 q 0,0.492 0.156,0.768 0.156,0.264 0.564,0.264 0.12,0 0.288,-0.024 0.168,-0.036 0.36,-0.084 v 0.792 q -0.228,0.084 -0.468,0.12 -0.228,0.036 -0.444,0.036 z m -2.712,-5.22 v -0.792 h 3.624 v 0.792 z"
         id="preset--ctl-label"
         aria-label="preset"
         inkscape:label="preset" />
      <g
         id="g4"
         transform="translate(2)"
         inkscape:label="preset-ctls">
        <g
           id="g1"
           transform="translate(-3.6)"
           inkscape:label="preset-plus">
          <path
             style="font-weight:600;font-size:18.6667px;line-height:1.25;font-family:'Hanken Grotesk';-inkscape-font-specification:'Hanken Grotesk Semi-Bold';text-align:center;text-anchor:middle;fill:#d9d9d9"
             d="m 422.79333,109.67899 v -3.71468 h -3.696 v -1.624 h 3.696 v -3.69601 h 1.64267 v 3.69601 h 3.71468 v 1.624 H 424.436 v 3.71468 z"
             id="pp--ctl-glyph"
             aria-label="-  +"
             sodipodi:nodetypes="ccccccccccccc" />
          <rect
             style="fill:none;fill-opacity:1;stroke:#808080;stroke-width:0.925085;stroke-dasharray:none;stroke-opacity:1"
             id="pp--ctl-frame"
             width="15.074915"
             height="15.074915"
             x="416.08655"
             y="97.624191" />
        </g>
        <g
           id="g3"
           transform="translate(-0.6)"
           inkscape:label="preset-minus">
          <rect
             style="fill:none;fill-opacity:1;stroke:#808080;stroke-width:0.925085;stroke-dasharray:none;stroke-opacity:1"
             id="pn--ctl-frame"
             width="15.074915"
             height="15.074915"
             x="395.08655"
             y="97.624191" />
          <path
             fill="#d9d9d9"
             d="m 398.09733,105.97365 v -1.624 h 9.05335 v 1.624 z"
             id="pn--ctl-glyph"
             aria-label="-  +"
             sodipodi:nodetypes="ccccc" />
        </g>
      </g>
    </g>
    <g
       id="g32"
       inkscape:label="prev-next-cv"
       transform="translate(-76,-7.35)">
      <g
         id="g78"
         transform="translate(-8.8593874,-2.650009)">
        <g
           id="g59"
           transform="translate(126,219.5)"
           inkscape:label="port-next">
          <circle
             style="fill:none;stroke:#595959;stroke-width:2;stroke-dasharray:none;stroke-opacity:1"
             id="circle58"
             cx="303.76105"
             cy="138.5"
             r="8" />
          <circle
             style="fill:#2e2e2e;fill-opacity:1;stroke:#4095bf;stroke-width:1.75;stroke-dasharray:none;stroke-opacity:1"
             id="circle59"
             cx="303.76105"
             cy="138.5"
             r="6" />
        </g>
        <path
           style="font-weight:600;font-size:18.6667px;line-height:1.25;font-family:'Hanken Grotesk';-inkscape-font-specification:'Hanken Grotesk Semi-Bold';text-align:center;text-anchor:middle;fill:#808080;fill-opacity:1"
           d="m 429.02871,347.77879 v -3.71468 h -3.696 v -1.624 h 3.696 v -3.69601 h 1.64267 v 3.69601 h 3.71468 v 1.624 h -3.71468 v 3.71468 z"
           id="cvNext--ctl-glyph"
           aria-label="-  +"
           sodipodi:nodetypes="ccccccccccccc"
           inkscape:label="Next" />
      </g>
      <g
         id="g77"
         transform="translate(-8.86,-2.65)">
        <g
           id="g509"
           transform="translate(106.09834,219.5)"
           inkscape:label="port-prev">
          <circle
             style="fill:none;stroke:#595959;stroke-width:2;stroke-dasharray:none;stroke-opacity:1"
             id="circle508"
             cx="303.76105"
             cy="138.5"
             r="8" />
          <circle
             style="fill:#2e2e2e;fill-opacity:1;stroke:#4095bf;stroke-width:1.75;stroke-dasharray:none;stroke-opacity:1"
             id="circle509"
             cx="303.76105"
             cy="138.5"
             r="6" />
        </g>
        <path
           fill="#808080"
           d="m 405.33271,344.06411 v -1.624 h 9.05335 v 1.624 z"
           id="cvPrev--ctl-glyph"
           aria-label="-  +"
           sodipodi:nodetypes="ccccc"
           inkscape:label="cvPrev" />
      </g>
    </g>
    <path
       fill="#d4a011"
       d="m 24,29.344 4.256,-11.152 h 1.12 l 4.256,11.152 h -1.536 l -3.264,-9.136 -3.28,9.136 z M 26.368,26.72 26.8,25.456 h 4.032 l 0.464,1.264 z m 8.703986,2.624 v -7.888 h 1.36 v 1.68 l -0.32,0.112 q 0.224,-0.608 0.608,-1.024 0.384,-0.432 0.928,-0.656 0.544,-0.24 1.2,-0.24 1.296,0 2.032,0.768 0.736,0.752 0.736,2.24 v 5.008 h -1.36 v -4.512 q 0,-1.2 -0.448,-1.76 -0.432,-0.576 -1.328,-0.576 -0.656,0 -1.12,0.304 -0.448,0.304 -0.688,0.96 -0.24,0.64 -0.24,1.648 v 3.936 z m 12.224015,0.128 q -1.104,0 -1.984,-0.512 -0.864,-0.528 -1.36,-1.456 -0.496,-0.928 -0.496,-2.112 0,-1.184 0.48,-2.096 0.496,-0.928 1.36,-1.44 0.88,-0.528 2,-0.528 1.12,0 1.968,0.528 0.864,0.512 1.36,1.44 0.496,0.912 0.496,2.096 0,1.184 -0.496,2.112 -0.496,0.912 -1.36,1.44 -0.864,0.528 -1.968,0.528 z m 0,-1.2 q 0.752,0 1.296,-0.352 0.56,-0.368 0.864,-1.008 0.304,-0.656 0.304,-1.52 0,-0.88 -0.304,-1.52 -0.304,-0.656 -0.864,-1.008 -0.544,-0.352 -1.296,-0.352 -0.768,0 -1.328,0.368 -0.56,0.352 -0.864,0.992 -0.304,0.64 -0.304,1.52 0,0.864 0.304,1.52 0.304,0.64 0.864,1.008 0.56,0.352 1.328,0.352 z m 8.207999,1.2 q -0.56,0 -1.024,-0.208 Q 54.032,29.04 53.776,28.56 53.52,28.08 53.52,27.328 v -7.984 l 1.376,-0.768 v 8.4 q 0,0.656 0.208,1.024 0.208,0.352 0.752,0.352 0.16,0 0.384,-0.032 0.224,-0.048 0.48,-0.112 v 1.056 q -0.304,0.112 -0.624,0.16 -0.304,0.048 -0.592,0.048 z m -3.616,-6.96 v -1.056 h 4.832 v 1.056 z m 6.528011,6.832 V 18.192 h 1.36 v 4.944 l -0.336,0.128 q 0.224,-0.608 0.624,-1.04 0.4,-0.432 0.944,-0.656 0.544,-0.24 1.184,-0.24 1.296001,0 2.032001,0.768 0.736,0.752 0.736,2.24 v 5.008 h -1.36 v -4.512 q 0,-1.2 -0.448,-1.76 -0.432001,-0.576 -1.328001,-0.576 -0.976,0 -1.52,0.704 -0.528,0.688 -0.528,2.208 v 3.936 z m 12.080011,0.128 q -0.928,0 -1.632,-0.304 -0.688,-0.32 -1.152,-0.88 -0.448,-0.56 -0.688,-1.28 -0.224,-0.736 -0.224,-1.552 0,-0.816 0.224,-1.552 0.224,-0.752 0.656,-1.328 0.448,-0.576 1.12,-0.912 0.672,-0.336 1.568,-0.336 0.912,0 1.568,0.32 0.672,0.304 1.088,0.848 0.432,0.544 0.64,1.216 0.208,0.672 0.208,1.392 0,0.064 -0.016,0.304 0,0.224 -0.032,0.4 h -5.68 q 0.048,1.152 0.672,1.792 0.624,0.64 1.696,0.64 0.688,0 1.2,-0.224 0.512,-0.224 0.96,-0.72 l 0.944,0.832 q -0.432,0.464 -0.912,0.768 -0.48,0.288 -1.024,0.432 -0.528,0.144 -1.184,0.144 z m 2.032,-4.352 q 0.032,-0.128 0.032,-0.256 0.016,-0.128 0.016,-0.256 0,-0.384 -0.144,-0.768 -0.128,-0.384 -0.4,-0.688 -0.256,-0.32 -0.672,-0.496 -0.4,-0.192 -0.96,-0.192 -0.688,0 -1.184,0.32 -0.496,0.32 -0.768,0.848 -0.272,0.528 -0.32,1.168 h 4.848 z m 3.28002,4.224 v -7.888 h 1.36 v 2.112 l -0.352,0.08 q 0.112,-0.704 0.528,-1.216 0.432,-0.528 0.992,-0.816 0.576,-0.288 1.12,-0.288 0.368,0 0.704,0.08 0.336,0.08 0.688,0.272 l -0.672,1.216 q -0.192,-0.096 -0.464,-0.16 -0.256,-0.064 -0.496,-0.064 -0.384,0 -0.768,0.144 -0.368,0.144 -0.672,0.448 -0.304,0.304 -0.464,0.816 -0.064,0.224 -0.112,0.592 -0.032,0.352 -0.032,0.976 v 3.696 z m 10.783987,0 V 18.192 h 3.568 q 1.584,0 2.48,0.736 0.912,0.736 0.912,2.048 0,0.832 -0.368,1.456 -0.368,0.624 -1.04,0.944 0.976,0.272 1.472,0.992 0.512,0.72 0.512,1.824 0,1.504 -0.944,2.336 -0.928,0.816 -2.64,0.816 z m 1.408,-1.296 h 2.448 q 2.288,0 2.288,-1.92 0,-0.912 -0.528,-1.408 -0.512,-0.512 -1.456,-0.512 h -2.752 z m 0,-5.104 h 2.384 q 0.8,0 1.28,-0.464 0.496,-0.48 0.496,-1.296 0,-0.8 -0.528,-1.248 -0.528,-0.448 -1.472,-0.448 h -2.16 z m 8.08,6.4 v -7.888 h 1.344 v 7.888 z m -0.128,-9.312 v -1.84 h 1.6 v 1.84 z m 6.944001,12.72 q -1.696,0 -2.688,-0.624 -0.992001,-0.624 -0.992001,-1.728 0,-0.08 0,-0.208 0.016,-0.128 0.048,-0.24 l 1.968001,-1.424 0.464,0.32 -1.12,1.392 q -0.016,0.064 -0.016,0.112 0,0.048 0,0.096 0,0.64 0.672,0.944 0.672,0.32 1.664,0.32 0.88,0 1.456,-0.256 0.576,-0.24 0.576,-0.8 0,-0.32 -0.192,-0.528 -0.176,-0.192 -0.528,-0.304 -0.336,-0.112 -0.8,-0.192 -0.464,-0.08 -1.04,-0.16 -0.72,-0.112 -1.408,-0.32 -0.672,-0.208 -1.12,-0.608 -0.432001,-0.4 -0.432001,-1.056 0,-0.56 0.384001,-1.024 0.4,-0.464 1.04,-0.768 l 0.864,0.56 q -0.544,0.128 -0.768,0.4 -0.224,0.256 -0.224,0.624 0,0.304 0.208,0.496 0.224,0.192 0.624,0.304 0.416,0.096 0.992,0.176 0.768,0.112 1.44,0.24 0.672,0.128 1.184,0.368 0.528,0.224 0.816,0.608 0.288,0.4 0.288,1.024 0,1.088 -0.896,1.664 -0.896,0.592 -2.464,0.592 z m -0.192,-5.872 q -0.912,0 -1.616,-0.352 -0.704,-0.352 -1.104,-0.976 -0.384001,-0.624 -0.384001,-1.424 0,-0.832 0.400001,-1.456 0.416,-0.64 1.104,-0.992 0.704,-0.352 1.552,-0.352 0.832,0 1.52,0.352 0.688,0.352 1.104,0.992 0.416,0.64 0.416,1.504 0,0.816 -0.384,1.424 -0.384,0.608 -1.056,0.944 -0.672,0.336 -1.552,0.336 z m -0.032,-1.104 q 0.8,0 1.232,-0.48 0.448,-0.496 0.448,-1.2 0,-0.752 -0.464,-1.216 -0.464,-0.464 -1.216,-0.464 -0.768,0 -1.248,0.48 -0.48,0.464 -0.48,1.184 0,0.72 0.464,1.216 0.464,0.48 1.264,0.48 z m 2.512,-2.848 -0.976,-0.656 1.664,-1.376 0.688,0.848 z m 11.712,6.608 q -1.536,0 -2.704,-0.72 -1.152,-0.72 -1.808,-2.016 -0.64,-1.296 -0.64,-3.024 0,-1.744 0.64,-3.04 0.656,-1.296 1.808,-2.016 1.168,-0.72 2.704,-0.72 1.568,0 2.736,0.72 1.168,0.72 1.808,2.016 0.656,1.296 0.656,3.04 0,1.728 -0.656,3.024 -0.656,1.296 -1.824,2.016 -1.168,0.72 -2.72,0.72 z m 0,-1.344 q 1.168,0 2,-0.544 0.848,-0.544 1.312,-1.536 0.464,-0.992 0.464,-2.336 0,-1.36 -0.464,-2.352 -0.464,-0.992 -1.312,-1.536 -0.832,-0.544 -2,-0.544 -1.136,0 -1.984,0.544 -0.848,0.528 -1.312,1.52 -0.448,0.992 -0.448,2.368 0,1.36 0.448,2.352 0.464,0.992 1.312,1.536 0.848,0.528 1.984,0.528 z m 7.16799,1.152 v -7.888 h 1.36 v 1.68 l -0.32,0.112 q 0.224,-0.608 0.608,-1.024 0.384,-0.432 0.928,-0.656 0.544,-0.24 1.2,-0.24 1.296,0 2.032,0.768 0.736,0.752 0.736,2.24 v 5.008 h -1.36 v -4.512 q 0,-1.2 -0.448,-1.76 -0.432,-0.576 -1.328,-0.576 -0.656,0 -1.12,0.304 -0.448,0.304 -0.688,0.96 -0.24,0.64 -0.24,1.648 v 3.936 z m 12.08001,0.128 q -0.928,0 -1.632,-0.304 -0.688,-0.32 -1.152,-0.88 -0.448,-0.56 -0.688,-1.28 -0.224,-0.736 -0.224,-1.552 0,-0.816 0.224,-1.552 0.224,-0.752 0.656,-1.328 0.448,-0.576 1.12,-0.912 0.672,-0.336 1.568,-0.336 0.912,0 1.568,0.32 0.672,0.304 1.088,0.848 0.432,0.544 0.64,1.216 0.208,0.672 0.208,1.392 0,0.064 -0.016,0.304 0,0.224 -0.032,0.4 h -5.68 q 0.048,1.152 0.672,1.792 0.624,0.64 1.696,0.64 0.688,0 1.2,-0.224 0.512,-0.224 0.96,-0.72 l 0.944,0.832 q -0.432,0.464 -0.912,0.768 -0.48,0.288 -1.024,0.432 -0.528,0.144 -1.184,0.144 z m 2.032,-4.352 q 0.032,-0.128 0.032,-0.256 0.016,-0.128 0.016,-0.256 0,-0.384 -0.144,-0.768 -0.128,-0.384 -0.4,-0.688 -0.256,-0.32 -0.672,-0.496 -0.4,-0.192 -0.96,-0.192 -0.688,0 -1.184,0.32 -0.496,0.32 -0.768,0.848 -0.272,0.528 -0.32,1.168 h 4.848 z"
       id="curpreset"
       aria-label="Another Big One" />
    <path
       id="search--ctl-frame"
       fill="none"
       stroke="#808080"
       stroke-width="1.5"
       d="m 12,18.945533 a 5,5 0 0 0 -5,5 5,5 0 0 0 5,4.999999 5,5 0 0 0 5,-4.999999 5,5 0 0 0 -5,-5 z m 3.38,8.699999 4.39,4.38 z"
       inkscape:label="search" />
    <g
       id="g69"
       transform="matrix(1.3199997,0,0,1,84.259995,11.18)"
       inkscape:label="sys-menu">
      <path
         d="m 165.248,38.670009 h 6 v 1.5 h -6 z m 0,-2.611478 h 6 v 1.5 h -6 z m 0.0437,-2.611477 h 6 v 1.5 h -6 z"
         fill="#8c8c8c"
         id="sys-menu--patty"
         sodipodi:nodetypes="ccccc" />
    </g>
    <g
       id="g75"
       transform="matrix(1.3236965,0,0,1,-65.24409,11.175283)"
       inkscape:label="user-menu">
      <path
         d="m 165.248,38.670009 h 6 v 1.5 h -6 z m 0,-2.611478 h 6 v 1.5 h -6 z m 0.0437,-2.611477 h 6 v 1.5 h -6 z"
         fill="#8c8c8c"
         id="user-menu--patty"
         sodipodi:nodetypes="ccccc" />
    </g>
    <g
       id="g86"
       transform="translate(-72.24,12.728954)"
       inkscape:label="scroll">
      <rect
         fill="none"
         stroke="#8c8c8c"
         stroke-width="1"
         id="scup--ctl-frame"
         width="15.157895"
         height="15.157894"
         x="401.66357"
         y="43.771046" />
      <rect
         fill="none"
         stroke="#8c8c8c"
         stroke-width="1"
         id="scdn--ctl-frame"
         width="15.157895"
         height="15.157894"
         x="401.66357"
         y="59.129951" />
      <path
         fill="#d9d9d9"
         id="pdn--ctl-glyph"
         sodipodi:type="star"
         inkscape:flatsided="true"
         sodipodi:sides="3"
         sodipodi:cx="404.46033"
         sodipodi:cy="46.820545"
         sodipodi:r1="5.4873266"
         sodipodi:r2="2.7436633"
         sodipodi:arg1="-0.54428048"
         sodipodi:arg2="0.50291707"
         inkscape:rounded="-3.1225023e-17"
         inkscape:randomized="0"
         d="m 409.15474,43.979193 -4.58093,8.327505 -4.92137,-8.130954 z"
         inkscape:transform-center-x="0.056739605"
         inkscape:transform-center-y="1.3224004"
         transform="translate(4.8492743,18.324961)"
         inkscape:label="pdn--ctl-glyph" />
      <path
         fill="#808080"
         id="pup--ctl-disabled"
         sodipodi:type="star"
         inkscape:flatsided="true"
         sodipodi:sides="3"
         sodipodi:cx="404.46033"
         sodipodi:cy="46.820545"
         sodipodi:r1="5.4873266"
         sodipodi:r2="2.7436633"
         sodipodi:arg1="-0.54428048"
         sodipodi:arg2="0.50291707"
         inkscape:rounded="-3.1225023e-17"
         inkscape:randomized="0"
         d="m 409.15474,43.979193 -4.58093,8.327505 -4.92137,-8.130954 z"
         inkscape:transform-center-x="0.056739605"
         inkscape:transform-center-y="-1.3224003"
         transform="matrix(1,0,0,-1,4.85,99.73)" />
    </g>
    <path
       fill="#5d8ed7"
       d="m 326.54401,52.98999 v -4.496 l 0.208,0.352 h -1.664 v -0.544 h 0.968 q 0.24,0 0.36,-0.104 0.128,-0.104 0.128,-0.36 v -0.424 h 0.68 v 5.576 z m 6.54399,0.064 q -0.552,0 -0.992,-0.256 -0.432,-0.264 -0.68,-0.728 -0.248,-0.464 -0.248,-1.056 0,-0.592 0.24,-1.048 0.248,-0.464 0.68,-0.72 0.44,-0.264 1,-0.264 0.56,0 0.984,0.264 0.432,0.256 0.68,0.72 0.248,0.456 0.248,1.048 0,0.592 -0.248,1.056 -0.248,0.456 -0.68,0.72 -0.432,0.264 -0.984,0.264 z m 0,-0.6 q 0.376,0 0.648,-0.176 0.28,-0.184 0.432,-0.504 0.152,-0.328 0.152,-0.76 0,-0.44 -0.152,-0.76 -0.152,-0.328 -0.432,-0.504 -0.272,-0.176 -0.648,-0.176 -0.384,0 -0.664,0.184 -0.28,0.176 -0.432,0.496 -0.152,0.32 -0.152,0.76 0,0.432 0.152,0.76 0.152,0.32 0.432,0.504 0.28,0.176 0.664,0.176 z m 3.12,0.536 v -3.416 h -0.816 v -0.528 h 0.824 v -0.512 q 0,-0.448 0.144,-0.704 0.144,-0.264 0.392,-0.368 0.256,-0.112 0.568,-0.112 0.216,0 0.384,0.04 0.168,0.04 0.32,0.12 l -0.224,0.512 q -0.088,-0.048 -0.192,-0.072 -0.104,-0.032 -0.216,-0.032 -0.256,0 -0.384,0.16 -0.12,0.16 -0.12,0.456 v 0.512 h 0.92 v 0.528 h -0.92 v 3.416 z m 4.24799,0 v -0.56 q 0.28,-0.224 0.648,-0.496 0.376,-0.272 0.752,-0.592 0.384,-0.32 0.704,-0.68 0.328,-0.36 0.528,-0.76 0.2,-0.4 0.2,-0.824 0,-0.472 -0.264,-0.768 -0.264,-0.296 -0.776,-0.296 -0.376,0 -0.632,0.176 -0.248,0.168 -0.376,0.472 -0.12,0.296 -0.128,0.68 l -0.664,-0.048 q 0,-0.392 0.12,-0.736 0.12,-0.352 0.352,-0.616 0.232,-0.272 0.568,-0.424 0.344,-0.16 0.784,-0.16 0.504,0 0.88,0.216 0.376,0.208 0.584,0.592 0.216,0.376 0.216,0.888 0,0.448 -0.168,0.864 -0.16,0.416 -0.456,0.792 -0.288,0.376 -0.664,0.712 -0.376,0.336 -0.8,0.632 -0.424,0.296 -0.864,0.544 l 0.176,-0.24 h 3 v 0.632 z m 6.88,0 v -1.328 h -2.656 v -0.536 l 2.712,-3.712 h 0.624 v 3.616 h 0.896 v 0.632 h -0.896 v 1.328 z m -2.088,-1.72 -0.056,-0.24 h 2.144 v -2.856 l 0.08,0.056 z"
       id="NofN--dytext" />
    <g
       id="g8"
       transform="translate(133.8493,-168.93417)">
      <g
         aria-label="#d (pachde logo)"
         id="g2"
         transform="translate(195.44443,366.72992)"
         style="fill:#d4a011;fill-opacity:1"
         inkscape:label="#d">
        <path
           d="M 3.023,5.309 3.916,3.543 5.003,3.834 4.104,5.599 5.759,6.042 6.658,4.277 7.74,4.567 6.846,6.334 7.631,6.544 7.34,7.631 6.328,7.36 5.666,8.665 6.969,9.014 6.678,10.1 5.148,9.691 4.255,11.457 3.168,11.166 4.062,9.4 2.407,8.956 1.513,10.723 0.426,10.431 1.32,8.665 0.54,8.456 0.831,7.369 1.843,7.64 2.5,6.334 1.202,5.986 1.493,4.899 Z M 5.242,7.068 3.587,6.625 2.924,7.93 4.58,8.374 Z"
           id="hash--brand"
           fill="#d4a011" />
        <path
           d="m 13.387,10.647 -0.301,1.122 -2.354,-0.631 0.155,-0.579 Q 10.064,11.035 9.304,10.831 8.394,10.587 7.993,9.687 7.593,8.787 7.874,7.736 8.16,6.669 8.969,6.104 9.78,5.534 10.665,5.771 11.516,6 11.892,6.807 l 0.414,-1.545 -0.759,-0.204 0.3,-1.121 2.314,0.62 -1.574,5.876 z M 11.402,8.697 Q 11.589,7.998 11.367,7.62 11.15,7.244 10.767,7.141 10.31,7.019 9.962,7.308 9.621,7.595 9.466,8.173 9.32,8.721 9.465,9.165 q 0.147,0.438 0.615,0.564 0.387,0.104 0.76,-0.12 0.379,-0.227 0.562,-0.912 z"
           id="d--brand"
           fill="#d4a011" />
      </g>
      <path
         sodipodi:type="star"
         style="opacity:1;fill:none;fill-opacity:1;stroke:#d4a011;stroke-width:0.525475;stroke-dasharray:none;stroke-opacity:1"
         id="pdo--brand"
         inkscape:flatsided="true"
         sodipodi:sides="6"
         sodipodi:cx="191.13033"
         sodipodi:cy="357.53949"
         sodipodi:r1="7.0977392"
         sodipodi:r2="14.57469"
         sodipodi:arg1="-0.23602366"
         sodipodi:arg2="0.28757512"
         inkscape:rounded="-3.1225023e-17"
         inkscape:randomized="0"
         d="m 198.03128,355.87977 -2.01311,6.80626 -6.90096,1.65973 -4.88784,-5.14655 2.01311,-6.80626 6.90096,-1.65973 z"
         transform="matrix(1.4272798,0,0,1.4272798,-69.621751,-134.87472)" />
    </g>
  </g>
  <g
     id="small-logo" opacity="0"
     transform="translate(2.5, 2.5) scale(.125, .125)">
    <path
       id="CHEM"
       fill="#faa64c"
       stroke="#f9a54b"
       stroke-width="1.25"
       d="M 9.57155,6.8102466 C 7.5299719,6.9641606 5.817206,7.4868486 4.4334406,8.3806086 3.0619033,9.2734488 2.0516687,10.491776 1.4048649,12.033091 0.75805948,13.574385 0.51296865,15.406135 0.67188275,17.528129 l 0.54976985,7.341113 c 0.1579945,2.109718 0.6731488,3.884153 1.5431675,5.323441 0.8690998,1.427031 2.0491859,2.476751 3.5383012,3.153925 1.5004252,0.663996 3.2714337,0.919037 5.3130137,0.765124 1.687051,-0.127185 3.155406,-0.59946 4.409287,-1.421756 1.253884,-0.822296 2.257264,-1.952595 3.010135,-3.390887 0.764175,-1.451474 1.244307,-3.166409 1.440553,-5.14249 l -5.205577,0.392446 C 15.089484,25.90723 14.645159,26.981878 13.942321,27.774978 13.238567,28.5558 12.338935,28.98866 11.238682,29.071606 9.832806,29.177598 8.7054519,28.832024 7.8587493,28.0324 7.0242738,27.231857 6.5482422,26.04655 6.4306659,24.476538 L 5.8808967,17.135426 c -0.1175795,-1.570032 0.1765706,-2.813401 0.8824481,-3.730054 0.7171819,-0.929869 1.7797757,-1.449033 3.1856556,-1.55502 0.7212756,-0.05438 1.3804676,0.06253 1.9798316,0.350351 0.6116,0.28694 1.142542,0.727992 1.592816,1.323125 0.46158,0.581971 0.824846,1.313187 1.0875,2.193842 l 5.205579,-0.392445 C 19.33768,13.387591 18.615927,11.763264 17.645071,10.454923 16.686438,9.1456738 15.517576,8.1791256 14.143077,7.5549806 12.780801,6.9298966 11.258596,6.6830986 9.571545,6.8102816 Z M 23.362582,6.0480886 25.36583,32.79761 30.389179,32.418903 29.577699,21.583165 39.149908,20.861522 39.961385,31.697259 44.98817,31.318293 42.984921,4.5687716 37.958139,4.9477376 38.786151,16.004246 29.213942,16.725889 28.38593,5.6693826 Z m 25.488072,-1.921532 2.003248,26.7495214 17.861931,-1.346601 -0.363755,-4.857279 -12.835151,0.967637 -0.449014,-5.9957 10.816873,-0.815478 -0.363755,-4.857277 -10.816873,0.815478 -0.462965,-6.1819914 12.835151,-0.967634 -0.363758,-4.857277 z m 22.445179,-1.692129 2.003246,26.7495204 4.566053,-0.344231 -1.396383,-18.646011 6.089927,15.294737 4.435398,-0.334382 3.716989,-16.3914044 1.422993,19.0013344 4.566035,-0.34423 L 94.696844,0.67023864 88.074707,1.1694776 84.346479,19.580833 77.917982,1.9351876 Z" />
    <path
       id="hex"
       fill="none"
       stroke="#f9a54b"
       stroke-width="2.5"
       d="M 75.274,41.479089 61.021074,45.456299 57.33869,59.788464 67.909232,70.143418 82.162158,66.166796 85.844539,51.834631 Z" />
  </g>
  <g
     id="PRESET"
     transform="translate(148, 3.5)">
    <path
       fill="#f9a54b"
       d="m 0,0.180176 h 1.125 q 0.953613,0 1.538086,0.448242 0.584473,0.448242 0.584473,1.164551 0,0.720703 -0.619629,1.208496 Q 2.012695,3.489258 0.75586,3.476074 V 5.778808 H 0 Z m 0.75586,0.667968 v 1.959961 q 0.861328,-0.0088 1.274414,-0.241699 0.41748,-0.237305 0.41748,-0.755859 0,-0.391114 -0.316406,-0.676758 Q 1.819336,0.848144 0.75586,0.848144 Z M 12.438477,0.180176 h 1.21289 q 0.905274,0 1.472168,0.452636 0.571289,0.448242 0.571289,1.151367 0,0.5625 -0.36914,0.993165 -0.369141,0.430664 -1.151367,0.606445 l 1.630371,2.395019 H 14.930176 L 13.374512,3.476074 h -0.171387 v 2.302734 h -0.764648 z m 0.764648,0.676757 v 1.951172 q 1.691895,0.03516 1.691895,-0.97998 0,-0.355957 -0.197754,-0.580078 -0.197754,-0.228516 -0.527344,-0.307618 -0.32959,-0.0835 -0.966797,-0.0835 z M 24.758301,0.180176 h 3.102539 v 0.764648 h -2.34668 v 1.397461 h 2.34668 v 0.755859 h -2.34668 v 1.924805 h 2.34668 V 5.778808 H 24.758301 Z M 40.180664,0.799804 39.561035,1.296387 Q 39.314942,1.041504 39.112793,0.918457 38.915039,0.791015 38.53711,0.791015 q -0.413086,0 -0.672364,0.188965 -0.254883,0.184571 -0.254883,0.479004 0,0.254883 0.224122,0.452637 0.224121,0.193359 0.764648,0.426269 0.540527,0.228516 0.839355,0.430664 0.303223,0.197754 0.496582,0.439454 0.19336,0.241699 0.285645,0.509765 0.09668,0.268067 0.09668,0.566895 0,0.69873 -0.509766,1.190918 -0.505371,0.492187 -1.226074,0.492187 -0.703125,0 -1.243653,-0.382324 Q 36.80127,5.19873 36.511231,4.429687 l 0.764648,-0.215332 q 0.417481,0.944824 1.278809,0.944824 0.41748,0 0.694336,-0.250488 0.276855,-0.250488 0.276855,-0.632812 0,-0.228516 -0.145019,-0.457032 Q 39.23584,3.585937 39.020508,3.436523 38.805176,3.287109 38.330567,3.098144 37.860352,2.904785 37.605469,2.746582 37.354981,2.583984 37.17041,2.364258 36.98584,2.140137 36.897949,1.92041 q -0.0835,-0.219727 -0.0835,-0.470215 0,-0.602051 0.483399,-1.023926 Q 37.781246,0 38.471188,0 q 0.457031,0 0.927246,0.197754 0.470214,0.197754 0.782226,0.60205 z m 9.019531,-0.619628 h 3.10254 v 0.764648 h -2.34668 v 1.397461 h 2.34668 v 0.755859 h -2.34668 v 1.924805 h 2.34668 v 0.755859 h -3.10254 z m 11.660645,0 h 3.42334 V 0.944824 H 62.948242 V 5.778808 H 62.192383 V 0.944824 H 60.86084 Z"
       id="PRESET--title" />
  </g>

   <path id="th" stroke="#f9a54b" stroke-width=".25" d="M 5,6.25 h 132 M 355,6.25 h -132" />

</svg>
