<?xml version="1.0" encoding="UTF-8" standalone="no"?>
<svg width="210" height="380" viewBox="0 0 210 380" version="1.1" id="svg1"
   inkscape:version="1.3.2 (091e20e, 2023-11-25, custom)" sodipodi:docname="CHEM-play.svg"
   xmlns:inkscape="http://www.inkscape.org/namespaces/inkscape"
   xmlns:sodipodi="http://sodipodi.sourceforge.net/DTD/sodipodi-0.dtd" xmlns="http://www.w3.org/2000/svg"
   xmlns:svg="http://www.w3.org/2000/svg">
   <defs id="defs2" />
   <sodipodi:namedview id="namedview1" pagecolor="#ffffff" bordercolor="#111111" borderopacity="1"
      inkscape:showpageshadow="0" inkscape:pageopacity="0" inkscape:pagecheckerboard="1" inkscape:deskcolor="#d1d1d1"
      inkscape:document-units="px" showguides="true" inkscape:zoom="4.7236842" inkscape:cx="109.97772"
      inkscape:cy="124.37326" inkscape:window-width="1879" inkscape:window-height="2104" inkscape:window-x="112"
      inkscape:window-y="9" inkscape:window-maximized="0" inkscape:current-layer="layer1">
      <sodipodi:guide position="0.43544812,372.46838" orientation="0,-1" id="guide1" inkscape:locked="false" />
      <sodipodi:guide position="7.5,380" orientation="1,0" id="guide2" inkscape:locked="false" />
      <sodipodi:guide position="15,378.63154" orientation="1,0" id="guide3" inkscape:locked="false" />
      <sodipodi:guide position="-3.3527796,364.96952" orientation="0,-1" id="guide4" inkscape:locked="false" />
      <sodipodi:guide position="-2.8947185,7.5" orientation="0,-1" id="guide7" inkscape:locked="false" />
      <sodipodi:guide position="-39.531861,17.295187" orientation="0,-1" id="guide8" inkscape:locked="false" />
      <sodipodi:guide position="162.84655,153.00586" orientation="1,0" id="guide5" inkscape:locked="false" />
      <sodipodi:guide position="187.5142,322.21747" orientation="1,0" id="guide6" inkscape:locked="false" />
   </sodipodi:namedview>
   <linearGradient id="panel-gradient" x1="0" y1="0" x2="0" y2="380" gradientUnits="userSpaceOnUse">
      <stop offset="0" stop-color="#1f1f1f" />
      <stop offset="1" stop-color="#080808" />
   </linearGradient>
   <g>
      <rect fill="url(#panel-gradient)" id="g-panel" width="210" height="380" x="0" y="0" inkscape:label="panel"
         sodipodi:insensitive="true" />
      <g id="grid">
         <rect fill="#333333" id="grid-bg" width="150" height="314" x="12" y="20" />
         <path stroke="#1f1f1f" stroke-width="1px" d="M 12,41 h 150 z" id="gl1--grid-line" />
         <path stroke="#1f1f1f" stroke-width="1px" d="M 12,62 h 150 z" id="gl2--grid-line" />
         <path stroke="#1f1f1f" stroke-width="1px" d="M 12,83 h 150 z" id="gl3--grid-line" />
         <path stroke="#1f1f1f" stroke-width="1px" d="M 12,104 h 150 z" id="gl4--grid-line" />
         <path stroke="#1f1f1f" stroke-width="1px" d="M 12,125 h 150 z" id="gl5--grid-line" />
         <path stroke="#1f1f1f" stroke-width="1px" d="M 12,146 h 150 z" id="gl6--grid-line" />
         <path stroke="#1f1f1f" stroke-width="1px" d="M 12,167 h 150 z" id="gl7--grid-line" />
         <path stroke="#1f1f1f" stroke-width="1px" d="M 12,188 h 150 z" id="gl8--grid-line" />
         <path stroke="#1f1f1f" stroke-width="1px" d="M 12,209 h 150 z" id="gl9--grid-line" />
         <path stroke="#1f1f1f" stroke-width="1px" d="M 12,230 h 150 z" id="gl10--grid-line" />
         <path stroke="#1f1f1f" stroke-width="1px" d="M 12,251 h 150 z" id="gl11--grid-line" />
         <path stroke="#1f1f1f" stroke-width="1px" d="M 12,272 h 150 z" id="gl12--grid-line" />
         <path stroke="#1f1f1f" stroke-width="1px" d="M 12,293 h 150 z" id="gl13--grid-line" />
         <path stroke="#1f1f1f" stroke-width="1px" d="M 12,314 h 150 z" id="gl14--grid-line" />
         <rect fill="#464060" id="grid-new" width="150" height="21" x="12" y="336" />
      </g>

      <g id="g6" inkscape:label="preset-advance" transform="translate(-225.5,-8)">
         <path
            style="font-size:12px;line-height:1.25;font-family:'Hanken Grotesk';-inkscape-font-specification:'Hanken Grotesk';text-align:center;text-anchor:middle;fill:#d9d9d9"
            d="m 396.49399,127.53877 v -8.364 h 1.008 v 1.764 l -0.324,-0.228 q 0.156,-0.516 0.456,-0.876 0.312,-0.372 0.756,-0.564 0.444,-0.192 1.008,-0.192 0.804,0 1.404,0.408 0.612,0.396 0.948,1.092 0.336,0.684 0.336,1.56 0,0.924 -0.36,1.62 -0.36,0.684 -0.972,1.056 -0.612,0.372 -1.356,0.372 -0.564,0 -1.008,-0.204 -0.444,-0.204 -0.744,-0.564 -0.3,-0.36 -0.432,-0.816 l 0.288,-0.276 v 4.212 z m 2.736,-3.276 q 0.54,0 0.948,-0.264 0.42,-0.276 0.648,-0.756 0.24,-0.48 0.24,-1.104 0,-0.624 -0.24,-1.104 -0.228,-0.48 -0.648,-0.744 -0.408,-0.276 -0.948,-0.276 -0.54,0 -0.948,0.276 -0.408,0.264 -0.636,0.744 -0.228,0.48 -0.228,1.104 0,0.624 0.228,1.104 0.228,0.48 0.636,0.756 0.408,0.264 0.948,0.264 z m 4.308,0.828 v -5.916 h 1.02 v 1.584 l -0.264,0.06 q 0.084,-0.528 0.396,-0.912 0.324,-0.396 0.744,-0.612 0.432,-0.216 0.84,-0.216 0.276,0 0.528,0.06 0.252,0.06 0.516,0.204 l -0.504,0.912 q -0.144,-0.072 -0.348,-0.12 -0.192,-0.048 -0.372,-0.048 -0.288,0 -0.576,0.108 -0.276,0.108 -0.504,0.336 -0.228,0.228 -0.348,0.612 -0.048,0.168 -0.084,0.444 -0.024,0.264 -0.024,0.732 v 2.772 z m 7.044,0.096 q -0.696,0 -1.224,-0.228 -0.516,-0.24 -0.864,-0.66 -0.336,-0.42 -0.516,-0.96 -0.168,-0.552 -0.168,-1.164 0,-0.612 0.168,-1.164 0.168,-0.564 0.492,-0.996 0.336,-0.432 0.84,-0.684 0.504,-0.252 1.176,-0.252 0.684,0 1.176,0.24 0.504,0.228 0.816,0.636 0.324,0.408 0.48,0.912 0.156,0.504 0.156,1.044 0,0.048 -0.012,0.228 0,0.168 -0.024,0.3 h -4.26 q 0.036,0.864 0.504,1.344 0.468,0.48 1.272,0.48 0.516,0 0.9,-0.168 0.384,-0.168 0.72,-0.54 l 0.708,0.624 q -0.324,0.348 -0.684,0.576 -0.36,0.216 -0.768,0.324 -0.396,0.108 -0.888,0.108 z m 1.524,-3.264 q 0.024,-0.096 0.024,-0.192 0.012,-0.096 0.012,-0.192 0,-0.288 -0.108,-0.576 -0.096,-0.288 -0.3,-0.516 -0.192,-0.24 -0.504,-0.372 -0.3,-0.144 -0.72,-0.144 -0.516,0 -0.888,0.24 -0.372,0.24 -0.576,0.636 -0.204,0.396 -0.24,0.876 h 3.636 z m 4.41601,3.264 q -0.6,0 -1.08,-0.18 -0.48,-0.18 -0.828,-0.48 -0.336,-0.3 -0.54,-0.636 l 0.708,-0.6 q 0.228,0.456 0.672,0.756 0.456,0.288 1.08,0.288 0.564,0 0.9,-0.24 0.336,-0.24 0.336,-0.648 0,-0.336 -0.204,-0.528 -0.204,-0.192 -0.54,-0.312 -0.336,-0.12 -0.732,-0.216 -0.336,-0.084 -0.684,-0.204 -0.336,-0.12 -0.612,-0.3 -0.276,-0.18 -0.444,-0.468 -0.168,-0.288 -0.168,-0.708 0,-0.732 0.564,-1.176 0.576,-0.456 1.5,-0.456 0.672,0 1.224,0.288 0.564,0.276 0.876,0.84 l -0.648,0.48 q -0.24,-0.42 -0.636,-0.6 -0.384,-0.192 -0.852,-0.192 -0.468,0 -0.78,0.192 -0.312,0.192 -0.312,0.528 0,0.252 0.144,0.408 0.144,0.156 0.42,0.264 0.288,0.108 0.696,0.204 0.372,0.084 0.756,0.204 0.384,0.12 0.708,0.312 0.324,0.192 0.516,0.516 0.204,0.312 0.204,0.816 0,0.552 -0.276,0.972 -0.276,0.42 -0.78,0.648 -0.504,0.228 -1.188,0.228 z m 6.17999,0 q -0.696,0 -1.224,-0.228 -0.516,-0.24 -0.864,-0.66 -0.336,-0.42 -0.516,-0.96 -0.168,-0.552 -0.168,-1.164 0,-0.612 0.168,-1.164 0.168,-0.564 0.492,-0.996 0.336,-0.432 0.84,-0.684 0.504,-0.252 1.176,-0.252 0.684,0 1.176,0.24 0.504,0.228 0.816,0.636 0.324,0.408 0.48,0.912 0.156,0.504 0.156,1.044 0,0.048 -0.012,0.228 0,0.168 -0.024,0.3 h -4.26 q 0.036,0.864 0.504,1.344 0.468,0.48 1.272,0.48 0.516,0 0.9,-0.168 0.384,-0.168 0.72,-0.54 l 0.708,0.624 q -0.324,0.348 -0.684,0.576 -0.36,0.216 -0.768,0.324 -0.396,0.108 -0.888,0.108 z m 1.524,-3.264 q 0.024,-0.096 0.024,-0.192 0.012,-0.096 0.012,-0.192 0,-0.288 -0.108,-0.576 -0.096,-0.288 -0.3,-0.516 -0.192,-0.24 -0.504,-0.372 -0.3,-0.144 -0.72,-0.144 -0.516,0 -0.888,0.24 -0.372,0.24 -0.576,0.636 -0.204,0.396 -0.24,0.876 h 3.636 z m 4.36802,3.264 q -0.42,0 -0.768,-0.156 -0.336,-0.168 -0.528,-0.528 -0.192,-0.36 -0.192,-0.924 v -5.988 l 1.032,-0.576 v 6.3 q 0,0.492 0.156,0.768 0.156,0.264 0.564,0.264 0.12,0 0.288,-0.024 0.168,-0.036 0.36,-0.084 v 0.792 q -0.228,0.084 -0.468,0.12 -0.228,0.036 -0.444,0.036 z m -2.712,-5.22 v -0.792 h 3.624 v 0.792 z"
            id="preset--ctl-label" aria-label="preset" inkscape:label="preset" />
      </g>

      <g id="up-down-scroll" transform="translate(186 59)">
         <path id="bar--ctl-bar" fill="none" stroke="#0278df" d="M -5.75 0 L 5 0 z"/>
      </g>

      <g id="g32" inkscape:label="prev-next-cv">
         <path id="minus--ctl-label" transform="translate(171 334)" fill="#808080" d="m 10,5.25 -8,0 0,1.5 L 10,6.75 Z" />
         <path id="plus--ctl-label"  transform="translate(189 334)" fill="#808080" d="M 6.75 2 L 5.25 2 L 5.25 5.25 L 2 5.25 L 2 6.75 L 5.25 6.75 L 5.25 10 L 6.75 10 L 6.75 6.75 L 10 6.75 L 10 5.25 L 6.75 5.25 L 6.75 2 z " />
      </g>

      <g id="g8" transform="translate(-17.723568)">
         <g aria-label="#d (pachde logo)" id="g2" transform="translate(195.44443,366.72992)"
            style="fill:#d4a011;fill-opacity:1" inkscape:label="#d">
            <path
               d="M 3.023,5.309 3.916,3.543 5.003,3.834 4.104,5.599 5.759,6.042 6.658,4.277 7.74,4.567 6.846,6.334 7.631,6.544 7.34,7.631 6.328,7.36 5.666,8.665 6.969,9.014 6.678,10.1 5.148,9.691 4.255,11.457 3.168,11.166 4.062,9.4 2.407,8.956 1.513,10.723 0.426,10.431 1.32,8.665 0.54,8.456 0.831,7.369 1.843,7.64 2.5,6.334 1.202,5.986 1.493,4.899 Z M 5.242,7.068 3.587,6.625 2.924,7.93 4.58,8.374 Z"
               id="hash--brand" fill="#d4a011" />
            <path
               d="m 13.387,10.647 -0.301,1.122 -2.354,-0.631 0.155,-0.579 Q 10.064,11.035 9.304,10.831 8.394,10.587 7.993,9.687 7.593,8.787 7.874,7.736 8.16,6.669 8.969,6.104 9.78,5.534 10.665,5.771 11.516,6 11.892,6.807 l 0.414,-1.545 -0.759,-0.204 0.3,-1.121 2.314,0.62 -1.574,5.876 z M 11.402,8.697 Q 11.589,7.998 11.367,7.62 11.15,7.244 10.767,7.141 10.31,7.019 9.962,7.308 9.621,7.595 9.466,8.173 9.32,8.721 9.465,9.165 q 0.147,0.438 0.615,0.564 0.387,0.104 0.76,-0.12 0.379,-0.227 0.562,-0.912 z"
               id="d--brand" fill="#d4a011" />
         </g>
         <path id="pdo--brand" 
            style="opacity:1;fill:none;fill-opacity:1;stroke:#d4a011;stroke-width:0.525475;stroke-dasharray:none;stroke-opacity:1"
            sodipodi:type="star" inkscape:flatsided="true" sodipodi:sides="6" sodipodi:cx="191.13033" sodipodi:cy="357.53949" sodipodi:r1="7.0977392" sodipodi:r2="14.57469" sodipodi:arg1="-0.23602366" sodipodi:arg2="0.28757512" inkscape:rounded="-3.1225023e-17" inkscape:randomized="0"
            d="m 198.03128,355.87977 -2.01311,6.80626 -6.90096,1.65973 -4.88784,-5.14655 2.01311,-6.80626 6.90096,-1.65973 z"
            transform="matrix(1.4272798,0,0,1.4272798,-69.621751,-134.87472)" />
      </g>
      <path fill="#f9a54b" fill-opacity="0.4"
         d="m 201.19667,192.48898 v 8.64632 q 0,3.48551 -2.04122,5.623 -2.02201,2.13752 -5.33419,2.13752 -2.17602,0 -4.14018,-1.05913 -1.94499,-1.03986 -2.90779,-3.15813 -0.96286,-2.11824 -1.00136,-3.62029 l -0.0769,-3.15812 h -9.78248 v -5.41117 z m -4.54462,5.33414 h -6.47031 v 2.11827 q 0,1.36722 0.98211,2.33007 0.98211,0.98211 2.33007,0.98211 1.54055,0 2.38785,-1.09766 0.84731,-1.09764 0.84731,-3.1196 z m 4.96828,15.48252 v 4.92978 h -25.70791 v -4.92978 z m -25.70791,21.00924 h 2.83076 v -0.0769 q -1.6561,-1.15541 -2.40715,-2.33007 -0.73175,-1.17466 -0.73175,-2.90779 0,-2.90777 2.50338,-4.94901 2.50341,-2.04122 6.08517,-2.04122 3.54326,0 6.06592,2.17602 2.5419,2.17602 2.5419,5.16084 0,1.425 -0.63547,2.56116 -0.63547,1.13616 -2.02196,2.4071 h 2.29155 v 4.92976 h -16.52238 z m 11.9585,-3.62029 q 0,-1.46352 -1.17466,-2.44561 -1.15541,-0.98208 -2.92704,-0.98208 -1.65611,0 -2.67671,0.92433 -1.00136,0.94358 -1.00136,2.46488 0,1.46352 1.15541,2.50338 1.17466,1.03988 2.83076,1.03988 1.54055,0 2.65744,-1.03988 1.13616,-1.03986 1.13616,-2.4649 z m 4.56387,12.0933 v 5.25715 l -9.62843,4.75642 9.62843,4.23651 v 5.04531 l -23.82073,-10.30243 v -5.12231 l 8.47302,3.69732 z"
         id="title" aria-label="Play" />
 />
   </g>
</svg>