<?xml version="1.0" encoding="UTF-8" standalone="no"?>
<svg width="165" height="380" viewBox="0 0 165 380" version="1.1" id="svg2" sodipodi:docname="CHEM-fx.svg"
   inkscape:version="1.3.2 (091e20e, 2023-11-25, custom)" xmlns:inkscape="http://www.inkscape.org/namespaces/inkscape"
   xmlns:sodipodi="http://sodipodi.sourceforge.net/DTD/sodipodi-0.dtd" xmlns:xlink="http://www.w3.org/1999/xlink"
   xmlns="http://www.w3.org/2000/svg" xmlns:svg="http://www.w3.org/2000/svg">
   <sodipodi:namedview id="namedview2" pagecolor="#ffffff" bordercolor="#666666" borderopacity="1.0"
      inkscape:showpageshadow="2" inkscape:pageopacity="0.0" inkscape:pagecheckerboard="0" inkscape:deskcolor="#d1d1d1"
      showguides="true" inkscape:zoom="6.4942175" inkscape:cx="162.14424" inkscape:cy="151.13445"
      inkscape:window-width="2231" inkscape:window-height="2104" inkscape:window-x="791" inkscape:window-y="0"
      inkscape:window-maximized="0" inkscape:current-layer="svg2">
      <sodipodi:guide position="82.515715,331.1296" orientation="1,0" id="guide2" inkscape:locked="false" />
   </sodipodi:namedview>
   <defs id="defs2">
      <linearGradient id="section-stops">
         <stop offset="0" stop-color="#282828" id="stop1" />
         <stop offset="1" stop-color="#181818" id="stop2" />
      </linearGradient>
      <linearGradient id="top-gradient" x1="0" y1="0" x2="0" y2="276" xlink:href="#section-stops"
         gradientUnits="userSpaceOnUse" />
      <linearGradient id="inp-gradient" x1="0" y1="0" x2="0" y2="100" xlink:href="#section-stops"
         gradientUnits="userSpaceOnUse" />
   </defs>
   <g id="g1">
      <rect id="top--sctn" fill="url(#top-gradient)" x="7.0556638e-08" y="0" width="165.5" height="276" />
      <rect id="inp--sctn" fill="url(#inp-gradient)" x="7.0556638e-08" y="280" width="165.5" height="100" />
      <g transform="translate(0,276)" id="separator2">
         <path id="2--d0" stroke="#202020" stroke-width="1" d="M 0,0.5 H 165" />
         <path id="2--d1" stroke="#161616" stroke-width="1" d="M 0,1.5 H 165" />
         <path id="2--d2" stroke="#101010" stroke-width="1" d="M 0,2.5 H 165" />
         <path id="2--d3" stroke="#404040" stroke-width="1" d="M 0,3.5 H 165" />
      </g>
      <path id="title" fill="#d4a011" opacity="0.4"
         d="m 15,3.5 v 15.146484 h 2.855462 v -6.009765 h 5.947245 V 9.8867186 H 17.855462 V 6.25 h 7.093732 V 3.5 Z m 10.386693,0 4.396468,7.423828 -4.521468,7.722656 h 3.009752 l 3.025382,-5.167968 3.058592,5.167968 h 3.009752 L 32.787063,10.929687 37.136662,3.5 H 34.12495 L 31.277297,8.3691406 28.396445,3.5 Z" />
      <g id="labels" opacity="0">
         <path id="Diffuse--label" fill="#d9d9d9"
            d="M 31.940186,144.10451 V 134.8112 H 34.5135 q 2.279994,0 3.53332,1.23999 1.253327,1.22667 1.253327,3.48 0,2.21332 -1.239997,3.39999 -1.239996,1.17333 -3.55998,1.17333 z m 1.173327,-1.08 H 34.3935 q 1.186667,0 2.013325,-0.34667 0.839997,-0.35999 1.266656,-1.13333 0.439999,-0.78666 0.439999,-2.05332 0,-1.26667 -0.439999,-2.05333 -0.426659,-0.8 -1.239986,-1.17333 -0.799998,-0.37334 -1.933325,-0.37334 h -1.386657 z m 7.81328,1.08 v -6.57332 h 1.119997 v 6.57332 z m -0.10667,-7.75998 v -1.53333 h 1.333327 v 1.53333 z m 3.453321,7.75998 v -5.69332 h -1.146667 v -0.88 h 1.146667 v -0.56 q 0,-0.70666 0.346659,-1.21333 0.346669,-0.50666 0.933328,-0.77333 0.599998,-0.28 1.306666,-0.28 0.426659,0 0.826658,0.0933 0.399999,0.0933 0.773328,0.32 0.266669,-0.22666 0.626668,-0.32 0.373329,-0.0933 0.799988,-0.0933 0.30667,0 0.573339,0.0667 0.266659,0.0533 0.546658,0.2 l -0.373329,0.85333 q -0.186669,-0.0933 -0.346669,-0.13333 -0.146659,-0.04 -0.293329,-0.04 -0.519999,0 -0.759998,0.26666 -0.226659,0.26667 -0.226659,0.76 v 0.85333 h 1.893325 v 0.88 h -1.893325 v 5.69332 h -1.133327 v -5.69332 h -2.479994 v 5.69332 z m 1.119987,-6.57332 h 2.493324 v -0.97333 q 0,-0.2 0.04,-0.36 0.04,-0.17333 0.13333,-0.29333 -0.253329,-0.14667 -0.546658,-0.21333 -0.28,-0.0667 -0.599999,-0.0667 -0.733328,0 -1.133327,0.37333 -0.386669,0.37333 -0.386669,1 z m 8.733297,6.67998 q -0.706668,0 -1.226667,-0.28 -0.519998,-0.29333 -0.799997,-0.85333 -0.26666,-0.56 -0.26666,-1.38666 v -4.15999 h 1.119987 v 3.75999 q 0,0.65333 0.16,1.09333 0.173339,0.42667 0.506669,0.64 0.333329,0.2 0.826657,0.2 0.546669,0 0.919998,-0.25333 0.386669,-0.26667 0.586668,-0.8 0.2,-0.53333 0.2,-1.37333 v -3.26666 h 1.119987 v 6.57332 h -1.119987 v -1.4 h 0.279999 q -0.279999,0.73333 -0.893327,1.12 -0.613339,0.38666 -1.413327,0.38666 z m 7.253301,0 q -0.666658,0 -1.199987,-0.2 -0.533338,-0.2 -0.919997,-0.53333 -0.373329,-0.33333 -0.599999,-0.70666 l 0.786658,-0.66667 q 0.25334,0.50667 0.746668,0.84 0.506659,0.32 1.199997,0.32 0.626659,0 0.999988,-0.26667 0.373339,-0.26666 0.373339,-0.71999 0,-0.37334 -0.22667,-0.58667 -0.226669,-0.21333 -0.599998,-0.34667 -0.373329,-0.13333 -0.813328,-0.23999 -0.373329,-0.0933 -0.759998,-0.22667 -0.373329,-0.13333 -0.679998,-0.33333 -0.30666,-0.2 -0.493329,-0.52 -0.18666,-0.32 -0.18666,-0.78667 0,-0.81333 0.626659,-1.30666 0.639998,-0.50667 1.666655,-0.50667 0.746668,0 1.359997,0.32 0.626658,0.30667 0.973327,0.93333 l -0.719998,0.53334 q -0.266659,-0.46667 -0.706658,-0.66667 -0.426669,-0.21333 -0.946667,-0.21333 -0.519999,0 -0.866658,0.21333 -0.346669,0.21333 -0.346669,0.58667 0,0.28 0.159999,0.45333 0.16,0.17333 0.466669,0.29333 0.319999,0.12 0.773328,0.22667 0.413329,0.0933 0.839998,0.22666 0.426659,0.13334 0.786658,0.34667 0.359999,0.21333 0.573328,0.57333 0.22667,0.34667 0.22667,0.90667 0,0.61333 -0.306669,1.07999 -0.30666,0.46667 -0.866658,0.72 -0.559999,0.25333 -1.319997,0.25333 z m 6.866622,0 q -0.773328,0 -1.359996,-0.25333 -0.573329,-0.26666 -0.959988,-0.73333 -0.373339,-0.46667 -0.573338,-1.06666 -0.18666,-0.61334 -0.18666,-1.29333 0,-0.68 0.18666,-1.29333 0.186669,-0.62667 0.546668,-1.10667 0.373329,-0.48 0.933328,-0.76 0.559998,-0.28 1.306657,-0.28 0.759998,0 1.306666,0.26667 0.559999,0.25333 0.906658,0.70667 0.359999,0.45333 0.533328,1.01333 0.17334,0.55999 0.17334,1.15999 0,0.0533 -0.0133,0.25334 0,0.18666 -0.0267,0.33333 h -4.733308 q 0.04,0.96 0.559989,1.49333 0.519999,0.53333 1.413326,0.53333 0.573339,0 0.999998,-0.18667 0.426668,-0.18666 0.799997,-0.59999 l 0.786658,0.69333 q -0.359989,0.38666 -0.759988,0.64 -0.399999,0.23999 -0.853327,0.35999 -0.439999,0.12 -0.986668,0.12 z m 1.693326,-3.62665 q 0.0267,-0.10667 0.0267,-0.21334 0.0133,-0.10666 0.0133,-0.21333 0,-0.32 -0.12,-0.64 -0.10667,-0.32 -0.333329,-0.57333 -0.21334,-0.26667 -0.559999,-0.41333 -0.333329,-0.16 -0.799998,-0.16 -0.573328,0 -0.986657,0.26666 -0.413339,0.26667 -0.639998,0.70667 -0.22667,0.44 -0.26667,0.97333 h 4.03998 z" />
         <path id="LPF" fill="#d9d9d9"
            d="m 41.460129,266.21099 v -9.29331 h 1.173327 v 8.23998 h 4.159979 v 1.05333 z m 6.599973,0 v -9.29331 h 2.773322 q 1.506656,0 2.293324,0.66667 0.799998,0.66666 0.799998,1.95999 0,1.29333 -0.799998,1.98666 -0.799997,0.68 -2.293324,0.68 h -1.613325 v 3.99999 z m 1.159997,-5.03999 h 1.493326 q 0.959997,0 1.493326,-0.38666 0.546668,-0.4 0.546668,-1.22666 0,-0.81334 -0.533338,-1.2 -0.519989,-0.38667 -1.506656,-0.38667 h -1.493326 z m 6.226643,5.03999 v -9.29331 h 6.093304 v 1.05333 h -4.919977 v 2.97333 h 4.266649 v 1.05333 h -4.266649 v 4.21332 z" />
         <path id="Damping" fill="#d9d9d9"
            d="m 87.960072,145.26719 v -9.29331 h 2.573323 q 2.279984,0 3.533311,1.24 1.253327,1.22666 1.253327,3.47999 0,2.21333 -1.239997,3.39999 -1.239987,1.17333 -3.559981,1.17333 z m 1.173327,-1.08 h 1.279997 q 1.186656,0 2.013324,-0.34666 0.839988,-0.36 1.266657,-1.13333 0.439999,-0.78667 0.439999,-2.05333 0,-1.26666 -0.439999,-2.05333 -0.426669,-0.8 -1.239997,-1.17333 -0.799998,-0.37333 -1.933325,-0.37333 h -1.386656 z m 12.146601,1.08 -0.08,-1.32 v -2.79999 q 0,-0.76 -0.42667,-1.17333 -0.41333,-0.41333 -1.239998,-0.41333 -0.533329,0 -0.999988,0.22666 -0.466668,0.21334 -0.906667,0.73334 l -0.813328,-0.69334 q 0.546668,-0.63999 1.253327,-0.93333 0.706668,-0.30666 1.546656,-0.30666 1.293328,0 1.999998,0.66666 0.70665,0.66667 0.70665,1.89333 v 4.11999 z m -2.173327,0.10667 q -0.746668,0 -1.306667,-0.25334 -0.546658,-0.26666 -0.853328,-0.73333 -0.293329,-0.46666 -0.293329,-1.07999 0,-0.54667 0.21333,-0.92 0.226669,-0.38667 0.573338,-0.6 0.346659,-0.22667 0.786658,-0.30667 0.453329,-0.0933 0.946658,-0.0933 h 2.133327 v 0.85333 h -1.973328 q -0.293329,0 -0.613328,0.0533 -0.319999,0.0533 -0.559999,0.22667 -0.173329,0.13333 -0.279999,0.33333 -0.0933,0.2 -0.0933,0.46667 0,0.52 0.386669,0.82666 0.386659,0.30667 1.039988,0.30667 0.546668,0 0.986667,-0.25333 0.45333,-0.25334 0.72,-0.69334 0.28,-0.45333 0.28,-1.01333 l 0.46666,0.48 q -0.08,0.70667 -0.42666,1.25333 -0.34667,0.54667 -0.89334,0.85333 -0.533329,0.29334 -1.239987,0.29334 z m 5.053317,-0.10667 v -6.57332 h 1.13333 v 1.69333 h -0.22667 q 0.12,-0.46666 0.32,-0.8 0.21334,-0.34666 0.49334,-0.55999 0.27998,-0.22667 0.59998,-0.33334 0.33334,-0.10666 0.69334,-0.10666 0.59999,0 1.05333,0.22666 0.45333,0.22667 0.74666,0.69334 0.29333,0.45333 0.4,1.15999 l -0.64,0.04 q 0.2,-0.68 0.50667,-1.14666 0.30666,-0.48 0.75998,-0.72 0.46667,-0.25333 1.10667,-0.25333 0.81333,0 1.30666,0.37333 0.49333,0.36 0.72,0.97333 0.22667,0.6 0.22667,1.33333 v 3.99999 h -1.12 v -3.73332 q 0,-0.61334 -0.14667,-1.05333 -0.13333,-0.44 -0.44,-0.68 -0.29333,-0.24 -0.79999,-0.24 -0.48,0 -0.82667,0.24 -0.33332,0.24 -0.51999,0.73333 -0.17333,0.48 -0.17333,1.2 v 3.53332 h -1.13333 v -3.82666 q 0,-0.94666 -0.34667,-1.41333 -0.34666,-0.46666 -1.01333,-0.46666 -0.48,0 -0.82666,0.25333 -0.34666,0.24 -0.53332,0.72 -0.18667,0.48 -0.18667,1.2 v 3.53332 z m 11.03993,2.71999 v -9.29331 h 1.12 v 1.96 l -0.36,-0.25333 q 0.17333,-0.57334 0.50666,-0.97333 0.34667,-0.41334 0.84,-0.62667 0.49332,-0.21333 1.11999,-0.21333 0.89333,0 1.56,0.45333 0.67999,0.44 1.05333,1.21333 0.37332,0.76 0.37332,1.73333 0,1.02666 -0.39999,1.79999 -0.4,0.76 -1.08,1.17333 -0.68,0.41334 -1.50666,0.41334 -0.62667,0 -1.11999,-0.22667 -0.49333,-0.22667 -0.82666,-0.62666 -0.33334,-0.4 -0.48,-0.90667 l 0.32,-0.30666 v 4.67998 z m 3.03998,-3.63999 q 0.6,0 1.05333,-0.29333 0.46667,-0.30667 0.72,-0.84 0.26667,-0.53333 0.26667,-1.22666 0,-0.69333 -0.26667,-1.22666 -0.25333,-0.53334 -0.72,-0.82667 -0.45333,-0.30667 -1.05333,-0.30667 -0.6,0 -1.05332,0.30667 -0.45333,0.29333 -0.70666,0.82667 -0.25334,0.53333 -0.25334,1.22666 0,0.69333 0.25334,1.22666 0.25333,0.53333 0.70666,0.84 0.45332,0.29333 1.05332,0.29333 z m 4.77331,0.92 v -6.57332 h 1.12 v 6.57332 z m -0.10666,-7.75998 v -1.53333 h 1.33333 v 1.53333 z m 3.13331,7.75998 v -6.57332 h 1.13333 v 1.4 l -0.26667,0.0933 q 0.18667,-0.50666 0.50667,-0.85333 0.32,-0.36 0.77333,-0.54666 0.45333,-0.2 0.99999,-0.2 1.07999,0 1.69333,0.64 0.61333,0.62666 0.61333,1.86666 v 4.17332 h -1.13333 v -3.75999 q 0,-1 -0.37334,-1.46666 -0.35999,-0.48 -1.10666,-0.48 -0.54665,0 -0.93332,0.25333 -0.37333,0.25333 -0.57333,0.8 -0.2,0.53333 -0.2,1.37333 v 3.27999 z m 9.94663,2.83999 q -1.41333,0 -2.23999,-0.52 -0.82667,-0.51999 -0.82667,-1.43999 0,-0.0667 0,-0.17333 0.0133,-0.10667 0.04,-0.2 l 1.64,-1.18667 0.38666,0.26667 -0.93333,1.16 q -0.0133,0.0533 -0.0133,0.0933 0,0.04 0,0.08 0,0.53333 0.56,0.78666 0.56,0.26667 1.38666,0.26667 0.73332,0 1.21332,-0.21333 0.48,-0.2 0.48,-0.66667 0,-0.26666 -0.16,-0.44 -0.14666,-0.16 -0.44,-0.25333 -0.28,-0.0933 -0.66665,-0.16 -0.38667,-0.0667 -0.86667,-0.13333 -0.6,-0.0933 -1.17333,-0.26667 -0.56,-0.17333 -0.93333,-0.50666 -0.36,-0.33334 -0.36,-0.88 0,-0.46667 0.32,-0.85333 0.33333,-0.38667 0.86667,-0.64 l 0.71999,0.46666 q -0.45333,0.10667 -0.63999,0.33334 -0.18667,0.21333 -0.18667,0.51999 0,0.25334 0.17333,0.41334 0.18667,0.16 0.52,0.25333 0.34667,0.08 0.82667,0.14667 0.63999,0.0933 1.19998,0.2 0.56,0.10666 0.98667,0.30666 0.44,0.18667 0.68,0.50667 0.24,0.33333 0.24,0.85333 0,0.90666 -0.74667,1.38666 -0.74666,0.49333 -2.05332,0.49333 z m -0.16,-4.89332 q -0.76,0 -1.34666,-0.29333 -0.58667,-0.29333 -0.92,-0.81333 -0.32,-0.52 -0.32,-1.18667 0,-0.69333 0.33333,-1.21333 0.34667,-0.53333 0.92,-0.82666 0.58667,-0.29333 1.29333,-0.29333 0.69332,0 1.26666,0.29333 0.57333,0.29333 0.91999,0.82666 0.34667,0.53334 0.34667,1.25333 0,0.68 -0.32,1.18667 -0.32,0.50666 -0.88,0.78666 -0.56,0.28 -1.29332,0.28 z m -0.0267,-0.92 q 0.66665,0 1.02665,-0.39999 0.37333,-0.41334 0.37333,-1 0,-0.62667 -0.38666,-1.01333 -0.38666,-0.38667 -1.01332,-0.38667 -0.64,0 -1.04,0.4 -0.4,0.38667 -0.4,0.98666 0,0.6 0.38667,1.01334 0.38666,0.39999 1.05333,0.39999 z m 2.09331,-2.37332 -0.81333,-0.54667 1.38667,-1.14666 0.57333,0.70666 z" />
         <path id="Decay" fill="#d9d9d9"
            d="m 95.60002,203.8311 v -9.29331 h 2.573323 q 2.279987,0 3.533307,1.24 1.25333,1.22666 1.25333,3.47999 0,2.21333 -1.23999,3.39999 -1.23999,1.17333 -3.559977,1.17333 z m 1.173327,-1.08 h 1.279996 q 1.186657,0 2.013327,-0.34666 0.84,-0.36 1.26665,-1.13333 0.44,-0.78667 0.44,-2.05333 0,-1.26666 -0.44,-2.05333 -0.42665,-0.8 -1.23999,-1.17333 -0.79999,-0.37333 -1.933317,-0.37333 h -1.386666 z m 10.599943,1.18667 q -0.77334,0 -1.36,-0.25334 -0.57333,-0.26666 -0.96,-0.73333 -0.37332,-0.46666 -0.57332,-1.06666 -0.18667,-0.61333 -0.18667,-1.29333 0,-0.68 0.18667,-1.29333 0.18667,-0.62667 0.54665,-1.10667 0.37334,-0.47999 0.93334,-0.75999 0.55999,-0.28 1.30666,-0.28 0.76,0 1.30666,0.26666 0.55999,0.25334 0.90666,0.70667 0.36,0.45333 0.53333,1.01333 0.17333,0.56 0.17333,1.16 0,0.0533 -0.0133,0.25333 0,0.18667 -0.0267,0.33333 h -4.73331 q 0.04,0.96 0.56,1.49333 0.52,0.53333 1.41333,0.53333 0.57333,0 1,-0.18666 0.42665,-0.18667 0.79998,-0.6 l 0.78667,0.69333 q -0.36,0.38667 -0.76,0.64 -0.4,0.24 -0.85332,0.36 -0.44,0.12 -0.98666,0.12 z m 1.69331,-3.62666 q 0.0267,-0.10667 0.0267,-0.21333 0.0133,-0.10667 0.0133,-0.21334 0,-0.32 -0.12,-0.63999 -0.10666,-0.32 -0.33332,-0.57334 -0.21333,-0.26666 -0.56,-0.41333 -0.33333,-0.16 -0.79999,-0.16 -0.57334,0 -0.98667,0.26667 -0.41333,0.26666 -0.64,0.70666 -0.22666,0.44 -0.26666,0.97333 h 4.03998 z m 5.46666,3.62666 q -0.73333,0 -1.30666,-0.26667 -0.56,-0.26667 -0.94666,-0.73333 -0.38666,-0.48 -0.58666,-1.09333 -0.2,-0.61333 -0.2,-1.30666 0,-0.68 0.2,-1.29333 0.2,-0.61334 0.58666,-1.08 0.38666,-0.48 0.94666,-0.74667 0.57333,-0.26666 1.30666,-0.26666 0.93333,0 1.62666,0.45333 0.70666,0.45333 1.03999,1.38666 l -0.99999,0.38667 q -0.18667,-0.56 -0.6,-0.90667 -0.41333,-0.34666 -1.06666,-0.34666 -0.65333,0 -1.08,0.34666 -0.42666,0.34667 -0.64,0.89334 -0.19999,0.54666 -0.19999,1.17333 0,0.62666 0.19999,1.18666 0.21334,0.54666 0.64,0.89333 0.42667,0.33333 1.08,0.33333 0.65333,0 1.06666,-0.33333 0.41333,-0.34667 0.6,-0.92 l 0.99999,0.38667 q -0.33333,0.93333 -1.03999,1.39999 -0.69333,0.45334 -1.62666,0.45334 z m 8.49329,-0.10667 -0.08,-1.32 v -2.79999 q 0,-0.76 -0.42667,-1.17333 -0.41333,-0.41333 -1.24,-0.41333 -0.53333,0 -0.99999,0.22666 -0.46666,0.21334 -0.90666,0.73334 l -0.81333,-0.69334 q 0.54667,-0.63999 1.25333,-0.93333 0.70666,-0.30666 1.54665,-0.30666 1.29333,0 2,0.66666 0.70665,0.66667 0.70665,1.89333 v 4.11999 z m -2.17333,0.10667 q -0.74666,0 -1.30666,-0.25334 -0.54666,-0.26666 -0.85333,-0.73333 -0.29333,-0.46666 -0.29333,-1.07999 0,-0.54667 0.21333,-0.92 0.22667,-0.38667 0.57334,-0.6 0.34666,-0.22667 0.78666,-0.30667 0.45332,-0.0933 0.94665,-0.0933 h 2.13333 v 0.85333 h -1.97333 q -0.29333,0 -0.61333,0.0533 -0.31999,0.0533 -0.55999,0.22667 -0.17333,0.13333 -0.28,0.33333 -0.0933,0.2 -0.0933,0.46667 0,0.52 0.38667,0.82666 0.38665,0.30667 1.03998,0.30667 0.54667,0 0.98667,-0.25333 0.45333,-0.25334 0.72,-0.69334 0.28,-0.45333 0.28,-1.01333 l 0.46666,0.48 q -0.08,0.70667 -0.42666,1.25333 -0.34667,0.54667 -0.89333,0.85333 -0.53334,0.29334 -1.24,0.29334 z m 5.53331,2.59999 1.25333,-3.02666 -2.55999,-6.25332 h 1.24 l 1.91998,5.11999 1.93333,-5.11999 h 1.22666 l -3.78664,9.27998 z" />
         <path id="PreDelay" fill="#d9d9d9"
            d="m 25.466883,203.83109 v -9.29331 h 2.773323 q 1.506656,0 2.293324,0.66666 0.799988,0.66667 0.799988,1.96 0,1.29333 -0.799988,1.98666 -0.799998,0.68 -2.293324,0.68 H 26.62688 v 3.99999 z m 1.159997,-5.03999 h 1.493326 q 0.959998,0 1.493326,-0.38666 0.546659,-0.4 0.546659,-1.22667 0,-0.81333 -0.533329,-1.19999 -0.519998,-0.38667 -1.506656,-0.38667 H 26.62688 Z m 6.133314,5.03999 v -6.57332 h 1.133327 v 1.76 l -0.293329,0.0667 q 0.0933,-0.58666 0.439989,-1.01333 0.359999,-0.44 0.826668,-0.68 0.479998,-0.23999 0.933327,-0.23999 0.306669,0 0.586669,0.0667 0.279989,0.0667 0.573328,0.22667 l -0.559998,1.01333 q -0.16,-0.08 -0.386669,-0.13333 -0.21333,-0.0533 -0.413329,-0.0533 -0.319999,0 -0.639999,0.12 -0.306659,0.12 -0.559998,0.37333 -0.253329,0.25334 -0.386659,0.68 -0.0533,0.18667 -0.0933,0.49334 -0.0267,0.29333 -0.0267,0.81333 v 3.07999 z m 7.82662,0.10666 q -0.773328,0 -1.359997,-0.25333 -0.573328,-0.26666 -0.959987,-0.73333 -0.373339,-0.46666 -0.573339,-1.06666 -0.186659,-0.61333 -0.186659,-1.29333 0,-0.68 0.186659,-1.29333 0.18667,-0.62667 0.546669,-1.10667 0.373329,-0.48 0.933327,-0.76 0.559999,-0.27999 1.306657,-0.27999 0.759998,0 1.306667,0.26666 0.559998,0.25333 0.906657,0.70667 0.359999,0.45333 0.533329,1.01333 0.173339,0.56 0.173339,1.15999 0,0.0533 -0.0133,0.25334 0,0.18666 -0.0267,0.33333 h -4.733307 q 0.04,0.96 0.559988,1.49333 0.519999,0.53333 1.413327,0.53333 0.573338,0 0.999997,-0.18667 0.426669,-0.18666 0.799998,-0.59999 l 0.786658,0.69333 q -0.359999,0.38666 -0.759988,0.64 -0.399999,0.24 -0.853338,0.36 -0.439989,0.11999 -0.986657,0.11999 z m 1.693325,-3.62665 q 0.0267,-0.10667 0.0267,-0.21334 0.0133,-0.10666 0.0133,-0.21333 0,-0.32 -0.12,-0.64 -0.106669,-0.32 -0.333329,-0.57333 -0.213339,-0.26666 -0.559998,-0.41333 -0.333329,-0.16 -0.799998,-0.16 -0.573329,0 -0.986657,0.26667 -0.413339,0.26666 -0.639999,0.70666 -0.226669,0.44 -0.266669,0.97333 h 4.039979 z m 2.826663,3.51999 v -9.29331 h 2.573323 q 2.279984,0 3.533311,1.24 1.253327,1.22666 1.253327,3.47999 0,2.21332 -1.239987,3.39999 -1.239997,1.17333 -3.559981,1.17333 z m 1.173327,-1.08 h 1.279996 q 1.186657,0 2.013325,-0.34666 0.839998,-0.36 1.266657,-1.13333 0.439999,-0.78667 0.439999,-2.05333 0,-1.26667 -0.439999,-2.05333 -0.426659,-0.8 -1.239997,-1.17333 -0.799988,-0.37333 -1.933315,-0.37333 h -1.386666 z m 10.599942,1.18666 q -0.773338,0 -1.359996,-0.25333 -0.573329,-0.26666 -0.959998,-0.73333 -0.373329,-0.46666 -0.573328,-1.06666 -0.18667,-0.61333 -0.18667,-1.29333 0,-0.68 0.18667,-1.29333 0.186669,-0.62667 0.546658,-1.10667 0.373339,-0.48 0.933338,-0.76 0.559988,-0.27999 1.306656,-0.27999 0.759998,0 1.306657,0.26666 0.559998,0.25333 0.906668,0.70667 0.359999,0.45333 0.533328,1.01333 0.17333,0.56 0.17333,1.15999 0,0.0533 -0.0133,0.25334 0,0.18666 -0.0267,0.33333 h -4.733308 q 0.04,0.96 0.559999,1.49333 0.519998,0.53333 1.413326,0.53333 0.573328,0 0.999997,-0.18667 0.426659,-0.18666 0.799988,-0.59999 l 0.786668,0.69333 q -0.359999,0.38666 -0.759998,0.64 -0.399999,0.24 -0.853328,0.36 -0.439998,0.11999 -0.986657,0.11999 z m 1.693316,-3.62665 q 0.0267,-0.10667 0.0267,-0.21334 0.0133,-0.10666 0.0133,-0.21333 0,-0.32 -0.119999,-0.64 -0.10666,-0.32 -0.333329,-0.57333 -0.21333,-0.26666 -0.559999,-0.41333 -0.333329,-0.16 -0.799988,-0.16 -0.573338,0 -0.986667,0.26667 -0.413329,0.26666 -0.639999,0.70666 -0.226659,0.44 -0.266659,0.97333 h 4.03998 z m 4.053329,3.62665 q -0.599998,0 -0.973327,-0.37333 -0.37333,-0.37333 -0.37333,-1.18666 v -7.83998 h 1.119988 v 7.62665 q 0,0.38666 0.159999,0.55999 0.16,0.17334 0.426669,0.17334 0.12,0 0.266669,-0.0267 0.14666,-0.0267 0.30666,-0.08 v 0.96 q -0.22666,0.0933 -0.479999,0.13333 -0.25333,0.0533 -0.453329,0.0533 z m 6.533293,-0.10666 -0.08,-1.32 v -2.79999 q 0,-0.76 -0.426669,-1.17333 -0.413329,-0.41333 -1.239997,-0.41333 -0.533328,0 -0.999987,0.22666 -0.466669,0.21334 -0.906668,0.73333 l -0.813327,-0.69333 q 0.546668,-0.64 1.253326,-0.93333 0.706668,-0.30666 1.546656,-0.30666 1.293327,0 1.999995,0.66666 0.706658,0.66667 0.706658,1.89333 v 4.11999 z m -2.173324,0.10666 q -0.746668,0 -1.306657,-0.25333 -0.546669,-0.26666 -0.853338,-0.73333 -0.293329,-0.46666 -0.293329,-1.08 0,-0.54666 0.213329,-0.91999 0.22667,-0.38667 0.573339,-0.6 0.346659,-0.22667 0.786658,-0.30667 0.453329,-0.0933 0.946667,-0.0933 h 2.133315 v 0.85333 h -1.973325 q -0.293329,0 -0.613328,0.0533 -0.32,0.0533 -0.559999,0.22667 -0.17333,0.13333 -0.279989,0.33333 -0.0933,0.2 -0.0933,0.46667 0,0.52 0.386669,0.82666 0.386659,0.30667 1.039997,0.30667 0.546659,0 0.986658,-0.25334 0.453328,-0.25333 0.719998,-0.69333 0.279999,-0.45333 0.279999,-1.01333 l 0.466659,0.48 q -0.08,0.70667 -0.426659,1.25333 -0.346669,0.54667 -0.893328,0.85333 -0.533338,0.29333 -1.239996,0.29333 z m 5.533315,2.6 1.253327,-3.02666 -2.559994,-6.25332 h 1.239997 l 1.919995,5.11999 1.933315,-5.11999 h 1.226667 l -3.78665,9.27998 z" />
         <path id="hpf" fill="#d9d9d9"
            d="m 102.23998,266.211 v -9.29331 h 1.17333 v 3.98666 h 4.58665 v -3.98666 h 1.17332 v 9.29331 h -1.17332 v -4.21332 h -4.58665 v 4.21332 z m 9.03995,0 v -9.29331 h 2.77332 q 1.50666,0 2.29333,0.66666 0.79998,0.66667 0.79998,1.96 0,1.29333 -0.79998,1.98666 -0.8,0.68 -2.29333,0.68 h -1.61332 v 3.99999 z m 1.16,-5.03999 h 1.49332 q 0.96,0 1.49333,-0.38666 0.54666,-0.4 0.54666,-1.22667 0,-0.81333 -0.53333,-1.19999 -0.52,-0.38667 -1.50666,-0.38667 h -1.49332 z m 6.22664,5.03999 v -9.29331 h 6.0933 v 1.05333 h -4.91997 v 2.97333 h 4.26665 v 1.05333 h -4.26665 v 4.21332 z" />
         <path id="fx" fill="#d9d9d9"
            d="m 35.296717,39.671315 q -1.613336,0 -2.640003,-0.836002 -1.011998,-0.836002 -1.246667,-2.229338 l 1.657336,-0.410668 q 0.161329,0.968002 0.762668,1.46667 0.615998,0.498668 1.510666,0.498668 0.498668,0 0.894667,-0.176 0.395999,-0.190668 0.615999,-0.528002 0.234669,-0.337334 0.234669,-0.762668 0,-0.454668 -0.249339,-0.748002 -0.24933,-0.308 -0.718668,-0.542668 -0.469329,-0.249334 -1.143997,-0.513334 -0.923998,-0.352001 -1.569336,-0.762669 -0.645329,-0.410667 -0.982658,-0.968002 -0.337339,-0.572001 -0.337339,-1.349336 0,-0.806669 0.395999,-1.42267 0.395999,-0.630668 1.114667,-0.982669 0.718668,-0.352001 1.657336,-0.352001 1.011997,0 1.789335,0.454668 0.777328,0.454668 1.246667,1.37867 l -1.349337,0.821335 q -0.307999,-0.557335 -0.747998,-0.850669 -0.439998,-0.308 -0.997337,-0.308 -0.395999,0 -0.718668,0.161333 -0.322659,0.146667 -0.513329,0.425335 -0.175999,0.278667 -0.175999,0.645334 0,0.381335 0.219999,0.674669 0.22,0.278667 0.674668,0.513334 0.469329,0.234667 1.187997,0.513335 0.923998,0.352 1.569336,0.762668 0.645329,0.410668 0.982668,0.982669 0.351999,0.557335 0.351999,1.364003 0,0.894669 -0.439999,1.584004 -0.440009,0.689335 -1.232007,1.100002 -0.777328,0.396001 -1.803995,0.396001 z m 5.001337,-0.190667 v -10.22269 h 1.628005 v 4.590677 l -0.293339,0.07333 q 0.19067,-0.630669 0.557339,-1.026669 0.381329,-0.396001 0.865327,-0.586668 0.483999,-0.190668 1.026668,-0.190668 1.217337,0 1.891995,0.704002 0.689338,0.689335 0.689338,1.980005 v 4.678677 h -1.627996 v -4.077343 q 0,-0.968002 -0.352009,-1.42267 -0.351999,-0.454667 -1.085327,-0.454667 -0.821338,0 -1.246667,0.586668 -0.425329,0.586668 -0.425329,1.848004 v 3.520008 z m 11.45467,0.132 q -1.026668,0 -1.848005,-0.484001 -0.821328,-0.484001 -1.290667,-1.33467 -0.454669,-0.850668 -0.454669,-1.936004 0,-1.085336 0.454669,-1.936004 0.469339,-0.850669 1.275997,-1.320003 0.821337,-0.484002 1.862675,-0.484002 1.055997,0 1.847995,0.484002 0.806668,0.469334 1.275997,1.320003 0.469338,0.850668 0.469338,1.936004 0,1.085336 -0.469338,1.936004 -0.454669,0.850669 -1.275997,1.33467 -0.806668,0.484001 -1.847995,0.484001 z m 0.0147,-1.437336 q 0.601338,0 1.041337,-0.278668 0.439999,-0.278667 0.674668,-0.806668 0.23466,-0.528001 0.23466,-1.232003 0,-0.718668 -0.23466,-1.232003 -0.234669,-0.528001 -0.674668,-0.806668 -0.439999,-0.278668 -1.041337,-0.278668 -0.630669,0 -1.070668,0.293334 -0.439998,0.278668 -0.674668,0.792002 -0.234659,0.513335 -0.234659,1.232003 0,0.704002 0.234659,1.232003 0.23467,0.528001 0.674668,0.806668 0.439999,0.278668 1.070668,0.278668 z m 5.147986,1.305336 v -7.230683 h 1.642666 v 1.950671 l -0.307999,0.044 q 0.0733,-0.630668 0.425339,-1.100003 0.351999,-0.484001 0.850667,-0.748001 0.513329,-0.278668 1.011998,-0.278668 0.351999,0 0.674668,0.088 0.322669,0.088 0.674668,0.293334 l -0.792008,1.46667 q -0.161329,-0.102667 -0.425329,-0.161334 -0.249329,-0.07333 -0.483998,-0.07333 -0.308,0 -0.615999,0.117334 -0.293339,0.117334 -0.527998,0.366668 -0.23467,0.234667 -0.351999,0.616001 -0.0733,0.205334 -0.11734,0.542668 -0.0293,0.322667 -0.0293,0.909335 v 3.197341 z m 8.785337,0.132 q -0.542668,0 -1.026667,-0.205333 -0.469329,-0.220001 -0.747998,-0.689335 -0.278669,-0.484001 -0.278669,-1.261337 v -6.966682 l 1.642665,-0.909336 v 7.421351 q 0,0.616001 0.176,0.953335 0.190669,0.322668 0.674668,0.322668 0.14667,0 0.337329,-0.02933 0.20534,-0.044 0.425339,-0.102667 v 1.261337 q -0.293339,0.102666 -0.601338,0.146667 -0.29333,0.05867 -0.601329,0.05867 z m -3.432001,-6.101347 v -1.261336 h 4.634668 v 1.261336 z m 9.988014,5.969347 v -10.22269 h 3.270661 q 1.217337,0 1.980005,0.366667 0.762658,0.352001 1.114657,1.012003 0.366669,0.660001 0.366669,1.55467 0,1.364003 -0.791998,2.126672 -0.777338,0.748001 -2.229334,0.865335 -0.293329,0 -0.630668,0 -0.337329,0 -0.601329,0 h -0.777337 v 4.297343 z m 5.602665,0 -2.596003,-4.48801 1.745336,-0.205334 2.815992,4.693344 z m -3.901339,-5.793347 h 1.393336 q 0.557328,0 0.982667,-0.132 0.439999,-0.132 0.689328,-0.454668 0.264,-0.322667 0.264,-0.894668 0,-0.572002 -0.264,-0.880002 -0.249329,-0.308001 -0.689328,-0.425335 -0.439999,-0.132 -0.982667,-0.132 h -1.393336 z m 9.958683,5.925347 q -0.90934,0 -1.58399,-0.293334 -0.660014,-0.293334 -1.085343,-0.821335 -0.425328,-0.528001 -0.630668,-1.188003 -0.205329,-0.674668 -0.205329,-1.393336 0,-0.718668 0.190669,-1.393337 0.20533,-0.689335 0.615998,-1.232003 0.410659,-0.542667 1.056003,-0.850668 0.64532,-0.322668 1.52533,-0.322668 0.836,0 1.452,0.293334 0.63067,0.278668 1.04133,0.792002 0.41066,0.498668 0.60133,1.144003 0.20533,0.645335 0.20533,1.37867 0,0.102667 -0.0147,0.293334 0,0.190667 -0.0293,0.381334 h -5.01599 q 0.0587,0.865335 0.58666,1.320003 0.528,0.454668 1.34934,0.454668 0.60133,0 1.1,-0.190667 0.49867,-0.190668 0.90933,-0.601335 l 0.89466,1.085336 q -0.45466,0.410667 -0.90932,0.660001 -0.45467,0.249334 -0.95334,0.366668 -0.484,0.117333 -1.1,0.117333 z m 1.584,-4.033342 q 0.0293,-0.117334 0.0293,-0.234667 0.0147,-0.117334 0.0147,-0.234668 0,-0.322667 -0.11733,-0.616001 -0.10267,-0.293334 -0.32267,-0.513335 -0.22,-0.234667 -0.54267,-0.366667 -0.32266,-0.146667 -0.73333,-0.146667 -0.572,0 -0.968,0.249334 -0.38134,0.249334 -0.60133,0.645335 -0.20533,0.381334 -0.249335,0.836002 h 4.018665 z m 5.25066,3.901342 -2.948,-7.230683 h 1.78934 l 1.83333,5.118678 1.86267,-5.118678 h 1.75999 l -2.94799,7.230683 z m 8.448,0.132 q -0.90934,0 -1.58399,-0.293334 -0.66001,-0.293334 -1.08534,-0.821335 -0.42533,-0.528001 -0.63067,-1.188003 -0.20533,-0.674668 -0.20533,-1.393336 0,-0.718668 0.19066,-1.393337 0.20534,-0.689335 0.61601,-1.232003 0.41066,-0.542667 1.056,-0.850668 0.64532,-0.322668 1.52533,-0.322668 0.836,0 1.451991,0.293334 0.63067,0.278668 1.04133,0.792002 0.41067,0.498668 0.60134,1.144003 0.20533,0.645335 0.20533,1.37867 0,0.102667 -0.0147,0.293334 0,0.190667 -0.0293,0.381334 h -5.016001 q 0.0587,0.865335 0.58667,1.320003 0.528,0.454668 1.34934,0.454668 0.60133,0 1.099991,-0.190667 0.49867,-0.190668 0.90933,-0.601335 l 0.89467,1.085336 q -0.45467,0.410667 -0.90933,0.660001 -0.45467,0.249334 -0.95334,0.366668 -0.483991,0.117333 -1.099991,0.117333 z m 1.583991,-4.033342 q 0.0293,-0.117334 0.0293,-0.234667 0.0147,-0.117334 0.0147,-0.234668 0,-0.322667 -0.11733,-0.616001 -0.10267,-0.293334 -0.32267,-0.513335 -0.22,-0.234667 -0.542661,-0.366667 -0.32266,-0.146667 -0.73333,-0.146667 -0.572,0 -0.968,0.249334 -0.38134,0.249334 -0.60133,0.645335 -0.20533,0.381334 -0.24933,0.836002 h 4.018651 z m 3.18267,3.901342 v -7.230683 h 1.64267 v 1.950671 l -0.308,0.044 q 0.0733,-0.630668 0.42533,-1.100003 0.352,-0.484001 0.85067,-0.748001 0.51332,-0.278668 1.01199,-0.278668 0.352,0 0.67467,0.088 0.32267,0.088 0.67467,0.293334 l -0.792,1.46667 q -0.16134,-0.102667 -0.42534,-0.161334 -0.24933,-0.07333 -0.484,-0.07333 -0.30799,0 -0.61599,0.117334 -0.29333,0.117334 -0.528,0.366668 -0.23467,0.234667 -0.352,0.616001 -0.0733,0.205334 -0.11734,0.542668 -0.0293,0.322667 -0.0293,0.909335 v 3.197341 z m 9.92934,0.132 q -0.58667,0 -1.11467,-0.234667 -0.51334,-0.234667 -0.89467,-0.718668 -0.38133,-0.498668 -0.572,-1.29067 l 0.42533,0.102667 v 2.009338 h -1.61332 v -10.22269 h 1.61332 v 5.016011 h -0.36666 q 0.14666,-0.689335 0.49866,-1.158669 0.36667,-0.484001 0.88,-0.733335 0.52801,-0.264001 1.14401,-0.264001 0.87999,0 1.58399,0.454668 0.71867,0.440001 1.144,1.276003 0.42534,0.836002 0.42534,2.009338 0,1.070669 -0.396,1.921338 -0.38134,0.850668 -1.08534,1.349336 -0.704,0.484001 -1.67199,0.484001 z m -0.396,-1.496003 q 0.572,0 0.99733,-0.278667 0.43999,-0.278668 0.67466,-0.792002 0.23467,-0.513335 0.23467,-1.188003 0,-0.674668 -0.23467,-1.188003 -0.23467,-0.513334 -0.67466,-0.792001 -0.42533,-0.278668 -0.99733,-0.278668 -0.572,0 -1.01201,0.293334 -0.42533,0.278668 -0.66,0.792002 -0.23466,0.498668 -0.23466,1.173336 0,0.674668 0.23466,1.188003 0.23467,0.513334 0.66,0.792002 0.44001,0.278667 1.01201,0.278667 z" />
      </g>
      <circle id="light" cx="116" cy="58" r="5" fill="#20415f" stroke="#333333" stroke-width="1" />
      <g id="inputs">
         <path id="MX--in-label" fill="#737373"
            d="m 13.957475,301.79225 h 1.96875 l 1.44141,4.61133 1.4414,-4.61133 h 1.9043 l 0.98438,7.69336 h -1.58204 l -0.67382,-5.41406 -1.69336,5.41406 h -0.75586 l -1.73438,-5.46094 -0.63867,5.46094 h -1.60547 z m 8.8711,0 h 1.65234 v 7.69336 h -1.65234 z m 2.88867,0 h 1.76367 l 1.54687,2.35547 1.59961,-2.35547 h 1.71094 l -2.43164,3.66211 2.67188,4.03125 h -1.7168 l -1.82227,-2.73633 -1.82226,2.73633 h -1.75196 l 2.70118,-4.01953 z" />
         <path id="R1--in-label" fill="#737373"
            d="m 56.999263,292.77396 v -8.364 h 2.675993 q 0.995997,0 1.619995,0.3 0.623999,0.288 0.911998,0.828 0.299999,0.54 0.299999,1.272 0,1.116 -0.647998,1.74 -0.635998,0.612 -1.823995,0.708 -0.24,0 -0.515999,0 -0.275999,0 -0.491999,0 h -0.635998 v 3.516 z m 4.583988,0 -2.123995,-3.672 1.427996,-0.168 2.303994,3.84 z m -3.191992,-4.74 h 1.139997 q 0.455999,0 0.803998,-0.108 0.359999,-0.108 0.563998,-0.372 0.216,-0.264 0.216,-0.732 0,-0.468 -0.216,-0.72 -0.203999,-0.252 -0.563998,-0.348 -0.359999,-0.108 -0.803998,-0.108 h -1.139997 z m 8.375978,4.74 v -6.66 l 0.395999,0.672 h -2.555993 v -1.068 h 1.343995 q 0.408,0 0.612,-0.168 0.203999,-0.168 0.203999,-0.6 v -0.54 h 1.331996 v 8.364 z" />
         <path id="R2--in-label" fill="#737373"
            d="m 95.54916,292.77396 v -8.364 h 2.675993 q 0.995991,0 1.619991,0.3 0.623996,0.288 0.911996,0.828 0.3,0.54 0.3,1.272 0,1.116 -0.648,1.74 -0.635996,0.612 -1.823988,0.708 -0.239999,0 -0.515998,0 -0.276,0 -0.491999,0 h -0.635998 v 3.516 z m 4.58398,0 -2.123986,-3.672 1.42799,-0.168 2.303996,3.84 z m -3.191983,-4.74 h 1.139997 q 0.455998,0 0.803998,-0.108 0.359992,-0.108 0.563992,-0.372 0.216,-0.264 0.216,-0.732 0,-0.468 -0.216,-0.72 -0.204,-0.252 -0.563992,-0.348 -0.359999,-0.108 -0.803998,-0.108 h -1.139997 z m 5.555973,4.74 v -1.032 q 0.396,-0.3 0.924,-0.684 0.528,-0.384 1.068,-0.84 0.552,-0.456 1.02,-0.972 0.46799,-0.528 0.75599,-1.092 0.3,-0.564 0.3,-1.164 0,-0.6 -0.324,-0.984 -0.32399,-0.396 -0.99599,-0.396 -0.516,0 -0.84,0.252 -0.324,0.252 -0.48,0.672 -0.156,0.408 -0.168,0.888 l -1.308,-0.108 q 0,-0.576 0.18,-1.104 0.192,-0.54 0.552,-0.96 0.36,-0.432 0.888,-0.672 0.528,-0.252 1.212,-0.252 0.76799,0 1.34399,0.324 0.588,0.324 0.912,0.912 0.336,0.588 0.336,1.38 0,0.648 -0.228,1.248 -0.216,0.6 -0.624,1.152 -0.396,0.54 -0.936,1.032 -0.53999,0.48 -1.17599,0.912 -0.636,0.42 -1.344,0.768 l 0.348,-0.516 h 4.29599 v 1.236 z" />
         <path id="R3--in-label" fill="#737373"
            d="m 135.7251,292.79796 v -8.364 h 2.67599 q 0.996,0 1.62,0.3 0.62399,0.288 0.91199,0.828 0.3,0.54 0.3,1.272 0,1.116 -0.648,1.74 -0.63599,0.612 -1.82399,0.708 -0.24,0 -0.516,0 -0.276,0 -0.492,0 h -0.636 v 3.516 z m 4.58399,0 -2.124,-3.672 1.428,-0.168 2.30399,3.84 z m -3.192,-4.74 h 1.14 q 0.456,0 0.804,-0.108 0.36,-0.108 0.564,-0.372 0.216,-0.264 0.216,-0.732 0,-0.468 -0.216,-0.72 -0.204,-0.252 -0.564,-0.348 -0.36,-0.108 -0.804,-0.108 h -1.14 z m 8.33999,4.848 q -0.924,0 -1.61999,-0.336 -0.696,-0.348 -1.08,-0.96 -0.384,-0.612 -0.384,-1.428 l 1.332,-0.084 q 0,0.696 0.492,1.116 0.49199,0.408 1.29599,0.408 0.54,0 0.912,-0.156 0.384,-0.168 0.576,-0.48 0.204,-0.312 0.204,-0.732 0,-0.372 -0.156,-0.624 -0.156,-0.252 -0.444,-0.396 -0.276,-0.156 -0.684,-0.216 -0.396,-0.072 -0.888,-0.072 v -1.056 q 0.348,0 0.66,-0.06 0.312,-0.06 0.54,-0.192 0.24,-0.144 0.372,-0.36 0.132,-0.228 0.132,-0.564 0,-0.336 -0.168,-0.588 -0.156,-0.252 -0.444,-0.384 -0.276,-0.144 -0.66,-0.144 -0.648,0 -1.008,0.348 -0.35999,0.348 -0.37199,0.912 l -1.308,-0.084 q 0,-0.72 0.348,-1.272 0.348,-0.552 0.96,-0.864 0.62399,-0.312 1.41599,-0.312 0.756,0 1.332,0.288 0.576,0.288 0.9,0.792 0.336,0.504 0.336,1.176 0,0.312 -0.084,0.576 -0.084,0.264 -0.252,0.48 -0.156,0.204 -0.372,0.36 -0.216,0.156 -0.468,0.264 0.348,0.108 0.648,0.276 0.3,0.168 0.516,0.42 0.22799,0.252 0.34799,0.576 0.132,0.324 0.132,0.732 0,0.78 -0.384,1.38 -0.38399,0.588 -1.07999,0.924 -0.684,0.336 -1.596,0.336 z" />
         <path id="R4--in-label" fill="#737373"
            d="m 56.039265,329.48862 v -8.364 h 2.675993 q 0.995998,0 1.619996,0.3 0.623998,0.288 0.911998,0.828 0.299999,0.54 0.299999,1.272 0,1.116 -0.647999,1.74 -0.635998,0.612 -1.823995,0.708 -0.239999,0 -0.515998,0 -0.276,0 -0.491999,0 h -0.635998 v 3.516 z m 4.583988,0 -2.123994,-3.672 1.427996,-0.168 2.303994,3.84 z m -3.191991,-4.74 h 1.139997 q 0.455998,0 0.803997,-0.108 0.36,-0.108 0.563999,-0.372 0.215999,-0.264 0.215999,-0.732 0,-0.468 -0.215999,-0.72 -0.203999,-0.252 -0.563999,-0.348 -0.359999,-0.108 -0.803997,-0.108 h -1.139997 z m 8.963976,4.74 v -1.98 h -3.79199 v -1.032 l 3.93599,-5.352 h 1.187996 v 5.148 h 1.331997 v 1.236 h -1.331997 v 1.98 z m -2.735993,-2.748 -0.048,-0.468 h 2.783993 v -3.792 l 0.168,0.168 z" />
         <path id="R5--in-label" fill="#737373"
            d="m 95.912169,329.43463 v -8.364 h 2.675993 q 0.995992,0 1.619988,0.3 0.624,0.288 0.912,0.828 0.3,0.54 0.3,1.272 0,1.116 -0.648,1.74 -0.636,0.612 -1.823993,0.708 -0.239995,0 -0.515994,0 -0.276,0 -0.491999,0 h -0.635998 v 3.516 z m 4.583981,0 -2.123987,-3.672 1.427991,-0.168 2.303996,3.84 z m -3.191984,-4.74 h 1.139997 q 0.455999,0 0.803991,-0.108 0.36,-0.108 0.564,-0.372 0.215996,-0.264 0.215996,-0.732 0,-0.468 -0.215996,-0.72 -0.204,-0.252 -0.564,-0.348 -0.359992,-0.108 -0.803991,-0.108 h -1.139997 z m 8.363974,4.848 q -0.768,0 -1.416,-0.324 -0.636,-0.336 -1.056,-0.9 -0.408,-0.564 -0.516,-1.272 l 1.308,-0.228 q 0.048,0.36 0.252,0.708 0.204,0.336 0.564,0.54 0.36,0.204 0.852,0.204 0.55199,0 0.91199,-0.252 0.36,-0.252 0.54,-0.648 0.18,-0.408 0.18,-0.84 0,-0.42 -0.18,-0.78 -0.168,-0.36 -0.516,-0.576 -0.348,-0.216 -0.89999,-0.216 -0.504,0 -0.876,0.228 -0.372,0.228 -0.624,0.588 l -1.26,-0.324 0.804,-4.38 h 4.58399 v 1.236 h -4.09199 l 0.708,-0.552 -0.552,2.94 -0.408,-0.096 q 0.468,-0.54 0.96,-0.708 0.504,-0.18 0.948,-0.18 0.82799,0 1.46399,0.384 0.636,0.384 0.984,1.032 0.36,0.648 0.36,1.404 0,0.6 -0.216,1.14 -0.216,0.54 -0.624,0.972 -0.408,0.42 -0.972,0.66 -0.552,0.24 -1.21199,0.24 z" />
         <path id="R6--in-label" fill="#737373"
            d="m 135.72508,329.45863 v -8.364 h 2.67599 q 0.996,0 1.62,0.3 0.62399,0.288 0.91199,0.828 0.3,0.54 0.3,1.272 0,1.116 -0.648,1.74 -0.63599,0.612 -1.82399,0.708 -0.24,0 -0.516,0 -0.276,0 -0.492,0 h -0.636 v 3.516 z m 4.58399,0 -2.124,-3.672 1.428,-0.168 2.30399,3.84 z m -3.192,-4.74 h 1.14 q 0.456,0 0.804,-0.108 0.36,-0.108 0.564,-0.372 0.216,-0.264 0.216,-0.732 0,-0.468 -0.216,-0.72 -0.204,-0.252 -0.564,-0.348 -0.36,-0.108 -0.804,-0.108 h -1.14 z m 9.73199,-3.624 -2.088,3.252 -0.168,-0.216 q 0.24,-0.12 0.48,-0.18 0.24,-0.06 0.48,-0.06 0.804,0 1.44,0.372 0.648,0.372 1.02,1.008 0.37199,0.636 0.37199,1.416 0,0.84 -0.41999,1.488 -0.408,0.648 -1.092,1.02 -0.672,0.372 -1.5,0.372 -0.816,0 -1.51199,-0.372 -0.684,-0.372 -1.092,-1.02 -0.408,-0.648 -0.408,-1.476 0,-0.408 0.12,-0.804 0.132,-0.396 0.336,-0.756 l 2.50799,-4.044 z m -1.476,3.972 q -0.444,0 -0.828,0.204 -0.37199,0.204 -0.59999,0.576 -0.228,0.36 -0.228,0.84 0,0.48 0.228,0.852 0.228,0.36 0.59999,0.564 0.372,0.204 0.828,0.204 0.468,0 0.84,-0.204 0.372,-0.204 0.588,-0.564 0.228,-0.372 0.228,-0.852 0,-0.48 -0.228,-0.84 -0.216,-0.372 -0.588,-0.576 -0.372,-0.204 -0.84,-0.204 z" />
      </g>
   </g>
</svg>