<?xml version="1.0" encoding="UTF-8" standalone="no"?>
<svg width="210" height="380" viewBox="0 0 210 380" version="1.1" id="svg1"
   inkscape:version="1.3.2 (091e20e, 2023-11-25, custom)" sodipodi:docname="CHEM-play.svg"
   xmlns:inkscape="http://www.inkscape.org/namespaces/inkscape"
   xmlns:sodipodi="http://sodipodi.sourceforge.net/DTD/sodipodi-0.dtd" xmlns="http://www.w3.org/2000/svg"
   xmlns:svg="http://www.w3.org/2000/svg">
   <defs id="defs2" />
   <sodipodi:namedview id="namedview1" pagecolor="#ffffff" bordercolor="#111111" borderopacity="1"
      inkscape:showpageshadow="0" inkscape:pageopacity="0" inkscape:pagecheckerboard="1" inkscape:deskcolor="#d1d1d1"
      inkscape:document-units="px" showguides="true" inkscape:zoom="4.7236842" inkscape:cx="109.97772"
      inkscape:cy="124.37326" inkscape:window-width="1879" inkscape:window-height="2104" inkscape:window-x="112"
      inkscape:window-y="9" inkscape:window-maximized="0" inkscape:current-layer="layer1">
      <sodipodi:guide position="0.43544812,372.46838" orientation="0,-1" id="guide1" inkscape:locked="false" />
      <sodipodi:guide position="7.5,380" orientation="1,0" id="guide2" inkscape:locked="false" />
      <sodipodi:guide position="15,378.63154" orientation="1,0" id="guide3" inkscape:locked="false" />
      <sodipodi:guide position="-3.3527796,364.96952" orientation="0,-1" id="guide4" inkscape:locked="false" />
      <sodipodi:guide position="-2.8947185,7.5" orientation="0,-1" id="guide7" inkscape:locked="false" />
      <sodipodi:guide position="-39.531861,17.295187" orientation="0,-1" id="guide8" inkscape:locked="false" />
      <sodipodi:guide position="162.84655,153.00586" orientation="1,0" id="guide5" inkscape:locked="false" />
      <sodipodi:guide position="187.5142,322.21747" orientation="1,0" id="guide6" inkscape:locked="false" />
   </sodipodi:namedview>
   <linearGradient id="panel-gradient" x1="0" y1="0" x2="0" y2="380" gradientUnits="userSpaceOnUse">
      <stop offset="0" stop-color="#1f1f1f" id="stop1" />
      <stop offset="1" stop-color="#080808" id="stop2" />
   </linearGradient>
   <g inkscape:label="Layer 1" inkscape:groupmode="layer" id="layer1">
      <rect fill="url(#panel-gradient)" id="g-panel" width="210" height="380" x="0" y="0" inkscape:label="panel"
         sodipodi:insensitive="true" />
      <g id="g5" transform="matrix(0.5,0,0,1,6.43,-20)" sodipodi:insensitive="true">
         <rect fill="#333333" id="grid-bg" width="300" height="340.70483" x="13" y="42" style="stroke-width:1.26187" />
         <path stroke="#1f1f1f" stroke-width="1px" d="M 12.847755,65.462158 312.84534,66.526134" id="gl1--grid-line" />
         <path stroke="#1f1f1f" stroke-width="1px" d="M 12.847755,88.462158 312.84534,89.526134" id="gl2--grid-line" />
         <path stroke="#1f1f1f" stroke-width="1px" d="m 12.847755,111.46216 299.997585,1.06397" id="gl3--grid-line" />
         <path stroke="#1f1f1f" stroke-width="1px" d="m 12.847755,134.46216 299.997585,1.06397" id="gl4--grid-line" />
         <path stroke="#1f1f1f" stroke-width="1px" d="m 12.847755,157.46216 299.997585,1.06397" id="gl5--grid-line" />
         <path stroke="#1f1f1f" stroke-width="1px" d="m 12.847755,180.46216 299.997585,1.06397" id="gl6--grid-line" />
         <path stroke="#1f1f1f" stroke-width="1px" d="m 12.847755,203.46216 299.997585,1.06397" id="gl7--grid-line" />
         <path stroke="#1f1f1f" stroke-width="1px" d="m 12.847755,226.46216 299.997585,1.06397" id="gl8--grid-line" />
         <path stroke="#1f1f1f" stroke-width="1px" d="m 12.847755,249.46216 299.997585,1.06397" id="gl9--grid-line" />
         <path stroke="#1f1f1f" stroke-width="1px" d="m 12.847755,272.46216 299.997585,1.06397" id="gl10--grid-line" />
         <path stroke="#1f1f1f" stroke-width="1px" d="m 12.847755,295.46216 299.997585,1.06397" id="gl11--grid-line" />
         <path stroke="#1f1f1f" stroke-width="1px" d="m 12.847755,318.46216 299.997585,1.06397" id="gl12--grid-line" />
         <path stroke="#1f1f1f" stroke-width="1px" d="m 12.847755,341.46216 299.997585,1.06397" id="gl13--grid-line" />
         <path stroke="#1f1f1f" stroke-width="1px" d="m 12.847755,364.46176 299.997585,1.06397" id="gl14--grid-line" />
      </g>
      <path fill="#a6a6a6"
         d="m 16.000001,37.643316 3.546657,-9.29331 h 0.933331 l 3.546658,9.29331 H 22.74665 l -2.719993,-7.613314 -2.733326,7.613314 z m 1.973328,-2.186661 0.359999,-1.053331 h 3.359992 l 0.386665,1.053331 z m 9.98663,2.293327 q -0.733332,0 -1.306663,-0.266666 -0.559999,-0.266666 -0.946665,-0.733331 -0.386665,-0.479999 -0.586665,-1.093331 -0.199999,-0.613331 -0.199999,-1.306663 0,-0.679998 0.199999,-1.29333 0.2,-0.613332 0.586665,-1.079997 0.386666,-0.479999 0.946665,-0.746665 0.573331,-0.266666 1.306663,-0.266666 0.933331,0 1.626662,0.453332 0.706665,0.453332 1.039998,1.386663 l -0.999998,0.386666 q -0.186666,-0.559999 -0.599998,-0.906664 -0.413332,-0.346666 -1.066664,-0.346666 -0.653332,0 -1.079997,0.346666 -0.426666,0.346665 -0.639999,0.893331 -0.199999,0.546665 -0.199999,1.17333 0,0.626665 0.199999,1.186664 0.213333,0.546665 0.639999,0.893331 0.426665,0.333332 1.079997,0.333332 0.653332,0 1.066664,-0.333332 0.413332,-0.346666 0.599998,-0.919998 l 0.999998,0.386666 q -0.333333,0.933331 -1.039998,1.399996 -0.693331,0.453332 -1.626662,0.453332 z m 4.173317,-0.106666 v -6.573317 h 1.133331 v 1.759996 l -0.293333,0.06667 q 0.09333,-0.586665 0.439999,-1.01333 0.359999,-0.439999 0.826665,-0.679999 0.479999,-0.239999 0.933331,-0.239999 0.306666,0 0.586665,0.06667 0.279999,0.06667 0.573332,0.226667 l -0.559999,1.01333 q -0.159999,-0.08 -0.386666,-0.133333 -0.213332,-0.05333 -0.413332,-0.05333 -0.319999,0 -0.639998,0.12 -0.306666,0.119999 -0.559999,0.373332 -0.253332,0.253333 -0.386665,0.679998 -0.05333,0.186667 -0.09333,0.493333 -0.02667,0.293332 -0.02667,0.813331 v 3.079992 z m 6.079979,2.70666 1.25333,-3.026659 -2.559993,-6.253318 h 1.239997 l 1.919995,5.119987 1.933328,-5.119987 h 1.226664 l -3.786657,9.279977 z m 7.613315,-2.599994 q -0.599999,0 -0.973331,-0.373332 -0.373332,-0.373332 -0.373332,-1.186664 v -7.83998 h 1.119997 v 7.626648 q 0,0.386665 0.159999,0.559998 0.16,0.173333 0.426666,0.173333 0.12,0 0.266666,-0.02667 0.146666,-0.02667 0.306666,-0.08 v 0.959997 q -0.226666,0.09333 -0.479999,0.133333 -0.253333,0.05333 -0.453332,0.05333 z m 2.199985,-0.106666 v -6.573317 h 1.119998 v 6.573317 z m -0.106666,-7.75998 v -1.53333 h 1.33333 v 1.53333 z m 5.866651,7.866646 q -0.733332,0 -1.306663,-0.266666 -0.559999,-0.266666 -0.946665,-0.733331 -0.386665,-0.479999 -0.586665,-1.093331 -0.199999,-0.613331 -0.199999,-1.306663 0,-0.679998 0.199999,-1.29333 0.2,-0.613332 0.586665,-1.079997 0.386666,-0.479999 0.946665,-0.746665 0.573331,-0.266666 1.306663,-0.266666 0.933331,0 1.626662,0.453332 0.706665,0.453332 1.039998,1.386663 l -0.999998,0.386666 q -0.186666,-0.559999 -0.599998,-0.906664 -0.413332,-0.346666 -1.066664,-0.346666 -0.653332,0 -1.079997,0.346666 -0.426666,0.346665 -0.639999,0.893331 -0.199999,0.546665 -0.199999,1.17333 0,0.626665 0.199999,1.186664 0.213333,0.546665 0.639999,0.893331 0.426665,0.333332 1.079997,0.333332 0.653332,0 1.066664,-0.333332 0.413332,-0.346666 0.599998,-0.919998 l 0.999998,0.386666 q -0.333333,0.933331 -1.039998,1.399996 -0.693331,0.453332 -1.626662,0.453332 z m 10.373302,0 q -0.733331,0 -1.306663,-0.266666 -0.559999,-0.266666 -0.946664,-0.733331 -0.386666,-0.479999 -0.586665,-1.093331 -0.2,-0.613331 -0.2,-1.306663 0,-0.679998 0.2,-1.29333 0.199999,-0.613332 0.586665,-1.079997 0.386665,-0.479999 0.946664,-0.746665 0.573332,-0.266666 1.306663,-0.266666 0.933331,0 1.626663,0.453332 0.706665,0.453332 1.039997,1.386663 l -0.999997,0.386666 q -0.186666,-0.559999 -0.599999,-0.906664 -0.413332,-0.346666 -1.066664,-0.346666 -0.653331,0 -1.079997,0.346666 -0.426665,0.346665 -0.639998,0.893331 -0.2,0.546665 -0.2,1.17333 0,0.626665 0.2,1.186664 0.213333,0.546665 0.639998,0.893331 0.426666,0.333332 1.079997,0.333332 0.653332,0 1.066664,-0.333332 0.413333,-0.346666 0.599999,-0.919998 l 0.999997,0.386666 q -0.333332,0.933331 -1.039997,1.399996 -0.693332,0.453332 -1.626663,0.453332 z m 5.493317,0 q -0.599998,0 -0.973331,-0.373332 -0.373332,-0.373332 -0.373332,-1.186664 v -7.83998 h 1.119997 v 7.626648 q 0,0.386665 0.16,0.559998 0.159999,0.173333 0.426665,0.173333 0.12,0 0.266666,-0.02667 0.146667,-0.02667 0.306666,-0.08 v 0.959997 q -0.226666,0.09333 -0.479998,0.133333 -0.253333,0.05333 -0.453333,0.05333 z m 5.106647,0 q -0.919997,0 -1.653329,-0.426665 -0.719998,-0.439999 -1.13333,-1.21333 -0.413333,-0.773332 -0.413333,-1.759996 0,-0.986664 0.399999,-1.746662 0.413333,-0.773332 1.133331,-1.199997 0.733331,-0.439999 1.666662,-0.439999 0.933331,0 1.639996,0.439999 0.719998,0.426665 1.133331,1.199997 0.413332,0.759998 0.413332,1.746662 0,0.986664 -0.413332,1.759996 -0.413333,0.759998 -1.133331,1.199997 -0.719998,0.439998 -1.639996,0.439998 z m 0,-0.999997 q 0.626665,0 1.079998,-0.293333 0.466665,-0.306666 0.719998,-0.839998 0.253332,-0.546665 0.253332,-1.266663 0,-0.733331 -0.253332,-1.266663 -0.253333,-0.546666 -0.719998,-0.839998 -0.453333,-0.293333 -1.079998,-0.293333 -0.639998,0 -1.106664,0.306666 -0.466665,0.293333 -0.719998,0.826665 -0.253332,0.533332 -0.253332,1.266663 0,0.719998 0.253332,1.266663 0.253333,0.533332 0.719998,0.839998 0.466666,0.293333 1.106664,0.293333 z m 7.533307,0.999997 q -0.733332,0 -1.306664,-0.266666 -0.559998,-0.266666 -0.946664,-0.733331 -0.386666,-0.479999 -0.586665,-1.093331 -0.2,-0.613331 -0.2,-1.306663 0,-0.679998 0.2,-1.29333 0.199999,-0.613332 0.586665,-1.079997 0.386666,-0.479999 0.946664,-0.746665 0.573332,-0.266666 1.306664,-0.266666 0.933331,0 1.626662,0.453332 0.706665,0.453332 1.039995,1.386663 l -0.999995,0.386666 q -0.186666,-0.559999 -0.599998,-0.906664 -0.413333,-0.346666 -1.066664,-0.346666 -0.653332,0 -1.079998,0.346666 -0.426665,0.346665 -0.639998,0.893331 -0.199999,0.546665 -0.199999,1.17333 0,0.626665 0.199999,1.186664 0.213333,0.546665 0.639998,0.893331 0.426666,0.333332 1.079998,0.333332 0.653331,0 1.066664,-0.333332 0.413332,-0.346666 0.599998,-0.919998 l 0.999995,0.386666 q -0.33333,0.933331 -1.039995,1.399996 -0.693331,0.453332 -1.626662,0.453332 z m 8.653307,-0.106666 -2.18666,-3.386658 -1.29333,1.386663 v -1.45333 l 3.02666,-3.119992 h 1.45333 l -2.36,2.426661 2.70666,4.146656 z m -4.47999,0 v -9.29331 h 1.13333 v 9.29331 z"
         id="ac--preset" aria-label="Acrylic clock" />
      <g id="g6" inkscape:label="preset-advance" transform="translate(-225.5,-8)">
         <path
            style="font-size:12px;line-height:1.25;font-family:'Hanken Grotesk';-inkscape-font-specification:'Hanken Grotesk';text-align:center;text-anchor:middle;fill:#d9d9d9"
            d="m 396.49399,127.53877 v -8.364 h 1.008 v 1.764 l -0.324,-0.228 q 0.156,-0.516 0.456,-0.876 0.312,-0.372 0.756,-0.564 0.444,-0.192 1.008,-0.192 0.804,0 1.404,0.408 0.612,0.396 0.948,1.092 0.336,0.684 0.336,1.56 0,0.924 -0.36,1.62 -0.36,0.684 -0.972,1.056 -0.612,0.372 -1.356,0.372 -0.564,0 -1.008,-0.204 -0.444,-0.204 -0.744,-0.564 -0.3,-0.36 -0.432,-0.816 l 0.288,-0.276 v 4.212 z m 2.736,-3.276 q 0.54,0 0.948,-0.264 0.42,-0.276 0.648,-0.756 0.24,-0.48 0.24,-1.104 0,-0.624 -0.24,-1.104 -0.228,-0.48 -0.648,-0.744 -0.408,-0.276 -0.948,-0.276 -0.54,0 -0.948,0.276 -0.408,0.264 -0.636,0.744 -0.228,0.48 -0.228,1.104 0,0.624 0.228,1.104 0.228,0.48 0.636,0.756 0.408,0.264 0.948,0.264 z m 4.308,0.828 v -5.916 h 1.02 v 1.584 l -0.264,0.06 q 0.084,-0.528 0.396,-0.912 0.324,-0.396 0.744,-0.612 0.432,-0.216 0.84,-0.216 0.276,0 0.528,0.06 0.252,0.06 0.516,0.204 l -0.504,0.912 q -0.144,-0.072 -0.348,-0.12 -0.192,-0.048 -0.372,-0.048 -0.288,0 -0.576,0.108 -0.276,0.108 -0.504,0.336 -0.228,0.228 -0.348,0.612 -0.048,0.168 -0.084,0.444 -0.024,0.264 -0.024,0.732 v 2.772 z m 7.044,0.096 q -0.696,0 -1.224,-0.228 -0.516,-0.24 -0.864,-0.66 -0.336,-0.42 -0.516,-0.96 -0.168,-0.552 -0.168,-1.164 0,-0.612 0.168,-1.164 0.168,-0.564 0.492,-0.996 0.336,-0.432 0.84,-0.684 0.504,-0.252 1.176,-0.252 0.684,0 1.176,0.24 0.504,0.228 0.816,0.636 0.324,0.408 0.48,0.912 0.156,0.504 0.156,1.044 0,0.048 -0.012,0.228 0,0.168 -0.024,0.3 h -4.26 q 0.036,0.864 0.504,1.344 0.468,0.48 1.272,0.48 0.516,0 0.9,-0.168 0.384,-0.168 0.72,-0.54 l 0.708,0.624 q -0.324,0.348 -0.684,0.576 -0.36,0.216 -0.768,0.324 -0.396,0.108 -0.888,0.108 z m 1.524,-3.264 q 0.024,-0.096 0.024,-0.192 0.012,-0.096 0.012,-0.192 0,-0.288 -0.108,-0.576 -0.096,-0.288 -0.3,-0.516 -0.192,-0.24 -0.504,-0.372 -0.3,-0.144 -0.72,-0.144 -0.516,0 -0.888,0.24 -0.372,0.24 -0.576,0.636 -0.204,0.396 -0.24,0.876 h 3.636 z m 4.41601,3.264 q -0.6,0 -1.08,-0.18 -0.48,-0.18 -0.828,-0.48 -0.336,-0.3 -0.54,-0.636 l 0.708,-0.6 q 0.228,0.456 0.672,0.756 0.456,0.288 1.08,0.288 0.564,0 0.9,-0.24 0.336,-0.24 0.336,-0.648 0,-0.336 -0.204,-0.528 -0.204,-0.192 -0.54,-0.312 -0.336,-0.12 -0.732,-0.216 -0.336,-0.084 -0.684,-0.204 -0.336,-0.12 -0.612,-0.3 -0.276,-0.18 -0.444,-0.468 -0.168,-0.288 -0.168,-0.708 0,-0.732 0.564,-1.176 0.576,-0.456 1.5,-0.456 0.672,0 1.224,0.288 0.564,0.276 0.876,0.84 l -0.648,0.48 q -0.24,-0.42 -0.636,-0.6 -0.384,-0.192 -0.852,-0.192 -0.468,0 -0.78,0.192 -0.312,0.192 -0.312,0.528 0,0.252 0.144,0.408 0.144,0.156 0.42,0.264 0.288,0.108 0.696,0.204 0.372,0.084 0.756,0.204 0.384,0.12 0.708,0.312 0.324,0.192 0.516,0.516 0.204,0.312 0.204,0.816 0,0.552 -0.276,0.972 -0.276,0.42 -0.78,0.648 -0.504,0.228 -1.188,0.228 z m 6.17999,0 q -0.696,0 -1.224,-0.228 -0.516,-0.24 -0.864,-0.66 -0.336,-0.42 -0.516,-0.96 -0.168,-0.552 -0.168,-1.164 0,-0.612 0.168,-1.164 0.168,-0.564 0.492,-0.996 0.336,-0.432 0.84,-0.684 0.504,-0.252 1.176,-0.252 0.684,0 1.176,0.24 0.504,0.228 0.816,0.636 0.324,0.408 0.48,0.912 0.156,0.504 0.156,1.044 0,0.048 -0.012,0.228 0,0.168 -0.024,0.3 h -4.26 q 0.036,0.864 0.504,1.344 0.468,0.48 1.272,0.48 0.516,0 0.9,-0.168 0.384,-0.168 0.72,-0.54 l 0.708,0.624 q -0.324,0.348 -0.684,0.576 -0.36,0.216 -0.768,0.324 -0.396,0.108 -0.888,0.108 z m 1.524,-3.264 q 0.024,-0.096 0.024,-0.192 0.012,-0.096 0.012,-0.192 0,-0.288 -0.108,-0.576 -0.096,-0.288 -0.3,-0.516 -0.192,-0.24 -0.504,-0.372 -0.3,-0.144 -0.72,-0.144 -0.516,0 -0.888,0.24 -0.372,0.24 -0.576,0.636 -0.204,0.396 -0.24,0.876 h 3.636 z m 4.36802,3.264 q -0.42,0 -0.768,-0.156 -0.336,-0.168 -0.528,-0.528 -0.192,-0.36 -0.192,-0.924 v -5.988 l 1.032,-0.576 v 6.3 q 0,0.492 0.156,0.768 0.156,0.264 0.564,0.264 0.12,0 0.288,-0.024 0.168,-0.036 0.36,-0.084 v 0.792 q -0.228,0.084 -0.468,0.12 -0.228,0.036 -0.444,0.036 z m -2.712,-5.22 v -0.792 h 3.624 v 0.792 z"
            id="preset--ctl-label" aria-label="preset" inkscape:label="preset" />
         <g id="g4" transform="translate(2)" inkscape:label="preset-ctls">
            <g id="g1" transform="translate(-3.6)" inkscape:label="preset-plus">
               <path
                  style="font-weight:600;font-size:18.6667px;line-height:1.25;font-family:'Hanken Grotesk';-inkscape-font-specification:'Hanken Grotesk Semi-Bold';text-align:center;text-anchor:middle;fill:#d9d9d9"
                  d="m 422.79333,109.67899 v -3.71468 h -3.696 v -1.624 h 3.696 v -3.69601 h 1.64267 v 3.69601 h 3.71468 v 1.624 H 424.436 v 3.71468 z"
                  id="pp--ctl-glyph" aria-label="-  +" sodipodi:nodetypes="ccccccccccccc" />
               <rect
                  style="fill:none;fill-opacity:1;stroke:#808080;stroke-width:0.925085;stroke-dasharray:none;stroke-opacity:1"
                  id="pp--ctl-frame" width="15.074915" height="15.074915" x="416.08655" y="97.624191" />
            </g>
            <g id="g3" transform="translate(-0.6)" inkscape:label="preset-minus">
               <rect
                  style="fill:none;fill-opacity:1;stroke:#808080;stroke-width:0.925085;stroke-dasharray:none;stroke-opacity:1"
                  id="pn--ctl-frame" width="15.074915" height="15.074915" x="395.08655" y="97.624191" />
               <path fill="#d9d9d9" d="m 398.09733,105.97365 v -1.624 h 9.05335 v 1.624 z" id="pn--ctl-glyph"
                  aria-label="-  +" sodipodi:nodetypes="ccccc" />
            </g>
         </g>
      </g>
      <g id="g32" inkscape:label="prev-next-cv" transform="translate(-225.5)">
         <g id="g78" transform="translate(-8.86,-2.65)">
            <g id="g59" transform="translate(126,219.5)" inkscape:label="port-next">
               <circle style="fill:none;stroke:#595959;stroke-width:2;stroke-dasharray:none;stroke-opacity:1"
                  id="circle58" cx="303.76105" cy="138.5" r="8" />
               <circle
                  style="fill:#2e2e2e;fill-opacity:1;stroke:#4095bf;stroke-width:1.75;stroke-dasharray:none;stroke-opacity:1"
                  id="circle59" cx="303.76105" cy="138.5" r="6" />
            </g>
            <path
               style="font-weight:600;font-size:18.6667px;line-height:1.25;font-family:'Hanken Grotesk';-inkscape-font-specification:'Hanken Grotesk Semi-Bold';text-align:center;text-anchor:middle;fill:#808080;fill-opacity:1"
               d="m 429.02871,347.77879 v -3.71468 h -3.696 v -1.624 h 3.696 v -3.69601 h 1.64267 v 3.69601 h 3.71468 v 1.624 h -3.71468 v 3.71468 z"
               id="cvNext--ctl-glyph" aria-label="-  +" sodipodi:nodetypes="ccccccccccccc" inkscape:label="Next" />
         </g>
         <g id="g77" transform="translate(-8.86,-2.65)">
            <g id="g509" transform="translate(106.09834,219.5)" inkscape:label="port-prev">
               <circle style="fill:none;stroke:#595959;stroke-width:2;stroke-dasharray:none;stroke-opacity:1"
                  id="circle508" cx="303.76105" cy="138.5" r="8" />
               <circle
                  style="fill:#2e2e2e;fill-opacity:1;stroke:#4095bf;stroke-width:1.75;stroke-dasharray:none;stroke-opacity:1"
                  id="circle509" cx="303.76105" cy="138.5" r="6" />
            </g>
            <path fill="#808080" d="m 405.33271,344.06411 v -1.624 h 9.05335 v 1.624 z" id="cvPrev--ctl-glyph"
               aria-label="-  +" sodipodi:nodetypes="ccccc" inkscape:label="cvPrev" />
         </g>
      </g>
      <g id="g86" opacity=0 transform="translate(-221.73939,2.13)" inkscape:label="scroll">
         <rect fill="none" stroke="#8c8c8c" stroke-width="1" id="scup--ctl-frame" width="15.157895" height="15.157894"
            x="401.66357" y="43.771046" />
         <rect fill="none" stroke="#8c8c8c" stroke-width="1" id="scdn--ctl-frame" width="15.157895" height="15.157894"
            x="401.66357" y="59.129951" />
         <path fill="#d9d9d9" id="pdn--ctl-glyph" sodipodi:type="star" inkscape:flatsided="true" sodipodi:sides="3"
            sodipodi:cx="404.46033" sodipodi:cy="46.820545" sodipodi:r1="5.4873266" sodipodi:r2="2.7436633"
            sodipodi:arg1="-0.54428048" sodipodi:arg2="0.50291707" inkscape:rounded="-3.1225023e-17"
            inkscape:randomized="0" d="m 409.15474,43.979193 -4.58093,8.327505 -4.92137,-8.130954 z"
            inkscape:transform-center-x="0.056739605" inkscape:transform-center-y="1.3224004"
            transform="translate(4.8492743,18.324961)" inkscape:label="pdn--ctl-glyph" />
         <path fill="#808080" id="pup--ctl-disabled" sodipodi:type="star" inkscape:flatsided="true" sodipodi:sides="3"
            sodipodi:cx="404.46033" sodipodi:cy="46.820545" sodipodi:r1="5.4873266" sodipodi:r2="2.7436633"
            sodipodi:arg1="-0.54428048" sodipodi:arg2="0.50291707" inkscape:rounded="-3.1225023e-17"
            inkscape:randomized="0" d="m 409.15474,43.979193 -4.58093,8.327505 -4.92137,-8.130954 z"
            inkscape:transform-center-x="0.056739605" inkscape:transform-center-y="-1.3224003"
            transform="matrix(1,0,0,-1,4.85,99.73)" />
      </g>
      <g id="up-down-scroll" transform="translate(179 45)">
            <rect id="frame--ctl-frame" stroke="#a4a4a4" width="15.5" height="28.5" x="0.5" y="0.5" />
            <path id="bar--ctl-frame" stroke="#a4a4a4" d="M 1.25 15 L 14.75 15 z"/>
      </g>

      <g id="g8" transform="translate(-17.723568)">
         <g aria-label="#d (pachde logo)" id="g2" transform="translate(195.44443,366.72992)"
            style="fill:#d4a011;fill-opacity:1" inkscape:label="#d">
            <path
               d="M 3.023,5.309 3.916,3.543 5.003,3.834 4.104,5.599 5.759,6.042 6.658,4.277 7.74,4.567 6.846,6.334 7.631,6.544 7.34,7.631 6.328,7.36 5.666,8.665 6.969,9.014 6.678,10.1 5.148,9.691 4.255,11.457 3.168,11.166 4.062,9.4 2.407,8.956 1.513,10.723 0.426,10.431 1.32,8.665 0.54,8.456 0.831,7.369 1.843,7.64 2.5,6.334 1.202,5.986 1.493,4.899 Z M 5.242,7.068 3.587,6.625 2.924,7.93 4.58,8.374 Z"
               id="hash--brand" fill="#d4a011" />
            <path
               d="m 13.387,10.647 -0.301,1.122 -2.354,-0.631 0.155,-0.579 Q 10.064,11.035 9.304,10.831 8.394,10.587 7.993,9.687 7.593,8.787 7.874,7.736 8.16,6.669 8.969,6.104 9.78,5.534 10.665,5.771 11.516,6 11.892,6.807 l 0.414,-1.545 -0.759,-0.204 0.3,-1.121 2.314,0.62 -1.574,5.876 z M 11.402,8.697 Q 11.589,7.998 11.367,7.62 11.15,7.244 10.767,7.141 10.31,7.019 9.962,7.308 9.621,7.595 9.466,8.173 9.32,8.721 9.465,9.165 q 0.147,0.438 0.615,0.564 0.387,0.104 0.76,-0.12 0.379,-0.227 0.562,-0.912 z"
               id="d--brand" fill="#d4a011" />
         </g>
         <path sodipodi:type="star"
            style="opacity:1;fill:none;fill-opacity:1;stroke:#d4a011;stroke-width:0.525475;stroke-dasharray:none;stroke-opacity:1"
            id="pdo--brand" inkscape:flatsided="true" sodipodi:sides="6" sodipodi:cx="191.13033" sodipodi:cy="357.53949"
            sodipodi:r1="7.0977392" sodipodi:r2="14.57469" sodipodi:arg1="-0.23602366" sodipodi:arg2="0.28757512"
            inkscape:rounded="-3.1225023e-17" inkscape:randomized="0"
            d="m 198.03128,355.87977 -2.01311,6.80626 -6.90096,1.65973 -4.88784,-5.14655 2.01311,-6.80626 6.90096,-1.65973 z"
            transform="matrix(1.4272798,0,0,1.4272798,-69.621751,-134.87472)" />
      </g>
      <rect fill="#9d9131" fill-opacity="0.2" id="preset-grip" width="7.5" height="23" x="12" y="23" />
      <path fill="#f9a54b" fill-opacity="0.4"
         d="m 201.19667,192.48898 v 8.64632 q 0,3.48551 -2.04122,5.623 -2.02201,2.13752 -5.33419,2.13752 -2.17602,0 -4.14018,-1.05913 -1.94499,-1.03986 -2.90779,-3.15813 -0.96286,-2.11824 -1.00136,-3.62029 l -0.0769,-3.15812 h -9.78248 v -5.41117 z m -4.54462,5.33414 h -6.47031 v 2.11827 q 0,1.36722 0.98211,2.33007 0.98211,0.98211 2.33007,0.98211 1.54055,0 2.38785,-1.09766 0.84731,-1.09764 0.84731,-3.1196 z m 4.96828,15.48252 v 4.92978 h -25.70791 v -4.92978 z m -25.70791,21.00924 h 2.83076 v -0.0769 q -1.6561,-1.15541 -2.40715,-2.33007 -0.73175,-1.17466 -0.73175,-2.90779 0,-2.90777 2.50338,-4.94901 2.50341,-2.04122 6.08517,-2.04122 3.54326,0 6.06592,2.17602 2.5419,2.17602 2.5419,5.16084 0,1.425 -0.63547,2.56116 -0.63547,1.13616 -2.02196,2.4071 h 2.29155 v 4.92976 h -16.52238 z m 11.9585,-3.62029 q 0,-1.46352 -1.17466,-2.44561 -1.15541,-0.98208 -2.92704,-0.98208 -1.65611,0 -2.67671,0.92433 -1.00136,0.94358 -1.00136,2.46488 0,1.46352 1.15541,2.50338 1.17466,1.03988 2.83076,1.03988 1.54055,0 2.65744,-1.03988 1.13616,-1.03986 1.13616,-2.4649 z m 4.56387,12.0933 v 5.25715 l -9.62843,4.75642 9.62843,4.23651 v 5.04531 l -23.82073,-10.30243 v -5.12231 l 8.47302,3.69732 z"
         id="title" aria-label="Play" />
      <path fill="#a6a6a6"
         d="m 30,107.83206 3.546659,-9.293317 h 0.933332 l 3.54666,9.293317 h -1.279998 l -2.719995,-7.61332 -2.733327,7.61332 z m 1.973329,-2.18666 0.359999,-1.05334 h 3.359995 l 0.386664,1.05334 z m 9.986635,2.29332 q -0.733332,0 -1.306664,-0.26666 -0.559999,-0.26666 -0.946665,-0.73333 -0.386665,-0.48 -0.586665,-1.09333 -0.199999,-0.61333 -0.199999,-1.30667 0,-0.68 0.199999,-1.29333 0.2,-0.61333 0.586665,-1.08 0.386666,-0.48 0.946665,-0.74666 0.573332,-0.26666 1.306664,-0.26666 0.933332,0 1.626663,0.45333 0.706666,0.45333 1.039999,1.38666 l -0.999999,0.38666 q -0.186666,-0.55999 -0.599998,-0.90666 -0.413333,-0.34666 -1.066665,-0.34666 -0.653332,0 -1.079997,0.34666 -0.426667,0.34667 -0.64,0.89333 -0.199999,0.54667 -0.199999,1.17333 0,0.62667 0.199999,1.18667 0.213333,0.54666 0.64,0.89333 0.426665,0.33333 1.079997,0.33333 0.653332,0 1.066665,-0.33333 0.413332,-0.34667 0.599998,-0.91999 l 0.999999,0.38666 q -0.333333,0.93333 -1.039999,1.39999 -0.693331,0.45333 -1.626663,0.45333 z m 4.17332,-0.10668 v -6.57331 h 1.133331 v 1.75999 l -0.293333,0.0667 q 0.09334,-0.58665 0.44,-1.01332 0.359998,-0.44001 0.826665,-0.68001 0.479999,-0.24 0.933331,-0.24 0.306666,0 0.586665,0.0667 0.279999,0.0667 0.573332,0.22667 l -0.559999,1.01334 q -0.159999,-0.08 -0.386666,-0.13333 -0.213332,-0.0534 -0.413333,-0.0534 -0.319998,0 -0.639998,0.12 -0.306665,0.12001 -0.559999,0.37334 -0.253332,0.25333 -0.386665,0.67999 -0.05333,0.18667 -0.09334,0.49333 -0.02668,0.29334 -0.02668,0.81334 v 3.07999 z m 6.079982,2.70667 1.25333,-3.02666 -2.559994,-6.25332 h 1.239997 l 1.919996,5.11998 1.933329,-5.11998 h 1.226664 l -3.786658,9.27998 z m 7.613319,-2.6 q -0.6,0 -0.973333,-0.37333 -0.373331,-0.37333 -0.373331,-1.18667 v -7.839979 h 1.119997 v 7.626659 q 0,0.38666 0.16,0.55999 0.159999,0.17334 0.426665,0.17334 0.120001,0 0.266667,-0.0266 0.146666,-0.0266 0.306665,-0.08 v 0.96 q -0.226665,0.0934 -0.479999,0.13333 -0.253332,0.0533 -0.453331,0.0533 z m 2.199985,-0.10668 v -6.57331 h 1.119997 v 6.57331 z m -0.106667,-7.75997 v -1.533341 h 1.333332 v 1.533341 z m 5.866655,7.86664 q -0.733331,0 -1.306661,-0.26666 -0.559999,-0.26667 -0.946668,-0.73333 -0.386661,-0.48 -0.586661,-1.09333 -0.2,-0.61334 -0.2,-1.30667 0,-0.68 0.2,-1.29333 0.2,-0.61333 0.586661,-1.08 0.386669,-0.48 0.946669,-0.74666 0.57333,-0.26667 1.306661,-0.26667 0.93333,0 1.626661,0.45334 0.706672,0.45332 1.039995,1.38666 l -0.999995,0.38666 q -0.186671,-0.55999 -0.6,-0.90666 -0.413331,-0.34667 -1.066661,-0.34667 -0.65333,0 -1.08,0.34667 -0.426661,0.34667 -0.640001,0.89333 -0.2,0.54667 -0.2,1.17333 0,0.62666 0.2,1.18667 0.21334,0.54665 0.640001,0.89332 0.42667,0.33334 1.08,0.33334 0.65333,0 1.066661,-0.33334 0.413329,-0.34667 0.6,-0.91999 l 0.999995,0.38667 q -0.333323,0.93333 -1.039995,1.4 -0.693331,0.45332 -1.626662,0.45332 z m 10.373304,0 q -0.73333,0 -1.306665,-0.26666 -0.559991,-0.26667 -0.946666,-0.73333 -0.386663,-0.48 -0.586655,-1.09333 -0.200003,-0.61334 -0.200003,-1.30667 0,-0.68 0.200003,-1.29333 0.199992,-0.61333 0.586655,-1.08 0.386675,-0.48 0.946666,-0.74666 0.573335,-0.26667 1.306665,-0.26667 0.933335,0 1.626657,0.45334 0.706679,0.45332 1.040002,1.38666 l -0.999994,0.38666 q -0.186659,-0.55999 -0.599999,-0.90666 -0.413339,-0.34667 -1.066666,-0.34667 -0.653326,0 -1.079997,0.34667 -0.42666,0.34667 -0.639995,0.89333 -0.200004,0.54667 -0.200004,1.17333 0,0.62666 0.200004,1.18667 0.213335,0.54665 0.639995,0.89332 0.426671,0.33334 1.079997,0.33334 0.653327,0 1.066666,-0.33334 0.41334,-0.34667 0.599999,-0.91999 l 0.999994,0.38667 q -0.333323,0.93333 -1.040002,1.4 -0.693322,0.45332 -1.626657,0.45332 z m 5.493331,0 q -0.599998,0 -0.973336,-0.37333 -0.373343,-0.37333 -0.373343,-1.18667 v -7.839981 h 1.120012 v 7.626661 q 0,0.38666 0.159996,0.55999 0.159995,0.17334 0.426671,0.17334 0.12,0 0.266663,-0.0266 0.146664,-0.0266 0.306672,-0.08 v 0.96 q -0.22668,0.0934 -0.480011,0.13333 -0.25332,0.0533 -0.453324,0.0533 z m 5.10665,0 q -0.920002,0 -1.653332,-0.42666 -0.719999,-0.44 -1.133326,-1.21333 -0.413339,-0.77334 -0.413339,-1.76 0,-0.98666 0.399995,-1.74666 0.413327,-0.77333 1.133338,-1.19999 0.73333,-0.44001 1.666664,-0.44001 0.933334,0 1.639989,0.44001 0.719999,0.42666 1.133338,1.19999 0.413327,0.76 0.413327,1.74666 0,0.98666 -0.413327,1.76 -0.413339,0.76 -1.133338,1.2 -0.719999,0.43999 -1.639989,0.43999 z m 0,-0.99999 q 0.626663,0 1.079998,-0.29334 0.466667,-0.30666 0.719999,-0.83999 0.253331,-0.54667 0.253331,-1.26667 0,-0.73333 -0.253331,-1.26666 -0.253332,-0.54667 -0.719999,-0.84001 -0.453335,-0.29333 -1.079998,-0.29333 -0.639994,0 -1.106674,0.30668 -0.466655,0.29332 -0.719998,0.82666 -0.253332,0.53333 -0.253332,1.26666 0,0.72 0.253332,1.26667 0.253343,0.53333 0.719998,0.83999 0.46668,0.29334 1.106674,0.29334 z m 7.533309,0.99999 q -0.73333,0 -1.306665,-0.26666 -0.560003,-0.26667 -0.946666,-0.73333 -0.386664,-0.48 -0.586667,-1.09333 -0.199992,-0.61334 -0.199992,-1.30667 0,-0.68 0.199992,-1.29333 0.200003,-0.61333 0.586667,-1.08 0.386663,-0.48 0.946666,-0.74666 0.573335,-0.26667 1.306665,-0.26667 0.933322,0 1.626657,0.45334 0.706667,0.45332 1.040002,1.38666 l -1.000006,0.38666 q -0.18666,-0.55999 -0.599987,-0.90666 -0.413339,-0.34667 -1.066666,-0.34667 -0.653338,0 -1.08001,0.34667 -0.426659,0.34667 -0.639982,0.89333 -0.200004,0.54667 -0.200004,1.17333 0,0.62666 0.200004,1.18667 0.213323,0.54665 0.639982,0.89332 0.426672,0.33334 1.08001,0.33334 0.653327,0 1.066666,-0.33334 0.413327,-0.34667 0.599987,-0.91999 l 1.000006,0.38667 q -0.333335,0.93333 -1.040002,1.4 -0.693335,0.45332 -1.626657,0.45332 z m 8.653308,-0.10668 -2.18665,-3.38666 -1.29334,1.38667 v -1.45333 l 3.02666,-3.11999 h 1.45333 l -2.36,2.42666 2.70667,4.14665 z m -4.47999,0 v -9.293313 h 1.13334 v 9.293313 z"
         id="ac--preset-4" aria-label="Acrylic clock" style="fill:#f9a54b;fill-opacity:1;stroke-width:1"
         inkscape:label="ac--curpreset" />
      <path fill="none" stroke="#d27979" stroke-width="0.999998"
         d="m 23.783352,100.0519 c 0.0376,-0.003 0.0802,-0.007 0.12804,-0.0102 0.14683,-0.007 0.29536,-0.002 0.44562,0.0153 0.15364,0.017 0.31072,0.0494 0.47121,0.0971 0.17414,0.0545 0.34659,0.12433 0.51731,0.20948 0.3961,0.19757 0.70683,0.44282 0.9322,0.73576 0.22536,0.29294 0.37731,0.61143 0.45584,0.95546 0.0649,0.2725 0.0871,0.56033 0.0666,0.86349 -0.0206,0.28613 -0.0768,0.57907 -0.16902,0.87882 -0.0614,0.19416 -0.13488,0.38491 -0.22024,0.57225 -0.10586,0.23163 -0.23048,0.45474 -0.37391,0.66934 -0.10584,0.16009 -0.22024,0.31508 -0.34317,0.46496 -0.10926,0.12943 -0.22536,0.25717 -0.34829,0.3832 v 0 c -0.0274,0.0239 -0.0529,0.0494 -0.0768,0.0766 -0.0239,0.0239 -0.0495,0.0494 -0.0768,0.0766 -0.0614,0.0613 -0.12633,0.12603 -0.19464,0.19416 -0.0683,0.0647 -0.13829,0.13284 -0.20999,0.20438 -0.0819,0.0817 -0.16732,0.1669 -0.2561,0.25547 -0.0888,0.0852 -0.17926,0.17201 -0.27146,0.26058 -0.12635,0.12603 -0.26122,0.25717 -0.40463,0.39342 -0.18097,0.17032 -0.36196,0.33722 -0.54292,0.50072 -0.14342,0.13285 -0.28343,0.25888 -0.42,0.3781 -0.20146,0.17713 -0.39097,0.33722 -0.56854,0.48029 -0.0888,0.0715 -0.17585,0.13966 -0.26121,0.20438 -0.0683,0.0511 -0.14343,0.0868 -0.22537,0.10729 -0.21171,0.0579 -0.40464,0.017 -0.57878,-0.12262 -0.28,-0.22482 -0.59756,-0.49562 -0.95267,-0.8124 -0.35171,-0.31338 -0.70513,-0.63527 -1.06024,-0.96568 -0.35171,-0.33041 -0.66927,-0.63187 -0.95268,-0.90437 -0.0581,-0.0613 -0.1161,-0.11922 -0.17415,-0.17372 -0.0546,-0.0545 -0.10756,-0.10559 -0.15878,-0.15328 -0.58049,-0.57907 -0.99536,-1.23648 -1.24463,-1.97224 -0.11609,-0.34403 -0.18609,-0.68125 -0.20999,-1.01166 -0.0171,-0.31338 0.008,-0.60972 0.0768,-0.88904 0.0546,-0.22481 0.13829,-0.4343 0.25098,-0.62846 0.12292,-0.21459 0.27829,-0.40705 0.46608,-0.57736 0.14001,-0.12603 0.29366,-0.23844 0.46098,-0.33722 0.065,-0.0375 0.12804,-0.0715 0.18952,-0.10219 0.003,-0.003 0.007,-0.005 0.0102,-0.005 0.17414,-0.0886 0.34999,-0.15839 0.52755,-0.20949 0.22878,-0.0681 0.45927,-0.10559 0.69146,-0.1124 0.25268,-0.0102 0.4917,0.0136 0.71707,0.0715 0.22878,0.0579 0.44049,0.13795 0.63512,0.24014 0.11268,0.0545 0.21853,0.11581 0.31756,0.18394 0.10244,0.0681 0.19805,0.13795 0.28682,0.20948 0.10586,0.0886 0.20147,0.17883 0.28683,0.2708 0.0888,0.092 0.16562,0.18054 0.23049,0.26569 0.0854,-0.1124 0.18098,-0.2214 0.28683,-0.327 0.0718,-0.0681 0.14342,-0.13284 0.21512,-0.19416 0.003,-0.003 0.009,-0.008 0.0153,-0.0153 0.11268,-0.092 0.23048,-0.17542 0.35341,-0.25036 0.17073,-0.109 0.34829,-0.19927 0.53268,-0.2708 0.23903,-0.092 0.48147,-0.14987 0.72732,-0.17372 z"
         id="inactive-favorite" aria-label="❤️"
         sodipodi:nodetypes="scccssccccccsscscscccccscccccccccccccccccccccccccccccss" style="fill:none" />
   </g>
</svg>