<?xml version="1.0" encoding="UTF-8" standalone="no"?>
<svg width="45" height="380" viewBox="0 0 45 380" version="1.1" 
   xmlns="http://www.w3.org/2000/svg" xmlns:svg="http://www.w3.org/2000/svg">
   <defs>
      <linearGradient id="gpanel" x1="0" y1="0" x2="0" y2="380" gradientUnits="userSpaceOnUse" >
         <stop offset="0" stop-color="#282828" id="stop1" />
         <stop offset="1" stop-color="#181818" id="stop2" />
      </linearGradient>
   </defs>
   <rect id="g-panel" fill="url(#gpanel)" x="0" y="0" width="45.5" height="380" />

   <path id="JACK--title" opacity="0" fill="#f9a54b" d="m 2.844727,12.224121 h 0.764648 v 4.104492 q 0,1.674317 -1.393067,1.674317 -0.483398,0 -0.953613,-0.250488 l 0.37793,-0.624024 q 0.36914,0.127442 0.602051,0.127442 0.602051,0 0.602051,-0.808594 z M 15.089844,12 17.735352,17.813965 H 16.935547 L 16.280762,16.381348 H 13.90332 l -0.637207,1.432617 h -0.79541 z m 0,1.753418 -0.900879,1.990723 h 1.801758 z m 15.514648,-1.349121 v 0.865723 q -0.905273,-0.443848 -1.665527,-0.443848 -0.975586,0 -1.643555,0.632813 -0.667969,0.628417 -0.667969,1.546875 0,0.936035 0.681153,1.564453 0.685547,0.624023 1.713867,0.624023 0.74707,0 1.582031,-0.470215 v 0.874512 q -0.760254,0.404297 -1.647949,0.404297 -1.300781,0 -2.223633,-0.878906 -0.922851,-0.883301 -0.922851,-2.126954 0,-1.221679 0.905273,-2.091796 0.909668,-0.870118 2.188477,-0.870118 0.821777,0 1.700683,0.369141 z m 8.909668,-0.188965 h 0.764649 v 2.276367 l 2.368652,-2.276367 h 1.072266 l -2.702637,2.601563 2.720215,2.99707 h -0.975586 l -2.48291,-2.729004 v 2.729004 H 39.51416 Z" />

   <path id="a--div" fill="none" stroke="#737373" stroke-width="0.75" d="M 2,122 h 41" />
   <path id="b--div" fill="none" stroke="#737373" stroke-width="0.75" d="M 2,236 h 41" />
   <path id="c--div" fill="none" stroke="#737373" stroke-width="0.75" d="M 2,278 h 41" />

   <path id="1--ctl-label-hi" fill="#bfbfbf" d="m 20.834962,20 h 2.830079 v 8.708984 h -1.907227 v -7.123047 h -1.257813 z" />
   <path id="2--ctl-label-hi" fill="#bfbfbf" d="m 23.091334,136 h 2.488281 v 1.62695 h -6.09082 l 2.973633,-3.78027 q 0.649414,-0.83399 0.922851,-1.36719 0.280274,-0.5332 0.280274,-0.99805 0,-0.50586 -0.334961,-0.83398 -0.328125,-0.32813 -0.827149,-0.32813 -0.574219,0 -0.833984,0.417 -0.259766,0.41015 -0.314453,1.29199 h -1.934571 q -0.0068,-1.58594 0.929688,-2.4541 0.936523,-0.86817 2.317383,-0.86817 1.285156,0 2.098632,0.75196 0.813477,0.74511 0.813477,1.91406 0,1.1416 -0.950195,2.5293 l -0.519532,0.75879 q -0.307617,0.458 -0.779296,1.04589 z" />

   <path id="th" stroke="#f9a54b" stroke-width="0.25" d="m 5,6.25 h 6.542076 M 43,6.25 H 33" />
   <path id="jack-glyph" fill="#f9a54b" d="m 16.224447,3.8126008 c -0.06241,-0.00144 -0.127119,0.00144 -0.193611,0.0092 -0.579928,0.066507 -0.952195,0.5982117 -1.25042,1.0679388 -0.298225,0.4697242 -0.583911,0.7411293 -0.908423,1.0595078 l 0.612283,0.5743353 c 0.284089,-0.3418739 0.531539,-0.5779619 0.812738,-1.0208877 0.281214,-0.4429273 0.485524,-0.7148529 0.790824,-0.7498709 0.398597,-0.045714 0.482245,0.034756 0.648577,0.2682127 0.166347,0.2334263 0.369521,0.6965962 0.746663,1.2392568 0.406951,0.5855286 1.012159,0.6272044 1.496417,0.6073386 0.156065,-0.00633 0.301676,-0.024733 0.430319,-0.045642 l -0.01754,0.6291019 c -0.06514,0.2527515 0.264044,0.543069 0.433885,0.5434501 l 5.010955,0.011216 c 0,0 0.312605,-0.042004 0.33278,-0.3187639 l 0.03293,-0.4507679 3.577277,-0.046346 V 5.5834427 L 25.20281,5.6297897 25.23574,5.212729 C 25.268522,4.7959713 24.936662,4.7029778 24.936662,4.7029778 l -5.022185,0.022476 c -0.253202,0.00113 -0.453974,0.3263795 -0.467592,0.6108588 l -0.02056,0.5413333 C 19.29604,5.9027387 19.133993,5.9266381 18.959018,5.9338137 18.551333,5.9505375 18.126349,5.8288978 17.97871,5.6164547 17.655421,5.1513162 17.487909,4.7357784 17.226396,4.3687756 16.997569,4.0476506 16.661582,3.8229327 16.224504,3.8126871 Z m 13.566227,1.7609385 -0.432893,0.00417 v 1.606468 l 0.432893,-0.00417 c 0.148415,-0.101968 0.15746,-0.1635255 0.207977,-0.3854694 0.0916,-0.00791 0.152442,-0.00216 0.252152,-0.011935 v 0.1004006 c 0,0.1641899 0.102097,0.2962982 0.229029,0.2962982 h 0.127406 c 0.05033,0 0.09678,-0.020808 0.134596,-0.056168 0.09232,-0.056959 0.292157,-0.5174238 0.386172,-0.746365 -0.09678,-0.2355373 -0.306622,-0.735606 -0.394901,-0.7695297 -0.01438,-0.00532 -0.02732,-0.0059 -0.04113,-0.0092 -0.02617,-0.013373 -0.05479,-0.021067 -0.0847,-0.021067 h -0.127406 c -0.126975,2.9e-6 -0.229029,0.1321083 -0.229029,0.296301 v 0.00848 C 30.24364,5.906558 30.2356,5.931565 30.22726,5.954774 L 30.001826,5.950604 C 29.985292,5.6541488 29.883051,5.6158953 29.790761,5.57343 Z" />

   <g id="knob-tracks" opacity="0">
      <g id="t1" transform="translate(3,73)">
         <path id="t10--k-track" fill="none" stroke="#737373" stroke-width="0.65" d="m 4.2454519,16.687006 c -3.3592528,-2.16791 -4.8856573,-6.29201 -3.7472926,-10.12457 1.1383631,-3.83256 4.6685673,-6.45472 8.6665813,-6.43735 3.9980144,0.0174 7.5052964,2.67012 8.6103064,6.51243 1.105013,3.84231 -0.457177,7.95299 -3.835145,10.09162" />
         <circle id="t10--trackdot" fill="#737373" cx="4.2454519" cy="16.687004" r="0.65" />
         <circle id="t11--trackdot" fill="#737373" cx="13.871993" cy="16.687004" r="0.65" />
      </g>
      <g id="t2" transform="translate(23,73)">
         <path id="t10--k-track" fill="none" stroke="#737373" stroke-width="0.65" d="m 4.2454519,16.687006 c -3.3592528,-2.16791 -4.8856573,-6.29201 -3.7472926,-10.12457 1.1383631,-3.83256 4.6685673,-6.45472 8.6665813,-6.43735 3.9980144,0.0174 7.5052964,2.67012 8.6103064,6.51243 1.105013,3.84231 -0.457177,7.95299 -3.835145,10.09162" />
         <circle id="t10--trackdot" fill="#737373" cx="4.2454519" cy="16.687004" r="0.65" />
         <circle id="t11--trackdot" fill="#737373" cx="13.871993" cy="16.687004" r="0.65" />
      </g>
      <g id="t3" transform="translate(3,211)">
         <path id="t10--k-track" fill="none" stroke="#737373" stroke-width="0.65" d="m 4.2454519,16.687006 c -3.3592528,-2.16791 -4.8856573,-6.29201 -3.7472926,-10.12457 1.1383631,-3.83256 4.6685673,-6.45472 8.6665813,-6.43735 3.9980144,0.0174 7.5052964,2.67012 8.6103064,6.51243 1.105013,3.84231 -0.457177,7.95299 -3.835145,10.09162" />
         <circle id="t10--trackdot" fill="#737373" cx="4.2454519" cy="16.687004" r="0.65" />
         <circle id="t11--trackdot" fill="#737373" cx="13.871993" cy="16.687004" r="0.65" />
      </g>
      <g id="t4" transform="translate(23,211)">
         <path id="t10--k-track" fill="none" stroke="#737373" stroke-width="0.65" d="m 4.2454519,16.687006 c -3.3592528,-2.16791 -4.8856573,-6.29201 -3.7472926,-10.12457 1.1383631,-3.83256 4.6685673,-6.45472 8.6665813,-6.43735 3.9980144,0.0174 7.5052964,2.67012 8.6103064,6.51243 1.105013,3.84231 -0.457177,7.95299 -3.835145,10.09162" />
         <circle id="t10--trackdot" fill="#737373" cx="4.2454519" cy="16.687004" r="0.65" />
         <circle id="t11--trackdot" fill="#737373" cx="13.871993" cy="16.687004" r="0.65" />
      </g>
   </g>
</svg>