<?xml version="1.0" encoding="UTF-8"?>
<svg width="14.25" height="18" viewBox="0 0 14.25 18" version="1.1"
   xmlns="http://www.w3.org/2000/svg"
   xmlns:svg="http://www.w3.org/2000/svg">
  <g>
    <path id="B" fill="#d9d9d9" d="M 0,17.859375 V 0 h 7.886717 q 1.39453,0 2.44922,0.363281 1.06641,0.351562 1.79297,1.078125 0.60937,0.585937 0.94922,1.382812 0.33984,0.796875 0.33984,1.804688 0,1.417969 -0.77344,2.34375 -0.77343,0.925781 -2.21484,1.347656 v 0.07031 q 1.66406,0.386718 2.67188,1.488281 1.01953,1.089844 1.01953,2.824219 0,1.125 -0.375,2.015625 -0.375,0.890625 -1.08985,1.570312 -0.78515,0.761719 -1.88672,1.171875 -1.10156,0.398438 -2.5664,0.398438 z m 2.882817,-2.4375 h 5.09765 q 0.84375,0 1.45313,-0.210938 0.62109,-0.210937 1.03125,-0.621094 0.35156,-0.339843 0.55078,-0.820312 0.19922,-0.492188 0.19922,-1.089844 0,-0.984375 -0.4336,-1.640625 -0.43359,-0.667969 -1.19531,-0.996094 -0.75,-0.328125 -1.72266,-0.328125 h -4.98046 z m 0,-7.921875 h 4.59375 q 1.4414,0 2.25,-0.679688 0.82031,-0.679687 0.82031,-1.933594 0,-0.796875 -0.33985,-1.347656 -0.33984,-0.5625 -0.97265,-0.84375 -0.63281,-0.292969 -1.52344,-0.292969 h -4.82812 z" />
  </g>
</svg>
