<?xml version="1.0" encoding="UTF-8"?>
<svg width="210" height="380" viewBox="0 0 210 380" version="1.1"
   xmlns="http://www.w3.org/2000/svg"
   xmlns:svg="http://www.w3.org/2000/svg">
  <defs>
    <linearGradient id="panel-gradient" x1="0" y1="0" x2="0" y2="350" gradientUnits="userSpaceOnUse">
      <stop offset="0" stop-color="#282828" />
      <stop offset="1" stop-color="#181818" />
    </linearGradient>
  </defs>
  <g>
   <rect id="g-panel" fill="url(#panel-gradient)" x="0" y="0" width="210" height="380" />
   <path id="f--div" fill="none" stroke="#737373" stroke-width="0.75" d="M 2,278 h 206" />
   <path id="KINETIC--title" transform="translate(67,3.5)" fill="#f9a54b" d="M 0,0.22412109 H 0.76464844 V 2.5004883 L 3.1333008,0.22412109 H 4.2055664 L 1.5029297,2.8256836 4.2231445,5.8227539 H 3.2475586 L 0.76464844,3.09375 V 5.8227539 H 0 Z m 12.957031,0 h 0.75586 V 5.8227539 h -0.75586 z M 22.89502,0 27.034668,4.2583008 V 0.22412109 h 0.764648 V 6.0820312 L 23.659668,1.8457031 V 5.8227539 H 22.89502 Z M 36.880371,0.22412109 H 39.98291 V 0.98876953 H 37.63623 V 2.3862305 h 2.34668 v 0.7558593 h -2.34668 v 1.9248047 h 2.34668 v 0.7558594 h -3.102539 z m 11.660645,0 h 3.423339 V 0.98876953 H 50.628418 V 5.8227539 H 49.872559 V 0.98876953 h -1.331543 z m 12.275879,0 h 0.755859 V 5.8227539 h -0.755859 z m 14.5083,0.18896485 V 1.2788086 q -0.905273,-0.44384766 -1.665527,-0.44384766 -0.975586,0 -1.643555,0.63281246 -0.667968,0.628418 -0.667968,1.546875 0,0.9360352 0.681152,1.5644532 0.685547,0.6240234 1.713867,0.6240234 0.74707,0 1.582031,-0.4702148 v 0.8745117 q -0.760254,0.4042968 -1.647949,0.4042968 -1.300781,0 -2.223633,-0.8789062 -0.922851,-0.8833008 -0.922851,-2.1269531 0,-1.2216797 0.905273,-2.0917969 0.909668,-0.87011719 2.188477,-0.87011719 0.821777,0 1.700683,0.36914063 z" />
   <path id="th" stroke="#bf9740" stroke-width="0.5" d="M 5,6.5 h 52 M 205,6.5 h -52" />
   <path id="Trim" fill="#bf4094" d="m 161.48105,189.50671 v -7.416 h -2.808 v -0.948 h 6.672 v 0.948 h -2.796 v 7.416 z m 3.81601,0 v -5.916 h 1.02 v 1.584 l -0.264,0.06 q 0.084,-0.528 0.396,-0.912 0.324,-0.396 0.744,-0.612 0.432,-0.216 0.84,-0.216 0.276,0 0.528,0.06 0.252,0.06 0.516,0.204 l -0.504,0.912 q -0.144,-0.072 -0.348,-0.12 -0.192,-0.048 -0.372,-0.048 -0.288,0 -0.576,0.108 -0.276,0.108 -0.504,0.336 -0.228,0.228 -0.348,0.612 -0.048,0.168 -0.084,0.444 -0.024,0.264 -0.024,0.732 v 2.772 z m 4.872,0 v -5.916 h 1.008 v 5.916 z m -0.096,-6.984 v -1.38 h 1.2 v 1.38 z m 2.82,6.984 v -5.916 h 1.02 v 1.524 h -0.204 q 0.108,-0.42 0.288,-0.72 0.192,-0.312 0.444,-0.504 0.252,-0.204 0.54,-0.3 0.3,-0.096 0.624,-0.096 0.54,0 0.948,0.204 0.408,0.204 0.672,0.624 0.264,0.408 0.36,1.044 l -0.576,0.036 q 0.18,-0.612 0.456,-1.032 0.276,-0.432 0.684,-0.648 0.42,-0.228 0.996,-0.228 0.732,0 1.176,0.336 0.444,0.324 0.648,0.876 0.204,0.54 0.204,1.2 v 3.6 h -1.008 v -3.36 q 0,-0.552 -0.132,-0.948 -0.12,-0.396 -0.396,-0.612 -0.264,-0.216 -0.72,-0.216 -0.432,0 -0.744,0.216 -0.3,0.216 -0.468,0.66 -0.156,0.432 -0.156,1.08 v 3.18 h -1.02 v -3.444 q 0,-0.852 -0.312,-1.272 -0.312,-0.42 -0.912,-0.42 -0.432,0 -0.744,0.228 -0.312,0.216 -0.48,0.648 -0.168,0.432 -0.168,1.08 v 3.18 z" />
   <path id="Trim-header" fill="none" stroke="#bf40bf" stroke-width="2.5" d="m 199.92197,185.22822 -15.47246,0.0745 m -29.28233,0.14105 -15.24304,0.0734" />
   <path id="Bow" fill="#40bf40" d="m 159.30306,22.553848 v -8.364 h 2.676 q 1.188,0 1.86,0.552 0.684,0.552 0.684,1.536 0,0.624 -0.276,1.092 -0.276,0.468 -0.78,0.708 0.732,0.204 1.104,0.744 0.384,0.54 0.384,1.368 0,1.128 -0.708,1.752 -0.696,0.612 -1.98,0.612 z m 1.056,-0.972 h 1.836 q 1.716,0 1.716,-1.44 0,-0.684 -0.396,-1.056 -0.384,-0.384 -1.092,-0.384 h -2.064 z m 0,-3.828 h 1.788 q 0.6,0 0.96,-0.348 0.372,-0.36 0.372,-0.972 0,-0.6 -0.396,-0.936 -0.396,-0.336 -1.104,-0.336 h -1.62 z m 8.676,4.896 q -0.828,0 -1.488,-0.384 -0.648,-0.396 -1.02,-1.092 -0.372,-0.696 -0.372,-1.584 0,-0.888 0.36,-1.572 0.372,-0.696 1.02,-1.08 0.66,-0.396 1.5,-0.396 0.84,0 1.476,0.396 0.648,0.384 1.02,1.08 0.372,0.684 0.372,1.572 0,0.888 -0.372,1.584 -0.372,0.684 -1.02,1.08 -0.648,0.396 -1.476,0.396 z m 0,-0.9 q 0.564,0 0.972,-0.264 0.42,-0.276 0.648,-0.756 0.228,-0.492 0.228,-1.14 0,-0.66 -0.228,-1.14 -0.228,-0.492 -0.648,-0.756 -0.408,-0.264 -0.972,-0.264 -0.576,0 -0.996,0.276 -0.42,0.264 -0.648,0.744 -0.228,0.48 -0.228,1.14 0,0.648 0.228,1.14 0.228,0.48 0.648,0.756 0.42,0.264 0.996,0.264 z m 5.484,0.804 -1.752,-5.916 h 1.08 l 1.2,4.38 1.416,-4.38 h 0.9 l 1.416,4.356 1.212,-4.356 h 1.08 l -1.764,5.916 h -0.936 l -1.452,-4.5 -1.452,4.5 z" />
   <path id="Bow-header" fill="none" stroke="#40bf40" stroke-width="2.5" d="m 199.92197,18.275348 -13.97626,0.06732 m -31.30274,0.150781 -14.71883,0.0709" />
   <path id="Medium" fill="#4094bf" d="m 41,190 v -8.364 h 1.56 l 2.628,6.612 h -0.192 l 2.628,-6.612 h 1.548 v 8.364 h -1.056 v -7.14 l 0.084,0.012 -2.592,6.42 h -1.032 l -2.604,-6.42 0.084,-0.012 v 7.14 z m 12.480009,0.096 q -0.696,0 -1.224,-0.228 -0.516,-0.24 -0.864,-0.66 -0.336,-0.42 -0.516,-0.96 -0.168,-0.552 -0.168,-1.164 0,-0.612 0.168,-1.164 0.168,-0.564 0.492,-0.996 0.336,-0.432 0.84,-0.684 0.504,-0.252 1.176,-0.252 0.684,0 1.176,0.24 0.504,0.228 0.816,0.636 0.324,0.408 0.48,0.912 0.156,0.504 0.156,1.044 0,0.048 -0.012,0.228 0,0.168 -0.024,0.3 h -4.26 q 0.036,0.864 0.504,1.344 0.468,0.48 1.272,0.48 0.516,0 0.9,-0.168 0.384,-0.168 0.72,-0.54 l 0.708,0.624 q -0.324,0.348 -0.684,0.576 -0.36,0.216 -0.768,0.324 -0.396,0.108 -0.888,0.108 z m 1.524,-3.264 q 0.024,-0.096 0.024,-0.192 0.012,-0.096 0.012,-0.192 0,-0.288 -0.108,-0.576 -0.096,-0.288 -0.3,-0.516 -0.192,-0.24 -0.504,-0.372 -0.3,-0.144 -0.72,-0.144 -0.516,0 -0.888,0.24 -0.372,0.24 -0.576,0.636 -0.204,0.396 -0.24,0.876 h 3.636 z m 4.872011,3.264 q -0.804,0 -1.416,-0.396 -0.6,-0.408 -0.936,-1.104 -0.336,-0.696 -0.336,-1.56 0,-0.936 0.36,-1.62 0.36,-0.684 0.972,-1.056 0.612,-0.372 1.356,-0.372 0.564,0 1.008,0.228 0.444,0.216 0.744,0.6 0.312,0.372 0.432,0.84 l -0.288,0.192 v -4.212 h 1.008 v 8.364 h -1.008 v -1.764 l 0.336,0.108 q -0.156,0.516 -0.468,0.912 -0.312,0.396 -0.756,0.624 -0.444,0.216 -1.008,0.216 z m 0.168,-0.936 q 0.54,0 0.948,-0.264 0.408,-0.276 0.636,-0.756 0.228,-0.48 0.228,-1.104 0,-0.624 -0.228,-1.104 -0.228,-0.48 -0.636,-0.744 -0.408,-0.276 -0.948,-0.276 -0.54,0 -0.96,0.276 -0.408,0.264 -0.648,0.744 -0.228,0.48 -0.228,1.104 0,0.624 0.228,1.104 0.24,0.48 0.648,0.756 0.42,0.264 0.96,0.264 z m 4.451998,0.84 v -5.916 h 1.008 v 5.916 z m -0.096,-6.984 v -1.38 h 1.2 v 1.38 z m 4.811998,7.08 q -0.636,0 -1.104,-0.252 -0.468,-0.264 -0.72,-0.768 -0.24,-0.504 -0.24,-1.248 v -3.744 h 1.008 v 3.384 q 0,0.588 0.144,0.984 0.156,0.384 0.456,0.576 0.3,0.18 0.744,0.18 0.492,0 0.828,-0.228 0.348,-0.24 0.528,-0.72 0.18,-0.48 0.18,-1.236 v -2.94 h 1.008 v 5.916 h -1.008 v -1.26 h 0.252 q -0.252,0.66 -0.804,1.008 -0.552,0.348 -1.272,0.348 z m 4.572011,-0.096 v -5.916 h 1.02 v 1.524 h -0.204 q 0.108,-0.42 0.288,-0.72 0.192,-0.312 0.444,-0.504 0.252,-0.204 0.54,-0.3 0.3,-0.096 0.624,-0.096 0.54,0 0.948,0.204 0.408,0.204 0.672,0.624 0.264,0.408 0.36,1.044 l -0.576,0.036 q 0.18,-0.612 0.456,-1.032 0.276,-0.432 0.684,-0.648 0.42,-0.228 0.996,-0.228 0.732,0 1.176,0.336 0.444,0.324 0.648,0.876 0.204,0.54 0.204,1.2 v 3.6 h -1.008 v -3.36 q 0,-0.552 -0.132,-0.948 -0.12,-0.396 -0.396,-0.612 -0.264,-0.216 -0.72,-0.216 -0.432,0 -0.744,0.216 -0.3,0.216 -0.468,0.66 -0.156,0.432 -0.156,1.08 v 3.18 h -1.02 v -3.444 q 0,-0.852 -0.312,-1.272 -0.312,-0.42 -0.912,-0.42 -0.432,0 -0.744,0.228 -0.312,0.216 -0.48,0.648 -0.168,0.432 -0.168,1.08 v 3.18 z" />
   <path id="Medium-header" fill="none" stroke="#4095bf" stroke-width="2.5" d="m 118,185 h -30 m -52,0.67479 h -30" />
   <path id="Model" fill="#bfab40" d="m 22,22 v -8.364 h 1.56 l 2.628,6.612 h -0.192 l 2.628,-6.612 h 1.548 v 8.364 h -1.056 v -7.14 l 0.084,0.012 -2.592,6.42 h -1.032 l -2.604,-6.42 0.084,-0.012 v 7.14 z m 12.588008,0.096 q -0.828,0 -1.488,-0.384 -0.648,-0.396 -1.02,-1.092 -0.372,-0.696 -0.372,-1.584 0,-0.888 0.36,-1.572 0.372,-0.696 1.02,-1.08 0.66,-0.396 1.5,-0.396 0.84,0 1.476,0.396 0.648,0.384 1.02,1.08 0.372,0.684 0.372,1.572 0,0.888 -0.372,1.584 -0.372,0.684 -1.02,1.08 -0.648,0.396 -1.476,0.396 z m 0,-0.9 q 0.564,0 0.972,-0.264 0.42,-0.276 0.648,-0.756 0.228,-0.492 0.228,-1.14 0,-0.66 -0.228,-1.14 -0.228,-0.492 -0.648,-0.756 -0.408,-0.264 -0.972,-0.264 -0.576,0 -0.996,0.276 -0.42,0.264 -0.648,0.744 -0.228,0.48 -0.228,1.14 0,0.648 0.228,1.14 0.228,0.48 0.648,0.756 0.42,0.264 0.996,0.264 z m 6.731996,0.9 q -0.804,0 -1.416,-0.396 -0.6,-0.408 -0.936,-1.104 -0.336,-0.696 -0.336,-1.56 0,-0.936 0.36,-1.62 0.36,-0.684 0.972,-1.056 0.612,-0.372 1.356,-0.372 0.564,0 1.008,0.228 0.444,0.216 0.744,0.6 0.312,0.372 0.432,0.84 l -0.288,0.192 v -4.212 h 1.008 v 8.364 h -1.008 v -1.764 l 0.336,0.108 q -0.156,0.516 -0.468,0.912 -0.312,0.396 -0.756,0.624 -0.444,0.216 -1.008,0.216 z m 0.168,-0.936 q 0.54,0 0.948,-0.264 0.408,-0.276 0.636,-0.756 0.228,-0.48 0.228,-1.104 0,-0.624 -0.228,-1.104 -0.228,-0.48 -0.636,-0.744 -0.408,-0.276 -0.948,-0.276 -0.54,0 -0.96,0.276 -0.408,0.264 -0.648,0.744 -0.228,0.48 -0.228,1.104 0,0.624 0.228,1.104 0.24,0.48 0.648,0.756 0.42,0.264 0.96,0.264 z m 6.959999,0.936 q -0.696,0 -1.224,-0.228 -0.516,-0.24 -0.864,-0.66 -0.336,-0.42 -0.516,-0.96 -0.168,-0.552 -0.168,-1.164 0,-0.612 0.168,-1.164 0.168,-0.564 0.492,-0.996 0.336,-0.432 0.84,-0.684 0.504,-0.252 1.176,-0.252 0.684,0 1.176,0.24 0.504,0.228 0.816,0.636 0.324,0.408 0.48,0.912 0.156,0.504 0.156,1.044 0,0.048 -0.012,0.228 0,0.168 -0.024,0.3 h -4.26 q 0.036,0.864 0.504,1.344 0.468,0.48 1.272,0.48 0.516,0 0.9,-0.168 0.384,-0.168 0.72,-0.54 l 0.708,0.624 q -0.324,0.348 -0.684,0.576 -0.36,0.216 -0.768,0.324 -0.396,0.108 -0.888,0.108 z m 1.524,-3.264 q 0.024,-0.096 0.024,-0.192 0.012,-0.096 0.012,-0.192 0,-0.288 -0.108,-0.576 -0.096,-0.288 -0.3,-0.516 -0.192,-0.24 -0.504,-0.372 -0.3,-0.144 -0.72,-0.144 -0.516,0 -0.888,0.24 -0.372,0.24 -0.576,0.636 -0.204,0.396 -0.24,0.876 h 3.636 z m 3.648011,3.264 q -0.54,0 -0.876,-0.336 -0.336,-0.336 -0.336,-1.068 v -7.056 h 1.008 v 6.864 q 0,0.348 0.144,0.504 0.144,0.156 0.384,0.156 0.108,0 0.24,-0.024 0.132,-0.024 0.276,-0.072 v 0.864 q -0.204,0.084 -0.432,0.12 -0.228,0.048 -0.408,0.048 z" />
   <path id="Model-header" fill="none" stroke="#bfaa40" stroke-width="2.5" d="M 6,18 h 11 M 70,18 h -11" />

   <path id="♪--k#" fill="#3d748f" d="m 150.95589,234.6813 q 0,-0.32812 0.13476,-0.60937 0.13477,-0.28711 0.36328,-0.49219 0.23438,-0.21094 0.53907,-0.32812 0.30468,-0.12305 0.64453,-0.12305 0.26367,0 0.47461,0.0644 v -5.92382 h 0.60351 v 0.1582 q 0,0.14062 0.0469,0.25195 0.0469,0.11133 0.16406,0.23438 0.11719,0.11718 0.31055,0.26367 0.19336,0.14648 0.48632,0.3457 0.28125,0.19336 0.46875,0.38672 0.1875,0.1875 0.29883,0.39258 0.11133,0.19922 0.15235,0.42187 0.0469,0.2168 0.0469,0.48047 0,0.33399 -0.0937,0.63281 -0.0879,0.29883 -0.24609,0.58008 l -0.45703,-0.15234 q 0.0586,-0.2168 0.082,-0.39258 0.0293,-0.18164 0.0293,-0.36914 0,-0.2168 -0.0351,-0.38672 -0.0352,-0.17578 -0.12305,-0.32812 -0.082,-0.15821 -0.23437,-0.29883 -0.14649,-0.14649 -0.375,-0.31055 -0.18164,-0.1289 -0.31055,-0.20508 -0.12305,-0.082 -0.21094,-0.17578 v 5.17969 q 0,0.36914 -0.11719,0.70312 -0.11132,0.33399 -0.3164,0.58594 -0.20508,0.25196 -0.49219,0.4043 -0.28711,0.14648 -0.63281,0.14648 -0.58008,0 -0.89063,-0.30468 -0.31054,-0.30469 -0.31054,-0.83204 z" />
   <path id="¢--k#" fill="#3d748f" d="m 185,236.48613 v -1.356 h 0.72 v 1.356 z m 0,-7.272 v -1.296 h 0.72 v 1.296 z m 0.396,6.012 q -0.66,0 -1.176,-0.24 -0.504,-0.24 -0.852,-0.66 -0.348,-0.432 -0.528,-0.984 -0.18,-0.552 -0.18,-1.176 0,-0.612 0.18,-1.164 0.18,-0.552 0.528,-0.972 0.348,-0.432 0.852,-0.672 0.516,-0.24 1.176,-0.24 0.84,0 1.464,0.408 0.636,0.408 0.936,1.248 l -0.9,0.348 q -0.168,-0.504 -0.54,-0.816 -0.372,-0.312 -0.96,-0.312 -0.588,0 -0.972,0.312 -0.384,0.312 -0.576,0.804 -0.18,0.492 -0.18,1.056 0,0.564 0.18,1.068 0.192,0.492 0.576,0.804 0.384,0.3 0.972,0.3 0.588,0 0.96,-0.3 0.372,-0.312 0.54,-0.828 l 0.9,0.348 q -0.3,0.84 -0.936,1.26 -0.624,0.408 -1.464,0.408 z" />

   <path id="¢--in-label" fill="#8c8c8c" d="m 194.06091,354.48613 v -1.356 h 0.72 v 1.356 z m 0,-7.272 v -1.296 h 0.72 v 1.296 z m 0.396,6.012 q -0.66,0 -1.176,-0.24 -0.504,-0.24 -0.852,-0.66 -0.348,-0.432 -0.528,-0.984 -0.18,-0.552 -0.18,-1.176 0,-0.612 0.18,-1.164 0.18,-0.552 0.528,-0.972 0.348,-0.432 0.852,-0.672 0.516,-0.24 1.176,-0.24 0.84,0 1.464,0.408 0.636,0.408 0.936,1.248 l -0.9,0.348 q -0.168,-0.504 -0.54,-0.816 -0.372,-0.312 -0.96,-0.312 -0.588,0 -0.972,0.312 -0.384,0.312 -0.576,0.804 -0.18,0.492 -0.18,1.056 0,0.564 0.18,1.068 0.192,0.492 0.576,0.804 0.384,0.3 0.972,0.3 0.588,0 0.96,-0.3 0.372,-0.312 0.54,-0.828 l 0.9,0.348 q -0.3,0.84 -0.936,1.26 -0.624,0.408 -1.464,0.408 z" />
   <path id="♪--in-label" fill="#8c8c8c" d="m 139.91718,353.33984 q 0,-0.32812 0.13476,-0.60937 0.13477,-0.28711 0.36328,-0.49219 0.23438,-0.21094 0.53906,-0.32812 0.30469,-0.12305 0.64454,-0.12305 0.26367,0 0.47461,0.0645 v -5.92383 h 0.60351 v 0.15821 q 0,0.14062 0.0469,0.25195 0.0469,0.11133 0.16406,0.23438 0.11719,0.11718 0.31055,0.26367 0.19335,0.14648 0.48632,0.3457 0.28125,0.19336 0.46875,0.38672 0.1875,0.1875 0.29883,0.39258 0.11133,0.19922 0.15235,0.42187 0.0469,0.2168 0.0469,0.48047 0,0.33399 -0.0937,0.63281 -0.0879,0.29883 -0.24609,0.58008 l -0.45703,-0.15234 q 0.0586,-0.2168 0.082,-0.39258 0.0293,-0.18164 0.0293,-0.36914 0,-0.2168 -0.0352,-0.38672 -0.0352,-0.17578 -0.12305,-0.32812 -0.082,-0.15821 -0.23437,-0.29883 -0.14649,-0.14649 -0.375,-0.31055 -0.18165,-0.12891 -0.31055,-0.20508 -0.12305,-0.082 -0.21094,-0.17578 v 5.17969 q 0,0.36914 -0.11719,0.70312 -0.11132,0.33399 -0.3164,0.58594 -0.20508,0.25195 -0.49219,0.4043 -0.28711,0.14648 -0.63281,0.14648 -0.58008,0 -0.89063,-0.30469 -0.31054,-0.30468 -0.31054,-0.83203 z" />

<g id="knobs" opacity=".35">
    <g
       id="Anchor"
       transform="matrix(0.75,0,0,0.75,-382.23713,-67.630641)"
       style="stroke-width:1.33333">
    </g>
    <text
       id="text2"
       style="font-weight:600;font-size:10px;line-height:1.25;font-family:'Hanken Grotesk';-inkscape-font-specification:'Hanken Grotesk Semi-Bold';text-align:center;text-anchor:middle;fill:#8c8c8c;fill-opacity:1"
       x="26.080229"
       y="61.506859"><tspan
         id="tspan173-90"
         x="26.080229"
         y="61.506859"
         style="font-style:normal;font-variant:normal;font-weight:normal;font-stretch:normal;font-size:10px;font-family:'Hanken Grotesk';-inkscape-font-specification:'Hanken Grotesk';fill:#8c8c8c;fill-opacity:1">Anchor</tspan></text>
    <text
       id="Slip"
       style="quot;font-weight:600;font-size:10px;line-height:1.25;font-family:'Hanken Grotesk';-inkscape-font-specification:'Hanken Grotesk Semi-Bold';text-align:center;text-anchor:middle;fill:#8c8c8c;fill-opacity:1"
       x="153.38908"
       y="125.46993">
       <tspan
   id="tspan10"
   x="153.38908"
   y="125.46993"
   style="font-style:normal;font-variant:normal;font-weight:normal;font-stretch:normal;font-size:10px;font-family:'Hanken Grotesk';-inkscape-font-specification:'Hanken Grotesk';fill:#8c8c8c;fill-opacity:1">Slip</tspan></text>
    <text
       id="Friction"
       style="font-weight:600;font-size:10px;line-height:1.25;font-family:'Hanken Grotesk';-inkscape-font-specification:'Hanken Grotesk Semi-Bold';text-align:center;text-anchor:middle;fill:#d9d9d9;fill-opacity:"
       x="169.23622"
       y="88.839546">
       <tspan
   id="tspan13"
   x="169.23622"
   y="88.839546"
   style="font-style:normal;font-variant:normal;font-weight:normal;font-stretch:normal;font-size:10px;font-family:'Hanken Grotesk';-inkscape-font-specification:'Hanken Grotesk'">Friction</tspan></text>
    <text
       id="Spring"
       style="font-weight:600;font-size:10px;line-height:1.25;font-family:'Hanken Grotesk';-inkscape-font-specification:'Hanken Grotesk Semi-Bold';text-align:center;text-anchor:middle;fill:#8c8c8c;fill-opacity:1"
       x="25.91823"
       y="97.650826"><tspan
         sodipodi:role="line"
         id="tspan3"
         x="25.91823"
         y="97.650826"
         style="font-style:normal;font-variant:normal;font-weight:normal;font-stretch:normal;font-size:10px;font-family:'Hanken Grotesk';-inkscape-font-specification:'Hanken Grotesk';fill:#8c8c8c;fill-opacity:1">Spring</tspan></text>
    <text
       id="Gravity"
       style="font-weight:600;font-size:10px;line-height:1.25;font-family:'Hanken Grotesk';-inkscape-font-specification:'Hanken Grotesk Semi-Bold';text-align:center;text-anchor:middle;fill:#8c8c8c;fill-opacity:1"
       x="25.906229"
       y="173.65077"><tspan
         sodipodi:role="line"
         id="tspan6"
         x="25.906229"
         y="173.65077"
         style="font-style:normal;font-variant:normal;font-weight:normal;font-stretch:normal;font-size:10px;font-family:'Hanken Grotesk';-inkscape-font-specification:'Hanken Grotesk';fill:#8c8c8c;fill-opacity:1">Gravity</tspan></text>
    <text
       id="Mass"
       style="font-weight:600;font-size:10px;line-height:1.25;font-family:'Hanken Grotesk';-inkscape-font-specification:'Hanken Grotesk Semi-Bold';text-align:center;text-anchor:middle;fill:#8c8c8c;fill-opacity:1"
       x="25.876226"
       y="135.50681"><tspan
         sodipodi:role="line"
         id="tspan4"
         x="25.876226"
         y="135.50681"
         style="font-style:normal;font-variant:normal;font-weight:normal;font-stretch:normal;font-size:10px;font-family:'Hanken Grotesk';-inkscape-font-specification:'Hanken Grotesk';fill:#8c8c8c;fill-opacity:1">Mass</tspan></text>
    <text
       id="Height"
       style="font-weight:600;font-size:10px;line-height:1.25;font-family:'Hanken Grotesk';-inkscape-font-specification:'Hanken Grotesk Semi-Bold';text-align:center;text-anchor:middle;fill:#8c8c8c;fill-opacity:1"
       x="25.837242"
       y="269.50671"><tspan
         sodipodi:role="line"
         id="tspan5"
         x="25.837242"
         y="269.50671"
         style="font-style:normal;font-variant:normal;font-weight:normal;font-stretch:normal;font-size:10px;font-family:'Hanken Grotesk';-inkscape-font-specification:'Hanken Grotesk';fill:#8c8c8c;fill-opacity:1">Height</tspan></text>
    <text
       id="Viscocity"
       style="font-weight:600;font-size:10px;line-height:1.25;font-family:'Hanken Grotesk';-inkscape-font-specification:'Hanken Grotesk Semi-Bold';text-align:center;text-anchor:middle;fill:#8c8c8c;fill-opacity:1"
       x="26.097239"
       y="229.50674"><tspan
         sodipodi:role="line"
         id="tspan7"
         x="26.097239"
         y="229.50674"
         style="font-style:normal;font-variant:normal;font-weight:normal;font-stretch:normal;font-size:10px;font-family:'Hanken Grotesk';-inkscape-font-specification:'Hanken Grotesk';fill:#8c8c8c;fill-opacity:1">Viscocity</tspan></text>
    <text
       id="Elasticity"
       style="font-weight:600;font-size:10px;line-height:1.25;font-family:'Hanken Grotesk';-inkscape-font-specification:'Hanken Grotesk Semi-Bold';text-align:center;text-anchor:middle;fill:#8c8c8c;fill-opacity:1"
       x="98.150024"
       y="229.50674"><tspan
         sodipodi:role="line"
         id="tspan8"
         x="98.150024"
         y="229.50674"
         style="font-style:normal;font-variant:normal;font-weight:normal;font-stretch:normal;font-size:10px;font-family:'Hanken Grotesk';-inkscape-font-specification:'Hanken Grotesk';fill:#8c8c8c;fill-opacity:1">Elasticity</tspan></text>
    <text
       id="Padding"
       style="font-weight:600;font-size:10px;line-height:1.25;font-family:'Hanken Grotesk';-inkscape-font-specification:'Hanken Grotesk Semi-Bold';text-align:center;text-anchor:middle;fill:#8c8c8c;fill-opacity:1"
       x="98.090019"
       y="269.50671"><tspan
         sodipodi:role="line"
         id="tspan9"
         x="98.090019"
         y="269.50671"
         style="font-style:normal;font-variant:normal;font-weight:normal;font-stretch:normal;font-size:10px;font-family:'Hanken Grotesk';-inkscape-font-specification:'Hanken Grotesk';fill:#8c8c8c;fill-opacity:1">Padding</tspan></text>
    <text
       id="Stick"
       style="font-weight:600;font-size:10px;line-height:1.25;font-family:'Hanken Grotesk';-inkscape-font-specification:'Hanken Grotesk Semi-Bold';text-align:center;text-anchor:middle;fill:#8c8c8c;fill-opacity:1"
       x="185.21536"
       y="125.46993"><tspan
         sodipodi:role="line"
         id="tspan196"
         x="185.21536"
         y="125.46993"
         style="font-style:normal;font-variant:normal;font-weight:normal;font-stretch:normal;font-size:10px;font-family:'Hanken Grotesk';-inkscape-font-specification:'Hanken Grotesk';fill:#8c8c8c;fill-opacity:1">Stick</tspan></text>
    <text
       id="Speed"
       style="font-weight:600;font-size:10px;line-height:1.25;font-family:'Hanken Grotesk';-inkscape-font-specification:'Hanken Grotesk Semi-Bold';text-align:center;text-anchor:middle;fill:#8c8c8c;fill-opacity:1"
       x="169.54285"
       y="65.013893"><tspan
         sodipodi:role="line"
         id="tspan197"
         x="169.54285"
         y="65.013893"
         style="font-style:normal;font-variant:normal;font-weight:normal;font-stretch:normal;font-size:10px;font-family:'Hanken Grotesk';-inkscape-font-specification:'Hanken Grotesk';fill:#8c8c8c;fill-opacity:1">Speed</tspan></text>
    <text
       id="Note"
       style="font-weight:600;font-size:10px;line-height:1.25;font-family:'Hanken Grotesk';-inkscape-font-specification:'Hanken Grotesk Semi-Bold';text-align:center;text-anchor:middle;fill:#8c8c8c;fill-opacity:1"
       x="153.14308"
       y="224.87627"><tspan
         sodipodi:role="line"
         id="tspan164"
         x="153.14308"
         y="224.87627"
         style="font-style:normal;font-variant:normal;font-weight:normal;font-stretch:normal;font-size:10px;font-family:'Hanken Grotesk';-inkscape-font-specification:'Hanken Grotesk';fill:#8c8c8c;fill-opacity:1">Note</tspan></text>
    <text
       id="Cents"
       style="font-weight:600;font-size:10px;line-height:1.25;font-family:'Hanken Grotesk';-inkscape-font-specification:'Hanken Grotesk Semi-Bold';text-align:center;text-anchor:middle;fill:#8c8c8c;fill-opacity:1"
       x="185.29335"
       y="225.02028"><tspan
         sodipodi:role="line"
         id="tspan165"
         x="185.29335"
         y="225.02028"
         style="font-style:normal;font-variant:normal;font-weight:normal;font-stretch:normal;font-size:10px;font-family:'Hanken Grotesk';-inkscape-font-specification:'Hanken Grotesk';fill:#8c8c8c;fill-opacity:1">Cents</tspan></text>
    <text
       id="vNL--label"
       style="font-weight:bold;font-size:9px;line-height:1.25;font-family:'Tw Cen MT';-inkscape-font-specification:'Tw Cen MT Bold';text-orientation:upright;fill:#8c8c8c;fill-opacity:1"
       x="51.981857"
       y="222.11838"><tspan
         sodipodi:role="line"
         id="tspan214"
         x="51.981857"
         y="222.11838"
         style="font-style:normal;font-variant:normal;font-weight:normal;font-stretch:normal;font-family:'Hanken Grotesk';-inkscape-font-specification:'Hanken Grotesk';fill:#8c8c8c;fill-opacity:1">NL</tspan></text>
    <text
       id="xxxxxx"
       style="font-weight:bold;font-size:9px;line-height:1.25;font-family:'Tw Cen MT';-inkscape-font-specification:'Tw Cen MT Bold';text-orientation:upright;fill:#8c8c8c;fill-opacity:1"
       x="51.981857"
       y="92.725883"><tspan
         sodipodi:role="line"
         id="tspan218"
         x="51.981857"
         y="92.725883"
         style="font-style:normal;font-variant:normal;font-weight:normal;font-stretch:normal;font-family:'Hanken Grotesk';-inkscape-font-specification:'Hanken Grotesk';fill:#8c8c8c;fill-opacity:1">NL</tspan></text>
    <text
       style="font-weight:600;font-size:9px;line-height:1.25;font-family:'Hanken Grotesk';-inkscape-font-specification:'Hanken Grotesk Semi-Bold';text-orientation:upright"
       x="7.9213343"
       y="293.33865"
       id="text227"><tspan
         sodipodi:role="line"
         id="tspan227"
         x="7.9213343"
         y="293.33865"
         style="font-style:normal;font-variant:normal;font-weight:normal;font-stretch:normal;font-size:9px;font-family:'Hanken Grotesk';-inkscape-font-specification:'Hanken Grotesk';stroke:#8c8c8c;stroke-opacity:1" /></text>
    <text
       style="font-weight:bold;font-size:9px;line-height:1.25;font-family:'Tw Cen MT';-inkscape-font-specification:'Tw Cen MT Bold';text-orientation:upright;fill:#8c8c8c;fill-opacity:1"
       x="9.6672335"
       y="293.33865"
       id="text230"><tspan
         sodipodi:role="line"
         id="tspan230"
         x="9.6672335"
         y="293.33865"
         style="font-style:normal;font-variant:normal;font-weight:normal;font-stretch:normal;font-family:'Hanken Grotesk';-inkscape-font-specification:'Hanken Grotesk';fill:#8c8c8c;fill-opacity:1">A</tspan></text>
    <text
       style="font-weight:bold;font-size:9px;line-height:1.25;font-family:'Tw Cen MT';-inkscape-font-specification:'Tw Cen MT Bold';text-orientation:upright;fill:#8c8c8c;fill-opacity:1"
       x="9.6672335"
       y="313.33865"
       id="text231"><tspan
         sodipodi:role="line"
         id="tspan231"
         x="9.6672335"
         y="313.33865"
         style="font-style:normal;font-variant:normal;font-weight:normal;font-stretch:normal;font-family:'Hanken Grotesk';-inkscape-font-specification:'Hanken Grotesk';fill:#8c8c8c;fill-opacity:1">S</tspan></text>
    <text
       style="font-weight:bold;font-size:9px;line-height:1.25;font-family:'Tw Cen MT';-inkscape-font-specification:'Tw Cen MT Bold';text-orientation:upright;fill:#8c8c8c;fill-opacity:1"
       x="9.6672335"
       y="333.33865"
       id="text232"><tspan
         sodipodi:role="line"
         id="tspan232"
         x="9.6672335"
         y="333.33865"
         style="font-style:normal;font-variant:normal;font-weight:normal;font-stretch:normal;font-family:'Hanken Grotesk';-inkscape-font-specification:'Hanken Grotesk';fill:#8c8c8c;fill-opacity:1">M</tspan></text>
    <text
       style="font-weight:bold;font-size:9px;line-height:1.25;font-family:'Tw Cen MT';-inkscape-font-specification:'Tw Cen MT Bold';text-orientation:upright;fill:#8c8c8c;fill-opacity:1"
       x="9.6672335"
       y="353.33865"
       id="text233"><tspan
         sodipodi:role="line"
         id="tspan233"
         x="9.6672335"
         y="353.33865"
         style="font-style:normal;font-variant:normal;font-weight:normal;font-stretch:normal;font-family:'Hanken Grotesk';-inkscape-font-specification:'Hanken Grotesk';fill:#8c8c8c;fill-opacity:1">G</tspan></text>
    <text
       style="font-weight:bold;font-size:9px;line-height:1.25;font-family:'Tw Cen MT';-inkscape-font-specification:'Tw Cen MT Bold';text-orientation:upright;fill:#8c8c8c;fill-opacity:1"
       x="151.46124"
       y="293.34314"
       id="text264"><tspan
         sodipodi:role="line"
         id="tspan264"
         x="151.46124"
         y="293.34314"
         style="font-style:normal;font-variant:normal;font-weight:normal;font-stretch:normal;font-family:'Hanken Grotesk';-inkscape-font-specification:'Hanken Grotesk';fill:#8c8c8c;fill-opacity:1">S'</tspan></text>
    <text
       style="font-weight:bold;font-size:9px;line-height:1.25;font-family:'Tw Cen MT';-inkscape-font-specification:'Tw Cen MT Bold';text-orientation:upright;fill:#8c8c8c;fill-opacity:1"
       x="133.51686"
       y="310.50723"
       id="text265"><tspan
         sodipodi:role="line"
         id="tspan265"
         x="133.51686"
         y="310.50723"
         style="font-style:normal;font-variant:normal;font-weight:normal;font-stretch:normal;font-family:'Hanken Grotesk';-inkscape-font-specification:'Hanken Grotesk';fill:#8c8c8c;fill-opacity:1">F</tspan></text>
    <text
       style="font-weight:bold;font-size:9px;line-height:1.25;font-family:'Tw Cen MT';-inkscape-font-specification:'Tw Cen MT Bold';text-orientation:upright;fill:#8c8c8c;fill-opacity:1"
       x="197.54672"
       y="310.6207"
       id="text266"><tspan
         sodipodi:role="line"
         id="tspan266"
         x="197.54672"
         y="310.6207"
         style="font-style:normal;font-variant:normal;font-weight:normal;font-stretch:normal;font-family:'Hanken Grotesk';-inkscape-font-specification:'Hanken Grotesk';fill:#8c8c8c;fill-opacity:1">K</tspan></text>
    <text
       style="font-weight:bold;font-size:9px;line-height:1.25;font-family:'Tw Cen MT';-inkscape-font-specification:'Tw Cen MT Bold';text-orientation:upright;fill:#8c8c8c;fill-opacity:1"
       x="150.80322"
       y="329.18564"
       id="text267"><tspan
         sodipodi:role="line"
         id="tspan267"
         x="150.80322"
         y="329.18564"
         style="font-style:normal;font-variant:normal;font-weight:normal;font-stretch:normal;font-family:'Hanken Grotesk';-inkscape-font-specification:'Hanken Grotesk';fill:#8c8c8c;fill-opacity:1">Q</tspan></text>

    <text
       style="font-weight:bold;font-size:9px;line-height:1.25;font-family:'Tw Cen MT';-inkscape-font-specification:'Tw Cen MT Bold';text-orientation:upright;fill:#8c8c8c;fill-opacity:1"
       x="164.47722"
       y="106.65125"
       id="text12"><tspan
         sodipodi:role="line"
         id="tspan12"
         x="164.47722"
         y="106.65125"
         style="font-style:normal;font-variant:normal;font-weight:normal;font-stretch:normal;font-family:'Hanken Grotesk';-inkscape-font-specification:'Hanken Grotesk';fill:#8c8c8c;fill-opacity:1">F</tspan></text>
    <text
       style="font-weight:bold;font-size:9px;line-height:1.25;font-family:'Tw Cen MT';-inkscape-font-specification:'Tw Cen MT Bold';text-orientation:upright;fill:#8c8c8c;fill-opacity:1"
       x="197.54672"
       y="106.65125"
       id="text15"><tspan
         sodipodi:role="line"
         id="tspan15"
         x="197.54672"
         y="106.65125"
         style="font-style:normal;font-variant:normal;font-weight:normal;font-stretch:normal;font-family:'Hanken Grotesk';-inkscape-font-specification:'Hanken Grotesk';fill:#8c8c8c;fill-opacity:1">K</tspan></text>
    <text
       style="font-weight:bold;font-size:9px;line-height:1.25;font-family:'Tw Cen MT';-inkscape-font-specification:'Tw Cen MT Bold';text-orientation:upright;fill:#8c8c8c;fill-opacity:1"
       x="181.81186"
       y="144.44016"
       id="text16"><tspan
         sodipodi:role="line"
         id="tspan16"
         x="181.81186"
         y="144.44016"
         style="font-style:normal;font-variant:normal;font-weight:normal;font-stretch:normal;font-family:'Hanken Grotesk';-inkscape-font-specification:'Hanken Grotesk';fill:#8c8c8c;fill-opacity:1">Q</tspan></text>
    <text
       style="font-weight:bold;font-size:9px;line-height:1.25;font-family:'Tw Cen MT';-inkscape-font-specification:'Tw Cen MT Bold';text-orientation:upright;fill:#8c8c8c;fill-opacity:1"
       x="59.981857"
       y="310.11838"
       id="text17"><tspan
         sodipodi:role="line"
         id="tspan17"
         x="59.981857"
         y="310.11838"
         style="font-style:normal;font-variant:normal;font-weight:normal;font-stretch:normal;font-family:'Hanken Grotesk';-inkscape-font-specification:'Hanken Grotesk';fill:#8c8c8c;fill-opacity:1">NL</tspan></text>
    <text
       style="font-weight:bold;font-size:9px;line-height:1.25;font-family:'Tw Cen MT';-inkscape-font-specification:'Tw Cen MT Bold';text-orientation:upright;fill:#8c8c8c;fill-opacity:1"
       x="101.98186"
       y="314.11838"
       id="text18"><tspan
         id="tspan18"
         x="101.98186"
         y="314.11838"
         style="font-style:normal;font-variant:normal;font-weight:normal;font-stretch:normal;font-family:'Hanken Grotesk';-inkscape-font-specification:'Hanken Grotesk';fill:#8c8c8c;fill-opacity:1">NL</tspan></text>
    <text
       style="font-weight:bold;font-size:9px;line-height:1.25;font-family:'Tw Cen MT';-inkscape-font-specification:'Tw Cen MT Bold';text-orientation:upright;fill:#8c8c8c;fill-opacity:1"
       x="184.54074"
       y="45.446663"
       id="text19"><tspan
         id="tspan19"
         x="184.54074"
         y="45.446663"
         style="font-style:normal;font-variant:normal;font-weight:normal;font-stretch:normal;font-family:'Hanken Grotesk';-inkscape-font-specification:'Hanken Grotesk';fill:#8c8c8c;fill-opacity:1">S'</tspan></text>
  </g>
</g>

<g id="guides" stroke="#ff8080" stroke-width=".25" fill="#ff1010">
   
<circle id="A" cx="26" cy="40" r="1"/>
<circle id="S" cx="26" cy="78" r="1"/><circle id="snl" cx="56" cy="76" r="1"/>
<path id="S--modkj" fill="none" stroke="#8f813d" stroke-width="1px" d="M 26,78 56,76" />

<circle id="M" cx="26" cy="116" r="1"/>
<circle id="G" cx="26" cy="154" r="1"/>
<circle id="V" cx="26" cy="206" r="1"/>
<circle id="vnl" cx="56" cy="202" r="1"/>
<path id="V--medkj" fill="none" stroke="#3d748f" stroke-width="1" d="M 26,206 56,202" />

<circle id="E" cx="98" cy="206" r="1"/>
<circle id="H" cx="26" cy="244" r="1"/>
<circle id="P" cx="98" cy="244" r="1"/>

<circle id="S'" cx="170" cy="40" r="1"/>
<circle id="F"  cx="154" cy="104" r="1"/>
<circle id="K"  cx="186" cy="104" r="1"/>
<circle id="Q"  cx="170" cy="140" r="1"/>

<circle id="N"  cx="154" cy="206" r="1"/>
<circle id="C"  cx="186" cy="206" r="1"/>

<circle id="mod-amt" cx="105" cy="290" r="1"/>

<circle id="iA"  cx="26" cy="290" r="1"/>
<circle id="iS"  cx="26" cy="310" r="1"/>
<circle id="iSnl"  cx="50" cy="306" r="1"/>
<path id="S-modinj" fill="none" stroke="#8f813d" stroke-width="1" d="M 26,310 50,306" />
<circle id="iM"  cx="26" cy="330" r="1"/>
<circle id="iG"  cx="26" cy="350" r="1"/>

<circle id="iV"  cx="82"  cy="330" r="1"/>
<circle id="iVnl"  cx="92" cy="314" r="1"/>
<path id="V--medinj" fill="none" stroke="#3d748f" stroke-width="1" d="M 82,330 92,314" />

<circle id="iE"  cx="114" cy="330" r="1"/>
<circle id="iH"  cx="82"  cy="350" r="1"/>
<circle id="iP"  cx="114" cy="350" r="1"/>

<circle id="iS'" cx="170" cy="290" r="1"/>
<circle id="iF"  cx="155" cy="310" r="1"/>
<circle id="iK"  cx="185" cy="310" r="1"/>
<circle id="iQ"  cx="170" cy="330" r="1"/>
<path opacity="1" id="binj" fill="none" stroke="#3d8f3d" stroke-width="0.75" d="M 170,290 155,310 170,330 185,310 z" />
<path opacity="0" id="alt--binj" fill="none" stroke="#3d8f3d" stroke-width="0.75" d="M 155,310 170,330 185,310 z" />

<circle id="iN"  cx="155" cy="350" r="1"/>
<circle id="iC"  cx="185" cy="350" r="1"/>
<path id="tinj" fill="none" stroke="#8f3d74" stroke-width="1" d="M 155,350 h 30" />

</g>

</svg>
