<?xml version="1.0" encoding="UTF-8"?>
<svg width="18" height="34" viewBox="0 0 18 34" version="1.1"
   xmlns="http://www.w3.org/2000/svg"
   xmlns:svg="http://www.w3.org/2000/svg">
  <defs>
    <linearGradient id="gbg" x1="0" y1="32" x2="0" y2="0" gradientUnits="userSpaceOnUse">
      <stop offset="0" stop-color="#265973" stop-opacity="0.75" />
      <stop offset="1" stop-color="#4095bf" stop-opacity="0" />
    </linearGradient>
    <marker id="arrowhead" overflow="visible" refX="0" refY="0" orient="auto-start-reverse" markerWidth="1" markerHeight="1" viewBox="0 0 1 1" preserveAspectRatio="xMidYMid">
      <path transform="scale(0.5)" fill="context-stroke" d="M 5.77,0 -2.88,5 V -5 Z" />
    </marker>
  </defs>
  <g>
    <rect id="bg" x="0" y="0" height="34" width="18" fill="url(#gbg)" />
    <path id="mass"  fill="#bf9740" d="m 8.4634787,15.4207 c -0.3760174,0 -0.6846475,0.331556 -0.6846475,0.735508 0,0.271506 0.1394956,0.510205 0.3450979,0.637612 l -1.819387,0.003 -2.0205986,5.394364 h 8.3479085 l -2.254689,-5.401175 -1.5723506,0.0026 c 0.2045846,-0.12769 0.3433135,-0.365642 0.3433135,-0.636333 0,-0.403953 -0.3086289,-0.735509 -0.6846472,-0.735509 z m 0,0.381375 c 0.1841609,0 0.3296449,0.156291 0.3296449,0.354133 0,0.197841 -0.145484,0.354133 -0.3296449,0.354133 -0.18416,0 -0.3296451,-0.156292 -0.3296451,-0.354133 0,-0.197842 0.1454851,-0.354133 0.3296451,-0.354133 z" />
    <path id="spring"  fill="#bf9740" d="m 8.4570312,2.2851562 a 0.5,0.5 0 0 0 -0.4863281,0.5078126 0.5,0.5 0 0 0 0.25,0.421875 v 3.828125 l 0.1503907,0.2226562 0.484375,0.1875 -1.7832032,0.4121094 c -0.1458334,0.1490886 -0.1458333,0.298177 0,0.4472656 L 8.4101562,8.5605469 7.0722656,8.8671875 c -0.1353643,0.1701332 -0.141934,0.3259554 0.00391,0.4648437 l 1.3847656,0.2949219 -1.3886719,0.296875 c -0.1110555,0.1462779 -0.1677068,0.2945699 0,0.4511719 l 1.3886719,0.287109 -1.3886719,0.298829 c -0.1639263,0.144087 -0.137678,0.294731 0,0.449218 l 1.9433594,0.4375 -0.6914062,0.472656 -0.1035157,0.195313 0.00391,2.90625 0.4765625,-0.002 -0.00586,-2.779297 0.9550781,-0.722656 C 9.7656247,11.794271 9.7662763,11.654948 9.6523438,11.5 L 8.2636719,11.193359 9.6523438,10.888672 C 9.7605855,10.757969 9.769276,10.604641 9.6484375,10.421875 L 8.3125,10.146484 9.6503906,9.859375 c 0.085379,-0.1041929 0.1782196,-0.2576403 0,-0.4648438 L 8.2285156,9.0917969 9.6542969,8.765625 C 9.8022186,8.6154485 9.7862193,8.4594176 9.6425781,8.2988281 L 8.3300781,8.0625 9.6503906,7.7480469 c 0.097861,-0.1427152 0.149783,-0.291173 0,-0.4648438 L 8.6953125,6.8808594 V 3.2304688 A 0.5,0.5 0 0 0 8.9707031,2.7832031 V 2.7675781 A 0.5,0.5 0 0 0 8.4570312,2.2851562 Z" />
    <path id="gravity" style="fill:#bfaa40" d="m 8.3344821,22.833095 c 0,0 -0.3136146,0.08009 -0.5532321,0.264561 -0.2396175,0.184468 -0.5234375,0.472574 -0.5234375,0.886719 0,0.143188 0.073618,0.286898 0.1679687,0.371094 0.094351,0.0842 0.199532,0.127771 0.3066407,0.162109 0.2142173,0.06868 0.4523861,0.09492 0.6816406,0.128906 0.2292545,0.03399 0.4486001,0.07655 0.5761719,0.132813 0.063786,0.02813 0.1007776,0.05865 0.1171875,0.07813 0.01641,0.01947 0.020914,0.02552 0.021484,0.0625 5.625e-4,0.03646 -0.00163,0.03472 -0.013672,0.04883 -0.012044,0.01411 -0.046585,0.04105 -0.109375,0.06641 -0.1255795,0.05071 -0.347384,0.08719 -0.5820313,0.119141 -0.2346472,0.03195 -0.482285,0.05898 -0.7070312,0.146484 -0.1123731,0.04375 -0.2240758,0.104981 -0.3144531,0.207031 -0.090377,0.102051 -0.1461073,0.248705 -0.1445313,0.396485 0.00304,0.285593 0.2151467,0.507105 0.4277344,0.603515 0.2125876,0.09641 0.4450412,0.130064 0.6640625,0.16211 0.2190212,0.03205 0.4262996,0.06165 0.5449218,0.101562 0.049589,0.01669 0.068799,0.03111 0.080078,0.03906 -0.00402,0.06055 -0.038085,0.107353 -0.1621094,0.210937 -0.1305767,0.109057 -0.3342695,0.236194 -0.4433594,0.492188 -0.021297,0.04998 -0.038308,0.102031 -0.052734,0.154297 l -1.0226046,-0.0094 1.2304687,2.263672 1.3730469,-2.255859 -0.9363797,0.0055 c 0.050455,-0.06301 0.072357,-0.146374 0.1894531,-0.244173 0.1531047,-0.127872 0.3613282,-0.325343 0.3613282,-0.628906 -1e-7,-0.137674 -0.064515,-0.277399 -0.1542969,-0.363281 C 9.2676408,26.349655 9.166316,26.303806 9.0644531,26.269531 8.8607274,26.200982 8.637198,26.177418 8.4257812,26.146484 8.2143643,26.115551 8.0159797,26.07604 7.9042969,26.025391 7.7926141,25.974742 7.78791,25.973548 7.7871094,25.898438 c -3.474e-4,-0.03257 2.396e-4,-0.0261 0.011719,-0.03906 0.011479,-0.01296 0.045797,-0.0397 0.109375,-0.06445 0.1271559,-0.04951 0.3504104,-0.08512 0.5859375,-0.117188 0.2355271,-0.03207 0.4835938,-0.06134 0.7089844,-0.152343 0.1126953,-0.0455 0.2253401,-0.10847 0.3144531,-0.212891 0.089113,-0.104421 0.1429177,-0.251802 0.140625,-0.400391 -0.00228,-0.14807 -0.059005,-0.292682 -0.1464843,-0.396484 C 9.424239,24.411818 9.3152938,24.344394 9.203125,24.294922 8.9787874,24.195979 8.7292905,24.158201 8.4921875,24.123047 8.2550845,24.087892 8.0293683,24.0569 7.8945312,24.013672 7.8373453,23.995342 7.81158,23.97872 7.796875,23.96875 c 0.00852,-0.149262 0.1321427,-0.316836 0.3066406,-0.451172 0.1803879,-0.13887 0.4321384,-0.305577 0.4321384,-0.305577 0,0 0.2784488,-0.165434 0.1912526,-0.323041 -0.087196,-0.157607 -0.3924245,-0.05587 -0.3924245,-0.05587 z" />
    <path id="height" style="fill:none;stroke:#4095bf;stroke-width:0.132292;stroke-linecap:butt;stroke-linejoin:miter;stroke-dasharray:none;stroke-opacity:1;marker-start:url(#arrowhead);marker-end:url(#arrowhead)" d="M 3.4974837,0.64156815 V 32.369818" />
    <path id="pad1" style="fill:none;stroke:#4095bf;stroke-width:0.132292;stroke-linecap:butt;stroke-linejoin:miter;stroke-dasharray:none;stroke-opacity:1;marker-start:url(#arrowhead);marker-end:url(#arrowhead)" d="M 14.816323,0.4697787 V 3.651598" />
    <path id="pad2" style="fill:none;stroke:#4095bf;stroke-width:0.132292;stroke-linecap:butt;stroke-linejoin:miter;stroke-dasharray:none;stroke-opacity:1;marker-start:url(#arrowhead);marker-end:url(#arrowhead)" d="m 14.816323,29.183616 v 3.181818" />
    <path id="speed" style="fill:none;stroke:#40bf40;stroke-width:0.132292;stroke-linecap:butt;stroke-linejoin:miter;stroke-dasharray:none;stroke-opacity:1;marker-start:url(#arrowhead);marker-end:url(#arrowhead)" d="M 16.372454,7.8706451 V 23.522874" />
    <path id="bow" transform="translate(14,7)" fill="#40bf40" d="M 0.56379,0 0,16.391765 h 0.76843 v 0.981853 h 0.430982 v -0.981853 h 0.04961 V 0.1245401 Z M 0.727605,0.3229776 1.025779,0.4816242 0.521417,16.193328 H 0.198438 Z" />
    <circle id="stick" fill="#40bf40" cx="12" cy="13.5" r="0.28" />
    <circle id="slip" fill="#40bf40" cx="13" cy="13.5" r="0.28" />
    <circle id="quit" fill="#40bf40" cx="12.5" cy="14.5" r="0.28" d="m 12.507161,14.550121 a 0.26458335,0.26458332 0 0 1 -0.262427,0.264575 0.26458335,0.26458332 0 0 1 -0.266705,-0.260261 0.26458335,0.26458332 0 0 1 0.258079,-0.268818 0.26458335,0.26458332 0 0 1 0.270912,0.255879" />
    <g id="visc" transform="translate(.25,29.6)">
      <path id="v1" fill="none" stroke="#4095bf" stroke-width="0.2" d="m 0.12796727,0.96239265 c 0,0 0.34345778,-0.18026569 0.52018503,-0.15989803 C 0.85236231,0.82602552 1.0164157,1.1199992 1.2212662,1.1225876 1.410295,1.1249576 1.5654741,0.86716118 1.753616,0.8406289 1.9420316,0.8140579 2.3145707,0.96870967 2.3145707,0.96870967" />
      <path id="v2" fill="none" stroke="#4095bf" stroke-width="0.2" d="m 0.125,1.3460412 c 0,0 0.34547246,-0.180516 0.52315778,-0.159887 0.20419905,0.023705 0.36825792,0.3174295 0.57311392,0.3200906 0.1892806,0.00245 0.3447553,-0.255597 0.53316,-0.2819563 0.1871893,-0.026192 0.5571718,0.1280697 0.5571718,0.1280697" />
      <path id="v3" fill="none" stroke="#4095bf" stroke-width="0.2" d="M 0.125,-6.425734e-7 V 2.3511711" />
      <path id="v4" fill="none" stroke="#4095bf" stroke-width="0.2" d="M 2.3116035,-6.425734e-7 V 2.3511711" />
      <path id="v5" fill="none" stroke="#4095bf" stroke-width="0.2" d="m 0.15820924,0.57874413 c 0,0 0.32294427,-0.17768992 0.48993759,-0.15997699 0.20430855,0.0216674 0.36827437,0.31616693 0.57311397,0.32009296 0.1937534,0.003711 0.3545768,-0.25539165 0.5474761,-0.28187972 0.1934195,-0.0265631 0.5760758,0.12815974 0.5760758,0.12815974" />
      <path id="v6" fill="none" stroke="#4095bf" stroke-width="0.2" d="m 0.125,1.773529 c 0,0 0.34547246,-0.180516 0.52315778,-0.159887 C 0.85235683,1.637347 1.0164157,1.9310716 1.2212717,1.9337326 1.4105523,1.9361826 1.566027,1.6781357 1.7544317,1.6517763 1.941621,1.6255843 2.3116035,1.779846 2.3116035,1.779846" />
    </g>
    <path id="elastic" transform="translate(12,29)" fill="#4095bf" stroke-width="0.25" d="m 0,0 v 0.181388 h 0.64052 c 0.0065,0.05369 0.01553,0.125701 0.02127,0.211148 0.01045,0.155519 2.65e-4,0.340352 -0.02408,0.393948 -0.02336,0.05122 -0.08851,0.07357 -0.181388,0.107694 -0.04643,0.01704 -0.0989,0.03599 -0.144544,0.07936 -0.04564,0.04339 -0.07356,0.116972 -0.06518,0.19272 0.0058,0.05115 0.03421,0.09781 0.06802,0.127537 0.03381,0.02975 0.07319,0.04738 0.113366,0.06232 0.08036,0.02997 0.17141,0.04629 0.25791,0.06378 0.0865,0.01749 0.167947,0.03708 0.216813,0.06095 0.02445,0.01191 0.03983,0.02395 0.04673,0.03258 0.0072,0.0086 0.0087,0.01307 0.0085,0.02692 -2.12e-4,0.01336 -0.0021,0.0132 -0.0085,0.01982 -0.0058,0.0065 -0.02154,0.01741 -0.04673,0.02692 -0.05042,0.01894 -0.133935,0.03134 -0.22248,0.04252 -0.08855,0.01116 -0.182176,0.02133 -0.264999,0.05246 -0.04143,0.01553 -0.08171,0.03628 -0.114781,0.07226 -0.03309,0.03599 -0.05385,0.08844 -0.05385,0.141706 0,0.05246 0.01905,0.103209 0.0496,0.140293 0.03055,0.03708 0.06907,0.06225 0.109117,0.08077 0.08013,0.037 0.17127,0.05289 0.259323,0.06798 0.08805,0.01516 0.173239,0.0283 0.229568,0.04673 0.02815,0.0092 0.04927,0.01995 0.05812,0.02692 0.0043,0.0036 0.0051,0.0065 0.0058,0.0072 0.0051,0.03265 0.0021,0.03135 -0.0044,0.03824 -0.0058,0.0072 -0.02801,0.02148 -0.06378,0.03686 -0.07147,0.03076 -0.198416,0.07303 -0.253658,0.206896 -0.05543,0.134221 -0.0468,0.31953 -0.03686,0.49031 0.0051,0.08176 0.01204,0.156724 0.01844,0.213977 L 2.2e-5,3.256607 v 0.181385 l 1.439733,-0.0085 V 3.248105 l -0.639104,0.0044 c -0.0065,-0.05645 -0.01445,-0.132334 -0.01982,-0.223898 -0.0095,-0.162745 8.7e-5,-0.357555 0.02265,-0.412369 0.02278,-0.05514 0.07708,-0.07397 0.158713,-0.109114 0.04085,-0.01757 0.0875,-0.03729 0.127535,-0.08219 0.04005,-0.04491 0.05978,-0.116081 0.04818,-0.187053 -0.0082,-0.05028 -0.03903,-0.09313 -0.0737,-0.120457 -0.03461,-0.02735 -0.07331,-0.04353 -0.113366,-0.05666 -0.08012,-0.02627 -0.169669,-0.03918 -0.255074,-0.05384 -0.0854,-0.01466 -0.166142,-0.03178 -0.213976,-0.05383 -0.02394,-0.01103 -0.03874,-0.02315 -0.04535,-0.0312 -0.0065,-0.008 -0.0085,-0.01169 -0.0085,-0.02553 0,-0.01299 0.0013,-0.01233 0.0072,-0.01842 0.0058,-0.0058 0.019,-0.01617 0.04389,-0.02545 0.04977,-0.01865 0.135286,-0.03135 0.223903,-0.04252 0.08861,-0.01117 0.180327,-0.02111 0.263576,-0.05246 0.04165,-0.01566 0.0829,-0.0378 0.116197,-0.0737 0.0333,-0.03584 0.05587,-0.08684 0.05667,-0.14029 C 1.140173,1.490634 1.121309,1.43821 1.091199,1.400403 1.061019,1.362603 1.022199,1.337783 0.982085,1.318213 0.901845,1.279033 0.81008,1.259663 0.721346,1.241693 0.632606,1.223783 0.5462,1.207233 0.490362,1.186403 c -0.02793,-0.01037 -0.04673,-0.02228 -0.05529,-0.02975 -0.0086,-0.0075 -0.0065,-0.0065 -0.0072,-0.0099 -0.0036,-0.03316 -5.3e-4,-0.0312 0.0099,-0.04107 0.01045,-0.0099 0.03932,-0.02582 0.08078,-0.04107 0.08294,-0.03047 0.220942,-0.06421 0.283419,-0.201229 0.06138,-0.134639 0.05209,-0.31705 0.04107,-0.481806 C 0.837941,0.305238 0.829971,0.235999 0.823221,0.18177 H 1.43965 V 3.84e-4 Z" />
  </g>
</svg>
