<?xml version="1.0" encoding="UTF-8" ?>
<svg width="14" height="14" viewBox="0 0 14 14" version="1.1"
   xmlns="http://www.w3.org/2000/svg"
   xmlns:svg="http://www.w3.org/2000/svg">
  <path id="cat" fill="#a6a6a6" stroke="none" stroke-width="0" d="m 12.12075,10.960591 c -0.21387,-0.57211 -0.30352,-1.1722597 -0.36619,-1.7755997 -0.41322,-1.53367 -1.34063,-2.94438 -2.5865496,-3.92985 -0.41067,-0.26526 -0.8403,-0.55304 -1.34805,-0.54161 -0.62418,-0.0892 -1.27336,-0.10962 -1.88523,-0.23194 -0.4301,-0.26883 -0.8171,-0.62759 -1.3315,-0.72044 -0.2937,-0.0473 -0.52162,-0.2037 -0.70518,-0.43337 -0.7253,-0.69767 -1.42946,-1.45135 -2.30807,-1.95577 -0.40814,0.16079 0.14271,0.68908 -0.12082,0.82587 -0.36965,-0.34124 -0.81385997,-0.15782 -0.41266,0.29419 -0.26268997,0.55921 -0.81399997,1.07795 -1.056479968376,1.65406 C 0.08202043,4.4430013 0.14162043,4.7536213 0.42122043,4.9296413 c 0.15529,0.27495 0.45762,0.16839 0.71625997,0.17518 0.3304,-0.0602 0.64976,0.0973 0.91918,0.26015 0.21148,0.31585 0.50958,0.5931 0.52354,0.99701 0.11508,0.59524 0.23522,1.21185 0.68522,1.65643 0.16417,0.21384 0.40173,0.41306 0.22429,0.69496 -0.18995,0.68764 -0.27163,1.4024597 -0.61822,2.0381497 -0.2009,0.25298 -0.0963,0.78453 -0.48219,0.84669 -0.33373,0.10794 -0.76973,0.27417 -0.64582,0.6957 0.17394,0.29825 0.74919,0.12208 1.08854,0.16816 0.44052,-0.11466 0.67396,-0.56155 0.94832,-0.88848 0.46831,-0.7437 0.98957,-1.47884 1.66063,-2.0535497 0.46176,0.4018 0.96114,0.7590297 1.49535,1.0583497 -0.18042,0.32913 0.54436,1.07912 0.007,1.00356 -0.2695,-0.0829 -0.49171,0.0304 -0.70204,0.19294 -0.23527,0.0988 -0.13188,0.51729 -0.0923,0.68573 0.24927,0.12138 0.50074,0.22562 0.77785,0.13006 0.48231,-0.0568 0.96597,-0.19568 1.44498,-0.0466 0.63038,0.15352 1.27629,-0.0652 1.9086296,-0.1064 0.59553,0.0738 0.79154,-0.72929 1.36442,-0.22973 0.67857,0.17791 2.26765,-0.14581 2.35314,-2.13935 0.0388,-0.9037397 -0.50061,-2.8022197 -0.93959,-2.6730197 -0.48566,0.14292 0.25834,1.46999 0.19177,2.56347 -0.083,1.3615797 -0.67512,1.2693397 -1.12999,1.0016597 z" />
</svg>
