<?xml version="1.0" encoding="UTF-8" ?>
<svg width="14" height="14" viewBox="0 0 14 14" version="1.1"
  xmlns="http://www.w3.org/2000/svg"
  xmlns:svg="http://www.w3.org/2000/svg">
  <path id="tilde--ctl-glyph" fill="#a6a6a6" stroke="none" stroke-width="0" d="M 6.54741,2.99082 V 3.94003 Q 5.89116,4.30918 5.60406,4.40878 5.32281,4.50248 5.07085,4.50248 4.5142,4.50248 3.51812,4.05131 2.74468,3.69975 2.52787,3.6353 2.31694,3.565 2.12944,3.565 1.87162,3.565 1.56108,3.67633 1.25054,3.78766 0.59429,4.18024 V 3.24274 Q 1.23881,2.8736 1.52593,2.77985 q 0.28711,-0.0996 0.55664,-0.0996 0.56836,0 1.57031,0.47461 0.69141,0.32812 0.94336,0.41015 0.25782,0.0762 0.46289,0.0762 0.2461,0 0.49805,-0.0937 0.25195,-0.0996 0.99023,-0.55664 z m 0,2.17968 V 6.11972 Q 5.89116,6.48886 5.60406,6.58847 5.32281,6.68217 5.07085,6.68217 4.5142,6.68217 3.51812,6.231 2.74468,5.87944 2.52787,5.81498 2.31694,5.74468 2.12944,5.74468 1.87162,5.74468 1.56108,5.86187 1.25054,5.9732 0.59429,6.35992 v -0.9375 q 0.64452,-0.36328 0.93164,-0.46289 0.28711,-0.0996 0.55664,-0.0996 0.56836,0 1.57031,0.47461 0.69141,0.32812 0.94336,0.41015 0.25782,0.0762 0.46289,0.0762 0.2461,0 0.49805,-0.0937 0.25195,-0.0996 0.99023,-0.55664 z" />
  <path id="notes--ctl-glyph" fill="#a6a6a6" stroke="none" stroke-width="0" d="M 7.93304,3.03614 13.40571,1.33106 V 8.9541 q 0,0.86719 -0.22267,1.29493 -0.21679,0.42773 -0.73241,0.70898 -0.50977,0.28125 -1.17188,0.28125 -0.84961,0 -1.24804,-0.45117 -0.39258,-0.45117 -0.39258,-1.08985 0,-0.68554 0.52733,-1.18359 0.52735,-0.49805 1.3711,-0.49805 0.49219,0 1.17188,0.29297 V 3.3291 L 8.61273,4.60059 v 5.74805 q 0,0.7207 -0.17577,1.18945 -0.16992,0.46875 -0.709,0.79687 -0.5332,0.33399 -1.26562,0.33399 -0.70898,0 -1.16602,-0.4043 -0.45703,-0.4043 -0.45703,-1.125 0,-0.75586 0.54492,-1.23047 0.54492,-0.48047 1.34767,-0.48047 0.55664,0 1.20116,0.31641 z" />
</svg>
