<?xml version="1.0" encoding="UTF-8" standalone="no"?>
<svg width="18" height="18" viewBox="0 0 18 18" version="1.1" xmlns="http://www.w3.org/2000/svg" xmlns:svg="http://www.w3.org/2000/svg">
  <linearGradient id="g-face" x1="8" y1="0" x2="9" y2="18" gradientUnits="userSpaceOnUse">
    <stop stop-color="#888888" offset="0" />
    <stop stop-color="#2e2e2e" offset="1" />
  </linearGradient>
  <path id="din-face" fill="url(#g-face)" stroke="#a6a6a6" stroke-width="0.5" d="M 9.048 0.173 C 6.668 0.173 4.427 1.1 2.763 2.763 C 1.1 4.427 0.172 6.668 0.172 8.978 C 0.179 13.154 2.749 16.634 6.779 17.47 L 6.779 14.268 L 11.484 14.268 L 11.484 17.4 C 15.451 16.495 17.818 13.085 17.818 8.978 C 17.818 6.668 16.913 4.427 15.312 2.763 C 13.64 1.1 11.345 0.173 9.048 0.173 Z" />
  <path id="din-holes" fill="#222222" d="M 9.048 1.218 C 8.63 1.218 8.63 1.705 8.63 1.705 L 8.63 2.394 C 8.282 2.54 8.143 2.847 8.143 3.181 C 8.143 3.515 8.282 3.821 8.63 3.974 L 8.63 5.547 C 8.63 5.547 8.63 6.034 9.048 6.02 C 9.466 6.02 9.466 5.547 9.466 5.547 L 9.466 3.974 C 9.674 3.821 9.883 3.515 9.883 3.181 C 9.883 2.847 9.674 2.54 9.466 2.394 L 9.466 1.705 C 9.466 1.705 9.466 1.232 9.048 1.218 Z M 13.224 2.499 C 12.876 2.276 12.598 2.659 12.598 2.659 L 12.18 3.229 C 11.902 3.16 11.554 3.341 11.345 3.612 C 11.136 3.891 11.136 4.246 11.275 4.538 L 10.44 5.846 C 10.44 5.846 10.162 6.243 10.51 6.473 C 10.858 6.696 11.136 6.313 11.136 6.313 L 11.971 5.004 C 12.319 5.074 12.667 4.9 12.876 4.6214 C 13.015 4.35 13.085 3.988 12.876 3.696 L 13.294 3.125 C 13.294 3.125 13.572 2.735 13.224 2.499 Z M 15.869 5.777 C 15.73 5.394 15.312 5.575 15.312 5.575 L 14.686 5.846 C 14.407 5.631 14.059 5.575 13.711 5.707 C 13.433 5.839 13.224 6.125 13.154 6.459 L 11.693 7.099 C 11.693 7.099 11.275 7.308 11.414 7.656 C 11.623 8.004 12.041 7.795 12.041 7.795 L 13.502 7.238 C 13.781 7.447 14.129 7.517 14.407 7.378 C 14.755 7.238 14.964 6.932 14.964 6.605 L 15.59 6.341 C 15.59 6.341 16.078 6.16 15.869 5.777 Z M 4.761 2.499 C 5.109 2.276 5.366 2.659 5.366 2.659 L 5.756 3.229 C 6.083 3.16 6.417 3.341 6.598 3.612 C 6.786 3.891 6.807 4.246 6.668 4.538 L 7.517 5.846 C 7.517 5.846 7.795 6.243 7.447 6.473 C 7.099 6.696 6.87 6.313 6.87 6.313 L 5.979 5.004 C 5.652 5.074 5.32 4.9 5.143 4.621 C 4.956 4.35 4.935 3.988 5.074 3.696 L 4.684 3.125 C 4.684 3.125 4.427 2.735 4.761 2.499 Z M 2.123 5.777 C 2.297 5.394 2.721 5.575 2.721 5.575 L 3.355 5.846 C 3.619 5.631 3.967 5.575 4.28 5.707 C 4.58 5.839 4.795 6.125 4.816 6.459 L 6.271 7.099 C 6.271 7.099 6.7164 7.308 6.54936 7.656 C 6.382 8 5.951 7.795 5.951 7.795 L 4.496 7.238 C 4.246 7.447 3.884 7.517 3.584 7.378 C 3.271 7.238 3.069 6.932 3.042 6.605 L 2.401 6.341 C 2.4 6.341 1.97 6.16 2.1228 5.777 Z" />
</svg>
