<?xml version="1.0" encoding="UTF-8"?>
<svg width="16" height="16" viewBox="0 0 16 16" version="1.1"
   xmlns="http://www.w3.org/2000/svg"
   xmlns:svg="http://www.w3.org/2000/svg">
  <g>
    <circle id="edit-frame-dn" fill="#f9a54b" stroke="#f9a54b" stroke-width="0.75" cx="8" cy="8" r="7.5" />
    <path id="edit-glyph-dn" fill="#000000" d="m 8.15239,11.884344 q -0.8845,0 -1.5555,-0.28975 -0.65575,-0.305 -1.098,-0.83875 -0.427,-0.53375 -0.65575,-1.2199996 -0.2135,-0.7015 -0.2135,-1.47925 0,-0.77775 0.2135,-1.47925 0.2135,-0.71675 0.62525,-1.26575 0.427,-0.549 1.0675,-0.86925 0.6405,-0.32025 1.4945,-0.32025 0.86925,0 1.4945,0.305 0.6405,0.28975 1.037,0.80825 0.41175,0.5185 0.61,1.159 0.19825,0.6405 0.19825,1.32675 0,0.061 -0.01525,0.28975 0,0.2135 -0.0305,0.38125 H 5.91064 q 0.04575,1.098 0.6405,1.7079996 0.59475,0.61 1.6165,0.61 0.65575,0 1.14375,-0.2135 0.488,-0.2135 0.915,-0.6862496 l 0.89975,0.7929996 q -0.41175,0.44225 -0.86925,0.732 -0.4575,0.2745 -0.976,0.41175 -0.50325,0.13725 -1.1285,0.13725 z m 1.93675,-4.1479996 q 0.0305,-0.122 0.0305,-0.244 0.01525,-0.122 0.01525,-0.244 0,-0.366 -0.13725,-0.732 -0.122,-0.366 -0.38125,-0.65575 -0.244,-0.305 -0.6405,-0.47275 -0.38125,-0.183 -0.915,-0.183 -0.65575,0 -1.1285,0.305 -0.47275,0.305 -0.732,0.80825 -0.25925,0.50325 -0.305,1.11325 h 4.62075 z" />
  </g>
</svg>
