<?xml version="1.0" encoding="UTF-8" ?>
<svg width="24" height="24" viewBox="0 0 24 24" version="1.1" xmlns="http://www.w3.org/2000/svg" xmlns:svg="http://www.w3.org/2000/svg">
<path id="e-spoke" d="m 11.8,3.75 v 3 h 0.4 v -3 z m -2.65,0.49 -0.37,0.15 1.1,2.79 0.42,-0.15 z m 5.95,0.1 -1.2,2.75 0.4,0.16 1.2,-2.75 z m -8.81,1.68 -0.28,0.28 2.12,2.12 0.28,-0.28 z m 11.41,0 -2.1,2.12 0.3,0.28 2.1,-2.12 z m -13.22,2.49 -0.16,0.37 2.75,1.22 0.16,-0.39 z m 15.12,0.28 -2.8,1.09 0.2,0.42 2.8,-1.14 z m -15.88,3.01 v 0.4 h 3 v -0.4 z m 13.58,0 v 0.4 h 3 v -0.4 z m -10.18,2.1 -2.78,1.1 0.15,0.3 2.78,-1.1 z m 9.78,0 -0.1,0.4 2.7,1.2 0.2,-0.3 z m -8.75,1.7 -2.12,2.1 0.29,0.3 2.12,-2.1 z m 7.65,0 -0.2,0.3 2.1,2.1 0.3,-0.3 z m -6.13,1.2 -1.17,2.7 0.37,0.2 1.13,-2.8 z m 4.33,0.1 -0.4,0.1 1.1,2.8 0.3,-0.1 z m -2.2,0.4 v 3 h 0.4 v -3 z" />
</svg>
