<?xml version="1.0" encoding="UTF-8" standalone="no"?>
<svg width="14" height="14" viewBox="0 0 14 14" version="1.1"
   xmlns="http://www.w3.org/2000/svg"
   xmlns:svg="http://www.w3.org/2000/svg">
  <path id="gear--ctl-glyph" fill="#a6a6a6" stroke="none" stroke-width="0" d="m 5.83846,0.99998 -2.2573,0.937 0.40088,1.75031 C 3.87992,3.78149 3.78159,3.87986 3.68731,3.98203 L 1.937,3.58114 1,5.83907 2.5265,6.7876 c 0,0.0354 -10e-4,0.0707 -0.004,0.1062 C 2.5215,6.9292 2.5185,6.9645 2.5185,7 c 0,0.0354 10e-4,0.0707 0.004,0.1062 10e-4,0.0355 0.004,0.0707 0.004,0.1062 L 1,8.16093 l 0.937,2.2579 1.75031,-0.40088 c 0.0942,0.10212 0.19257,0.20045 0.29473,0.29476 L 3.58116,12.063 5.83846,13.00002 6.7876,11.47349 c 0.0354,0 0.0707,10e-4 0.10619,0.004 0.0354,0.001 0.0707,0.004 0.1062,0.004 0.0354,0 0.0707,-6.2e-4 0.1062,-0.004 0.0353,-10e-4 0.0707,-0.004 0.1062,-0.004 l 0.94852,1.52653 2.25732,-0.93702 -0.40028,-1.75029 c 0.10212,-0.0942 0.19983,-0.19259 0.29414,-0.29476 l 1.7509,0.40088 L 13,8.16093 11.4735,7.2124 c 0,-0.0354 0.001,-0.0707 0.004,-0.1062 0.001,-0.0354 0.001,-0.0707 0.001,-0.1062 0,-0.0354 -6.2e-4,-0.0707 -0.001,-0.1062 -10e-4,-0.0354 -0.004,-0.0707 -0.004,-0.1062 L 13,5.83907 12.06299,3.58114 10.31209,3.98203 C 10.21779,3.87991 10.1201,3.78158 10.01795,3.68729 l 0.40028,-1.75031 -2.25732,-0.937 -0.94852,1.5265 c -0.0354,0 -0.0707,-10e-4 -0.1062,-0.004 -0.0354,-10e-4 -0.0707,-10e-4 -0.1062,-10e-4 -0.0354,0 -0.0707,5.7e-4 -0.1062,10e-4 -0.0353,0.001 -0.0707,0.004 -0.10619,0.004 z M 6.99987,4.43809 A 2.5617579,2.5617579 0 0 1 9.56163,6.99985 2.5617579,2.5617579 0 0 1 6.99987,9.56161 2.5617579,2.5617579 0 0 1 4.43812,6.99985 2.5617579,2.5617579 0 0 1 6.99987,4.43809 Z" />
</svg>
