<?xml version="1.0" encoding="UTF-8"?>
<svg width="12" height="12" viewBox="0 0 12 12" version="1.1" 
xmlns="http://www.w3.org/2000/svg"
xmlns:svg="http://www.w3.org/2000/svg">
<path id="heart-fill" fill="#bd0808" d="M 3.3710938,0.7109375 C 3.2956038,0.71040028 3.2194612,0.71192561 3.1425781,0.7148435 2.8830908,0.7246925 2.6320104,0.8024555 2.3261719,0.93554663 2.0203334,1.0686381 1.6807339,1.2617754 1.3554688,1.5273438 0.70493833,2.0584804 0.10216157,2.9132125 0.10351562,4.0546875 0.10606126,6.2026029 1.4792493,7.5337991 2.0175781,8.0683594 3.2835151,9.3254334 4.5165853,10.190685 5.6835938,11.339844 5.7945594,11.449112 6,11.683594 6,11.683594 c 0,0 0.2142521,-0.233636 0.328125,-0.34375 C 7.505511,10.201319 8.7282025,9.3254347 9.9941406,8.0683594 10.53247,7.5337986 11.903704,6.2026049 11.90625,4.0546875 11.907603,2.9132117 11.304827,2.0584809 10.654297,1.5273438 10.329031,1.2617752 9.9913856,1.0686382 9.6855469,0.93554688 9.3797082,0.8024556 9.1286284,0.72469268 8.8691406,0.71484375 8.2540752,0.69149864 7.6855181,0.77676908 7.1328125,1.0019531 6.7849013,1.1436994 6.4594559,1.3878012 6.1777344,1.6035156 6.1096673,1.6556346 6.0643355,1.6933873 6.0058594,1.7402344 5.9473833,1.6933873 5.9020514,1.6556346 5.8339844,1.6035156 5.5522631,1.3878014 5.2268171,1.1436993 4.8789062,1.0019531 4.3952894,0.80491731 3.8995205,0.71469803 3.3710938,0.7109375 Z" />
<path id="heart" fill="#ee6161" d="M 3.3710938,0.7109375 C 3.2956038,0.71040028 3.2194612,0.71192561 3.1425781,0.7148435 2.8830908,0.7246925 2.6320104,0.8024555 2.3261719,0.93554663 2.0203334,1.0686381 1.6807339,1.2617754 1.3554688,1.5273438 0.70493833,2.0584804 0.10216157,2.9132125 0.10351562,4.0546875 0.10606126,6.2026029 1.4792493,7.5337991 2.0175781,8.0683594 3.2835151,9.3254334 4.5165853,10.190685 5.6835938,11.339844 5.7945594,11.449112 6,11.683594 6,11.683594 c 0,0 0.2142521,-0.233636 0.328125,-0.34375 C 7.505511,10.201319 8.7282025,9.3254347 9.9941406,8.0683594 10.53247,7.5337986 11.903704,6.2026049 11.90625,4.0546875 11.907603,2.9132117 11.304827,2.0584809 10.654297,1.5273438 10.329031,1.2617752 9.9913856,1.0686382 9.6855469,0.93554688 9.3797082,0.8024556 9.1286284,0.72469268 8.8691406,0.71484375 8.2540752,0.69149864 7.6855181,0.77676908 7.1328125,1.0019531 6.7849013,1.1436994 6.4594559,1.3878012 6.1777344,1.6035156 6.1096673,1.6556346 6.0643355,1.6933873 6.0058594,1.7402344 5.9473833,1.6933873 5.9020514,1.6556346 5.8339844,1.6035156 5.5522631,1.3878014 5.2268171,1.1436993 4.8789062,1.0019531 4.3952894,0.80491731 3.8995205,0.71469803 3.3710938,0.7109375 Z m -0.00586,0.9980469 c 0.4193116,0.00185 0.7683812,0.070635 1.1367187,0.2207031 0.1389205,0.056599 0.4700184,0.2718563 0.7246094,0.4667969 0.254591,0.1949405 0.3160342,0.228134 0.4511719,0.3671875 C 5.8007042,2.8902049 6,3.1835938 6,3.1835938 c 0,0 0.2082319,-0.2927489 0.3339844,-0.4199219 C 6.4703218,2.6257944 6.530565,2.5914251 6.7851562,2.3964844 7.0397476,2.2015436 7.3708452,1.9862865 7.5097656,1.9296875 7.9307233,1.7581804 8.3255709,1.6937418 8.8300781,1.7128906 c 0.020406,7.745e-4 0.2284993,0.040072 0.4550781,0.1386719 0.2265788,0.0986 0.4937942,0.2515565 0.7382818,0.4511719 0.488972,0.3992307 0.883757,0.9545403 0.882812,1.7519531 C 10.9042,5.7845474 9.8428374,6.8094633 9.2910156,7.3574219 8.3390493,8.3027235 6.0058594,10.300781 6.0058594,10.300781 c 0,0 -2.3331909,-1.9980584 -3.2851563,-2.9433591 C 2.168882,6.8094638 1.1055658,5.7845456 1.1035156,4.0546875 1.1025697,3.2572757 1.4993084,2.7019646 1.9882812,2.3027344 2.2327678,2.1031192 2.4980305,1.9501623 2.7246094,1.8515625 2.951188,1.7529627 3.1612352,1.7136651 3.1816406,1.7128906 3.244704,1.710497 3.3053327,1.70872 3.3652338,1.7089844 Z" />
</svg>