<?xml version="1.0" encoding="UTF-8"?>
<svg width="14" height="16" viewBox="0 0 14 16" version="1.1"
   xmlns="http://www.w3.org/2000/svg" xmlns:svg="http://www.w3.org/2000/svg">
  <path id="matrix--ctl-glyph" fill="#a6a6a6" stroke="none" stroke-width="0" d="M 0,0 V 3.58399 H 3.4571 V 0 Z M 3.9571,0 v 3.58399 h 6.08398 V 0 Z m 6.58398,0 v 3.58399 h 3.45899 V 0 Z M 7e-5,4.08399 v 6.08203 H 3.4571 V 4.08399 Z m 3.95703,0 v 6.08203 h 6.08398 V 4.08399 Z m 6.58398,0 v 6.08203 h 3.45899 V 4.08399 Z M 6.98249,4.7793 c 0.12109,0 0.22266,0.0234 0.30273,0.0703 0.082,0.0449 0.14649,0.10353 0.19531,0.17578 0.0508,0.0723 0.0938,0.15039 0.12696,0.23438 0.0351,0.082 0.0781,0.19335 0.13086,0.33203 l 1.12304,2.77148 c 0.0879,0.21094 0.13086,0.36328 0.13086,0.45899 0,0.0996 -0.041,0.1914 -0.125,0.27539 -0.082,0.082 -0.18164,0.12304 -0.29882,0.12304 -0.0684,0 -0.12696,-0.0117 -0.17579,-0.0371 C 8.34384,9.16009 8.30284,9.12689 8.2696,9.08589 8.2364,9.04299 8.1993,8.9785 8.16022,8.89253 8.12312,8.80463 8.09182,8.72847 8.06452,8.66206 L 7.85944,8.123 H 6.11335 L 5.90827,8.67378 C 5.82817,8.88863 5.75983,9.03315 5.70319,9.10933 5.64649,9.18353 5.55277,9.22065 5.42389,9.22065 5.31452,9.22065 5.21882,9.18155 5.13483,9.10151 5.05083,9.02141 5.00788,8.92964 5.00788,8.82808 c 0,-0.0586 0.01,-0.11915 0.0293,-0.18164 0.0195,-0.0625 0.0527,-0.1484 0.0976,-0.25977 L 6.23244,5.59761 C 6.26374,5.51751 6.30084,5.42182 6.34377,5.3105 6.38867,5.19722 6.43557,5.10347 6.48439,5.02925 6.53519,4.95505 6.6016,4.89448 6.68166,4.84956 6.76366,4.80266 6.86329,4.77926 6.98244,4.77926 Z M 6.97649,5.69727 6.34172,7.46875 H 7.62493 Z M -7e-5,10.66602 V 14 h 3.45703 v -3.33398 z m 3.95703,0 V 14 h 6.08398 v -3.33398 z m 6.58398,0 V 14 h 3.45899 v -3.33398 z" />
</svg>
