<?xml version="1.0" encoding="UTF-8" standalone="no"?>
<!-- Created with Inkscape (http://www.inkscape.org/) -->

<svg
   width="14"
   height="14"
   viewBox="0 0 14 14"
   version="1.1"
   id="svg1"
   inkscape:version="1.3.2 (091e20e, 2023-11-25, custom)"
   sodipodi:docname="note.svg"
   xmlns:inkscape="http://www.inkscape.org/namespaces/inkscape"
   xmlns:sodipodi="http://sodipodi.sourceforge.net/DTD/sodipodi-0.dtd"
   xmlns="http://www.w3.org/2000/svg"
   xmlns:svg="http://www.w3.org/2000/svg">
  <sodipodi:namedview
     id="namedview1"
     pagecolor="#181818"
     bordercolor="#666666"
     borderopacity="1.0"
     inkscape:showpageshadow="2"
     inkscape:pageopacity="0.0"
     inkscape:pagecheckerboard="0"
     inkscape:deskcolor="#707070"
     inkscape:document-units="px"
     inkscape:zoom="85.4"
     inkscape:cx="7.76"
     inkscape:cy="4.19"
     inkscape:current-layer="layer1" />
  <defs
     id="defs1" />
  <g
     inkscape:label="Layer 1"
     inkscape:groupmode="layer"
     id="layer1">
    <path
       d="M 7.81241 1.00099 L 8.17334 1.00099 C 8.8271 1.40051 9.56712 2.01568 10.3934 2.8465 C 11.1652 3.68186 11.5511 4.2514 11.5511 4.55513 C 11.5511 4.61914 11.5284 4.70904 11.483 4.82481 C 11.3922 4.93649 11.3014 4.99233 11.2106 4.99233 C 11.1198 4.99233 11.0063 4.90448 10.8701 4.72878 C 10.6431 4.46365 10.2345 4.08365 9.6443 3.58879 C 9.10404 3.09393 8.63188 2.71938 8.22782 2.46514 L 8.37764 10.6916 C 8.37764 11.1774 8.2369 11.561 7.95542 11.8425 C 7.67394 12.1104 7.24037 12.3805 6.65471 12.6529 C 6.07359 12.8799 5.49247 12.9934 4.91135 12.9934 C 4.12593 12.9934 3.51485 12.7891 3.0781 12.3805 C 2.64317 11.9946 2.4257 11.5497 2.4257 11.0457 C 2.4257 10.4056 2.74804 9.84718 3.39272 9.37048 C 4.04648 8.88924 4.78877 8.64862 5.61959 8.64862 C 6.39139 8.64862 7.18362 8.83703 7.99628 9.21385 Z"
       id="text1"
       style="font-style:italic;font-weight:600;font-size:18px;line-height:1.25;font-family:'Bookman Old Style';-inkscape-font-specification:'Bookman Old Style Semi-Bold Italic';font-variant-ligatures:none;text-align:center;text-orientation:upright;text-anchor:middle;fill:#a6a6a6"
       aria-label="♪" />
  </g>
</svg>
