<?xml version="1.0" encoding="UTF-8"?>
<svg width="64" height="64" viewBox="0 0 64 64" version="1.1" xmlns="http://www.w3.org/2000/svg" xmlns:svg="http://www.w3.org/2000/svg">
<radialGradient id="rg" cx="28" cy="29" r="32" gradientUnits="userSpaceOnUse">
<stop stop-color="#fecd9a" stop-opacity="1" offset="0" />
<stop stop-color="#fb9931" stop-opacity="1" offset="1" />
</radialGradient>
<path id="spin-hexoid" fill="url(#rg)" d="M 40.221806,-8e-7 8.3987425,8.8800768 0.1769385,40.880077 23.778199,64.000001 l 31.823065,-8.878766 8.221797,-32 z" />
<path id="spin-CHEM" d="M 57.613281 19.533203 L 52.822266 20.123047 L 51.501953 28.691406 L 48.144531 20.699219 L 43.353516 21.289062 L 45.332031 37.359375 L 49.134766 36.892578 L 48.294922 30.066406 L 50.5625 35.041016 L 53.957031 34.623047 L 54.935547 29.140625 L 55.787109 36.072266 L 59.591797 35.605469 L 57.613281 19.533203 z M 42.076172 21.447266 L 30.892578 22.824219 L 32.871094 38.894531 L 44.054688 37.517578 L 43.568359 33.560547 L 36.443359 34.4375 L 36.191406 32.388672 L 42.195312 31.648438 L 41.708984 27.693359 L 35.703125 28.431641 L 35.439453 26.279297 L 42.564453 25.402344 L 42.076172 21.447266 z M 28.904297 23.068359 L 24.84375 23.568359 L 25.597656 29.685547 L 21.552734 30.183594 L 20.798828 24.066406 L 16.742188 24.564453 L 18.720703 40.636719 L 22.777344 40.136719 L 22.039062 34.140625 L 26.083984 33.642578 L 26.822266 39.638672 L 30.882812 39.138672 L 28.904297 23.068359 z M 10.472656 25.226562 C 10.223307 25.228913 9.9694979 25.245756 9.7128906 25.277344 C 8.4986694 25.426813 7.4501033 25.791972 6.5996094 26.398438 L 6.5976562 26.398438 L 6.5957031 26.400391 C 5.7558719 27.003796 5.1374702 27.823221 4.7773438 28.806641 C 4.4152197 29.795501 4.3265756 30.925622 4.4804688 32.175781 L 4.9804688 36.238281 C 5.1335802 37.482089 5.4955985 38.555018 6.0859375 39.431641 L 6.0859375 39.433594 C 6.6740407 40.300648 7.4732301 40.946705 8.4335938 41.328125 L 8.4375 41.328125 L 8.4394531 41.330078 C 9.4098434 41.704131 10.515323 41.801687 11.728516 41.652344 C 12.75495 41.525991 13.674061 41.186994 14.445312 40.628906 C 15.213026 40.073376 15.814291 39.323543 16.236328 38.417969 C 16.664763 37.503871 16.902286 36.455389 16.962891 35.287109 L 17.001953 34.527344 L 12.841797 35.039062 L 12.796875 35.556641 C 12.739915 36.221406 12.556773 36.691386 12.283203 37.03125 C 12.009365 37.364097 11.69971 37.535747 11.228516 37.59375 C 10.577035 37.67395 10.161764 37.550553 9.8144531 37.253906 C 9.4761717 36.95828 9.2344775 36.488977 9.140625 35.726562 L 8.640625 31.664062 C 8.546497 30.89941 8.6657692 30.382628 8.9238281 30.013672 C 9.1896127 29.634286 9.5632941 29.413949 10.212891 29.333984 C 10.516499 29.296614 10.762547 29.330427 10.998047 29.429688 L 11.001953 29.431641 L 11.003906 29.433594 C 11.251068 29.535164 11.46885 29.695697 11.677734 29.945312 L 11.683594 29.951172 L 11.689453 29.955078 C 11.897742 30.192729 12.080402 30.514494 12.228516 30.935547 L 12.400391 31.419922 L 16.550781 30.910156 L 16.333984 30.185547 C 15.998264 29.05931 15.519802 28.097317 14.880859 27.318359 C 14.251346 26.541621 13.480592 25.96089 12.595703 25.609375 C 11.933017 25.343579 11.220703 25.219511 10.472656 25.226562 z " />
</svg>
