<?xml version="1.0" encoding="UTF-8" ?>
<svg width="74" height="74" viewBox="0 0 74 74" version="1.1"
   xmlns="http://www.w3.org/2000/svg"
   xmlns:svg="http://www.w3.org/2000/svg">
  <defs/>
  <radialGradient id="rg" cx="28" cy="29" r="32" gradientUnits="userSpaceOnUse" gradientTransform="scale(1.125)">
    <stop stop-color="#fecd9a" offset="0" />
    <stop stop-color="#fb9931" offset="1" />
  </radialGradient>
  <g transform="translate(2,2)">
    <path id="spin-hexoid" fill="url(#rg)" d="M 45.249533,0 9.4485866,9.9900869 0.1990564,45.990087 26.750475,72.000001 62.551423,62.01139 l 9.249521,-36 z" />
    <path id="spin-CHEM" d="m 64.814942,21.974854 -5.389892,0.663574 -1.485352,9.639404 -3.7771,-8.99121 -5.389892,0.663573 2.22583,18.079102 4.278077,-0.525146 -0.944825,-7.679444 2.551025,5.596436 3.818848,-0.470215 1.10083,-6.167725 0.958007,7.798096 4.280274,-0.525146 z m -17.479248,2.15332 -12.581543,1.549073 2.225831,18.079101 12.581543,-1.549072 -0.54712,-4.45166 -8.015625,0.986572 -0.283447,-2.304932 6.754394,-0.832763 -0.547119,-4.449464 -6.756592,0.830567 -0.296631,-2.421387 8.015625,-0.986572 z m -14.818359,1.82373 -4.568115,0.5625 0.848144,6.881837 -4.550537,0.560302 -0.848145,-6.881836 -4.56372,0.560303 2.22583,18.081299 4.563721,-0.5625 -0.830567,-6.745606 4.550537,-0.560302 0.830567,6.745605 4.568114,-0.5625 z m -20.735596,2.427978 c -0.280518,0.0027 -0.566053,0.02159 -0.854736,0.05713 -1.3659984,0.168153 -2.5456354,0.578956 -3.5024414,1.261231 h -0.0022 l -0.0021,0.0022 c -0.944811,0.67883 -1.6405128,1.600683 -2.045655,2.707031 -0.4073896,1.112467 -0.5071142,2.383854 -0.3339844,3.790283 l 0.5625,4.570312 c 0.1722504,1.399284 0.5795214,2.606329 1.2436524,3.59253 v 0.0022 c 0.661616,0.975436 1.560704,1.70225 2.641113,2.131347 h 0.0044 l 0.0023,0.0022 c 1.0916904,0.42081 2.3353544,0.530561 3.7001964,0.36255 1.154738,-0.142147 2.188738,-0.523519 3.056396,-1.151368 0.863678,-0.624971 1.540101,-1.468533 2.014893,-2.487304 0.481989,-1.028361 0.749202,-2.207903 0.817383,-3.522218 l 0.04394,-0.854735 -4.680176,0.575682 -0.05053,0.582277 c -0.06408,0.74786 -0.270115,1.276588 -0.577881,1.658935 -0.308068,0.374453 -0.65643,0.567559 -1.186523,0.632812 -0.732916,0.09022 -1.200096,-0.0486 -1.590821,-0.382324 -0.380562,-0.332736 -0.652468,-0.860702 -0.758053,-1.718418 L 9.7209116,35.621922 c -0.105896,-0.860233 0.02828,-1.441613 0.3186044,-1.856689 0.299008,-0.426809 0.719399,-0.674688 1.450195,-0.764649 0.341559,-0.04204 0.618363,-0.004 0.883301,0.107663 l 0.0044,0.0022 0.0023,0.0023 c 0.278058,0.114266 0.523062,0.294866 0.758057,0.575683 l 0.0066,0.0066 0.0066,0.0044 c 0.234325,0.267357 0.439818,0.629343 0.606446,1.103027 l 0.193359,0.544922 4.669189,-0.573487 -0.243897,-0.815185 C 17.998241,32.691864 17.459972,31.609621 16.741161,30.733294 16.032959,29.859463 15.16586,29.206141 14.17036,28.810687 13.424838,28.511666 12.623485,28.37209 11.781932,28.380022 Z" />
  </g>
</svg>
