<?xml version="1.0" encoding="UTF-8" standalone="no"?>
<svg width="16" height="16" viewBox="0 0 16 16" version="1.1"
   xmlns:xlink="http://www.w3.org/1999/xlink"
   xmlns="http://www.w3.org/2000/svg" xmlns:svg="http://www.w3.org/2000/svg">
   <defs>
      <linearGradient id="bezel" gradientUnits="userSpaceOnUse" 
         x1="6" y1="0" x2="8" y2="15" >
         <stop stop-color="#999999" offset="0" />
         <stop stop-color="#333333" offset="1" />
      </linearGradient>
      <linearGradient id="g-face" gradientUnits="userSpaceOnUse" 
         x1="9.5" y1="0" x2="12" y2="12.5" >
         <stop stop-color="#d9d9d9" offset="0" />
         <stop stop-color="#404040" offset="1" />
      </linearGradient>
   </defs>
   <g>
      <rect id="qbtn-punch" fill="#000000" width="16" height="16" x="0" y="0" rx="1" ry="1" />
      <path id="qbtn-bezel" fill="url(#bezel)" d="M 1.994141,0.75 C 1.654345,0.75 1.354657,0.91646 1.173828,1.17382 0.91757,1.35479 0.75,1.65324 0.75,1.99218 v 12.01563 c 0,0.33894 0.16757,0.63544 0.423828,0.8164 C 1.354657,15.08158 1.654345,15.25 1.994141,15.25 h 12.013672 c 0.339403,0 0.635514,-0.16892 0.816406,-0.42579 C 15.081081,14.64332 15.25,14.34722 15.25,14.00781 V 1.99218 C 15.25,1.65278 15.081081,1.35472 14.824219,1.17382 14.643327,0.91696 14.347215,0.75 14.007813,0.75 Z" />
      <path id="qbtn-hi-l" fill="#8c8c8c" opacity="0.4" d="M 1.174805,1.1748023 C 0.91854363,1.3557701 0.75000046,1.6533816 0.75000046,1.9923152 V 14.00768 c 0,0.338933 0.16854317,0.63655 0.42480454,0.81751 L 8.0037763,7.9999978 Z" />
      <path id="qbtn-hi-r" fill="#666666" opacity="0.4" d="M 14.825196,1.1748023 8.0037763,7.9999978 14.825196,14.82519 c 0.256862,-0.180892 0.424805,-0.478103 0.424805,-0.81751 V 1.9923152 c 0,-0.3394005 -0.167943,-0.6366205 -0.424805,-0.8175129 z" />
      <path id="qbtn-hi-t" fill="#d9d9d9" opacity="0.4" d="m 1.9942058,0.74999777 c -0.3397959,0 -0.6385722,0.1674402 -0.8194008,0.42480453 L 8.0037763,7.9999978 14.825196,1.1748023 C 14.644304,0.91794064 14.347088,0.74999777 14.007683,0.74999777 Z" />
      <path id="qbtn-hi-b" fill="#343434" opacity="0.4" d="M 7.9962247,7.9999978 14.825196,14.82519 c -0.180829,0.257366 -0.479605,0.424812 -0.819401,0.424812 H 1.992318 c -0.339405,0 -0.636621,-0.167949 -0.817513,-0.424812 z" />
      <rect id="qbtn-face" fill="url(#g-face)" width="12" height="12" x="2" y="2" rx="1" ry="1" />
   </g>
</svg>