<?xml version="1.0" encoding="UTF-8" standalone="no"?>
<svg width="16" height="16" viewBox="0 0 16 16" version="1.1"
   xmlns="http://www.w3.org/2000/svg" xmlns:svg="http://www.w3.org/2000/svg">
   <defs>
      <linearGradient id="gbezel" gradientUnits="userSpaceOnUse"
         x1="5" y1="1" x2="8" y2="16" >
         <stop stop-color="#2e2e2e" offset="0" />
         <stop stop-color="#595959" offset="1" />
      </linearGradient>
      <linearGradient id="g-face" gradientUnits="userSpaceOnUse"
         x1="5" y1="0" x2="7.5" y2="15" >
         <stop stop-color="#8c8c8c" offset="0" />
         <stop stop-color="#404040" offset="1" />
      </linearGradient>
   </defs>
   <g>
      <rect id="qbtn-punch" fill="#000000" width="16" height="16" x="0" y="0" rx="1" ry="1" inkscape:label="qbtn-punch" />
      <path id="qbtn-dn-bezel" fill="url(#gbezel)" d="M 1.994141,0.75 C 1.654345,0.75 1.354657,0.91646 1.173828,1.17382 0.91757,1.35479 0.75,1.65324 0.75,1.99218 v 12.01563 c 0,0.33894 0.16757,0.63544 0.423828,0.8164 C 1.354657,15.08158 1.654345,15.25 1.994141,15.25 h 12.013672 c 0.339403,0 0.635514,-0.16892 0.816406,-0.42579 C 15.081081,14.64332 15.25,14.34722 15.25,14.00781 V 1.99218 C 15.25,1.65278 15.081081,1.35472 14.824219,1.17382 14.643327,0.91696 14.347215,0.75 14.007813,0.75 Z" />
      <path id="qbtn-dn-hi-l" fill="#666666" opacity="0.16" d="M 1.1748031,14.825193 7.9962227,7.9999972 1.1748031,1.1748046 C 0.91794136,1.355697 0.74999849,1.6529083 0.74999849,1.9923147 V 14.00768 c 0,0.3394 0.16794287,0.63662 0.42480461,0.817513 z" />
      <path id="qbtn-dn-hi-r" fill="#8c8c8c" opacity="0.16" d="m 14.825194,14.825193 c 0.256261,-0.180968 0.424805,-0.47858 0.424805,-0.817513 V 1.9923147 c 0,-0.3389327 -0.168544,-0.6365501 -0.424805,-0.8175101 L 7.9962227,7.9999972 Z" />
      <path id="qbtn-dn-hi-t" fill="#404040" opacity="0.16" d="M 7.9962227,7.9999972 14.825194,1.1748046 C 14.644365,0.91743932 14.345589,0.74999331 14.005793,0.74999331 H 1.992316 c -0.3394054,0 -0.6366206,0.16794867 -0.8175129,0.42481129 z" />
      <path id="qbtn-dn-hi-b" fill="#c6c6c6" opacity="0.16" d="m 14.005793,15.249997 c 0.339796,0 0.638572,-0.16744 0.819401,-0.424804 L 7.9962227,7.9999972 1.1748031,14.825193 c 0.1808923,0.256861 0.4781075,0.424804 0.8175129,0.424804 z" />
      <rect id="qbtn-dn-face" fill="url(#g-face)" width="12" height="12" x="2" y="2" rx="1" ry="1" />
   </g>
</svg>