<?xml version="1.0" encoding="UTF-8"?>
<svg width="14" height="14" viewBox="0 0 14 14" version="1.1"
   xmlns="http://www.w3.org/2000/svg"
   xmlns:svg="http://www.w3.org/2000/svg">
  <g>
  <circle id="a--ctl-active" cx ="28%" cy ="50%" r="1" fill="#5b74f0" />
  <path id="Type--ctl-active" fill="#5b74f0" stroke="none" stroke-width="0" d="M 1.58682,1 H 12.39617 L 13.0085,3.80652 H 12.39617 Q 11.74132,2.70943 11.02693,2.19915 10.31254,1.68887 9.6747,1.58682 9.04536,1.48476 8.02481,1.46775 v 9.66974 q 0,0.5613 0.1786,0.85896 0.17859,0.28916 0.58681,0.39972 0.40822,0.11056 1.13962,0.13607 V 13 H 3.96811 v -0.46776 q 0.7399,-0.017 1.13111,-0.11056 0.39972,-0.10206 0.59532,-0.40821 0.20412,-0.31468 0.20412,-0.97803 V 1.46775 Q 4.98016,1.47675 4.29979,1.65485 3.61942,1.82494 3.16017,2.1226 2.70093,2.42026 2.39476,2.76045 2.0971,3.09213 1.51027,3.80652 H 0.9915 Z M 12.04749,2.82849 11.66478,1.46775 h -1.59887 q 0.64635,0.20411 1.08009,0.52728 0.43374,0.32318 0.90149,0.83346 z M 6.7236,10.83983 V 2.4798 Q 6.7236,1.98654 6.60454,1.7399 6.49398,1.49326 6.17931,1.46775 v 9.66974 q 0,0.52728 -0.12757,0.84195 -0.12757,0.31467 -0.47626,0.5528 h 0.1871 q 0.62083,0 0.79093,-0.39121 0.17009,-0.39121 0.17009,-1.3012 z M 3.16868,1.46775 H 1.79093 L 1.45925,2.91354 Q 1.89298,2.34372 2.21616,2.07158 2.53933,1.79092 3.16868,1.46775 Z" />
  </g>
</svg>
