<?xml version="1.0" encoding="UTF-8" standalone="no"?>
<svg
   width="110"
   height="110"
   viewBox="0 0 110 110"
   version="1.1"
   xmlns="http://www.w3.org/2000/svg"
   xmlns:svg="http://www.w3.org/2000/svg">
  <path
     id="hexoid"
     fill="#f9a54b"
     d="M 55.273385,3.3767537 10.430641,28.951722 10.15701,80.57497 54.726124,106.62325 99.56937,81.050265 99.842991,29.427022 Z M 45.594787,17.573066 c 9.045022,-2.272912 18.133549,-1.162922 25.934327,2.535101 l 5.650821,3.304136 c 7.314501,5.133563 12.893077,12.816284 15.246759,22.18273 0.5464,2.174392 0.887154,4.350368 1.053546,6.511247 l -0.03325,6.31487 C 92.439883,69.854267 86.348857,80.283234 76.91857,86.777782 l -5.602019,3.195504 c -2.183198,1.013863 -4.489319,1.844909 -6.91183,2.453658 -9.047011,2.273412 -18.137329,1.16192 -25.939261,-2.538056 L 32.820073,86.589686 C 25.505237,81.456099 19.926565,73.771697 17.572812,64.404968 17.026414,62.230586 16.685658,60.05461 16.519267,57.893731 l 0.03425,-6.310926 C 17.560404,40.141127 23.657232,29.703652 33.098671,23.209381 l 5.558174,-3.169818 c 2.190923,-1.019441 4.505726,-1.855308 6.937942,-2.466497 z" />
  <circle
     id="pin"
     cx="55"
     cy="11"
     r="1.75"
     fill="#000000"
     />
</svg>
