<?xml version="1.0" encoding="UTF-8" ?>
<svg width="110" height="110" viewBox="0 0 110 110" version="1.1" 
xmlns="http://www.w3.org/2000/svg"
xmlns:svg="http://www.w3.org/2000/svg">
<g id="logo" transform="translate(5,5)">
    <path id="pachde" fill="#f9a54b" d="m 39.404297,23.550781 -2.800781,5.539063 -4.800782,-1.285156 -0.912109,3.410156 4.072266,1.089844 -2.0625,4.097656 -3.173829,-0.84961 -0.914062,3.410157 2.447266,0.65625 -2.804688,5.539062 3.410156,0.916016 2.804688,-5.542969 5.191406,1.392578 -2.802734,5.541016 3.408203,0.912109 2.802734,-5.539062 4.798828,1.283203 0.914063,-3.408203 -4.087891,-1.09375 2.076172,-4.095703 3.175781,0.851562 0.91211,-3.410156 -2.462891,-0.660156 2.804688,-5.542969 -3.394532,-0.910157 -2.820312,5.53711 L 39.994141,30 42.814453,24.462891 Z m 24.880859,1.234375 -0.941406,3.517578 2.380859,0.640625 -1.298828,4.845703 c -0.786379,-1.687788 -2.069798,-2.771061 -3.849609,-3.25 -1.85092,-0.49567 -3.624159,-0.147196 -5.320313,1.044922 -1.69197,1.181661 -2.837396,2.88758 -3.435547,5.119141 -0.587693,2.198099 -0.461574,4.238802 0.375,6.121094 0.838666,1.882291 2.208123,3.079534 4.111329,3.589843 1.58949,0.426654 3.245545,0.142008 4.966797,-0.853515 l -0.486329,1.816406 7.384766,1.978516 0.945313,-3.519531 -2.509766,-0.671876 4.9375,-18.433593 z m -25.912109,8.433594 5.191406,1.388672 -2.076172,4.097656 -5.195312,-1.392578 z m 21.828125,1.507812 c 0.224698,0.01007 0.456366,0.04754 0.695312,0.111329 0.80102,0.215418 1.428971,0.715573 1.882813,1.501953 0.464298,0.790562 0.500474,1.916993 0.109375,3.378906 -0.382733,1.432633 -0.971018,2.386573 -1.763672,2.861328 -0.780105,0.468481 -1.573427,0.594462 -2.382812,0.376953 C 57.763395,42.69351 57.119941,42.103549 56.8125,41.1875 c -0.303283,-0.928597 -0.301443,-1.967175 0.0039,-3.113281 0.324173,-1.20885 0.841509,-2.112649 1.554688,-2.712891 0.545864,-0.453318 1.155982,-0.664961 1.830078,-0.634766 z" />
    <path id="CHEM" fill="#f9a54b" d="m 28.542236,53.421572 c -1.206961,0 -2.236858,0.230596 -3.089682,0.69314 -0.845595,0.462545 -1.49312,1.131758 -1.941214,2.006267 -0.448094,0.874498 -0.672819,1.936922 -0.672819,3.187251 v 4.325555 c 0,1.243095 0.224725,2.305519 0.672819,3.187251 0.448094,0.874508 1.095619,1.541682 1.941214,2.004226 0.852824,0.455322 1.882721,0.682983 3.089682,0.682983 0.99737,0 1.881365,-0.211852 2.654688,-0.638262 0.773323,-0.42641 1.412943,-1.044347 1.918856,-1.85381 0.513138,-0.816685 0.870893,-1.800284 1.073258,-2.949432 h -3.077487 c -0.166228,0.787784 -0.474745,1.397811 -0.922839,1.831454 -0.448093,0.42641 -0.996017,0.640291 -1.646476,0.640291 -0.831141,0 -1.478666,-0.252274 -1.941214,-0.758185 C 26.145701,65.274389 25.91804,64.558873 25.91804,63.633785 V 59.30823 c 0,-0.925099 0.227661,-1.640615 0.682982,-2.146516 0.462548,-0.513145 1.110073,-0.770394 1.941214,-0.770394 0.426412,0 0.808785,0.09762 1.148468,0.292707 0.346911,0.195138 0.639619,0.47701 0.87812,0.845597 0.245729,0.361374 0.42709,0.805852 0.542727,1.333442 h 3.077487 c -0.195138,-1.156361 -0.547924,-2.13996 -1.061063,-2.949422 -0.505912,-0.809453 -1.150501,-1.4274 -1.931051,-1.85381 -0.773323,-0.42642 -1.657318,-0.638262 -2.654688,-0.638262 z m 8.140906,0.162615 V 69.34563 h 2.969754 v -6.38467 h 5.658997 v 6.38467 h 2.971785 V 53.584187 h -2.971785 v 6.514752 h -5.658997 v -6.514752 z m 15.068299,0 V 69.34563 h 10.559801 v -2.862022 h -7.588016 v -3.532806 h 6.39483 v -2.862021 h -6.39483 v -3.642573 h 7.588016 v -2.862021 z m 13.269371,0 V 69.34563 h 2.699406 V 58.358965 l 2.90674,9.230424 h 2.622165 L 76.155867,58.1496 v 11.19603 h 2.699396 V 53.584187 H 74.940319 L 71.93804,64.207001 68.935763,53.584187 Z" />
</g>
</svg>