<?xml version="1.0" encoding="UTF-8" standalone="no"?>
<svg width="100" height="100" viewBox="0 0 100 100" version="1.1"
xmlns="http://www.w3.org/2000/svg"
xmlns:svg="http://www.w3.org/2000/svg">
<g opacity="1">
<path id="#d"     fill="#f9a54b" d="M 39.404297 23.550781 L 36.603516 29.089844 L 31.802734 27.804688 L 30.890625 31.214844 L 34.962891 32.304688 L 32.900391 36.402344 L 29.726562 35.552734 L 28.8125 38.962891 L 31.259766 39.619141 L 28.455078 45.158203 L 31.865234 46.074219 L 34.669922 40.53125 L 39.861328 41.923828 L 37.058594 47.464844 L 40.466797 48.376953 L 43.269531 42.837891 L 48.068359 44.121094 L 48.982422 40.712891 L 44.894531 39.619141 L 46.970703 35.523438 L 50.146484 36.375 L 51.058594 32.964844 L 48.595703 32.304688 L 51.400391 26.761719 L 48.005859 25.851562 L 45.185547 31.388672 L 39.994141 30 L 42.814453 24.462891 L 39.404297 23.550781 z M 64.285156 24.785156 L 63.34375 28.302734 L 65.724609 28.943359 L 64.425781 33.789062 C 63.639402 32.101274 62.355983 31.018001 60.576172 30.539062 C 58.725252 30.043392 56.952013 30.391866 55.255859 31.583984 C 53.563889 32.765645 52.418463 34.471564 51.820312 36.703125 C 51.232619 38.901224 51.358738 40.941927 52.195312 42.824219 C 53.033978 44.70651 54.403435 45.903753 56.306641 46.414062 C 57.896131 46.840716 59.552186 46.55607 61.273438 45.560547 L 60.787109 47.376953 L 68.171875 49.355469 L 69.117188 45.835938 L 66.607422 45.164062 L 71.544922 26.730469 L 64.285156 24.785156 z M 38.373047 33.21875 L 43.564453 34.607422 L 41.488281 38.705078 L 36.292969 37.3125 L 38.373047 33.21875 z M 60.201172 34.726562 C 60.42587 34.736628 60.657538 34.774102 60.896484 34.837891 C 61.697504 35.053309 62.325455 35.553464 62.779297 36.339844 C 63.243595 37.130406 63.279771 38.256837 62.888672 39.71875 C 62.505939 41.151383 61.917654 42.105323 61.125 42.580078 C 60.344895 43.048559 59.551573 43.17454 58.742188 42.957031 C 57.763395 42.69351 57.119941 42.103549 56.8125 41.1875 C 56.509217 40.258903 56.511057 39.220325 56.816406 38.074219 C 57.140579 36.865369 57.657915 35.96157 58.371094 35.361328 C 58.916958 34.90801 59.527076 34.696367 60.201172 34.726562 z "/>
<path id="hexoid" fill="#f9a54b" d="M 62.846577,-4e-7 13.123024,13.87512 0.27645025,63.875121 37.153432,100 86.876988,86.12693 l 12.846562,-50 z M 50.000003,11.409473 c 9.326229,0 17.870198,3.291502 24.534513,8.779162 l 4.675179,4.58168 C 85.052538,31.53172 88.590537,40.342354 88.590537,50 c 0,2.241993 -0.199831,4.435404 -0.565088,6.57168 l -1.57126,6.116357 C 82.691068,73.530977 74.242038,82.161032 63.513298,86.161482 l -6.211887,1.733875 c -2.36446,0.451221 -4.803582,0.69518 -7.301408,0.69518 -9.32828,0 -17.87362,-3.293395 -24.538579,-8.783231 L 20.790313,75.231735 C 14.947152,68.470226 11.409469,59.657938 11.409469,50 c 0,-2.241983 0.199829,-4.435394 0.565087,-6.571669 l 1.571267,-6.112289 C 17.310819,26.464746 25.767549,17.827853 36.507037,13.830389 l 6.163104,-1.719648 c 2.373312,-0.454749 4.822029,-0.701268 7.329862,-0.701268 z" />
<path id="CHEM"   fill="#f9a54b" d="m 28.542236,53.421572 c -1.206961,0 -2.236858,0.230596 -3.089682,0.69314 -0.845595,0.462545 -1.49312,1.131758 -1.941214,2.006267 -0.448094,0.874498 -0.672819,1.936922 -0.672819,3.187251 v 4.325555 c 0,1.243095 0.224725,2.305519 0.672819,3.187251 0.448094,0.874508 1.095619,1.541682 1.941214,2.004226 0.852824,0.455322 1.882721,0.682983 3.089682,0.682983 0.99737,0 1.881365,-0.211852 2.654688,-0.638262 0.773323,-0.42641 1.412943,-1.044347 1.918856,-1.85381 0.513138,-0.816685 0.870893,-1.800284 1.073258,-2.949432 h -3.077487 c -0.166228,0.787784 -0.474745,1.397811 -0.922839,1.831454 -0.448093,0.42641 -0.996017,0.640291 -1.646476,0.640291 -0.831141,0 -1.478666,-0.252274 -1.941214,-0.758185 C 26.145701,65.274389 25.91804,64.558873 25.91804,63.633785 V 59.30823 c 0,-0.925099 0.227661,-1.640615 0.682982,-2.146516 0.462548,-0.513145 1.110073,-0.770394 1.941214,-0.770394 0.426412,0 0.808785,0.09762 1.148468,0.292707 0.346911,0.195138 0.639619,0.47701 0.87812,0.845597 0.245729,0.361374 0.42709,0.805852 0.542727,1.333442 h 3.077487 c -0.195138,-1.156361 -0.547924,-2.13996 -1.061063,-2.949422 -0.505912,-0.809453 -1.150501,-1.4274 -1.931051,-1.85381 -0.773323,-0.42642 -1.657318,-0.638262 -2.654688,-0.638262 z m 8.140906,0.162615 V 69.34563 h 2.969754 v -6.38467 h 5.658997 v 6.38467 h 2.971785 V 53.584187 h -2.971785 v 6.514752 h -5.658997 v -6.514752 z m 15.068299,0 V 69.34563 h 10.559801 v -2.862022 h -7.588016 v -3.532806 h 6.39483 v -2.862021 h -6.39483 v -3.642573 h 7.588016 v -2.862021 z m 13.269371,0 V 69.34563 h 2.699406 V 58.358965 l 2.90674,9.230424 h 2.622165 L 76.155867,58.1496 v 11.19603 h 2.699396 V 53.584187 H 74.940319 L 71.93804,64.207001 68.935763,53.584187 Z" />
</g>
</svg>
