<?xml version="1.0" encoding="UTF-8" standalone="no"?>
<svg width="165" height="380" viewBox="0 0 165 380" version="1.1" xml:space="preserve" id="svg3"
  sodipodi:docname="CHEM-core-design.svg" inkscape:version="1.3.2 (091e20e, 2023-11-25, custom)"
  xmlns:inkscape="http://www.inkscape.org/namespaces/inkscape"
  xmlns:sodipodi="http://sodipodi.sourceforge.net/DTD/sodipodi-0.dtd" xmlns="http://www.w3.org/2000/svg"
  xmlns:svg="http://www.w3.org/2000/svg">
  <sodipodi:namedview id="namedview3" pagecolor="#808080" bordercolor="#111111" borderopacity="1"
    inkscape:showpageshadow="0" inkscape:pageopacity="0" inkscape:pagecheckerboard="1" inkscape:deskcolor="#d1d1d1"
    inkscape:zoom="0" inkscape:cx="0" inkscape:cy="0" inkscape:window-width="3000"
    inkscape:window-height="2126" inkscape:window-x="-11" inkscape:window-y="-11" inkscape:window-maximized="1"
    inkscape:current-layer="svg3" showguides="true" showgrid="false" guidecolor="#2cff88" guideopacity="0.6">
    <sodipodi:guide position="0,7.5" orientation="0,-1" id="guide472" inkscape:locked="false" />
    <sodipodi:guide position="0,15" orientation="0,-1" id="guide281" inkscape:locked="false" />
    <sodipodi:guide position="0,365" orientation="0,-1" id="guide3" inkscape:locked="false" />
    <sodipodi:guide position="0,372.5" orientation="0,-1" id="guide3" inkscape:locked="false" />
    <sodipodi:guide position="15,0" orientation="1,0" id="guide282" inkscape:locked="false" />
    <sodipodi:guide position="150,0" orientation="1,0" id="guide2" inkscape:locked="false" />
    <sodipodi:guide position="7.5,0" orientation="1,0" id="guide1" inkscape:locked="false" />
  </sodipodi:namedview>
  <defs id="defs4">
    <linearGradient id="panel">
      <!-- light  --><stop stop-color="#e6e6e6" id="stop1" />
      <!-- dark   --><stop stop-color="#1f1f1f" id="stop4" />
      <!-- mellow --><stop stop-color="#8a7342" id="stop3" />
      <!-- ice    --><stop stop-color="#233d4a" id="stop2" />
    </linearGradient>
    <linearGradient id="b" x1="7.5" y1="1" x2="7.5" y2="12" gradientUnits="userSpaceOnUse">
      <stop offset="0" style="stop-color:#c0c0c0;" id="stop3-7" />
      <stop offset="1" style="stop-color:#404040;" id="stop4-8" />
    </linearGradient>
    <linearGradient id="c" x1="7.5" y1="5" x2="7.5" y2="11" gradientUnits="userSpaceOnUse">
      <stop offset="0" style="stop-color:#a0a0a0;" id="stop5" />
      <stop offset="1" style="stop-color:#505050;" id="stop6" />
    </linearGradient>
  </defs>
  <rect id="rect4" fill="url(#panel)" x="0" y="0" width="165" height="380" sodipodi:insensitive="true" />
  <g id="logo" transform="translate(32,10)">
    <path id="#d" fill="#f9a54b"
      d="M 39.404297 23.550781 L 36.603516 29.089844 L 31.802734 27.804688 L 30.890625 31.214844 L 34.962891 32.304688 L 32.900391 36.402344 L 29.726562 35.552734 L 28.8125 38.962891 L 31.259766 39.619141 L 28.455078 45.158203 L 31.865234 46.074219 L 34.669922 40.53125 L 39.861328 41.923828 L 37.058594 47.464844 L 40.466797 48.376953 L 43.269531 42.837891 L 48.068359 44.121094 L 48.982422 40.712891 L 44.894531 39.619141 L 46.970703 35.523438 L 50.146484 36.375 L 51.058594 32.964844 L 48.595703 32.304688 L 51.400391 26.761719 L 48.005859 25.851562 L 45.185547 31.388672 L 39.994141 30 L 42.814453 24.462891 L 39.404297 23.550781 z M 64.285156 24.785156 L 63.34375 28.302734 L 65.724609 28.943359 L 64.425781 33.789062 C 63.639402 32.101274 62.355983 31.018001 60.576172 30.539062 C 58.725252 30.043392 56.952013 30.391866 55.255859 31.583984 C 53.563889 32.765645 52.418463 34.471564 51.820312 36.703125 C 51.232619 38.901224 51.358738 40.941927 52.195312 42.824219 C 53.033978 44.70651 54.403435 45.903753 56.306641 46.414062 C 57.896131 46.840716 59.552186 46.55607 61.273438 45.560547 L 60.787109 47.376953 L 68.171875 49.355469 L 69.117188 45.835938 L 66.607422 45.164062 L 71.544922 26.730469 L 64.285156 24.785156 z M 38.373047 33.21875 L 43.564453 34.607422 L 41.488281 38.705078 L 36.292969 37.3125 L 38.373047 33.21875 z M 60.201172 34.726562 C 60.42587 34.736628 60.657538 34.774102 60.896484 34.837891 C 61.697504 35.053309 62.325455 35.553464 62.779297 36.339844 C 63.243595 37.130406 63.279771 38.256837 62.888672 39.71875 C 62.505939 41.151383 61.917654 42.105323 61.125 42.580078 C 60.344895 43.048559 59.551573 43.17454 58.742188 42.957031 C 57.763395 42.69351 57.119941 42.103549 56.8125 41.1875 C 56.509217 40.258903 56.511057 39.220325 56.816406 38.074219 C 57.140579 36.865369 57.657915 35.96157 58.371094 35.361328 C 58.916958 34.90801 59.527076 34.696367 60.201172 34.726562 z " />
    <path id="hexoid" fill="#f9a54b"
      d="M 62.846577,-4e-7 13.123024,13.87512 0.27645025,63.875121 37.153432,100 86.876988,86.12693 l 12.846562,-50 z M 50.000003,11.409473 c 9.326229,0 17.870198,3.291502 24.534513,8.779162 l 4.675179,4.58168 C 85.052538,31.53172 88.590537,40.342354 88.590537,50 c 0,2.241993 -0.199831,4.435404 -0.565088,6.57168 l -1.57126,6.116357 C 82.691068,73.530977 74.242038,82.161032 63.513298,86.161482 l -6.211887,1.733875 c -2.36446,0.451221 -4.803582,0.69518 -7.301408,0.69518 -9.32828,0 -17.87362,-3.293395 -24.538579,-8.783231 L 20.790313,75.231735 C 14.947152,68.470226 11.409469,59.657938 11.409469,50 c 0,-2.241983 0.199829,-4.435394 0.565087,-6.571669 l 1.571267,-6.112289 C 17.310819,26.464746 25.767549,17.827853 36.507037,13.830389 l 6.163104,-1.719648 c 2.373312,-0.454749 4.822029,-0.701268 7.329862,-0.701268 z" />
    <path id="CHEM" fill="#f9a54b"
      d="m 28.542236,53.421572 c -1.206961,0 -2.236858,0.230596 -3.089682,0.69314 -0.845595,0.462545 -1.49312,1.131758 -1.941214,2.006267 -0.448094,0.874498 -0.672819,1.936922 -0.672819,3.187251 v 4.325555 c 0,1.243095 0.224725,2.305519 0.672819,3.187251 0.448094,0.874508 1.095619,1.541682 1.941214,2.004226 0.852824,0.455322 1.882721,0.682983 3.089682,0.682983 0.99737,0 1.881365,-0.211852 2.654688,-0.638262 0.773323,-0.42641 1.412943,-1.044347 1.918856,-1.85381 0.513138,-0.816685 0.870893,-1.800284 1.073258,-2.949432 h -3.077487 c -0.166228,0.787784 -0.474745,1.397811 -0.922839,1.831454 -0.448093,0.42641 -0.996017,0.640291 -1.646476,0.640291 -0.831141,0 -1.478666,-0.252274 -1.941214,-0.758185 C 26.145701,65.274389 25.91804,64.558873 25.91804,63.633785 V 59.30823 c 0,-0.925099 0.227661,-1.640615 0.682982,-2.146516 0.462548,-0.513145 1.110073,-0.770394 1.941214,-0.770394 0.426412,0 0.808785,0.09762 1.148468,0.292707 0.346911,0.195138 0.639619,0.47701 0.87812,0.845597 0.245729,0.361374 0.42709,0.805852 0.542727,1.333442 h 3.077487 c -0.195138,-1.156361 -0.547924,-2.13996 -1.061063,-2.949422 -0.505912,-0.809453 -1.150501,-1.4274 -1.931051,-1.85381 -0.773323,-0.42642 -1.657318,-0.638262 -2.654688,-0.638262 z m 8.140906,0.162615 V 69.34563 h 2.969754 v -6.38467 h 5.658997 v 6.38467 h 2.971785 V 53.584187 h -2.971785 v 6.514752 h -5.658997 v -6.514752 z m 15.068299,0 V 69.34563 h 10.559801 v -2.862022 h -7.588016 v -3.532806 h 6.39483 v -2.862021 h -6.39483 v -3.642573 h 7.588016 v -2.862021 z m 13.269371,0 V 69.34563 h 2.699406 V 58.358965 l 2.90674,9.230424 h 2.622165 L 76.155867,58.1496 v 11.19603 h 2.699396 V 53.584187 H 74.940319 L 71.93804,64.207001 68.935763,53.584187 Z" />
  </g>


  <path style="fill:none;stroke:#1f375c;stroke-width:1px;stroke-linecap:butt;stroke-linejoin:miter;stroke-opacity:1"
    d="M 7.4291588,120.5 158.07393,120.62354" id="path4" sodipodi:nodetypes="cc" inkscape:label="status-bar" />
  <circle style="fill:#4072bf;fill-opacity:1;stroke:none;stroke-opacity:1" id="status-send" cx="88.081924"
    cy="120.56177" r="3" inkscape:label="status-send" />
  <circle style="fill:#53ac53;fill-opacity:1;stroke:none;stroke-opacity:1" id="status-recv" cx="109" cy="120.56177"
    r="3" inkscape:label="status-recv" />
  <g id="g11" inkscape:label="status-dots">
    <circle style="fill:#457aa6;fill-opacity:1;stroke:none;stroke-opacity:1" id="d1--sdot" cx="111.9576" cy="361.71112"
      r="3" />
    <circle style="fill:#bf60be;fill-opacity:1;stroke:none;stroke-opacity:1" id="d2--sdot" cx="103.54114" cy="361.71112"
      r="3" />
    <circle style="fill:#54a754;fill-opacity:1;stroke:none;stroke-opacity:1" id="d3--sdot" cx="95.12468" cy="361.71112"
      r="3" />
    <circle style="fill:#4072bf;fill-opacity:1;stroke:none;stroke-opacity:1" id="d4--sdot" cx="86.708229" cy="361.71112"
      r="3" />
    <circle style="fill:#4072bf;fill-opacity:1;stroke:none;stroke-opacity:1" id="d5--sdot" cx="78.291771" cy="361.71112"
      r="3" />
    <circle style="fill:#4072bf;fill-opacity:1;stroke:none;stroke-opacity:1" id="d6--sdot" cx="69.875313" cy="361.71112"
      r="3" />
    <circle style="fill:#4072bf;fill-opacity:1;stroke:none;stroke-opacity:1" id="d7--sdot" cx="61.458858" cy="361.71112"
      r="3" />
    <circle style="fill:#4072bf;fill-opacity:1;stroke:none;stroke-opacity:1" id="d8--sdot" cx="53.042404" cy="361.71112"
      r="3" />
  </g>
  <g id="g10" transform="translate(15,350)" inkscape:label="reset-button">
    <circle cx="7.5" cy="7.5" r="7.5" id="reset--button-bezel" fill="#808080" />
    <circle cx="7.5" cy="7.5" r="6" id="reset--button-ring" fill="#3a68ac" />
    <circle cx="7.5" cy="7.5" r="4.5" id="reset--button-inset" fill="url(#b)" />
    <circle cx="7.5" cy="7.5" r="4" id="reset--button-face" fill="url(#c)" />
  </g>

  <path id="m1-dytext" fill="#e9e862"
    d="M 11.793329,155 Q 10.513337,155 9.5399945,154.4 8.5800024,153.80001 8.0333312,152.72001 7.5,151.62668 7.5,150.18668 q 0,-1.43999 0.5333312,-2.51999 0.5466712,-1.08 1.5066633,-1.68 0.9733425,-0.6 2.2533345,-0.6 1.400003,0 2.426665,0.69334 1.026672,0.69333 1.480003,1.91999 l -1.093332,0.41333 q -0.346671,-0.90666 -1.066673,-1.39999 -0.719991,-0.50667 -1.746663,-0.50667 -0.946662,0 -1.653333,0.45333 -0.7066617,0.45334 -1.0933326,1.28 -0.3733308,0.81333 -0.3733308,1.94666 0,1.13333 0.3733308,1.96 0.3866709,0.82666 1.0933326,1.27999 0.706671,0.45334 1.653333,0.45334 1.026672,0 1.746663,-0.50667 0.720002,-0.50667 1.066673,-1.4 l 1.093332,0.4 q -0.453331,1.21333 -1.480003,1.92 Q 13.193332,155 11.793329,155 Z m 8.280008,-0.0533 q -0.920002,0 -1.653334,-0.42667 -0.720001,-0.43999 -1.133332,-1.21333 -0.413331,-0.77333 -0.413331,-1.75999 0,-0.98667 0.399991,-1.74666 0.413341,-0.77334 1.133332,-1.2 0.733342,-0.44 1.666674,-0.44 0.933332,0 1.639994,0.44 0.720001,0.42666 1.133332,1.2 0.413341,0.75999 0.413341,1.74666 0,0.98666 -0.413341,1.75999 -0.413331,0.76 -1.133332,1.2 -0.720002,0.44 -1.639994,0.44 z m 0,-1 q 0.626661,0 1.079992,-0.29333 0.466671,-0.30667 0.720002,-0.84 0.253341,-0.54666 0.253341,-1.26666 0,-0.73333 -0.253341,-1.26667 -0.253331,-0.54666 -0.720002,-0.83999 -0.453331,-0.29334 -1.079992,-0.29334 -0.640001,0 -1.106672,0.30667 -0.466661,0.29333 -0.719992,0.82666 -0.253341,0.53334 -0.253341,1.26667 0,0.72 0.253341,1.26666 0.253331,0.53333 0.719992,0.84 0.466671,0.29333 1.106672,0.29333 z m 4.799991,0.89333 v -6.57331 h 1.133332 v 1.39999 l -0.26667,0.0933 q 0.18667,-0.50667 0.506671,-0.85334 0.320001,-0.35999 0.773332,-0.54666 0.453331,-0.2 1.000002,-0.2 1.080002,0 1.693334,0.64 0.613331,0.62666 0.613331,1.86666 v 4.17332 H 29.193327 V 151.08 q 0,-0.99999 -0.37333,-1.46666 -0.360001,-0.48 -1.106673,-0.48 -0.546661,0 -0.933332,0.25333 -0.373331,0.25334 -0.573331,0.8 Q 26.00666,150.72 26.00666,151.56 v 3.27999 z m 9.480011,0.10667 q -0.466671,0 -0.853332,-0.17333 -0.373341,-0.18667 -0.586671,-0.58667 -0.213331,-0.4 -0.213331,-1.02666 v -6.65332 l 1.146663,-0.64 v 6.99998 q 0,0.54667 0.17334,0.85334 0.173331,0.29333 0.626662,0.29333 0.13333,0 0.32,-0.0267 0.186671,-0.04 0.400001,-0.0933 v 0.88 q -0.25333,0.0933 -0.520001,0.13333 -0.253331,0.04 -0.493331,0.04 z m -3.013337,-5.79999 v -0.87999 h 4.026669 v 0.87999 z m 5.426672,5.69332 v -6.57331 h 1.120003 v 6.57331 z m -0.10666,-7.75998 v -1.53333 h 1.333333 v 1.53333 z m 3.133327,7.75998 v -6.57331 h 1.133333 v 1.39999 l -0.266661,0.0933 q 0.18666,-0.50667 0.506661,-0.85334 0.320001,-0.35999 0.773332,-0.54666 0.453331,-0.2 1.000002,-0.2 1.080002,0 1.693334,0.64 0.613331,0.62666 0.613331,1.86666 v 4.17332 H 44.113341 V 151.08 q 0,-0.99999 -0.373331,-1.46666 -0.360001,-0.48 -1.106673,-0.48 -0.546661,0 -0.933332,0.25333 -0.373331,0.25334 -0.573331,0.8 -0.2,0.53333 -0.2,1.37333 v 3.27999 z m 9.506681,0.10667 q -0.706671,0 -1.226673,-0.28 -0.520001,-0.29333 -0.800001,-0.85333 -0.266661,-0.56 -0.266661,-1.38666 v -4.15999 h 1.120003 v 3.75999 q 0,0.65333 0.16,1.09333 0.17333,0.42666 0.506661,0.64 0.333331,0.2 0.826672,0.2 0.546661,0 0.919992,-0.25334 0.386671,-0.26666 0.586671,-0.8 0.200001,-0.53333 0.200001,-1.37333 v -3.26665 h 1.119992 v 6.57331 h -1.119992 v -1.39999 h 0.28 q -0.28,0.73333 -0.893332,1.11999 -0.613341,0.38667 -1.413333,0.38667 z m 7.293336,0 q -0.706661,0 -1.226662,-0.28 -0.520001,-0.29333 -0.800002,-0.85333 -0.266661,-0.56 -0.266661,-1.38666 v -4.15999 h 1.119993 v 3.75999 q 0,0.65333 0.16,1.09333 0.173341,0.42666 0.506671,0.64 0.333331,0.2 0.826662,0.2 0.546671,0 0.920002,-0.25334 0.386671,-0.26666 0.586672,-0.8 0.19999,-0.53333 0.19999,-1.37333 v -3.26665 h 1.120002 v 6.57331 h -1.120002 v -1.39999 h 0.280001 q -0.280001,0.73333 -0.893332,1.11999 -0.613332,0.38667 -1.413334,0.38667 z m 5.173352,-0.10667 v -9.29331 h 1.733334 l 2.919996,7.34665 H 66.2067 l 2.920006,-7.34665 H 70.8467 v 9.29331 h -1.173332 v -7.93331 l 0.0933,0.0133 -2.879997,7.13332 h -1.146662 l -2.893337,-7.13332 0.0933,-0.0133 v 7.93331 z m 11.080005,0 v -6.57331 h 1.119992 v 6.57331 z m -0.106671,-7.75998 v -1.53333 h 1.333333 v 1.53333 z m 3.133337,7.75998 v -6.57331 h 1.133333 v 1.39999 l -0.266671,0.0933 q 0.186671,-0.50667 0.506671,-0.85334 0.320001,-0.35999 0.773332,-0.54666 0.453331,-0.2 1.000002,-0.2 1.079993,0 1.693324,0.64 0.613342,0.62666 0.613342,1.86666 v 4.17332 H 80.193381 V 151.08 q 0,-0.99999 -0.373341,-1.46666 -0.360001,-0.48 -1.106662,-0.48 -0.546671,0 -0.933332,0.25333 -0.373331,0.25334 -0.573332,0.8 -0.2,0.53333 -0.2,1.37333 v 3.27999 z m 7.279997,0 v -6.57331 h 1.120002 v 6.57331 z m -0.106661,-7.75998 v -1.53333 h 1.333333 v 1.53333 z m 9.533337,7.90665 q -1.400008,0 -2.29334,-0.73333 -0.893332,-0.73333 -1.093333,-1.94666 l 1.146673,-0.28 q 0.14666,0.93333 0.759991,1.42666 0.626672,0.48 1.520009,0.48 0.520001,0 0.933332,-0.2 0.413331,-0.2 0.653331,-0.56 0.240001,-0.37333 0.240001,-0.84 0,-0.49333 -0.266661,-0.81333 -0.26667,-0.32 -0.746671,-0.56 -0.466661,-0.24 -1.093333,-0.48 -0.773337,-0.29333 -1.360008,-0.63999 -0.573331,-0.34667 -0.893332,-0.82667 -0.320001,-0.49333 -0.320001,-1.2 0,-0.70666 0.346671,-1.25333 0.346671,-0.54666 0.973332,-0.85333 0.626672,-0.32 1.453339,-0.32 0.880002,0 1.560003,0.4 0.680002,0.4 1.093332,1.18667 l -0.933332,0.57333 q -0.30667,-0.54667 -0.746671,-0.82667 -0.440001,-0.29333 -1.013333,-0.29333 -0.453336,0 -0.813336,0.17333 -0.346671,0.17334 -0.546672,0.48 -0.2,0.30667 -0.2,0.70667 0,0.42666 0.240001,0.73333 0.24,0.29333 0.693341,0.52 0.453336,0.22666 1.093338,0.46666 0.813331,0.30667 1.399993,0.66667 0.586671,0.36 0.906672,0.86666 0.33333,0.49333 0.33333,1.22667 0,0.78666 -0.38667,1.39999 -0.386661,0.61333 -1.066663,0.97333 -0.680001,0.34667 -1.573333,0.34667 z m 4.67998,-0.14667 v -9.29331 h 1.240003 l 4.759993,7.77332 h -0.26666 v -7.77332 h 1.17334 v 9.29331 h -1.26668 l -4.733324,-7.78664 h 0.266661 v 7.78664 z m 11.840016,0 v -7.49331 l 0.34666,0.58666 h -2.77333 v -0.90666 h 1.61333 q 0.4,0 0.6,-0.17333 0.21334,-0.17334 0.21334,-0.6 v -0.70667 h 1.13333 v 9.29331 z m 7.29332,0.10667 q -0.81333,0 -1.50666,-0.34667 -0.68,-0.34666 -1.13333,-0.95999 -0.44,-0.61334 -0.58667,-1.4 l 1.10666,-0.2 q 0.0933,0.50667 0.36,0.93333 0.28,0.41333 0.72,0.65333 0.45333,0.24 1.02667,0.24 0.66666,0 1.13334,-0.30666 0.46666,-0.32 0.70666,-0.82667 0.25333,-0.50666 0.25333,-1.08 0,-0.55999 -0.24,-1.01333 -0.22666,-0.46666 -0.67999,-0.73333 -0.44001,-0.28 -1.09335,-0.28 -0.58666,0 -1.06666,0.26667 -0.48,0.26667 -0.82666,0.77333 l -1.10667,-0.30667 0.86667,-4.81332 h 4.90666 v 1.05333 h -4.49333 l 0.6,-0.47999 -0.65333,3.59999 -0.32,-0.0667 q 0.52,-0.61333 1.09333,-0.85333 0.58666,-0.24 1.15999,-0.24 0.89335,0 1.57334,0.42666 0.69334,0.41334 1.08,1.12 0.38667,0.70667 0.38667,1.54666 0,0.66667 -0.24,1.26667 -0.24,0.58666 -0.68,1.05333 -0.44,0.45333 -1.04,0.72 -0.60001,0.25333 -1.30667,0.25333 z m 7.51999,0 q -0.77333,0 -1.32,-0.28 -0.53333,-0.29333 -0.88001,-0.78666 -0.34666,-0.49334 -0.53333,-1.10667 -0.17333,-0.62666 -0.25333,-1.29333 -0.0667,-0.68 -0.0667,-1.31999 0,-0.62667 0.0667,-1.29333 0.0667,-0.66667 0.24,-1.28 0.18666,-0.61333 0.52,-1.09333 0.34667,-0.49333 0.88001,-0.77333 0.53333,-0.29334 1.30666,-0.29334 0.74666,0 1.26666,0.28 0.53333,0.26667 0.88,0.74667 0.34667,0.46666 0.53334,1.08 0.2,0.59999 0.28,1.27999 0.08,0.68 0.08,1.36 0,0.69333 -0.08,1.37333 -0.08,0.68 -0.28,1.29333 -0.18667,0.61333 -0.53334,1.09333 -0.33333,0.46666 -0.85333,0.74666 -0.52,0.26667 -1.25333,0.26667 z m 0,-1.09333 q 0.69333,0 1.09333,-0.48 0.41333,-0.48 0.58666,-1.30666 0.17334,-0.82667 0.17334,-1.85333 0,-1.08 -0.18667,-1.90666 -0.17333,-0.84 -0.58666,-1.32 -0.41334,-0.48 -1.12,-0.48 -0.56,0 -0.92,0.29333 -0.36,0.29334 -0.56,0.81333 -0.2,0.50667 -0.29333,1.17334 -0.08,0.66666 -0.08,1.41332 0,0.72 0.08,1.38667 0.0933,0.65333 0.29333,1.16 0.21333,0.50666 0.57333,0.81333 0.37334,0.29333 0.94667,0.29333 z m 7.46666,1.09333 q -0.77334,0 -1.32,-0.28 -0.53334,-0.29333 -0.88,-0.78666 -0.34667,-0.49334 -0.53333,-1.10667 -0.17334,-0.62666 -0.25334,-1.29333 -0.0667,-0.68 -0.0667,-1.31999 0,-0.62667 0.0667,-1.29333 0.0667,-0.66667 0.24,-1.28 0.18667,-0.61333 0.52,-1.09333 0.34667,-0.49333 0.88,-0.77333 0.53333,-0.29334 1.30667,-0.29334 0.74667,0 1.26667,0.28 0.53333,0.26667 0.87999,0.74667 0.34667,0.46666 0.53334,1.08 0.2,0.59999 0.28,1.27999 0.08,0.68 0.08,1.36 0,0.69333 -0.08,1.37333 -0.08,0.68 -0.28,1.29333 -0.18667,0.61333 -0.53334,1.09333 -0.33333,0.46666 -0.85333,0.74666 -0.52,0.26667 -1.25333,0.26667 z m 0,-1.09333 q 0.69333,0 1.09333,-0.48 0.41334,-0.48 0.58667,-1.30666 0.17333,-0.82667 0.17333,-1.85333 0,-1.08 -0.18666,-1.90666 -0.17334,-0.84 -0.58667,-1.32 -0.41333,-0.48 -1.12,-0.48 -0.56001,0 -0.92,0.29333 -0.36,0.29334 -0.56,0.81333 -0.2,0.50667 -0.29334,1.17334 -0.08,0.66666 -0.08,1.41332 0,0.72 0.08,1.38667 0.0933,0.65333 0.29334,1.16 0.21333,0.50666 0.57333,0.81333 0.37333,0.29333 0.94667,0.29333 z m 7.37332,1.09333 q -1,0 -1.74667,-0.36 -0.74666,-0.37333 -1.15999,-1.02666 -0.41334,-0.66667 -0.41334,-1.54667 l 1.12,-0.0667 q 0,0.88 0.61333,1.39999 0.61334,0.50667 1.62667,0.50667 0.66666,0 1.14667,-0.21333 0.48,-0.21334 0.73333,-0.61334 0.26667,-0.39999 0.26667,-0.93333 0,-0.49333 -0.21334,-0.81333 -0.21333,-0.33333 -0.58666,-0.52 -0.36001,-0.2 -0.85334,-0.28 -0.49333,-0.08 -1.05333,-0.08 v -0.89333 q 0.41333,0 0.8,-0.0667 0.39999,-0.08 0.70666,-0.25334 0.32001,-0.17333 0.49334,-0.46666 0.18667,-0.29333 0.18667,-0.73333 0,-0.44 -0.21333,-0.77333 -0.21334,-0.33334 -0.58668,-0.50667 -0.37333,-0.18667 -0.88,-0.18667 -0.82666,0 -1.29333,0.45334 -0.46666,0.45333 -0.48,1.15999 l -1.10666,-0.0667 q 0,-0.77333 0.37333,-1.36 0.37333,-0.6 1.02667,-0.93333 0.66666,-0.33333 1.51999,-0.33333 0.81333,0 1.42668,0.32 0.62666,0.30666 0.98666,0.85333 0.36,0.54666 0.36,1.26666 0,0.4 -0.12,0.72 -0.12,0.30666 -0.34667,0.54666 -0.21333,0.24 -0.50666,0.41334 -0.28,0.16 -0.6,0.26666 0.4,0.0933 0.77333,0.26667 0.37333,0.17333 0.66667,0.45333 0.29333,0.28 0.46666,0.66667 0.17333,0.38666 0.17333,0.89333 0,0.83999 -0.42666,1.47999 -0.41333,0.64 -1.16,1 -0.73334,0.36 -1.72,0.36 z"
    aria-label="ContinuuMini SN15003" inkscape:label="mini" />
  <path id="m2-dytext" fill="#e9e862"
    d="m 7.5,190.43784 v -6.57331 h 1.1333325 v 1.39999 l -0.2666706,0.0933 q 0.1866704,-0.50667 0.5066712,-0.85333 0.3200007,-0.36 0.7733317,-0.54667 0.4533312,-0.2 1.0000022,-0.2 1.079991,0 1.693333,0.64 0.613331,0.62667 0.613331,1.86666 v 4.17332 h -1.133332 v -3.75999 q 0,-0.99999 -0.37334,-1.46666 -0.359991,-0.48 -1.106663,-0.48 -0.5466709,0 -0.9333317,0.25334 -0.3733309,0.25333 -0.5733313,0.79999 -0.2000005,0.53334 -0.2000005,1.37333 v 3.27999 z m 11.613335,0 -0.08,-1.31999 v -2.79999 q 0,-0.76 -0.426661,-1.17334 -0.413331,-0.41333 -1.240003,-0.41333 -0.533331,0 -1.000002,0.22667 -0.466661,0.21333 -0.906662,0.73333 l -0.813332,-0.69333 q 0.546661,-0.64 1.253333,-0.93333 0.706661,-0.30667 1.546663,-0.30667 1.293333,0 2.000005,0.66667 0.706661,0.66666 0.706661,1.89333 v 4.11998 z m -2.173325,0.10667 q -0.746672,0 -1.306673,-0.25333 -0.546661,-0.26667 -0.853332,-0.73333 -0.29333,-0.46667 -0.29333,-1.08 0,-0.54667 0.21333,-0.92 0.226671,-0.38666 0.573331,-0.6 0.346671,-0.22666 0.786672,-0.30666 0.453331,-0.0933 0.946662,-0.0933 h 2.133335 v 0.85334 h -1.973334 q -0.293331,0 -0.613332,0.0533 -0.320001,0.0533 -0.560001,0.22667 -0.17333,0.13333 -0.280001,0.33333 -0.0933,0.2 -0.0933,0.46666 0,0.52 0.386671,0.82667 0.386661,0.30666 1.040002,0.30666 0.546662,0 0.986662,-0.25333 0.453331,-0.25333 0.720002,-0.69333 0.280001,-0.45333 0.280001,-1.01333 l 0.466661,0.48 q -0.08,0.70666 -0.426661,1.25333 -0.346671,0.54666 -0.893332,0.85333 -0.533341,0.29333 -1.240003,0.29333 z m 5.053341,-0.10667 v -6.57331 h 1.133333 v 1.39999 l -0.266671,0.0933 q 0.186671,-0.50667 0.506671,-0.85333 0.320001,-0.36 0.773332,-0.54667 0.453331,-0.2 1.000002,-0.2 1.079993,0 1.693334,0.64 0.613331,0.62667 0.613331,1.86666 v 4.17332 h -1.133332 v -3.75999 q 0,-0.99999 -0.373341,-1.46666 -0.359991,-0.48 -1.106662,-0.48 -0.546662,0 -0.933332,0.25334 -0.373331,0.25333 -0.573332,0.79999 -0.2,0.53334 -0.2,1.37333 v 3.27999 z m 10.186673,0.10667 q -0.920002,0 -1.653334,-0.42666 -0.720001,-0.44 -1.133332,-1.21333 -0.413331,-0.77334 -0.413331,-1.76 0,-0.98666 0.400001,-1.74666 0.413331,-0.77333 1.133332,-1.2 0.733332,-0.44 1.666664,-0.44 0.933332,0 1.640004,0.44 0.720001,0.42667 1.133332,1.2 0.413331,0.76 0.413331,1.74666 0,0.98666 -0.413331,1.76 -0.413331,0.75999 -1.133332,1.19999 -0.720002,0.44 -1.640004,0.44 z m 0,-1 q 0.626671,0 1.080002,-0.29333 0.466661,-0.30666 0.720002,-0.84 0.253331,-0.54666 0.253331,-1.26666 0,-0.73333 -0.253331,-1.26666 -0.253341,-0.54667 -0.720002,-0.84 -0.453331,-0.29333 -1.080002,-0.29333 -0.640001,0 -1.106662,0.30666 -0.466671,0.29333 -0.720002,0.82667 -0.253331,0.53333 -0.253331,1.26666 0,0.72 0.253331,1.26666 0.253331,0.53334 0.720002,0.84 0.466661,0.29333 1.106662,0.29333 z m 5.813333,-2.06666 v -1.49333 l 4.62666,-4.83999 h 1.573334 z m -0.920002,2.95999 v -9.29331 h 1.173333 v 9.29331 z m 5.773333,0 -3.159997,-4.99998 0.879992,-0.81333 3.653338,5.81331 z m 5.933343,0.16 q -1.280003,0 -2.253335,-0.59999 -0.960002,-0.6 -1.506663,-1.68 -0.533342,-1.08 -0.533342,-2.51999 0,-1.45333 0.533342,-2.53333 0.546661,-1.08 1.506663,-1.68 0.973332,-0.59999 2.253335,-0.59999 1.306663,0 2.279995,0.59999 0.973332,0.6 1.506663,1.68 0.546672,1.08 0.546672,2.53333 0,1.43999 -0.546672,2.51999 -0.546661,1.08 -1.519993,1.68 -0.973332,0.59999 -2.266665,0.59999 z m 0,-1.11999 q 0.973332,0 1.666664,-0.45334 0.706661,-0.45333 1.093332,-1.27999 0.386671,-0.82667 0.386671,-1.94666 0,-1.13333 -0.386671,-1.96 -0.386671,-0.82666 -1.093332,-1.28 -0.693332,-0.45333 -1.666664,-0.45333 -0.946672,0 -1.653334,0.45333 -0.706671,0.44 -1.093332,1.26667 -0.373341,0.82666 -0.373341,1.97333 0,1.13333 0.373341,1.95999 0.386661,0.82667 1.093332,1.28 0.706662,0.44 1.653334,0.44 z m 6.066654,0.95999 v -9.29331 h 1.239992 l 4.760001,7.77332 h -0.266661 v -7.77332 h 1.173333 v 9.29331 h -1.266673 l -4.73333,-7.78664 h 0.26667 v 7.78664 z m 11.280005,0 v -8.23997 h -3.119997 v -1.05334 h 7.413326 v 1.05334 h -3.106667 v 8.23997 z m 5.559992,0 v -9.29331 h 2.773341 q 1.066663,0 1.746664,0.32 0.680002,0.30667 1.013332,0.89334 0.333331,0.58666 0.333331,1.39999 0,1.16 -0.666661,1.84 -0.666672,0.66666 -1.933335,0.78666 -0.2,0.0133 -0.480001,0.0133 -0.28,0 -0.546671,0 H 72.86002 v 4.03999 z m 5.200007,0 -2.413336,-4.18665 1.200003,-0.14667 2.559996,4.33332 z m -4.026669,-5.07998 h 1.480003 q 0.613331,0 1.066662,-0.16 0.453331,-0.16 0.706662,-0.50667 0.266671,-0.34666 0.266671,-0.92 0,-0.58666 -0.266671,-0.91999 -0.253331,-0.34667 -0.719992,-0.49333 -0.453341,-0.16 -1.053332,-0.16 H 72.86002 Z m 10.493323,5.23998 q -1.280003,0 -2.253335,-0.59999 -0.960002,-0.6 -1.506663,-1.68 -0.533341,-1.08 -0.533341,-2.51999 0,-1.45333 0.533341,-2.53333 0.546661,-1.08 1.506663,-1.68 0.973332,-0.59999 2.253335,-0.59999 1.306663,0 2.279995,0.59999 0.973332,0.6 1.506664,1.68 0.546671,1.08 0.546671,2.53333 0,1.43999 -0.546671,2.51999 -0.546662,1.08 -1.519994,1.68 -0.973332,0.59999 -2.266665,0.59999 z m 0,-1.11999 q 0.973332,0 1.666664,-0.45334 0.706661,-0.45333 1.093332,-1.27999 0.386671,-0.82667 0.386671,-1.94666 0,-1.13333 -0.386671,-1.96 -0.386671,-0.82666 -1.093332,-1.28 -0.693332,-0.45333 -1.666664,-0.45333 -0.946672,0 -1.653334,0.45333 -0.706671,0.44 -1.093332,1.26667 -0.373331,0.82666 -0.373331,1.97333 0,1.13333 0.373331,1.95999 0.386661,0.82667 1.093332,1.28 0.706662,0.44 1.653334,0.44 z m 6.066654,0.95999 v -9.29331 h 1.173332 v 8.23998 h 4.16 v 1.05333 z m 6.186673,0 v -0.93333 q 0.466661,-0.37333 1.079993,-0.82666 0.626671,-0.45333 1.253333,-0.98666 0.640001,-0.53334 1.173332,-1.13334 0.546671,-0.59999 0.880002,-1.26666 0.33334,-0.66666 0.33334,-1.37333 0,-0.78666 -0.44,-1.28 -0.440001,-0.49333 -1.293333,-0.49333 -0.626671,0 -1.053342,0.29333 -0.413331,0.28 -0.626662,0.78667 -0.2,0.49333 -0.21333,1.13333 l -1.106673,-0.08 q 0,-0.65333 0.200001,-1.22666 0.2,-0.58667 0.586671,-1.02667 0.386661,-0.45333 0.946662,-0.70666 0.573332,-0.26667 1.306673,-0.26667 0.839992,0 1.466663,0.36 0.62667,0.34667 0.97333,0.98667 0.36,0.62666 0.36,1.47999 0,0.74667 -0.28,1.44 -0.26666,0.69333 -0.76,1.31999 -0.48,0.62667 -1.106661,1.18667 -0.626672,0.56 -1.333333,1.05333 -0.706672,0.49333 -1.440004,0.90666 l 0.293331,-0.4 h 4.999987 v 1.05333 z"
    aria-label="nanoKONTROL2" inkscape:label="nano" />
  <path id="m1--ctl-label" fill="#3c321c"
    d="M 35.50006,141.11159 V 130.8889 h 1.290673 v 4.38534 h 5.045356 v -4.38534 h 1.290673 v 10.22269 h -1.290673 v -4.63468 h -5.045356 v 4.63468 z m 9.0347,0 3.901352,-10.22269 h 1.026671 l 3.901351,10.22269 h -1.408006 l -2.992014,-8.37469 -3.006681,8.37469 z m 2.170677,-2.40534 0.396002,-1.15867 h 3.696017 l 0.425335,1.15867 z m 9.093362,-0.85067 v -1.64267 l 5.089351,-5.32401 h 1.730684 z m -1.012006,3.25601 V 130.8889 h 1.290677 v 10.22269 z m 6.350698,0 -3.476018,-5.50002 0.968002,-0.89466 4.018689,6.39468 z m 2.948026,0 V 130.8889 h 6.732025 v 1.15867 H 65.37619 v 3.27067 h 4.942691 v 1.15867 H 65.37619 v 3.47601 h 5.441352 v 1.15867 z m 8.580029,0 V 130.8889 h 1.364003 l 5.236012,8.55068 H 78.97223 v -8.55068 h 1.290673 v 10.22269 H 78.86956 l -5.206682,-8.56536 h 0.293341 v 8.56536 z"
    inkscape:label="HAKEN" aria-label="HAKEN" />
  <g inkscape:label="m0" id="layer1" transform="matrix(1.0000022,0,0,1,7.4999988,130)">
    <path id="midi-frame" fill="#d4b268"
      d="m 1.5,3.7548828e-6 h 21 C 23.331,3.7548828e-6 24,0.66900375 24,1.5000038 v 9.0000002 c 0,0.831 -0.669,1.5 -1.5,1.5 h -21 c -0.83100003,0 -1.500000029205323,-0.669 -1.500000029205323,-1.5 V 1.5000038 C -2.9205323e-8,0.66900375 0.66899997,3.7548828e-6 1.5,3.7548828e-6 Z"
      inkscape:label="frame" />
    <path id="midi-face" fill="#60502d"
      d="M 2.4545455,1.7500037 H 21.545455 c 0.528818,0 0.954545,0.3791 0.954545,0.85 v 6.8 c 0,0.4709 -0.425727,0.8500003 -0.954545,0.8500003 H 2.4545455 C 1.9257273,10.250004 1.5,9.8709037 1.5,9.4000037 v -6.8 c 0,-0.4709 0.4257273,-0.85 0.9545455,-0.85 z"
      inkscape:label="face" />
    <path id="midi-label" fill="#e6c070"
      d="M 6.3124715,8.69002 V 7.28463 L 4.9161665,3.93824 Q 4.7837585,3.59596 4.5309785,3.42683 4.2782005,3.25367 3.9852965,3.25367 q -0.3490756,0 -0.6058673,0.21342 -0.2567917,0.21343 -0.2567917,0.54767 l 0.00401,4.41351 q 0,0.20134 0.1524695,0.3141 0.1564827,0.10873 0.3691381,0.10873 0.2126564,0 0.3651264,-0.10873 0.15247,-0.11276 0.15247,-0.3141 V 4.52215 l 1.488589,3.61216 q 0.208643,0.55571 0.658028,0.55571 z m 0.004,0 q 0.445372,0 0.66204,-0.55571 l 1.484577,-3.61216 v 3.90612 q 0,0.20134 0.152471,0.3141 0.156482,0.10873 0.369138,0.10873 0.212655,0 0.365126,-0.10873 0.156481,-0.11276 0.156481,-0.3141 V 4.01476 q 0,-0.33424 -0.256791,-0.54767 -0.256792,-0.21342 -0.601856,-0.21342 -0.292902,0 -0.545682,0.17316 -0.252779,0.16913 -0.385187,0.51141 l -1.400317,3.34639 z m 5.2160815,0.21343 q 0.236729,0 0.409261,-0.16511 0.172532,-0.1651 0.172532,-0.4349 V 3.6926 q 0,-0.2698 -0.172532,-0.4349 -0.172532,-0.16511 -0.40525,-0.16511 -0.232717,0 -0.405249,0.16511 -0.16852,0.1651 -0.16852,0.4349 v 4.61084 q 0,0.2698 0.16852,0.4349 0.168519,0.16511 0.401238,0.16511 z m 2.547854,0.004 h 1.428404 q 1.468528,0 2.26699,-0.74095 0.79846,-0.74096 0.79846,-2.13428 0,-1.42956 -0.79846,-2.17857 Q 16.977339,3.10061 15.416527,3.10061 H 14.1406 q -0.292902,0 -0.465435,0.18122 -0.168519,0.18122 -0.168519,0.49934 v 4.44976 q 0,0.27786 0.160495,0.4792 0.160495,0.19732 0.413274,0.19732 z m 0.57377,-0.88996 V 3.9946 h 0.810499 q 0.670064,0 1.083338,0.19329 0.413275,0.18926 0.621919,0.63625 0.208642,0.44297 0.208642,1.18392 0,1.07518 -0.409262,1.54231 -0.405249,0.46712 -1.420378,0.46712 z m 5.641392,0.88593 q 0.23673,0 0.409261,-0.16511 0.172533,-0.16509 0.172533,-0.4349 V 3.69257 q 0,-0.2698 -0.172533,-0.4349 -0.172531,-0.16511 -0.405248,-0.16511 -0.232718,0 -0.40525,0.16511 -0.16852,0.1651 -0.16852,0.4349 v 4.61084 q 0,0.26981 0.16852,0.4349 0.168519,0.16511 0.401237,0.16511 z"
      aria-label="MIDI" inkscape:label="MIDI" />
  </g>
  <g inkscape:label="m1" id="g22" transform="matrix(1.0000022,0,0,1,7.4999988,165)">
    <path id="path20" fill="#d4b268"
      d="m 1.5,3.7548828e-6 h 21 C 23.331,3.7548828e-6 24,0.66900375 24,1.5000038 v 9.0000002 c 0,0.831 -0.669,1.5 -1.5,1.5 h -21 c -0.83100003,0 -1.500000029205323,-0.669 -1.500000029205323,-1.5 V 1.5000038 C -2.9205323e-8,0.66900375 0.66899997,3.7548828e-6 1.5,3.7548828e-6 Z"
      inkscape:label="frame" />
    <path id="path21" fill="#60502d"
      d="M 2.4545455,1.7500037 H 21.545455 c 0.528818,0 0.954545,0.3791 0.954545,0.85 v 6.8 c 0,0.4709 -0.425727,0.8500003 -0.954545,0.8500003 H 2.4545455 C 1.9257273,10.250004 1.5,9.8709037 1.5,9.4000037 v -6.8 c 0,-0.4709 0.4257273,-0.85 0.9545455,-0.85 z"
      inkscape:label="face" />
    <path id="path22" fill="#e6c070"
      d="M 6.3124715,8.69002 V 7.28463 L 4.9161665,3.93824 Q 4.7837585,3.59596 4.5309785,3.42683 4.2782005,3.25367 3.9852965,3.25367 q -0.3490756,0 -0.6058673,0.21342 -0.2567917,0.21343 -0.2567917,0.54767 l 0.00401,4.41351 q 0,0.20134 0.1524695,0.3141 0.1564827,0.10873 0.3691381,0.10873 0.2126564,0 0.3651264,-0.10873 0.15247,-0.11276 0.15247,-0.3141 V 4.52215 l 1.488589,3.61216 q 0.208643,0.55571 0.658028,0.55571 z m 0.004,0 q 0.445372,0 0.66204,-0.55571 l 1.484577,-3.61216 v 3.90612 q 0,0.20134 0.152471,0.3141 0.156482,0.10873 0.369138,0.10873 0.212655,0 0.365126,-0.10873 0.156481,-0.11276 0.156481,-0.3141 V 4.01476 q 0,-0.33424 -0.256791,-0.54767 -0.256792,-0.21342 -0.601856,-0.21342 -0.292902,0 -0.545682,0.17316 -0.252779,0.16913 -0.385187,0.51141 l -1.400317,3.34639 z m 5.2160815,0.21343 q 0.236729,0 0.409261,-0.16511 0.172532,-0.1651 0.172532,-0.4349 V 3.6926 q 0,-0.2698 -0.172532,-0.4349 -0.172532,-0.16511 -0.40525,-0.16511 -0.232717,0 -0.405249,0.16511 -0.16852,0.1651 -0.16852,0.4349 v 4.61084 q 0,0.2698 0.16852,0.4349 0.168519,0.16511 0.401238,0.16511 z m 2.547854,0.004 h 1.428404 q 1.468528,0 2.26699,-0.74095 0.79846,-0.74096 0.79846,-2.13428 0,-1.42956 -0.79846,-2.17857 Q 16.977339,3.10061 15.416527,3.10061 H 14.1406 q -0.292902,0 -0.465435,0.18122 -0.168519,0.18122 -0.168519,0.49934 v 4.44976 q 0,0.27786 0.160495,0.4792 0.160495,0.19732 0.413274,0.19732 z m 0.57377,-0.88996 V 3.9946 h 0.810499 q 0.670064,0 1.083338,0.19329 0.413275,0.18926 0.621919,0.63625 0.208642,0.44297 0.208642,1.18392 0,1.07518 -0.409262,1.54231 -0.405249,0.46712 -1.420378,0.46712 z m 5.641392,0.88593 q 0.23673,0 0.409261,-0.16511 0.172533,-0.16509 0.172533,-0.4349 V 3.69257 q 0,-0.2698 -0.172533,-0.4349 -0.172531,-0.16511 -0.405248,-0.16511 -0.232718,0 -0.40525,0.16511 -0.16852,0.1651 -0.16852,0.4349 v 4.61084 q 0,0.26981 0.16852,0.4349 0.168519,0.16511 0.401237,0.16511 z"
      aria-label="MIDI" inkscape:label="MIDI" />
  </g>
  <g inkscape:label="m2" id="g25" transform="matrix(1.0000022,0,0,1,7.4999988,200)">
    <path id="path23" fill="#d4b268"
      d="m 1.5,3.7548828e-6 h 21 C 23.331,3.7548828e-6 24,0.66900375 24,1.5000038 v 9.0000002 c 0,0.831 -0.669,1.5 -1.5,1.5 h -21 c -0.83100003,0 -1.500000029205323,-0.669 -1.500000029205323,-1.5 V 1.5000038 C -2.9205323e-8,0.66900375 0.66899997,3.7548828e-6 1.5,3.7548828e-6 Z"
      inkscape:label="frame" />
    <path id="path24" fill="#60502d"
      d="M 2.4545455,1.7500037 H 21.545455 c 0.528818,0 0.954545,0.3791 0.954545,0.85 v 6.8 c 0,0.4709 -0.425727,0.8500003 -0.954545,0.8500003 H 2.4545455 C 1.9257273,10.250004 1.5,9.8709037 1.5,9.4000037 v -6.8 c 0,-0.4709 0.4257273,-0.85 0.9545455,-0.85 z"
      inkscape:label="face" />
    <path id="path25" fill="#e6c070"
      d="M 6.3124715,8.69002 V 7.28463 L 4.9161665,3.93824 Q 4.7837585,3.59596 4.5309785,3.42683 4.2782005,3.25367 3.9852965,3.25367 q -0.3490756,0 -0.6058673,0.21342 -0.2567917,0.21343 -0.2567917,0.54767 l 0.00401,4.41351 q 0,0.20134 0.1524695,0.3141 0.1564827,0.10873 0.3691381,0.10873 0.2126564,0 0.3651264,-0.10873 0.15247,-0.11276 0.15247,-0.3141 V 4.52215 l 1.488589,3.61216 q 0.208643,0.55571 0.658028,0.55571 z m 0.004,0 q 0.445372,0 0.66204,-0.55571 l 1.484577,-3.61216 v 3.90612 q 0,0.20134 0.152471,0.3141 0.156482,0.10873 0.369138,0.10873 0.212655,0 0.365126,-0.10873 0.156481,-0.11276 0.156481,-0.3141 V 4.01476 q 0,-0.33424 -0.256791,-0.54767 -0.256792,-0.21342 -0.601856,-0.21342 -0.292902,0 -0.545682,0.17316 -0.252779,0.16913 -0.385187,0.51141 l -1.400317,3.34639 z m 5.2160815,0.21343 q 0.236729,0 0.409261,-0.16511 0.172532,-0.1651 0.172532,-0.4349 V 3.6926 q 0,-0.2698 -0.172532,-0.4349 -0.172532,-0.16511 -0.40525,-0.16511 -0.232717,0 -0.405249,0.16511 -0.16852,0.1651 -0.16852,0.4349 v 4.61084 q 0,0.2698 0.16852,0.4349 0.168519,0.16511 0.401238,0.16511 z m 2.547854,0.004 h 1.428404 q 1.468528,0 2.26699,-0.74095 0.79846,-0.74096 0.79846,-2.13428 0,-1.42956 -0.79846,-2.17857 Q 16.977339,3.10061 15.416527,3.10061 H 14.1406 q -0.292902,0 -0.465435,0.18122 -0.168519,0.18122 -0.168519,0.49934 v 4.44976 q 0,0.27786 0.160495,0.4792 0.160495,0.19732 0.413274,0.19732 z m 0.57377,-0.88996 V 3.9946 h 0.810499 q 0.670064,0 1.083338,0.19329 0.413275,0.18926 0.621919,0.63625 0.208642,0.44297 0.208642,1.18392 0,1.07518 -0.409262,1.54231 -0.405249,0.46712 -1.420378,0.46712 z m 5.641392,0.88593 q 0.23673,0 0.409261,-0.16511 0.172533,-0.16509 0.172533,-0.4349 V 3.69257 q 0,-0.2698 -0.172533,-0.4349 -0.172531,-0.16511 -0.405248,-0.16511 -0.232718,0 -0.40525,0.16511 -0.16852,0.1651 -0.16852,0.4349 v 4.61084 q 0,0.26981 0.16852,0.4349 0.168519,0.16511 0.401237,0.16511 z"
      aria-label="MIDI" inkscape:label="MIDI" />
  </g>
  <path id="ready--ctl-label" fill="#333333"
    d="m 25.000025,334.2933 v -9.29331 h 2.773326 q 1.066664,0 1.746662,0.32 0.679999,0.30667 1.013331,0.89333 0.333333,0.58667 0.333333,1.4 0,1.16 -0.666665,1.84 -0.666665,0.66666 -1.933329,0.78666 -0.199999,0.0133 -0.479998,0.0133 -0.28,0 -0.546666,0 h -1.066664 v 4.03999 z m 5.199987,0 -2.413327,-4.18665 1.199996,-0.14667 2.559994,4.33332 z m -4.026657,-5.07998 h 1.479997 q 0.613331,0 1.066663,-0.16 0.453333,-0.16 0.706665,-0.50667 0.266666,-0.34666 0.266666,-0.92 0,-0.58666 -0.266666,-0.91999 -0.253332,-0.34667 -0.719998,-0.49334 -0.453332,-0.15999 -1.05333,-0.15999 h -1.479997 z m 9.199972,5.18665 q -0.773331,0 -1.359996,-0.25333 -0.573332,-0.26667 -0.959998,-0.73333 -0.373332,-0.46667 -0.573332,-1.06667 -0.186666,-0.61333 -0.186666,-1.29333 0,-0.68 0.186666,-1.29333 0.186667,-0.62666 0.546666,-1.10666 0.373332,-0.48 0.933331,-0.76 0.559998,-0.28 1.306663,-0.28 0.759998,0 1.306663,0.26667 0.559999,0.25333 0.906665,0.70666 0.359999,0.45333 0.533332,1.01333 0.173333,0.56 0.173333,1.16 0,0.0533 -0.01333,0.25333 0,0.18667 -0.02667,0.33334 h -4.733322 q 0.04,0.95999 0.559999,1.49332 0.519999,0.53334 1.41333,0.53334 0.573332,0 0.999997,-0.18667 0.426666,-0.18667 0.799998,-0.6 l 0.786665,0.69333 q -0.359999,0.38667 -0.759998,0.64 -0.399999,0.24 -0.853331,0.36 -0.439999,0.12 -0.986665,0.12 z m 1.693329,-3.62666 q 0.02667,-0.10666 0.02667,-0.21333 0.01333,-0.10667 0.01333,-0.21333 0,-0.32 -0.119999,-0.64 -0.106667,-0.32 -0.333333,-0.57333 -0.213333,-0.26667 -0.559998,-0.41333 -0.333333,-0.16 -0.799998,-0.16 -0.573332,0 -0.986665,0.26666 -0.413332,0.26667 -0.639998,0.70667 -0.226666,0.44 -0.266666,0.97333 h 4.03999 z m 7.053328,3.51999 -0.08,-1.31999 v -2.8 q 0,-0.75999 -0.426666,-1.17333 -0.413332,-0.41333 -1.239996,-0.41333 -0.533332,0 -0.999998,0.22667 -0.466665,0.21333 -0.906664,0.73333 l -0.813332,-0.69333 q 0.546666,-0.64 1.253331,-0.93333 0.706664,-0.30667 1.546662,-0.30667 1.29333,0 1.999995,0.66667 0.706665,0.66666 0.706665,1.89332 v 4.11999 z m -2.173328,0.10667 q -0.746665,0 -1.306663,-0.25333 -0.546666,-0.26667 -0.853332,-0.73333 -0.293332,-0.46667 -0.293332,-1.08 0,-0.54667 0.213333,-0.92 0.226666,-0.38666 0.573332,-0.6 0.346665,-0.22666 0.786664,-0.30666 0.453332,-0.0933 0.946664,-0.0933 h 2.133328 v 0.85334 h -1.973328 q -0.293333,0 -0.613332,0.0533 -0.319999,0.0533 -0.559998,0.22666 -0.173333,0.13334 -0.28,0.33334 -0.09333,0.2 -0.09333,0.46666 0,0.52 0.386666,0.82667 0.386666,0.30666 1.039997,0.30666 0.546666,0 0.986665,-0.25333 0.453332,-0.25333 0.719998,-0.69333 0.279999,-0.45333 0.279999,-1.01333 l 0.466665,0.48 q -0.08,0.70666 -0.426665,1.25333 -0.346666,0.54666 -0.893331,0.85333 -0.533332,0.29333 -1.239997,0.29333 z m 7.733327,0 q -0.893331,0 -1.573329,-0.44 -0.666665,-0.45333 -1.039998,-1.22666 -0.373332,-0.77333 -0.373332,-1.73333 0,-1.04 0.399999,-1.8 0.399999,-0.75999 1.079997,-1.17333 0.679998,-0.41333 1.506663,-0.41333 0.626665,0 1.119997,0.25333 0.493332,0.24 0.826665,0.66667 0.346666,0.41333 0.479999,0.93333 l -0.32,0.21333 v -4.67999 h 1.119998 v 9.29331 h -1.119998 v -1.95999 l 0.373333,0.12 q -0.173333,0.57333 -0.519999,1.01333 -0.346666,0.44 -0.839998,0.69333 -0.493332,0.24 -1.119997,0.24 z m 0.186666,-1.04 q 0.599999,0 1.053331,-0.29333 0.453332,-0.30667 0.706665,-0.84 0.253332,-0.53333 0.253332,-1.22666 0,-0.69333 -0.253332,-1.22666 -0.253333,-0.53334 -0.706665,-0.82667 -0.453332,-0.30666 -1.053331,-0.30666 -0.599998,0 -1.066664,0.30666 -0.453332,0.29333 -0.719998,0.82667 -0.253333,0.53333 -0.253333,1.22666 0,0.69333 0.253333,1.22666 0.266666,0.53333 0.719998,0.84 0.466666,0.29333 1.066664,0.29333 z m 5.613317,3.63999 1.253331,-3.02665 -2.559994,-6.25332 H 55.4133 l 1.919995,5.11998 1.933328,-5.11998 h 1.226664 l -3.786657,9.27997 z" />
</svg>