<?xml version="1.0" standalone="no"?>
<!DOCTYPE svg PUBLIC "-//W3C//DTD SVG 1.1//EN" "http://www.w3.org/Graphics/SVG/1.1/DTD/svg11.dtd" >
<svg xmlns="http://www.w3.org/2000/svg" xmlns:xlink="http://www.w3.org/1999/xlink" version="1.1" viewBox="-10 0 2068 2048">
   <path fill="currentColor"
d="M1297 38q166 45 304 140.5t237.5 226t154.5 289t55 330.5q0 141 -36.5 272t-103 245t-160 207.5t-207.5 160t-245 103t-272 36.5t-272 -36.5t-245 -103t-207.5 -160t-160 -207.5t-103 -244.5t-36.5 -272.5q0 -140 37 -272t105.5 -248.5t166.5 -212t221 -163.5h-274v-128
h512v512h-128v-297q-117 56 -211.5 140.5t-161.5 190t-103 227.5t-36 251q0 123 32 237.5t90.5 214t140.5 181.5t181.5 140.5t213.5 90.5t238 32q123 0 237.5 -32t214 -90.5t181.5 -140.5t140.5 -181.5t90.5 -213.5t32 -238q0 -150 -48.5 -289t-135.5 -253t-207.5 -197.5
t-265.5 -123.5l34 -123v0z" />
</svg>
