<?xml version="1.0" encoding="UTF-8" standalone="no"?>
<svg
   width="10"
   height="10"
   viewBox="0 0 10 10"
   version="1.1"
   id="svg1"
   xmlns="http://www.w3.org/2000/svg"
   xmlns:svg="http://www.w3.org/2000/svg">
  <g>
    <path
       id="hp--in-label"
       fill="#737373"
       d="M 5,0.59960938 C 3.2141663,0.5996094 1.6166505,1.7183496 1.0058594,3.3964844 0.49486783,4.8004218 0.76517835,6.3479719 1.6679688,7.4882812 1.6669417,7.5129883 1.6662905,7.5377361 1.6660156,7.5625 1.6661265,8.3588551 2.0471449,9.0046639 2.5175781,9.0058594 2.9887741,9.0064888 3.3709824,8.3601457 3.3710938,7.5625 3.3709824,6.7648543 2.9887741,6.1185112 2.5175781,6.1191406 2.2245118,6.1204261 1.9523632,6.3763491 1.796875,6.796875 1.2165411,5.8420765 1.202362,4.6455434 1.5991935,3.5552579 2.1386801,2.0730306 3.4226467,1.411761 5,1.411761 c 1.5773533,0 2.8724683,0.6724179 3.4119548,2.1546452 C 8.8085858,4.6561413 8.7827169,5.8403716 8.203125,6.7949219 8.0473607,6.3751431 7.7752616,6.120004 7.4824219,6.1191406 7.0112259,6.1185112 6.6290176,6.7648543 6.6289062,7.5625 6.6290176,8.3601457 7.0112259,9.0064888 7.4824219,9.0058594 7.9528551,9.0046639 8.3338735,8.3588551 8.3339844,7.5625 c 3.958e-4,-0.025386 3.958e-4,-0.050786 0,-0.076172 C 9.2354209,6.3462232 9.504813,4.7995454 8.9941406,3.3964844 8.3833496,1.7183495 6.7858339,0.59960941 5,0.59960938 Z"
       />
  </g>
</svg>
