<?xml version="1.0" encoding="UTF-8"?>
<svg width="14" height="12" viewBox="0 0 14 12" version="1.1"
   xmlns="http://www.w3.org/2000/svg" xmlns:svg="http://www.w3.org/2000/svg">
   <defs>
      <linearGradient id="gface" x1="5" y1="1" x2="7" y2="11" gradientUnits="userSpaceOnUse">
         <stop stop-color="#605f5f" offset="0" />
         <stop stop-color="#353434" offset="1" />
      </linearGradient>
      <linearGradient id="gframe"
         gradientUnits="userSpaceOnUse" x1="5" y1="1" x2="7" y2="11">
         <stop stop-color="#0b0b0b" offset="0" />
         <stop stop-color="#555454" offset="1" />
      </linearGradient>
   </defs>
   <g inkscape:label="Layer 1"  id="layer1">
      <rect id="link-gface-dn" fill="url(#gframe)" 
         width="14" height="12" x="0" y="0" rx="1" ry="1" />
      <rect id="link-gface-dn" fill="url(#gface)" 
         width="12.5" height="10.5" x="0.75" y="0.8" rx="1" ry="1" />
      <path id="link--ctl-label-dn" fill="#777676" d="M 4.6523441,2.958008 C 3.0193083,2.958176 1.7082221,4.3417232 1.7089847,6.0009767 1.7095062,7.6592978 3.0202248,9.041824 4.6523441,9.041992 5.7189603,9.042819 6.4831988,8.3587272 7.0000003,7.4873049 7.5162466,8.3585383 8.2815864,9.041883 9.3476567,9.041992 10.979776,9.041825 12.290494,7.6592983 12.291015,6.0009767 12.291778,4.3417227 10.980692,2.9581753 9.3476567,2.958008 8.2818861,2.9581176 7.5182833,3.6419662 7.0019535,4.5126955 6.4852947,3.6407272 5.7194413,2.9571809 4.6523441,2.958008 Z m 0,1.25 C 5.5816051,4.2072877 6.3481218,4.9893614 6.3476566,6.0009767 6.3473389,7.0120015 5.5810602,7.7927122 4.6523441,7.7919924 3.7241966,7.7918968 2.9593024,7.0113849 2.9589847,6.0009767 2.95852,4.9899782 3.7236518,4.2081035 4.6523441,4.208008 Z m 4.6953126,0 C 10.276348,4.2081031 11.04148,4.9899779 11.041015,6.0009767 11.040698,7.0113852 10.275804,7.7918972 9.3476567,7.7919924 8.4195091,7.7918968 7.6546149,7.0113849 7.6542972,6.0009767 7.6538325,4.9899782 8.4189643,4.2081035 9.3476567,4.208008 Z" />
   </g>
</svg>