<?xml version="1.0" encoding="UTF-8" standalone="no"?>
<svg
   width="1000"
   height="1000"
   viewBox="0 0 1000 1000"
   version="1.1"
   id="svg1"
   sodipodi:docname="logo.-designsvg.svg"
   inkscape:version="1.3.2 (091e20e, 2023-11-25, custom)"
   xmlns:inkscape="http://www.inkscape.org/namespaces/inkscape"
   xmlns:sodipodi="http://sodipodi.sourceforge.net/DTD/sodipodi-0.dtd"
   xmlns="http://www.w3.org/2000/svg"
   xmlns:svg="http://www.w3.org/2000/svg">
  <defs
     id="defs1" />
  <sodipodi:namedview
     id="namedview1"
     pagecolor="#1f1f1f"
     bordercolor="#666666"
     borderopacity="1.0"
     inkscape:showpageshadow="2"
     inkscape:pageopacity="0.0"
     inkscape:pagecheckerboard="0"
     inkscape:deskcolor="#d1d1d1"
     inkscape:zoom="4.3625"
     inkscape:cx="46.189112"
     inkscape:cy="169.74212"
     inkscape:window-width="3840"
     inkscape:window-height="2054"
     inkscape:window-x="3829"
     inkscape:window-y="-11"
     inkscape:window-maximized="1"
     inkscape:current-layer="g7" />
  <g
     id="g5"
     style="stroke:#f9a54b;stroke-width:1;stroke-opacity:1"
     transform="matrix(0.99999688,0,0,1,105.41868,0.55919535)">
    <g
       opacity="0.4"
       id="g4"
       style="opacity:1;stroke:#f9a54b;stroke-width:1;stroke-opacity:1">
      <path
         id="path3"
         fill="#f9a54b"
         d="M 62.846577,-4e-7 13.123024,13.87512 0.27645025,63.875121 37.153432,100 86.876988,86.12693 l 12.846562,-50 z"
         style="fill:none;fill-opacity:1;stroke:#f9a54b;stroke-width:1.25;stroke-dasharray:none;stroke-opacity:1"
         sodipodi:nodetypes="ccccccc" />
      <path
         id="path4"
         fill="#f9a54b"
         d="m 15.500586,37.58556 c -1.8006,0.135295 -3.311199,0.594754 -4.531631,1.380396 -1.2096473,0.784834 -2.1006386,1.85578 -2.6710966,3.210642 -0.5704595,1.354845 -0.786621,2.965008 -0.6464644,4.830306 l 0.4848776,6.45306 c 0.1393456,1.854506 0.5936934,3.414288 1.3610191,4.679466 0.7665153,1.254403 1.8073093,2.177139 3.1206563,2.772396 1.323322,0.583672 2.885289,0.807861 4.68589,0.672566 1.48792,-0.111799 2.782957,-0.526943 3.888836,-1.249766 1.105881,-0.722823 1.990827,-1.716389 2.654832,-2.980693 0.673976,-1.275889 1.097435,-2.783369 1.270517,-4.520403 l -4.591136,0.344971 c -0.159678,1.193885 -0.551556,2.138534 -1.171435,2.835693 -0.620686,0.686366 -1.414129,1.066864 -2.384513,1.139776 -1.239934,0.09317 -2.23422,-0.210601 -2.980982,-0.913494 -0.735978,-0.703702 -1.155821,-1.745623 -1.259519,-3.125711 l -0.484877,-6.45306 c -0.103701,-1.380105 0.155729,-2.473064 0.778288,-3.27883 0.632529,-0.817383 1.569699,-1.273744 2.809635,-1.36691 0.636141,-0.0478 1.217524,0.05497 1.746142,0.30797 0.539411,0.252228 1.007683,0.639927 1.404807,1.163067 0.407097,0.51157 0.727485,1.154331 0.959137,1.928453 l 4.591136,-0.344972 c -0.420738,-1.703238 -1.057298,-3.131071 -1.91356,-4.281143 -0.845479,-1.150868 -1.876375,-2.000494 -3.088634,-2.549135 -1.201479,-0.549468 -2.54401,-0.766412 -4.03193,-0.654614 z m 12.163202,-0.669959 1.766794,23.513638 4.430415,-0.332895 -0.715696,-9.524941 8.44235,-0.634346 0.715694,9.524941 4.433445,-0.333123 -1.766793,-23.513639 -4.433445,0.333123 0.730278,9.719005 -8.44235,0.634346 -0.730277,-9.719004 z m 22.479577,-1.689085 1.766793,23.513639 15.753592,-1.183703 -0.320819,-4.269695 -11.32015,0.850581 -0.396013,-5.270401 9.540099,-0.71683 -0.320821,-4.269693 -9.540098,0.716829 -0.408318,-5.434157 11.320149,-0.850579 -0.320822,-4.269694 z m 19.795852,-1.487433 1.766794,23.513639 4.027097,-0.302591 -1.231561,-16.390407 5.3711,13.444536 3.911865,-0.293932 3.278253,-14.408539 1.255028,16.702747 4.027082,-0.302589 -1.766793,-23.51364 -5.840491,0.438847 -3.288164,16.184139 -5.669708,-15.511057 z"
         style="fill:#faa64c;fill-opacity:1;stroke:#f9a54b;stroke-width:1.25;stroke-dasharray:none;stroke-opacity:1" />
    </g>
  </g>
  <g
     id="g2"
     style="stroke:#f9a54b;stroke-opacity:1"
     transform="translate(210.27966,0.55919535)">
    <g
       opacity="0.4"
       id="g1"
       style="opacity:1;stroke:#f9a54b;stroke-opacity:1">
      <path
         id="#d"
         fill="#f9a54b"
         d="m 39.404297,23.550781 -2.800781,5.539063 -4.800782,-1.285156 -0.912109,3.410156 4.072266,1.089844 -2.0625,4.097656 -3.173829,-0.84961 -0.914062,3.410157 2.447266,0.65625 -2.804688,5.539062 3.410156,0.916016 2.804688,-5.542969 5.191406,1.392578 -2.802734,5.541016 3.408203,0.912109 2.802734,-5.539062 4.798828,1.283203 0.914063,-3.408203 -4.087891,-1.09375 2.076172,-4.095703 3.175781,0.851562 0.91211,-3.410156 -2.462891,-0.660156 2.804688,-5.542969 -3.394532,-0.910157 -2.820312,5.53711 L 39.994141,30 42.814453,24.462891 Z m 24.880859,1.234375 -0.941406,3.517578 2.380859,0.640625 -1.298828,4.845703 c -0.786379,-1.687788 -2.069798,-2.771061 -3.849609,-3.25 -1.85092,-0.49567 -3.624159,-0.147196 -5.320313,1.044922 -1.69197,1.181661 -2.837396,2.88758 -3.435547,5.119141 -0.587693,2.198099 -0.461574,4.238802 0.375,6.121094 0.838666,1.882291 2.208123,3.079534 4.111329,3.589843 1.58949,0.426654 3.245545,0.142008 4.966797,-0.853515 l -0.486329,1.816406 7.384766,1.978516 0.945313,-3.519531 -2.509766,-0.671876 4.9375,-18.433593 z m -25.912109,8.433594 5.191406,1.388672 -2.076172,4.097656 -5.195312,-1.392578 z m 21.828125,1.507812 c 0.224698,0.01007 0.456366,0.04754 0.695312,0.111329 0.80102,0.215418 1.428971,0.715573 1.882813,1.501953 0.464298,0.790562 0.500474,1.916993 0.109375,3.378906 -0.382733,1.432633 -0.971018,2.386573 -1.763672,2.861328 -0.780105,0.468481 -1.573427,0.594462 -2.382812,0.376953 C 57.763395,42.69351 57.119941,42.103549 56.8125,41.1875 c -0.303283,-0.928597 -0.301443,-1.967175 0.0039,-3.113281 0.324173,-1.20885 0.841509,-2.112649 1.554688,-2.712891 0.545864,-0.453318 1.155982,-0.664961 1.830078,-0.634766 z"
         style="fill:#faa64c;fill-opacity:1;stroke:#f9a54b;stroke-opacity:1" />
      <path
         id="hexoid"
         fill="#f9a54b"
         d="M 62.846577,-4e-7 13.123024,13.87512 0.27645025,63.875121 37.153432,100 86.876988,86.12693 l 12.846562,-50 z M 50.000003,11.409473 c 9.326229,0 17.870198,3.291502 24.534513,8.779162 l 4.675179,4.58168 C 85.052538,31.53172 88.590537,40.342354 88.590537,50 c 0,2.241993 -0.199831,4.435404 -0.565088,6.57168 l -1.57126,6.116357 C 82.691068,73.530977 74.242038,82.161032 63.513298,86.161482 l -6.211887,1.733875 c -2.36446,0.451221 -4.803582,0.69518 -7.301408,0.69518 -9.32828,0 -17.87362,-3.293395 -24.538579,-8.783231 L 20.790313,75.231735 C 14.947152,68.470226 11.409469,59.657938 11.409469,50 c 0,-2.241983 0.199829,-4.435394 0.565087,-6.571669 l 1.571267,-6.112289 C 17.310819,26.464746 25.767549,17.827853 36.507037,13.830389 l 6.163104,-1.719648 c 2.373312,-0.454749 4.822029,-0.701268 7.329862,-0.701268 z"
         style="fill:#faa64c;fill-opacity:1;stroke:#f9a54b;stroke-opacity:1" />
      <path
         id="CHEM"
         fill="#f9a54b"
         d="m 28.542236,53.421572 c -1.206961,0 -2.236858,0.230596 -3.089682,0.69314 -0.845595,0.462545 -1.49312,1.131758 -1.941214,2.006267 -0.448094,0.874498 -0.672819,1.936922 -0.672819,3.187251 v 4.325555 c 0,1.243095 0.224725,2.305519 0.672819,3.187251 0.448094,0.874508 1.095619,1.541682 1.941214,2.004226 0.852824,0.455322 1.882721,0.682983 3.089682,0.682983 0.99737,0 1.881365,-0.211852 2.654688,-0.638262 0.773323,-0.42641 1.412943,-1.044347 1.918856,-1.85381 0.513138,-0.816685 0.870893,-1.800284 1.073258,-2.949432 h -3.077487 c -0.166228,0.787784 -0.474745,1.397811 -0.922839,1.831454 -0.448093,0.42641 -0.996017,0.640291 -1.646476,0.640291 -0.831141,0 -1.478666,-0.252274 -1.941214,-0.758185 C 26.145701,65.274389 25.91804,64.558873 25.91804,63.633785 V 59.30823 c 0,-0.925099 0.227661,-1.640615 0.682982,-2.146516 0.462548,-0.513145 1.110073,-0.770394 1.941214,-0.770394 0.426412,0 0.808785,0.09762 1.148468,0.292707 0.346911,0.195138 0.639619,0.47701 0.87812,0.845597 0.245729,0.361374 0.42709,0.805852 0.542727,1.333442 h 3.077487 c -0.195138,-1.156361 -0.547924,-2.13996 -1.061063,-2.949422 -0.505912,-0.809453 -1.150501,-1.4274 -1.931051,-1.85381 -0.773323,-0.42642 -1.657318,-0.638262 -2.654688,-0.638262 z m 8.140906,0.162615 V 69.34563 h 2.969754 v -6.38467 h 5.658997 v 6.38467 h 2.971785 V 53.584187 h -2.971785 v 6.514752 h -5.658997 v -6.514752 z m 15.068299,0 V 69.34563 h 10.559801 v -2.862022 h -7.588016 v -3.532806 h 6.39483 v -2.862021 h -6.39483 v -3.642573 h 7.588016 v -2.862021 z m 13.269371,0 V 69.34563 h 2.699406 V 58.358965 l 2.90674,9.230424 h 2.622165 L 76.155867,58.1496 v 11.19603 h 2.699396 V 53.584187 H 74.940319 L 71.93804,64.207001 68.935763,53.584187 Z"
         style="fill:#faa64c;fill-opacity:1;stroke:#f9a54b;stroke-opacity:1" />
    </g>
  </g>
  <g id="small-logo">
    <path id="CHEM" fill="#faa64c" stroke="#f9a54b" stroke-width="1.25" d="M 9.57155,6.8102466 C 7.5299719,6.9641606 5.817206,7.4868486 4.4334406,8.3806086 3.0619033,9.2734488 2.0516687,10.491776 1.4048649,12.033091 0.75805948,13.574385 0.51296865,15.406135 0.67188275,17.528129 l 0.54976985,7.341113 c 0.1579945,2.109718 0.6731488,3.884153 1.5431675,5.323441 0.8690998,1.427031 2.0491859,2.476751 3.5383012,3.153925 1.5004252,0.663996 3.2714337,0.919037 5.3130137,0.765124 1.687051,-0.127185 3.155406,-0.59946 4.409287,-1.421756 1.253884,-0.822296 2.257264,-1.952595 3.010135,-3.390887 0.764175,-1.451474 1.244307,-3.166409 1.440553,-5.14249 l -5.205577,0.392446 C 15.089484,25.90723 14.645159,26.981878 13.942321,27.774978 13.238567,28.5558 12.338935,28.98866 11.238682,29.071606 9.832806,29.177598 8.7054519,28.832024 7.8587493,28.0324 7.0242738,27.231857 6.5482422,26.04655 6.4306659,24.476538 L 5.8808967,17.135426 c -0.1175795,-1.570032 0.1765706,-2.813401 0.8824481,-3.730054 0.7171819,-0.929869 1.7797757,-1.449033 3.1856556,-1.55502 0.7212756,-0.05438 1.3804676,0.06253 1.9798316,0.350351 0.6116,0.28694 1.142542,0.727992 1.592816,1.323125 0.46158,0.581971 0.824846,1.313187 1.0875,2.193842 l 5.205579,-0.392445 C 19.33768,13.387591 18.615927,11.763264 17.645071,10.454923 16.686438,9.1456738 15.517576,8.1791256 14.143077,7.5549806 12.780801,6.9298966 11.258596,6.6830986 9.571545,6.8102816 Z M 23.362582,6.0480886 25.36583,32.79761 30.389179,32.418903 29.577699,21.583165 39.149908,20.861522 39.961385,31.697259 44.98817,31.318293 42.984921,4.5687716 37.958139,4.9477376 38.786151,16.004246 29.213942,16.725889 28.38593,5.6693826 Z m 25.488072,-1.921532 2.003248,26.7495214 17.861931,-1.346601 -0.363755,-4.857279 -12.835151,0.967637 -0.449014,-5.9957 10.816873,-0.815478 -0.363755,-4.857277 -10.816873,0.815478 -0.462965,-6.1819914 12.835151,-0.967634 -0.363758,-4.857277 z m 22.445179,-1.692129 2.003246,26.7495204 4.566053,-0.344231 -1.396383,-18.646011 6.089927,15.294737 4.435398,-0.334382 3.716989,-16.3914044 1.422993,19.0013344 4.566035,-0.34423 L 94.696844,0.67023864 88.074707,1.1694776 84.346479,19.580833 77.917982,1.9351876 Z" />
    <path id="hex" fill="none" stroke="#f9a54b" stroke-width="2.5" d="M 75.274,41.479089 61.021074,45.456299 57.33869,59.788464 67.909232,70.143418 82.162158,66.166796 85.844539,51.834631 Z" />
  </g>
</svg>
