<?xml version="1.0" encoding="UTF-8" standalone="no"?>
<svg
   width="24"
   height="12"
   viewBox="0 0 24 12"
   version="1.1"
   id="svg1"
   sodipodi:docname="midi-button-down.svg"
   inkscape:version="1.4 (86a8ad7, 2024-10-11)"
   xmlns:inkscape="http://www.inkscape.org/namespaces/inkscape"
   xmlns:sodipodi="http://sodipodi.sourceforge.net/DTD/sodipodi-0.dtd"
   xmlns="http://www.w3.org/2000/svg"
   xmlns:svg="http://www.w3.org/2000/svg">
  <defs
     id="defs1" />
  <sodipodi:namedview
     id="namedview1"
     pagecolor="#ffffff"
     bordercolor="#111111"
     borderopacity="1"
     inkscape:showpageshadow="0"
     inkscape:pageopacity="0"
     inkscape:pagecheckerboard="1"
     inkscape:deskcolor="#d1d1d1"
     inkscape:zoom="63.333333"
     inkscape:cx="11.992105"
     inkscape:cy="5.9921053"
     inkscape:window-width="1620"
     inkscape:window-height="1010"
     inkscape:window-x="-6"
     inkscape:window-y="-6"
     inkscape:window-maximized="1"
     inkscape:current-layer="svg1" />
  <g>
    <path
       id="midi-frame"
       fill="#a6a6a6"
       d="m 1.5,0 h 21 C 23.33,0 24,0.67 24,1.5 v 9 c 0,0.83 -0.67,1.5 -1.5,1.5 h -21 c -0.83,0 -1.5,-0.67 -1.5,-1.5 V 1.5 C 0,0.67 0.67,0 1.5,0 Z" />
    <path
       id="midi-face"
       fill="#595959"
       d="M 2.45,1.75 H 21.55 c 0.53,0 0.95,0.3791 0.95,0.85 v 6.8 c 0,0.47 -0.43,0.85 -0.95,0.85 H 2.45 C 1.93,10.25 1.5,9.87 1.5,9.4 v -6.8 c 0,-0.47 0.43,-0.85 0.95,-0.85 z"
       />
    <path
       id="midi-label"
       fill="#404040"
       d="M 6.31,8.69 V 7.28 L 4.92,3.94 Q 4.78,3.6 4.53,3.43 4.28,3.25 3.99,3.25 q -0.35,0 -0.61,0.21 -0.26,0.21 -0.26,0.55 l 0,4.41 q 0,0.2 0.15,0.31 0.16,0.11 0.37,0.11 0.21,0 0.37,-0.11 0.15,-0.11 0.15,-0.31 V 4.52 l 1.49,3.61 q 0.21,0.56 0.66,0.56 z m 0,0 q 0.45,0 0.66,-0.56 l 1.48,-3.61 v 3.91 q 0,0.2 0.15,0.31 0.16,0.11 0.37,0.11 0.21,0 0.37,-0.11 0.16,-0.11 0.16,-0.31 V 4.01 q 0,-0.33 -0.26,-0.55 -0.26,-0.21 -0.61,-0.21 -0.29,0 -0.55,0.17 -0.25,0.17 -0.39,0.51 l -1.4,3.35 z m 5.22,0.21 q 0.24,0 0.41,-0.17 0.17,-0.17 0.17,-0.43 V 3.69 q 0,-0.27 -0.17,-0.43 -0.17,-0.17 -0.41,-0.17 -0.23,0 -0.41,0.17 -0.17,0.17 -0.17,0.43 v 4.61 q 0,0.27 0.17,0.43 0.17,0.17 0.4,0.17 z m 2.55,0 h 1.43 q 1.47,0 2.27,-0.74 0.8,-0.74 0.8,-2.13 0,-1.43 -0.8,-2.18 Q 16.98,3.1 15.42,3.1 H 14.14 q -0.29,0 -0.47,0.18 -0.17,0.18 -0.17,0.5 v 4.45 q 0,0.28 0.16,0.48 0.16,0.2 0.41,0.19 z m 0.57,-0.89 V 4 h 0.81 q 0.67,0 1.08,0.19 0.41,0.19 0.62,0.64 0.21,0.44 0.2,1.18 0,1.08 -0.41,1.54 -0.41,0.47 -1.42,0.47 z m 5.64,0.89 q 0.24,0 0.41,-0.17 0.17,-0.17 0.17,-0.43 V 3.69 q 0,-0.27 -0.17,-0.43 -0.17,-0.17 -0.41,-0.17 -0.23,0 -0.41,0.17 -0.17,0.17 -0.17,0.43 v 4.61 q 0,0.27 0.19,0.43 0.17,0.17 0.4,0.167 z"
        />
  </g>
</svg>
