<?xml version="1.0" encoding="UTF-8" standalone="no"?>
<!-- Created with Inkscape (http://www.inkscape.org/) -->

<svg
   width="15"
   height="380"
   viewBox="0 0 15 380.00002"
   version="1.1"
   id="svg1"
   xml:space="preserve"
   inkscape:version="1.4 (86a8ad7, 2024-10-11)"
   sodipodi:docname="sustain.svg"
   xmlns:inkscape="http://www.inkscape.org/namespaces/inkscape"
   xmlns:sodipodi="http://sodipodi.sourceforge.net/DTD/sodipodi-0.dtd"
   xmlns:xlink="http://www.w3.org/1999/xlink"
   xmlns="http://www.w3.org/2000/svg"
   xmlns:svg="http://www.w3.org/2000/svg"><sodipodi:namedview
     id="namedview1"
     pagecolor="#ffffff"
     bordercolor="#666666"
     borderopacity="1.0"
     inkscape:showpageshadow="2"
     inkscape:pageopacity="0.0"
     inkscape:pagecheckerboard="0"
     inkscape:deskcolor="#666666"
     inkscape:document-units="px"
     inkscape:zoom="3.360618"
     inkscape:cx="-180.02641"
     inkscape:cy="248.16864"
     inkscape:window-width="3840"
     inkscape:window-height="2054"
     inkscape:window-x="3829"
     inkscape:window-y="-11"
     inkscape:window-maximized="1"
     inkscape:current-layer="layer1"
     showguides="true"><sodipodi:guide
       position="-16.924841,373.09154"
       orientation="0,-1"
       id="guide4"
       inkscape:locked="false" /></sodipodi:namedview><defs
     id="defs1"><linearGradient
       id="linearGradient1"
       inkscape:collect="always"><stop
         style="stop-color:#282828;stop-opacity:1;"
         offset="0"
         id="stop1" /><stop
         style="stop-color:#181818;stop-opacity:1;"
         offset="1"
         id="stop2" /></linearGradient><linearGradient
       inkscape:collect="always"
       xlink:href="#linearGradient1"
       id="linearGradient2"
       x1="-7.4505806e-09"
       y1="190"
       x2="15"
       y2="190"
       gradientUnits="userSpaceOnUse" /></defs><g
     inkscape:label="Layer 1"
     inkscape:groupmode="layer"
     id="layer1"><rect
       style="fill:url(#linearGradient2);stroke:#000000;stroke-width:0.25;stroke-linecap:square;stroke-linejoin:bevel;paint-order:fill markers stroke"
       id="rect1"
       width="14.75"
       height="379.75"
       x="0.12499999"
       y="0.125"
       sodipodi:insensitive="true" /><circle
       style="fill:#f9a54b;fill-opacity:1;stroke:#f9a54b;stroke-width:0.25;stroke-linecap:square;stroke-linejoin:bevel;stroke-dasharray:none;stroke-opacity:1;paint-order:fill markers stroke"
       id="circle6"
       cx="7.5"
       cy="346.42194"
       inkscape:label="bot"
       r="3" /><rect
       style="fill:#4095bf;fill-opacity:1;stroke:none;stroke-width:0.249999;stroke-linecap:square;stroke-linejoin:bevel;paint-order:fill markers stroke"
       id="rect2"
       width="2.5"
       height="132.25"
       x="6.25"
       y="209.29694" /><rect
       style="fill:#6abf40;fill-opacity:1;stroke:#000000;stroke-width:0.25;stroke-linecap:square;stroke-linejoin:bevel;stroke-dasharray:none;paint-order:fill markers stroke"
       id="rect4"
       width="8"
       height="4.5"
       x="3.5"
       y="283.89819" /><circle
       style="fill:#f9a54b;fill-opacity:1;stroke:#f9a54b;stroke-width:0.25;stroke-linecap:square;stroke-linejoin:bevel;stroke-dasharray:none;stroke-opacity:1;paint-order:fill markers stroke"
       id="path5"
       cx="7.5"
       cy="204.42195"
       inkscape:label="top"
       r="3" /><g
       opacity="1"
       id="g1"
       transform="matrix(0.12066717,0,0,0.12066717,1.4666415,145.30015)"
       style="stroke-width:8.28726"
       inkscape:label="logo"><path
         id="#d"
         fill="#f9a54b"
         d="m 35.444684,32.276051 -3.847433,7.609011 -6.594833,-1.765419 -1.252965,4.684531 5.594072,1.497119 -2.833256,5.628949 -4.359889,-1.167109 -1.255647,4.684532 3.361809,0.901491 -3.852799,7.609009 4.684531,1.258331 3.852799,-7.614376 7.131434,1.912984 -3.850115,7.611693 4.681848,1.252964 3.850115,-7.609008 6.59215,1.762735 1.255648,-4.681848 -5.615535,-1.502484 2.852037,-5.626267 4.36257,1.169791 1.252965,-4.684531 -3.383273,-0.906856 3.8528,-7.614376 -4.663068,-1.250283 -3.874263,7.606328 -7.131434,-1.907619 3.874263,-7.606326 z m 34.178833,1.695661 -1.293209,4.832097 3.270586,0.880026 -1.7842,6.656542 c -1.080249,-2.318514 -2.843281,-3.806606 -5.288208,-4.464525 -2.542608,-0.680901 -4.978506,-0.202203 -7.308513,1.43541 -2.324259,1.623247 -3.897731,3.966668 -4.719411,7.032163 -0.807313,3.019528 -0.634064,5.822842 0.515138,8.408546 1.152075,2.585703 3.033298,4.230356 5.647732,4.931367 2.183482,0.586095 4.458405,0.195077 6.822889,-1.172473 l -0.66807,2.495197 10.144452,2.717887 1.298576,-4.83478 -3.447665,-0.922956 6.782643,-25.322224 z m -35.595461,11.585228 7.131434,1.907618 -2.852038,5.62895 -7.136799,-1.912985 z m 29.985293,2.071281 c 0.308668,0.01383 0.62691,0.06531 0.95515,0.152932 1.100361,0.29592 1.962977,0.982983 2.58642,2.063233 0.637806,1.085995 0.687501,2.633373 0.150248,4.641603 -0.52576,1.968008 -1.333887,3.278435 -2.422756,3.930606 -1.07163,0.643552 -2.161416,0.816612 -3.273268,0.51782 -1.344568,-0.361999 -2.228481,-1.172428 -2.650812,-2.430804 -0.41662,-1.275614 -0.414093,-2.702308 0.0054,-4.276714 0.445316,-1.660597 1.155981,-2.902146 2.135675,-3.726698 0.749853,-0.622723 1.587972,-0.913457 2.513978,-0.871978 z"
         style="stroke-width:8.28726" /><path
         id="hexoid"
         fill="#f9a54b"
         d="M 62.846577,-4e-7 13.123024,13.87512 0.27645025,63.875121 37.153432,100 86.876988,86.12693 l 12.846562,-50 z M 50.000003,11.409473 c 9.326229,0 17.870198,3.291502 24.534513,8.779162 l 4.675179,4.58168 C 85.052538,31.53172 88.590537,40.342354 88.590537,50 c 0,2.241993 -0.199831,4.435404 -0.565088,6.57168 l -1.57126,6.116357 C 82.691068,73.530977 74.242038,82.161032 63.513298,86.161482 l -6.211887,1.733875 c -2.36446,0.451221 -4.803582,0.69518 -7.301408,0.69518 -9.32828,0 -17.87362,-3.293395 -24.538579,-8.783231 L 20.790313,75.231735 C 14.947152,68.470226 11.409469,59.657938 11.409469,50 c 0,-2.241983 0.199829,-4.435394 0.565087,-6.571669 l 1.571267,-6.112289 C 17.310819,26.464746 25.767549,17.827853 36.507037,13.830389 l 6.163104,-1.719648 c 2.373312,-0.454749 4.822029,-0.701268 7.329862,-0.701268 z"
         style="stroke-width:8.28726" /></g><path
       style="font-size:12.0002px;line-height:1.25;font-family:'Tw Cen MT';-inkscape-font-specification:'Tw Cen MT';text-align:center;writing-mode:vertical-lr;text-orientation:upright;text-anchor:middle;display:inline;fill:#f9a54b;fill-opacity:1"
       d="M 9.8206951,16.066369 8.9944682,16.728457 Q 8.6663211,16.388624 8.3967719,16.224567 8.1330824,16.054652 7.6291424,16.054652 q -0.5508179,0 -0.8965442,0.251944 -0.3398665,0.246086 -0.3398665,0.63865 0,0.339832 0.2988481,0.603495 0.2988482,0.257803 1.0195993,0.56834 0.7207514,0.304677 1.1192155,0.574198 0.404324,0.263664 0.6621537,0.585918 0.2578298,0.322255 0.3808848,0.679663 0.1289159,0.35741 0.1289159,0.755834 0,0.931609 -0.6797339,1.587837 -0.6738732,0.656226 -1.6348751,0.656226 -0.9375625,0 -1.6583139,-0.509748 -0.7148914,-0.515606 -1.101636,-1.540962 l 1.0195993,-0.287099 q 0.5566778,1.259721 1.7051921,1.259721 0.5566779,0 0.9258431,-0.333972 0.3691654,-0.333973 0.3691654,-0.843722 0,-0.304676 -0.1933723,-0.609353 Q 8.5608453,19.781085 8.2737168,19.581874 7.9865882,19.382662 7.3537335,19.130718 6.7267384,18.872914 6.386872,18.661984 6.0528652,18.445194 5.806755,18.152236 5.5606447,17.853418 5.4434494,17.560459 5.3321139,17.2675 5.3321139,16.933527 q 0,-0.802706 0.6445744,-1.365187 Q 6.6212626,15 7.5412459,15 q 0.6094158,0 1.2364108,0.263664 0.6269952,0.263662 1.0430384,0.802705 z M 4.6025729,28.443872 h 1.0195994 v 4.587733 q 0,1.019496 0.4863605,1.576117 0.4922206,0.556622 1.3887648,0.556622 0.8906846,0 1.3829051,-0.509748 0.4980801,-0.515608 0.4980801,-1.447216 v -4.763508 h 1.0195992 v 4.693198 q 0,1.371046 -0.7852085,2.19133 -0.779349,0.820285 -2.0802173,0.820285 -1.330167,0 -2.1329551,-0.832003 Q 4.6025729,34.48468 4.6025729,32.861689 Z M 9.8206951,42.198281 8.9944682,42.860367 Q 8.6663211,42.520536 8.3967719,42.356479 8.1330824,42.186563 7.6291424,42.186563 q -0.5508179,0 -0.8965442,0.251944 -0.3398665,0.246085 -0.3398665,0.63865 0,0.339832 0.2988481,0.603494 0.2988482,0.257804 1.0195993,0.56834 0.7207514,0.304678 1.1192155,0.5742 0.404324,0.263662 0.6621537,0.585917 0.2578298,0.322254 0.3808848,0.679664 0.1289159,0.35741 0.1289159,0.755833 0,0.931609 -0.6797339,1.587836 -0.6738732,0.656228 -1.6348751,0.656228 -0.9375625,0 -1.6583139,-0.509748 -0.7148914,-0.515608 -1.101636,-1.540964 l 1.0195993,-0.287099 q 0.5566778,1.259723 1.7051921,1.259723 0.5566779,0 0.9258431,-0.333973 Q 8.94759,47.342635 8.94759,46.832887 8.94759,46.52821 8.7542177,46.223533 8.5608453,45.912997 8.2737168,45.713785 7.9865882,45.514572 7.3537335,45.262628 6.7267384,45.004824 6.386872,44.793894 6.0528652,44.577105 5.806755,44.284146 5.5606447,43.985329 5.4434494,43.69237 5.3321139,43.399412 5.3321139,43.065439 q 0,-0.802707 0.6445744,-1.365188 0.6445743,-0.568339 1.5645576,-0.568339 0.6094158,0 1.2364108,0.263662 0.6269952,0.263663 1.0430384,0.802707 z M 5.17683,54.684181 h 4.5647584 v 1.019497 H 7.9602192 v 6.445091 H 6.9523394 V 55.703678 H 5.17683 Z M 7.4211207,67.319486 10.9487,75.071173 H 9.8822227 L 9.0091174,73.161082 H 5.8389837 L 4.9893174,75.071173 H 3.9286997 Z m 0,2.337811 -1.2012523,2.654205 H 8.6223729 Z M 6.9347601,80.816093 h 1.0078798 v 7.464585 H 6.9347601 Z m -2.733581,12.444881 5.5199001,5.677536 v -5.378712 h 1.0195998 v 7.810272 L 5.2207783,95.72183 v 5.30256 H 4.2011791 Z"
       id="text2"
       aria-label="SUSTAIN"
       inkscape:label="sustain" /><path
       style="font-size:12px;line-height:1.25;font-family:'Tw Cen MT';-inkscape-font-specification:'Tw Cen MT';text-align:center;writing-mode:tb-rl;text-orientation:upright;text-anchor:middle;display:none;fill:#f9a54b"
       d="m 9.8378906,16.066406 -0.8261718,0.66211 Q 8.6835938,16.388672 8.4140625,16.22461 8.1503906,16.054688 7.6464844,16.054688 q -0.5507813,0 -0.8964844,0.251953 -0.3398438,0.246094 -0.3398438,0.638672 0,0.339843 0.2988282,0.603515 0.2988281,0.257813 1.0195312,0.56836 0.7207032,0.304687 1.1191407,0.574218 0.4042968,0.263672 0.6621093,0.585938 0.2578125,0.322266 0.3808594,0.679687 0.128906,0.357422 0.128906,0.75586 0,0.93164 -0.6796872,1.58789 -0.6738282,0.65625 -1.6347657,0.65625 -0.9375,0 -1.6582031,-0.509765 Q 5.3320312,21.931641 4.9453125,20.90625 l 1.0195312,-0.287109 q 0.5566407,1.259765 1.7050782,1.259765 0.5566406,0 0.9257812,-0.333984 0.3691407,-0.333984 0.3691407,-0.84375 0,-0.304687 -0.1933594,-0.609375 Q 8.578125,19.78125 8.2910156,19.582031 8.0039063,19.382813 7.3710937,19.13086 6.7441406,18.873047 6.4042969,18.66211 6.0703125,18.445313 5.8242187,18.152344 5.578125,17.853516 5.4609375,17.560547 5.3496094,17.267578 5.3496094,16.933594 q 0,-0.802734 0.6445312,-1.365234 Q 6.6386719,15 7.5585937,15 q 0.6093751,0 1.2363282,0.263672 0.6269531,0.263672 1.0429687,0.802734 z M 3.3427734,31.992188 q 0,-1.617188 1.21875,-2.771485 1.21875,-1.154297 2.9296875,-1.154297 1.6699219,0 2.8769531,1.166016 1.207031,1.160156 1.207031,2.759766 0,1.693359 -1.195312,2.865234 -1.1894533,1.166016 -2.9238283,1.166016 -1.7109375,0 -2.9121094,-1.177735 -1.2011719,-1.177734 -1.2011719,-2.853515 z m 7.1484376,0.04687 q 0,-1.236328 -0.8906251,-2.080078 -0.890625,-0.84961 -2.1914062,-0.84961 -1.2363281,0 -2.1210938,0.861328 -0.8789062,0.861328 -0.8789062,2.06836 0,1.224609 0.9023437,2.074218 0.9082032,0.84375 2.2207032,0.84375 1.2070312,0 2.0800781,-0.861328 0.8789063,-0.867187 0.8789063,-2.05664 z M 9.8378906,42.199217 9.0117188,42.861326 Q 8.6835938,42.521483 8.4140625,42.35742 8.1503906,42.187498 7.6464844,42.187498 q -0.5507813,0 -0.8964844,0.251953 -0.3398438,0.246094 -0.3398438,0.638672 0,0.339844 0.2988282,0.603516 0.2988281,0.257812 1.0195312,0.568359 0.7207032,0.304688 1.1191407,0.574219 0.4042968,0.263672 0.6621093,0.585938 0.2578125,0.322265 0.3808594,0.679687 0.128906,0.357422 0.128906,0.755859 0,0.931641 -0.6796872,1.587891 -0.6738282,0.65625 -1.6347657,0.65625 -0.9375,0 -1.6582031,-0.509766 -0.7148438,-0.515625 -1.1015625,-1.541015 l 1.0195312,-0.28711 q 0.5566407,1.259766 1.7050782,1.259766 0.5566406,0 0.9257812,-0.333984 0.3691407,-0.333985 0.3691407,-0.84375 0,-0.304688 -0.1933594,-0.609375 Q 8.578125,45.914061 8.2910156,45.714842 8.0039063,45.515623 7.3710937,45.26367 6.7441406,45.005858 6.4042969,44.79492 6.0703125,44.578123 5.8242187,44.285155 5.578125,43.986326 5.4609375,43.693358 5.3496094,43.400389 5.3496094,43.066405 q 0,-0.802735 0.6445312,-1.365235 0.6445313,-0.568359 1.5644531,-0.568359 0.6093751,0 1.2363282,0.263672 0.6269531,0.263672 1.0429687,0.802734 z M 5.1943359,54.685545 h 4.5644532 v 1.019531 h -1.78125 v 6.445313 H 6.9697266 V 55.705076 H 5.1943359 Z m 0.375,13.066406 h 4.1367188 v 1.019532 H 6.5771484 v 1.863281 h 3.1289063 v 1.007812 H 6.5771484 v 2.566407 h 3.1289063 v 1.007812 H 5.5693359 Z M 4.21875,80.197264 9.7382813,85.874998 v -5.378906 h 1.0195317 v 7.810542 L 5.2382812,82.658201 v 5.302733 H 4.21875 Z m 0.4013672,13.5791 h 1.0195312 v 4.58789 q 0,1.01953 0.4863282,1.57617 0.4921875,0.556636 1.3886718,0.556636 0.890625,0 1.3828125,-0.509756 0.4980469,-0.51563 0.4980469,-1.44727 v -4.76367 h 1.0195312 v 4.69336 q 0,1.37109 -0.7851562,2.191406 -0.7792969,0.82031 -2.0800781,0.82031 -1.3300781,0 -2.1328125,-0.83203 -0.796875,-0.832026 -0.796875,-2.455076 z m 0.5742187,13.174806 h 4.5644532 v 1.01953 h -1.78125 v 6.44531 H 6.9697266 V 107.9707 H 5.1943359 Z m -1.8515625,16.50586 q 0,-1.61719 1.21875,-2.77149 1.21875,-1.1543 2.9296875,-1.1543 1.6699219,0 2.8769531,1.16602 1.207031,1.16016 1.207031,2.75977 0,1.69335 -1.195312,2.86523 -1.1894533,1.16602 -2.9238283,1.16602 -1.7109375,0 -2.9121094,-1.17774 -1.2011719,-1.17773 -1.2011719,-2.85351 z m 7.1484376,0.0469 q 0,-1.23633 -0.8906251,-2.08008 -0.890625,-0.84961 -2.1914062,-0.84961 -1.2363281,0 -2.1210938,0.86133 -0.8789062,0.86133 -0.8789062,2.06836 0,1.22461 0.9023437,2.07422 0.9082032,0.84375 2.2207032,0.84375 1.2070312,0 2.0800781,-0.86133 0.8789063,-0.86719 0.8789063,-2.05664 z m -3.4072266,15.92285 h 2.8417969 v 0.9961 H 4.828125 l 3.8027344,-4.04297 q 0.4277344,-0.46875 0.4277344,-1.03125 0,-0.66211 -0.4511719,-1.14844 -0.4511719,-0.48633 -1.0605469,-0.48633 -0.5039063,0 -0.9492188,0.32227 -0.4394531,0.32226 -0.5742187,0.99609 h -0.984375 q 0.1464844,-1.10156 0.8671875,-1.71094 0.7265625,-0.61523 1.7050781,-0.61523 0.9785157,0 1.7050782,0.77344 0.7265627,0.76757 0.7265627,1.82226 0,0.50977 -0.1875002,0.9375 -0.1816407,0.42188 -0.6503907,0.91992 z"
       id="text5"
       aria-label="SOSTENUTO2"
       inkscape:label="sos2" /><path
       style="fill:none;stroke:#f9a54b;stroke-width:0.25;stroke-linecap:butt;stroke-linejoin:miter;stroke-opacity:1;stroke-dasharray:none"
       d="M 5.0213978,6.9084698 H 10.042796"
       id="path6"
       inkscape:label="th" /></g></svg>
