<?xml version="1.0" encoding="UTF-8" standalone="no"?>
<!-- Created with Inkscape (http://www.inkscape.org/) -->

<svg width="14" height="14" viewBox="0 0 14 14" version="1.1" 
   xmlns="http://www.w3.org/2000/svg"
   xmlns:svg="http://www.w3.org/2000/svg">
   <g>
      <rect id="bg" fill="#808080" width="14" height="14" x="0" y="0" />
      <rect id="frame" stroke="#a6a6a6" width="13" height="13" x="0.5" y="0.5" />
      <g>
      <path style="display:none"  fill="#a6a6a6" transform="scale(-1 1)" transform-origin="center"
         d="M 7.97,1.72 V 4.78 H 9.15 V 3.56 C 9.35,3.68 9.55,3.79 9.72,3.94 10.01,4.2 10.26,4.49 10.46,4.81 10.67,5.13 10.83,5.48 10.94,5.85 11.05,6.22 11.1,6.61 11.1,7 c 0,0.38 -0.05,0.74 -0.15,1.09 -0.1,0.35 -0.24,0.68 -0.41,0.98 C 10.36,9.37 10.15,9.65 9.9,9.9 9.65,10.15 9.37,10.36 9.06,10.54 8.76,10.72 8.44,10.86 8.088,10.95 7.74,11.05 7.38,11.1 7,11.1 c -0.38,0 -0.74,-0.05 -1.09,-0.15 C 5.56,10.86 5.24,10.72 4.94,10.54 4.63,10.36 4.35,10.15 4.1,9.9 3.85,9.65 3.64,9.37 3.46,9.06 3.28,8.76 3.14,8.44 3.05,8.09 2.95,7.74 2.9,7.34 2.9,7 c 0,-0.46 0.073,-0.9 0.22,-1.32 C 3.27,5.25 3.48,4.87 3.74,4.52 4.01,4.17 4.32,3.87 4.69,3.62 5.06,3.36 5.46,3.17 5.91,3.05 l 0.27,-0.07 -0.31,-1.13 v 0 L 5.6,1.92 C 5.03,2.07 4.5,2.32 4.03,2.64 3.55,2.97 3.15,3.36 2.8,3.8 2.46,4.26 2.2,4.75 2.01,5.3 1.82,5.84 1.72,6.41 1.72,7 c 0,0.48 0.064,0.95 0.19,1.4 0.12,0.45 0.30,0.87 0.53,1.26 0.23,0.39 0.5,0.75 0.82,1.07 0.32,0.32 0.68,0.6 1.07,0.82 0.39,0.23 0.81,0.4 1.26,0.53 0.45,0.13 0.92,0.19 1.4,0.19 0.48,0 0.95,-0.06 1.4,-0.19 0.45,-0.12 0.87,-0.3 1.26,-0.53 0.39,-0.23 0.75,-0.5 1.07,-0.82 0.32,-0.32 0.6,-0.68 0.82,-1.07 C 11.79,9.27 11.96,8.85 12.09,8.4 12.21,7.95 12.28,7.49 12.28,7 c 0,-0.48 -0.06,-0.95 -0.19,-1.4 C 11.96,5.15 11.78,4.72 11.54,4.32 11.31,3.92 11.02,3.55 10.68,3.23 10.55,3.1 10.39,3.01 10.24,2.9 l 1.01,-0.01 V 1.72 Z"
         id="c1" />
      </g>
      <g>
      <path style="display:none" fill="#a6a6a6" transform="scale(-1 -1)" transform-origin="center"
         d="M 7.97,1.72 V 4.78 H 9.15 V 3.56 C 9.35,3.68 9.55,3.79 9.72,3.94 10.01,4.2 10.26,4.49 10.46,4.81 10.67,5.13 10.83,5.48 10.94,5.85 11.05,6.22 11.1,6.61 11.1,7 c 0,0.38 -0.05,0.74 -0.15,1.09 -0.1,0.35 -0.24,0.68 -0.41,0.98 C 10.36,9.37 10.15,9.65 9.9,9.9 9.65,10.15 9.37,10.36 9.06,10.54 8.76,10.72 8.44,10.86 8.088,10.95 7.74,11.05 7.38,11.1 7,11.1 c -0.38,0 -0.74,-0.05 -1.09,-0.15 C 5.56,10.86 5.24,10.72 4.94,10.54 4.63,10.36 4.35,10.15 4.1,9.9 3.85,9.65 3.64,9.37 3.46,9.06 3.28,8.76 3.14,8.44 3.05,8.09 2.95,7.74 2.9,7.34 2.9,7 c 0,-0.46 0.073,-0.9 0.22,-1.32 C 3.27,5.25 3.48,4.87 3.74,4.52 4.01,4.17 4.32,3.87 4.69,3.62 5.06,3.36 5.46,3.17 5.91,3.05 l 0.27,-0.07 -0.31,-1.13 v 0 L 5.6,1.92 C 5.03,2.07 4.5,2.32 4.03,2.64 3.55,2.97 3.15,3.36 2.8,3.8 2.46,4.26 2.2,4.75 2.01,5.3 1.82,5.84 1.72,6.41 1.72,7 c 0,0.48 0.064,0.95 0.19,1.4 0.12,0.45 0.30,0.87 0.53,1.26 0.23,0.39 0.5,0.75 0.82,1.07 0.32,0.32 0.68,0.6 1.07,0.82 0.39,0.23 0.81,0.4 1.26,0.53 0.45,0.13 0.92,0.19 1.4,0.19 0.48,0 0.95,-0.06 1.4,-0.19 0.45,-0.12 0.87,-0.3 1.26,-0.53 0.39,-0.23 0.75,-0.5 1.07,-0.82 0.32,-0.32 0.6,-0.68 0.82,-1.07 C 11.79,9.27 11.96,8.85 12.09,8.4 12.21,7.95 12.28,7.49 12.28,7 c 0,-0.48 -0.06,-0.95 -0.19,-1.4 C 11.96,5.15 11.78,4.72 11.54,4.32 11.31,3.92 11.02,3.55 10.68,3.23 10.55,3.1 10.39,3.01 10.24,2.9 l 1.01,-0.01 V 1.72 Z"
         id="c2" />
      </g>
      <g>
      <path style="display:none" fill="#a6a6a6" transform="scale(1 -1)" transform-origin="center"
         d="M 7.97,1.72 V 4.78 H 9.15 V 3.56 C 9.35,3.68 9.55,3.79 9.72,3.94 10.01,4.2 10.26,4.49 10.46,4.81 10.67,5.13 10.83,5.48 10.94,5.85 11.05,6.22 11.1,6.61 11.1,7 c 0,0.38 -0.05,0.74 -0.15,1.09 -0.1,0.35 -0.24,0.68 -0.41,0.98 C 10.36,9.37 10.15,9.65 9.9,9.9 9.65,10.15 9.37,10.36 9.06,10.54 8.76,10.72 8.44,10.86 8.088,10.95 7.74,11.05 7.38,11.1 7,11.1 c -0.38,0 -0.74,-0.05 -1.09,-0.15 C 5.56,10.86 5.24,10.72 4.94,10.54 4.63,10.36 4.35,10.15 4.1,9.9 3.85,9.65 3.64,9.37 3.46,9.06 3.28,8.76 3.14,8.44 3.05,8.09 2.95,7.74 2.9,7.34 2.9,7 c 0,-0.46 0.073,-0.9 0.22,-1.32 C 3.27,5.25 3.48,4.87 3.74,4.52 4.01,4.17 4.32,3.87 4.69,3.62 5.06,3.36 5.46,3.17 5.91,3.05 l 0.27,-0.07 -0.31,-1.13 v 0 L 5.6,1.92 C 5.03,2.07 4.5,2.32 4.03,2.64 3.55,2.97 3.15,3.36 2.8,3.8 2.46,4.26 2.2,4.75 2.01,5.3 1.82,5.84 1.72,6.41 1.72,7 c 0,0.48 0.064,0.95 0.19,1.4 0.12,0.45 0.30,0.87 0.53,1.26 0.23,0.39 0.5,0.75 0.82,1.07 0.32,0.32 0.68,0.6 1.07,0.82 0.39,0.23 0.81,0.4 1.26,0.53 0.45,0.13 0.92,0.19 1.4,0.19 0.48,0 0.95,-0.06 1.4,-0.19 0.45,-0.12 0.87,-0.3 1.26,-0.53 0.39,-0.23 0.75,-0.5 1.07,-0.82 0.32,-0.32 0.6,-0.68 0.82,-1.07 C 11.79,9.27 11.96,8.85 12.09,8.4 12.21,7.95 12.28,7.49 12.28,7 c 0,-0.48 -0.06,-0.95 -0.19,-1.4 C 11.96,5.15 11.78,4.72 11.54,4.32 11.31,3.92 11.02,3.55 10.68,3.23 10.55,3.1 10.39,3.01 10.24,2.9 l 1.01,-0.01 V 1.72 Z"
         id="c3" />
      </g>
      <g>
      <path fill="#a6a6a6" transform="rotate(-90)" transform-origin="center"
         d="M 7.97,1.72 V 4.78 H 9.15 V 3.56 C 9.35,3.68 9.55,3.79 9.72,3.94 10.01,4.2 10.26,4.49 10.46,4.81 10.67,5.13 10.83,5.48 10.94,5.85 11.05,6.22 11.1,6.61 11.1,7 c 0,0.38 -0.05,0.74 -0.15,1.09 -0.1,0.35 -0.24,0.68 -0.41,0.98 C 10.36,9.37 10.15,9.65 9.9,9.9 9.65,10.15 9.37,10.36 9.06,10.54 8.76,10.72 8.44,10.86 8.088,10.95 7.74,11.05 7.38,11.1 7,11.1 c -0.38,0 -0.74,-0.05 -1.09,-0.15 C 5.56,10.86 5.24,10.72 4.94,10.54 4.63,10.36 4.35,10.15 4.1,9.9 3.85,9.65 3.64,9.37 3.46,9.06 3.28,8.76 3.14,8.44 3.05,8.09 2.95,7.74 2.9,7.34 2.9,7 c 0,-0.46 0.073,-0.9 0.22,-1.32 C 3.27,5.25 3.48,4.87 3.74,4.52 4.01,4.17 4.32,3.87 4.69,3.62 5.06,3.36 5.46,3.17 5.91,3.05 l 0.27,-0.07 -0.31,-1.13 v 0 L 5.6,1.92 C 5.03,2.07 4.5,2.32 4.03,2.64 3.55,2.97 3.15,3.36 2.8,3.8 2.46,4.26 2.2,4.75 2.01,5.3 1.82,5.84 1.72,6.41 1.72,7 c 0,0.48 0.064,0.95 0.19,1.4 0.12,0.45 0.30,0.87 0.53,1.26 0.23,0.39 0.5,0.75 0.82,1.07 0.32,0.32 0.68,0.6 1.07,0.82 0.39,0.23 0.81,0.4 1.26,0.53 0.45,0.13 0.92,0.19 1.4,0.19 0.48,0 0.95,-0.06 1.4,-0.19 0.45,-0.12 0.87,-0.3 1.26,-0.53 0.39,-0.23 0.75,-0.5 1.07,-0.82 0.32,-0.32 0.6,-0.68 0.82,-1.07 C 11.79,9.27 11.96,8.85 12.09,8.4 12.21,7.95 12.28,7.49 12.28,7 c 0,-0.48 -0.06,-0.95 -0.19,-1.4 C 11.96,5.15 11.78,4.72 11.54,4.32 11.31,3.92 11.02,3.55 10.68,3.23 10.55,3.1 10.39,3.01 10.24,2.9 l 1.01,-0.01 V 1.72 Z"
         id="c4" />
      </g>
      <path style="display:none" fill="#a6a6a6"
         d="M 7.97,1.72 V 4.78 H 9.15 V 3.56 C 9.35,3.68 9.55,3.79 9.72,3.94 10.01,4.2 10.26,4.49 10.46,4.81 10.67,5.13 10.83,5.48 10.94,5.85 11.05,6.22 11.1,6.61 11.1,7 c 0,0.38 -0.05,0.74 -0.15,1.09 -0.1,0.35 -0.24,0.68 -0.41,0.98 C 10.36,9.37 10.15,9.65 9.9,9.9 9.65,10.15 9.37,10.36 9.06,10.54 8.76,10.72 8.44,10.86 8.088,10.95 7.74,11.05 7.38,11.1 7,11.1 c -0.38,0 -0.74,-0.05 -1.09,-0.15 C 5.56,10.86 5.24,10.72 4.94,10.54 4.63,10.36 4.35,10.15 4.1,9.9 3.85,9.65 3.64,9.37 3.46,9.06 3.28,8.76 3.14,8.44 3.05,8.09 2.95,7.74 2.9,7.34 2.9,7 c 0,-0.46 0.073,-0.9 0.22,-1.32 C 3.27,5.25 3.48,4.87 3.74,4.52 4.01,4.17 4.32,3.87 4.69,3.62 5.06,3.36 5.46,3.17 5.91,3.05 l 0.27,-0.07 -0.31,-1.13 v 0 L 5.6,1.92 C 5.03,2.07 4.5,2.32 4.03,2.64 3.55,2.97 3.15,3.36 2.8,3.8 2.46,4.26 2.2,4.75 2.01,5.3 1.82,5.84 1.72,6.41 1.72,7 c 0,0.48 0.064,0.95 0.19,1.4 0.12,0.45 0.30,0.87 0.53,1.26 0.23,0.39 0.5,0.75 0.82,1.07 0.32,0.32 0.68,0.6 1.07,0.82 0.39,0.23 0.81,0.4 1.26,0.53 0.45,0.13 0.92,0.19 1.4,0.19 0.48,0 0.95,-0.06 1.4,-0.19 0.45,-0.12 0.87,-0.3 1.26,-0.53 0.39,-0.23 0.75,-0.5 1.07,-0.82 0.32,-0.32 0.6,-0.68 0.82,-1.07 C 11.79,9.27 11.96,8.85 12.09,8.4 12.21,7.95 12.28,7.49 12.28,7 c 0,-0.48 -0.06,-0.95 -0.19,-1.4 C 11.96,5.15 11.78,4.72 11.54,4.32 11.31,3.92 11.02,3.55 10.68,3.23 10.55,3.1 10.39,3.01 10.24,2.9 l 1.01,-0.01 V 1.72 Z"
         id="ac" />
      </g>
      <g id="plus-minus">
         <rect style="display:none" id="vert" fill="#bfbfbf" width="1.25" height="9" x="6.4" y="2.5" />
         <rect style="display:none" id="horz" fill="#bfbfbf" width="9" height="1.25" x="2.5" y="6.4" />
      </g>
      <path style="display:none" id="up"   fill="#bfbfbf" d="M 7,2 2,11 h 10 z" />
      <path style="display:none" id="down" fill="#bfbfbf" d="M 7,12 2,3 h 10 z" />
   </g>
</svg>