<?xml version="1.0" encoding="UTF-8" standalone="no"?>
<!-- Created with Inkscape (http://www.inkscape.org/) -->

<svg
   width="120"
   height="380"
   viewBox="0 0 120 380.00002"
   version="1.1"
   id="svg1"
   xml:space="preserve"
   inkscape:version="1.4 (86a8ad7, 2024-10-11)"
   sodipodi:docname="xmacro.svg"
   xmlns:inkscape="http://www.inkscape.org/namespaces/inkscape"
   xmlns:sodipodi="http://sodipodi.sourceforge.net/DTD/sodipodi-0.dtd"
   xmlns:xlink="http://www.w3.org/1999/xlink"
   xmlns="http://www.w3.org/2000/svg"
   xmlns:svg="http://www.w3.org/2000/svg"><sodipodi:namedview
     id="namedview1"
     pagecolor="#ffffff"
     bordercolor="#666666"
     borderopacity="1.0"
     inkscape:showpageshadow="2"
     inkscape:pageopacity="0.0"
     inkscape:pagecheckerboard="0"
     inkscape:deskcolor="#4d4d4d"
     inkscape:document-units="px"
     showguides="true"
     inkscape:zoom="6.6765767"
     inkscape:cx="150.8258"
     inkscape:cy="163.55687"
     inkscape:window-width="3840"
     inkscape:window-height="2126"
     inkscape:window-x="-11"
     inkscape:window-y="-11"
     inkscape:window-maximized="1"
     inkscape:current-layer="layer1" /><defs
     id="defs1"><linearGradient
       id="linearGradient1"
       inkscape:collect="always"><stop
         style="stop-color:#282828;stop-opacity:1;"
         offset="0"
         id="stop1" /><stop
         style="stop-color:#181818;stop-opacity:1;"
         offset="1"
         id="stop2" /></linearGradient><linearGradient
       inkscape:collect="always"
       xlink:href="#linearGradient1"
       id="linearGradient22"
       gradientUnits="userSpaceOnUse"
       gradientTransform="scale(0.39999999,1)"
       x1="150"
       y1="0"
       x2="150"
       y2="380" /><linearGradient
       inkscape:collect="always"
       xlink:href="#linearGradient38"
       id="linearGradient131"
       gradientUnits="userSpaceOnUse"
       x1="731.81195"
       y1="78.518806"
       x2="740.8045"
       y2="109.22913" /><linearGradient
       id="linearGradient38"
       inkscape:collect="always">
         <stop
   style="stop-color:#41bf73;stop-opacity:1;"
   offset="0"
   id="stop37" />
         <stop
   style="stop-color:#18482a;stop-opacity:1;"
   offset="1"
   id="stop38" />
      </linearGradient><linearGradient
       inkscape:collect="always"
       xlink:href="#linearGradient38"
       id="linearGradient48"
       gradientUnits="userSpaceOnUse"
       x1="731.81195"
       y1="78.518806"
       x2="740.8045"
       y2="109.22913" /><linearGradient
       id="gface"
       x1="2"
       y1="0"
       x2="3"
       y2="8"
       gradientUnits="userSpaceOnUse"><stop
         offset="0"
         stop-color="#dfdfdf"
         id="stop1-7" /><stop
         offset="1"
         stop-color="#404040"
         id="stop2-6" /></linearGradient></defs><g
     inkscape:label="Layer 1"
     inkscape:groupmode="layer"
     id="layer1"><rect
       style="fill:url(#linearGradient22);stroke-width:1.49999;stroke-linejoin:round;paint-order:fill markers stroke"
       id="rect22"
       width="120"
       height="380"
       x="0"
       y="0"
       inkscape:label="g-panel" /><text
       xml:space="preserve"
       style="font-size:12px;line-height:1.25;font-family:'Hanken Grotesk';-inkscape-font-specification:'Hanken Grotesk';font-variant-ligatures:none;text-align:center;letter-spacing:8px;text-orientation:upright;text-anchor:middle"
       x="62.070312"
       y="11.008"
       id="text36"><tspan
         sodipodi:role="line"
         id="tspan36"
         x="66.070312"
         y="11.008"
         style="font-style:normal;font-variant:normal;font-weight:normal;font-stretch:normal;font-family:'Tw Cen MT';-inkscape-font-specification:'Tw Cen MT';letter-spacing:8px;fill:#d3a02c;fill-opacity:1">XMACRO</tspan></text><text
       xml:space="preserve"
       style="font-size:12px;line-height:1.25;font-family:'Hanken Grotesk';-inkscape-font-specification:'Hanken Grotesk';font-variant-ligatures:none;text-align:center;text-orientation:upright;text-anchor:middle"
       x="47.796021"
       y="28.363998"
       id="text30-5"><tspan
         sodipodi:role="line"
         id="tspan30-4"
         x="47.796021"
         y="28.363998"
         style="fill:#a6a6a6;fill-opacity:1">Module title</tspan></text><rect
       style="fill:#bfbfbf;fill-opacity:1;stroke:#808080;stroke-width:0.75;stroke-linejoin:round;stroke-dasharray:none;stroke-opacity:1;paint-order:fill markers stroke"
       id="rect37"
       width="93.25"
       height="13.052399"
       x="15.375"
       y="33.192554" /><text
       xml:space="preserve"
       style="font-size:12px;line-height:1.25;font-family:'Hanken Grotesk';-inkscape-font-specification:'Hanken Grotesk';font-variant-ligatures:none;text-align:center;text-orientation:upright;text-anchor:middle;fill:#1a1a1a;fill-opacity:1"
       x="28.104012"
       y="43.748554"
       id="text48"><tspan
         sodipodi:role="line"
         id="tspan48"
         x="28.104012"
         y="43.748554"
         style="fill:#1a1a1a;fill-opacity:1">Title</tspan></text><g
       id="g70"
       transform="translate(-88.875999,17.236142)"><rect
         style="fill:#bfbfbf;fill-opacity:1;stroke:#808080;stroke-width:0.75;stroke-linejoin:round;stroke-dasharray:none;stroke-opacity:1;paint-order:fill markers stroke"
         id="rect54"
         width="93.25"
         height="13.052399"
         x="103.375"
         y="131.72388" /><text
         xml:space="preserve"
         style="font-size:12px;line-height:1.25;font-family:'Hanken Grotesk';-inkscape-font-specification:'Hanken Grotesk';font-variant-ligatures:none;text-align:center;text-orientation:upright;text-anchor:middle"
         x="117.55601"
         y="126.89532"
         id="text50"><tspan
           sodipodi:role="line"
           id="tspan50"
           x="117.55601"
           y="126.89532"
           style="fill:#a6a6a6;fill-opacity:1">Name</tspan></text><text
         xml:space="preserve"
         style="font-size:12px;line-height:1.25;font-family:'Hanken Grotesk';-inkscape-font-specification:'Hanken Grotesk';font-variant-ligatures:none;text-align:start;text-orientation:upright;text-anchor:start;fill:#1a1a1a;fill-opacity:1"
         x="104.044"
         y="142.27988"
         id="text54"><tspan
           sodipodi:role="line"
           id="tspan54"
           x="104.044"
           y="142.27988"
           style="text-align:start;text-anchor:start;fill:#1a1a1a;fill-opacity:1">Knob 2</tspan></text></g><g
       id="g82"
       transform="translate(-86.034804,22)"><g
         id="g109"
         transform="translate(-718.06651,-80.283318)"><g
           id="g108"
           transform="matrix(0.48979596,0,0,0.48979596,486.66748,268.69)"
           style="stroke-width:2.04166">
      <circle
   cx="736.35486"
   cy="93.860313"
   fill="url(#gradient)"
   id="circle105"
   style="fill:url(#linearGradient48);fill-opacity:1;stroke-width:2.15131"
   r="16"
   inkscape:label="gamma-knob-bg" />
      <circle
   cx="736.35486"
   cy="93.860313"
   r="14.857142"
   fill="none"
   stroke="#202020"
   stroke-width="4.95028"
   id="circle106"
   style="stroke:#676767;stroke-width:2.55208;stroke-dasharray:none;stroke-opacity:1" />
      <g
   id="g107"
   transform="matrix(1.1428571,0,0,1.1428571,720.35488,77.860311)"
   style="display:inline;stroke-width:2.04166">
         <path
   fill="#cedcf2"
   d="m 13.25,1.8 v 11 h 1.5 v -11 z"
   id="path106"
   style="fill:#d3e5ee;fill-opacity:1;stroke-width:2.04166" />
         <circle
   fill="none"
   stroke="#202020"
   stroke-width="2.55208"
   cx="14"
   cy="14"
   r="0.89999998"
   id="circle107"
   style="display:inline" />
         <path
   opacity="0.8"
   fill="#cedcf2"
   d="m 13,0.2 h 2 l -0.2,1.75 h -1.6 z"
   id="path107"
   style="opacity:1;fill:#d3e5ee;fill-opacity:0.8;stroke-width:2.04166" />
      </g>
   </g></g><g
         id="g127"
         transform="translate(-686.06651,-80.283318)"><g
           id="g126"
           transform="matrix(0.48979596,0,0,0.48979596,486.66748,268.69)"
           style="stroke-width:2.04166">
      <circle
   cx="736.35486"
   cy="93.860313"
   fill="url(#gradient)"
   id="circle111"
   style="fill:url(#linearGradient131);fill-opacity:1;stroke-width:2.15131"
   r="16"
   inkscape:label="gamma-knob-bg" />
      <circle
   cx="736.35486"
   cy="93.860313"
   r="14.857142"
   fill="none"
   stroke="#202020"
   stroke-width="4.95028"
   id="circle112"
   style="stroke:#676767;stroke-width:2.55208;stroke-dasharray:none;stroke-opacity:1" />
      <g
   id="g122"
   transform="matrix(1.1428571,0,0,1.1428571,720.35488,77.860311)"
   style="display:inline;stroke-width:2.04166">
         <path
   fill="#cedcf2"
   d="m 13.25,1.8 v 11 h 1.5 v -11 z"
   id="path112"
   style="fill:#d3e5ee;fill-opacity:1;stroke-width:2.04166" />
         <circle
   fill="none"
   stroke="#202020"
   stroke-width="2.55208"
   cx="14"
   cy="14"
   r="0.89999998"
   id="circle119"
   style="display:inline" />
         <path
   opacity="0.8"
   fill="#cedcf2"
   d="m 13,0.2 h 2 l -0.2,1.75 h -1.6 z"
   id="path119"
   style="opacity:1;fill:#d3e5ee;fill-opacity:0.8;stroke-width:2.04166" />
      </g>
   </g></g><text
         xml:space="preserve"
         style="font-weight:600;font-size:12px;line-height:1.25;font-family:'Hanken Grotesk';-inkscape-font-specification:'Hanken Grotesk Semi-Bold';text-align:center;text-anchor:middle"
         x="129.2346"
         y="257.00909"
         id="text28-7"
         inkscape:label="MIX"><tspan
           sodipodi:role="line"
           id="tspan28-4"
           x="129.2346"
           y="257.00909"
           style="font-style:normal;font-variant:normal;font-weight:600;font-stretch:normal;font-family:'Hanken Grotesk';-inkscape-font-specification:'Hanken Grotesk Semi-Bold';fill:#737373;fill-opacity:1">min</tspan></text><text
         xml:space="preserve"
         style="font-weight:600;font-size:12px;line-height:1.25;font-family:'Hanken Grotesk';-inkscape-font-specification:'Hanken Grotesk Semi-Bold';text-align:center;text-anchor:middle"
         x="161.00661"
         y="257.00909"
         id="text49"
         inkscape:label="MIX"><tspan
           sodipodi:role="line"
           id="tspan49"
           x="161.00661"
           y="257.00909"
           style="font-style:normal;font-variant:normal;font-weight:600;font-stretch:normal;font-family:'Hanken Grotesk';-inkscape-font-specification:'Hanken Grotesk Semi-Bold';fill:#737373;fill-opacity:1">max</tspan></text></g><text
       xml:space="preserve"
       style="font-size:12px;line-height:1.25;font-family:'Hanken Grotesk';-inkscape-font-specification:'Hanken Grotesk';font-variant-ligatures:none;text-align:start;text-orientation:upright;text-anchor:start"
       x="46.381393"
       y="199.64857"
       id="text55"><tspan
         sodipodi:role="line"
         id="tspan55"
         x="46.381393"
         y="199.64857"
         style="text-align:start;text-anchor:start;fill:#a6a6a6;fill-opacity:1">Unipolar</tspan></text><text
       xml:space="preserve"
       style="font-size:12px;line-height:1.25;font-family:'Hanken Grotesk';-inkscape-font-specification:'Hanken Grotesk';font-variant-ligatures:none;text-align:start;text-orientation:upright;text-anchor:start"
       x="46.339386"
       y="219.64857"
       id="text56"><tspan
         sodipodi:role="line"
         id="tspan56"
         x="46.339386"
         y="219.64857"
         style="text-align:start;text-anchor:start;fill:#a6a6a6;fill-opacity:1">Bipolar</tspan></text><circle
       style="fill:#4071bf;fill-opacity:1;stroke:#3f72c0;stroke-width:1;stroke-linejoin:round;stroke-dasharray:none;stroke-opacity:1;paint-order:fill markers stroke"
       id="path57"
       cx="37.776207"
       cy="195.14857"
       r="4" /><circle
       style="fill:none;fill-opacity:1;stroke:#3f72c0;stroke-width:1;stroke-linejoin:round;stroke-dasharray:none;stroke-opacity:1;paint-order:fill markers stroke"
       id="circle59"
       cx="37.776207"
       cy="214.67198"
       r="4" /><g
       id="g81"
       transform="translate(-88,22)"><text
         xml:space="preserve"
         style="font-size:12px;line-height:1.25;font-family:'Hanken Grotesk';-inkscape-font-specification:'Hanken Grotesk';font-variant-ligatures:none;text-align:start;text-orientation:upright;text-anchor:start"
         x="134.33939"
         y="217.64857"
         id="text57"><tspan
           sodipodi:role="line"
           id="tspan57"
           x="134.33939"
           y="217.64857"
           style="text-align:start;text-anchor:start;fill:#a6a6a6;fill-opacity:1">Custom</tspan></text><circle
         style="fill:none;fill-opacity:1;stroke:#3f72c0;stroke-width:1;stroke-linejoin:round;stroke-dasharray:none;stroke-opacity:1;paint-order:fill markers stroke"
         id="circle60"
         cx="125.77621"
         cy="213.14857"
         r="4" /></g><g
       id="g92"
       transform="translate(-77.394998,-4)"><path
         style="fill:#4072bf;fill-opacity:1;stroke-width:0.999999"
         d="m 123.40162,65.034295 c -0.74225,-0.02725 -1.33414,-0.137071 -1.85569,-0.344381 -0.76244,-0.303055 -1.27584,-0.814957 -1.50434,-1.499962 -0.24559,-0.736237 -0.12035,-1.495146 0.63297,-1.966076 0.91852,-0.574203 1.13177,-2.269922 0.46814,-2.653066 -0.34409,-0.198661 -0.56931,-0.374638 -0.64109,-0.65621 -0.0253,-0.09922 -0.0252,-0.310893 1.3e-4,-0.430307 0.0277,-0.130027 0.099,-0.332937 0.15407,-0.437883 0.0761,-0.14499 0.17366,-0.267635 0.36214,-0.455107 0.19766,-0.196591 0.34691,-0.31618 0.63036,-0.505071 0.61889,-0.412431 1.34887,-0.747993 1.96327,-0.902483 0.5907,-0.148528 1.37369,-0.188141 2.03857,-0.103133 0.91752,0.117308 1.67108,0.428882 2.3882,0.987428 0.61837,0.48164 1.10911,1.074424 1.4307,1.728222 0.32573,0.662217 0.47328,1.311203 0.47336,2.08214 8e-5,0.655717 -0.10605,1.262021 -0.31392,1.793517 -0.16452,0.420638 -0.40678,0.822507 -0.72456,1.201944 -0.11197,0.133696 -0.40273,0.425038 -0.54824,0.549334 -0.69331,0.592266 -1.61584,1.068873 -2.63024,1.358878 -0.22971,0.06568 -0.37356,0.09843 -0.59166,0.134709 -0.55171,0.09178 -1.21202,0.136577 -1.73198,0.117502 z m -1.13952,-1.494612 c 0.46828,-0.07987 0.94981,-0.421313 1.19688,-0.848695 0.10173,-0.175978 0.14658,-0.318193 0.15438,-0.48947 0.009,-0.206323 -0.0383,-0.343406 -0.16167,-0.465239 -0.11854,-0.116984 -0.27699,-0.172972 -0.49114,-0.173547 -0.22208,-4.75e-4 -0.39339,0.04293 -0.62931,0.159996 -0.5356,0.265692 -0.91974,0.77785 -0.92068,1.227527 -4.8e-4,0.185083 0.0459,0.30961 0.15597,0.419026 0.16225,0.161365 0.40288,0.220321 0.69557,0.170402 z"
         id="path62"
         sodipodi:nodetypes="sssssscsssssssssssssssssccccccs" /><text
         xml:space="preserve"
         style="font-size:10px;line-height:1.25;font-family:'Hanken Grotesk';-inkscape-font-specification:'Hanken Grotesk';font-variant-ligatures:none;text-orientation:upright"
         x="116.40001"
         y="75.587898"
         id="text62"><tspan
           sodipodi:role="line"
           id="tspan62"
           x="116.40001"
           y="75.587898"
           style="font-size:10px;fill:#a6a6a6;fill-opacity:1">text</tspan></text></g><path
       style="fill:none;stroke:#737373;stroke-width:0.750001;stroke-linecap:butt;stroke-linejoin:miter;stroke-dasharray:none;stroke-opacity:1"
       d="M 4,79.192553 H 120"
       id="path64"
       inkscape:label="div" /><g
       id="g93"
       transform="translate(-93.394997,-4)"><text
         xml:space="preserve"
         style="font-size:10px;line-height:1.25;font-family:'Hanken Grotesk';-inkscape-font-specification:'Hanken Grotesk';font-variant-ligatures:none;text-orientation:upright"
         x="163.14998"
         y="75.271088"
         id="text63"><tspan
           sodipodi:role="line"
           id="tspan63"
           x="163.14998"
           y="75.271088"
           style="font-size:10px;fill:#a6a6a6;fill-opacity:1">bar</tspan></text><path
         style="fill:#bf6440;fill-opacity:1;stroke-width:0.999999"
         d="m 169.54659,65.034295 c -0.74225,-0.02725 -1.33414,-0.137071 -1.85569,-0.344381 -0.76244,-0.303055 -1.27584,-0.814957 -1.50434,-1.499962 -0.24559,-0.736237 -0.12035,-1.495146 0.63297,-1.966076 0.91852,-0.574203 1.13177,-2.269922 0.46814,-2.653066 -0.34409,-0.198661 -0.56931,-0.374638 -0.64109,-0.65621 -0.0253,-0.09922 -0.0252,-0.310893 1.3e-4,-0.430307 0.0277,-0.130027 0.099,-0.332937 0.15407,-0.437883 0.0761,-0.14499 0.17366,-0.267635 0.36214,-0.455107 0.19766,-0.196591 0.34691,-0.31618 0.63036,-0.505071 0.61889,-0.412431 1.34887,-0.747993 1.96327,-0.902483 0.5907,-0.148528 1.37369,-0.188141 2.03857,-0.103133 0.91752,0.117308 1.67108,0.428882 2.3882,0.987428 0.61837,0.48164 1.10911,1.074424 1.4307,1.728222 0.32573,0.662217 0.47328,1.311203 0.47336,2.08214 8e-5,0.655717 -0.10605,1.262021 -0.31392,1.793517 -0.16452,0.420638 -0.40678,0.822507 -0.72456,1.201944 -0.11197,0.133696 -0.40273,0.425038 -0.54824,0.549334 -0.69331,0.592266 -1.61584,1.068873 -2.63024,1.358878 -0.22971,0.06568 -0.37356,0.09843 -0.59166,0.134709 -0.55171,0.09178 -1.21202,0.136577 -1.73198,0.117502 z m -1.13952,-1.494612 c 0.46828,-0.07987 0.94981,-0.421313 1.19688,-0.848695 0.10173,-0.175978 0.14658,-0.318193 0.15438,-0.48947 0.009,-0.206323 -0.0383,-0.343406 -0.16167,-0.465239 -0.11854,-0.116984 -0.27699,-0.172972 -0.49114,-0.173547 -0.22208,-4.75e-4 -0.39339,0.04293 -0.62931,0.159996 -0.5356,0.265692 -0.91974,0.77785 -0.92068,1.227527 -4.8e-4,0.185083 0.0459,0.30961 0.15597,0.419026 0.16225,0.161365 0.40288,0.220321 0.69557,0.170402 z"
         id="path67"
         sodipodi:nodetypes="sssssscsssssssssssssssssccccccs" /></g><text
       xml:space="preserve"
       style="font-size:12px;line-height:1.25;font-family:'Hanken Grotesk';-inkscape-font-specification:'Hanken Grotesk';font-variant-ligatures:none;text-align:start;text-orientation:upright;text-anchor:start"
       x="31.176003"
       y="303.18201"
       id="text68"><tspan
         sodipodi:role="line"
         id="tspan68"
         x="31.176003"
         y="303.18201"
         style="text-align:start;text-anchor:start;fill:#a6a6a6;fill-opacity:1">Input port</tspan></text><text
       xml:space="preserve"
       style="font-size:12px;line-height:1.25;font-family:'Hanken Grotesk';-inkscape-font-specification:'Hanken Grotesk';font-variant-ligatures:none;text-align:center;text-orientation:upright;text-anchor:middle"
       x="29.556007"
       y="182.89532"
       id="text69"><tspan
         sodipodi:role="line"
         id="tspan69"
         x="29.556007"
         y="182.89532"
         style="fill:#a6a6a6;fill-opacity:1">Range</tspan></text><g
       id="g71"
       transform="translate(-88,16)"><rect
         style="fill:#bfbfbf;fill-opacity:1;stroke:#808080;stroke-width:0.749999;stroke-linejoin:round;stroke-dasharray:none;stroke-opacity:1;paint-order:fill markers stroke"
         id="rect70"
         width="39.25"
         height="13.052001"
         x="103.375"
         y="307.72388" /><text
         xml:space="preserve"
         style="font-size:12px;line-height:1.25;font-family:'Hanken Grotesk';-inkscape-font-specification:'Hanken Grotesk';font-variant-ligatures:none;text-align:center;text-orientation:upright;text-anchor:middle"
         x="117.55601"
         y="302.89532"
         id="text70"><tspan
           sodipodi:role="line"
           id="tspan70"
           x="117.55601"
           y="302.89532"
           style="fill:#a6a6a6;fill-opacity:1">Label</tspan></text><text
         xml:space="preserve"
         style="font-size:12px;line-height:1.25;font-family:'Hanken Grotesk';-inkscape-font-specification:'Hanken Grotesk';font-variant-ligatures:none;text-align:start;text-orientation:upright;text-anchor:start;fill:#1a1a1a;fill-opacity:1"
         x="104.044"
         y="318.27988"
         id="text71"><tspan
           sodipodi:role="line"
           id="tspan71"
           x="104.044"
           y="318.27988"
           style="text-align:start;text-anchor:start;fill:#1a1a1a;fill-opacity:1">ABC</tspan></text></g><g
       id="g80"
       transform="translate(-88,22)"><text
         xml:space="preserve"
         style="font-size:12px;line-height:1.25;font-family:'Hanken Grotesk';-inkscape-font-specification:'Hanken Grotesk';font-variant-ligatures:none;text-align:start;text-orientation:upright;text-anchor:start"
         x="119.176"
         y="343.18201"
         id="text72"><tspan
           sodipodi:role="line"
           id="tspan72"
           x="119.176"
           y="343.18201"
           style="text-align:start;text-anchor:start;fill:#a6a6a6;fill-opacity:1">Mod amount</tspan></text><g
         id="g73"
         transform="translate(0.93688253,74.174003)"><rect
           id="r--ctl-frame-hi"
           fill="none"
           stroke="#a6a6a6"
           stroke-width="0.75"
           width="9.25"
           height="9.25"
           x="102.43812"
           y="259.479" /><path
           id="unchecked"
           aria-label="✔"
           fill="#595959"
           opacity="0.4"
           d="m 104.19968,265.16528 q -0.0879,-0.0923 -0.13623,-0.1582 -0.0439,-0.0659 -0.0439,-0.12745 0,-0.0791 0.0747,-0.1582 0.0791,-0.0791 0.19776,-0.14062 0.12304,-0.0615 0.26367,-0.0967 0.14502,-0.0396 0.27685,-0.0396 0.14063,0 0.22852,0.0396 0.0923,0.0351 0.17578,0.12304 0.33838,0.35596 0.61084,0.7295 0.27686,0.36914 0.54053,0.76464 0.25488,-0.68115 0.52734,-1.31396 0.27246,-0.63721 0.57568,-1.24365 0.30762,-0.61084 0.65479,-1.19971 0.35156,-0.59326 0.76025,-1.19092 0.14942,-0.22412 0.43946,-0.32959 0.29443,-0.10547 0.75146,-0.10547 0.13623,0 0.21973,0.0396 0.0835,0.0396 0.0835,0.10547 0,0.0571 -0.0264,0.11426 -0.0264,0.0571 -0.0791,0.13184 -0.99756,1.39306 -1.81495,2.91797 -0.81738,1.5249 -1.41943,3.21679 -0.0395,0.12305 -0.19336,0.18457 -0.15381,0.0615 -0.45264,0.0615 -0.14062,0 -0.2373,-0.009 -0.0967,-0.009 -0.1626,-0.0352 -0.0659,-0.022 -0.10986,-0.0571 -0.0439,-0.0351 -0.0747,-0.0879 -0.18896,-0.30762 -0.36914,-0.57129 -0.17578,-0.26806 -0.36914,-0.51855 -0.18896,-0.25049 -0.40869,-0.50537 -0.21533,-0.25489 -0.4834,-0.54053 z"
           style="opacity:1;fill:#d9d9d9;fill-opacity:1" /></g></g><g
       id="g79"
       transform="translate(-87.063117,33.999857)"><rect
         id="rect78"
         fill="none"
         stroke="#a6a6a6"
         stroke-width="0.75"
         width="9.25"
         height="9.25"
         x="102.43812"
         y="259.479" /><path
         id="path78"
         aria-label="✔"
         fill="#595959"
         opacity="0.4"
         d="m 104.19968,265.16528 q -0.0879,-0.0923 -0.13623,-0.1582 -0.0439,-0.0659 -0.0439,-0.12745 0,-0.0791 0.0747,-0.1582 0.0791,-0.0791 0.19776,-0.14062 0.12304,-0.0615 0.26367,-0.0967 0.14502,-0.0396 0.27685,-0.0396 0.14063,0 0.22852,0.0396 0.0923,0.0351 0.17578,0.12304 0.33838,0.35596 0.61084,0.7295 0.27686,0.36914 0.54053,0.76464 0.25488,-0.68115 0.52734,-1.31396 0.27246,-0.63721 0.57568,-1.24365 0.30762,-0.61084 0.65479,-1.19971 0.35156,-0.59326 0.76025,-1.19092 0.14942,-0.22412 0.43946,-0.32959 0.29443,-0.10547 0.75146,-0.10547 0.13623,0 0.21973,0.0396 0.0835,0.0396 0.0835,0.10547 0,0.0571 -0.0264,0.11426 -0.0264,0.0571 -0.0791,0.13184 -0.99756,1.39306 -1.81495,2.91797 -0.81738,1.5249 -1.41943,3.21679 -0.0395,0.12305 -0.19336,0.18457 -0.15381,0.0615 -0.45264,0.0615 -0.14062,0 -0.2373,-0.009 -0.0967,-0.009 -0.1626,-0.0352 -0.0659,-0.022 -0.10986,-0.0571 -0.0439,-0.0351 -0.0747,-0.0879 -0.18896,-0.30762 -0.36914,-0.57129 -0.17578,-0.26806 -0.36914,-0.51855 -0.18896,-0.25049 -0.40869,-0.50537 -0.21533,-0.25489 -0.4834,-0.54053 z"
         style="opacity:1;fill:#d9d9d9;fill-opacity:1" /></g><g
       id="g6"
       transform="translate(-898.00059,103.13765)"
       inkscape:label="ham"><path
         style="fill:none;stroke:#a6a6a6;stroke-width:1.5;stroke-linecap:butt;stroke-linejoin:miter;stroke-dasharray:none;stroke-opacity:1"
         d="m 982.01474,3.5070536 h 7.98773"
         id="path1" /><path
         style="fill:none;stroke:#a6a6a6;stroke-width:1.5;stroke-linecap:butt;stroke-linejoin:miter;stroke-dasharray:none;stroke-opacity:1"
         d="m 982.01474,6.007 h 7.98773"
         id="path4" /><path
         style="fill:none;stroke:#a6a6a6;stroke-width:1.5;stroke-linecap:butt;stroke-linejoin:miter;stroke-dasharray:none;stroke-opacity:1"
         d="m 982.01474,8.507 h 7.98773"
         id="path5" /></g><text
       xml:space="preserve"
       style="font-size:12px;line-height:1.25;font-family:'Hanken Grotesk';-inkscape-font-specification:'Hanken Grotesk';font-variant-ligatures:none;text-align:center;text-orientation:upright;text-anchor:middle"
       x="62.170013"
       y="112.48964"
       id="text86"><tspan
         sodipodi:role="line"
         id="tspan86"
         x="62.170013"
         y="112.48964"
         style="fill:#a6a6a6;fill-opacity:1">Macro</tspan></text><text
       xml:space="preserve"
       style="font-size:12px;line-height:1.25;font-family:'Hanken Grotesk';-inkscape-font-specification:'Hanken Grotesk';font-variant-ligatures:none;text-align:start;text-orientation:upright;text-anchor:start"
       x="97.124008"
       y="112.48964"
       id="text87"><tspan
         sodipodi:role="line"
         id="tspan87"
         x="97.124008"
         y="112.48964"
         style="text-align:start;text-anchor:start;fill:#c0993f;fill-opacity:1">42</tspan></text><path
       style="fill:none;stroke:#737373;stroke-width:0.750001;stroke-linecap:butt;stroke-linejoin:miter;stroke-dasharray:none;stroke-opacity:1"
       d="M 3.999999,286.11048 H 120"
       id="path87"
       inkscape:label="div" /><path
       style="fill:none;stroke:#737373;stroke-width:0.750001;stroke-linecap:butt;stroke-linejoin:miter;stroke-dasharray:none;stroke-opacity:1"
       d="M 3.999999,167.55848 H 120"
       id="path88"
       inkscape:label="div" /><path
       style="fill:none;stroke:#737373;stroke-width:0.750001;stroke-linecap:butt;stroke-linejoin:miter;stroke-dasharray:none;stroke-opacity:1"
       d="M 4,126.63846 H 120"
       id="path89"
       inkscape:label="div" /><path
       style="fill:none;stroke:#737373;stroke-width:0.750001;stroke-linecap:butt;stroke-linejoin:miter;stroke-dasharray:none;stroke-opacity:1"
       d="M 3.999999,346.11048 H 120"
       id="path92"
       inkscape:label="div" /><g
       id="g94"
       transform="translate(-88.063126,-154.99982)"><rect
         id="rect93"
         fill="none"
         stroke="#a6a6a6"
         stroke-width="0.75"
         width="9.25"
         height="9.25"
         x="102.43812"
         y="259.479" /><path
         id="path93"
         aria-label="✔"
         fill="#595959"
         opacity="0.4"
         d="m 104.19968,265.16528 q -0.0879,-0.0923 -0.13623,-0.1582 -0.0439,-0.0659 -0.0439,-0.12745 0,-0.0791 0.0747,-0.1582 0.0791,-0.0791 0.19776,-0.14062 0.12304,-0.0615 0.26367,-0.0967 0.14502,-0.0396 0.27685,-0.0396 0.14063,0 0.22852,0.0396 0.0923,0.0351 0.17578,0.12304 0.33838,0.35596 0.61084,0.7295 0.27686,0.36914 0.54053,0.76464 0.25488,-0.68115 0.52734,-1.31396 0.27246,-0.63721 0.57568,-1.24365 0.30762,-0.61084 0.65479,-1.19971 0.35156,-0.59326 0.76025,-1.19092 0.14942,-0.22412 0.43946,-0.32959 0.29443,-0.10547 0.75146,-0.10547 0.13623,0 0.21973,0.0396 0.0835,0.0396 0.0835,0.10547 0,0.0571 -0.0264,0.11426 -0.0264,0.0571 -0.0791,0.13184 -0.99756,1.39306 -1.81495,2.91797 -0.81738,1.5249 -1.41943,3.21679 -0.0395,0.12305 -0.19336,0.18457 -0.15381,0.0615 -0.45264,0.0615 -0.14062,0 -0.2373,-0.009 -0.0967,-0.009 -0.1626,-0.0352 -0.0659,-0.022 -0.10986,-0.0571 -0.0439,-0.0351 -0.0747,-0.0879 -0.18896,-0.30762 -0.36914,-0.57129 -0.17578,-0.26806 -0.36914,-0.51855 -0.18896,-0.25049 -0.40869,-0.50537 -0.21533,-0.25489 -0.4834,-0.54053 z"
         style="opacity:1;fill:#d9d9d9;fill-opacity:1" /></g><g
       id="g187"
       transform="translate(-56.999999,-4)"><text
         xml:space="preserve"
         style="font-size:12px;line-height:1.25;font-family:'Hanken Grotesk';-inkscape-font-specification:'Hanken Grotesk';font-variant-ligatures:none;text-align:center;text-orientation:upright;text-anchor:middle"
         x="125"
         y="99.913017"
         id="text186"><tspan
           sodipodi:role="line"
           id="tspan186"
           x="125"
           y="99.913017"
           style="font-style:normal;font-variant:normal;font-weight:600;font-stretch:normal;font-size:12px;font-family:'Hanken Grotesk';-inkscape-font-specification:'Hanken Grotesk Semi-Bold';fill:#bfbfbf;fill-opacity:1">5</tspan></text><rect
         style="fill:none;fill-opacity:1;stroke:#808080;stroke-width:0.750002;stroke-linejoin:round;stroke-dasharray:none;stroke-opacity:1;paint-order:fill markers stroke"
         id="rect186"
         width="11.25"
         height="11.25"
         x="119.375"
         y="90.106018" /></g><g
       id="g188"
       transform="translate(-44.999997,-4)"><text
         xml:space="preserve"
         style="font-size:12px;line-height:1.25;font-family:'Hanken Grotesk';-inkscape-font-specification:'Hanken Grotesk';font-variant-ligatures:none;text-align:center;text-orientation:upright;text-anchor:middle"
         x="125"
         y="99.913017"
         id="text187"><tspan
           sodipodi:role="line"
           id="tspan187"
           x="125"
           y="99.913017"
           style="font-style:normal;font-variant:normal;font-weight:600;font-stretch:normal;font-size:12px;font-family:'Hanken Grotesk';-inkscape-font-specification:'Hanken Grotesk Semi-Bold';fill:#bfbfbf;fill-opacity:1">6</tspan></text><rect
         style="fill:none;fill-opacity:1;stroke:#808080;stroke-width:0.750002;stroke-linejoin:round;stroke-dasharray:none;stroke-opacity:1;paint-order:fill markers stroke"
         id="rect187"
         width="11.25"
         height="11.25"
         x="119.375"
         y="90.106018" /></g><g
       id="g189"
       transform="translate(-69.000001,-4)"><text
         xml:space="preserve"
         style="font-size:12px;line-height:1.25;font-family:'Hanken Grotesk';-inkscape-font-specification:'Hanken Grotesk';font-variant-ligatures:none;text-align:center;text-orientation:upright;text-anchor:middle"
         x="125"
         y="99.913017"
         id="text188"><tspan
           sodipodi:role="line"
           id="tspan188"
           x="125"
           y="99.913017"
           style="font-style:normal;font-variant:normal;font-weight:600;font-stretch:normal;font-size:12px;font-family:'Hanken Grotesk';-inkscape-font-specification:'Hanken Grotesk Semi-Bold';fill:#bfbfbf;fill-opacity:1">4</tspan></text><rect
         style="fill:none;fill-opacity:1;stroke:#808080;stroke-width:0.750002;stroke-linejoin:round;stroke-dasharray:none;stroke-opacity:1;paint-order:fill markers stroke"
         id="rect188"
         width="11.25"
         height="11.25"
         x="119.375"
         y="90.106018" /></g><g
       id="g190"
       transform="translate(-81.000003,-4)"><text
         xml:space="preserve"
         style="font-size:12px;line-height:1.25;font-family:'Hanken Grotesk';-inkscape-font-specification:'Hanken Grotesk';font-variant-ligatures:none;text-align:center;text-orientation:upright;text-anchor:middle"
         x="125"
         y="99.913017"
         id="text189"><tspan
           sodipodi:role="line"
           id="tspan189"
           x="125"
           y="99.913017"
           style="font-style:normal;font-variant:normal;font-weight:600;font-stretch:normal;font-size:12px;font-family:'Hanken Grotesk';-inkscape-font-specification:'Hanken Grotesk Semi-Bold';fill:#bfbfbf;fill-opacity:1">3</tspan></text><rect
         style="fill:none;fill-opacity:1;stroke:#808080;stroke-width:0.750002;stroke-linejoin:round;stroke-dasharray:none;stroke-opacity:1;paint-order:fill markers stroke"
         id="rect189"
         width="11.25"
         height="11.25"
         x="119.375"
         y="90.106018" /></g><rect
       style="fill:#c0c03f;fill-opacity:1;stroke:#c0c03f;stroke-width:0.750002;stroke-linejoin:round;stroke-dasharray:none;stroke-opacity:1;paint-order:fill markers stroke"
       id="rect190"
       width="11.25"
       height="11.25"
       x="26.374992"
       y="86.106018" /><text
       xml:space="preserve"
       style="font-size:12px;line-height:1.25;font-family:'Hanken Grotesk';-inkscape-font-specification:'Hanken Grotesk';font-variant-ligatures:none;text-align:center;text-orientation:upright;text-anchor:middle"
       x="19.999992"
       y="95.913017"
       id="text190"><tspan
         sodipodi:role="line"
         id="tspan190"
         x="19.999992"
         y="95.913017"
         style="font-style:normal;font-variant:normal;font-weight:600;font-stretch:normal;font-size:12px;font-family:'Hanken Grotesk';-inkscape-font-specification:'Hanken Grotesk Semi-Bold';fill:#bfbfbf;fill-opacity:1">1</tspan></text><text
       xml:space="preserve"
       style="font-size:12px;line-height:1.25;font-family:'Hanken Grotesk';-inkscape-font-specification:'Hanken Grotesk';font-variant-ligatures:none;text-align:center;text-orientation:upright;text-anchor:middle"
       x="31.999992"
       y="95.913017"
       id="text191"><tspan
         sodipodi:role="line"
         id="tspan191"
         x="31.999992"
         y="95.913017"
         style="font-style:normal;font-variant:normal;font-weight:600;font-stretch:normal;font-size:12px;font-family:'Hanken Grotesk';-inkscape-font-specification:'Hanken Grotesk Semi-Bold';fill:#000000;fill-opacity:1">2</tspan></text><rect
       style="fill:none;fill-opacity:1;stroke:#808080;stroke-width:0.750002;stroke-linejoin:round;stroke-dasharray:none;stroke-opacity:1;paint-order:fill markers stroke"
       id="rect191"
       width="11.25"
       height="11.25"
       x="14.374992"
       y="86.106018" /><g
       id="g193"
       transform="translate(-32.999995,-4)"><text
         xml:space="preserve"
         style="font-size:12px;line-height:1.25;font-family:'Hanken Grotesk';-inkscape-font-specification:'Hanken Grotesk';font-variant-ligatures:none;text-align:center;text-orientation:upright;text-anchor:middle"
         x="125"
         y="99.913017"
         id="text192"><tspan
           sodipodi:role="line"
           id="tspan192"
           x="125"
           y="99.913017"
           style="font-style:normal;font-variant:normal;font-weight:600;font-stretch:normal;font-size:12px;font-family:'Hanken Grotesk';-inkscape-font-specification:'Hanken Grotesk Semi-Bold';fill:#bfbfbf;fill-opacity:1">7</tspan></text><rect
         style="fill:none;fill-opacity:1;stroke:#808080;stroke-width:0.750002;stroke-linejoin:round;stroke-dasharray:none;stroke-opacity:1;paint-order:fill markers stroke"
         id="rect192"
         width="11.25"
         height="11.25"
         x="119.375"
         y="90.106018" /></g><text
       xml:space="preserve"
       style="font-size:12px;line-height:1.25;font-family:'Hanken Grotesk';-inkscape-font-specification:'Hanken Grotesk';font-variant-ligatures:none;text-align:center;text-orientation:upright;text-anchor:middle"
       x="104"
       y="95.913017"
       id="text194"><tspan
         sodipodi:role="line"
         id="tspan194"
         x="104"
         y="95.913017"
         style="font-style:normal;font-variant:normal;font-weight:600;font-stretch:normal;font-size:12px;font-family:'Hanken Grotesk';-inkscape-font-specification:'Hanken Grotesk Semi-Bold';fill:#bfbfbf;fill-opacity:1">8</tspan></text><rect
       style="fill:none;fill-opacity:1;stroke:#808080;stroke-width:0.750002;stroke-linejoin:round;stroke-dasharray:none;stroke-opacity:1;paint-order:fill markers stroke"
       id="rect194"
       width="11.25"
       height="11.25"
       x="98.375"
       y="86.106018" /><g
       id="g10"
       transform="translate(-87.063117,33.999857)"><rect
         id="rect10"
         fill="none"
         stroke="#a6a6a6"
         stroke-width="0.75"
         width="9.25"
         height="9.25"
         x="102.43812"
         y="259.479" /><path
         id="path10"
         aria-label="✔"
         fill="#595959"
         opacity="0.4"
         d="m 104.19968,265.16528 q -0.0879,-0.0923 -0.13623,-0.1582 -0.0439,-0.0659 -0.0439,-0.12745 0,-0.0791 0.0747,-0.1582 0.0791,-0.0791 0.19776,-0.14062 0.12304,-0.0615 0.26367,-0.0967 0.14502,-0.0396 0.27685,-0.0396 0.14063,0 0.22852,0.0396 0.0923,0.0351 0.17578,0.12304 0.33838,0.35596 0.61084,0.7295 0.27686,0.36914 0.54053,0.76464 0.25488,-0.68115 0.52734,-1.31396 0.27246,-0.63721 0.57568,-1.24365 0.30762,-0.61084 0.65479,-1.19971 0.35156,-0.59326 0.76025,-1.19092 0.14942,-0.22412 0.43946,-0.32959 0.29443,-0.10547 0.75146,-0.10547 0.13623,0 0.21973,0.0396 0.0835,0.0396 0.0835,0.10547 0,0.0571 -0.0264,0.11426 -0.0264,0.0571 -0.0791,0.13184 -0.99756,1.39306 -1.81495,2.91797 -0.81738,1.5249 -1.41943,3.21679 -0.0395,0.12305 -0.19336,0.18457 -0.15381,0.0615 -0.45264,0.0615 -0.14062,0 -0.2373,-0.009 -0.0967,-0.009 -0.1626,-0.0352 -0.0659,-0.022 -0.10986,-0.0571 -0.0439,-0.0351 -0.0747,-0.0879 -0.18896,-0.30762 -0.36914,-0.57129 -0.17578,-0.26806 -0.36914,-0.51855 -0.18896,-0.25049 -0.40869,-0.50537 -0.21533,-0.25489 -0.4834,-0.54053 z"
         style="opacity:1;fill:#d9d9d9;fill-opacity:1" /></g></g></svg>
