<?xml version="1.0" encoding="UTF-8" standalone="no"?>
<!-- Created with Inkscape (http://www.inkscape.org/) -->

<svg
   width="15"
   height="380"
   viewBox="0 0 15 380.00002"
   version="1.1"
   id="svg1"
   xml:space="preserve"
   inkscape:version="1.4 (86a8ad7, 2024-10-11)"
   sodipodi:docname="2slider.svg"
   xmlns:inkscape="http://www.inkscape.org/namespaces/inkscape"
   xmlns:sodipodi="http://sodipodi.sourceforge.net/DTD/sodipodi-0.dtd"
   xmlns:xlink="http://www.w3.org/1999/xlink"
   xmlns="http://www.w3.org/2000/svg"
   xmlns:svg="http://www.w3.org/2000/svg"><sodipodi:namedview
     id="namedview1"
     pagecolor="#ffffff"
     bordercolor="#666666"
     borderopacity="1.0"
     inkscape:showpageshadow="2"
     inkscape:pageopacity="0.0"
     inkscape:pagecheckerboard="0"
     inkscape:deskcolor="#666666"
     inkscape:document-units="px"
     inkscape:zoom="3.3382883"
     inkscape:cx="-7.0395357"
     inkscape:cy="242.04021"
     inkscape:window-width="3840"
     inkscape:window-height="2054"
     inkscape:window-x="3829"
     inkscape:window-y="-11"
     inkscape:window-maximized="1"
     inkscape:current-layer="layer1"
     showguides="true" /><defs
     id="defs1"><linearGradient
       id="linearGradient1"
       inkscape:collect="always"><stop
         style="stop-color:#282828;stop-opacity:1;"
         offset="0"
         id="stop1" /><stop
         style="stop-color:#181818;stop-opacity:1;"
         offset="1"
         id="stop2" /></linearGradient><linearGradient
       inkscape:collect="always"
       xlink:href="#linearGradient1"
       id="linearGradient2"
       x1="-7.4505806e-09"
       y1="190"
       x2="15"
       y2="190"
       gradientUnits="userSpaceOnUse" /></defs><g
     inkscape:label="Layer 1"
     inkscape:groupmode="layer"
     id="layer1"><rect
       style="fill:url(#linearGradient2);stroke:#000000;stroke-width:0.25;stroke-linecap:square;stroke-linejoin:bevel;paint-order:fill markers stroke"
       id="rect1"
       width="14.75"
       height="379.75"
       x="0.12499999"
       y="0.125"
       sodipodi:insensitive="true" /><g
       opacity="1"
       id="g1"
       transform="matrix(0.12066717,0,0,0.12066717,1.4666415,12)"
       style="stroke-width:8.28726"
       inkscape:label="logo"><path
         id="#d"
         fill="#f9a54b"
         d="m 35.444684,32.276051 -3.847433,7.609011 -6.594833,-1.765419 -1.252965,4.684531 5.594072,1.497119 -2.833256,5.628949 -4.359889,-1.167109 -1.255647,4.684532 3.361809,0.901491 -3.852799,7.609009 4.684531,1.258331 3.852799,-7.614376 7.131434,1.912984 -3.850115,7.611693 4.681848,1.252964 3.850115,-7.609008 6.59215,1.762735 1.255648,-4.681848 -5.615535,-1.502484 2.852037,-5.626267 4.36257,1.169791 1.252965,-4.684531 -3.383273,-0.906856 3.8528,-7.614376 -4.663068,-1.250283 -3.874263,7.606328 -7.131434,-1.907619 3.874263,-7.606326 z m 34.178833,1.695661 -1.293209,4.832097 3.270586,0.880026 -1.7842,6.656542 c -1.080249,-2.318514 -2.843281,-3.806606 -5.288208,-4.464525 -2.542608,-0.680901 -4.978506,-0.202203 -7.308513,1.43541 -2.324259,1.623247 -3.897731,3.966668 -4.719411,7.032163 -0.807313,3.019528 -0.634064,5.822842 0.515138,8.408546 1.152075,2.585703 3.033298,4.230356 5.647732,4.931367 2.183482,0.586095 4.458405,0.195077 6.822889,-1.172473 l -0.66807,2.495197 10.144452,2.717887 1.298576,-4.83478 -3.447665,-0.922956 6.782643,-25.322224 z m -35.595461,11.585228 7.131434,1.907618 -2.852038,5.62895 -7.136799,-1.912985 z m 29.985293,2.071281 c 0.308668,0.01383 0.62691,0.06531 0.95515,0.152932 1.100361,0.29592 1.962977,0.982983 2.58642,2.063233 0.637806,1.085995 0.687501,2.633373 0.150248,4.641603 -0.52576,1.968008 -1.333887,3.278435 -2.422756,3.930606 -1.07163,0.643552 -2.161416,0.816612 -3.273268,0.51782 -1.344568,-0.361999 -2.228481,-1.172428 -2.650812,-2.430804 -0.41662,-1.275614 -0.414093,-2.702308 0.0054,-4.276714 0.445316,-1.660597 1.155981,-2.902146 2.135675,-3.726698 0.749853,-0.622723 1.587972,-0.913457 2.513978,-0.871978 z"
         style="stroke-width:8.28726" /><path
         id="hexoid"
         fill="#f9a54b"
         d="M 62.846577,-4e-7 13.123024,13.87512 0.27645025,63.875121 37.153432,100 86.876988,86.12693 l 12.846562,-50 z M 50.000003,11.409473 c 9.326229,0 17.870198,3.291502 24.534513,8.779162 l 4.675179,4.58168 C 85.052538,31.53172 88.590537,40.342354 88.590537,50 c 0,2.241993 -0.199831,4.435404 -0.565088,6.57168 l -1.57126,6.116357 C 82.691068,73.530977 74.242038,82.161032 63.513298,86.161482 l -6.211887,1.733875 c -2.36446,0.451221 -4.803582,0.69518 -7.301408,0.69518 -9.32828,0 -17.87362,-3.293395 -24.538579,-8.783231 L 20.790313,75.231735 C 14.947152,68.470226 11.409469,59.657938 11.409469,50 c 0,-2.241983 0.199829,-4.435394 0.565087,-6.571669 l 1.571267,-6.112289 C 17.310819,26.464746 25.767549,17.827853 36.507037,13.830389 l 6.163104,-1.719648 c 2.373312,-0.454749 4.822029,-0.701268 7.329862,-0.701268 z"
         style="stroke-width:8.28726" /></g><path
       style="fill:none;stroke:#f9a54b;stroke-width:0.25;stroke-linecap:butt;stroke-linejoin:miter;stroke-dasharray:none;stroke-opacity:1"
       d="M 5.0213978,18.90847 H 10.042796"
       id="path6"
       inkscape:label="th" /><g
       id="g10"
       transform="translate(0,20)"><circle
         style="fill:#8c8c8c;fill-opacity:1;stroke:none;stroke-width:0.25;stroke-linecap:square;stroke-linejoin:bevel;stroke-dasharray:none;stroke-opacity:1;paint-order:fill markers stroke"
         id="circle2"
         cx="7.5"
         cy="138.27499"
         inkscape:label="bot"
         r="3" /><rect
         style="fill:#666666;fill-opacity:1;stroke:none;stroke-width:0.249999;stroke-linecap:square;stroke-linejoin:bevel;paint-order:fill markers stroke"
         id="rect3"
         width="2.5"
         height="100"
         x="6.25"
         y="34.999989" /><rect
         style="fill:#bf4095;fill-opacity:1;stroke:#000000;stroke-width:0.25;stroke-linecap:square;stroke-linejoin:bevel;stroke-dasharray:none;paint-order:fill markers stroke"
         id="rect5"
         width="8"
         height="4.5"
         x="3.5"
         y="109.60124" /><circle
         style="fill:#8c8c8c;fill-opacity:1;stroke:none;stroke-width:0.25;stroke-linecap:square;stroke-linejoin:bevel;stroke-dasharray:none;stroke-opacity:1;paint-order:fill markers stroke"
         id="circle5"
         cx="7.5"
         cy="31.625"
         inkscape:label="top"
         r="3" /></g><circle
       style="fill:#8c8c8c;fill-opacity:1;stroke:none;stroke-width:0.25;stroke-linecap:square;stroke-linejoin:bevel;stroke-dasharray:none;stroke-opacity:1;paint-order:fill markers stroke"
       id="circle6"
       cx="7.5"
       cy="332.27499"
       inkscape:label="bot"
       r="3" /><rect
       style="fill:#666666;fill-opacity:1;stroke:none;stroke-width:0.249999;stroke-linecap:square;stroke-linejoin:bevel;paint-order:fill markers stroke"
       id="rect6"
       width="2.5"
       height="100"
       x="6.25"
       y="228.99997" /><rect
       style="fill:#6abf40;fill-opacity:1;stroke:#000000;stroke-width:0.25;stroke-linecap:square;stroke-linejoin:bevel;stroke-dasharray:none;paint-order:fill markers stroke"
       id="rect7"
       width="8"
       height="4.5"
       x="3.5"
       y="303.60126" /><circle
       style="fill:#8c8c8c;fill-opacity:1;stroke:none;stroke-width:0.25;stroke-linecap:square;stroke-linejoin:bevel;stroke-dasharray:none;stroke-opacity:1;paint-order:fill markers stroke"
       id="circle7"
       cx="7.5"
       cy="225.625"
       inkscape:label="top"
       r="3" /><g
       id="g9"
       transform="translate(0.60578855,-107.99622)"><path
         style="fill:none;stroke:#d9d9d9;stroke-width:1.25;stroke-linecap:butt;stroke-linejoin:miter;stroke-dasharray:none;stroke-opacity:1"
         d="M 3.8942114,148.27958 H 9.8942115"
         id="path7" /><path
         style="fill:none;stroke:#d9d9d9;stroke-width:1.25;stroke-linecap:butt;stroke-linejoin:miter;stroke-dasharray:none;stroke-opacity:1"
         d="M 3.8942114,150.27958 H 9.8942115"
         id="path8" /><path
         style="fill:none;stroke:#d9d9d9;stroke-width:1.25;stroke-linecap:butt;stroke-linejoin:miter;stroke-dasharray:none;stroke-opacity:1"
         d="M 3.8942114,152.27958 H 9.8942115"
         id="path9" /></g><g
       id="g12"
       transform="translate(0.605789,66.00378)"><path
         style="fill:none;stroke:#d9d9d9;stroke-width:1.25;stroke-linecap:butt;stroke-linejoin:miter;stroke-dasharray:none;stroke-opacity:1"
         d="M 3.8942114,148.27958 H 9.8942115"
         id="path10" /><path
         style="fill:none;stroke:#d9d9d9;stroke-width:1.25;stroke-linecap:butt;stroke-linejoin:miter;stroke-dasharray:none;stroke-opacity:1"
         d="M 3.8942114,150.27958 H 9.8942115"
         id="path11" /><path
         style="fill:none;stroke:#d9d9d9;stroke-width:1.25;stroke-linecap:butt;stroke-linejoin:miter;stroke-dasharray:none;stroke-opacity:1"
         d="M 3.8942114,152.27958 H 9.8942115"
         id="path12" /></g><path
       style="fill:none;stroke:#8c8c8c;stroke-width:0.25;stroke-linecap:butt;stroke-linejoin:miter;stroke-dasharray:none;stroke-opacity:1"
       d="M 1.9658277,198 H 13.011908"
       id="path13"
       sodipodi:nodetypes="cc" /><path
       style="font-size:12px;line-height:1.25;font-family:'Plantagenet Cherokee';-inkscape-font-specification:'Plantagenet Cherokee';text-align:center;writing-mode:tb-rl;text-orientation:upright;text-anchor:middle;fill:#9779d2;fill-opacity:1"
       d="m 5.9384766,33.518111 q -0.1640625,0 -0.2402344,0.05274 -0.070312,0.05273 -0.1289063,0.1875 l -0.5390625,1.412109 q -0.064453,0.193359 -0.064453,0.275391 0,0.503906 0.9375,0.568359 0.1582031,0 0.1582031,0.199219 0,0.205078 -0.1582031,0.205078 -0.1816406,0 -0.65625,-0.04687 -0.4804687,-0.04687 -0.7089844,-0.04687 -0.3105468,0 -0.6035156,0.04687 -0.2871094,0.04687 -0.6210937,0.04687 -0.070312,0 -0.1113282,-0.07031 -0.041016,-0.07031 -0.041016,-0.152343 0,-0.158204 0.140625,-0.181641 l 0.1816406,-0.02344 q 0.4335938,-0.09961 0.6503907,-0.322265 0.2167968,-0.222656 0.4394531,-0.773438 l 2.7128906,-6.826172 q 0.035156,-0.09961 0.1933594,-0.09961 0.1640625,0 0.2636719,0.09961 1.7167968,4.40625 2.7480469,6.914063 0.140625,0.345703 0.275391,0.539062 0.134765,0.1875 0.27539,0.28711 0.140625,0.09961 0.28711,0.134765 0.146484,0.03516 0.310546,0.07031 0.134766,0.02344 0.134766,0.210937 0,0.19336 -0.123047,0.19336 -0.375,0 -0.738281,-0.04687 -0.351563,-0.04687 -0.796875,-0.04687 -0.5097657,0 -0.9492188,0.04687 -0.4394531,0.04687 -0.8496094,0.04687 -0.082031,0 -0.1289062,-0.06445 -0.041016,-0.06445 -0.041016,-0.152344 0,-0.164063 0.1582032,-0.1875 0.4453125,-0.05859 0.6152343,-0.158203 0.1757813,-0.09961 0.1757813,-0.386719 0,-0.216797 -0.140625,-0.626953 -0.140625,-0.416016 -0.4101563,-1.083984 -0.058594,-0.158204 -0.1640625,-0.199219 -0.099609,-0.04102 -0.328125,-0.04102 z m 2.0683593,-0.46875 q 0.2578125,0 0.2578125,-0.134765 L 8.2353516,32.797408 7.1865234,29.990767 q -0.023437,-0.06445 -0.09375,-0.06445 -0.070312,0 -0.09375,0.06445 l -1.0957031,2.806641 q -0.035156,0.08203 -0.035156,0.134766 0,0.117187 0.2050781,0.117187 z"
       id="text15"
       aria-label="A" /><path
       style="font-size:12px;line-height:1.25;font-family:'Plantagenet Cherokee';-inkscape-font-specification:'Plantagenet Cherokee';text-align:center;writing-mode:tb-rl;text-orientation:upright;text-anchor:middle;fill:#9779d2;fill-opacity:1"
       d="m 6.7441406,205.71342 q 0,0.15821 0.052734,0.23438 0.052734,0.0762 0.234375,0.0762 h 0.2285156 q 0.9785157,0 1.3945313,-0.39258 0.4160156,-0.39258 0.4160156,-1.20117 0,-0.7793 -0.3925781,-1.1543 -0.3867188,-0.38086 -1.2128907,-0.38086 H 7.0546875 q -0.1816406,0 -0.2460938,0.0879 -0.064453,0.082 -0.064453,0.4629 z m 0,2.41407 q 0,0.9082 0.076172,1.25976 0.082031,0.3457 0.28125,0.48047 0.2050781,0.12891 0.8554687,0.12891 0.8378907,0 1.1718751,-0.39844 0.3398437,-0.39844 0.3398437,-1.19531 0,-0.9375 -0.4921875,-1.40625 -0.4863281,-0.46875 -1.6113281,-0.46875 H 7.1367187 q -0.2460937,0 -0.3222656,0.082 -0.070312,0.082 -0.070312,0.39844 z M 5.4375,204.44194 q 0,-0.67383 -0.1113281,-1.00781 -0.1054688,-0.33985 -0.3164063,-0.47461 -0.2109375,-0.14063 -0.75,-0.1875 -0.064453,0 -0.099609,-0.0586 Q 4.125,202.64897 4.125,202.5728 q 0,-0.18164 0.1347656,-0.18164 0.3984375,0 0.7265625,0.0234 0.328125,0.0234 0.7617188,0.0234 l 1.7167968,-0.0469 q 1.4062501,0 2.1679688,0.5039 0.7675785,0.49805 0.7675785,1.43555 0,0.61524 -0.351563,1.05469 -0.3515624,0.43945 -1.095703,0.70898 -0.064453,0.0293 -0.064453,0.0762 0,0.0469 0.064453,0.0586 0.9375,0.25781 1.464844,0.76172 0.527344,0.5039 0.527344,1.43554 0,1.01368 -0.66211,1.5586 -0.6562499,0.53906 -1.9804686,0.53906 l -1.0898438,-0.0293 -1.1777344,-0.0293 q -0.6328125,0 -1.2304687,0.0527 l -0.46875,0.041 q -0.058594,0 -0.09375,-0.0645 -0.035156,-0.0586 -0.035156,-0.14062 0,-0.1875 0.1347657,-0.19922 0.65625,-0.0762 0.8730468,-0.31641 Q 5.4375,209.59819 5.4375,209.04741 Z"
       id="text16"
       aria-label="B" /><g
       id="g16"
       transform="translate(-0.54548475,181.19024)"><path
         style="fill:#d9d9d9"
         d="m 8.046461,5.1335106 a 3.2410583,3.1726799 0 0 0 -3.2421875,3.171875 3.2410583,3.1726799 0 0 0 2.4355469,3.0683584 v -0.874999 h 1.5859375 v 0.878906 A 3.2410583,3.1726799 0 0 0 11.286696,8.3053856 3.2410583,3.1726799 0 0 0 8.046461,5.1335106 Z M 7.966383,5.8073387 c 0.0041,-4.155e-4 0.00947,0 0.013672,0 H 8.02693 c 0.067292,0 0.1210938,0.053805 0.1210938,0.1210938 V 6.26437 c 0.1329262,0.057801 0.218602,0.189035 0.21875,0.3339844 -1.475e-4,0.1449493 -0.085824,0.2742304 -0.21875,0.3320312 v 0.3359375 c 0,0.06729 -0.053803,0.1230469 -0.1210938,0.1230469 H 7.980055 c -0.067292,0 -0.1230468,-0.055756 -0.1230468,-0.1230469 V 6.9303856 C 7.7240814,6.872585 7.6384052,6.7433037 7.6382579,6.5983544 7.6385338,6.4535222 7.7241889,6.3221241 7.8570079,6.26437 V 5.9284325 c 0,-0.06308 0.047937,-0.1148544 0.1093751,-0.1210938 z M 6.4331797,6.2897606 c 0.038824,-0.00473 0.079839,0.00927 0.1074219,0.041016 l 0.2207031,0.2539062 c 0.1381397,-0.043519 0.2876095,-0.00172 0.3828126,0.1074219 0.09496,0.1095124 0.1171164,0.2656678 0.054687,0.3964843 l 0.2207032,0.2519532 c 0.044135,0.050794 0.037124,0.1277383 -0.013672,0.171875 l -0.035156,0.03125 c -0.050794,0.044135 -0.1277396,0.039076 -0.171875,-0.011719 L 6.9781016,7.279995 C 6.8398509,7.3235491 6.690472,7.279939 6.5952891,7.17062 6.5003295,7.0611074 6.4781731,6.9049524 6.5406016,6.7741356 l -0.21875,-0.2519531 c -0.044134,-0.050793 -0.039077,-0.1277384 0.011719,-0.171875 l 0.035156,-0.03125 c 0.019048,-0.016551 0.041159,-0.02646 0.064453,-0.029297 z m 3.2792969,0.070312 c 0.030558,-0.00157 0.060937,0.00953 0.085937,0.03125 l 0.035156,0.03125 c 0.050796,0.044137 0.055853,0.1210816 0.011719,0.171875 l -0.21875,0.2519532 C 9.6889676,6.9772176 9.6668106,7.1333723 9.5718516,7.2428851 9.4766686,7.3522044 9.3272904,7.3938611 9.1890391,7.350307 L 8.968336,7.6042137 C 8.924201,7.6550087 8.8472553,7.6600677 8.796461,7.6159327 L 8.761305,7.5846827 C 8.7105089,7.5405458 8.7034975,7.4636018 8.7476329,7.4128075 L 8.968336,7.1608544 C 8.9059071,7.0300373 8.928063,6.8738826 9.0230235,6.76437 9.1182264,6.6552237 9.2676961,6.613429 9.405836,6.6569481 L 9.6265391,6.4030419 c 0.019308,-0.022221 0.045333,-0.036518 0.072266,-0.041016 0.00433,-7.23e-4 0.00931,-0.00173 0.013672,-0.00195 z m -4.2714843,1.007813 c 0.023275,-0.00299 0.047776,0.00232 0.070312,0.013672 L 5.8101329,7.5319481 C 5.9214519,7.4392952 6.0771355,7.4221342 6.2066173,7.4870263 6.3360134,7.552349 6.4139946,7.6880093 6.405836,7.8327294 L 6.7066173,7.98312 c 0.060101,0.030264 0.082999,0.1039602 0.052734,0.1640625 l -0.021484,0.041016 c -0.030264,0.060101 -0.1020089,0.084951 -0.1621094,0.054687 L 6.2749766,8.092495 C 6.1635678,8.1852225 6.008021,8.2024763 5.8784923,8.1374169 5.7490965,8.0720935 5.671115,7.9364336 5.6792735,7.7917137 L 5.3804454,7.6413231 c -0.0601,-0.030263 -0.084952,-0.10396 -0.054687,-0.1640625 l 0.021484,-0.042969 c 0.018915,-0.037563 0.054957,-0.061427 0.09375,-0.066406 z m 5.0996097,0 c 0.04737,-0.00315 0.09449,0.021331 0.117187,0.066406 l 0.02149,0.042969 c 0.03026,0.060103 0.0054,0.1337991 -0.05469,0.1640625 l -0.298828,0.1503906 c 0.0082,0.1447201 -0.06982,0.2803798 -0.199219,0.3457032 C 9.99701,8.2024765 9.8414638,8.1852227 9.7300547,8.092495 L 9.4292735,8.2428856 C 9.3691727,8.2731495 9.297428,8.2482989 9.2671641,8.1881981 L 9.2456797,8.1471825 C 9.2154149,8.08708 9.2383134,8.0133839 9.2984141,7.98312 L 9.5991954,7.8327294 c -0.00816,-0.1447203 0.069822,-0.2803802 0.1992187,-0.3457031 0.129482,-0.064892 0.2851649,-0.047731 0.3964849,0.044922 l 0.298828,-0.1503906 c 0.01502,-0.00757 0.03108,-0.012623 0.04687,-0.013672 z"
         id="path1" /><path
         style="fill:#141414"
         d="m 7.966383,5.8073387 c 0.0041,-4.155e-4 0.00947,0 0.013672,0 H 8.02693 c 0.067292,0 0.1210938,0.053805 0.1210938,0.1210938 V 6.26437 c 0.1329262,0.057801 0.218602,0.189035 0.21875,0.3339844 -1.475e-4,0.1449493 -0.085824,0.2742304 -0.21875,0.3320312 v 0.3359375 c 0,0.06729 -0.053803,0.1230469 -0.1210938,0.1230469 H 7.980055 c -0.067292,0 -0.1230468,-0.055756 -0.1230468,-0.1230469 V 6.9303856 C 7.7240814,6.872585 7.6384052,6.7433037 7.6382579,6.5983544 7.6385338,6.4535222 7.7241889,6.3221241 7.8570079,6.26437 V 5.9284325 c 0,-0.06308 0.047937,-0.1148544 0.1093751,-0.1210938 z M 6.4331797,6.2897606 c 0.038824,-0.00473 0.079839,0.00927 0.1074219,0.041016 l 0.2207031,0.2539062 c 0.1381397,-0.043519 0.2876095,-0.00172 0.3828126,0.1074219 0.09496,0.1095124 0.1171164,0.2656678 0.054687,0.3964843 l 0.2207032,0.2519532 c 0.044135,0.050794 0.037124,0.1277383 -0.013672,0.171875 l -0.035156,0.03125 c -0.050794,0.044135 -0.1277396,0.039076 -0.171875,-0.011719 L 6.9781016,7.279995 C 6.8398509,7.3235491 6.690472,7.279939 6.5952891,7.17062 6.5003295,7.0611074 6.4781731,6.9049524 6.5406016,6.7741356 l -0.21875,-0.2519531 c -0.044134,-0.050793 -0.039077,-0.1277384 0.011719,-0.171875 l 0.035156,-0.03125 c 0.019048,-0.016551 0.041159,-0.02646 0.064453,-0.029297 z m 3.2792969,0.070312 c 0.030558,-0.00157 0.060937,0.00953 0.085937,0.03125 l 0.035156,0.03125 c 0.050796,0.044137 0.055853,0.1210816 0.011719,0.171875 l -0.21875,0.2519532 C 9.6889676,6.9772176 9.6668106,7.1333723 9.5718516,7.2428851 9.4766686,7.3522044 9.3272904,7.3938611 9.1890391,7.350307 L 8.968336,7.6042137 C 8.924201,7.6550087 8.8472553,7.6600677 8.796461,7.6159327 L 8.761305,7.5846827 C 8.7105089,7.5405458 8.7034975,7.4636018 8.7476329,7.4128075 L 8.968336,7.1608544 C 8.9059071,7.0300373 8.928063,6.8738826 9.0230235,6.76437 9.1182264,6.6552237 9.2676961,6.613429 9.405836,6.6569481 L 9.6265391,6.4030419 c 0.019308,-0.022221 0.045333,-0.036518 0.072266,-0.041016 0.00433,-7.23e-4 0.00931,-0.00173 0.013672,-0.00195 z m -4.2714843,1.007813 c 0.023275,-0.00299 0.047776,0.00232 0.070312,0.013672 L 5.8101329,7.5319481 C 5.9214519,7.4392952 6.0771355,7.4221342 6.2066173,7.4870263 6.3360134,7.552349 6.4139946,7.6880093 6.405836,7.8327294 L 6.7066173,7.98312 c 0.060101,0.030264 0.082999,0.1039602 0.052734,0.1640625 l -0.021484,0.041016 c -0.030264,0.060101 -0.1020089,0.084951 -0.1621094,0.054687 L 6.2749766,8.092495 C 6.1635678,8.1852225 6.008021,8.2024763 5.8784923,8.1374169 5.7490965,8.0720935 5.671115,7.9364336 5.6792735,7.7917137 L 5.3804454,7.6413231 c -0.0601,-0.030263 -0.084952,-0.10396 -0.054687,-0.1640625 l 0.021484,-0.042969 c 0.018915,-0.037563 0.054957,-0.061427 0.09375,-0.066406 z m 5.0996097,0 c 0.04737,-0.00315 0.09449,0.021331 0.117187,0.066406 l 0.02149,0.042969 c 0.03026,0.060103 0.0054,0.1337991 -0.05469,0.1640625 l -0.298828,0.1503906 c 0.0082,0.1447201 -0.06982,0.2803798 -0.199219,0.3457032 C 9.99701,8.2024765 9.8414638,8.1852227 9.7300547,8.092495 L 9.4292735,8.2428856 C 9.3691727,8.2731495 9.297428,8.2482989 9.2671641,8.1881981 L 9.2456797,8.1471825 C 9.2154149,8.08708 9.2383134,8.0133839 9.2984141,7.98312 L 9.5991954,7.8327294 c -0.00816,-0.1447203 0.069822,-0.2803802 0.1992187,-0.3457031 0.129482,-0.064892 0.2851649,-0.047731 0.3964849,0.044922 l 0.298828,-0.1503906 c 0.01502,-0.00757 0.03108,-0.012623 0.04687,-0.013672 z"
         id="path2" /></g><g
       id="g19"
       transform="translate(-0.54548475,353.61372)"><path
         style="fill:#d9d9d9"
         d="m 8.046461,5.1335106 a 3.2410583,3.1726799 0 0 0 -3.2421875,3.171875 3.2410583,3.1726799 0 0 0 2.4355469,3.0683584 v -0.874999 h 1.5859375 v 0.878906 A 3.2410583,3.1726799 0 0 0 11.286696,8.3053856 3.2410583,3.1726799 0 0 0 8.046461,5.1335106 Z M 7.966383,5.8073387 c 0.0041,-4.155e-4 0.00947,0 0.013672,0 H 8.02693 c 0.067292,0 0.1210938,0.053805 0.1210938,0.1210938 V 6.26437 c 0.1329262,0.057801 0.218602,0.189035 0.21875,0.3339844 -1.475e-4,0.1449493 -0.085824,0.2742304 -0.21875,0.3320312 v 0.3359375 c 0,0.06729 -0.053803,0.1230469 -0.1210938,0.1230469 H 7.980055 c -0.067292,0 -0.1230468,-0.055756 -0.1230468,-0.1230469 V 6.9303856 C 7.7240814,6.872585 7.6384052,6.7433037 7.6382579,6.5983544 7.6385338,6.4535222 7.7241889,6.3221241 7.8570079,6.26437 V 5.9284325 c 0,-0.06308 0.047937,-0.1148544 0.1093751,-0.1210938 z M 6.4331797,6.2897606 c 0.038824,-0.00473 0.079839,0.00927 0.1074219,0.041016 l 0.2207031,0.2539062 c 0.1381397,-0.043519 0.2876095,-0.00172 0.3828126,0.1074219 0.09496,0.1095124 0.1171164,0.2656678 0.054687,0.3964843 l 0.2207032,0.2519532 c 0.044135,0.050794 0.037124,0.1277383 -0.013672,0.171875 l -0.035156,0.03125 c -0.050794,0.044135 -0.1277396,0.039076 -0.171875,-0.011719 L 6.9781016,7.279995 C 6.8398509,7.3235491 6.690472,7.279939 6.5952891,7.17062 6.5003295,7.0611074 6.4781731,6.9049524 6.5406016,6.7741356 l -0.21875,-0.2519531 c -0.044134,-0.050793 -0.039077,-0.1277384 0.011719,-0.171875 l 0.035156,-0.03125 c 0.019048,-0.016551 0.041159,-0.02646 0.064453,-0.029297 z m 3.2792969,0.070312 c 0.030558,-0.00157 0.060937,0.00953 0.085937,0.03125 l 0.035156,0.03125 c 0.050796,0.044137 0.055853,0.1210816 0.011719,0.171875 l -0.21875,0.2519532 C 9.6889676,6.9772176 9.6668106,7.1333723 9.5718516,7.2428851 9.4766686,7.3522044 9.3272904,7.3938611 9.1890391,7.350307 L 8.968336,7.6042137 C 8.924201,7.6550087 8.8472553,7.6600677 8.796461,7.6159327 L 8.761305,7.5846827 C 8.7105089,7.5405458 8.7034975,7.4636018 8.7476329,7.4128075 L 8.968336,7.1608544 C 8.9059071,7.0300373 8.928063,6.8738826 9.0230235,6.76437 9.1182264,6.6552237 9.2676961,6.613429 9.405836,6.6569481 L 9.6265391,6.4030419 c 0.019308,-0.022221 0.045333,-0.036518 0.072266,-0.041016 0.00433,-7.23e-4 0.00931,-0.00173 0.013672,-0.00195 z m -4.2714843,1.007813 c 0.023275,-0.00299 0.047776,0.00232 0.070312,0.013672 L 5.8101329,7.5319481 C 5.9214519,7.4392952 6.0771355,7.4221342 6.2066173,7.4870263 6.3360134,7.552349 6.4139946,7.6880093 6.405836,7.8327294 L 6.7066173,7.98312 c 0.060101,0.030264 0.082999,0.1039602 0.052734,0.1640625 l -0.021484,0.041016 c -0.030264,0.060101 -0.1020089,0.084951 -0.1621094,0.054687 L 6.2749766,8.092495 C 6.1635678,8.1852225 6.008021,8.2024763 5.8784923,8.1374169 5.7490965,8.0720935 5.671115,7.9364336 5.6792735,7.7917137 L 5.3804454,7.6413231 c -0.0601,-0.030263 -0.084952,-0.10396 -0.054687,-0.1640625 l 0.021484,-0.042969 c 0.018915,-0.037563 0.054957,-0.061427 0.09375,-0.066406 z m 5.0996097,0 c 0.04737,-0.00315 0.09449,0.021331 0.117187,0.066406 l 0.02149,0.042969 c 0.03026,0.060103 0.0054,0.1337991 -0.05469,0.1640625 l -0.298828,0.1503906 c 0.0082,0.1447201 -0.06982,0.2803798 -0.199219,0.3457032 C 9.99701,8.2024765 9.8414638,8.1852227 9.7300547,8.092495 L 9.4292735,8.2428856 C 9.3691727,8.2731495 9.297428,8.2482989 9.2671641,8.1881981 L 9.2456797,8.1471825 C 9.2154149,8.08708 9.2383134,8.0133839 9.2984141,7.98312 L 9.5991954,7.8327294 c -0.00816,-0.1447203 0.069822,-0.2803802 0.1992187,-0.3457031 0.129482,-0.064892 0.2851649,-0.047731 0.3964849,0.044922 l 0.298828,-0.1503906 c 0.01502,-0.00757 0.03108,-0.012623 0.04687,-0.013672 z"
         id="path18" /><path
         style="fill:#141414"
         d="m 7.966383,5.8073387 c 0.0041,-4.155e-4 0.00947,0 0.013672,0 H 8.02693 c 0.067292,0 0.1210938,0.053805 0.1210938,0.1210938 V 6.26437 c 0.1329262,0.057801 0.218602,0.189035 0.21875,0.3339844 -1.475e-4,0.1449493 -0.085824,0.2742304 -0.21875,0.3320312 v 0.3359375 c 0,0.06729 -0.053803,0.1230469 -0.1210938,0.1230469 H 7.980055 c -0.067292,0 -0.1230468,-0.055756 -0.1230468,-0.1230469 V 6.9303856 C 7.7240814,6.872585 7.6384052,6.7433037 7.6382579,6.5983544 7.6385338,6.4535222 7.7241889,6.3221241 7.8570079,6.26437 V 5.9284325 c 0,-0.06308 0.047937,-0.1148544 0.1093751,-0.1210938 z M 6.4331797,6.2897606 c 0.038824,-0.00473 0.079839,0.00927 0.1074219,0.041016 l 0.2207031,0.2539062 c 0.1381397,-0.043519 0.2876095,-0.00172 0.3828126,0.1074219 0.09496,0.1095124 0.1171164,0.2656678 0.054687,0.3964843 l 0.2207032,0.2519532 c 0.044135,0.050794 0.037124,0.1277383 -0.013672,0.171875 l -0.035156,0.03125 c -0.050794,0.044135 -0.1277396,0.039076 -0.171875,-0.011719 L 6.9781016,7.279995 C 6.8398509,7.3235491 6.690472,7.279939 6.5952891,7.17062 6.5003295,7.0611074 6.4781731,6.9049524 6.5406016,6.7741356 l -0.21875,-0.2519531 c -0.044134,-0.050793 -0.039077,-0.1277384 0.011719,-0.171875 l 0.035156,-0.03125 c 0.019048,-0.016551 0.041159,-0.02646 0.064453,-0.029297 z m 3.2792969,0.070312 c 0.030558,-0.00157 0.060937,0.00953 0.085937,0.03125 l 0.035156,0.03125 c 0.050796,0.044137 0.055853,0.1210816 0.011719,0.171875 l -0.21875,0.2519532 C 9.6889676,6.9772176 9.6668106,7.1333723 9.5718516,7.2428851 9.4766686,7.3522044 9.3272904,7.3938611 9.1890391,7.350307 L 8.968336,7.6042137 C 8.924201,7.6550087 8.8472553,7.6600677 8.796461,7.6159327 L 8.761305,7.5846827 C 8.7105089,7.5405458 8.7034975,7.4636018 8.7476329,7.4128075 L 8.968336,7.1608544 C 8.9059071,7.0300373 8.928063,6.8738826 9.0230235,6.76437 9.1182264,6.6552237 9.2676961,6.613429 9.405836,6.6569481 L 9.6265391,6.4030419 c 0.019308,-0.022221 0.045333,-0.036518 0.072266,-0.041016 0.00433,-7.23e-4 0.00931,-0.00173 0.013672,-0.00195 z m -4.2714843,1.007813 c 0.023275,-0.00299 0.047776,0.00232 0.070312,0.013672 L 5.8101329,7.5319481 C 5.9214519,7.4392952 6.0771355,7.4221342 6.2066173,7.4870263 6.3360134,7.552349 6.4139946,7.6880093 6.405836,7.8327294 L 6.7066173,7.98312 c 0.060101,0.030264 0.082999,0.1039602 0.052734,0.1640625 l -0.021484,0.041016 c -0.030264,0.060101 -0.1020089,0.084951 -0.1621094,0.054687 L 6.2749766,8.092495 C 6.1635678,8.1852225 6.008021,8.2024763 5.8784923,8.1374169 5.7490965,8.0720935 5.671115,7.9364336 5.6792735,7.7917137 L 5.3804454,7.6413231 c -0.0601,-0.030263 -0.084952,-0.10396 -0.054687,-0.1640625 l 0.021484,-0.042969 c 0.018915,-0.037563 0.054957,-0.061427 0.09375,-0.066406 z m 5.0996097,0 c 0.04737,-0.00315 0.09449,0.021331 0.117187,0.066406 l 0.02149,0.042969 c 0.03026,0.060103 0.0054,0.1337991 -0.05469,0.1640625 l -0.298828,0.1503906 c 0.0082,0.1447201 -0.06982,0.2803798 -0.199219,0.3457032 C 9.99701,8.2024765 9.8414638,8.1852227 9.7300547,8.092495 L 9.4292735,8.2428856 C 9.3691727,8.2731495 9.297428,8.2482989 9.2671641,8.1881981 L 9.2456797,8.1471825 C 9.2154149,8.08708 9.2383134,8.0133839 9.2984141,7.98312 L 9.5991954,7.8327294 c -0.00816,-0.1447203 0.069822,-0.2803802 0.1992187,-0.3457031 0.129482,-0.064892 0.2851649,-0.047731 0.3964849,0.044922 l 0.298828,-0.1503906 c 0.01502,-0.00757 0.03108,-0.012623 0.04687,-0.013672 z"
         id="path19" /></g><g
       id="g159"
       transform="translate(-0.5,339.07361)">
         <circle
   id="circle157"
   fill="#ffffff"
   fill-opacity="0.2"
   cx="8"
   cy="8"
   r="8" />
         <circle
   id="circle158"
   fill="#141414"
   cx="8"
   cy="8"
   r="3.25" />
         <circle
   id="circle159"
   fill="none"
   stroke="#808080"
   stroke-width="2"
   cx="8"
   cy="8"
   r="4" />
      </g><g
       id="g21"
       transform="translate(-0.5,165.86187)">
         <circle
   id="circle19"
   fill="#ffffff"
   fill-opacity="0.2"
   cx="8"
   cy="8"
   r="8" />
         <circle
   id="circle20"
   fill="#141414"
   cx="8"
   cy="8"
   r="3.25" />
         <circle
   id="circle21"
   fill="none"
   stroke="#808080"
   stroke-width="2"
   cx="8"
   cy="8"
   r="4" />
      </g></g></svg>
