<?xml version="1.0" encoding="UTF-8" standalone="no"?>
<svg width="120" height="380" viewBox="0 0 120 380" version="1.1"
   xmlns:xlink="http://www.w3.org/1999/xlink"
   xmlns="http://www.w3.org/2000/svg" xmlns:svg="http://www.w3.org/2000/svg">
   <defs>
      <linearGradient id="gpanel" x1="0" y1="0" x2="0" y2="380" xlink:href="#panel-stops" gradientUnits="userSpaceOnUse" >
         <stop offset="0" stop-color="#282828" />
         <stop offset="1" stop-color="#181818" />
      </linearGradient>
   </defs>
   <rect opacity="1" id="g-panel" fill="url(#gpanel)" x="0" y="0" width="165" height="380" />

    <path id="1--k#" transform="translate(1.5, 18)" fill="#4095bf" d="M 0.28320313,0 H 1.8994141 V 6.2011719 H 1.0595703 V 0.8203125 H 0 Z" />
    <path id="2--k#" transform="translate(1.5, 58)" fill="#4095bf" d="M 1.879883,5.600586 H 4.248047 V 6.430664 H 0 L 3.168945,3.061523 Q 3.525391,2.670898 3.525391,2.202148 3.525391,1.65039 3.149414,1.245117 2.773437,0.839844 2.265625,0.839844 q -0.419922,0 -0.791016,0.268554 Q 1.108398,1.376953 0.996094,1.938476 H 0.175781 Q 0.297852,1.020508 0.898437,0.512695 1.503906,0 2.319336,0 q 0.81543,0 1.420898,0.644531 0.605469,0.639648 0.605469,1.518555 0,0.424804 -0.15625,0.78125 -0.151367,0.351562 -0.541992,0.766601 z" />
    <path id="3--k#" transform="translate(1.5, 98)" fill="#4095bf" d="M 1.088868,1.611328 H 0.180664 Q 0.268554,0.825195 0.795899,0.415039 1.328125,0 2.080078,0 q 0.864258,0 1.430665,0.493164 0.566406,0.493164 0.566406,1.235352 0,0.922851 -0.9375,1.411132 1.098633,0.566407 1.098633,1.5625 0,0.78125 -0.600586,1.357422 -0.595703,0.571289 -1.416016,0.571289 -0.825195,0 -1.430664,-0.410156 Q 0.19043,5.805664 0,4.912109 h 0.927735 q 0.302734,0.966797 1.240234,0.966797 0.478516,0 0.834961,-0.327148 0.356445,-0.332032 0.356445,-0.771485 0,-0.458984 -0.327148,-0.839843 Q 2.705078,3.554687 1.958008,3.540039 V 2.768555 q 0.571289,-0.0098 0.893555,-0.278321 0.327148,-0.273437 0.327148,-0.698242 0,-0.43457 -0.302734,-0.737305 -0.302734,-0.302734 -0.737305,-0.302734 -0.410156,0 -0.654297,0.205078 -0.24414,0.205078 -0.395507,0.654297 z" />
    <path id="4--k#" transform="translate(1.5, 138)" fill="#4095bf" d="M 4.248047,0 V 4.462891 H 4.848633 V 5.19043 H 4.248047 V 6.411133 H 3.486328 V 5.19043 H 0 Z M 3.466797,1.982422 1.489258,4.462891 h 1.99707 V 1.982422 Z" />
    <path id="5--k#" transform="translate(1.5, 178)" fill="#4095bf" d="M 1.660156,0 H 4.46289 V 0.839844 H 2.314453 L 1.982421,2.03125 q 0.371094,-0.03906 0.429688,-0.03906 0.820312,0 1.430664,0.654297 0.610352,0.654297 0.610352,1.533203 0,0.942383 -0.698243,1.596679 Q 3.061523,6.430666 2.060546,6.430666 0.786132,6.430666 0,5.322268 L 0.761718,4.838869 q 0.561524,0.703125 1.333008,0.703125 0.634766,0 1.049805,-0.395507 0.419922,-0.400391 0.419922,-1.00586 0,-0.585937 -0.434571,-0.986328 -0.429687,-0.405273 -1.05957,-0.405273 -0.375976,0 -0.654297,0.136718 -0.27832,0.131836 -0.615234,0.424805 z" />
    <path id="6--k#" transform="translate(1.5, 218)" fill="#4095bf" d="m 2.641602,0 0.649414,0.449219 -1.367188,1.99707 q 0.170899,-0.01953 0.239258,-0.01953 l 0.180664,-0.0098 q 0.869141,0 1.52832,0.620118 0.65918,0.620117 0.65918,1.430664 0,0.961914 -0.654297,1.630859 -0.654297,0.668945 -1.59668,0.668945 -0.942382,0 -1.611328,-0.654297 Q 0,5.454069 0,4.526334 0,3.813444 0.419922,3.207975 Z m 1.000976,4.49707 q 0,-0.566406 -0.410156,-0.976562 -0.405274,-0.415039 -0.961914,-0.415039 -0.556641,0 -0.97168,0.419922 -0.415039,0.415039 -0.415039,0.971679 0,0.576172 0.400391,0.976563 0.405273,0.395508 0.986328,0.395508 0.571289,0 0.97168,-0.400391 0.40039,-0.40039 0.40039,-0.97168 z" />

   <path id="b--div" fill="none" stroke="#737373" stroke-width="0.75"  d="M 2,278 h 116" />

   <g id="MACRO" transform="translate(30, 2.5)">
      <path fill="#f9a54b"
         d="M 5.022949,0 6.552246,5.831543 H 5.805175 L 4.877929,2.267578 3.282714,6.046875 1.683105,2.241211 0.74707,5.831543 H 0 L 1.529297,0 3.282714,4.174805 Z m 12.407715,0.01758 2.645508,5.813965 H 19.276367 L 18.621582,4.398926 H 16.24414 l -0.637207,1.432617 h -0.79541 z m 0,1.753418 -0.900879,1.990723 h 1.801758 z M 32.945312,0.421877 V 1.2876 q -0.905273,-0.443848 -1.665527,-0.443848 -0.975586,0 -1.643555,0.632813 -0.667969,0.628418 -0.667969,1.546875 0,0.936035 0.681153,1.564453 0.685547,0.624023 1.713867,0.624023 0.74707,0 1.582031,-0.470215 v 0.874512 q -0.760254,0.404297 -1.647949,0.404297 -1.300781,0 -2.223633,-0.878906 -0.922851,-0.883301 -0.922851,-2.126953 0,-1.22168 0.905273,-2.091797 0.909668,-0.870117 2.188477,-0.870117 0.821777,0 1.700683,0.36914 z m 9.02832,-0.188965 h 1.212891 q 0.905274,0 1.472168,0.452637 0.571289,0.448242 0.571289,1.151367 0,0.5625 -0.369141,0.993164 -0.36914,0.430664 -1.151367,0.606446 l 1.630371,2.395019 H 44.465332 L 42.909668,3.528811 h -0.171387 v 2.302734 h -0.764649 z m 0.764649,0.676758 v 1.951172 q 1.691894,0.03516 1.691894,-0.97998 0,-0.355957 -0.197753,-0.580078 -0.197754,-0.228516 -0.527344,-0.307618 -0.32959,-0.0835 -0.966797,-0.0835 z M 54.12207,2.997073 q 0,-1.212891 0.914062,-2.078614 0.914063,-0.865722 2.197266,-0.865722 1.252441,0 2.157715,0.874511 0.905273,0.870118 0.905273,2.069825 0,1.270019 -0.896484,2.148925 -0.89209,0.874512 -2.192871,0.874512 -1.283203,0 -2.184082,-0.883301 -0.900879,-0.8833 -0.900879,-2.140136 z m 5.361328,0.03516 q 0,-0.927246 -0.667969,-1.560059 -0.667968,-0.637207 -1.643554,-0.637207 -0.927246,0 -1.590821,0.645996 -0.659179,0.645996 -0.659179,1.55127 0,0.918457 0.676757,1.555664 0.681153,0.632812 1.665528,0.632812 0.905273,0 1.560058,-0.645996 0.65918,-0.65039 0.65918,-1.54248 z"
         id="MACRO--title" />
   </g>
   <path id="th" stroke="#f9a54b" stroke-width=".25" d="M 5,6.25 h 14 M 115,6.25 h -14" />
</svg>