<?xml version="1.0" encoding="UTF-8" standalone="no"?>
<svg
   width="30"
   height="380"
   viewBox="0 0 30 380"
   version="1.1"
   xmlns="http://www.w3.org/2000/svg"
   xmlns:svg="http://www.w3.org/2000/svg">
  <defs>
    <linearGradient id="gpanel" x1="0" y1="0" x2="0" y2="380" gradientUnits="userSpaceOnUse">
      <stop offset="0" stop-color="#282828" />
      <stop offset="1" stop-color="#181818" />
    </linearGradient>
  </defs>
  <g>
    <rect id="g-panel" fill="url(#gpanel)" x="0" y="0" width="30" height="380" />
    <path id="in--div" fill="none" stroke="#737373" stroke-width="0.5"  d="M 2,278 h 26" />
    <path opacity="1" id="th" fill="none" stroke="#f9a54b" stroke-width="0.25" d="M 5,6.5 h 4 M 25,6.5 h -4" />
    <path transform="translate(12,3.5)" id="title" fill="#f9a54b" d="M 4.8713375,0.79980469 4.2517085,1.2963867 Q 4.0056155,1.0415039 3.8034665,0.91845703 3.6057129,0.79101562 3.2277832,0.79101562 q -0.4130859,0 -0.6723633,0.18896485 -0.2548828,0.18457033 -0.2548828,0.47900393 0,0.2548828 0.2241211,0.4526367 0.2241211,0.1933594 0.7646484,0.4262695 0.5405269,0.2285157 0.8393559,0.4306641 0.303222,0.1977539 0.496582,0.4394531 0.193359,0.2416992 0.285644,0.5097656 0.09668,0.2680664 0.09668,0.5668946 0,0.6987304 -0.509766,1.1909179 -0.505371,0.4921875 -1.226074,0.4921875 -0.703125,0 -1.2436523,-0.3823242 Q 1.4919434,5.1987305 1.2019043,4.4296875 l 0.7646484,-0.215332 q 0.4174805,0.9448242 1.2788086,0.9448242 0.4174805,0 0.6943362,-0.2504883 0.276855,-0.2504883 0.276855,-0.6328125 0,-0.2285156 -0.145019,-0.4570312 Q 3.9265135,3.5859375 3.7111815,3.4365234 3.4958496,3.2871094 3.0212402,3.0981445 2.5510254,2.9047852 2.2961426,2.746582 2.0456543,2.5839844 1.861084,2.3642578 1.6765137,2.1401367 1.588623,1.9204102 1.505127,1.7006836 1.505127,1.4501953 q 0,-0.60205077 0.4833984,-1.02392577 Q 2.4719238,0 3.1618652,0 q 0.4570313,0 0.9272463,0.19775391 0.470215,0.1977539 0.782226,0.60205078 z M 0,12.744142 Q 0,11.531251 0.9140625,10.665528 1.828125,9.7998056 3.1113281,9.7998056 q 1.2524414,0 2.1577144,0.8745114 0.905274,0.870118 0.905274,2.069825 0,1.270019 -0.896484,2.148925 -0.89209,0.874512 -2.1928716,0.874512 -1.2832031,0 -2.184082,-0.883301 Q 0,14.000978 0,12.744142 Z m 5.3613285,0.03516 q 0,-0.927246 -0.667969,-1.560059 -0.667969,-0.637207 -1.6435548,-0.637207 -0.9272461,0 -1.5908203,0.645996 -0.6591797,0.645996 -0.6591797,1.55127 0,0.918457 0.6767578,1.555664 0.6811523,0.632812 1.6655273,0.632812 0.9052737,0 1.5600587,-0.645996 0.65918,-0.65039 0.65918,-1.54248 z m -0.489991,7.620117 -0.619629,0.496582 Q 4.0056155,20.641118 3.8034665,20.518071 3.6057129,20.39063 3.2277832,20.39063 q -0.4130859,0 -0.6723633,0.188965 -0.2548828,0.18457 -0.2548828,0.479004 0,0.254883 0.2241211,0.452636 0.2241211,0.19336 0.7646484,0.42627 0.5405269,0.228516 0.8393559,0.430664 0.303222,0.197754 0.496582,0.439453 0.193359,0.241699 0.285644,0.509766 0.09668,0.268066 0.09668,0.566894 0,0.698731 -0.509766,1.190918 -0.505371,0.492188 -1.226074,0.492188 -0.703125,0 -1.2436523,-0.382324 Q 1.4919434,24.798345 1.2019043,24.029302 L 1.9665527,23.81397 q 0.4174805,0.944824 1.2788086,0.944824 0.4174805,0 0.6943362,-0.250488 0.276855,-0.250489 0.276855,-0.632813 0,-0.228515 -0.145019,-0.457031 -0.14502,-0.232914 -0.360352,-0.382328 Q 3.4958496,22.88672 3.0212402,22.697755 2.5510254,22.504395 2.2961426,22.346192 2.0456543,22.183595 1.861084,21.963868 1.6765137,21.739747 1.588623,21.52002 1.505127,21.300294 1.505127,21.049806 q 0,-0.602051 0.4833984,-1.023926 0.4833984,-0.42627 1.1733398,-0.42627 0.4570313,0 0.9272463,0.197754 0.470215,0.197754 0.782226,0.602051 z"/>
  </g>
</svg>
