<?xml version="1.0" encoding="UTF-8"?>
<svg width="15" height="380" viewBox="0 0 15 380" version="1.1"
   xmlns="http://www.w3.org/2000/svg"
   xmlns:svg="http://www.w3.org/2000/svg">
  <defs>
    <linearGradient id="gpanel" x1="0" y1="0" x2="0" y2="380" gradientUnits="userSpaceOnUse">
      <stop offset="0" stop-color="#282828" />
      <stop offset="1" stop-color="#181818" />
    </linearGradient>
  </defs>
  <g>
    <rect id="g-panel" fill="url(#gpanel)" x="0" y="0" width="15" height="380" />
    <g transform="translate(0, 150)">
      <path id="pachde" fill="#f9a54b" stroke-width="0.25" d="M 5.7436512,3.8946598 5.2793924,4.8128176 4.4836125,4.5997895 4.3324208,5.1650586 5.0074416,5.3457117 4.6655606,6.024941 4.1394652,5.8841093 3.9879498,6.4493785 4.3936098,6.5581589 3.9287034,7.4763165 4.4939725,7.6281557 4.9588789,6.7093505 5.8194088,6.9401849 5.3548264,7.8586663 5.9197717,8.009858 6.3843542,7.0917005 7.1798103,7.3044047 7.3313258,6.7394594 6.653715,6.5581589 6.9978623,5.8792532 7.5242813,6.0204085 7.675473,5.4551394 7.267223,5.3457117 7.7321295,4.4269065 7.1694503,4.2760384 6.7019539,5.1938725 5.841424,4.9636855 6.3089203,4.0458516 Z M 9.8679143,4.0992704 9.7118664,4.6823459 10.106519,4.7885361 9.8912244,5.5917622 C 9.7608738,5.3119937 9.5481337,5.1324298 9.2531113,5.0530406 8.946302,4.9708782 8.6523691,5.0286413 8.3712137,5.2262475 8.090752,5.4221201 7.9008855,5.7048941 7.8017357,6.0747987 7.7043196,6.4391566 7.725225,6.7774245 7.863896,7.0894341 8.0029136,7.4014436 8.2299155,7.5998992 8.5453918,7.6844882 8.8088664,7.7552106 9.0833749,7.7080276 9.3686905,7.5430092 L 9.2880764,7.8440976 10.512179,8.1720573 10.668874,7.5886581 10.252854,7.4772876 11.071297,4.4217265 Z M 5.5727107,5.4972271 6.4332407,5.7274139 6.0890933,6.4066434 5.227916,6.1758089 Z m 3.6182405,0.2499356 c 0.037246,0.00167 0.075647,0.00788 0.1152552,0.018454 0.1327775,0.035708 0.2368669,0.1186137 0.312096,0.2489644 0.076962,0.131044 0.082959,0.3177617 0.01813,0.5600891 C 9.5729904,6.8121441 9.475476,6.9702696 9.3440853,7.0489652 9.2147747,7.1266208 9.0832733,7.1475035 8.9491093,7.1114491 8.7868641,7.0677677 8.6802048,6.9699756 8.6292433,6.8181309 8.578971,6.6642062 8.5792759,6.492051 8.6298949,6.3020719 8.6836299,6.1016924 8.7693839,5.9518782 8.8876008,5.8523818 8.9780834,5.7772396 9.0792169,5.7421575 9.1909554,5.7471627 Z" />
      <path id="hexoid" fill="#f9a54b" stroke-width="0.25"  d="M 9.0501601,0 3.0501597,1.6742715 1.5,7.7076301 5.949841,12.066717 11.949842,10.392693 13.5,4.3593345 Z M 7.5000004,1.3767489 c 1.1253696,0 2.1563462,0.3971762 2.9605106,1.0593566 l 0.56414,0.5528584 c 0.70504,0.8158796 1.13196,1.8790338 1.13196,3.0443946 0,0.270535 -0.02411,0.5352077 -0.06819,0.7929861 L 11.898824,7.5643881 C 11.444739,8.872775 10.425218,9.9141393 9.1306114,10.396862 l -0.7495708,0.209222 c -0.2853127,0.05445 -0.5796346,0.08389 -0.8810402,0.08389 -1.1256172,0 -2.1567592,-0.397404 -2.9610009,-1.0598472 L 3.9753497,9.0780006 C 3.270272,8.2621084 2.8433898,7.1987546 2.8433898,6.0333585 c 0,-0.2705337 0.024113,-0.5352064 0.068187,-0.7929847 L 3.1011776,4.5028212 C 3.555489,3.1934261 4.5759387,2.1512366 5.8718423,1.6688739 l 0.7436844,-0.207505 c 0.2863808,-0.054873 0.5818606,-0.08462 0.8844737,-0.08462 z" />
    </g>
    <path id="th" fill="none" stroke="#f9a54b" stroke-width="0.25" d="M 5,6.5 h 5" />
    <path id="title" fill="#f9a54b" d="M 9.253418,12.799805 8.6337891,13.296387 Q 8.3876953,13.041504 8.1855469,12.918457 7.987793,12.791016 7.6098633,12.791016 q -0.413086,0 -0.6723633,0.188964 -0.2548828,0.184571 -0.2548828,0.479004 0,0.254883 0.2241211,0.452637 0.2241211,0.193359 0.7646484,0.42627 0.5405274,0.228515 0.8393555,0.430664 0.3032226,0.197754 0.496582,0.439453 0.1933594,0.241699 0.2856446,0.509765 0.09668,0.268067 0.09668,0.566895 0,0.69873 -0.5097656,1.190918 -0.5053711,0.492187 -1.2260742,0.492187 -0.703125,0 -1.2436524,-0.382324 Q 5.8740238,17.19873 5.5839848,16.429687 l 0.7646484,-0.215332 q 0.4174805,0.944825 1.2788086,0.944825 0.4174805,0 0.6943359,-0.250489 0.2768555,-0.250488 0.2768555,-0.632812 0,-0.228516 -0.1450195,-0.457031 Q 8.3085938,15.585937 8.0932617,15.436523 7.8779297,15.287109 7.4033203,15.098144 6.9331055,14.904785 6.6782227,14.746582 6.4277344,14.583984 6.2431641,14.364258 6.0585937,14.140137 5.9707031,13.92041 5.887207,13.700684 5.887207,13.450195 q 0,-0.602051 0.4833985,-1.023926 Q 6.8540039,12 7.5439453,12 q 0.4570313,0 0.9272461,0.197754 0.4702149,0.197754 0.7822266,0.602051 z m -3.9133301,9.283448 h 0.7646484 v 3.440918 q 0,0.764648 0.3647461,1.182129 0.3691406,0.41748 1.0415039,0.41748 0.6679688,0 1.0371094,-0.382324 0.3735352,-0.386719 0.3735352,-1.085449 v -3.572754 h 0.7646484 v 3.520019 q 0,1.028321 -0.5888672,1.643555 -0.5844726,0.615234 -1.5600586,0.615234 -0.9975586,0 -1.5996094,-0.624023 Q 5.3400879,26.614015 5.3400879,25.396729 Z M 9.253418,32.399415 8.6337891,32.895997 Q 8.3876953,32.641114 8.1855469,32.518067 7.987793,32.390626 7.6098633,32.390626 q -0.413086,0 -0.6723633,0.188965 -0.2548828,0.18457 -0.2548828,0.479004 0,0.254882 0.2241211,0.452636 0.2241211,0.19336 0.7646484,0.42627 0.5405274,0.228516 0.8393555,0.430664 0.3032226,0.197754 0.496582,0.439453 0.1933594,0.241699 0.2856446,0.509766 0.09668,0.268066 0.09668,0.566894 0,0.698731 -0.5097656,1.190918 -0.5053711,0.492188 -1.2260742,0.492188 -0.703125,0 -1.2436524,-0.382324 -0.5361328,-0.386719 -0.8261718,-1.155762 l 0.7646484,-0.215332 q 0.4174805,0.944824 1.2788086,0.944824 0.4174805,0 0.6943359,-0.250488 0.2768555,-0.250489 0.2768555,-0.632813 0,-0.228515 -0.1450195,-0.457031 Q 8.3085938,35.185548 8.0932617,35.036134 7.8779297,34.88672 7.4033203,34.697755 6.9331055,34.504395 6.6782227,34.346192 6.4277344,34.183595 6.2431641,33.963868 6.0585937,33.739747 5.9707031,33.52002 5.887207,33.300294 5.887207,33.049806 q 0,-0.602051 0.4833985,-1.023926 0.4833984,-0.42627 1.1733398,-0.42627 0.4570313,0 0.9272461,0.197754 0.4702149,0.197754 0.7822266,0.602051 z m -3.482666,9.364744 h 3.4233398 v 0.764649 H 7.8581543 v 4.833984 H 7.1022949 V 42.528808 H 5.770752 Z m 1.6831054,9.476807 2.6455076,5.813965 H 9.2995605 L 8.6447754,55.622313 H 6.267334 L 5.630127,57.054931 H 4.8347168 Z m 0,1.753418 -0.9008789,1.990722 h 1.8017578 z m -0.3647461,8.369385 h 0.7558594 v 5.598632 H 7.0891113 Z m -2.0500488,9.333988 4.1396484,4.258301 v -4.03418 h 0.7646485 v 5.85791 L 5.8037109,72.54346 v 3.977051 H 5.0390625 Z" />
  </g>
</svg>
