<?xml version="1.0" encoding="UTF-8" standalone="no"?>
<svg width="165" height="380" viewBox="0 0 165 380" version="1.1"
   xmlns="http://www.w3.org/2000/svg" xmlns:svg="http://www.w3.org/2000/svg">
   <defs>
      <linearGradient id="gpanel" x1="0" y1="0" x2="0" y2="380" xlink:href="#panel-stops" gradientUnits="userSpaceOnUse" >
         <stop offset="0" stop-color="#282828" />
         <stop offset="1" stop-color="#181818" />
      </linearGradient>
   </defs>
   <rect id="g-panel" fill="url(#gpanel)" x="0" y="0" width="165" height="380" />

   <path id="h1--div" fill="none" stroke="#737373" stroke-width="0.75"  d="M 6,219 h 154" />
   <path id="c1--sgl" fill="none" stroke="#2d6885" stroke-width="0.5"  d="M 6,255.5 h 154" />
   <path id="c2--sgl" fill="none" stroke="#2d6885" stroke-width="0.5"  d="M 6,291.5 h 154" />
   <path id="o--div" fill="none" stroke="#737373" stroke-width="0.75" d="M 6,330 h 154" />

   <g id="volume" fill="#a6a6a6" transform="translate(50.75, 165)">
      <path d="M 3.4707031 1.4101562 C 2.0101213 4.9901518 1.1992187 8.9027197 1.1992188 13.005859 C 1.1992188 17.105283 2.0087246 21.014435 3.4667969 24.591797 L 4.8515625 24.029297 C 3.4671269 20.62685 2.6992187 16.907684 2.6992188 13.005859 C 2.6992188 9.1003137 3.4685256 5.3777372 4.8554688 1.9726562 L 3.4707031 1.4101562 z M 60.441406 1.4453125 L 59.056641 2.0078125 C 60.4346 5.4034409 61.199219 9.1136601 61.199219 13.005859 C 61.199219 16.894338 60.436006 20.601151 59.060547 23.994141 L 60.445312 24.556641 C 61.8944 20.988737 62.699219 17.091954 62.699219 13.005859 C 62.699219 8.9160481 61.892997 5.0158551 60.441406 1.4453125 z M 8.1035156 3.2929688 C 6.8796083 6.291524 6.1992188 9.569194 6.1992188 13.005859 C 6.1992188 16.43881 6.8782115 19.713062 8.0996094 22.708984 L 9.484375 22.146484 C 8.3366137 19.325476 7.6992188 16.241212 7.6992188 13.005859 C 7.6992188 9.7667862 8.3380129 6.6791095 9.4882812 3.8554688 L 8.1035156 3.2929688 z M 55.808594 3.328125 L 54.423828 3.890625 C 55.565117 6.7048157 56.199219 9.7801308 56.199219 13.005859 C 56.199219 16.227867 55.566524 19.299776 54.427734 22.111328 L 55.8125 22.673828 C 57.024917 19.687363 57.699219 16.425487 57.699219 13.005859 C 57.699219 9.5825172 57.023512 6.3172294 55.808594 3.328125 z M 12.736328 5.1738281 C 11.748295 7.5917805 11.199219 10.234486 11.199219 13.005859 C 11.199219 15.773516 11.746902 18.412806 12.732422 20.828125 L 14.117188 20.265625 C 13.205352 18.02527 12.699219 15.575851 12.699219 13.005859 C 12.699219 10.43214 13.206746 7.9793187 14.121094 5.7363281 L 12.736328 5.1738281 z M 51.175781 5.2089844 L 49.791016 5.7714844 C 50.696368 8.0050125 51.199219 10.445508 51.199219 13.005859 C 51.199219 15.56184 50.697342 17.998088 49.794922 20.228516 L 51.179688 20.791016 C 52.155787 18.385616 52.699219 15.759544 52.699219 13.005859 C 52.699219 10.247816 52.154815 7.6174813 51.175781 5.2089844 z " />
    </g>

   <path id="haken"     fill="#4073bf" transform="translate(36, 225)" d="M 0,0.24902344 H 0.84960938 V 2.6416016 H 3.8232422 V 0.24902344 H 4.6630859 V 6.4697266 H 3.8232422 V 3.4814453 H 0.84960938 V 6.4697266 H 0 Z M 8.3300781,0.00976563 11.269531,6.4697266 H 10.380859 L 9.6533203,4.8779297 H 7.0117187 L 6.3037109,6.4697266 h -0.883789 z m 0,1.94824217 -1.0009765,2.2119141 H 9.3310547 Z M 12.050781,0.24902344 h 0.84961 V 2.7783203 l 2.631836,-2.52929686 h 1.191406 l -3.00293,2.89062496 3.022461,3.3300782 H 15.65918 L 12.900391,3.4375 v 3.0322266 h -0.84961 z m 5.449219,0 h 3.447266 V 1.0986328 h -2.607422 v 1.5527344 h 2.607422 v 0.8398437 h -2.607422 v 2.1386719 h 2.607422 V 6.4697266 H 17.5 Z M 21.899414,0 26.499023,4.7314453 V 0.24902344 h 0.84961 V 6.7578125 l -4.59961,-4.7070312 v 4.4189453 h -0.849609 z" />
   <path id="C1--ctl-label" fill="#808080" transform="translate(36, 261.5)" d="M 4.7944336,0.36914063 V 1.2348633 Q 3.8891602,0.79101562 3.1289063,0.79101562 q -0.975586,0 -1.6435547,0.63281248 -0.66796879,0.628418 -0.66796879,1.546875 0,0.9360352 0.68115239,1.5644531 0.6855468,0.6240235 1.7138671,0.6240235 0.7470704,0 1.5820313,-0.4702149 v 0.8745118 q -0.7602539,0.4042968 -1.6479492,0.4042968 -1.3007813,0 -2.22363284,-0.8789062 Q 0,4.2055664 0,2.9619141 0,1.7402344 0.90527344,0.87011719 1.8149414,0 3.09375,0 3.9155273,0 4.7944336,0.36914063 Z M 6.543457,0.19775391 H 7.9980469 V 5.7788086 H 7.2421875 V 0.93603516 H 6.2885742 Z" />
   <path id="C2--ctl-label" fill="#808080" transform="translate(36, 298)" d="M 4.7944336,0.37792969 V 1.2436523 Q 3.8891602,0.79980469 3.1289063,0.79980469 q -0.975586,0 -1.6435547,0.63281251 -0.66796879,0.628418 -0.66796879,1.546875 0,0.9360351 0.68115239,1.5644531 0.6855468,0.6240234 1.7138671,0.6240234 0.7470704,0 1.5820313,-0.4702148 v 0.8745117 q -0.7602539,0.4042969 -1.6479492,0.4042969 -1.3007813,0 -2.22363284,-0.8789063 Q 0,4.2143555 0,2.9707031 0,1.7490234 0.90527344,0.87890625 1.8149414,0.00878906 3.09375,0.00878906 q 0.8217773,0 1.7006836,0.36914063 z M 7.2905273,5.0405273 H 9.421875 V 5.7875977 H 5.5986328 L 8.4506836,2.7553711 q 0.3208008,-0.3515625 0.3208008,-0.7734375 0,-0.496582 -0.3383789,-0.8613281 -0.3383789,-0.36474613 -0.7954102,-0.36474613 -0.3779297,0 -0.7119141,0.24169922 Q 6.5961914,1.2392578 6.4951172,1.7446289 H 5.7568359 Q 5.8666992,0.91845703 6.4072266,0.46142578 6.9521484,0 7.6860352,0 8.4199219,0 8.9648438,0.58007812 9.5097656,1.1557617 9.5097656,1.9467773 q 0,0.3823243 -0.140625,0.703125 -0.1362304,0.3164063 -0.4877929,0.6899415 z" />

   <g id="small-logo" opacity="0" transform="translate(2.5, 2.5) scale(.125, .125)">
      <path id="CHEM" fill="#faa64c" stroke="#f9a54b" stroke-width="1.25"
         d="M 9.57155,6.8102466 C 7.5299719,6.9641606 5.817206,7.4868486 4.4334406,8.3806086 3.0619033,9.2734488 2.0516687,10.491776 1.4048649,12.033091 0.75805948,13.574385 0.51296865,15.406135 0.67188275,17.528129 l 0.54976985,7.341113 c 0.1579945,2.109718 0.6731488,3.884153 1.5431675,5.323441 0.8690998,1.427031 2.0491859,2.476751 3.5383012,3.153925 1.5004252,0.663996 3.2714337,0.919037 5.3130137,0.765124 1.687051,-0.127185 3.155406,-0.59946 4.409287,-1.421756 1.253884,-0.822296 2.257264,-1.952595 3.010135,-3.390887 0.764175,-1.451474 1.244307,-3.166409 1.440553,-5.14249 l -5.205577,0.392446 C 15.089484,25.90723 14.645159,26.981878 13.942321,27.774978 13.238567,28.5558 12.338935,28.98866 11.238682,29.071606 9.832806,29.177598 8.7054519,28.832024 7.8587493,28.0324 7.0242738,27.231857 6.5482422,26.04655 6.4306659,24.476538 L 5.8808967,17.135426 c -0.1175795,-1.570032 0.1765706,-2.813401 0.8824481,-3.730054 0.7171819,-0.929869 1.7797757,-1.449033 3.1856556,-1.55502 0.7212756,-0.05438 1.3804676,0.06253 1.9798316,0.350351 0.6116,0.28694 1.142542,0.727992 1.592816,1.323125 0.46158,0.581971 0.824846,1.313187 1.0875,2.193842 l 5.205579,-0.392445 C 19.33768,13.387591 18.615927,11.763264 17.645071,10.454923 16.686438,9.1456738 15.517576,8.1791256 14.143077,7.5549806 12.780801,6.9298966 11.258596,6.6830986 9.571545,6.8102816 Z M 23.362582,6.0480886 25.36583,32.79761 30.389179,32.418903 29.577699,21.583165 39.149908,20.861522 39.961385,31.697259 44.98817,31.318293 42.984921,4.5687716 37.958139,4.9477376 38.786151,16.004246 29.213942,16.725889 28.38593,5.6693826 Z m 25.488072,-1.921532 2.003248,26.7495214 17.861931,-1.346601 -0.363755,-4.857279 -12.835151,0.967637 -0.449014,-5.9957 10.816873,-0.815478 -0.363755,-4.857277 -10.816873,0.815478 -0.462965,-6.1819914 12.835151,-0.967634 -0.363758,-4.857277 z m 22.445179,-1.692129 2.003246,26.7495204 4.566053,-0.344231 -1.396383,-18.646011 6.089927,15.294737 4.435398,-0.334382 3.716989,-16.3914044 1.422993,19.0013344 4.566035,-0.34423 L 94.696844,0.67023864 88.074707,1.1694776 84.346479,19.580833 77.917982,1.9351876 Z" />
      <path id="hex" fill="none" stroke="#f9a54b" stroke-width="2.5"
         d="M 75.274,41.479089 61.021074,45.456299 57.33869,59.788464 67.909232,70.143418 82.162158,66.166796 85.844539,51.834631 Z" />
   </g>

   <g id="CORE" transform="translate(60,3.5)">
      <path fill="#f9a54b"
         d="M 4.794434,0.369141 V 1.234864 Q 3.88916,0.791016 3.128906,0.791016 q -0.975586,0 -1.643554,0.632813 -0.667969,0.628418 -0.667969,1.546875 0,0.936035 0.681152,1.564453 0.685547,0.624023 1.713867,0.624023 0.747071,0 1.582032,-0.470215 V 5.563477 Q 4.03418,5.967774 3.146484,5.967774 1.845703,5.967774 0.922852,5.088868 0,4.205567 0,2.961914 0,1.740235 0.905273,0.870118 1.814941,0 3.09375,0 3.915527,0 4.794434,0.369141 Z m 8.676757,2.575195 q 0,-1.21289 0.914063,-2.078613 Q 15.299316,0 16.58252,0 q 1.252441,0 2.157714,0.874512 0.905274,0.870117 0.905274,2.069824 0,1.27002 -0.896485,2.148926 -0.892089,0.874512 -2.192871,0.874512 -1.283203,0 -2.184082,-0.883301 -0.900879,-0.883301 -0.900879,-2.140137 z m 5.361329,0.03516 q 0,-0.927246 -0.667969,-1.560059 -0.667969,-0.637207 -1.643555,-0.637207 -0.927246,0 -1.59082,0.645996 -0.65918,0.645996 -0.65918,1.55127 0,0.918457 0.676758,1.555664 0.681152,0.632812 1.665527,0.632812 0.905274,0 1.560059,-0.645996 0.65918,-0.650391 0.65918,-1.54248 z m 9.929199,-2.799317 h 1.21289 q 0.905274,0 1.472168,0.452637 0.571289,0.448242 0.571289,1.151367 0,0.5625 -0.36914,0.993164 -0.369141,0.430664 -1.151367,0.606445 l 1.630371,2.39502 H 31.253418 L 29.697754,3.476078 h -0.171387 v 2.302734 h -0.764648 z m 0.764648,0.676758 v 1.951172 q 1.691895,0.03516 1.691895,-0.979981 0,-0.355957 -0.197754,-0.580078 -0.197754,-0.228515 -0.527344,-0.307617 -0.32959,-0.0835 -0.966797,-0.0835 z M 41.081543,0.180179 h 3.102539 v 0.764649 h -2.34668 v 1.397461 h 2.34668 v 0.755859 h -2.34668 v 1.924805 h 2.34668 v 0.755859 h -3.102539 z"
         id="CORE--title" />
   </g>

   <path id="th" stroke="#f9a54b" stroke-width=".25" d="M 5,6.25 h 46 M 160,6.25 h -46" />

</svg>