<?xml version="1.0" encoding="UTF-8" ?>
<svg width="30" height="380" viewBox="0 0 30 380" version="1.1"
   xmlns="http://www.w3.org/2000/svg"
   xmlns:svg="http://www.w3.org/2000/svg">
   <defs>
      <linearGradient id="gpanel" x1="0" y1="0" x2="0" y2="380" xlink:href="#panel-stops" gradientUnits="userSpaceOnUse" >
         <stop offset="0" stop-color="#282828" />
         <stop offset="1" stop-color="#181818" />
      </linearGradient>
   </defs>
   <g>
    <rect id="g-panel" fill="url(#gpanel)" x="0" y="0" width="45" height="380" />
    <path id="OVR" fill="#f9a54b" transform="translate(5.5,3.5)" d="m -0.41308594,2.7641602 q 0,-1.2128907 0.9140625,-2.07861333 0.91406254,-0.86572265 2.19726564,-0.86572265 1.2524414,0 2.1577148,0.87451172 0.9052735,0.87011716 0.9052735,2.06982426 0,1.2700195 -0.8964844,2.1489257 -0.8920898,0.8745118 -2.1928711,0.8745118 -1.2832031,0 -2.18408203,-0.8833008 -0.90087891,-0.8833008 -0.90087891,-2.1401367 z m 5.36132814,0.035156 q 0,-0.9272461 -0.6679688,-1.5600586 -0.6679687,-0.63720702 -1.6435546,-0.63720702 -0.9272461,0 -1.5908204,0.64599612 -0.65917965,0.6459961 -0.65917965,1.5512695 0,0.918457 0.67675785,1.5556641 0.6811523,0.6328125 1.6655273,0.6328125 0.9052734,0 1.5600586,-0.6459961 Q 4.9482422,3.6914063 4.9482422,2.7993164 Z M 8.112793,0.00878906 H 8.9213867 L 10.674805,3.9682617 12.441406,0.00878906 h 0.817383 L 10.666016,5.7875977 Z M 16.133301,0 h 1.21289 q 0.905274,0 1.472168,0.45263672 0.571289,0.44824219 0.571289,1.15136718 0,0.5625 -0.36914,0.9931641 -0.369141,0.430664 -1.151367,0.6064453 l 1.630371,2.3950195 H 18.625 L 17.069336,3.2958984 h -0.171387 v 2.3027344 h -0.764648 z m 0.764648,0.67675781 V 2.6279297 q 1.691895,0.035156 1.691895,-0.9799805 0,-0.355957 -0.197754,-0.5800781 -0.197754,-0.22851563 -0.527344,-0.30761719 -0.32959,-0.0834961 -0.966797,-0.0834961 z" />
    <rect opacity="0" id="o-title" fill="#4095bf" x="0" y="15" width="30" height="350"/>
  </g>
</svg>
