<?xml version="1.0" encoding="UTF-8"?>
<svg width="285" height="380" viewBox="0 0 285 380" version="1.1"
   xmlns="http://www.w3.org/2000/svg"
   xmlns:svg="http://www.w3.org/2000/svg">
   <defs>
      <linearGradient id="gpanel" x1="300" y1="0" x2="300" y2="380" gradientUnits="userSpaceOnUse">
         <stop style="stop-color:#181818;stop-opacity:1;" offset="0" id="stop2" />
         <stop style="stop-color:#282828;stop-opacity:1;" offset="1" id="stop1" />
      </linearGradient>
   </defs>
   <g>
      <rect id="g-panel" x="0" y="0" width="285" height="380" fill="url(#gpanel)" />
      <path transform="translate(-7.5, 0)" id="title" fill="#f9a54b"
         d="M 86.15527,3.9130859 V 4.7788086 Q 85.25,4.3349609 84.48975,4.3349609 q -0.97559,0 -1.64356,0.6328125 -0.66797,0.628418 -0.66797,1.546875 0,0.9360352 0.68116,1.5644532 0.68554,0.6240234 1.71386,0.6240234 0.74707,0 1.58203,-0.4702148 v 0.8745117 q -0.76025,0.4042969 -1.64795,0.4042969 -1.30078,0 -2.22363,-0.8789063 -0.92285,-0.8833008 -0.92285,-2.1269531 0,-1.2216797 0.90527,-2.0917969 0.90967,-0.8701172 2.18848,-0.8701172 0.82178,0 1.70068,0.3691406 z m 8.67676,2.5751953 q 0,-1.2128906 0.91406,-2.0786132 0.91407,-0.8657227 2.19727,-0.8657227 1.25244,0 2.15771,0.8745117 0.90528,0.8701172 0.90528,2.0698242 0,1.2700196 -0.89649,2.1489258 -0.89209,0.8745118 -2.19287,0.8745118 -1.2832,0 -2.18408,-0.8833008 -0.90088,-0.8833008 -0.90088,-2.1401368 z m 5.36133,0.035156 q 0,-0.9272461 -0.66797,-1.5600586 -0.66797,-0.637207 -1.64355,-0.637207 -0.92725,0 -1.59082,0.6459961 -0.65918,0.6459961 -0.65918,1.5512695 0,0.918457 0.67675,1.5556641 0.68116,0.6328125 1.66553,0.6328125 0.90527,0 1.56006,-0.6459961 0.65918,-0.6503907 0.65918,-1.5424805 z M 109.95996,3.5 114.09961,7.7583008 V 3.7241211 h 0.76465 v 5.8579102 l -4.13965,-4.2363282 v 3.9770508 h -0.76465 z m 13.58106,0.2329102 h 0.80859 l 1.75342,3.9594726 1.7666,-3.9594726 h 0.81738 l -2.59277,5.7788086 z m 13.40087,2.755371 q 0,-1.2128906 0.91407,-2.0786132 0.91406,-0.8657227 2.19726,-0.8657227 1.25244,0 2.15772,0.8745117 0.90527,0.8701172 0.90527,2.0698242 0,1.2700196 -0.89648,2.1489258 -0.89209,0.8745118 -2.19287,0.8745118 -1.28321,0 -2.18409,-0.8833008 -0.90088,-0.8833008 -0.90088,-2.1401368 z m 5.36133,0.035156 q 0,-0.9272461 -0.66797,-1.5600586 -0.66796,-0.637207 -1.64355,-0.637207 -0.92725,0 -1.59082,0.6459961 -0.65918,0.6459961 -0.65918,1.5512695 0,0.918457 0.67676,1.5556641 0.68115,0.6328125 1.66552,0.6328125 0.90528,0 1.56006,-0.6459961 0.65918,-0.6503907 0.65918,-1.5424805 z m 9.92041,-2.7993164 h 0.75586 v 4.8427734 h 1.82373 v 0.7558594 h -2.57959 z m 11.23877,0.00879 h 0.76465 v 3.4409179 q 0,0.7646485 0.36475,1.1821289 0.36914,0.4174805 1.0415,0.4174805 0.66797,0 1.03711,-0.3823242 0.37354,-0.3867188 0.37354,-1.0854492 V 3.7329102 h 0.76464 v 3.5200195 q 0,1.0283203 -0.58886,1.6435547 -0.58448,0.6152344 -1.56006,0.6152344 -0.99756,0 -1.59961,-0.6240235 -0.59766,-0.6240234 -0.59766,-1.8413086 z m 13.11963,-0.00879 h 3.42334 v 0.7646484 h -1.33594 v 4.8339844 h -0.75586 V 4.4887695 h -1.33154 z m 12.27588,0 h 0.75586 v 5.5986328 h -0.75586 z m 9.74902,2.7641601 q 0,-1.2128906 0.91407,-2.0786132 0.91406,-0.8657227 2.19726,-0.8657227 1.25244,0 2.15772,0.8745117 0.90527,0.8701172 0.90527,2.0698242 0,1.2700196 -0.89648,2.1489258 -0.89209,0.8745118 -2.19288,0.8745118 -1.2832,0 -2.18408,-0.8833008 -0.90088,-0.8833008 -0.90088,-2.1401368 z m 5.36133,0.035156 q 0,-0.9272461 -0.66797,-1.5600586 -0.66797,-0.637207 -1.64355,-0.637207 -0.92725,0 -1.59082,0.6459961 -0.65918,0.6459961 -0.65918,1.5512695 0,0.918457 0.67676,1.5556641 0.68115,0.6328125 1.66552,0.6328125 0.90528,0 1.56006,-0.6459961 0.65918,-0.6503907 0.65918,-1.5424805 z M 213.73486,3.5 217.87451,7.7583008 V 3.7241211 h 0.76465 v 5.8579102 l -4.13965,-4.2363282 v 3.9770508 h -0.76465 z" />
      <path id="th" fill="none" stroke="#f9a54b" stroke-width="0.25" d="M 5,6.5 h 56 M 280,6.5 h -56" />
   </g>

   <path id="ir1--k#" transform="translate(2,1)" fill="#4095bf" d="m 5.3828125,95.809448 h 3.234375 v 9.953122 H 6.4375 V 97.621948 H 5 Z" />
   <path id="ir2--k#" transform="translate(2,2.5)" fill="#4095bf" d="m 8.2109375,154.00105 h 2.8437505 v 1.85938 H 4.09375 l 3.3984375,-4.32031 q 0.7421875,-0.95313 1.0546875,-1.5625 0.3203125,-0.60938 0.3203125,-1.14063 0,-0.57812 -0.3828125,-0.95312 -0.375,-0.375 -0.9453125,-0.375 -0.65625,0 -0.953125,0.47656 -0.296875,0.46875 -0.359375,1.47656 H 4.015625 q -0.00781,-1.8125 1.0625,-2.80469 1.0703125,-0.99218 2.6484375,-0.99218 1.46875,0 2.3984375,0.85937 0.929688,0.85156 0.929688,2.1875 0,1.30469 -1.085938,2.89063 L 9.375,152.4698 q -0.3515625,0.52344 -0.890625,1.19532 z" />
   <path id="ir3--k#" transform="translate(2,4.5)" fill="#4095bf" d="m 6.1171875,196.63017 h -2.015625 q 0.09375,-1.36718 1,-2.19531 0.9140625,-0.82812 2.1875,-0.82812 1.3984375,0 2.375,0.79687 0.9843755,0.78906 0.9843755,1.90625 0,1.21875 -1.2031255,2.20313 0.7656255,0.48437 1.1171875,1.01562 0.359375,0.52344 0.359375,1.25781 0,1.39844 -0.9296875,2.24219 -0.9296875,0.84375 -2.4609375,0.84375 -1.421875,0 -2.359375,-0.80469 -0.9296875,-0.8125 -1.1484375,-2.25 h 2.0625 Q 6.453125,202.23955 7.5,202.23955 q 0.5234375,0 0.8828125,-0.36719 0.359375,-0.375 0.359375,-0.92187 0,-0.67188 -0.4375,-1.09375 Q 7.875,199.42705 7.1953125,199.42705 H 6.828125 v -1.67969 h 0.21875 q 0.7109375,0 1.140625,-0.35156 0.4296875,-0.35156 0.4296875,-0.92969 0,-0.52344 -0.34375,-0.89062 -0.3359375,-0.375 -0.828125,-0.375 -1.1484375,0 -1.328125,1.42968 z" />
   <path id="ir4--k#" transform="translate(2,6.5)" fill="#4095bf" d="m 8.1015625,241.73193 h 2.0156255 v 5.75782 H 11.0625 v 1.82812 h -0.945312 v 2.38281 H 7.9296875 v -2.38281 H 3.5 v -1.84375 z m -0.203125,2.51563 -2.5625,3.24219 h 2.59375 v -3.24219 z" />

   <g transform="translate(0,4)">
      <path id="pr1--k#" fill="#4095bf" d="m 162.0401,48.558903 h 1.29297 v 4.96094 h -0.67187 v -4.30469 h -0.84766 z" />
      <path id="pr2--k#" fill="#4095bf" d="m 163.31745,19.039373 h 1.89453 v 0.66406 h -3.39844 l 2.53516,-2.69531 q 0.28515,-0.3125 0.28515,-0.6875 0,-0.44141 -0.30078,-0.76563 -0.30078,-0.32422 -0.70703,-0.32422 -0.33594,0 -0.63281,0.21485 -0.29297,0.21484 -0.38282,0.66406 h -0.65625 q 0.0977,-0.73437 0.57813,-1.14062 0.48437,-0.41016 1.13672,-0.41016 0.65234,0 1.13672,0.51562 0.48437,0.51172 0.48437,1.21485 0,0.33984 -0.125,0.625 -0.12109,0.28125 -0.43359,0.61328 z" />
      <path id="pr3--k#" fill="#4095bf" d="m 191.68463,15.847963 h -0.72656 q 0.0703,-0.6289 0.49219,-0.95703 0.42578,-0.33203 1.02734,-0.33203 0.69141,0 1.14453,0.39453 0.45313,0.39453 0.45313,0.98828 0,0.73828 -0.75,1.12891 0.8789,0.45312 0.8789,1.25 0,0.625 -0.48046,1.08594 -0.47657,0.45703 -1.13282,0.45703 -0.66015,0 -1.14453,-0.32813 -0.48047,-0.33203 -0.63281,-1.04687 h 0.74219 q 0.24218,0.77343 0.99218,0.77343 0.38282,0 0.66797,-0.26171 0.28516,-0.26563 0.28516,-0.61719 0,-0.36719 -0.26172,-0.67188 -0.26172,-0.30859 -0.85937,-0.32031 v -0.61719 q 0.45703,-0.008 0.71484,-0.22265 0.26172,-0.21875 0.26172,-0.5586 0,-0.34765 -0.24219,-0.58984 -0.24219,-0.24219 -0.58984,-0.24219 -0.32813,0 -0.52344,0.16406 -0.19531,0.16407 -0.31641,0.52344 z" />
      <path id="pr4--k#" fill="#4095bf" d="m 194.21198,48.558903 v 3.57031 h 0.48047 v 0.58203 h -0.48047 v 0.97657 h -0.60938 v -0.97657 h -2.78906 z m -0.625,1.58594 -1.58203,1.98437 h 1.59765 v -1.98437 z" />
   </g>
   <g transform="translate(0,4)">
      <path id="po1--k#" fill="#4095bf" d="m 74.786332,48.058903 h 1.29297 v 4.96094 h -0.67187 v -4.30469 h -0.84766 z" />
      <path id="po2--k#" fill="#4095bf" d="m 76.063682,18.539373 h 1.89453 v 0.66406 h -3.39844 l 2.53516,-2.69531 q 0.28515,-0.3125 0.28515,-0.6875 0,-0.44141 -0.30078,-0.76563 -0.30078,-0.32422 -0.70703,-0.32422 -0.33594,0 -0.63281,0.21485 -0.29297,0.21484 -0.38282,0.66406 h -0.65625 q 0.0977,-0.73437 0.57813,-1.14062 0.48437,-0.41016 1.13672,-0.41016 0.65234,0 1.13672,0.51562 0.48437,0.51172 0.48437,1.21485 0,0.33984 -0.125,0.625 -0.12109,0.28125 -0.43359,0.61328 z" />
      <path id="po3--k#" fill="#4095bf" d="m 104.43086,15.347963 h -0.72656 q 0.0703,-0.6289 0.49219,-0.95703 0.42578,-0.33203 1.02734,-0.33203 0.69141,0 1.14453,0.39453 0.45313,0.39453 0.45313,0.98828 0,0.73828 -0.75,1.12891 0.8789,0.45312 0.8789,1.25 0,0.625 -0.48046,1.08594 -0.47657,0.45703 -1.13282,0.45703 -0.66015,0 -1.14453,-0.32813 -0.48047,-0.33203 -0.63281,-1.04687 h 0.74219 q 0.24218,0.77343 0.99218,0.77343 0.38282,0 0.66797,-0.26171 0.28516,-0.26563 0.28516,-0.61719 0,-0.36719 -0.26172,-0.67188 -0.26172,-0.30859 -0.85937,-0.32031 v -0.61719 q 0.45703,-0.008 0.71484,-0.22265 0.26172,-0.21875 0.26172,-0.5586 0,-0.34765 -0.24219,-0.58984 -0.24219,-0.24219 -0.58984,-0.24219 -0.32813,0 -0.52344,0.16406 -0.19531,0.16407 -0.31641,0.52344 z" />
      <path id="po4--k#" fill="#4095bf" d="m 106.95821,48.058903 v 3.57031 h 0.48047 v 0.58203 h -0.48047 v 0.97657 h -0.60938 v -0.97657 h -2.78906 z m -0.625,1.58594 -1.58203,1.98437 h 1.59765 v -1.98437 z" />
   </g>

    <path id="dytext" fill="#2d6886" d="M256,128 l 4,-2 v 4 z" />
    <path id="dytext" fill="#2d6886" d="M256,179 l 4,-2 v 4 z" />
    <path id="dytext" fill="#2d6886" d="M256,230 l 4,-2 v 4 z" />
    <path id="dytext" fill="#2d6886" d="M256,281 l 4,-2 v 4 z" />
    <path id="s1--div" fill="none" stroke="#737373" stroke-width="0.35" d="M 5,133 h 275 " />
    <path id="s2--div" fill="none" stroke="#737373" stroke-width="0.35" d="M 5,184 h 275 " />
    <path id="s3--div" fill="none" stroke="#737373" stroke-width="0.35" d="M 5,235 h 275 " />
   <path id="pp--div" stroke="#737373" stroke-width="0.75" d="m 114.5,16 0,46" />
   <path id="tr--div" stroke="#737373" stroke-width="0.75" d="m 233,16 0,46" />
   <path id="f--div" fill="none" stroke="#737373" stroke-width="0.75" d="M 2,290 H 283" />
   <path id="t--div" fill="none" stroke="#737373" stroke-width="0.75" d="M 2,64 H 283" />
   <path id="p--div" fill="none" stroke="#737373" stroke-width="0.75" d="M 230,329 h 50" />
   <path id="1--p-link" fill="none" stroke="#2d6886" stroke-width=".5" d="M 12,303 h 154" />
   <path id="2--p-link" fill="none" stroke="#2d6886" stroke-width=".5" d="M 24,320 h 154" />
   <path id="3--p-link" fill="none" stroke="#2d6886" stroke-width=".5" d="M 36,337 h 154" />
   <path id="4--p-link" fill="none" stroke="#2d6886" stroke-width=".5" d="M 48,354 h 154" />
   </g>
</svg>