<?xml version="1.0" encoding="UTF-8"?>
<svg width="165" height="380" viewBox="0 0 165 380"
   xmlns="http://www.w3.org/2000/svg"
   xmlns:svg="http://www.w3.org/2000/svg">
   <defs>
      <linearGradient id="gpanel" x1="0" y1="0" x2="0" y2="380" gradientUnits="userSpaceOnUse" >
         <stop offset="0" stop-color="#282828"/>
         <stop offset="1" stop-color="#181818" />
      </linearGradient>
   </defs>
  <rect id="g-panel" fill="url(#gpanel)" x="0" y="0" width="165" height="380" />
  <path id="th" stroke="#f9a54b" stroke-width="0.25" d="M 5,6.25 H 40 M 160,6.25 h -40" />

  <g id="g21" transform="translate(50,3.5)">
    <path id="CONVO--title" fill="#f9a54b" d="M 4.794434,0.413083 V 1.278806 Q 3.889161,0.834958 3.128907,0.834958 q -0.975586,0 -1.643555,0.632813 -0.667969,0.628418 -0.667969,1.546875 0,0.936035 0.681153,1.564453 0.685546,0.624023 1.713867,0.624023 0.74707,0 1.582031,-0.470215 V 5.607419 Q 4.03418,6.011716 3.146485,6.011716 1.845704,6.011716 0.922852,5.13281 0,4.249509 0,3.005857 0,1.784177 0.905274,0.91406 1.814942,0.043942 3.09375,0.043942 q 0.821778,0 1.700684,0.369141 z m 8.676758,2.575195 q 0,-1.21289 0.914062,-2.078613 0.914063,-0.865723 2.197266,-0.865723 1.252441,0 2.157715,0.874512 0.905273,0.870117 0.905273,2.069824 0,1.27002 -0.896484,2.148926 -0.89209,0.874512 -2.192871,0.874512 -1.283203,0 -2.184082,-0.883301 -0.900879,-0.883301 -0.900879,-2.140137 z m 5.361328,0.03516 q 0,-0.927246 -0.667969,-1.560059 -0.667969,-0.637207 -1.643554,-0.637207 -0.927247,0 -1.590821,0.645996 -0.659179,0.645996 -0.659179,1.55127 0,0.918457 0.676757,1.555664 0.681153,0.632812 1.665528,0.632812 0.905273,0 1.560058,-0.645996 0.65918,-0.650391 0.65918,-1.54248 z M 28.599122,0 32.73877,4.258301 v -4.03418 h 0.764648 v 5.85791 L 29.36377,1.8457 V 5.822751 H 28.599122 Z M 42.180176,0.23291 H 42.98877 L 44.742188,4.192383 46.50879,0.23291 h 0.817382 l -2.592773,5.778809 z m 13.400879,2.755371 q 0,-1.21289 0.914063,-2.078613 0.914062,-0.865723 2.197265,-0.865723 1.252442,0 2.157715,0.874512 0.905274,0.870117 0.905274,2.069824 0,1.27002 -0.896485,2.148926 -0.89209,0.874512 -2.192871,0.874512 -1.283203,0 -2.184082,-0.883301 -0.900879,-0.883301 -0.900879,-2.140137 z m 5.361328,0.03516 q 0,-0.927246 -0.667968,-1.560059 -0.667969,-0.637207 -1.643555,-0.637207 -0.927246,0 -1.59082,0.645996 -0.65918,0.645996 -0.65918,1.55127 0,0.918457 0.676758,1.555664 0.681152,0.632812 1.665527,0.632812 0.905273,0 1.560059,-0.645996 0.659179,-0.650391 0.659179,-1.54248 z" />
  </g>
  <path id="pr1--k#" transform="translate(44,66)" fill="#4095bf" d="M 0.226562,0 H 1.519531 V 4.960938 H 0.847656 V 0.65625 H 0 Z" />
  <path id="pr2--k#" transform="translate(44,32)" fill="#4095bf" d="M 1.503906,4.480469 H 3.398437 V 5.144532 H 0 L 2.535156,2.449219 q 0.285156,-0.3125 0.285156,-0.6875 0,-0.441406 -0.300781,-0.765625 Q 2.21875,0.671875 1.8125,0.671875 q -0.335938,0 -0.632813,0.214844 Q 0.886718,1.101563 0.796875,1.550782 H 0.140625 Q 0.238285,0.816407 0.71875,0.410157 1.203125,0 1.855468,0 q 0.652344,0 1.136719,0.515625 0.4843752,0.511719 0.4843752,1.214844 0,0.339844 -0.1250002,0.625 -0.121094,0.28125 -0.433594,0.613281 z" />
  <path id="pr3--k#" transform="translate(73,32)" fill="#4095bf" d="M 0.871094,1.289062 H 0.144531 Q 0.214841,0.660156 0.636719,0.332031 1.0625,0 1.664062,0 q 0.691407,0 1.144532,0.394531 0.453125,0.394531 0.453125,0.988281 0,0.738282 -0.75,1.128907 0.878906,0.453125 0.878906,1.25 0,0.625 -0.480469,1.085937 -0.476562,0.457031 -1.132812,0.457031 -0.660157,0 -1.144532,-0.328125 Q 0.152344,4.644531 0,3.929687 h 0.742187 q 0.242188,0.773438 0.992188,0.773438 0.382812,0 0.667969,-0.261719 Q 2.6875,4.175781 2.6875,3.824219 2.6875,3.457031 2.425781,3.152344 2.164062,2.84375 1.566406,2.832031 V 2.214844 Q 2.023437,2.207044 2.28125,1.992187 2.542969,1.773437 2.542969,1.433594 2.542969,1.085937 2.300781,0.84375 2.058594,0.601562 1.710937,0.601562 1.382812,0.601562 1.1875,0.765625 0.992187,0.929687 0.871094,1.289062 Z" />
  <path id="pr4--k#" transform="translate(73,66)" fill="#4095bf" d="M 3.398438,0 V 3.570312 H 3.878907 V 4.152344 H 3.398438 V 5.128906 H 2.789063 V 4.152344 H 0 Z m -0.625,1.585937 -1.582031,1.984375 H 2.789063 V 1.585937 Z" />

  <path id="po1--k#" transform="translate(126,66)" fill="#4095bf" d="M 0.226562,0 H 1.519531 V 4.960938 H 0.847656 V 0.65625 H 0 Z" />
  <path id="po2--k#" transform="translate(126,32)" fill="#4095bf" d="M 1.503906,4.480469 H 3.398437 V 5.144532 H 0 L 2.535156,2.449219 q 0.285156,-0.3125 0.285156,-0.6875 0,-0.441406 -0.300781,-0.765625 Q 2.21875,0.671875 1.8125,0.671875 q -0.335938,0 -0.632813,0.214844 Q 0.886718,1.101563 0.796875,1.550782 H 0.140625 Q 0.238285,0.816407 0.71875,0.410157 1.203125,0 1.855468,0 q 0.652344,0 1.136719,0.515625 0.4843752,0.511719 0.4843752,1.214844 0,0.339844 -0.1250002,0.625 -0.121094,0.28125 -0.433594,0.613281 z" />
  <path id="po3--k#" transform="translate(156,32)" fill="#4095bf" d="M 0.871094,1.289062 H 0.144531 Q 0.214841,0.660156 0.636719,0.332031 1.0625,0 1.664062,0 q 0.691407,0 1.144532,0.394531 0.453125,0.394531 0.453125,0.988281 0,0.738282 -0.75,1.128907 0.878906,0.453125 0.878906,1.25 0,0.625 -0.480469,1.085937 -0.476562,0.457031 -1.132812,0.457031 -0.660157,0 -1.144532,-0.328125 Q 0.152344,4.644531 0,3.929687 h 0.742187 q 0.242188,0.773438 0.992188,0.773438 0.382812,0 0.667969,-0.261719 Q 2.6875,4.175781 2.6875,3.824219 2.6875,3.457031 2.425781,3.152344 2.164062,2.84375 1.566406,2.832031 V 2.214844 Q 2.023437,2.207044 2.28125,1.992187 2.542969,1.773437 2.542969,1.433594 2.542969,1.085937 2.300781,0.84375 2.058594,0.601562 1.710937,0.601562 1.382812,0.601562 1.1875,0.765625 0.992187,0.929687 0.871094,1.289062 Z" />
  <path id="po4--k#" transform="translate(156,66)" fill="#4095bf" d="M 3.398438,0 V 3.570312 H 3.878907 V 4.152344 H 3.398438 V 5.128906 H 2.789063 V 4.152344 H 0 Z m -0.625,1.585937 -1.582031,1.984375 H 2.789063 V 1.585937 Z" />

  <path id="1--div" fill="none" stroke="#737373" stroke-width="0.75"  d="M 2,74 h 160" />
  <path id="v--div" fill="none" stroke="#737373" stroke-width="0.75"  d="M 82.5,18 v 53" />
  <path id="m1--div" fill="none" stroke="#737373" stroke-width="0.75"  d="M 40,117 h 103" />
  <path id="m2--div" fill="none" stroke="#737373" stroke-width="0.75"  d="M 30,236 h 113" />
  <path id="b--div" fill="none" stroke="#737373" stroke-width="0.75"  d="M 2,278 h 160" />

</svg>
