<?xml version="1.0" encoding="UTF-8" standalone="no"?>
<svg width="15" height="380" viewBox="0 0 15 380" version="1.1"
  xmlns="http://www.w3.org/2000/svg"
  xmlns:svg="http://www.w3.org/2000/svg">
  <defs>
    <linearGradient id="gpanel" x1="0" y1="0" x2="0" y2="380" gradientUnits="userSpaceOnUse">
      <stop offset="0" stop-color="#282828" />
      <stop offset="1" stop-color="#181818" />
    </linearGradient>
  </defs>
  <g>
    <rect id="g-panel" fill="url(#gpanel)" x="0" y="0" width="15" height="380" />
    <g transform="translate(0, 60)" id="logo">
      <path id="pachde" fill="#f9a54b" stroke-width="0.25" d="M 5.7436512,3.8946598 5.2793924,4.8128176 4.4836125,4.5997895 4.3324208,5.1650586 5.0074416,5.3457117 4.6655606,6.024941 4.1394652,5.8841093 3.9879498,6.4493785 4.3936098,6.5581589 3.9287034,7.4763165 4.4939725,7.6281557 4.9588789,6.7093505 5.8194088,6.9401849 5.3548264,7.8586663 5.9197717,8.009858 6.3843542,7.0917005 7.1798103,7.3044047 7.3313258,6.7394594 6.653715,6.5581589 6.9978623,5.8792532 7.5242813,6.0204085 7.675473,5.4551394 7.267223,5.3457117 7.7321295,4.4269065 7.1694503,4.2760384 6.7019539,5.1938725 5.841424,4.9636855 6.3089203,4.0458516 Z M 9.8679143,4.0992704 9.7118664,4.6823459 10.106519,4.7885361 9.8912244,5.5917622 C 9.7608738,5.3119937 9.5481337,5.1324298 9.2531113,5.0530406 8.946302,4.9708782 8.6523691,5.0286413 8.3712137,5.2262475 8.090752,5.4221201 7.9008855,5.7048941 7.8017357,6.0747987 7.7043196,6.4391566 7.725225,6.7774245 7.863896,7.0894341 8.0029136,7.4014436 8.2299155,7.5998992 8.5453918,7.6844882 8.8088664,7.7552106 9.0833749,7.7080276 9.3686905,7.5430092 L 9.2880764,7.8440976 10.512179,8.1720573 10.668874,7.5886581 10.252854,7.4772876 11.071297,4.4217265 Z M 5.5727107,5.4972271 6.4332407,5.7274139 6.0890933,6.4066434 5.227916,6.1758089 Z m 3.6182405,0.2499356 c 0.037246,0.00167 0.075647,0.00788 0.1152552,0.018454 0.1327775,0.035708 0.2368669,0.1186137 0.312096,0.2489644 0.076962,0.131044 0.082959,0.3177617 0.01813,0.5600891 C 9.5729904,6.8121441 9.475476,6.9702696 9.3440853,7.0489652 9.2147747,7.1266208 9.0832733,7.1475035 8.9491093,7.1114491 8.7868641,7.0677677 8.6802048,6.9699756 8.6292433,6.8181309 8.578971,6.6642062 8.5792759,6.492051 8.6298949,6.3020719 8.6836299,6.1016924 8.7693839,5.9518782 8.8876008,5.8523818 8.9780834,5.7772396 9.0792169,5.7421575 9.1909554,5.7471627 Z" />
      <path id="hexoid" fill="#f9a54b" stroke-width="0.25" d="M 9.0501601,0 3.0501597,1.6742715 1.5,7.7076301 5.949841,12.066717 11.949842,10.392693 13.5,4.3593345 Z M 7.5000004,1.3767489 c 1.1253696,0 2.1563462,0.3971762 2.9605106,1.0593566 l 0.56414,0.5528584 c 0.70504,0.8158796 1.13196,1.8790338 1.13196,3.0443946 0,0.270535 -0.02411,0.5352077 -0.06819,0.7929861 L 11.898824,7.5643881 C 11.444739,8.872775 10.425218,9.9141393 9.1306114,10.396862 l -0.7495708,0.209222 c -0.2853127,0.05445 -0.5796346,0.08389 -0.8810402,0.08389 -1.1256172,0 -2.1567592,-0.397404 -2.9610009,-1.0598472 L 3.9753497,9.0780006 C 3.270272,8.2621084 2.8433898,7.1987546 2.8433898,6.0333585 c 0,-0.2705337 0.024113,-0.5352064 0.068187,-0.7929847 L 3.1011776,4.5028212 C 3.555489,3.1934261 4.5759387,2.1512366 5.8718423,1.6688739 l 0.7436844,-0.207505 c 0.2863808,-0.054873 0.5818606,-0.08462 0.8844737,-0.08462 z" />
    </g>
    <path id="in--div" fill="none" stroke="#737373" stroke-width="0.5" d="M 2,278 h 11" />
    <path id="th" fill="none" stroke="#f9a54b" stroke-width="0.25" d="M 5,6.5 h 5" />
  </g>
  <path id="title" fill="#f9a54b" d="M 9.2402344,12.799806 8.6206055,13.296388 Q 8.3745117,13.041505 8.1723633,12.918458 7.9746094,12.791017 7.5966797,12.791017 q -0.413086,0 -0.6723633,0.188964 -0.2548828,0.184571 -0.2548828,0.479004 0,0.254883 0.2241211,0.452637 0.2241211,0.193359 0.7646484,0.42627 0.5405274,0.228515 0.8393555,0.430664 0.3032227,0.197754 0.496582,0.439453 0.1933594,0.241699 0.2856446,0.509765 0.09668,0.268067 0.09668,0.566895 0,0.69873 -0.5097656,1.190918 -0.5053711,0.492187 -1.2260742,0.492187 -0.703125,0 -1.2436523,-0.382324 -0.5361329,-0.386719 -0.8261719,-1.155762 l 0.7646484,-0.215332 q 0.4174805,0.944825 1.2788086,0.944825 0.4174805,0 0.694336,-0.250489 0.2768554,-0.250488 0.2768554,-0.632812 0,-0.228516 -0.1450195,-0.457031 Q 8.2954102,15.585938 8.0800781,15.436524 7.8647461,15.28711 7.3901367,15.098145 6.9199219,14.904786 6.6650391,14.746583 6.4145508,14.583985 6.2299805,14.364259 6.0454102,14.140138 5.9575195,13.920411 q -0.083496,-0.219726 -0.083496,-0.470215 0,-0.602051 0.4833985,-1.023926 0.4833984,-0.426269 1.1733398,-0.426269 0.4570313,0 0.9272461,0.197754 0.4702149,0.197754 0.7822266,0.602051 z m -3.9133301,9.283448 h 0.7646484 v 3.440918 q 0,0.764648 0.3647461,1.182129 0.3691407,0.41748 1.0415039,0.41748 0.6679688,0 1.0371094,-0.382324 0.3735352,-0.386719 0.3735352,-1.085449 v -3.572754 h 0.7646484 v 3.520019 q 0,1.028321 -0.5888672,1.643555 -0.5844726,0.615234 -1.5600586,0.615234 -0.9975586,0 -1.5996094,-0.624023 Q 5.3269043,26.614016 5.3269043,25.39673 Z M 9.2402344,32.399416 8.6206055,32.895998 Q 8.3745117,32.641115 8.1723633,32.518068 7.9746094,32.390627 7.5966797,32.390627 q -0.413086,0 -0.6723633,0.188965 -0.2548828,0.18457 -0.2548828,0.479004 0,0.254882 0.2241211,0.452636 0.2241211,0.19336 0.7646484,0.42627 0.5405274,0.228516 0.8393555,0.430664 0.3032227,0.197754 0.496582,0.439453 0.1933594,0.241699 0.2856446,0.509766 0.09668,0.268066 0.09668,0.566894 0,0.698731 -0.5097656,1.190918 -0.5053711,0.492188 -1.2260742,0.492188 -0.703125,0 -1.2436523,-0.382324 -0.5361329,-0.386719 -0.8261719,-1.155762 l 0.7646484,-0.215332 q 0.4174805,0.944824 1.2788086,0.944824 0.4174805,0 0.694336,-0.250488 0.2768554,-0.250489 0.2768554,-0.632813 0,-0.228515 -0.1450195,-0.457031 Q 8.2954102,35.185549 8.0800781,35.036135 7.8647461,34.886721 7.3901367,34.697756 6.9199219,34.504396 6.6650391,34.346193 6.4145508,34.183596 6.2299805,33.963869 6.0454102,33.739748 5.9575195,33.520021 q -0.083496,-0.219726 -0.083496,-0.470214 0,-0.602051 0.4833985,-1.023926 0.4833984,-0.42627 1.1733398,-0.42627 0.4570313,0 0.9272461,0.197754 0.4702149,0.197754 0.7822266,0.602051 z" />
</svg>
