<?xml version="1.0" encoding="UTF-8"?>
<svg width="15" height="380" viewBox="0 0 15 380" version="1.1"
   xmlns="http://www.w3.org/2000/svg"
   xmlns:svg="http://www.w3.org/2000/svg">
  <defs>
    <linearGradient id="gpanel" x1="0" y1="0" x2="0" y2="380" gradientUnits="userSpaceOnUse">
      <stop offset="0" stop-color="#282828" />
      <stop offset="1" stop-color="#181818" />
    </linearGradient>
  </defs>
  <g>
    <rect id="g-panel" fill="url(#gpanel)" x="0" y="0" width="15" height="380" />
    <g transform="translate(0, 150)">
      <path id="pachde" fill="#f9a54b" stroke-width="0.25" d="M 5.7436512,3.8946598 5.2793924,4.8128176 4.4836125,4.5997895 4.3324208,5.1650586 5.0074416,5.3457117 4.6655606,6.024941 4.1394652,5.8841093 3.9879498,6.4493785 4.3936098,6.5581589 3.9287034,7.4763165 4.4939725,7.6281557 4.9588789,6.7093505 5.8194088,6.9401849 5.3548264,7.8586663 5.9197717,8.009858 6.3843542,7.0917005 7.1798103,7.3044047 7.3313258,6.7394594 6.653715,6.5581589 6.9978623,5.8792532 7.5242813,6.0204085 7.675473,5.4551394 7.267223,5.3457117 7.7321295,4.4269065 7.1694503,4.2760384 6.7019539,5.1938725 5.841424,4.9636855 6.3089203,4.0458516 Z M 9.8679143,4.0992704 9.7118664,4.6823459 10.106519,4.7885361 9.8912244,5.5917622 C 9.7608738,5.3119937 9.5481337,5.1324298 9.2531113,5.0530406 8.946302,4.9708782 8.6523691,5.0286413 8.3712137,5.2262475 8.090752,5.4221201 7.9008855,5.7048941 7.8017357,6.0747987 7.7043196,6.4391566 7.725225,6.7774245 7.863896,7.0894341 8.0029136,7.4014436 8.2299155,7.5998992 8.5453918,7.6844882 8.8088664,7.7552106 9.0833749,7.7080276 9.3686905,7.5430092 L 9.2880764,7.8440976 10.512179,8.1720573 10.668874,7.5886581 10.252854,7.4772876 11.071297,4.4217265 Z M 5.5727107,5.4972271 6.4332407,5.7274139 6.0890933,6.4066434 5.227916,6.1758089 Z m 3.6182405,0.2499356 c 0.037246,0.00167 0.075647,0.00788 0.1152552,0.018454 0.1327775,0.035708 0.2368669,0.1186137 0.312096,0.2489644 0.076962,0.131044 0.082959,0.3177617 0.01813,0.5600891 C 9.5729904,6.8121441 9.475476,6.9702696 9.3440853,7.0489652 9.2147747,7.1266208 9.0832733,7.1475035 8.9491093,7.1114491 8.7868641,7.0677677 8.6802048,6.9699756 8.6292433,6.8181309 8.578971,6.6642062 8.5792759,6.492051 8.6298949,6.3020719 8.6836299,6.1016924 8.7693839,5.9518782 8.8876008,5.8523818 8.9780834,5.7772396 9.0792169,5.7421575 9.1909554,5.7471627 Z" />
      <path id="hexoid" fill="#f9a54b" stroke-width="0.25" d="M 9.0501601,0 3.0501597,1.6742715 1.5,7.7076301 5.949841,12.066717 11.949842,10.392693 13.5,4.3593345 Z M 7.5000004,1.3767489 c 1.1253696,0 2.1563462,0.3971762 2.9605106,1.0593566 l 0.56414,0.5528584 c 0.70504,0.8158796 1.13196,1.8790338 1.13196,3.0443946 0,0.270535 -0.02411,0.5352077 -0.06819,0.7929861 L 11.898824,7.5643881 C 11.444739,8.872775 10.425218,9.9141393 9.1306114,10.396862 l -0.7495708,0.209222 c -0.2853127,0.05445 -0.5796346,0.08389 -0.8810402,0.08389 -1.1256172,0 -2.1567592,-0.397404 -2.9610009,-1.0598472 L 3.9753497,9.0780006 C 3.270272,8.2621084 2.8433898,7.1987546 2.8433898,6.0333585 c 0,-0.2705337 0.024113,-0.5352064 0.068187,-0.7929847 L 3.1011776,4.5028212 C 3.555489,3.1934261 4.5759387,2.1512366 5.8718423,1.6688739 l 0.7436844,-0.207505 c 0.2863808,-0.054873 0.5818606,-0.08462 0.8844737,-0.08462 z" />
    </g>
    <path id="th" fill="none" stroke="#f9a54b" stroke-width="0.25" d="M 5,6.5 h 5" />
  </g>
  <path id="title" fill="#f9a54b" d="M 9.2532397,12.719738 8.6956405,13.166609 Q 8.4741826,12.937242 8.2922708,12.826513 8.1143136,12.711829 7.7742177,12.711829 q -0.3717328,0 -0.6050545,0.170048 -0.229367,0.166094 -0.229367,0.431052 0,0.229367 0.2016848,0.407324 0.2016848,0.174003 0.6881011,0.383597 0.4864164,0.205639 0.7553295,0.387551 0.2728676,0.177957 0.4468702,0.395461 0.1740026,0.217503 0.2570493,0.458734 0.087001,0.241231 0.087001,0.510144 0,0.628782 -0.4587341,1.071697 -0.4547795,0.442916 -1.1033346,0.442916 -0.6327367,0 -1.119153,-0.344051 -0.4824614,-0.348005 -0.7434653,-1.04006 l 0.6881012,-0.193776 q 0.3756874,0.85024 1.1507898,0.85024 0.3756874,0 0.6248275,-0.225413 0.24914,-0.225412 0.24914,-0.569463 0,-0.205639 -0.1305019,-0.411278 Q 8.4029998,15.226958 8.2092241,15.092501 8.0154485,14.958044 7.5883513,14.787996 7.1652086,14.613994 6.9358416,14.471628 6.7104291,14.325308 6.5443358,14.127578 6.3782424,13.925893 6.2991503,13.728162 q -0.075138,-0.19773 -0.075138,-0.423142 0,-0.541781 0.4350065,-0.921423 Q 7.0940252,12 7.7148981,12 q 0.4112789,0 0.8344215,0.177958 0.4231427,0.177957 0.7039201,0.54178 z M 4.869561,23.468353 q 0,-1.091471 0.8225576,-1.870528 0.8225577,-0.779057 1.9773022,-0.779057 1.1270622,0 1.9417107,0.786966 0.8146485,0.783012 0.8146485,1.862619 0,1.14288 -0.8067393,1.933801 -0.8027847,0.786967 -1.9733475,0.786967 -1.1547445,0 -1.9654384,-0.794876 Q 4.869561,24.59937 4.869561,23.468353 Z m 4.8246172,0.03164 q 0,-0.834422 -0.6010999,-1.403885 -0.6010998,-0.573417 -1.479022,-0.573417 -0.8344215,0 -1.4315667,0.581326 -0.5931907,0.581327 -0.5931907,1.395976 0,0.826512 0.6090091,1.39993 0.6129637,0.569463 1.498795,0.569463 0.8146485,0 1.4038845,-0.581327 0.5931907,-0.585282 0.5931907,-1.388066 z M 9.2532397,30.357275 8.6956405,30.804146 Q 8.4741826,30.574779 8.2922708,30.46405 8.1143136,30.349366 7.7742177,30.349366 q -0.3717328,0 -0.6050545,0.170048 -0.229367,0.166094 -0.229367,0.431052 0,0.229367 0.2016848,0.407324 0.2016848,0.174003 0.6881011,0.383597 0.4864164,0.205639 0.7553295,0.387551 0.2728676,0.177957 0.4468702,0.395461 0.1740026,0.217503 0.2570493,0.458734 0.087001,0.241231 0.087001,0.510144 0,0.628782 -0.4587341,1.071697 -0.4547795,0.442916 -1.1033346,0.442916 -0.6327367,0 -1.119153,-0.344051 -0.4824617,-0.348005 -0.7434656,-1.04006 L 6.639246,33.430003 q 0.3756874,0.85024 1.1507898,0.85024 0.3756874,0 0.6248275,-0.225413 0.24914,-0.225412 0.24914,-0.569463 0,-0.205639 -0.1305019,-0.411278 Q 8.4029998,32.864495 8.2092241,32.730038 8.0154485,32.595581 7.5883513,32.425533 7.1652086,32.251531 6.9358416,32.109165 6.7104291,31.962845 6.5443358,31.765115 6.3782424,31.56343 6.2991503,31.365699 q -0.075138,-0.19773 -0.075138,-0.423142 0,-0.541781 0.4350065,-0.921423 0.4350064,-0.383597 1.0558793,-0.383597 0.4112789,0 0.8344215,0.177958 0.4231427,0.177957 0.7039201,0.54178 z m -3.1340239,8.427261 h 3.0806367 v 0.688101 H 7.9976528 v 4.350065 H 7.3174609 V 39.472637 H 6.1192158 Z m 0.2530946,8.818767 h 2.7919507 v 0.688101 H 7.0525024 v 1.257565 H 9.1642611 V 50.22916 H 7.0525024 v 1.732117 h 2.1117587 v 0.680192 H 6.3723104 Z m -0.9115362,8.39958 3.7252372,3.832012 v -3.630327 h 0.6881011 v 5.271488 L 6.1488753,57.663817 v 3.578917 H 5.4607742 Z m 0.2708903,9.164795 h 0.6881011 v 3.096455 q 0,0.688101 0.3282322,1.063788 0.3321867,0.375688 0.9372412,0.375688 0.6010998,0 0.9332866,-0.344051 0.3361413,-0.348005 0.3361413,-0.976787 v -3.215093 h 0.6881012 v 3.167638 q 0,0.925377 -0.529917,1.479022 -0.5259624,0.553644 -1.4038845,0.553644 -0.8976952,0 -1.439476,-0.561554 -0.5378261,-0.561553 -0.5378261,-1.656979 z m 0.3875513,8.891924 h 3.0806367 v 0.688101 H 7.9976528 v 4.350065 H 7.3174609 V 74.747703 H 6.1192158 Z M 4.869561,85.199728 q 0,-1.091471 0.8225576,-1.870528 0.8225577,-0.779057 1.9773022,-0.779057 1.1270622,0 1.9417107,0.786966 0.8146485,0.783012 0.8146485,1.862619 0,1.14288 -0.8067393,1.933801 -0.8027847,0.786966 -1.9733475,0.786966 -1.1547445,0 -1.9654384,-0.794875 Q 4.869561,86.330744 4.869561,85.199728 Z m 4.8246172,0.03164 q 0,-0.834421 -0.6010999,-1.403884 -0.6010998,-0.573418 -1.479022,-0.573418 -0.8344215,0 -1.4315667,0.581327 -0.5931907,0.581327 -0.5931907,1.395975 0,0.826513 0.6090091,1.39993 0.6129637,0.569463 1.498795,0.569463 0.8146485,0 1.4038845,-0.581326 0.5931907,-0.585282 0.5931907,-1.388067 z M 7.2363281,99.801732 H 9.3676758 V 100.5488 H 5.5444336 l 2.8520508,-3.032224 q 0.3208008,-0.351563 0.3208008,-0.773438 0,-0.496582 -0.3383789,-0.861328 -0.338379,-0.364746 -0.7954102,-0.364746 -0.3779297,0 -0.7119141,0.241699 -0.3295898,0.2417 -0.430664,0.747071 H 5.7026367 Q 5.8125,95.679662 6.3530273,95.222631 q 0.5449219,-0.461426 1.2788086,-0.461426 0.7338868,0 1.2788086,0.580078 0.5449219,0.575683 0.5449219,1.366699 0,0.382324 -0.140625,0.703125 -0.1362305,0.316406 -0.487793,0.689941 z" />
</svg>
