<?xml version="1.0" encoding="UTF-8" standalone="no"?>
<svg width="165" height="380" viewBox="0 0 165 380" version="1.1"
   xmlns="http://www.w3.org/2000/svg" xmlns:svg="http://www.w3.org/2000/svg">
   <defs>
      <linearGradient id="gpanel" x1="0" y1="0" x2="0" y2="380" xlink:href="#panel-stops" gradientUnits="userSpaceOnUse" >
         <stop offset="0" stop-color="#282828" />
         <stop offset="1" stop-color="#181818" />
      </linearGradient>
   </defs>
   <rect id="g-panel" fill="url(#gpanel)" x="0" y="0" width="165" height="380" />

   <path id="h1--div" fill="none" stroke="#737373" stroke-width="0.75"  d="M 6,195 h 154" />
   <path id="c1--div" fill="none" stroke="#737373" stroke-width="0.75"  d="M 6,237 h 154" />
   <path id="c2--div" fill="none" stroke="#737373" stroke-width="0.75"  d="M 6,278.5 h 154" />
   <path id="o--div" fill="none" stroke="#737373" stroke-width="0.75"  d="M 6,328 h 154" />

   <path id="att--ctl-label" fill="#737373" transform="translate(142,167)" d="M 5 0.125 C 3.6560268 0.125 2.4374442 0.6719308 1.5546875 1.5546875 L 2.0820312 2.0820312 C 2.8279543 1.3361084 3.8586918 0.875 5 0.875 C 6.1413082 0.875 7.1720457 1.3361083 7.9179688 2.0820312 L 8.4453125 1.5546875 C 7.5625558 0.6719308 6.3439732 0.125 5 0.125 z M 5.0234375 2.1816406 C 4.1627135 2.1816406 3.3805221 2.5315872 2.8144531 3.0976562 L 3.3417969 3.625 C 3.7710321 3.1957647 4.3653785 2.9316406 5.0234375 2.9316406 C 5.6814965 2.9316406 6.2758429 3.1957647 6.7050781 3.625 L 7.2324219 3.0976562 C 6.6663529 2.5315872 5.8841615 2.1816406 5.0234375 2.1816406 z M 5.015625 3.9433594 C 4.5691145 3.9433594 4.163763 4.1272526 3.8691406 4.421875 L 4.3945312 4.9472656 C 4.55232 4.789477 4.7717796 4.6933594 5.015625 4.6933594 C 5.2594705 4.6933594 5.47893 4.7894774 5.6367188 4.9472656 L 6.1621094 4.421875 C 5.867487 4.1272527 5.4621355 3.9433594 5.015625 3.9433594 z " /> />

   <g transform="translate(40,200)" id="g6" >
      <path id="HAKEN--ctl-label" fill="#a6a6a6" d="M 0,11.152 V 4.2724609e-7 H 1.4080001 V 4.7840004 h 5.504 V 4.2724609e-7 h 1.408 V 11.152 h -1.408 V 6.0960004 h -5.504 V 11.152 Z M 9.855992,11.152 14.111992,4.2724609e-7 h 1.12 L 19.487992,11.152 h -1.536 l -3.264,-9.1359996 -3.28,9.1359996 z m 2.368,-2.6239996 0.432,-1.264 h 4.032 l 0.464,1.264 z m 9.919986,-0.928 v -1.792 L 27.695978,4.2724609e-7 h 1.888 z M 21.039978,11.152 V 4.2724609e-7 h 1.408 V 11.152 Z m 6.928,0 -3.792,-5.9999996 1.056,-0.976 4.384,6.9759996 z m 3.216013,0 V 4.2724609e-7 h 7.344 V 1.2640004 h -5.936 v 3.568 h 5.392 v 1.264 h -5.392 v 3.792 h 5.936 V 11.152 Z m 9.359985,0 V 4.2724609e-7 h 1.488 L 47.743976,9.3280004 h -0.32 V 4.2724609e-7 h 1.408 V 11.152 h -1.52 l -5.68,-9.3439996 h 0.32 V 11.152 Z" />
      <path id="MIDI1--ctl-label" transform="translate(0,42)" fill="#a6a6a6" d="M 0,11.152 V 0 H 2.0800001 l 3.504,8.816 h -0.256 L 8.8320001,0 H 10.896 V 11.152 H 9.4880001 v -9.52 l 0.112,0.016 -3.456,8.56 h -1.376 l -3.472,-8.56 0.112,-0.016 v 9.52 z M 13.424011,11.152 V 0 h 1.408 v 11.152 z m 3.936005,0 V 0 h 3.088 q 2.736,0 4.24,1.488 1.504,1.472 1.504,4.176 0,2.656 -1.488,4.08 -1.488,1.408 -4.272,1.408 z m 1.408,-1.296 h 1.536 q 1.424,0 2.416,-0.416 1.008,-0.432 1.52,-1.36 0.528,-0.944 0.528,-2.464 0,-1.52 -0.528,-2.464 -0.512,-0.96 -1.488,-1.408 -0.96,-0.448 -2.32,-0.448 h -1.664 z m 9.503987,1.296 V 0 h 1.408 v 11.152 z m 11.488009,0 V 2.16 l 0.416,0.704 h -3.328 V 1.776 h 1.936 q 0.48,0 0.72,-0.208 0.256,-0.208 0.256,-0.72 V 0 h 1.36 v 11.152 z" />
      <path id="MIDI2--ctl-label" transform="translate(0,84)" fill="#a6a6a6" d="M 0,11.264 V 0.112 H 2.0800001 l 3.504,8.816 h -0.256 l 3.504,-8.816 H 10.896 V 11.264 H 9.4880001 v -9.52 l 0.112,0.016 -3.456,8.56 h -1.376 l -3.472,-8.56 0.112,-0.016 v 9.52 z M 13.424011,11.264 V 0.112 h 1.408 v 11.152 z m 3.936005,0 V 0.112 h 3.088 q 2.736,0 4.24,1.488 1.504,1.472 1.504,4.176 0,2.656 -1.488,4.08 -1.488,1.408 -4.272,1.408 z m 1.408,-1.296 h 1.536 q 1.424,0 2.416,-0.416 1.008,-0.432 1.52,-1.36 0.528,-0.944 0.528,-2.464 0,-1.52 -0.528,-2.464 -0.512,-0.96 -1.488,-1.408 -0.96,-0.448 -2.32,-0.448 h -1.664 z m 9.503987,1.296 V 0.112 h 1.408 v 11.152 z m 7.600009,0 v -1.12 q 0.56,-0.448 1.296,-0.992 0.752,-0.544 1.504,-1.184 0.768,-0.64 1.408,-1.36 0.656,-0.72 1.056,-1.52 0.4,-0.8 0.4,-1.648 0,-0.944 -0.528,-1.536 -0.528,-0.592 -1.552,-0.592 -0.752,0 -1.264,0.352 -0.496,0.336 -0.752,0.944 -0.24,0.592 -0.256,1.36 l -1.328,-0.096 q 0,-0.784 0.24,-1.472 0.24,-0.704 0.704,-1.232 0.464,-0.544 1.136,-0.848 0.688,-0.32 1.568,-0.32 1.008,0 1.76,0.432 0.752,0.416 1.168,1.184 0.432,0.752 0.432,1.776 0,0.896 -0.336,1.728 -0.32,0.832 -0.912,1.584 -0.576,0.752 -1.328,1.424 -0.752,0.672 -1.6,1.264 -0.848,0.592 -1.728,1.088 l 0.352,-0.48 h 6 v 1.264 z" />
   </g>

   <g id="small-logo" opacity="0" transform="translate(2.5, 2.5) scale(.125, .125)">
      <path id="CHEM" fill="#faa64c" stroke="#f9a54b" stroke-width="1.25"
         d="M 9.57155,6.8102466 C 7.5299719,6.9641606 5.817206,7.4868486 4.4334406,8.3806086 3.0619033,9.2734488 2.0516687,10.491776 1.4048649,12.033091 0.75805948,13.574385 0.51296865,15.406135 0.67188275,17.528129 l 0.54976985,7.341113 c 0.1579945,2.109718 0.6731488,3.884153 1.5431675,5.323441 0.8690998,1.427031 2.0491859,2.476751 3.5383012,3.153925 1.5004252,0.663996 3.2714337,0.919037 5.3130137,0.765124 1.687051,-0.127185 3.155406,-0.59946 4.409287,-1.421756 1.253884,-0.822296 2.257264,-1.952595 3.010135,-3.390887 0.764175,-1.451474 1.244307,-3.166409 1.440553,-5.14249 l -5.205577,0.392446 C 15.089484,25.90723 14.645159,26.981878 13.942321,27.774978 13.238567,28.5558 12.338935,28.98866 11.238682,29.071606 9.832806,29.177598 8.7054519,28.832024 7.8587493,28.0324 7.0242738,27.231857 6.5482422,26.04655 6.4306659,24.476538 L 5.8808967,17.135426 c -0.1175795,-1.570032 0.1765706,-2.813401 0.8824481,-3.730054 0.7171819,-0.929869 1.7797757,-1.449033 3.1856556,-1.55502 0.7212756,-0.05438 1.3804676,0.06253 1.9798316,0.350351 0.6116,0.28694 1.142542,0.727992 1.592816,1.323125 0.46158,0.581971 0.824846,1.313187 1.0875,2.193842 l 5.205579,-0.392445 C 19.33768,13.387591 18.615927,11.763264 17.645071,10.454923 16.686438,9.1456738 15.517576,8.1791256 14.143077,7.5549806 12.780801,6.9298966 11.258596,6.6830986 9.571545,6.8102816 Z M 23.362582,6.0480886 25.36583,32.79761 30.389179,32.418903 29.577699,21.583165 39.149908,20.861522 39.961385,31.697259 44.98817,31.318293 42.984921,4.5687716 37.958139,4.9477376 38.786151,16.004246 29.213942,16.725889 28.38593,5.6693826 Z m 25.488072,-1.921532 2.003248,26.7495214 17.861931,-1.346601 -0.363755,-4.857279 -12.835151,0.967637 -0.449014,-5.9957 10.816873,-0.815478 -0.363755,-4.857277 -10.816873,0.815478 -0.462965,-6.1819914 12.835151,-0.967634 -0.363758,-4.857277 z m 22.445179,-1.692129 2.003246,26.7495204 4.566053,-0.344231 -1.396383,-18.646011 6.089927,15.294737 4.435398,-0.334382 3.716989,-16.3914044 1.422993,19.0013344 4.566035,-0.34423 L 94.696844,0.67023864 88.074707,1.1694776 84.346479,19.580833 77.917982,1.9351876 Z" />
      <path id="hex" fill="none" stroke="#f9a54b" stroke-width="2.5"
         d="M 75.274,41.479089 61.021074,45.456299 57.33869,59.788464 67.909232,70.143418 82.162158,66.166796 85.844539,51.834631 Z" />
   </g>

   <g id="CORE" transform="translate(60,3.5)">
      <path fill="#f9a54b"
         d="M 4.794434,0.369141 V 1.234864 Q 3.88916,0.791016 3.128906,0.791016 q -0.975586,0 -1.643554,0.632813 -0.667969,0.628418 -0.667969,1.546875 0,0.936035 0.681152,1.564453 0.685547,0.624023 1.713867,0.624023 0.747071,0 1.582032,-0.470215 V 5.563477 Q 4.03418,5.967774 3.146484,5.967774 1.845703,5.967774 0.922852,5.088868 0,4.205567 0,2.961914 0,1.740235 0.905273,0.870118 1.814941,0 3.09375,0 3.915527,0 4.794434,0.369141 Z m 8.676757,2.575195 q 0,-1.21289 0.914063,-2.078613 Q 15.299316,0 16.58252,0 q 1.252441,0 2.157714,0.874512 0.905274,0.870117 0.905274,2.069824 0,1.27002 -0.896485,2.148926 -0.892089,0.874512 -2.192871,0.874512 -1.283203,0 -2.184082,-0.883301 -0.900879,-0.883301 -0.900879,-2.140137 z m 5.361329,0.03516 q 0,-0.927246 -0.667969,-1.560059 -0.667969,-0.637207 -1.643555,-0.637207 -0.927246,0 -1.59082,0.645996 -0.65918,0.645996 -0.65918,1.55127 0,0.918457 0.676758,1.555664 0.681152,0.632812 1.665527,0.632812 0.905274,0 1.560059,-0.645996 0.65918,-0.650391 0.65918,-1.54248 z m 9.929199,-2.799317 h 1.21289 q 0.905274,0 1.472168,0.452637 0.571289,0.448242 0.571289,1.151367 0,0.5625 -0.36914,0.993164 -0.369141,0.430664 -1.151367,0.606445 l 1.630371,2.39502 H 31.253418 L 29.697754,3.476078 h -0.171387 v 2.302734 h -0.764648 z m 0.764648,0.676758 v 1.951172 q 1.691895,0.03516 1.691895,-0.979981 0,-0.355957 -0.197754,-0.580078 -0.197754,-0.228515 -0.527344,-0.307617 -0.32959,-0.0835 -0.966797,-0.0835 z M 41.081543,0.180179 h 3.102539 v 0.764649 h -2.34668 v 1.397461 h 2.34668 v 0.755859 h -2.34668 v 1.924805 h 2.34668 v 0.755859 h -3.102539 z"
         id="CORE--title" />
   </g>

   <path id="th" stroke="#f9a54b" stroke-width=".25" d="M 5,6.25 h 46 M 160,6.25 h -46" />

</svg>