<?xml version="1.0" encoding="UTF-8"?>
<svg
   width="15"
   height="380"
   viewBox="0 0 15 380"
   version="1.1"
   xmlns="http://www.w3.org/2000/svg"
   xmlns:svg="http://www.w3.org/2000/svg">
  <defs>
    <linearGradient id="gpanel" x1="0" y1="0" x2="0" y2="380" gradientUnits="userSpaceOnUse">
      <stop offset="0" stop-color="#282828" />
      <stop offset="1" stop-color="#181818" />
    </linearGradient>
  </defs>
  <g>
    <rect id="g-panel" fill="url(#gpanel)" x="0" y="0" width="15" height="380" />
    <g transform="translate(0, 60)">
      <path id="pachde" fill="#f9a54b" stroke-width="0.25" d="M 5.7436512,3.8946598 5.2793924,4.8128176 4.4836125,4.5997895 4.3324208,5.1650586 5.0074416,5.3457117 4.6655606,6.024941 4.1394652,5.8841093 3.9879498,6.4493785 4.3936098,6.5581589 3.9287034,7.4763165 4.4939725,7.6281557 4.9588789,6.7093505 5.8194088,6.9401849 5.3548264,7.8586663 5.9197717,8.009858 6.3843542,7.0917005 7.1798103,7.3044047 7.3313258,6.7394594 6.653715,6.5581589 6.9978623,5.8792532 7.5242813,6.0204085 7.675473,5.4551394 7.267223,5.3457117 7.7321295,4.4269065 7.1694503,4.2760384 6.7019539,5.1938725 5.841424,4.9636855 6.3089203,4.0458516 Z M 9.8679143,4.0992704 9.7118664,4.6823459 10.106519,4.7885361 9.8912244,5.5917622 C 9.7608738,5.3119937 9.5481337,5.1324298 9.2531113,5.0530406 8.946302,4.9708782 8.6523691,5.0286413 8.3712137,5.2262475 8.090752,5.4221201 7.9008855,5.7048941 7.8017357,6.0747987 7.7043196,6.4391566 7.725225,6.7774245 7.863896,7.0894341 8.0029136,7.4014436 8.2299155,7.5998992 8.5453918,7.6844882 8.8088664,7.7552106 9.0833749,7.7080276 9.3686905,7.5430092 L 9.2880764,7.8440976 10.512179,8.1720573 10.668874,7.5886581 10.252854,7.4772876 11.071297,4.4217265 Z M 5.5727107,5.4972271 6.4332407,5.7274139 6.0890933,6.4066434 5.227916,6.1758089 Z m 3.6182405,0.2499356 c 0.037246,0.00167 0.075647,0.00788 0.1152552,0.018454 0.1327775,0.035708 0.2368669,0.1186137 0.312096,0.2489644 0.076962,0.131044 0.082959,0.3177617 0.01813,0.5600891 C 9.5729904,6.8121441 9.475476,6.9702696 9.3440853,7.0489652 9.2147747,7.1266208 9.0832733,7.1475035 8.9491093,7.1114491 8.7868641,7.0677677 8.6802048,6.9699756 8.6292433,6.8181309 8.578971,6.6642062 8.5792759,6.492051 8.6298949,6.3020719 8.6836299,6.1016924 8.7693839,5.9518782 8.8876008,5.8523818 8.9780834,5.7772396 9.0792169,5.7421575 9.1909554,5.7471627 Z" />
      <path id="hexoid" fill="#f9a54b" stroke-width="0.25" d="M 9.0501601,0 3.0501597,1.6742715 1.5,7.7076301 5.949841,12.066717 11.949842,10.392693 13.5,4.3593345 Z M 7.5000004,1.3767489 c 1.1253696,0 2.1563462,0.3971762 2.9605106,1.0593566 l 0.56414,0.5528584 c 0.70504,0.8158796 1.13196,1.8790338 1.13196,3.0443946 0,0.270535 -0.02411,0.5352077 -0.06819,0.7929861 L 11.898824,7.5643881 C 11.444739,8.872775 10.425218,9.9141393 9.1306114,10.396862 l -0.7495708,0.209222 c -0.2853127,0.05445 -0.5796346,0.08389 -0.8810402,0.08389 -1.1256172,0 -2.1567592,-0.397404 -2.9610009,-1.0598472 L 3.9753497,9.0780006 C 3.270272,8.2621084 2.8433898,7.1987546 2.8433898,6.0333585 c 0,-0.2705337 0.024113,-0.5352064 0.068187,-0.7929847 L 3.1011776,4.5028212 C 3.555489,3.1934261 4.5759387,2.1512366 5.8718423,1.6688739 l 0.7436844,-0.207505 c 0.2863808,-0.054873 0.5818606,-0.08462 0.8844737,-0.08462 z" />
    </g>
    <path id="in--div" fill="none" stroke="#737373" stroke-width="0.5" d="M 2,278 h 11" />
    <path id="th" fill="none" stroke="#f9a54b" stroke-width="0.25" d="M 5,6.5 h 5" />
    <path id="title" fill="#f9a54b" d="M 7.7148438 12 C 7.3009285 12 6.9482074 12.127081 6.6582031 12.382812 C 6.3681988 12.635907 6.2246094 12.9435 6.2246094 13.304688 C 6.2246094 13.454962 6.2487361 13.596696 6.2988281 13.728516 C 6.3515562 13.860336 6.4341929 13.992496 6.5449219 14.126953 C 6.6556507 14.258773 6.7852719 14.373156 6.9355469 14.470703 C 7.0884582 14.565614 7.3057955 14.671108 7.5878906 14.787109 C 7.8726221 14.900475 8.0798006 15.002159 8.2089844 15.091797 C 8.3381682 15.181435 8.4462019 15.297771 8.5332031 15.4375 C 8.6202044 15.574593 8.6640625 15.710564 8.6640625 15.847656 C 8.6640625 16.077024 8.5801558 16.267694 8.4140625 16.417969 C 8.2479691 16.568244 8.0395208 16.642578 7.7890625 16.642578 C 7.2723276 16.642578 6.8891301 16.359795 6.6386719 15.792969 L 5.9511719 15.986328 C 6.1251745 16.447698 6.3736716 16.793387 6.6953125 17.025391 C 7.01959 17.254758 7.3926287 17.371094 7.8144531 17.371094 C 8.2468232 17.371094 8.6147824 17.223012 8.9179688 16.927734 C 9.2237915 16.632458 9.375 16.274657 9.375 15.855469 C 9.375 15.676193 9.3470632 15.506524 9.2890625 15.345703 C 9.233698 15.184882 9.1472517 15.031721 9.03125 14.886719 C 8.9152483 14.741716 8.7658961 14.610826 8.5839844 14.492188 C 8.404709 14.370913 8.1543557 14.240608 7.8300781 14.103516 C 7.5058006 13.963786 7.2750815 13.836705 7.140625 13.720703 C 7.0061685 13.602065 6.9394531 13.465411 6.9394531 13.3125 C 6.9394531 13.135861 7.0170105 12.993542 7.1699219 12.882812 C 7.3254697 12.769447 7.5256156 12.710938 7.7734375 12.710938 C 8.0001681 12.710938 8.1743306 12.749716 8.2929688 12.826172 C 8.4142433 12.899991 8.5476739 13.013104 8.6953125 13.166016 L 9.2539062 12.720703 C 9.0667213 12.478154 8.8309233 12.296372 8.5488281 12.177734 C 8.2667331 12.059096 7.9890297 12 7.7148438 12 z M 7.6699219 20.818359 C 6.9000922 20.818359 6.239778 21.078285 5.6914062 21.597656 C 5.1430345 22.117028 4.8691406 22.741103 4.8691406 23.46875 C 4.8691406 24.222761 5.139225 24.864615 5.6796875 25.394531 C 6.2201501 25.924449 6.8766547 26.189453 7.6464844 26.189453 C 8.4268596 26.189453 9.0839508 25.926988 9.6191406 25.402344 C 10.156967 24.875063 10.425781 24.23067 10.425781 23.46875 C 10.425781 22.749012 10.154427 22.127477 9.6113281 21.605469 C 9.0682291 21.080825 8.4212967 20.818359 7.6699219 20.818359 z M 7.6132812 21.523438 C 8.1985627 21.523438 8.6930168 21.713425 9.09375 22.095703 C 9.4944833 22.475345 9.6933594 22.943719 9.6933594 23.5 C 9.6933594 24.035189 9.497023 24.498484 9.1015625 24.888672 C 8.7087385 25.276223 8.2403646 25.46875 7.6972656 25.46875 C 7.1067114 25.46875 6.6078612 25.280033 6.1992188 24.900391 C 5.7932127 24.518112 5.5898437 24.051008 5.5898438 23.5 C 5.5898437 22.956901 5.7861802 22.491067 6.1816406 22.103516 C 6.5797374 21.715965 7.0570003 21.523437 7.6132812 21.523438 z M 7.7148438 29.636719 C 7.3009285 29.636719 6.9482074 29.765753 6.6582031 30.021484 C 6.3681988 30.274579 6.2246094 30.582172 6.2246094 30.943359 C 6.2246094 31.093634 6.2487361 31.233414 6.2988281 31.365234 C 6.3515562 31.497055 6.4341929 31.631168 6.5449219 31.765625 C 6.6556507 31.897445 6.7852719 32.011828 6.9355469 32.109375 C 7.0884582 32.204286 7.3057955 32.30978 7.5878906 32.425781 C 7.8726221 32.539147 8.0798006 32.640831 8.2089844 32.730469 C 8.3381682 32.820107 8.4462021 32.934489 8.5332031 33.074219 C 8.6202044 33.211311 8.6640625 33.349235 8.6640625 33.486328 C 8.6640625 33.715695 8.5801558 33.904413 8.4140625 34.054688 C 8.2479691 34.204963 8.0395208 34.279297 7.7890625 34.279297 C 7.2723276 34.279297 6.8891301 33.996514 6.6386719 33.429688 L 5.9511719 33.623047 C 6.1251745 34.084417 6.3736714 34.432059 6.6953125 34.664062 C 7.01959 34.89343 7.3926287 35.007812 7.8144531 35.007812 C 8.2468232 35.007812 8.6147824 34.85973 8.9179688 34.564453 C 9.2237915 34.269176 9.375 33.913329 9.375 33.494141 C 9.375 33.314865 9.3470632 33.143243 9.2890625 32.982422 C 9.233698 32.821601 9.1472517 32.66844 9.03125 32.523438 C 8.9152483 32.378435 8.7658961 32.247544 8.5839844 32.128906 C 8.404709 32.007632 8.1543557 31.87928 7.8300781 31.742188 C 7.5058006 31.602458 7.2750815 31.473424 7.140625 31.357422 C 7.0061685 31.238784 6.9394531 31.104083 6.9394531 30.951172 C 6.9394531 30.774533 7.0170105 30.630261 7.1699219 30.519531 C 7.3254697 30.406166 7.5256156 30.349609 7.7734375 30.349609 C 8.0001681 30.349609 8.1743306 30.388388 8.2929688 30.464844 C 8.4142433 30.538663 8.5476739 30.651776 8.6953125 30.804688 L 9.2539062 30.357422 C 9.0667213 30.114873 8.8309233 29.935044 8.5488281 29.816406 C 8.2667331 29.697768 7.9890297 29.636719 7.7148438 29.636719 z M 7.6308594 40.761719 C 7.1416016 40.761719 6.7167969 40.915039 6.3535156 41.222656 C 5.9931641 41.527344 5.7763672 41.955078 5.703125 42.505859 L 6.4414062 42.505859 C 6.5087891 42.168945 6.6513672 41.918946 6.8710938 41.757812 C 7.09375 41.59668 7.3320312 41.517578 7.5839844 41.517578 C 7.8886718 41.517578 8.1533203 41.637695 8.3789062 41.880859 C 8.6044922 42.124023 8.7167969 42.411133 8.7167969 42.742188 C 8.7167969 43.023438 8.6103516 43.28125 8.3964844 43.515625 L 5.5449219 46.548828 L 9.3671875 46.548828 L 9.3671875 45.800781 L 7.2363281 45.800781 L 8.8261719 44.101562 C 9.0605469 43.852539 9.2236328 43.621094 9.3144531 43.410156 C 9.4082031 43.196289 9.4550781 42.961914 9.4550781 42.707031 C 9.4550781 42.179687 9.2734375 41.725586 8.9101562 41.341797 C 8.5468751 40.955078 8.1201172 40.761719 7.6308594 40.761719 z" />
  </g>
</svg>
