<?xml version="1.0" encoding="UTF-8" standalone="no"?>
<svg width="210" height="380" viewBox="0 0 210 380" version="1.1"
   xmlns="http://www.w3.org/2000/svg"
   xmlns:svg="http://www.w3.org/2000/svg">
   <linearGradient id="panel-gradient" x1="0" y1="0" x2="0" y2="350" gradientUnits="userSpaceOnUse">
      <stop offset="0" stop-color="#282828" />
      <stop offset="1" stop-color="#181818" />
   </linearGradient>
    <linearGradient id="grid-grad" x1="45%" y1="0" x2="50%" y2="100%" gradientUnits="objectBoundingBox" >
      <stop stop-color="#404040" offset="0" />
      <stop stop-color="#242424" offset="1" />
    </linearGradient>
   <g>
      <rect id="g-panel" fill="url(#panel-gradient)" width="210" height="380" x="0" y="0" />
      <g id="grid">
         <path fill="url(#grid-grad)" id="g-grid" d="
            M 12,34 h 150 v 18 h -150 z
            M 12,54 h 150 v 18 h -150 z
            M 12,74 h 150 v 18 h -150 z
            M 12,94 h 150 v 18 h -150 z
            M 12,114 h 150 v 18 h -150 z
            M 12,134 h 150 v 18 h -150 z
            M 12,154 h 150 v 18 h -150 z
            M 12,174 h 150 v 18 h -150 z
            M 12,194 h 150 v 18 h -150 z
            M 12,214 h 150 v 18 h -150 z
            M 12,234 h 150 v 18 h -150 z
            M 12,254 h 150 v 18 h -150 z
            M 12,274 h 150 v 18 h -150 z
            M 12,294 h 150 v 18 h -150 z
            M 12,314 h 150 v 18 h -150 z
            " />
         <rect fill="#464060" id="grid-new" width="150" height="21" x="12" y="336" />
      </g>

     <path id="d1--div" fill="none" stroke="#8c8c8c" stroke-width="0.5" d="m 165,116 h 40" />

      <g>
         <path id="minus--ctl-label" transform="translate(171,290)" fill="#808080" d="M 10,5.25 H 2 v 1.5 h 8 z" />
         <path id="plus--ctl-label" transform="translate(189,290)" fill="#808080" d="M 6.75,2 H 5.25 V 5.25 H 2 v 1.5 H 5.25 V 10 h 1.5 V 6.75 H 10 V 5.25 H 6.75 Z" />
      </g>
      <path id="n--ctl-label" transform="translate(183,328)" fill="#808080" d="M 2.3 0 L 1.8 1.8 C 2 1.533 2.2 1.3 2.4 1.1 C 2.733 0.7 3.067 0.433 3.4 0.3 C 3.8 0.1 4.167 0 4.5 0 C 4.767 0 5 0.067 5.2 0.2 C 5.333 0.267 5.467 0.4 5.6 0.6 C 5.733 0.8 5.8 0.967 5.8 1.1 C 5.8 1.3 5.767 1.567 5.7 1.9 L 5.1 4.4 C 5.033 4.667 5 4.833 5 4.9 C 5 5.033 5.033 5.133 5.1 5.2 C 5.233 5.267 5.333 5.3 5.4 5.3 C 5.667 5.3 6.033 5.033 6.5 4.5 L 6.8 4.9 C 6.467 5.3 6.167 5.567 5.9 5.7 C 5.7 5.833 5.433 5.9 5.1 5.9 C 4.9 5.9 4.733 5.867 4.6 5.8 C 4.467 5.733 4.333 5.6 4.2 5.4 C 4.133 5.267 4.1 5.1 4.1 4.9 C 4.1 4.767 4.133 4.567 4.2 4.3 L 4.7 1.7 C 4.767 1.5 4.8 1.333 4.8 1.2 C 4.8 1.067 4.767 0.933 4.7 0.8 C 4.567 0.733 4.4 0.7 4.2 0.7 C 4 0.7 3.767 0.733 3.5 0.8 C 3.3 0.933 3.067 1.133 2.8 1.4 C 2.533 1.667 2.3 2 2.1 2.4 C 1.9 2.8 1.7 3.267 1.5 3.8 C 1.433 4 1.333 4.367 1.2 4.9 L 1 5.8 L 0 5.8 L 1.1 1 L 0 1 L 0.2 0.5 C 0.533 0.433 0.8 0.367 1 0.3 C 1.267 0.233 1.533 0.133 1.8 0 Z" />
   </g>

   <g transform="translate(84.5, 2.5)">
      <path fill="#f9a54b"
         d="m 0,0.21533203 h 1.125 q 0.953613,0 1.538086,0.44824219 0.584472,0.44824218 0.584472,1.16455078 0,0.7207031 -0.619629,1.2084961 -0.615234,0.487793 -1.87207,0.4746094 V 5.8139648 H 0 Z M 0.755859,0.88330078 V 2.8432617 Q 1.617187,2.8344717 2.030273,2.6015625 2.447754,2.3642578 2.447754,1.8457031 2.447754,1.4545898 2.131347,1.1689453 1.819336,0.88330078 0.755859,0.88330078 Z M 12.429687,0.21533203 h 0.75586 V 5.0581055 h 1.82373 v 0.7558593 h -2.57959 z M 25.870117,0 28.515625,5.8139648 H 27.71582 L 27.061035,4.3813476 h -2.377442 l -0.637207,1.4326172 h -0.79541 z m 0,1.753418 -0.900879,1.9907226 h 1.801758 z M 36.335449,0.21533203 h 0.848144 l 1.375489,2.24999997 1.35791,-2.24999997 h 0.848144 L 38.928222,3.2475586 V 5.8139648 H 38.163574 V 3.2563476 Z"
         id="PLAY--title" />
   </g>
   <path id="th" stroke="#f9a54b" stroke-width=".25" d="M 5,6.25 h 64 M 205,6.25 h -64" />
</svg>