<?xml version="1.0" encoding="UTF-8" standalone="no"?>
<svg
   width="255"
   height="380"
   viewBox="0 0 255 380"
   version="1.1"
   xmlns="http://www.w3.org/2000/svg"
   xmlns:svg="http://www.w3.org/2000/svg">
  <defs>
    <linearGradient id="gpanel" x1="0" y1="0" x2="0" y2="380" gradientUnits="userSpaceOnUse">
      <stop offset="0" stop-color="#282828" />
      <stop offset="1" stop-color="#181818" />
    </linearGradient>
  </defs>
  <g>
    <rect id="g-panel" fill="url(#gpanel)" x="0" y="0" width="255" height="380" />
    <g id="setting-grid" fill="none" stroke="#2d6885" stroke-width="0.25">
      <path id="h1--sgl" fill="none" stroke="#2d6885" stroke-width="0.25" d="
        M 6,26.125 H 249
        M 6,43.125 H 249
        M 6,54.125 H 249
        M 6,68.125 H 249
        M 6,82.125 H 249
        M 6,96.125 H 249
        M 6,110.125 H 249
        M 6,124.125 H 249
        M 6,138.125 H 249
        M 6,152.125 H 249
        M 6,166.125 H 249
        M 6,180.125 H 249
        M 6,194.125 H 249
        M 6,208.125 H 249
        M 6,222.125 H 249" />
    </g>
    <path id="SETTINGS--title" fill="#f9a54b" d="M 85.64624,4.34375 85.026611,4.840332 Q 84.780518,4.5854492 84.578369,4.4624023 84.380615,4.3349609 84.002686,4.3349609 q -0.413086,0 -0.672364,0.1889649 -0.254883,0.1845703 -0.254883,0.4790039 0,0.2548828 0.224122,0.4526367 0.224121,0.1933594 0.764648,0.4262695 0.540527,0.2285157 0.839355,0.4306641 0.303223,0.1977539 0.496582,0.4394531 0.19336,0.2416992 0.285645,0.5097656 0.09668,0.2680665 0.09668,0.5668946 0,0.6987305 -0.509766,1.190918 -0.505371,0.4921875 -1.226074,0.4921875 -0.703125,0 -1.243652,-0.3823243 -0.536133,-0.3867187 -0.826172,-1.1557617 l 0.764648,-0.215332 q 0.417481,0.9448242 1.278809,0.9448242 0.41748,0 0.694336,-0.2504883 0.276855,-0.2504883 0.276855,-0.6328125 0,-0.2285156 -0.145019,-0.4570312 Q 84.701416,7.1298828 84.486084,6.9804687 84.270752,6.8310547 83.796143,6.6420898 83.325928,6.4487305 83.071045,6.2905273 82.820557,6.1279297 82.635986,5.9082031 82.451416,5.684082 82.363525,5.4643555 q -0.0835,-0.2197266 -0.0835,-0.4702149 0,-0.6020508 0.483399,-1.0239258 0.483398,-0.4262695 1.17334,-0.4262695 0.457031,0 0.927246,0.1977539 0.470215,0.1977539 0.782226,0.6020508 z m 9.019531,-0.6196289 h 3.10254 v 0.7646484 h -2.34668 v 1.397461 h 2.34668 v 0.7558593 h -2.34668 v 1.9248047 h 2.34668 v 0.7558594 h -3.10254 z m 11.660649,0 h 3.42334 v 0.7646484 h -1.33594 v 4.8339844 h -0.75586 V 4.4887695 h -1.33154 z m 11.94189,0 h 3.42334 v 0.7646484 h -1.33594 v 4.8339844 h -0.75586 V 4.4887695 h -1.33154 z m 12.27588,0 h 0.75586 v 5.5986328 h -0.75586 z M 140.48218,3.5 144.62183,7.7583008 V 3.7241211 h 0.76464 v 5.8579102 l -4.13964,-4.2363282 v 3.9770508 h -0.76465 z m 19.45654,1.1162109 -0.56689,0.5581055 q -0.85694,-0.8393555 -1.98194,-0.8393555 -0.98437,0 -1.63916,0.6328125 -0.65478,0.6328125 -0.65478,1.5820313 0,0.8305664 0.63281,1.4985351 0.63721,0.6635743 1.75342,0.6635743 1.67431,0 2.10498,-1.4589844 h -1.51172 V 6.4882812 h 2.38623 q 0,0.5756836 -0.0791,0.9184571 -0.0747,0.3427734 -0.31641,0.7558594 -0.2417,0.4130859 -0.64599,0.7426757 -0.39991,0.3251954 -0.86133,0.4658204 -0.45703,0.140625 -1.09424,0.140625 -1.4502,0 -2.31592,-0.909668 -0.86133,-0.9140625 -0.86133,-2.0874024 0,-1.2348632 0.8833,-2.1005859 0.88331,-0.8701172 2.14014,-0.8701172 0.74707,0 1.36231,0.2285156 0.61962,0.2241211 1.26562,0.84375 z M 172.88696,4.34375 172.26733,4.840332 q -0.24609,-0.2548828 -0.44824,-0.3779297 -0.19775,-0.1274414 -0.57568,-0.1274414 -0.41309,0 -0.67237,0.1889649 -0.25488,0.1845703 -0.25488,0.4790039 0,0.2548828 0.22412,0.4526367 0.22412,0.1933594 0.76465,0.4262695 0.54053,0.2285157 0.83936,0.4306641 0.30322,0.1977539 0.49658,0.4394531 0.19336,0.2416992 0.28564,0.5097656 0.0967,0.2680665 0.0967,0.5668946 0,0.6987305 -0.50976,1.190918 -0.50537,0.4921875 -1.22608,0.4921875 -0.70312,0 -1.24365,-0.3823243 -0.53613,-0.3867187 -0.82617,-1.1557617 l 0.76465,-0.215332 q 0.41748,0.9448242 1.27881,0.9448242 0.41748,0 0.69433,-0.2504883 0.27686,-0.2504883 0.27686,-0.6328125 0,-0.2285156 -0.14502,-0.4570312 -0.14502,-0.2329102 -0.36035,-0.3823243 -0.21534,-0.149414 -0.68994,-0.3383789 -0.47022,-0.1933593 -0.7251,-0.3515625 -0.25049,-0.1625976 -0.43506,-0.3823242 -0.18457,-0.2241211 -0.27246,-0.4438476 -0.0835,-0.2197266 -0.0835,-0.4702149 0,-0.6020508 0.4834,-1.0239258 0.4834,-0.4262695 1.17334,-0.4262695 0.45703,0 0.92725,0.1977539 0.47021,0.1977539 0.78222,0.6020508 z" />
    <path id="o--div" fill="none" stroke="#737373" stroke-width="0.75" d="M 2,328 h 253" />
    <path id="th" fill="none" stroke="#f9a54b" stroke-width=".25" d="M 5,6.5 h 66 M 250,6.5 h -66" />
    <g id="Routing" transform="translate(0, 34)">
      <path id="line--rte" fill="none" stroke="#337799" stroke-width="1" d="M 77.76,248.38 H 89.5 M 77.76,232.88 H 89.5 M 97.15,232.38 v 27.5 M 157.15,232.38 v 27.5          M 127.15,232.38 v 27.5          M 97.15,248.38 h 60          M 97.15,232.38 h 60" />
      <path id="h--rteh" fill="#337799" d="M 87.7,229.8 l 0.1,6.2 5.2,-3 z M 87.7,245.3 l 0.1,6.2 5.2,-3 z M 100.2263,258.06735 l -6.2,0.1 3,5.2 z            M 130.2263,258.06735 l -6.2,0.1 3,5.2 z            M 160.2263,258.06735 l -6.2,0.1 3,5.2 z" />
    </g>

    <g id="flag" opacity="0" transform="translate(215.7,-3)">
      <g id="click"
         transform="translate(-8,3.6)">
        <path fill="#f9d406" d="m 27.696957,11.526034 h -7 l 7,5.573025 z" />
        <rect id="check" x="16" y="12" width="11.25" height="11.25" style="fill:none;fill-opacity:1;stroke:#a6a6a6;stroke-width:0.75;stroke-linejoin:round;stroke-dasharray:none;stroke-opacity:1;paint-order:fill markers stroke" />
      </g>
      <path id="vert" d="m 33.204571,17.413726 -0.01316,219.191674 -12.068356,-0.002 0.0079,-219.189629 z" style="display:inline;fill:none;stroke:#2d6885;stroke-width:0.25;stroke-linecap:butt;stroke-linejoin:miter;stroke-dasharray:none;stroke-opacity:1" />
    </g>
  </g>
</svg>
