<?xml version="1.0" encoding="UTF-8"?>
<svg width="90" height="380" viewBox="0 0 90 380" version="1.1" 
   xmlns="http://www.w3.org/2000/svg"
   xmlns:svg="http://www.w3.org/2000/svg">
   <defs>
      <linearGradient id="gpanel" x1="0" y1="0" x2="0" y2="380" gradientUnits="userSpaceOnUse" >
         <stop offset="0" stop-color="#282828" />
         <stop offset="1" stop-color="#181818" />
      </linearGradient>
   </defs>
   <g id="g1">
      <rect opacity="1" id="g-panel" fill="url(#gpanel)" x="0" y="0" width="90" height="380" />
      <path id="t--div" fill="none" stroke="#737373" stroke-width="0.75"  d="M 2,57 h 102" />
      <path id="f--div" fill="none" stroke="#737373" stroke-width="0.75"  d="M 2,290 h 102" />
   </g>

   <g id="small-logo" opacity="0" transform="translate(2.5, 2.5) scale(.125, .125)">
      <path id="CHEM" fill="#faa64c" stroke="#f9a54b" stroke-width="1.25"
         d="M 9.57155,6.8102466 C 7.5299719,6.9641606 5.817206,7.4868486 4.4334406,8.3806086 3.0619033,9.2734488 2.0516687,10.491776 1.4048649,12.033091 0.75805948,13.574385 0.51296865,15.406135 0.67188275,17.528129 l 0.54976985,7.341113 c 0.1579945,2.109718 0.6731488,3.884153 1.5431675,5.323441 0.8690998,1.427031 2.0491859,2.476751 3.5383012,3.153925 1.5004252,0.663996 3.2714337,0.919037 5.3130137,0.765124 1.687051,-0.127185 3.155406,-0.59946 4.409287,-1.421756 1.253884,-0.822296 2.257264,-1.952595 3.010135,-3.390887 0.764175,-1.451474 1.244307,-3.166409 1.440553,-5.14249 l -5.205577,0.392446 C 15.089484,25.90723 14.645159,26.981878 13.942321,27.774978 13.238567,28.5558 12.338935,28.98866 11.238682,29.071606 9.832806,29.177598 8.7054519,28.832024 7.8587493,28.0324 7.0242738,27.231857 6.5482422,26.04655 6.4306659,24.476538 L 5.8808967,17.135426 c -0.1175795,-1.570032 0.1765706,-2.813401 0.8824481,-3.730054 0.7171819,-0.929869 1.7797757,-1.449033 3.1856556,-1.55502 0.7212756,-0.05438 1.3804676,0.06253 1.9798316,0.350351 0.6116,0.28694 1.142542,0.727992 1.592816,1.323125 0.46158,0.581971 0.824846,1.313187 1.0875,2.193842 l 5.205579,-0.392445 C 19.33768,13.387591 18.615927,11.763264 17.645071,10.454923 16.686438,9.1456738 15.517576,8.1791256 14.143077,7.5549806 12.780801,6.9298966 11.258596,6.6830986 9.571545,6.8102816 Z M 23.362582,6.0480886 25.36583,32.79761 30.389179,32.418903 29.577699,21.583165 39.149908,20.861522 39.961385,31.697259 44.98817,31.318293 42.984921,4.5687716 37.958139,4.9477376 38.786151,16.004246 29.213942,16.725889 28.38593,5.6693826 Z m 25.488072,-1.921532 2.003248,26.7495214 17.861931,-1.346601 -0.363755,-4.857279 -12.835151,0.967637 -0.449014,-5.9957 10.816873,-0.815478 -0.363755,-4.857277 -10.816873,0.815478 -0.462965,-6.1819914 12.835151,-0.967634 -0.363758,-4.857277 z m 22.445179,-1.692129 2.003246,26.7495204 4.566053,-0.344231 -1.396383,-18.646011 6.089927,15.294737 4.435398,-0.334382 3.716989,-16.3914044 1.422993,19.0013344 4.566035,-0.34423 L 94.696844,0.67023864 88.074707,1.1694776 84.346479,19.580833 77.917982,1.9351876 Z" />
      <path id="hex" fill="none" stroke="#f9a54b" stroke-width="2.5"
         d="M 75.274,41.479089 61.021074,45.456299 57.33869,59.788464 67.909232,70.143418 82.162158,66.166796 85.844539,51.834631 Z" />
   </g>

   <g id="PRE" transform="translate(31,3.5)">
      <path fill="#f9a54b"
         d="m 0,0 h 1.125 q 0.953613,0 1.538086,0.4482422 0.584473,0.4482422 0.584473,1.1645505 0,0.720703 -0.619629,1.208496 -0.615235,0.487793 -1.872071,0.474609 v 2.302735 H 0 Z m 0.755859,0.6679688 v 1.9599609 q 0.861329,-0.0088 1.274415,-0.2417 0.41748,-0.237304 0.41748,-0.755859 0,-0.391113 -0.316406,-0.6767574 Q 1.819336,0.6679688 0.755859,0.6679688 Z M 12.438477,0 h 1.21289 q 0.905274,0 1.472168,0.4526367 0.571289,0.4482422 0.571289,1.151367 0,0.5625 -0.36914,0.993164 -0.369141,0.430664 -1.151368,0.606445 l 1.630372,2.39502 h -0.874512 l -1.555664,-2.302735 h -0.171387 v 2.302735 h -0.764648 z m 0.764648,0.6767578 v 1.9511719 q 1.691895,0.03516 1.691895,-0.979981 0,-0.355957 -0.197754,-0.5800776 Q 14.499512,0.8393555 14.169922,0.7602539 13.840332,0.6767579 13.203125,0.6767578 Z M 24.758301,0 h 3.102539 v 0.7646485 h -2.34668 v 1.3974602 h 2.34668 v 0.75586 h -2.34668 v 1.924804 h 2.34668 v 0.75586 h -3.102539 z"
         id="PRE--title" />
   </g>
   <path id="th" stroke="#f9a54b" stroke-width=".25" d="M 5,6.25 h 16 M 85,6.25 h -16" />

</svg>