<?xml version="1.0" encoding="UTF-8" standalone="no"?>
<svg width="90" height="380" viewBox="0 0 90 380" version="1.1" xmlns="http://www.w3.org/2000/svg" xmlns:svg="http://www.w3.org/2000/svg">
<linearGradient id="gpanel" x1="0" y1="0" x2="0" y2="380" xlink:href="#panel-stops" gradientUnits="userSpaceOnUse">
    <stop offset="0" stop-color="#282828" />
    <stop offset="1" stop-color="#181818" />
</linearGradient>
<rect opacity="1" id="g-panel" fill="url(#gpanel)" x="0" y="0" width="90" height="380" />

<circle id="k:level" fill="#a37113" cx="45" cy="35" r="16"/>
<circle id="k:mute" fill="#945b9d" cx="45" cy="68" r="14"/>
<rect id="k:mute-label" fill="#aaa8" x="25" y="82" width="40" height="14" />

<path id="t--div" fill="none" stroke="#737373" stroke-width="0.75" d="M 2,101 h 102" />

<rect id="k:eq-label" fill="#aaa8" x="25" y="104" width="40" height="16" />
<circle id="k:mix" fill="#2298ff" cx="45" cy="138" r="16"/>
<circle id="k:mix-light" fill="#ddd" cx="67" cy="129" r="2.95"/>

<circle id="k:tilt" fill="#999" cx="45" cy="182" r="16"/>
<rect id="k:tilt-label" fill="#aaa8" x="20" y="200" width="50" height="16" />

<circle id="k:freq" fill="#999" cx="45" cy="234" r="16"/>
<rect id="k:freq-label" fill="#aaa8" x="20" y="252" width="50" height="16" />

<path id="f--div" fill="none" stroke="#737373" stroke-width="0.75" d="M 2,290 h 102" />

<circle id="k:amount" cx="15" cy="316" r="8.9" fill="#bd10c3" />

<circle id="k:in-mute" fill="#66a" cx="45" cy="316" r="8" />
<circle id="k:mod-lvl" fill="#66a" cx="75" cy="316" r="8" />
<circle id="k:mod-mix" fill="#66a" cx="15" cy="350" r="8" />
<circle id="k:mod-tlt" fill="#66a" cx="45" cy="350" r="8" />
<circle id="k:mod-frq" fill="#66a" cx="75" cy="350" r="8" />

<rect id="k:m-mute-label" fill="#aaa8" x="31" y="296" width="28" height="12"/>
<rect id="k:m-lvl-label" fill="#aaa8" x="65" y="296" width="20" height="12"/>
<rect id="k:m-mix-label" fill="#aaa8" x="5"  y="330" width="20" height="12"/>
<rect id="k:m-tlt-label" fill="#aaa8" x="35" y="330" width="20" height="12"/>
<rect id="k:m-frq-label" fill="#aaa8" x="65" y="330" width="20" height="12"/>

<rect id="k:m-lvl-click" fill="none" stroke="#ee0f95" stroke-width=".25" x="60" y="296" width="30" height="21"/>
<rect id="k:m-mix-click" fill="none" stroke="#ee0f95" stroke-width=".25" x="0"  y="330" width="30" height="21"/>
<rect id="k:m-tlt-click" fill="none" stroke="#ee0f95" stroke-width=".25" x="30" y="330" width="30" height="21"/>
<rect id="k:m-frq-click" fill="none" stroke="#ee0f95" stroke-width=".25" x="60" y="330" width="30" height="21"/>

<rect id="k:haken" fill="#5d8ed7" x="28" y="367" width="200" height="9"/>

<path id="th" stroke="#f9a54b" stroke-width=".25" d="M 5,6.25 h 13 M 85,6.25 h -13" />
<g id="POST" opacity="1" transform="translate(23,3.5)">
    <path id="POST--title" fill="#f9a54b" d="m 0,0.180176 h 1.125 q 0.953614,0 1.538086,0.448242 0.584473,0.448243 0.584473,1.164551 0,0.720703 -0.619629,1.208496 -0.615234,0.487793 -1.87207,0.47461 V 5.778809 H 0 Z m 0.75586,0.667969 v 1.959961 q 0.861328,-0.0088 1.274414,-0.241699 0.41748,-0.237305 0.41748,-0.75586 0,-0.391113 -0.316406,-0.676758 Q 1.819336,0.848145 0.75586,0.848145 Z m 11.331054,2.096191 q 0,-1.21289 0.914063,-2.078613 Q 13.915039,0 15.198242,0 q 1.252442,0 2.157715,0.874512 0.905274,0.870117 0.905274,2.069824 0,1.27002 -0.896485,2.148926 -0.892089,0.874512 -2.192871,0.874512 -1.283203,0 -2.184082,-0.883301 -0.900879,-0.883301 -0.900879,-2.140137 z m 5.361328,0.03516 q 0,-0.927247 -0.667968,-1.560059 -0.667969,-0.637207 -1.643555,-0.637207 -0.927246,0 -1.59082,0.645996 -0.65918,0.645996 -0.65918,1.55127 0,0.918457 0.676758,1.555664 0.681152,0.632812 1.665527,0.632812 0.905274,0 1.560059,-0.645996 0.659179,-0.650391 0.659179,-1.54248 z M 30.677735,0.799808 30.058106,1.29639 Q 29.812012,1.041507 29.609864,0.91846 29.41211,0.791019 29.03418,0.791019 q -0.413086,0 -0.672363,0.188965 -0.254883,0.18457 -0.254883,0.479004 0,0.254883 0.224121,0.452636 0.224121,0.19336 0.764648,0.42627 0.540528,0.228516 0.839356,0.430664 0.303223,0.197754 0.496582,0.439453 0.193359,0.241699 0.285644,0.509766 0.09668,0.268066 0.09668,0.566894 0,0.698731 -0.509766,1.190918 -0.505371,0.492188 -1.226074,0.492188 -0.703125,0 -1.243652,-0.382324 Q 27.29834,5.198734 27.008301,4.429691 l 0.764648,-0.215332 q 0.417481,0.944824 1.278809,0.944824 0.417481,0 0.694336,-0.250488 0.276855,-0.250488 0.276855,-0.632813 0,-0.228515 -0.145019,-0.457031 Q 29.73291,3.585941 29.517578,3.436527 29.302246,3.287113 28.827637,3.098148 28.357422,2.904789 28.102539,2.746585 27.852051,2.583988 27.667481,2.364261 27.48291,2.14014 27.39502,1.920414 q -0.0835,-0.219727 -0.0835,-0.470215 0,-0.602051 0.483398,-1.023926 Q 28.278317,3e-6 28.968258,3e-6 q 0.457031,0 0.927246,0.197754 0.470215,0.197754 0.782227,0.602051 z m 8.738281,-0.619629 h 3.42334 V 0.944828 H 41.503418 V 5.778809 H 40.747559 V 0.944825 h -1.331543 z" />
</g>
</svg>