<?xml version="1.0" encoding="UTF-8" standalone="no"?>
<svg width="165" height="380" viewBox="0 0 165 380" version="1.1"
   xmlns="http://www.w3.org/2000/svg" xmlns:svg="http://www.w3.org/2000/svg">
   <defs>
      <linearGradient id="gpanel" x1="0" y1="0" x2="0" y2="380" xlink:href="#panel-stops" gradientUnits="userSpaceOnUse" >
         <stop offset="0" stop-color="#282828" />
         <stop offset="1" stop-color="#181818" />
      </linearGradient>
   </defs>
   <rect id="g-panel" fill="url(#gpanel)" x="0" y="0" width="165" height="380" />

   <path id="h1--div" fill="none" stroke="#737373" stroke-width="0.75"  d="M 6,219 h 154" />
   <path id="c1--sgl" fill="none" stroke="#2d6885" stroke-width="0.5"  d="M 6,255.5 h 154" />
   <path id="c2--sgl" fill="none" stroke="#2d6885" stroke-width="0.5"  d="M 6,291.5 h 154" />
   <xxxpath id="o--div" fill="none" stroke="#737373" stroke-width="0.75" d="M 6,330 h 154" />

   <g id="volume" fill="#a6a6a6" transform="translate(50.75, 165)">
      <path d="M 3.4707031 1.4101562 C 2.0101213 4.9901518 1.1992187 8.9027197 1.1992188 13.005859 C 1.1992188 17.105283 2.0087246 21.014435 3.4667969 24.591797 L 4.8515625 24.029297 C 3.4671269 20.62685 2.6992187 16.907684 2.6992188 13.005859 C 2.6992188 9.1003137 3.4685256 5.3777372 4.8554688 1.9726562 L 3.4707031 1.4101562 z M 60.441406 1.4453125 L 59.056641 2.0078125 C 60.4346 5.4034409 61.199219 9.1136601 61.199219 13.005859 C 61.199219 16.894338 60.436006 20.601151 59.060547 23.994141 L 60.445312 24.556641 C 61.8944 20.988737 62.699219 17.091954 62.699219 13.005859 C 62.699219 8.9160481 61.892997 5.0158551 60.441406 1.4453125 z M 8.1035156 3.2929688 C 6.8796083 6.291524 6.1992188 9.569194 6.1992188 13.005859 C 6.1992188 16.43881 6.8782115 19.713062 8.0996094 22.708984 L 9.484375 22.146484 C 8.3366137 19.325476 7.6992188 16.241212 7.6992188 13.005859 C 7.6992188 9.7667862 8.3380129 6.6791095 9.4882812 3.8554688 L 8.1035156 3.2929688 z M 55.808594 3.328125 L 54.423828 3.890625 C 55.565117 6.7048157 56.199219 9.7801308 56.199219 13.005859 C 56.199219 16.227867 55.566524 19.299776 54.427734 22.111328 L 55.8125 22.673828 C 57.024917 19.687363 57.699219 16.425487 57.699219 13.005859 C 57.699219 9.5825172 57.023512 6.3172294 55.808594 3.328125 z M 12.736328 5.1738281 C 11.748295 7.5917805 11.199219 10.234486 11.199219 13.005859 C 11.199219 15.773516 11.746902 18.412806 12.732422 20.828125 L 14.117188 20.265625 C 13.205352 18.02527 12.699219 15.575851 12.699219 13.005859 C 12.699219 10.43214 13.206746 7.9793187 14.121094 5.7363281 L 12.736328 5.1738281 z M 51.175781 5.2089844 L 49.791016 5.7714844 C 50.696368 8.0050125 51.199219 10.445508 51.199219 13.005859 C 51.199219 15.56184 50.697342 17.998088 49.794922 20.228516 L 51.179688 20.791016 C 52.155787 18.385616 52.699219 15.759544 52.699219 13.005859 C 52.699219 10.247816 52.154815 7.6174813 51.175781 5.2089844 z " />
   </g>

   <path id="haken" fill="#4073bf" transform="translate(36, 225)" d="M 0,0.24902344 H 0.84960938 V 2.6416016 H 3.8232422 V 0.24902344 H 4.6630859 V 6.4697266 H 3.8232422 V 3.4814453 H 0.84960938 V 6.4697266 H 0 Z M 8.3300781,0.00976563 11.269531,6.4697266 H 10.380859 L 9.6533203,4.8779297 H 7.0117187 L 6.3037109,6.4697266 h -0.883789 z m 0,1.94824217 -1.0009765,2.2119141 H 9.3310547 Z M 12.050781,0.24902344 h 0.84961 V 2.7783203 l 2.631836,-2.52929686 h 1.191406 l -3.00293,2.89062496 3.022461,3.3300782 H 15.65918 L 12.900391,3.4375 v 3.0322266 h -0.84961 z m 5.449219,0 h 3.447266 V 1.0986328 h -2.607422 v 1.5527344 h 2.607422 v 0.8398437 h -2.607422 v 2.1386719 h 2.607422 V 6.4697266 H 17.5 Z M 21.899414,0 26.499023,4.7314453 V 0.24902344 h 0.84961 V 6.7578125 l -4.59961,-4.7070312 v 4.4189453 h -0.849609 z" />

   <path id="C1--ctl-label" fill="#808080" transform="translate(36, 261.5)" d="M 4.7944336,0.36914063 V 1.2348633 Q 3.8891602,0.79101562 3.1289063,0.79101562 q -0.975586,0 -1.6435547,0.63281248 -0.66796879,0.628418 -0.66796879,1.546875 0,0.9360352 0.68115239,1.5644531 0.6855468,0.6240235 1.7138671,0.6240235 0.7470704,0 1.5820313,-0.4702149 v 0.8745118 q -0.7602539,0.4042968 -1.6479492,0.4042968 -1.3007813,0 -2.22363284,-0.8789062 Q 0,4.2055664 0,2.9619141 0,1.7402344 0.90527344,0.87011719 1.8149414,0 3.09375,0 3.9155273,0 4.7944336,0.36914063 Z M 6.543457,0.19775391 H 7.9980469 V 5.7788086 H 7.2421875 V 0.93603516 H 6.2885742 Z" />
   <rect id="k:c1-device" fill="#d0808080" x="7.5" y="271" width="150" height="12"/>

   <path id="C2--ctl-label" fill="#808080" transform="translate(36, 298)" d="M 4.7944336,0.37792969 V 1.2436523 Q 3.8891602,0.79980469 3.1289063,0.79980469 q -0.975586,0 -1.6435547,0.63281251 -0.66796879,0.628418 -0.66796879,1.546875 0,0.9360351 0.68115239,1.5644531 0.6855468,0.6240234 1.7138671,0.6240234 0.7470704,0 1.5820313,-0.4702148 v 0.8745117 q -0.7602539,0.4042969 -1.6479492,0.4042969 -1.3007813,0 -2.22363284,-0.8789063 Q 0,4.2143555 0,2.9707031 0,1.7490234 0.90527344,0.87890625 1.8149414,0.00878906 3.09375,0.00878906 q 0.8217773,0 1.7006836,0.36914063 z M 7.2905273,5.0405273 H 9.421875 V 5.7875977 H 5.5986328 L 8.4506836,2.7553711 q 0.3208008,-0.3515625 0.3208008,-0.7734375 0,-0.496582 -0.3383789,-0.8613281 -0.3383789,-0.36474613 -0.7954102,-0.36474613 -0.3779297,0 -0.7119141,0.24169922 Q 6.5961914,1.2392578 6.4951172,1.7446289 H 5.7568359 Q 5.8666992,0.91845703 6.4072266,0.46142578 6.9521484,0 7.6860352,0 8.4199219,0 8.9648438,0.58007812 9.5097656,1.1557617 9.5097656,1.9467773 q 0,0.3823243 -0.140625,0.703125 -0.1362304,0.3164063 -0.4877929,0.6899415 z" />
   <rect id="k:c2-device" fill="#d0808080" x="7.5" y="307" width="150" height="12"/>

   <path id="ctl-conn" fill="none" stroke="#66a" stroke-width="1.5" d="M130,265 h20" />

   <path id="c1map--ctl-label" transform="translate(88,275)"  fill="#a6a6a6" d="M 5.0742187,0 V 10 H 5.9257812 V 0 Z M 0,0.98046875 V 1.8320312 H 4 V 0.98046875 Z M 0,3.8066406 V 4.6582031 H 4 V 3.8066406 Z m 7.34375,1.2675781 v 0.8515625 h 4 V 5.0742187 Z m 0,2.828125 v 0.8515626 h 4 V 7.9023437 Z" />
   <path id="c1♫--ctl-label" transform="translate(108,275)"  fill="#a6a6a6" d="m 2.2792969,0 4.0488281,1.1835937 0.017578,0.023437 v 7.6113282 q 0,0.9082031 -1.125,1.1542969 H 4.9042969 q -1.2480469,0 -1.2480469,-0.9609375 V 8.9882813 Q 3.65625,8.25 4.6933594,8.1210938 L 4.921875,8.1035156 q 0.5039062,0 0.9785156,0.3398438 V 2.3789063 L 2.6894531,1.3886719 v 6.2167968 q 0,0.8027344 -0.8789062,1.1308594 L 1.4179687,8.7832031 H 1.265625 Q 0,8.7832031 0,7.875 V 7.8339844 Q 0,7.1191406 0.99609375,6.9199219 L 1.2480469,6.8964844 q 0.5214843,0 0.9902344,0.3925781 V 0.05273437 Z" />
   <path id="c1⦸--ctl-label"  transform="translate(124,275)"  fill="#a6a6a6" d="m 5.015625,0 q 1.3886719,0 2.5488281,0.63867187 1.1601563,0.63281253 1.8164063,1.79296873 0.6621096,1.1542969 0.6621096,2.6074219 0,1.4238281 -0.6445315,2.578125 Q 8.7597656,8.765625 7.59375,9.421875 q -1.1601563,0.65625 -2.578125,0.65625 -1.4003906,0 -2.5664062,-0.6503906 Q 1.2890625,8.7832031 0.64453125,7.6230469 0,6.4628906 0,5.0390625 0,3.6035156 0.65625,2.4433594 1.3183594,1.2832031 2.4726563,0.64453125 3.6269531,0 5.015625,0 Z M 1.7578125,2.2558594 Q 1.5585937,2.5136719 1.3886719,2.8125 0.84375,3.8027344 0.84375,5.0390625 q 0,1.2070312 0.5390625,2.1972656 0.5390625,0.984375 1.5117188,1.5351563 0.9785156,0.5566406 2.1093749,0.5566406 1.2011719,0 2.1621094,-0.5566406 Q 7.5234375,8.5722656 7.8164062,8.3085938 Z M 2.2382813,1.7519531 8.2910156,7.8046875 q 0.2109375,-0.2695313 0.375,-0.5742188 0.5332032,-0.9960937 0.5332032,-2.1914062 0,-1.2480469 -0.5449219,-2.2324219 Q 8.109375,1.8164062 7.1425781,1.2832031 6.1816406,0.75 5.0039062,0.75 3.8730469,0.75 2.90625,1.2890625 2.5429688,1.4882812 2.2382813,1.7519531 Z" />

   <path id="ctl-conn" fill="none" stroke="#66a" stroke-width="1.5" d="M130,301 h20" />

   <path id="c2map--ctl-label" transform="translate(88,312)"  fill="#a6a6a6" d="M 5.0742187,0 V 10 H 5.9257812 V 0 Z M 0,0.98046875 V 1.8320312 H 4 V 0.98046875 Z M 0,3.8066406 V 4.6582031 H 4 V 3.8066406 Z m 7.34375,1.2675781 v 0.8515625 h 4 V 5.0742187 Z m 0,2.828125 v 0.8515626 h 4 V 7.9023437 Z" />
   <path id="c2♫--ctl-label" transform="translate(108,312)"  fill="#a6a6a6" d="m 2.2792969,0 4.0488281,1.1835937 0.017578,0.023437 v 7.6113282 q 0,0.9082031 -1.125,1.1542969 H 4.9042969 q -1.2480469,0 -1.2480469,-0.9609375 V 8.9882813 Q 3.65625,8.25 4.6933594,8.1210938 L 4.921875,8.1035156 q 0.5039062,0 0.9785156,0.3398438 V 2.3789063 L 2.6894531,1.3886719 v 6.2167968 q 0,0.8027344 -0.8789062,1.1308594 L 1.4179687,8.7832031 H 1.265625 Q 0,8.7832031 0,7.875 V 7.8339844 Q 0,7.1191406 0.99609375,6.9199219 L 1.2480469,6.8964844 q 0.5214843,0 0.9902344,0.3925781 V 0.05273437 Z" />
   <path id="c2⦸--ctl-label"  transform="translate(124,312)"  fill="#a6a6a6" d="m 5.015625,0 q 1.3886719,0 2.5488281,0.63867187 1.1601563,0.63281253 1.8164063,1.79296873 0.6621096,1.1542969 0.6621096,2.6074219 0,1.4238281 -0.6445315,2.578125 Q 8.7597656,8.765625 7.59375,9.421875 q -1.1601563,0.65625 -2.578125,0.65625 -1.4003906,0 -2.5664062,-0.6503906 Q 1.2890625,8.7832031 0.64453125,7.6230469 0,6.4628906 0,5.0390625 0,3.6035156 0.65625,2.4433594 1.3183594,1.2832031 2.4726563,0.64453125 3.6269531,0 5.015625,0 Z M 1.7578125,2.2558594 Q 1.5585937,2.5136719 1.3886719,2.8125 0.84375,3.8027344 0.84375,5.0390625 q 0,1.2070312 0.5390625,2.1972656 0.5390625,0.984375 1.5117188,1.5351563 0.9785156,0.5566406 2.1093749,0.5566406 1.2011719,0 2.1621094,-0.5566406 Q 7.5234375,8.5722656 7.8164062,8.3085938 Z M 2.2382813,1.7519531 8.2910156,7.8046875 q 0.2109375,-0.2695313 0.375,-0.5742188 0.5332032,-0.9960937 0.5332032,-2.1914062 0,-1.2480469 -0.5449219,-2.2324219 Q 8.109375,1.8164062 7.1425781,1.2832031 6.1816406,0.75 5.0039062,0.75 3.8730469,0.75 2.90625,1.2890625 2.5429688,1.4882812 2.2382813,1.7519531 Z" />

   <rect id="outs" fill="#fff" opacity=".05" stroke="#2d6885" stroke-width=".75"
        x="3.5" y="330" rx="6" ry="6" width="157" height="33" />

   <g id="CORE" transform="translate(60,3.5)">
      <path fill="#f9a54b"
         d="M 4.794434,0.369141 V 1.234864 Q 3.88916,0.791016 3.128906,0.791016 q -0.975586,0 -1.643554,0.632813 -0.667969,0.628418 -0.667969,1.546875 0,0.936035 0.681152,1.564453 0.685547,0.624023 1.713867,0.624023 0.747071,0 1.582032,-0.470215 V 5.563477 Q 4.03418,5.967774 3.146484,5.967774 1.845703,5.967774 0.922852,5.088868 0,4.205567 0,2.961914 0,1.740235 0.905273,0.870118 1.814941,0 3.09375,0 3.915527,0 4.794434,0.369141 Z m 8.676757,2.575195 q 0,-1.21289 0.914063,-2.078613 Q 15.299316,0 16.58252,0 q 1.252441,0 2.157714,0.874512 0.905274,0.870117 0.905274,2.069824 0,1.27002 -0.896485,2.148926 -0.892089,0.874512 -2.192871,0.874512 -1.283203,0 -2.184082,-0.883301 -0.900879,-0.883301 -0.900879,-2.140137 z m 5.361329,0.03516 q 0,-0.927246 -0.667969,-1.560059 -0.667969,-0.637207 -1.643555,-0.637207 -0.927246,0 -1.59082,0.645996 -0.65918,0.645996 -0.65918,1.55127 0,0.918457 0.676758,1.555664 0.681152,0.632812 1.665527,0.632812 0.905274,0 1.560059,-0.645996 0.65918,-0.650391 0.65918,-1.54248 z m 9.929199,-2.799317 h 1.21289 q 0.905274,0 1.472168,0.452637 0.571289,0.448242 0.571289,1.151367 0,0.5625 -0.36914,0.993164 -0.369141,0.430664 -1.151367,0.606445 l 1.630371,2.39502 H 31.253418 L 29.697754,3.476078 h -0.171387 v 2.302734 h -0.764648 z m 0.764648,0.676758 v 1.951172 q 1.691895,0.03516 1.691895,-0.979981 0,-0.355957 -0.197754,-0.580078 -0.197754,-0.228515 -0.527344,-0.307617 -0.32959,-0.0835 -0.966797,-0.0835 z M 41.081543,0.180179 h 3.102539 v 0.764649 h -2.34668 v 1.397461 h 2.34668 v 0.755859 h -2.34668 v 1.924805 h 2.34668 v 0.755859 h -3.102539 z"
         id="CORE--title" />
   </g>

   <path id="th" stroke="#f9a54b" stroke-width=".25" d="M 5,6.25 h 46 M 160,6.25 h -46" />

<path id="k:center" stroke="#2f2" stroke-width=".2" d="M82.5,0 v380" />
<circle id="k:ready-light"  cx="22.5"  cy="30" r="1.48" fill="#ddd" />
<circle id="k:em-light"  cx="142.5"  cy="30" r="1.48" fill="#ddd" />
<circle id="k:useless" fill="#f9a54b" opacity=".5" cx="82.5" cy="62.5" r="55"/>
<rect id="k:preset" fill="#d0808080" x="0" y="114" width="100%" height="16" />
<rect id="k:prev" x="64.5" y="135" width="14" height="14" fill="none" stroke="#888" />
<rect id="k:next" x="86" y="135" width="14" height="14" fill="none" stroke="#888" />
<circle id="k:vol" fill="#f22" cx="82.5" cy="178" r="16"/>
<rect id="k:emstatus" fill="#d0808080" x="7.5" y="194.5" width="150" height="10" />

<circle id="k:reset" fill="#f22" cx="18" cy="208" r="8"/>
<rect id="k:status" fill="#d0808080" x="52.5" y="206" width="60" height="10"/>
<rect id="k:menu" fill="#a0a0a080" x="144" y="203" width="10" height="10" />
<rect id="k:haken" fill="#f22" x="7.5" y="222" width="24" height="12"/>
<rect id="k:haken-device" fill="#d0808080" x="7.5" y="235" width="150" height="12"/>
<rect id="k:c1" fill="#f22" x="7.5" y="258" width="24" height="12"/>
<rect id="k:c2" fill="#f22" x="7.5" y="294" width="24" height="12"/>
<circle id="k:c1map" fill="#f22" cx="94" cy="265" r="8" />
<circle id="k:c1fil" fill="#f22" cx="112" cy="265" r="8" />
<circle id="k:c1off" fill="#f22" cx="130" cy="265" r="8" />
<circle id="k:c1mut" fill="#66a" cx="150" cy="265" r="8" />
<rect id="k:c1mut-label" fill="#d0808080" x="141" y="274" width="18" height="12" />
<circle id="k:c2map" fill="#f22" cx="94" cy="301" r="8" />
<circle id="k:c2fil" fill="#f22" cx="112" cy="301" r="8" />
<circle id="k:c2off" fill="#f22" cx="130" cy="301" r="8" />
<circle id="k:c2mut" fill="#66a" cx="150" cy="301" r="8" />
<rect id="k:c2mut-label" fill="#d0808080" x="141" y="310" width="18" height="12" />

<rect id="k:ok-label" fill="#d0808080" x="9" y="330" width="18" height="12" />
<circle id="k:ok" fill="#66a" cx="18" cy="350" r="8" />
<rect id="k:w-label" fill="#d0808080" x="79" y="330" width="18" height="12" />
<circle id="k:w" fill="#66a" cx="88" cy="350"  r="8" />
<rect id="k:x-label" fill="#d0808080" x="99" y="330" width="18" height="12" />
<circle id="k:x" fill="#66a" cx="108" cy="350" r="8" />
<rect id="k:y-label" fill="#d0808080" x="119" y="330" width="18" height="12" />
<circle id="k:y" fill="#66a" cx="128" cy="350" r="8" />
<rect id="k:z-label" fill="#d0808080" x="139" y="330" width="18" height="12" />
<circle id="k:z" fill="#66a" cx="148" cy="350" r="8" />

</svg>