<?xml version="1.0" encoding="UTF-8" ?>
<svg width="120" height="380" viewBox="0 0 120 380" version="1.1"
   xmlns="http://www.w3.org/2000/svg"
   xmlns:svg="http://www.w3.org/2000/svg">
   <defs>
      <linearGradient id="gpanel" x1="0" y1="0" x2="0" y2="380" xlink:href="#panel-stops" gradientUnits="userSpaceOnUse" >
         <stop offset="0" stop-color="#282828" />
         <stop offset="1" stop-color="#181818" />
      </linearGradient>
   </defs>
   <g>
    <rect id="g-panel" fill="url(#gpanel)" x="0" y="0" width="120" height="380" />
    <path id="d1--div" fill="none" stroke="#737373" stroke-width="0.75" d="M 2,79 h 116" />
    <path id="d2--div" opacity="0" fill="none" stroke="#737373" stroke-width="0.75" d="M 2,127 h 116" />
    <path id="d3--div" opacity="0" fill="none" stroke="#737373" stroke-width="0.75" d="M 2,168 h 116" />
    <path id="d4--div" fill="none" stroke="#737373" stroke-width="0.75" d="M 2,270 h 116" />
    <path id="d5--div" fill="none" stroke="#737373" stroke-width="0.75" d="M 2,346 h 116" />
    <path id="title" fill="#f9a54b" transform="translate(25.5,3.5)" d="M 13.910156 -0.23242188 L 12.380859 5.5976562 L 13.128906 5.5976562 L 14.064453 2.0078125 L 15.664062 5.8144531 L 17.259766 2.0351562 L 18.185547 5.5976562 L 18.933594 5.5976562 L 17.404297 -0.23242188 L 15.664062 3.9414062 L 13.910156 -0.23242188 z M -0.39453125 0 L 1.2695312 2.7382812 L -0.45703125 5.5976562 L 0.39453125 5.5976562 L 1.7011719 3.4492188 L 2.9882812 5.5976562 L 3.8359375 5.5976562 L 2.1230469 2.7382812 L 3.7871094 0 L 2.9355469 0 L 1.7011719 2.0429688 L 0.44921875 0 L -0.39453125 0 z M 30.814453 0 L 30.814453 5.5976562 L 33.916016 5.5976562 L 33.916016 4.8417969 L 31.570312 4.8417969 L 31.570312 2.9179688 L 33.916016 2.9179688 L 33.916016 2.1621094 L 31.570312 2.1621094 L 31.570312 0.765625 L 33.916016 0.765625 L 33.916016 0 L 30.814453 0 z M 42.826172 0 L 42.826172 5.5976562 L 44.193359 5.5976562 C 45.227539 5.5976562 46.014649 5.3154297 46.556641 4.75 C 47.098633 4.1845703 47.369141 3.5341797 47.369141 2.7988281 C 47.369141 2.0693359 47.108398 1.4199219 46.583984 0.8515625 C 46.05957 0.28320313 45.258789 0 44.183594 0 L 42.826172 0 z M 56.244141 0 L 56.244141 5.5976562 L 57 5.5976562 L 57 0 L 56.244141 0 z M 65.882812 0 L 65.882812 0.765625 L 67.214844 0.765625 L 67.214844 5.5976562 L 67.970703 5.5976562 L 67.970703 0.765625 L 69.306641 0.765625 L 69.306641 0 L 65.882812 0 z M 43.589844 0.74609375 L 43.976562 0.74609375 C 44.547852 0.74609375 45.00293 0.80761719 45.339844 0.92773438 C 45.679687 1.0478516 45.971677 1.2822266 46.214844 1.6308594 C 46.458008 1.9794922 46.580078 2.3681641 46.580078 2.7988281 C 46.580078 3.1416016 46.503906 3.4570313 46.351562 3.7441406 C 46.199219 4.0283204 45.99414 4.256836 45.736328 4.4296875 C 45.478515 4.6025388 45.205078 4.7148435 44.917969 4.7675781 C 44.630859 4.8173828 44.203125 4.8417969 43.634766 4.8417969 L 43.589844 4.8417969 L 43.589844 0.74609375 z M 24.712891 1.3320312 C 24.408203 1.3320312 24.147461 1.4404297 23.927734 1.6601562 C 23.708008 1.8769531 23.597656 2.1396484 23.597656 2.4472656 C 23.597656 2.7519532 23.708008 3.0136719 23.927734 3.2304688 C 24.147461 3.4472656 24.408203 3.5546875 24.712891 3.5546875 C 25.020508 3.5546875 25.283203 3.4472656 25.5 3.2304688 C 25.719727 3.0136719 25.830078 2.7519532 25.830078 2.4472656 C 25.830078 2.1396484 25.719727 1.8769531 25.5 1.6601562 C 25.283203 1.4404297 25.020508 1.3320312 24.712891 1.3320312 z " />
    <path id="th" stroke="#f9a54b" stroke-width=".25" d="M 5,6.25 h 12 M 115,6.25 h -12" />
  </g>
</svg>