<?xml version="1.0" encoding="UTF-8" ?>
<svg width="120" height="380" viewBox="0 0 120 380" version="1.1"
  xmlns="http://www.w3.org/2000/svg"
  xmlns:svg="http://www.w3.org/2000/svg">
  <defs>
    <linearGradient id="gpanel" x1="0" y1="0" x2="0" y2="380" gradientUnits="userSpaceOnUse" >
        <stop offset="0" stop-color="#282828" />
        <stop offset="1" stop-color="#181818" />
    </linearGradient>
  </defs>
  <g>
    <rect id="g-panel" fill="url(#gpanel)" width="120" height="380" x="0" y="0" />
    <g id="pad-labels" transform="translate(0,28)">
      <path id="pad1--ctl-label" fill="#bfbfbf" d="m 25.925599,27.059999 v -5.55 l 0.33,0.56 h -2.13 v -0.89 h 1.12 q 0.34,0 0.51,-0.14 0.17,-0.14 0.17,-0.5 v -0.45 h 1.11 v 6.97 z" />
      <path id="pad2--ctl-label" fill="#bfbfbf" d="m 48.668276,27.059999 v -0.86 q 0.33,-0.25 0.77,-0.57 0.44,-0.32 0.89,-0.7 0.46,-0.38 0.85,-0.81 0.39,-0.44 0.63,-0.91 0.25,-0.47 0.25,-0.97 0,-0.5 -0.27,-0.82 -0.27,-0.33 -0.83,-0.33 -0.43,0 -0.7,0.21 -0.27,0.21 -0.4,0.56 -0.13,0.34 -0.14,0.74 l -1.09,-0.09 q 0,-0.48 0.15,-0.92 0.16,-0.45 0.46,-0.8 0.3,-0.36 0.74,-0.56 0.44,-0.21 1.01,-0.21 0.64,0 1.12,0.27 0.49,0.27 0.76,0.76 0.28,0.49 0.28,1.15 0,0.54 -0.19,1.04 -0.18,0.5 -0.52,0.96 -0.33,0.45 -0.78,0.86 -0.45,0.4 -0.98,0.76 -0.53,0.35 -1.12,0.64 l 0.29,-0.43 h 3.58 v 1.03 z" />
      <path id="pad3--ctl-label" fill="#bfbfbf" d="m 76.704931,27.149999 q -0.77,0 -1.35,-0.28 -0.58,-0.29 -0.9,-0.8 -0.32,-0.51 -0.32,-1.19 l 1.11,-0.07 q 0,0.58 0.41,0.93 0.41,0.34 1.08,0.34 0.45,0 0.76,-0.13 0.32,-0.14 0.48,-0.4 0.17,-0.26 0.17,-0.61 0,-0.31 -0.13,-0.52 -0.13,-0.21 -0.37,-0.33 -0.23,-0.13 -0.57,-0.18 -0.33,-0.06 -0.74,-0.06 v -0.88 q 0.29,0 0.55,-0.05 0.26,-0.05 0.45,-0.16 0.2,-0.12 0.31,-0.3 0.11,-0.19 0.11,-0.47 0,-0.28 -0.14,-0.49 -0.13,-0.21 -0.37,-0.32 -0.23,-0.12 -0.55,-0.12 -0.54,0 -0.84,0.29 -0.3,0.29 -0.31,0.76 l -1.09,-0.07 q 0,-0.6 0.29,-1.06 0.29,-0.46 0.8,-0.72 0.52,-0.26 1.18,-0.26 0.63,0 1.11,0.24 0.48,0.24 0.75,0.66 0.28,0.42 0.28,0.98 0,0.26 -0.07,0.48 -0.07,0.22 -0.21,0.4 -0.13,0.17 -0.31,0.3 -0.18,0.13 -0.39,0.22 0.29,0.09 0.54,0.23 0.25,0.14 0.43,0.35 0.19,0.21 0.29,0.48 0.11,0.27 0.11,0.61 0,0.65 -0.32,1.15 -0.32,0.49 -0.9,0.77 -0.57,0.28 -1.33,0.28 z" />
      <path id="pad4--ctl-label" fill="#bfbfbf" d="m 102.83161,27.059999 v -1.65 h -3.160005 v -0.86 l 3.280005,-4.46 h 0.99 v 4.29 h 1.11 v 1.03 h -1.11 v 1.65 z m -2.28,-2.29 -0.04,-0.39 h 2.32 v -3.16 l 0.14,0.14 z" />
      <path id="padA--ctl-label" fill="#bfbfbf" d="m 3.8000001,47.99387 2.76,-6.97 h 0.88 L 10.19,47.99387 H 8.9300001 l -1.93,-5.28 -1.93,5.28 z m 1.72,-1.46 0.36,-1.03 h 2.23 l 0.38,1.03 z" />
      <path id="padB--ctl-label" fill="#bfbfbf" d="m 4.6649975,73.327194 v -6.97 h 2.38 q 1.02,0 1.6,0.47 0.59,0.46 0.59,1.28 0,0.5 -0.21,0.88 -0.21,0.37 -0.59,0.59 0.58,0.19 0.87,0.63 0.29,0.44 0.29,1.1 0,0.95 -0.6,1.49 -0.59,0.53 -1.66,0.53 z m 1.16,-1.06 h 1.42 q 1.2,0 1.2,-1.01 0,-0.48 -0.29,-0.74 -0.28,-0.27 -0.79,-0.27 h -1.54 z m 0,-3.06 h 1.3 q 0.44,0 0.7,-0.24 0.26,-0.25 0.26,-0.68 0,-0.41 -0.28,-0.64 -0.27,-0.23 -0.76,-0.23 h -1.22 z" />
      <path id="padC--ctl-label" fill="#bfbfbf" d="m 7.1749956,98.800538 q -0.98,0 -1.72,-0.45 -0.74,-0.45 -1.16,-1.27 -0.41,-0.82 -0.41,-1.91 0,-1.09 0.41,-1.9 0.42,-0.82 1.16,-1.27 0.74,-0.45 1.72,-0.45 1.09,0 1.88,0.54 0.8,0.54 1.1500004,1.5 l -1.0800004,0.39 q -0.24,-0.63 -0.74,-0.98 -0.5,-0.35 -1.21,-0.35 -0.65,0 -1.13,0.31 -0.48,0.31 -0.75,0.87 -0.26,0.56 -0.26,1.34 0,0.78 0.26,1.35 0.27,0.56 0.75,0.87 0.48,0.31 1.13,0.31 0.71,0 1.21,-0.35 0.5,-0.36 0.74,-0.98 l 1.0800004,0.39 q -0.3500004,0.94 -1.1500004,1.49 -0.79,0.55 -1.88,0.55 z" />
      <path id="padD--ctl-label" fill="#bfbfbf" d="m 4.1130004,123.99385 v -6.97 h 2 q 1.72,0 2.67,0.93 0.95,0.92 0.95,2.61 0,1.66 -0.94,2.55 -0.93,0.88 -2.69,0.88 z m 1.16,-1.06 h 0.72 q 0.81,0 1.39,-0.22 0.58,-0.23 0.88,-0.76 0.3,-0.53 0.3,-1.43 0,-0.9 -0.3,-1.43 -0.29,-0.54 -0.85,-0.77 -0.55,-0.24 -1.32,-0.24 h -0.82 z" />
    </g>
    <g id="input-labels">
        <path id="i1--in-label" fill="#bfbfbf" d="m 27.125802,280.642 v -5.55 l 0.33,0.56 h -2.13 v -0.89 h 1.12 q 0.34,0 0.51,-0.14 0.17,-0.14 0.17,-0.5 v -0.45 h 1.11 v 6.97 z" />
        <path id="i2--in-label" fill="#bfbfbf" d="m 50.087473,280.642 v -0.86 q 0.33,-0.25 0.77,-0.57 0.44,-0.32 0.89,-0.7 0.46,-0.38 0.85,-0.81 0.39,-0.44 0.63,-0.91 0.25,-0.47 0.25,-0.97 0,-0.5 -0.27,-0.82 -0.27,-0.33 -0.83,-0.33 -0.43,0 -0.7,0.21 -0.27,0.21 -0.4,0.56 -0.13,0.34 -0.14,0.74 l -1.09,-0.09 q 0,-0.48 0.15,-0.92 0.16,-0.45 0.46,-0.8 0.3,-0.36 0.74,-0.56 0.44,-0.21 1.01,-0.21 0.64,0 1.12,0.27 0.49,0.27 0.76,0.76 0.28,0.49 0.28,1.15 0,0.54 -0.19,1.04 -0.18,0.5 -0.52,0.96 -0.33,0.45 -0.78,0.86 -0.45,0.4 -0.98,0.76 -0.53,0.35 -1.12,0.64 l 0.29,-0.43 h 3.58 v 1.03 z" />
        <path id="i3--in-label" fill="#bfbfbf" d="m 78.124128,280.732 q -0.77,0 -1.35,-0.28 -0.58,-0.29 -0.9,-0.8 -0.32,-0.51 -0.32,-1.19 l 1.11,-0.07 q 0,0.58 0.41,0.93 0.41,0.34 1.08,0.34 0.45,0 0.76,-0.13 0.32,-0.14 0.48,-0.4 0.17,-0.26 0.17,-0.61 0,-0.31 -0.13,-0.52 -0.13,-0.21 -0.37,-0.33 -0.23,-0.13 -0.57,-0.18 -0.33,-0.06 -0.74,-0.06 v -0.88 q 0.29,0 0.55,-0.05 0.26,-0.05 0.45,-0.16 0.2,-0.12 0.31,-0.3 0.11,-0.19 0.11,-0.47 0,-0.28 -0.14,-0.49 -0.13,-0.21 -0.37,-0.32 -0.23,-0.12 -0.55,-0.12 -0.54,0 -0.84,0.29 -0.3,0.29 -0.31,0.76 l -1.09,-0.07 q 0,-0.6 0.29,-1.06 0.29,-0.46 0.8,-0.72 0.52,-0.26 1.18,-0.26 0.63,0 1.11,0.24 0.48,0.24 0.75,0.66 0.28,0.42 0.28,0.98 0,0.26 -0.07,0.48 -0.07,0.22 -0.21,0.4 -0.13,0.17 -0.31,0.3 -0.18,0.13 -0.39,0.22 0.29,0.09 0.54,0.23 0.25,0.14 0.43,0.35 0.19,0.21 0.29,0.48 0.11,0.27 0.11,0.61 0,0.65 -0.32,1.15 -0.32,0.49 -0.9,0.77 -0.57,0.28 -1.33,0.28 z" />
        <path id="i4--in-label" fill="#bfbfbf" d="m 104.2508,280.642 v -1.65 h -3.16 v -0.86 l 3.28,-4.46 h 0.99 v 4.29 h 1.11 v 1.03 h -1.11 v 1.65 z m -2.28,-2.29 -0.04,-0.39 h 2.32 v -3.16 l 0.14,0.14 z" />
        <path id="iA--in-label" fill="#bfbfbf" d="m 6.0000003,296.84271 2.76,-6.97 h 0.88 l 2.7499997,6.97 h -1.26 l -1.9299997,-5.28 -1.93,5.28 z m 1.72,-1.46 0.36,-1.03 H 10.31 l 0.38,1.03 z" />
        <path id="iB--in-label" fill="#bfbfbf" d="m 6.8649978,316.17603 v -6.97 h 2.38 q 1.0200002,0 1.6000002,0.47 0.59,0.46 0.59,1.28 0,0.5 -0.21,0.88 -0.21,0.37 -0.59,0.59 0.58,0.19 0.87,0.63 0.29,0.44 0.29,1.1 0,0.95 -0.6,1.49 -0.59,0.53 -1.6600002,0.53 z m 1.16,-1.06 h 1.42 q 1.2000002,0 1.2000002,-1.01 0,-0.48 -0.29,-0.74 -0.28,-0.27 -0.7900002,-0.27 h -1.54 z m 0,-3.06 h 1.3 q 0.44,0 0.7000002,-0.24 0.26,-0.25 0.26,-0.68 0,-0.41 -0.28,-0.64 -0.2700002,-0.23 -0.7600002,-0.23 h -1.22 z" />
        <path id="iC--in-label" fill="#bfbfbf" d="m 9.3749959,335.64937 q -0.98,0 -1.72,-0.45 -0.74,-0.45 -1.16,-1.27 -0.41,-0.82 -0.41,-1.91 0,-1.09 0.41,-1.9 0.42,-0.82 1.16,-1.27 0.74,-0.45 1.72,-0.45 1.0900001,0 1.8800001,0.54 0.8,0.54 1.15,1.5 l -1.08,0.39 q -0.24,-0.63 -0.74,-0.98 -0.5,-0.35 -1.2100001,-0.35 -0.65,0 -1.13,0.31 -0.48,0.31 -0.75,0.87 -0.26,0.56 -0.26,1.34 0,0.78 0.26,1.35 0.27,0.56 0.75,0.87 0.48,0.31 1.13,0.31 0.7100001,0 1.2100001,-0.35 0.5,-0.36 0.74,-0.98 l 1.08,0.39 q -0.35,0.94 -1.15,1.49 -0.79,0.55 -1.8800001,0.55 z" />
        <path id="iD--in-label" fill="#bfbfbf" d="m 6.3129997,354.84271 v -6.97 h 2 q 1.7200003,0 2.6700003,0.93 0.95,0.92 0.95,2.61 0,1.66 -0.94,2.55 -0.93,0.88 -2.6900003,0.88 z m 1.16,-1.06 h 0.72 q 0.81,0 1.39,-0.22 0.5800003,-0.23 0.8800003,-0.76 0.3,-0.53 0.3,-1.43 0,-0.9 -0.3,-1.43 -0.29,-0.54 -0.8500003,-0.77 -0.55,-0.24 -1.32,-0.24 h -0.82 z" />
    </g>

    <path id="div" fill="none" stroke="#737373" stroke-width="0.75" d="M 2,268 H 118" />

    <path id="title" transform="translate(28.5,3.5)" fill="#f9a54b" d="M 4.4384766,-0.23291016 5.9677734,5.5986328 H 5.2207031 L 4.293457,2.034668 2.6982422,5.8139648 1.0986328,2.0083008 0.16259766,5.5986328 H -0.58447266 L 0.94482422,-0.23291016 2.6982422,3.9418945 Z M 12.25,0 h 0.755859 V 5.5986328 H 12.25 Z m 7.490723,0 h 1.35791 q 1.612793,0 2.399414,0.85253906 0.786621,0.85253904 0.786621,1.94677734 0,1.1030274 -0.812988,1.9511719 -0.812989,0.8481445 -2.364258,0.8481445 h -1.366699 z m 0.764648,0.74707031 V 4.8427734 h 0.04395 q 0.852539,0 1.283204,-0.074707 0.430664,-0.079102 0.817382,-0.3383789 0.386719,-0.2592773 0.615235,-0.6855469 0.228515,-0.430664 0.228515,-0.9448242 0,-0.6459961 -0.364746,-1.1689453 Q 22.76416,1.1074219 22.254395,0.92724609 21.749023,0.74707031 20.89209,0.74707031 Z M 30.65918,0 h 0.755859 V 5.5986328 H 30.65918 Z m 7.662109,0 h 1.125 q 0.953613,0 1.538086,0.44824219 0.584473,0.44824219 0.584473,1.16455081 0,0.7207031 -0.619629,1.2084961 -0.615235,0.4877929 -1.872071,0.4746093 v 2.3027344 h -0.755859 z m 0.755859,0.66796875 V 2.6279297 q 0.861329,-0.00879 1.274414,-0.2416992 0.417481,-0.2373047 0.417481,-0.7558594 0,-0.3911133 -0.316406,-0.67675782 Q 40.140625,0.66796875 39.077148,0.66796875 Z M 49.507812,-0.21533203 52.15332,5.5986328 H 51.353516 L 50.69873,4.1660156 h -2.377441 l -0.637207,1.4326172 h -0.79541 z m 0,1.75341793 -0.900878,1.9907227 h 1.801757 z M 58.365234,0 h 1.357911 q 1.612792,0 2.399414,0.85253906 0.786621,0.85253904 0.786621,1.94677734 0,1.1030274 -0.812989,1.9511719 -0.812988,0.8481445 -2.364257,0.8481445 h -1.3667 z m 0.764649,0.74707031 V 4.8427734 h 0.04395 q 0.852539,0 1.283203,-0.074707 0.430664,-0.079102 0.817383,-0.3383789 0.386719,-0.2592773 0.615234,-0.6855469 0.228516,-0.430664 0.228516,-0.9448242 0,-0.6459961 -0.364746,-1.1689453 Q 61.388672,1.1074219 60.878906,0.92724609 60.373535,0.74707031 59.516602,0.74707031 Z" />
    <circle id="dot--title" transform="translate(63.5,3.5)" fill="#f9a54b" cx="0" cy="3.25" r="0.75" />
    <path id="th" fill="none" stroke="#f9a54b" stroke-width="0.25" d="M 5,6.5 h 18 M 115,6.5 h -18" />
  </g>
</svg>