<?xml version="1.0" encoding="UTF-8" standalone="no"?>
<svg width="30" height="380" viewBox="0 0 30 380" version="1.1"
  xmlns="http://www.w3.org/2000/svg"
  xmlns:svg="http://www.w3.org/2000/svg">
  <defs>
    <linearGradient id="gpanel" x1="0" y1="0" x2="0" y2="380" gradientUnits="userSpaceOnUse">
      <stop offset="0" stop-color="#282828" />
      <stop offset="1" stop-color="#181818" />
    </linearGradient>
  </defs>
  <g>
    <rect id="g-panel" fill="url(#gpanel)" x="0" y="0" width="30" height="380" />
    <path opacity="1" id="th" fill="none" stroke="#f9a54b" stroke-width="0.25" d="M 5,6.5 h 4 M 25,6.5 h -4" />
    <path id="f--div" fill="none" stroke="#737373" stroke-width="0.75" d="M 2,290 h 26" />
    <path transform="translate(12,3.5)" id="title" fill="#f9a54b" d="M 4.8273925,0.79980469 4.2077635,1.2963867 Q 3.9616695,1.0415039 3.7595215,0.91845703 3.5617676,0.79101562 3.1838379,0.79101562 q -0.4130859,0 -0.6723633,0.18896485 -0.2548828,0.18457033 -0.2548828,0.47900393 0,0.2548828 0.2241211,0.4526367 0.2241211,0.1933594 0.7646484,0.4262695 0.5405272,0.2285157 0.8393552,0.4306641 0.303223,0.1977539 0.496582,0.4394531 0.19336,0.2416992 0.285645,0.5097656 0.09668,0.2680664 0.09668,0.5668946 0,0.6987304 -0.509766,1.1909179 -0.505371,0.4921875 -1.2260743,0.4921875 -0.703125,0 -1.2436523,-0.3823242 Q 1.447998,5.1987305 1.157959,4.4296875 l 0.7646484,-0.215332 q 0.4174805,0.9448242 1.2788086,0.9448242 0.4174805,0 0.6943355,-0.2504883 0.276856,-0.2504883 0.276856,-0.6328125 0,-0.2285156 -0.14502,-0.4570312 Q 3.8825685,3.5859375 3.6672363,3.4365234 3.4519043,3.2871094 2.9772949,3.0981445 2.5070801,2.9047852 2.2521973,2.746582 2.001709,2.5839844 1.8171387,2.3642578 1.6325684,2.1401367 1.5446777,1.9204102 1.4611816,1.7006836 1.4611816,1.4501953 q 0,-0.60205077 0.4833985,-1.02392577 Q 2.4279785,0 3.1179199,0 q 0.4570313,0 0.9272466,0.19775391 0.470214,0.1977539 0.782226,0.60205078 z m -3.91333,9.28344831 h 0.7646484 v 3.440918 q 0,0.764648 0.3647461,1.182129 0.3691407,0.41748 1.0415039,0.41748 0.6679686,0 1.0371096,-0.382324 0.373535,-0.386719 0.373535,-1.085449 v -3.572754 h 0.764648 v 3.520019 q 0,1.028321 -0.588867,1.643555 -0.584472,0.615235 -1.5600584,0.615235 -0.9975586,0 -1.5996093,-0.624024 -0.5976563,-0.624023 -0.5976563,-1.841309 z m 3.91333,10.316162 -0.619629,0.496582 q -0.246094,-0.254883 -0.448242,-0.37793 -0.1977539,-0.127441 -0.5756836,-0.127441 -0.4130859,0 -0.6723633,0.188965 -0.2548828,0.18457 -0.2548828,0.479004 0,0.254883 0.2241211,0.452636 0.2241211,0.19336 0.7646484,0.42627 0.5405272,0.228516 0.8393552,0.430664 0.303223,0.197754 0.496582,0.439453 0.19336,0.241699 0.285645,0.509766 0.09668,0.268066 0.09668,0.566894 0,0.698731 -0.509766,1.190918 -0.505371,0.492188 -1.2260743,0.492188 -0.703125,0 -1.2436523,-0.382324 Q 1.447998,24.798341 1.157959,24.029298 l 0.7646484,-0.215332 q 0.4174805,0.944824 1.2788086,0.944824 0.4174805,0 0.6943355,-0.250488 0.276856,-0.250489 0.276856,-0.632813 0,-0.228515 -0.14502,-0.457031 Q 3.8825685,23.185548 3.6672363,23.036134 3.4519043,22.88672 2.9772949,22.697755 2.5070801,22.504395 2.2521973,22.346192 2.001709,22.183595 1.8171387,21.963868 1.6325684,21.739747 1.5446777,21.52002 q -0.083496,-0.219726 -0.083496,-0.470214 0,-0.602051 0.4833985,-1.023926 0.4833984,-0.42627 1.1733398,-0.42627 0.4570313,0 0.9272465,0.197754 0.470214,0.197754 0.782226,0.602051 z" />
  </g>
</svg>
