<?xml version="1.0" encoding="UTF-8" standalone="no"?>
<svg width="135" height="380" viewBox="0 0 135 380" version="1.1"
   xmlns="http://www.w3.org/2000/svg" xmlns:svg="http://www.w3.org/2000/svg">
   <defs>
      <linearGradient id="gpanel" x1="0" y1="0" x2="0" y2="380" xlink:href="#panel-stops" gradientUnits="userSpaceOnUse" >
         <stop offset="0" stop-color="#282828" />
         <stop offset="1" stop-color="#181818" />
      </linearGradient>
   </defs>
   <g id="g1">
      <rect opacity="1" id="g-panel" fill="url(#gpanel)" x="0" y="0" width="135.5" height="380" />
      <path id="a--div" fill="none" stroke="#737373" stroke-width="0.5"  d="M 22,86 h 100" />
      <path id="b--div" fill="none" stroke="#737373" stroke-width="0.5"  d="M 2,278 h 131" />
   </g>

    <path id="1--k#" transform="translate(22, 96)" fill="#4095bf" d="M 0.28320313,0 H 1.8994141 V 6.2011719 H 1.0595703 V 0.8203125 H 0 Z" />
    <path id="2--k#" transform="translate(78, 96)" fill="#4095bf" d="M 1.879883,5.600586 H 4.248047 V 6.430664 H 0 L 3.168945,3.061523 Q 3.525391,2.670898 3.525391,2.202148 3.525391,1.65039 3.149414,1.245117 2.773437,0.839844 2.265625,0.839844 q -0.419922,0 -0.791016,0.268554 Q 1.108398,1.376953 0.996094,1.938476 H 0.175781 Q 0.297852,1.020508 0.898437,0.512695 1.503906,0 2.319336,0 q 0.81543,0 1.420898,0.644531 0.605469,0.639648 0.605469,1.518555 0,0.424804 -0.15625,0.78125 -0.151367,0.351562 -0.541992,0.766601 z" />
    <path id="3--k#" transform="translate(22, 156)" fill="#4095bf" d="M 1.088868,1.611328 H 0.180664 Q 0.268554,0.825195 0.795899,0.415039 1.328125,0 2.080078,0 q 0.864258,0 1.430665,0.493164 0.566406,0.493164 0.566406,1.235352 0,0.922851 -0.9375,1.411132 1.098633,0.566407 1.098633,1.5625 0,0.78125 -0.600586,1.357422 -0.595703,0.571289 -1.416016,0.571289 -0.825195,0 -1.430664,-0.410156 Q 0.19043,5.805664 0,4.912109 h 0.927735 q 0.302734,0.966797 1.240234,0.966797 0.478516,0 0.834961,-0.327148 0.356445,-0.332032 0.356445,-0.771485 0,-0.458984 -0.327148,-0.839843 Q 2.705078,3.554687 1.958008,3.540039 V 2.768555 q 0.571289,-0.0098 0.893555,-0.278321 0.327148,-0.273437 0.327148,-0.698242 0,-0.43457 -0.302734,-0.737305 -0.302734,-0.302734 -0.737305,-0.302734 -0.410156,0 -0.654297,0.205078 -0.24414,0.205078 -0.395507,0.654297 z" />
    <path id="4--k#" transform="translate(78, 156)" fill="#4095bf" d="M 4.248047,0 V 4.462891 H 4.848633 V 5.19043 H 4.248047 V 6.411133 H 3.486328 V 5.19043 H 0 Z M 3.466797,1.982422 1.489258,4.462891 h 1.99707 V 1.982422 Z" />
    <path id="5--k#" transform="translate(22, 216)" fill="#4095bf" d="M 1.660156,0 H 4.46289 V 0.839844 H 2.314453 L 1.982421,2.03125 q 0.371094,-0.03906 0.429688,-0.03906 0.820312,0 1.430664,0.654297 0.610352,0.654297 0.610352,1.533203 0,0.942383 -0.698243,1.596679 Q 3.061523,6.430666 2.060546,6.430666 0.786132,6.430666 0,5.322268 L 0.761718,4.838869 q 0.561524,0.703125 1.333008,0.703125 0.634766,0 1.049805,-0.395507 0.419922,-0.400391 0.419922,-1.00586 0,-0.585937 -0.434571,-0.986328 -0.429687,-0.405273 -1.05957,-0.405273 -0.375976,0 -0.654297,0.136718 -0.27832,0.131836 -0.615234,0.424805 z" />
    <path id="6--k#" transform="translate(78, 216)" fill="#4095bf" d="m 2.641602,0 0.649414,0.449219 -1.367188,1.99707 q 0.170899,-0.01953 0.239258,-0.01953 l 0.180664,-0.0098 q 0.869141,0 1.52832,0.620118 0.65918,0.620117 0.65918,1.430664 0,0.961914 -0.654297,1.630859 -0.654297,0.668945 -1.59668,0.668945 -0.942382,0 -1.611328,-0.654297 Q 0,5.454069 0,4.526334 0,3.813444 0.419922,3.207975 Z m 1.000976,4.49707 q 0,-0.566406 -0.410156,-0.976562 -0.405274,-0.415039 -0.961914,-0.415039 -0.556641,0 -0.97168,0.419922 -0.415039,0.415039 -0.415039,0.971679 0,0.576172 0.400391,0.976563 0.405273,0.395508 0.986328,0.395508 0.571289,0 0.97168,-0.400391 0.40039,-0.40039 0.40039,-0.97168 z" />

   <g id="FX" transform="translate(60, 3.5)">
      <path id="FX--title" fill="#f9a54b"
         d="M 0,0 H 3.102539 V 0.764648 H 0.75586 v 1.397461 h 2.346679 v 0.75586 H 0.764649 V 5.598633 H 0 Z m 11.788086,0 h 0.84375 L 13.884278,2.043457 15.119141,0 h 0.852539 l -1.665527,2.737793 1.713867,2.86084 H 15.171875 L 13.884278,3.449707 12.579102,5.598633 h -0.852539 l 1.727051,-2.86084 z" />
   </g>
   <path id="th" stroke="#f9a54b" stroke-width=".25" d="M 5,6.25 h 47 M 130, 6.25 h -47" />
</svg>