<?xml version="1.0" encoding="UTF-8"?>
<svg width="16" height="16" viewBox="0 0 16 16" version="1.1"
   xmlns="http://www.w3.org/2000/svg"
   xmlns:svg="http://www.w3.org/2000/svg">
  <defs>
    <linearGradient id="bezel" x1="6" y1="0" x2="8" y2="15" gradientUnits="userSpaceOnUse" >
      <stop stop-color="#999999" offset="0" />
      <stop stop-color="#333333" offset="1" />
    </linearGradient>
    <linearGradient id="g-face" x1="9.5" y1="0" x2="12" y2="12.5" gradientUnits="userSpaceOnUse" >
      <stop stop-color="#d9d9d9" offset="0" />
      <stop stop-color="#404040" offset="1" />
    </linearGradient>
    <linearGradient id="g-glyph" x1="8" y1="5" x2="9" y2="11" gradientUnits="userSpaceOnUse" >
      <stop stop-color="#e6e6e6" offset="0" />
      <stop stop-color="#888888" offset="1" />
    </linearGradient>
  </defs>
  <g>
    <rect id="qbtn-punch" fill="#000000" width="16" height="16" x="0" y="0" rx="1" ry="1" />
    <path id="qbtn-bezel" fill="url(#bezel)" d="M 1.994141,0.75 C 1.654345,0.75 1.354657,0.91646 1.173828,1.17382 0.91757,1.35479 0.75,1.65324 0.75,1.99218 v 12.01563 c 0,0.33894 0.16757,0.63544 0.423828,0.8164 C 1.354657,15.08158 1.654345,15.25 1.994141,15.25 h 12.013672 c 0.339403,0 0.635514,-0.16892 0.816406,-0.42579 C 15.081081,14.64332 15.25,14.34722 15.25,14.00781 V 1.99218 C 15.25,1.65278 15.081081,1.35472 14.824219,1.17382 14.643327,0.91696 14.347215,0.75 14.007813,0.75 Z" />
    <path id="qbtn-hi-l" fill="#8c8c8c" opacity="0.4" d="M 1.174805,1.1748023 C 0.91854363,1.3557701 0.75000046,1.6533816 0.75000046,1.9923152 V 14.00768 c 0,0.338933 0.16854317,0.63655 0.42480454,0.81751 L 8.0037763,7.9999978 Z" />
    <path id="qbtn-hi-r" fill="#666666" opacity="0.4" d="M 14.825196,1.1748023 8.0037763,7.9999978 14.825196,14.82519 c 0.256862,-0.180892 0.424805,-0.478103 0.424805,-0.81751 V 1.9923152 c 0,-0.3394005 -0.167943,-0.6366205 -0.424805,-0.8175129 z" />
    <path id="qbtn-hi-t" fill="#d9d9d9" opacity="0.4" d="m 1.9942058,0.74999777 c -0.3397959,0 -0.6385722,0.1674402 -0.8194008,0.42480453 L 8.0037763,7.9999978 14.825196,1.1748023 C 14.644304,0.91794064 14.347088,0.74999777 14.007683,0.74999777 Z" />
    <path id="qbtn-hi-b" fill="#343434" opacity="0.4" d="M 7.9962247,7.9999978 14.825196,14.82519 c -0.180829,0.257366 -0.479605,0.424812 -0.819401,0.424812 H 1.992318 c -0.339405,0 -0.636621,-0.167949 -0.817513,-0.424812 z" />
    <rect id="qbtn-face" fill="url(#g-face)" width="12" height="12" x="2" y="2" rx="1" ry="1" />
    <path id="g-glyph" fill="url(#g-glyph)" d="M 8,2.625 C 5.0359112,2.625 2.625,5.0359112 2.625,8 c 0,2.964089 2.4109112,5.375 5.375,5.375 2.964089,0 5.375,-2.410911 5.375,-5.375 C 13.375,5.0359112 10.964089,2.625 8,2.625 Z m 0,0.75 c 2.558759,0 4.625,2.0662413 4.625,4.625 0,2.558759 -2.066241,4.625 -4.625,4.625 C 5.4412413,12.625 3.375,10.558759 3.375,8 3.375,5.4412413 5.4412413,3.375 8,3.375 Z M 5.265625,4.734375 4.734375,5.265625 7.46875,8 4.734375,10.734375 5.265625,11.265625 8,8.53125 l 2.734375,2.734375 0.53125,-0.53125 L 8.53125,8 11.265625,5.265625 10.734375,4.734375 8,7.46875 Z" />
  </g>
</svg>
